%TF.GenerationSoftware,KiCad,Pcbnew,8.0.5*%
%TF.CreationDate,2025-07-08T19:03:54-04:00*%
%TF.ProjectId,Var_Volt_Conv,5661725f-566f-46c7-945f-436f6e762e6b,rev?*%
%TF.SameCoordinates,Original*%
%TF.FileFunction,Copper,L2,Inr*%
%TF.FilePolarity,Positive*%
%FSLAX46Y46*%
G04 Gerber Fmt 4.6, Leading zero omitted, Abs format (unit mm)*
G04 Created by KiCad (PCBNEW 8.0.5) date 2025-07-08 19:03:54*
%MOMM*%
%LPD*%
G01*
G04 APERTURE LIST*
%TA.AperFunction,ComponentPad*%
%ADD10R,1.100000X1.300000*%
%TD*%
%TA.AperFunction,ComponentPad*%
%ADD11O,1.100000X1.300000*%
%TD*%
%TA.AperFunction,ComponentPad*%
%ADD12O,2.700000X1.500000*%
%TD*%
%TA.AperFunction,WasherPad*%
%ADD13C,4.000000*%
%TD*%
%TA.AperFunction,ComponentPad*%
%ADD14C,1.800000*%
%TD*%
%TA.AperFunction,ComponentPad*%
%ADD15R,2.600000X2.600000*%
%TD*%
%TA.AperFunction,ComponentPad*%
%ADD16C,2.600000*%
%TD*%
%TA.AperFunction,ComponentPad*%
%ADD17R,1.700000X1.700000*%
%TD*%
%TA.AperFunction,ComponentPad*%
%ADD18O,1.700000X1.700000*%
%TD*%
%TA.AperFunction,ComponentPad*%
%ADD19R,2.000000X4.000000*%
%TD*%
%TA.AperFunction,ComponentPad*%
%ADD20O,2.000000X3.300000*%
%TD*%
%TA.AperFunction,ComponentPad*%
%ADD21O,3.500000X2.000000*%
%TD*%
%TA.AperFunction,ComponentPad*%
%ADD22C,0.600000*%
%TD*%
%TA.AperFunction,ComponentPad*%
%ADD23C,1.300000*%
%TD*%
%TA.AperFunction,ViaPad*%
%ADD24C,0.600000*%
%TD*%
%TA.AperFunction,ViaPad*%
%ADD25C,0.450000*%
%TD*%
%TA.AperFunction,ViaPad*%
%ADD26C,0.800000*%
%TD*%
%TA.AperFunction,ViaPad*%
%ADD27C,0.700000*%
%TD*%
G04 APERTURE END LIST*
D10*
%TO.N,/[3] Display/LV0*%
%TO.C,U301*%
X131887500Y-126940000D03*
D11*
%TO.N,/[3] Display/LV1*%
X133387500Y-126940000D03*
%TO.N,/[3] Display/LV2*%
X134887500Y-126940000D03*
%TO.N,/[3] Display/LV3*%
X136387500Y-126940000D03*
%TO.N,/[3] Display/LV4*%
X137887500Y-126940000D03*
%TO.N,/[3] Display/LC2-*%
X139387500Y-126940000D03*
%TO.N,/[3] Display/LC2+*%
X140887500Y-126940000D03*
%TO.N,/[3] Display/LC1+*%
X142387500Y-126940000D03*
%TO.N,/[3] Display/LC1-*%
X143887500Y-126940000D03*
%TO.N,/[3] Display/LVOUT*%
X145387500Y-126940000D03*
%TO.N,GNDD*%
X146887500Y-126940000D03*
%TO.N,+3V0*%
X148387500Y-126940000D03*
%TO.N,SPI_MOSI*%
X149887500Y-126940000D03*
%TO.N,SPI_CLK*%
X151387500Y-126940000D03*
%TO.N,REGISTER_SELECT*%
X152887500Y-126940000D03*
%TO.N,{slash}RESET*%
X154387500Y-126940000D03*
%TO.N,{slash}CHIP_SELECT*%
X155887500Y-126940000D03*
D12*
%TO.N,+3V0*%
X126587500Y-125140000D03*
%TO.N,GNDD*%
X161187500Y-125140000D03*
%TD*%
D13*
%TO.N,*%
%TO.C,RV101*%
X187900000Y-124365000D03*
X179100000Y-124365000D03*
D14*
%TO.N,unconnected-(RV101-Pad1)*%
X181000000Y-117365000D03*
%TO.N,/[1] Power/BB_FEEDBACK*%
X183500000Y-117365000D03*
%TO.N,/[1] Power/BB_POT_R*%
X186000000Y-117365000D03*
%TD*%
D15*
%TO.N,/[1] Power/SCREW_TERMINAL_POWER*%
%TO.C,J102*%
X105142500Y-122215000D03*
D16*
%TO.N,GNDPWR*%
X105142500Y-127215000D03*
%TD*%
D15*
%TO.N,VARIABLE_OUTPUT_VOLTAGE_B*%
%TO.C,J103*%
X194292500Y-92090000D03*
D16*
%TO.N,GNDPWR*%
X194292500Y-87090000D03*
%TD*%
D17*
%TO.N,ST_3V3*%
%TO.C,J201*%
X158187500Y-86770000D03*
D18*
%TO.N,/[2] Microcontroller/SWCLK*%
X158187500Y-89310000D03*
%TO.N,/[2] Microcontroller/SWDIO*%
X158187500Y-91850000D03*
%TO.N,/[2] Microcontroller/NRST*%
X158187500Y-94390000D03*
%TO.N,GNDD*%
X158187500Y-96930000D03*
%TD*%
D19*
%TO.N,/[1] Power/JACK_POWER*%
%TO.C,J101*%
X109862500Y-92015000D03*
D20*
%TO.N,GNDPWR*%
X103862500Y-92015000D03*
D21*
%TO.N,N/C*%
X102862500Y-87515000D03*
X102862500Y-96515000D03*
%TD*%
D22*
%TO.N,GNDPWR*%
%TO.C,U104*%
X121862500Y-96175000D03*
X122862500Y-96175000D03*
%TD*%
D23*
%TO.N,GNDPWR*%
%TO.C,NT101*%
X101687500Y-106790000D03*
%TO.N,GNDA*%
X101687500Y-104190000D03*
%TO.N,GNDD*%
X101687500Y-101590000D03*
%TD*%
D24*
%TO.N,/[1] Power/JACK_POWER*%
X110387500Y-102115000D03*
X104237500Y-105990000D03*
%TO.N,/[1] Power/SCREW_TERMINAL_POWER*%
X103412500Y-115515000D03*
X109662500Y-111240000D03*
D25*
%TO.N,/[1] Power/BUCK_PPM_GATE*%
X123750000Y-81690000D03*
D26*
%TO.N,SYSTEM_POWER_B*%
X179000000Y-99000000D03*
X115000000Y-113200000D03*
D27*
X123800000Y-98800000D03*
D26*
X114000000Y-113200000D03*
X181000000Y-98000000D03*
X115000000Y-114100000D03*
D27*
X123800000Y-99600000D03*
D26*
X180000000Y-99000000D03*
D27*
X123800000Y-100400000D03*
D26*
X182000000Y-98000000D03*
X117000000Y-113200000D03*
X180000000Y-98000000D03*
X181000000Y-99000000D03*
X179000000Y-98000000D03*
X116000000Y-113200000D03*
X116000000Y-114100000D03*
X117000000Y-114100000D03*
X114000000Y-114100000D03*
X182000000Y-99000000D03*
D25*
%TO.N,/[1] Power/ST_PPM_GATE*%
X137050000Y-80290000D03*
X136450000Y-84190000D03*
D24*
X144153750Y-68700000D03*
D27*
%TO.N,/[1] Power/BUCK_VOS*%
X161400000Y-81700000D03*
D25*
X124087500Y-91840000D03*
X117512500Y-94465000D03*
D27*
X155300000Y-85200000D03*
D25*
%TO.N,+3V3*%
X169250000Y-117575000D03*
D27*
X127300000Y-81800000D03*
X129300000Y-83400000D03*
X130300000Y-83400000D03*
X128300000Y-83400000D03*
D25*
X120400000Y-109300000D03*
X169750000Y-118100000D03*
X136700000Y-92900000D03*
D27*
X167900000Y-93800000D03*
X128300000Y-82600000D03*
X129300000Y-82600000D03*
X115300000Y-121500000D03*
D25*
X121500000Y-109500000D03*
D27*
X116100000Y-120600000D03*
X116900000Y-120600000D03*
D25*
X122000000Y-109500000D03*
X121000000Y-109300000D03*
D27*
X115300000Y-120600000D03*
X127300000Y-83400000D03*
X128300000Y-81800000D03*
D25*
X136700000Y-92400000D03*
X137200000Y-92400000D03*
X169750000Y-117575000D03*
D27*
X129300000Y-81800000D03*
D25*
X169250000Y-118100000D03*
X119900000Y-109300000D03*
X137200000Y-92900000D03*
D27*
X166400000Y-98100000D03*
X130300000Y-81800000D03*
%TO.N,+3V0*%
X120300000Y-124850000D03*
X121200000Y-124850000D03*
D24*
%TO.N,/[2] Microcontroller/NRST*%
X163800000Y-95900000D03*
X143300000Y-93975000D03*
X135837500Y-100625000D03*
X137300000Y-96600000D03*
D26*
%TO.N,ST_3V3*%
X150500000Y-82200000D03*
X142400000Y-82100000D03*
%TO.N,VARIABLE_OUTPUT_VOLTAGE_B*%
X166000000Y-111000000D03*
X165000000Y-113000000D03*
X166000000Y-112000000D03*
X165000000Y-112000000D03*
D25*
X186400000Y-92900000D03*
D26*
X166000000Y-113000000D03*
D24*
%TO.N,/[1] Power/COMP_OUT*%
X145651250Y-80750000D03*
D25*
X145571250Y-77890000D03*
D24*
%TO.N,/[1] Power/GATE_J*%
X109137500Y-105015000D03*
X112287500Y-102690000D03*
%TO.N,/[1] Power/GATE_T*%
X104887500Y-112215000D03*
X102037500Y-114990000D03*
D25*
%TO.N,/[1] Power/PG*%
X124087500Y-94990000D03*
X120862500Y-95215000D03*
%TO.N,S-INPUT_VOLTAGE*%
X132900000Y-90900000D03*
X140100000Y-88500000D03*
%TO.N,S-OUTPUT_VOLTAGE*%
X153200000Y-93100000D03*
X167300000Y-91800000D03*
%TO.N,SPI_MOSI*%
X148900000Y-109900000D03*
X148900000Y-119400000D03*
D24*
%TO.N,{slash}CHIP_SELECT*%
X150100000Y-89400000D03*
D25*
X153000000Y-98500000D03*
%TO.N,S-INPUT_CURRENT*%
X150300000Y-98400000D03*
X137800000Y-98400000D03*
%TO.N,{slash}RESET*%
X150300000Y-102700000D03*
X148100000Y-100500000D03*
%TO.N,GNDPWR*%
X186400000Y-87600000D03*
D27*
X119500000Y-98900000D03*
D26*
X109400000Y-118200000D03*
D27*
X116600000Y-123550000D03*
D25*
X191500000Y-111500000D03*
X191500000Y-111000000D03*
X191000000Y-111000000D03*
D27*
X151300000Y-77800000D03*
D26*
X180500000Y-104000000D03*
D25*
X191000000Y-111500000D03*
D26*
X182500000Y-104000000D03*
X109800000Y-112200000D03*
X183500000Y-103000000D03*
D27*
X145000000Y-77000000D03*
D26*
X103500000Y-100000000D03*
X106100000Y-108500000D03*
X104200000Y-104600000D03*
D27*
X117400000Y-124800000D03*
X118700000Y-99700000D03*
X169100000Y-105700000D03*
X118700000Y-98900000D03*
D25*
X191500000Y-109500000D03*
D27*
X118700000Y-100500000D03*
X116550000Y-124800000D03*
D26*
X103500000Y-101000000D03*
D25*
X121300000Y-105100000D03*
X149100000Y-86600000D03*
D27*
X149300000Y-69700000D03*
D26*
X181500000Y-104000000D03*
X108500000Y-118200000D03*
X178000000Y-102500000D03*
D25*
X191500000Y-110500000D03*
D26*
X103500000Y-99000000D03*
X105100000Y-107600000D03*
D27*
X119500000Y-100500000D03*
D26*
X106100000Y-107600000D03*
D25*
X144700000Y-83000000D03*
D26*
X105100000Y-108500000D03*
D27*
X149400000Y-81000000D03*
D26*
X104500000Y-99000000D03*
D27*
X119500000Y-99700000D03*
D26*
X105500000Y-99000000D03*
D25*
%TO.N,GNDA*%
X167550000Y-116850000D03*
X185000000Y-99500000D03*
X189000000Y-112000000D03*
X188500000Y-108000000D03*
X188500000Y-112000000D03*
X189500000Y-112000000D03*
X120900000Y-112000000D03*
X121400000Y-112000000D03*
X185500000Y-99500000D03*
X189500000Y-112500000D03*
X189000000Y-112500000D03*
X167550000Y-117350000D03*
X188500000Y-112500000D03*
D27*
X124100000Y-97200000D03*
D25*
X167550000Y-116350000D03*
X121900000Y-112000000D03*
X188000000Y-107000000D03*
X122400000Y-112000000D03*
%TO.N,GNDD*%
X135500000Y-86100000D03*
D27*
X134900000Y-130700000D03*
X136400000Y-130700000D03*
D25*
X155021232Y-86221232D03*
X139300000Y-94500000D03*
X126600000Y-99200000D03*
X134100000Y-86100000D03*
X136200000Y-86100000D03*
D27*
X133400000Y-130700000D03*
D25*
X138000000Y-90500000D03*
D27*
X137900000Y-130700000D03*
D25*
X161300000Y-83700000D03*
X135900000Y-95800000D03*
D27*
X129800000Y-129300000D03*
D25*
X138300000Y-94500000D03*
D27*
X147500000Y-128750000D03*
D25*
X134800000Y-86100000D03*
X138000000Y-91100000D03*
X138800000Y-94500000D03*
X137800000Y-94500000D03*
%TD*%
%TA.AperFunction,Conductor*%
%TO.N,GNDPWR*%
G36*
X196991236Y-67590726D02*
G01*
X197281296Y-67608271D01*
X197296159Y-67610076D01*
X197578298Y-67661780D01*
X197592835Y-67665363D01*
X197866672Y-67750695D01*
X197880663Y-67756000D01*
X198142243Y-67873727D01*
X198155489Y-67880680D01*
X198400965Y-68029075D01*
X198413276Y-68037573D01*
X198619961Y-68199500D01*
X198639073Y-68214473D01*
X198650281Y-68224403D01*
X198853096Y-68427218D01*
X198863026Y-68438426D01*
X198982981Y-68591538D01*
X199039922Y-68664217D01*
X199048428Y-68676540D01*
X199196816Y-68922004D01*
X199203775Y-68935263D01*
X199321497Y-69196831D01*
X199326806Y-69210832D01*
X199412135Y-69484663D01*
X199415719Y-69499201D01*
X199467423Y-69781340D01*
X199469228Y-69796205D01*
X199486774Y-70086263D01*
X199487000Y-70093750D01*
X199487000Y-129086249D01*
X199486774Y-129093736D01*
X199469228Y-129383794D01*
X199467423Y-129398659D01*
X199415719Y-129680798D01*
X199412135Y-129695336D01*
X199326806Y-129969167D01*
X199321497Y-129983168D01*
X199203775Y-130244736D01*
X199196816Y-130257995D01*
X199048428Y-130503459D01*
X199039922Y-130515782D01*
X198863026Y-130741573D01*
X198853096Y-130752781D01*
X198650281Y-130955596D01*
X198639073Y-130965526D01*
X198413282Y-131142422D01*
X198400959Y-131150928D01*
X198155495Y-131299316D01*
X198142236Y-131306275D01*
X197880668Y-131423997D01*
X197866667Y-131429306D01*
X197592836Y-131514635D01*
X197578298Y-131518219D01*
X197296159Y-131569923D01*
X197281294Y-131571728D01*
X196991224Y-131589274D01*
X196983737Y-131589500D01*
X196913887Y-131589500D01*
X196913638Y-131589515D01*
X101994905Y-131610742D01*
X101986545Y-131610462D01*
X101696002Y-131590896D01*
X101681217Y-131589002D01*
X101398175Y-131535294D01*
X101383723Y-131531640D01*
X101109159Y-131444352D01*
X101095251Y-131438990D01*
X101062394Y-131423997D01*
X100833154Y-131319391D01*
X100819989Y-131312399D01*
X100574131Y-131162209D01*
X100561901Y-131153688D01*
X100335843Y-130975084D01*
X100324723Y-130965156D01*
X100121735Y-130760722D01*
X100111887Y-130749532D01*
X100073320Y-130699999D01*
X132844750Y-130699999D01*
X132844750Y-130700000D01*
X132863670Y-130843708D01*
X132863671Y-130843712D01*
X132919137Y-130977622D01*
X132919138Y-130977624D01*
X132919139Y-130977625D01*
X133007379Y-131092621D01*
X133122375Y-131180861D01*
X133122376Y-131180861D01*
X133122377Y-131180862D01*
X133167013Y-131199350D01*
X133256291Y-131236330D01*
X133383280Y-131253048D01*
X133399999Y-131255250D01*
X133400000Y-131255250D01*
X133400001Y-131255250D01*
X133414977Y-131253278D01*
X133543709Y-131236330D01*
X133677625Y-131180861D01*
X133792621Y-131092621D01*
X133880861Y-130977625D01*
X133936330Y-130843709D01*
X133955250Y-130700000D01*
X133955250Y-130699999D01*
X134344750Y-130699999D01*
X134344750Y-130700000D01*
X134363670Y-130843708D01*
X134363671Y-130843712D01*
X134419137Y-130977622D01*
X134419138Y-130977624D01*
X134419139Y-130977625D01*
X134507379Y-131092621D01*
X134622375Y-131180861D01*
X134622376Y-131180861D01*
X134622377Y-131180862D01*
X134667013Y-131199350D01*
X134756291Y-131236330D01*
X134883280Y-131253048D01*
X134899999Y-131255250D01*
X134900000Y-131255250D01*
X134900001Y-131255250D01*
X134914977Y-131253278D01*
X135043709Y-131236330D01*
X135177625Y-131180861D01*
X135292621Y-131092621D01*
X135380861Y-130977625D01*
X135436330Y-130843709D01*
X135455250Y-130700000D01*
X135455250Y-130699999D01*
X135844750Y-130699999D01*
X135844750Y-130700000D01*
X135863670Y-130843708D01*
X135863671Y-130843712D01*
X135919137Y-130977622D01*
X135919138Y-130977624D01*
X135919139Y-130977625D01*
X136007379Y-131092621D01*
X136122375Y-131180861D01*
X136122376Y-131180861D01*
X136122377Y-131180862D01*
X136167013Y-131199350D01*
X136256291Y-131236330D01*
X136383280Y-131253048D01*
X136399999Y-131255250D01*
X136400000Y-131255250D01*
X136400001Y-131255250D01*
X136414977Y-131253278D01*
X136543709Y-131236330D01*
X136677625Y-131180861D01*
X136792621Y-131092621D01*
X136880861Y-130977625D01*
X136936330Y-130843709D01*
X136955250Y-130700000D01*
X136955250Y-130699999D01*
X137344750Y-130699999D01*
X137344750Y-130700000D01*
X137363670Y-130843708D01*
X137363671Y-130843712D01*
X137419137Y-130977622D01*
X137419138Y-130977624D01*
X137419139Y-130977625D01*
X137507379Y-131092621D01*
X137622375Y-131180861D01*
X137622376Y-131180861D01*
X137622377Y-131180862D01*
X137667013Y-131199350D01*
X137756291Y-131236330D01*
X137883280Y-131253048D01*
X137899999Y-131255250D01*
X137900000Y-131255250D01*
X137900001Y-131255250D01*
X137914977Y-131253278D01*
X138043709Y-131236330D01*
X138177625Y-131180861D01*
X138292621Y-131092621D01*
X138380861Y-130977625D01*
X138436330Y-130843709D01*
X138455250Y-130700000D01*
X138436330Y-130556291D01*
X138380861Y-130422375D01*
X138292621Y-130307379D01*
X138177625Y-130219139D01*
X138177624Y-130219138D01*
X138177622Y-130219137D01*
X138043712Y-130163671D01*
X138043710Y-130163670D01*
X138043709Y-130163670D01*
X137971854Y-130154210D01*
X137900001Y-130144750D01*
X137899999Y-130144750D01*
X137756291Y-130163670D01*
X137756287Y-130163671D01*
X137622377Y-130219137D01*
X137507379Y-130307379D01*
X137419137Y-130422377D01*
X137363671Y-130556287D01*
X137363670Y-130556291D01*
X137344750Y-130699999D01*
X136955250Y-130699999D01*
X136936330Y-130556291D01*
X136880861Y-130422375D01*
X136792621Y-130307379D01*
X136677625Y-130219139D01*
X136677624Y-130219138D01*
X136677622Y-130219137D01*
X136543712Y-130163671D01*
X136543710Y-130163670D01*
X136543709Y-130163670D01*
X136471854Y-130154210D01*
X136400001Y-130144750D01*
X136399999Y-130144750D01*
X136256291Y-130163670D01*
X136256287Y-130163671D01*
X136122377Y-130219137D01*
X136007379Y-130307379D01*
X135919137Y-130422377D01*
X135863671Y-130556287D01*
X135863670Y-130556291D01*
X135844750Y-130699999D01*
X135455250Y-130699999D01*
X135436330Y-130556291D01*
X135380861Y-130422375D01*
X135292621Y-130307379D01*
X135177625Y-130219139D01*
X135177624Y-130219138D01*
X135177622Y-130219137D01*
X135043712Y-130163671D01*
X135043710Y-130163670D01*
X135043709Y-130163670D01*
X134971854Y-130154210D01*
X134900001Y-130144750D01*
X134899999Y-130144750D01*
X134756291Y-130163670D01*
X134756287Y-130163671D01*
X134622377Y-130219137D01*
X134507379Y-130307379D01*
X134419137Y-130422377D01*
X134363671Y-130556287D01*
X134363670Y-130556291D01*
X134344750Y-130699999D01*
X133955250Y-130699999D01*
X133936330Y-130556291D01*
X133880861Y-130422375D01*
X133792621Y-130307379D01*
X133677625Y-130219139D01*
X133677624Y-130219138D01*
X133677622Y-130219137D01*
X133543712Y-130163671D01*
X133543710Y-130163670D01*
X133543709Y-130163670D01*
X133471854Y-130154210D01*
X133400001Y-130144750D01*
X133399999Y-130144750D01*
X133256291Y-130163670D01*
X133256287Y-130163671D01*
X133122377Y-130219137D01*
X133007379Y-130307379D01*
X132919137Y-130422377D01*
X132863671Y-130556287D01*
X132863670Y-130556291D01*
X132844750Y-130699999D01*
X100073320Y-130699999D01*
X99934889Y-130522207D01*
X99926455Y-130509917D01*
X99778020Y-130263007D01*
X99771121Y-130249793D01*
X99724086Y-130144750D01*
X99653379Y-129986839D01*
X99648122Y-129972909D01*
X99562782Y-129697722D01*
X99559232Y-129683248D01*
X99539965Y-129577625D01*
X99507533Y-129399829D01*
X99505745Y-129385033D01*
X99505670Y-129383794D01*
X99500625Y-129299999D01*
X129244750Y-129299999D01*
X129244750Y-129300000D01*
X129263670Y-129443708D01*
X129263671Y-129443712D01*
X129319137Y-129577622D01*
X129319138Y-129577624D01*
X129319139Y-129577625D01*
X129407379Y-129692621D01*
X129522375Y-129780861D01*
X129656291Y-129836330D01*
X129783280Y-129853048D01*
X129799999Y-129855250D01*
X129800000Y-129855250D01*
X129800001Y-129855250D01*
X129814977Y-129853278D01*
X129943709Y-129836330D01*
X130077625Y-129780861D01*
X130192621Y-129692621D01*
X130280861Y-129577625D01*
X130336330Y-129443709D01*
X130355250Y-129300000D01*
X130336330Y-129156291D01*
X130280861Y-129022375D01*
X130192621Y-128907379D01*
X130077625Y-128819139D01*
X130077624Y-128819138D01*
X130077622Y-128819137D01*
X129943712Y-128763671D01*
X129943710Y-128763670D01*
X129943709Y-128763670D01*
X129839877Y-128750000D01*
X146944750Y-128750000D01*
X146953852Y-128819139D01*
X146963670Y-128893708D01*
X146963671Y-128893712D01*
X147019137Y-129027622D01*
X147019138Y-129027624D01*
X147019139Y-129027625D01*
X147107379Y-129142621D01*
X147222375Y-129230861D01*
X147356291Y-129286330D01*
X147483280Y-129303048D01*
X147499999Y-129305250D01*
X147500000Y-129305250D01*
X147500001Y-129305250D01*
X147514977Y-129303278D01*
X147643709Y-129286330D01*
X147777625Y-129230861D01*
X147892621Y-129142621D01*
X147980861Y-129027625D01*
X148036330Y-128893709D01*
X148055250Y-128750000D01*
X148036330Y-128606291D01*
X147980861Y-128472375D01*
X147892621Y-128357379D01*
X147777625Y-128269139D01*
X147777624Y-128269138D01*
X147777622Y-128269137D01*
X147643712Y-128213671D01*
X147643710Y-128213670D01*
X147643709Y-128213670D01*
X147571854Y-128204210D01*
X147500001Y-128194750D01*
X147499999Y-128194750D01*
X147356291Y-128213670D01*
X147356287Y-128213671D01*
X147222377Y-128269137D01*
X147107379Y-128357379D01*
X147019137Y-128472377D01*
X146963671Y-128606287D01*
X146963670Y-128606291D01*
X146944750Y-128750000D01*
X129839877Y-128750000D01*
X129800001Y-128744750D01*
X129799999Y-128744750D01*
X129656291Y-128763670D01*
X129656287Y-128763671D01*
X129522377Y-128819137D01*
X129407379Y-128907379D01*
X129319137Y-129022377D01*
X129263671Y-129156287D01*
X129263670Y-129156291D01*
X129244750Y-129299999D01*
X99500625Y-129299999D01*
X99488224Y-129094052D01*
X99488000Y-129086599D01*
X99488000Y-127214995D01*
X103337453Y-127214995D01*
X103337453Y-127215004D01*
X103357613Y-127484026D01*
X103357613Y-127484028D01*
X103417642Y-127747033D01*
X103417648Y-127747052D01*
X103516209Y-127998181D01*
X103516208Y-127998181D01*
X103651102Y-128231822D01*
X103704794Y-128299151D01*
X103704795Y-128299151D01*
X104541458Y-127462488D01*
X104566478Y-127522890D01*
X104637612Y-127629351D01*
X104728149Y-127719888D01*
X104834610Y-127791022D01*
X104895010Y-127816041D01*
X104057348Y-128653702D01*
X104239983Y-128778220D01*
X104239985Y-128778221D01*
X104483039Y-128895269D01*
X104483037Y-128895269D01*
X104740837Y-128974790D01*
X104740843Y-128974792D01*
X105007601Y-129014999D01*
X105007610Y-129015000D01*
X105277390Y-129015000D01*
X105277398Y-129014999D01*
X105544156Y-128974792D01*
X105544162Y-128974790D01*
X105801961Y-128895269D01*
X106045021Y-128778218D01*
X106227650Y-128653702D01*
X105389988Y-127816041D01*
X105450390Y-127791022D01*
X105556851Y-127719888D01*
X105647388Y-127629351D01*
X105718522Y-127522890D01*
X105743541Y-127462488D01*
X106580203Y-128299151D01*
X106580204Y-128299150D01*
X106633893Y-128231828D01*
X106633900Y-128231817D01*
X106768790Y-127998181D01*
X106867351Y-127747052D01*
X106867357Y-127747033D01*
X106927386Y-127484028D01*
X106927386Y-127484026D01*
X106947547Y-127215004D01*
X106947547Y-127214995D01*
X106932255Y-127010943D01*
X123187000Y-127010943D01*
X123187000Y-127169057D01*
X123199312Y-127215004D01*
X123227923Y-127321783D01*
X123227926Y-127321790D01*
X123306975Y-127458709D01*
X123306979Y-127458714D01*
X123306980Y-127458716D01*
X123418784Y-127570520D01*
X123418786Y-127570521D01*
X123418790Y-127570524D01*
X123509598Y-127622951D01*
X123555716Y-127649577D01*
X123708443Y-127690500D01*
X123708445Y-127690500D01*
X123866555Y-127690500D01*
X123866557Y-127690500D01*
X124019284Y-127649577D01*
X124156216Y-127570520D01*
X124268020Y-127458716D01*
X124347077Y-127321784D01*
X124388000Y-127169057D01*
X124388000Y-127010943D01*
X124347077Y-126858216D01*
X124293884Y-126766082D01*
X124268024Y-126721290D01*
X124268018Y-126721282D01*
X124156217Y-126609481D01*
X124156209Y-126609475D01*
X124019290Y-126530426D01*
X124019286Y-126530424D01*
X124019284Y-126530423D01*
X123866557Y-126489500D01*
X123708443Y-126489500D01*
X123555716Y-126530423D01*
X123555709Y-126530426D01*
X123418790Y-126609475D01*
X123418782Y-126609481D01*
X123306981Y-126721282D01*
X123306975Y-126721290D01*
X123227926Y-126858209D01*
X123227923Y-126858216D01*
X123187000Y-127010943D01*
X106932255Y-127010943D01*
X106927386Y-126945973D01*
X106927386Y-126945971D01*
X106867357Y-126682966D01*
X106867351Y-126682947D01*
X106768790Y-126431818D01*
X106768791Y-126431818D01*
X106675507Y-126270247D01*
X131137000Y-126270247D01*
X131137000Y-127609752D01*
X131148631Y-127668229D01*
X131148632Y-127668230D01*
X131192947Y-127734552D01*
X131259269Y-127778867D01*
X131259270Y-127778868D01*
X131317747Y-127790499D01*
X131317750Y-127790500D01*
X131317752Y-127790500D01*
X132457250Y-127790500D01*
X132457251Y-127790499D01*
X132472068Y-127787552D01*
X132515729Y-127778868D01*
X132515729Y-127778867D01*
X132515731Y-127778867D01*
X132582052Y-127734552D01*
X132626367Y-127668231D01*
X132626367Y-127668229D01*
X132626368Y-127668229D01*
X132635527Y-127622183D01*
X132667911Y-127560272D01*
X132728627Y-127525698D01*
X132798396Y-127529437D01*
X132844825Y-127558693D01*
X132909080Y-127622948D01*
X132909084Y-127622951D01*
X133031998Y-127705080D01*
X133032011Y-127705087D01*
X133168582Y-127761656D01*
X133168587Y-127761658D01*
X133168591Y-127761658D01*
X133168592Y-127761659D01*
X133313579Y-127790500D01*
X133313582Y-127790500D01*
X133461420Y-127790500D01*
X133558962Y-127771096D01*
X133606413Y-127761658D01*
X133742995Y-127705084D01*
X133865916Y-127622951D01*
X133970451Y-127518416D01*
X134034398Y-127422713D01*
X134088010Y-127377908D01*
X134157335Y-127369201D01*
X134220362Y-127399355D01*
X134240602Y-127422713D01*
X134304548Y-127518415D01*
X134304551Y-127518419D01*
X134409080Y-127622948D01*
X134409084Y-127622951D01*
X134531998Y-127705080D01*
X134532011Y-127705087D01*
X134668582Y-127761656D01*
X134668587Y-127761658D01*
X134668591Y-127761658D01*
X134668592Y-127761659D01*
X134813579Y-127790500D01*
X134813582Y-127790500D01*
X134961420Y-127790500D01*
X135058962Y-127771096D01*
X135106413Y-127761658D01*
X135242995Y-127705084D01*
X135365916Y-127622951D01*
X135470451Y-127518416D01*
X135534398Y-127422713D01*
X135588010Y-127377908D01*
X135657335Y-127369201D01*
X135720362Y-127399355D01*
X135740602Y-127422713D01*
X135804548Y-127518415D01*
X135804551Y-127518419D01*
X135909080Y-127622948D01*
X135909084Y-127622951D01*
X136031998Y-127705080D01*
X136032011Y-127705087D01*
X136168582Y-127761656D01*
X136168587Y-127761658D01*
X136168591Y-127761658D01*
X136168592Y-127761659D01*
X136313579Y-127790500D01*
X136313582Y-127790500D01*
X136461420Y-127790500D01*
X136558962Y-127771096D01*
X136606413Y-127761658D01*
X136742995Y-127705084D01*
X136865916Y-127622951D01*
X136970451Y-127518416D01*
X137034398Y-127422713D01*
X137088010Y-127377908D01*
X137157335Y-127369201D01*
X137220362Y-127399355D01*
X137240602Y-127422713D01*
X137304548Y-127518415D01*
X137304551Y-127518419D01*
X137409080Y-127622948D01*
X137409084Y-127622951D01*
X137531998Y-127705080D01*
X137532011Y-127705087D01*
X137668582Y-127761656D01*
X137668587Y-127761658D01*
X137668591Y-127761658D01*
X137668592Y-127761659D01*
X137813579Y-127790500D01*
X137813582Y-127790500D01*
X137961420Y-127790500D01*
X138058962Y-127771096D01*
X138106413Y-127761658D01*
X138242995Y-127705084D01*
X138365916Y-127622951D01*
X138470451Y-127518416D01*
X138534398Y-127422713D01*
X138588010Y-127377908D01*
X138657335Y-127369201D01*
X138720362Y-127399355D01*
X138740602Y-127422713D01*
X138804548Y-127518415D01*
X138804551Y-127518419D01*
X138909080Y-127622948D01*
X138909084Y-127622951D01*
X139031998Y-127705080D01*
X139032011Y-127705087D01*
X139168582Y-127761656D01*
X139168587Y-127761658D01*
X139168591Y-127761658D01*
X139168592Y-127761659D01*
X139313579Y-127790500D01*
X139313582Y-127790500D01*
X139461420Y-127790500D01*
X139558962Y-127771096D01*
X139606413Y-127761658D01*
X139742995Y-127705084D01*
X139865916Y-127622951D01*
X139970451Y-127518416D01*
X140034398Y-127422713D01*
X140088010Y-127377908D01*
X140157335Y-127369201D01*
X140220362Y-127399355D01*
X140240602Y-127422713D01*
X140304548Y-127518415D01*
X140304551Y-127518419D01*
X140409080Y-127622948D01*
X140409084Y-127622951D01*
X140531998Y-127705080D01*
X140532011Y-127705087D01*
X140668582Y-127761656D01*
X140668587Y-127761658D01*
X140668591Y-127761658D01*
X140668592Y-127761659D01*
X140813579Y-127790500D01*
X140813582Y-127790500D01*
X140961420Y-127790500D01*
X141058962Y-127771096D01*
X141106413Y-127761658D01*
X141242995Y-127705084D01*
X141365916Y-127622951D01*
X141470451Y-127518416D01*
X141534398Y-127422713D01*
X141588010Y-127377908D01*
X141657335Y-127369201D01*
X141720362Y-127399355D01*
X141740602Y-127422713D01*
X141804548Y-127518415D01*
X141804551Y-127518419D01*
X141909080Y-127622948D01*
X141909084Y-127622951D01*
X142031998Y-127705080D01*
X142032011Y-127705087D01*
X142168582Y-127761656D01*
X142168587Y-127761658D01*
X142168591Y-127761658D01*
X142168592Y-127761659D01*
X142313579Y-127790500D01*
X142313582Y-127790500D01*
X142461420Y-127790500D01*
X142558962Y-127771096D01*
X142606413Y-127761658D01*
X142742995Y-127705084D01*
X142865916Y-127622951D01*
X142970451Y-127518416D01*
X143034398Y-127422713D01*
X143088010Y-127377908D01*
X143157335Y-127369201D01*
X143220362Y-127399355D01*
X143240602Y-127422713D01*
X143304548Y-127518415D01*
X143304551Y-127518419D01*
X143409080Y-127622948D01*
X143409084Y-127622951D01*
X143531998Y-127705080D01*
X143532011Y-127705087D01*
X143668582Y-127761656D01*
X143668587Y-127761658D01*
X143668591Y-127761658D01*
X143668592Y-127761659D01*
X143813579Y-127790500D01*
X143813582Y-127790500D01*
X143961420Y-127790500D01*
X144058962Y-127771096D01*
X144106413Y-127761658D01*
X144242995Y-127705084D01*
X144365916Y-127622951D01*
X144470451Y-127518416D01*
X144534398Y-127422713D01*
X144588010Y-127377908D01*
X144657335Y-127369201D01*
X144720362Y-127399355D01*
X144740602Y-127422713D01*
X144804548Y-127518415D01*
X144804551Y-127518419D01*
X144909080Y-127622948D01*
X144909084Y-127622951D01*
X145031998Y-127705080D01*
X145032011Y-127705087D01*
X145168582Y-127761656D01*
X145168587Y-127761658D01*
X145168591Y-127761658D01*
X145168592Y-127761659D01*
X145313579Y-127790500D01*
X145313582Y-127790500D01*
X145461420Y-127790500D01*
X145558962Y-127771096D01*
X145606413Y-127761658D01*
X145742995Y-127705084D01*
X145865916Y-127622951D01*
X145970451Y-127518416D01*
X146034398Y-127422713D01*
X146088010Y-127377908D01*
X146157335Y-127369201D01*
X146220362Y-127399355D01*
X146240602Y-127422713D01*
X146304548Y-127518415D01*
X146304551Y-127518419D01*
X146409080Y-127622948D01*
X146409084Y-127622951D01*
X146531998Y-127705080D01*
X146532011Y-127705087D01*
X146668582Y-127761656D01*
X146668587Y-127761658D01*
X146668591Y-127761658D01*
X146668592Y-127761659D01*
X146813579Y-127790500D01*
X146813582Y-127790500D01*
X146961420Y-127790500D01*
X147058962Y-127771096D01*
X147106413Y-127761658D01*
X147242995Y-127705084D01*
X147365916Y-127622951D01*
X147470451Y-127518416D01*
X147534398Y-127422713D01*
X147588010Y-127377908D01*
X147657335Y-127369201D01*
X147720362Y-127399355D01*
X147740602Y-127422713D01*
X147804548Y-127518415D01*
X147804551Y-127518419D01*
X147909080Y-127622948D01*
X147909084Y-127622951D01*
X148031998Y-127705080D01*
X148032011Y-127705087D01*
X148168582Y-127761656D01*
X148168587Y-127761658D01*
X148168591Y-127761658D01*
X148168592Y-127761659D01*
X148313579Y-127790500D01*
X148313582Y-127790500D01*
X148461420Y-127790500D01*
X148558962Y-127771096D01*
X148606413Y-127761658D01*
X148742995Y-127705084D01*
X148865916Y-127622951D01*
X148970451Y-127518416D01*
X149034398Y-127422713D01*
X149088010Y-127377908D01*
X149157335Y-127369201D01*
X149220362Y-127399355D01*
X149240602Y-127422713D01*
X149304548Y-127518415D01*
X149304551Y-127518419D01*
X149409080Y-127622948D01*
X149409084Y-127622951D01*
X149531998Y-127705080D01*
X149532011Y-127705087D01*
X149668582Y-127761656D01*
X149668587Y-127761658D01*
X149668591Y-127761658D01*
X149668592Y-127761659D01*
X149813579Y-127790500D01*
X149813582Y-127790500D01*
X149961420Y-127790500D01*
X150058962Y-127771096D01*
X150106413Y-127761658D01*
X150242995Y-127705084D01*
X150365916Y-127622951D01*
X150470451Y-127518416D01*
X150534398Y-127422713D01*
X150588010Y-127377908D01*
X150657335Y-127369201D01*
X150720362Y-127399355D01*
X150740602Y-127422713D01*
X150804548Y-127518415D01*
X150804551Y-127518419D01*
X150909080Y-127622948D01*
X150909084Y-127622951D01*
X151031998Y-127705080D01*
X151032011Y-127705087D01*
X151168582Y-127761656D01*
X151168587Y-127761658D01*
X151168591Y-127761658D01*
X151168592Y-127761659D01*
X151313579Y-127790500D01*
X151313582Y-127790500D01*
X151461420Y-127790500D01*
X151558962Y-127771096D01*
X151606413Y-127761658D01*
X151742995Y-127705084D01*
X151865916Y-127622951D01*
X151970451Y-127518416D01*
X152034398Y-127422713D01*
X152088010Y-127377908D01*
X152157335Y-127369201D01*
X152220362Y-127399355D01*
X152240602Y-127422713D01*
X152304548Y-127518415D01*
X152304551Y-127518419D01*
X152409080Y-127622948D01*
X152409084Y-127622951D01*
X152531998Y-127705080D01*
X152532011Y-127705087D01*
X152668582Y-127761656D01*
X152668587Y-127761658D01*
X152668591Y-127761658D01*
X152668592Y-127761659D01*
X152813579Y-127790500D01*
X152813582Y-127790500D01*
X152961420Y-127790500D01*
X153058962Y-127771096D01*
X153106413Y-127761658D01*
X153242995Y-127705084D01*
X153365916Y-127622951D01*
X153470451Y-127518416D01*
X153534398Y-127422713D01*
X153588010Y-127377908D01*
X153657335Y-127369201D01*
X153720362Y-127399355D01*
X153740602Y-127422713D01*
X153804548Y-127518415D01*
X153804551Y-127518419D01*
X153909080Y-127622948D01*
X153909084Y-127622951D01*
X154031998Y-127705080D01*
X154032011Y-127705087D01*
X154168582Y-127761656D01*
X154168587Y-127761658D01*
X154168591Y-127761658D01*
X154168592Y-127761659D01*
X154313579Y-127790500D01*
X154313582Y-127790500D01*
X154461420Y-127790500D01*
X154558962Y-127771096D01*
X154606413Y-127761658D01*
X154742995Y-127705084D01*
X154865916Y-127622951D01*
X154970451Y-127518416D01*
X155034398Y-127422713D01*
X155088010Y-127377908D01*
X155157335Y-127369201D01*
X155220362Y-127399355D01*
X155240602Y-127422713D01*
X155304548Y-127518415D01*
X155304551Y-127518419D01*
X155409080Y-127622948D01*
X155409084Y-127622951D01*
X155531998Y-127705080D01*
X155532011Y-127705087D01*
X155668582Y-127761656D01*
X155668587Y-127761658D01*
X155668591Y-127761658D01*
X155668592Y-127761659D01*
X155813579Y-127790500D01*
X155813582Y-127790500D01*
X155961420Y-127790500D01*
X156058962Y-127771096D01*
X156106413Y-127761658D01*
X156242995Y-127705084D01*
X156365916Y-127622951D01*
X156470451Y-127518416D01*
X156552584Y-127395495D01*
X156609158Y-127258913D01*
X156637000Y-127118945D01*
X156638000Y-127113920D01*
X156638000Y-127010943D01*
X163387000Y-127010943D01*
X163387000Y-127169057D01*
X163399312Y-127215004D01*
X163427923Y-127321783D01*
X163427926Y-127321790D01*
X163506975Y-127458709D01*
X163506979Y-127458714D01*
X163506980Y-127458716D01*
X163618784Y-127570520D01*
X163618786Y-127570521D01*
X163618790Y-127570524D01*
X163709598Y-127622951D01*
X163755716Y-127649577D01*
X163908443Y-127690500D01*
X163908445Y-127690500D01*
X164066555Y-127690500D01*
X164066557Y-127690500D01*
X164219284Y-127649577D01*
X164356216Y-127570520D01*
X164468020Y-127458716D01*
X164547077Y-127321784D01*
X164588000Y-127169057D01*
X164588000Y-127010943D01*
X164547077Y-126858216D01*
X164493884Y-126766082D01*
X164468024Y-126721290D01*
X164468018Y-126721282D01*
X164356217Y-126609481D01*
X164356209Y-126609475D01*
X164219290Y-126530426D01*
X164219286Y-126530424D01*
X164219284Y-126530423D01*
X164066557Y-126489500D01*
X163908443Y-126489500D01*
X163755716Y-126530423D01*
X163755709Y-126530426D01*
X163618790Y-126609475D01*
X163618782Y-126609481D01*
X163506981Y-126721282D01*
X163506975Y-126721290D01*
X163427926Y-126858209D01*
X163427923Y-126858216D01*
X163387000Y-127010943D01*
X156638000Y-127010943D01*
X156638000Y-126766079D01*
X156609159Y-126621092D01*
X156609158Y-126621091D01*
X156609158Y-126621087D01*
X156580274Y-126551355D01*
X156552587Y-126484511D01*
X156552580Y-126484498D01*
X156470451Y-126361584D01*
X156470448Y-126361580D01*
X156365919Y-126257051D01*
X156365915Y-126257048D01*
X156243001Y-126174919D01*
X156242988Y-126174912D01*
X156106417Y-126118343D01*
X156106407Y-126118340D01*
X155961420Y-126089500D01*
X155961418Y-126089500D01*
X155813582Y-126089500D01*
X155813580Y-126089500D01*
X155668592Y-126118340D01*
X155668582Y-126118343D01*
X155532011Y-126174912D01*
X155531998Y-126174919D01*
X155409084Y-126257048D01*
X155409080Y-126257051D01*
X155304551Y-126361580D01*
X155304548Y-126361584D01*
X155240602Y-126457286D01*
X155186989Y-126502091D01*
X155117664Y-126510798D01*
X155054637Y-126480643D01*
X155034398Y-126457286D01*
X154970451Y-126361584D01*
X154970448Y-126361580D01*
X154865919Y-126257051D01*
X154865915Y-126257048D01*
X154743001Y-126174919D01*
X154742988Y-126174912D01*
X154606417Y-126118343D01*
X154606407Y-126118340D01*
X154461420Y-126089500D01*
X154461418Y-126089500D01*
X154313582Y-126089500D01*
X154313580Y-126089500D01*
X154168592Y-126118340D01*
X154168582Y-126118343D01*
X154032011Y-126174912D01*
X154031998Y-126174919D01*
X153909084Y-126257048D01*
X153909080Y-126257051D01*
X153804551Y-126361580D01*
X153804548Y-126361584D01*
X153740602Y-126457286D01*
X153686989Y-126502091D01*
X153617664Y-126510798D01*
X153554637Y-126480643D01*
X153534398Y-126457286D01*
X153470451Y-126361584D01*
X153470448Y-126361580D01*
X153365919Y-126257051D01*
X153365915Y-126257048D01*
X153243001Y-126174919D01*
X153242988Y-126174912D01*
X153106417Y-126118343D01*
X153106407Y-126118340D01*
X152961420Y-126089500D01*
X152961418Y-126089500D01*
X152813582Y-126089500D01*
X152813580Y-126089500D01*
X152668592Y-126118340D01*
X152668582Y-126118343D01*
X152532011Y-126174912D01*
X152531998Y-126174919D01*
X152409084Y-126257048D01*
X152409080Y-126257051D01*
X152304551Y-126361580D01*
X152304548Y-126361584D01*
X152240602Y-126457286D01*
X152186989Y-126502091D01*
X152117664Y-126510798D01*
X152054637Y-126480643D01*
X152034398Y-126457286D01*
X151970451Y-126361584D01*
X151970448Y-126361580D01*
X151865919Y-126257051D01*
X151865915Y-126257048D01*
X151743001Y-126174919D01*
X151742988Y-126174912D01*
X151606417Y-126118343D01*
X151606407Y-126118340D01*
X151461420Y-126089500D01*
X151461418Y-126089500D01*
X151313582Y-126089500D01*
X151313580Y-126089500D01*
X151168592Y-126118340D01*
X151168582Y-126118343D01*
X151032011Y-126174912D01*
X151031998Y-126174919D01*
X150909084Y-126257048D01*
X150909080Y-126257051D01*
X150804551Y-126361580D01*
X150804548Y-126361584D01*
X150740602Y-126457286D01*
X150686989Y-126502091D01*
X150617664Y-126510798D01*
X150554637Y-126480643D01*
X150534398Y-126457286D01*
X150470451Y-126361584D01*
X150470448Y-126361580D01*
X150365919Y-126257051D01*
X150365915Y-126257048D01*
X150243001Y-126174919D01*
X150242988Y-126174912D01*
X150106417Y-126118343D01*
X150106407Y-126118340D01*
X149961420Y-126089500D01*
X149961418Y-126089500D01*
X149813582Y-126089500D01*
X149813580Y-126089500D01*
X149668592Y-126118340D01*
X149668582Y-126118343D01*
X149532011Y-126174912D01*
X149531998Y-126174919D01*
X149409084Y-126257048D01*
X149409080Y-126257051D01*
X149304551Y-126361580D01*
X149304548Y-126361584D01*
X149240602Y-126457286D01*
X149186989Y-126502091D01*
X149117664Y-126510798D01*
X149054637Y-126480643D01*
X149034398Y-126457286D01*
X148970451Y-126361584D01*
X148970448Y-126361580D01*
X148865919Y-126257051D01*
X148865915Y-126257048D01*
X148743001Y-126174919D01*
X148742988Y-126174912D01*
X148606417Y-126118343D01*
X148606407Y-126118340D01*
X148461420Y-126089500D01*
X148461418Y-126089500D01*
X148313582Y-126089500D01*
X148313580Y-126089500D01*
X148168592Y-126118340D01*
X148168582Y-126118343D01*
X148032011Y-126174912D01*
X148031998Y-126174919D01*
X147909084Y-126257048D01*
X147909080Y-126257051D01*
X147804551Y-126361580D01*
X147804548Y-126361584D01*
X147740602Y-126457286D01*
X147686989Y-126502091D01*
X147617664Y-126510798D01*
X147554637Y-126480643D01*
X147534398Y-126457286D01*
X147470451Y-126361584D01*
X147470448Y-126361580D01*
X147365919Y-126257051D01*
X147365915Y-126257048D01*
X147243001Y-126174919D01*
X147242988Y-126174912D01*
X147106417Y-126118343D01*
X147106407Y-126118340D01*
X146961420Y-126089500D01*
X146961418Y-126089500D01*
X146813582Y-126089500D01*
X146813580Y-126089500D01*
X146668592Y-126118340D01*
X146668582Y-126118343D01*
X146532011Y-126174912D01*
X146531998Y-126174919D01*
X146409084Y-126257048D01*
X146409080Y-126257051D01*
X146304551Y-126361580D01*
X146304548Y-126361584D01*
X146240602Y-126457286D01*
X146186989Y-126502091D01*
X146117664Y-126510798D01*
X146054637Y-126480643D01*
X146034398Y-126457286D01*
X145970451Y-126361584D01*
X145970448Y-126361580D01*
X145865919Y-126257051D01*
X145865915Y-126257048D01*
X145743001Y-126174919D01*
X145742988Y-126174912D01*
X145606417Y-126118343D01*
X145606407Y-126118340D01*
X145461420Y-126089500D01*
X145461418Y-126089500D01*
X145313582Y-126089500D01*
X145313580Y-126089500D01*
X145168592Y-126118340D01*
X145168582Y-126118343D01*
X145032011Y-126174912D01*
X145031998Y-126174919D01*
X144909084Y-126257048D01*
X144909080Y-126257051D01*
X144804551Y-126361580D01*
X144804548Y-126361584D01*
X144740602Y-126457286D01*
X144686989Y-126502091D01*
X144617664Y-126510798D01*
X144554637Y-126480643D01*
X144534398Y-126457286D01*
X144470451Y-126361584D01*
X144470448Y-126361580D01*
X144365919Y-126257051D01*
X144365915Y-126257048D01*
X144243001Y-126174919D01*
X144242988Y-126174912D01*
X144106417Y-126118343D01*
X144106407Y-126118340D01*
X143961420Y-126089500D01*
X143961418Y-126089500D01*
X143813582Y-126089500D01*
X143813580Y-126089500D01*
X143668592Y-126118340D01*
X143668582Y-126118343D01*
X143532011Y-126174912D01*
X143531998Y-126174919D01*
X143409084Y-126257048D01*
X143409080Y-126257051D01*
X143304551Y-126361580D01*
X143304548Y-126361584D01*
X143240602Y-126457286D01*
X143186989Y-126502091D01*
X143117664Y-126510798D01*
X143054637Y-126480643D01*
X143034398Y-126457286D01*
X142970451Y-126361584D01*
X142970448Y-126361580D01*
X142865919Y-126257051D01*
X142865915Y-126257048D01*
X142743001Y-126174919D01*
X142742988Y-126174912D01*
X142606417Y-126118343D01*
X142606407Y-126118340D01*
X142461420Y-126089500D01*
X142461418Y-126089500D01*
X142313582Y-126089500D01*
X142313580Y-126089500D01*
X142168592Y-126118340D01*
X142168582Y-126118343D01*
X142032011Y-126174912D01*
X142031998Y-126174919D01*
X141909084Y-126257048D01*
X141909080Y-126257051D01*
X141804551Y-126361580D01*
X141804548Y-126361584D01*
X141740602Y-126457286D01*
X141686989Y-126502091D01*
X141617664Y-126510798D01*
X141554637Y-126480643D01*
X141534398Y-126457286D01*
X141470451Y-126361584D01*
X141470448Y-126361580D01*
X141365919Y-126257051D01*
X141365915Y-126257048D01*
X141243001Y-126174919D01*
X141242988Y-126174912D01*
X141106417Y-126118343D01*
X141106407Y-126118340D01*
X140961420Y-126089500D01*
X140961418Y-126089500D01*
X140813582Y-126089500D01*
X140813580Y-126089500D01*
X140668592Y-126118340D01*
X140668582Y-126118343D01*
X140532011Y-126174912D01*
X140531998Y-126174919D01*
X140409084Y-126257048D01*
X140409080Y-126257051D01*
X140304551Y-126361580D01*
X140304548Y-126361584D01*
X140240602Y-126457286D01*
X140186989Y-126502091D01*
X140117664Y-126510798D01*
X140054637Y-126480643D01*
X140034398Y-126457286D01*
X139970451Y-126361584D01*
X139970448Y-126361580D01*
X139865919Y-126257051D01*
X139865915Y-126257048D01*
X139743001Y-126174919D01*
X139742988Y-126174912D01*
X139606417Y-126118343D01*
X139606407Y-126118340D01*
X139461420Y-126089500D01*
X139461418Y-126089500D01*
X139313582Y-126089500D01*
X139313580Y-126089500D01*
X139168592Y-126118340D01*
X139168582Y-126118343D01*
X139032011Y-126174912D01*
X139031998Y-126174919D01*
X138909084Y-126257048D01*
X138909080Y-126257051D01*
X138804551Y-126361580D01*
X138804548Y-126361584D01*
X138740602Y-126457286D01*
X138686989Y-126502091D01*
X138617664Y-126510798D01*
X138554637Y-126480643D01*
X138534398Y-126457286D01*
X138470451Y-126361584D01*
X138470448Y-126361580D01*
X138365919Y-126257051D01*
X138365915Y-126257048D01*
X138243001Y-126174919D01*
X138242988Y-126174912D01*
X138106417Y-126118343D01*
X138106407Y-126118340D01*
X137961420Y-126089500D01*
X137961418Y-126089500D01*
X137813582Y-126089500D01*
X137813580Y-126089500D01*
X137668592Y-126118340D01*
X137668582Y-126118343D01*
X137532011Y-126174912D01*
X137531998Y-126174919D01*
X137409084Y-126257048D01*
X137409080Y-126257051D01*
X137304551Y-126361580D01*
X137304548Y-126361584D01*
X137240602Y-126457286D01*
X137186989Y-126502091D01*
X137117664Y-126510798D01*
X137054637Y-126480643D01*
X137034398Y-126457286D01*
X136970451Y-126361584D01*
X136970448Y-126361580D01*
X136865919Y-126257051D01*
X136865915Y-126257048D01*
X136743001Y-126174919D01*
X136742988Y-126174912D01*
X136606417Y-126118343D01*
X136606407Y-126118340D01*
X136461420Y-126089500D01*
X136461418Y-126089500D01*
X136313582Y-126089500D01*
X136313580Y-126089500D01*
X136168592Y-126118340D01*
X136168582Y-126118343D01*
X136032011Y-126174912D01*
X136031998Y-126174919D01*
X135909084Y-126257048D01*
X135909080Y-126257051D01*
X135804551Y-126361580D01*
X135804548Y-126361584D01*
X135740602Y-126457286D01*
X135686989Y-126502091D01*
X135617664Y-126510798D01*
X135554637Y-126480643D01*
X135534398Y-126457286D01*
X135470451Y-126361584D01*
X135470448Y-126361580D01*
X135365919Y-126257051D01*
X135365915Y-126257048D01*
X135243001Y-126174919D01*
X135242988Y-126174912D01*
X135106417Y-126118343D01*
X135106407Y-126118340D01*
X134961420Y-126089500D01*
X134961418Y-126089500D01*
X134813582Y-126089500D01*
X134813580Y-126089500D01*
X134668592Y-126118340D01*
X134668582Y-126118343D01*
X134532011Y-126174912D01*
X134531998Y-126174919D01*
X134409084Y-126257048D01*
X134409080Y-126257051D01*
X134304551Y-126361580D01*
X134304548Y-126361584D01*
X134240602Y-126457286D01*
X134186989Y-126502091D01*
X134117664Y-126510798D01*
X134054637Y-126480643D01*
X134034398Y-126457286D01*
X133970451Y-126361584D01*
X133970448Y-126361580D01*
X133865919Y-126257051D01*
X133865915Y-126257048D01*
X133743001Y-126174919D01*
X133742988Y-126174912D01*
X133606417Y-126118343D01*
X133606407Y-126118340D01*
X133461420Y-126089500D01*
X133461418Y-126089500D01*
X133313582Y-126089500D01*
X133313580Y-126089500D01*
X133168592Y-126118340D01*
X133168582Y-126118343D01*
X133032011Y-126174912D01*
X133031998Y-126174919D01*
X132909084Y-126257048D01*
X132844825Y-126321307D01*
X132783501Y-126354791D01*
X132713810Y-126349806D01*
X132657876Y-126307935D01*
X132635527Y-126257816D01*
X132626368Y-126211770D01*
X132626367Y-126211769D01*
X132582052Y-126145447D01*
X132515730Y-126101132D01*
X132515729Y-126101131D01*
X132457252Y-126089500D01*
X132457248Y-126089500D01*
X131317752Y-126089500D01*
X131317747Y-126089500D01*
X131259270Y-126101131D01*
X131259269Y-126101132D01*
X131192947Y-126145447D01*
X131148632Y-126211769D01*
X131148631Y-126211770D01*
X131137000Y-126270247D01*
X106675507Y-126270247D01*
X106633897Y-126198177D01*
X106580204Y-126130847D01*
X105743541Y-126967510D01*
X105718522Y-126907110D01*
X105647388Y-126800649D01*
X105556851Y-126710112D01*
X105450390Y-126638978D01*
X105389988Y-126613958D01*
X106227650Y-125776296D01*
X106045017Y-125651779D01*
X106045016Y-125651778D01*
X105801960Y-125534730D01*
X105801962Y-125534730D01*
X105544162Y-125455209D01*
X105544156Y-125455207D01*
X105277398Y-125415000D01*
X105007601Y-125415000D01*
X104740843Y-125455207D01*
X104740837Y-125455209D01*
X104483038Y-125534730D01*
X104239985Y-125651778D01*
X104239976Y-125651783D01*
X104057348Y-125776296D01*
X104895011Y-126613958D01*
X104834610Y-126638978D01*
X104728149Y-126710112D01*
X104637612Y-126800649D01*
X104566478Y-126907110D01*
X104541458Y-126967511D01*
X103704795Y-126130848D01*
X103651100Y-126198180D01*
X103516209Y-126431818D01*
X103417648Y-126682947D01*
X103417642Y-126682966D01*
X103357613Y-126945971D01*
X103357613Y-126945973D01*
X103337453Y-127214995D01*
X99488000Y-127214995D01*
X99488000Y-124849999D01*
X119744750Y-124849999D01*
X119744750Y-124850000D01*
X119763670Y-124993708D01*
X119763671Y-124993712D01*
X119819137Y-125127622D01*
X119819138Y-125127624D01*
X119819139Y-125127625D01*
X119907379Y-125242621D01*
X120022375Y-125330861D01*
X120156291Y-125386330D01*
X120283280Y-125403048D01*
X120299999Y-125405250D01*
X120300000Y-125405250D01*
X120300001Y-125405250D01*
X120314977Y-125403278D01*
X120443709Y-125386330D01*
X120577625Y-125330861D01*
X120674515Y-125256514D01*
X120739682Y-125231321D01*
X120808127Y-125245359D01*
X120825480Y-125256510D01*
X120922375Y-125330861D01*
X121056291Y-125386330D01*
X121183280Y-125403048D01*
X121199999Y-125405250D01*
X121200000Y-125405250D01*
X121200001Y-125405250D01*
X121214977Y-125403278D01*
X121343709Y-125386330D01*
X121477625Y-125330861D01*
X121592621Y-125242621D01*
X121680861Y-125127625D01*
X121714514Y-125046379D01*
X125037000Y-125046379D01*
X125037000Y-125233620D01*
X125073525Y-125417243D01*
X125073527Y-125417251D01*
X125145176Y-125590228D01*
X125145181Y-125590237D01*
X125249197Y-125745907D01*
X125249200Y-125745911D01*
X125381588Y-125878299D01*
X125381592Y-125878302D01*
X125537262Y-125982318D01*
X125537268Y-125982321D01*
X125537269Y-125982322D01*
X125710249Y-126053973D01*
X125888857Y-126089500D01*
X125893879Y-126090499D01*
X125893883Y-126090500D01*
X125893884Y-126090500D01*
X127281117Y-126090500D01*
X127281118Y-126090499D01*
X127464751Y-126053973D01*
X127637731Y-125982322D01*
X127793408Y-125878302D01*
X127925802Y-125745908D01*
X128029822Y-125590231D01*
X128101473Y-125417251D01*
X128138000Y-125233616D01*
X128138000Y-125046384D01*
X128137999Y-125046379D01*
X159637000Y-125046379D01*
X159637000Y-125233620D01*
X159673525Y-125417243D01*
X159673527Y-125417251D01*
X159745176Y-125590228D01*
X159745181Y-125590237D01*
X159849197Y-125745907D01*
X159849200Y-125745911D01*
X159981588Y-125878299D01*
X159981592Y-125878302D01*
X160137262Y-125982318D01*
X160137268Y-125982321D01*
X160137269Y-125982322D01*
X160310249Y-126053973D01*
X160488857Y-126089500D01*
X160493879Y-126090499D01*
X160493883Y-126090500D01*
X160493884Y-126090500D01*
X161881117Y-126090500D01*
X161881118Y-126090499D01*
X162064751Y-126053973D01*
X162237731Y-125982322D01*
X162393408Y-125878302D01*
X162525802Y-125745908D01*
X162629822Y-125590231D01*
X162701473Y-125417251D01*
X162738000Y-125233616D01*
X162738000Y-125046384D01*
X162701473Y-124862749D01*
X162629822Y-124689769D01*
X162629821Y-124689768D01*
X162629818Y-124689762D01*
X162525802Y-124534092D01*
X162525799Y-124534088D01*
X162393411Y-124401700D01*
X162393407Y-124401697D01*
X162338486Y-124365000D01*
X176894778Y-124365000D01*
X176901573Y-124468679D01*
X176913644Y-124652837D01*
X176913646Y-124652849D01*
X176969917Y-124935745D01*
X176969921Y-124935760D01*
X177062642Y-125208905D01*
X177190219Y-125467606D01*
X177190223Y-125467613D01*
X177350478Y-125707452D01*
X177540672Y-125924327D01*
X177757547Y-126114521D01*
X177882752Y-126198180D01*
X177997389Y-126274778D01*
X178256098Y-126402359D01*
X178529247Y-126495081D01*
X178812161Y-126551356D01*
X179100000Y-126570222D01*
X179387839Y-126551356D01*
X179670753Y-126495081D01*
X179943902Y-126402359D01*
X180202611Y-126274778D01*
X180442454Y-126114520D01*
X180659327Y-125924327D01*
X180849520Y-125707454D01*
X181009778Y-125467611D01*
X181137359Y-125208902D01*
X181230081Y-124935753D01*
X181286356Y-124652839D01*
X181305222Y-124365000D01*
X185694778Y-124365000D01*
X185701573Y-124468679D01*
X185713644Y-124652837D01*
X185713646Y-124652849D01*
X185769917Y-124935745D01*
X185769921Y-124935760D01*
X185862642Y-125208905D01*
X185990219Y-125467606D01*
X185990223Y-125467613D01*
X186150478Y-125707452D01*
X186340672Y-125924327D01*
X186557547Y-126114521D01*
X186682752Y-126198180D01*
X186797389Y-126274778D01*
X187056098Y-126402359D01*
X187329247Y-126495081D01*
X187612161Y-126551356D01*
X187900000Y-126570222D01*
X188187839Y-126551356D01*
X188470753Y-126495081D01*
X188743902Y-126402359D01*
X189002611Y-126274778D01*
X189242454Y-126114520D01*
X189459327Y-125924327D01*
X189649520Y-125707454D01*
X189809778Y-125467611D01*
X189937359Y-125208902D01*
X190030081Y-124935753D01*
X190086356Y-124652839D01*
X190105222Y-124365000D01*
X190086356Y-124077161D01*
X190030081Y-123794247D01*
X189937359Y-123521098D01*
X189809778Y-123262389D01*
X189649520Y-123022546D01*
X189459327Y-122805672D01*
X189242452Y-122615478D01*
X189002613Y-122455223D01*
X189002606Y-122455219D01*
X188743905Y-122327642D01*
X188470760Y-122234921D01*
X188470754Y-122234919D01*
X188470753Y-122234919D01*
X188470751Y-122234918D01*
X188470745Y-122234917D01*
X188187849Y-122178646D01*
X188187839Y-122178644D01*
X187900000Y-122159778D01*
X187612161Y-122178644D01*
X187612155Y-122178645D01*
X187612150Y-122178646D01*
X187329254Y-122234917D01*
X187329239Y-122234921D01*
X187056094Y-122327642D01*
X186797393Y-122455219D01*
X186797386Y-122455223D01*
X186557547Y-122615478D01*
X186340672Y-122805672D01*
X186150478Y-123022547D01*
X185990223Y-123262386D01*
X185990219Y-123262393D01*
X185862642Y-123521094D01*
X185769921Y-123794239D01*
X185769917Y-123794254D01*
X185713646Y-124077150D01*
X185713644Y-124077161D01*
X185694778Y-124365000D01*
X181305222Y-124365000D01*
X181286356Y-124077161D01*
X181230081Y-123794247D01*
X181137359Y-123521098D01*
X181009778Y-123262389D01*
X180849520Y-123022546D01*
X180659327Y-122805672D01*
X180442452Y-122615478D01*
X180202613Y-122455223D01*
X180202606Y-122455219D01*
X179943905Y-122327642D01*
X179670760Y-122234921D01*
X179670754Y-122234919D01*
X179670753Y-122234919D01*
X179670751Y-122234918D01*
X179670745Y-122234917D01*
X179387849Y-122178646D01*
X179387839Y-122178644D01*
X179100000Y-122159778D01*
X178812161Y-122178644D01*
X178812155Y-122178645D01*
X178812150Y-122178646D01*
X178529254Y-122234917D01*
X178529239Y-122234921D01*
X178256094Y-122327642D01*
X177997393Y-122455219D01*
X177997386Y-122455223D01*
X177757547Y-122615478D01*
X177540672Y-122805672D01*
X177350478Y-123022547D01*
X177190223Y-123262386D01*
X177190219Y-123262393D01*
X177062642Y-123521094D01*
X176969921Y-123794239D01*
X176969917Y-123794254D01*
X176913646Y-124077150D01*
X176913644Y-124077161D01*
X176894778Y-124365000D01*
X162338486Y-124365000D01*
X162237737Y-124297681D01*
X162237728Y-124297676D01*
X162064751Y-124226027D01*
X162064743Y-124226025D01*
X161881120Y-124189500D01*
X161881116Y-124189500D01*
X160493884Y-124189500D01*
X160493879Y-124189500D01*
X160310256Y-124226025D01*
X160310248Y-124226027D01*
X160137271Y-124297676D01*
X160137262Y-124297681D01*
X159981592Y-124401697D01*
X159981588Y-124401700D01*
X159849200Y-124534088D01*
X159849197Y-124534092D01*
X159745181Y-124689762D01*
X159745176Y-124689771D01*
X159673527Y-124862748D01*
X159673525Y-124862756D01*
X159637000Y-125046379D01*
X128137999Y-125046379D01*
X128101473Y-124862749D01*
X128029822Y-124689769D01*
X128029821Y-124689768D01*
X128029818Y-124689762D01*
X127925802Y-124534092D01*
X127925799Y-124534088D01*
X127793411Y-124401700D01*
X127793407Y-124401697D01*
X127637737Y-124297681D01*
X127637728Y-124297676D01*
X127464751Y-124226027D01*
X127464743Y-124226025D01*
X127281120Y-124189500D01*
X127281116Y-124189500D01*
X125893884Y-124189500D01*
X125893879Y-124189500D01*
X125710256Y-124226025D01*
X125710248Y-124226027D01*
X125537271Y-124297676D01*
X125537262Y-124297681D01*
X125381592Y-124401697D01*
X125381588Y-124401700D01*
X125249200Y-124534088D01*
X125249197Y-124534092D01*
X125145181Y-124689762D01*
X125145176Y-124689771D01*
X125073527Y-124862748D01*
X125073525Y-124862756D01*
X125037000Y-125046379D01*
X121714514Y-125046379D01*
X121736330Y-124993709D01*
X121755250Y-124850000D01*
X121736330Y-124706291D01*
X121680861Y-124572375D01*
X121592621Y-124457379D01*
X121477625Y-124369139D01*
X121477624Y-124369138D01*
X121477622Y-124369137D01*
X121343712Y-124313671D01*
X121343710Y-124313670D01*
X121343709Y-124313670D01*
X121222263Y-124297681D01*
X121200001Y-124294750D01*
X121199999Y-124294750D01*
X121056291Y-124313670D01*
X121056287Y-124313671D01*
X120922377Y-124369137D01*
X120887581Y-124395836D01*
X120825484Y-124443485D01*
X120760318Y-124468679D01*
X120691873Y-124454641D01*
X120674519Y-124443489D01*
X120577625Y-124369139D01*
X120577624Y-124369138D01*
X120577622Y-124369137D01*
X120443712Y-124313671D01*
X120443710Y-124313670D01*
X120443709Y-124313670D01*
X120322263Y-124297681D01*
X120300001Y-124294750D01*
X120299999Y-124294750D01*
X120156291Y-124313670D01*
X120156287Y-124313671D01*
X120022377Y-124369137D01*
X119907379Y-124457379D01*
X119819137Y-124572377D01*
X119763671Y-124706287D01*
X119763670Y-124706291D01*
X119744750Y-124849999D01*
X99488000Y-124849999D01*
X99488000Y-120895247D01*
X103642000Y-120895247D01*
X103642000Y-123534752D01*
X103653631Y-123593229D01*
X103653632Y-123593230D01*
X103697947Y-123659552D01*
X103764269Y-123703867D01*
X103764270Y-123703868D01*
X103822747Y-123715499D01*
X103822750Y-123715500D01*
X103822752Y-123715500D01*
X106462250Y-123715500D01*
X106462251Y-123715499D01*
X106477068Y-123712552D01*
X106520729Y-123703868D01*
X106520729Y-123703867D01*
X106520731Y-123703867D01*
X106587052Y-123659552D01*
X106631367Y-123593231D01*
X106631367Y-123593229D01*
X106631368Y-123593229D01*
X106642999Y-123534752D01*
X106643000Y-123534750D01*
X106643000Y-120895249D01*
X106642999Y-120895247D01*
X106631368Y-120836770D01*
X106631367Y-120836769D01*
X106587052Y-120770447D01*
X106520730Y-120726132D01*
X106520729Y-120726131D01*
X106462252Y-120714500D01*
X106462248Y-120714500D01*
X103822752Y-120714500D01*
X103822747Y-120714500D01*
X103764270Y-120726131D01*
X103764269Y-120726132D01*
X103697947Y-120770447D01*
X103653632Y-120836769D01*
X103653631Y-120836770D01*
X103642000Y-120895247D01*
X99488000Y-120895247D01*
X99488000Y-120600000D01*
X114744750Y-120600000D01*
X114759824Y-120714500D01*
X114763670Y-120743708D01*
X114763671Y-120743712D01*
X114819137Y-120877622D01*
X114819138Y-120877624D01*
X114819139Y-120877625D01*
X114893485Y-120974515D01*
X114918679Y-121039682D01*
X114904641Y-121108127D01*
X114893489Y-121125480D01*
X114856972Y-121173070D01*
X114819137Y-121222377D01*
X114763671Y-121356287D01*
X114763670Y-121356291D01*
X114744750Y-121499999D01*
X114744750Y-121500000D01*
X114763670Y-121643708D01*
X114763671Y-121643712D01*
X114819137Y-121777622D01*
X114819138Y-121777624D01*
X114819139Y-121777625D01*
X114907379Y-121892621D01*
X115022375Y-121980861D01*
X115156291Y-122036330D01*
X115283280Y-122053048D01*
X115299999Y-122055250D01*
X115300000Y-122055250D01*
X115300001Y-122055250D01*
X115314977Y-122053278D01*
X115443709Y-122036330D01*
X115577625Y-121980861D01*
X115692621Y-121892621D01*
X115780861Y-121777625D01*
X115836330Y-121643709D01*
X115855250Y-121500000D01*
X115836330Y-121356291D01*
X115815091Y-121305016D01*
X115807623Y-121235550D01*
X115838898Y-121173070D01*
X115898987Y-121137418D01*
X115947912Y-121137711D01*
X115948234Y-121135269D01*
X115956290Y-121136329D01*
X115956291Y-121136330D01*
X116048474Y-121148466D01*
X116099999Y-121155250D01*
X116100000Y-121155250D01*
X116100001Y-121155250D01*
X116114977Y-121153278D01*
X116243709Y-121136330D01*
X116377625Y-121080861D01*
X116424514Y-121044881D01*
X116489682Y-121019687D01*
X116558127Y-121033725D01*
X116575483Y-121044880D01*
X116622375Y-121080861D01*
X116756291Y-121136330D01*
X116883280Y-121153048D01*
X116899999Y-121155250D01*
X116900000Y-121155250D01*
X116900001Y-121155250D01*
X116914977Y-121153278D01*
X117043709Y-121136330D01*
X117177625Y-121080861D01*
X117292621Y-120992621D01*
X117380861Y-120877625D01*
X117436330Y-120743709D01*
X117455250Y-120600000D01*
X117436330Y-120456291D01*
X117380861Y-120322375D01*
X117292621Y-120207379D01*
X117177625Y-120119139D01*
X117177624Y-120119138D01*
X117177622Y-120119137D01*
X117043712Y-120063671D01*
X117043710Y-120063670D01*
X117043709Y-120063670D01*
X116971854Y-120054210D01*
X116900001Y-120044750D01*
X116899999Y-120044750D01*
X116756291Y-120063670D01*
X116756287Y-120063671D01*
X116622376Y-120119138D01*
X116622374Y-120119139D01*
X116575486Y-120155118D01*
X116510317Y-120180312D01*
X116441872Y-120166274D01*
X116424514Y-120155118D01*
X116377625Y-120119139D01*
X116377623Y-120119138D01*
X116243712Y-120063671D01*
X116243710Y-120063670D01*
X116243709Y-120063670D01*
X116171854Y-120054210D01*
X116100001Y-120044750D01*
X116099999Y-120044750D01*
X115956291Y-120063670D01*
X115956287Y-120063671D01*
X115822376Y-120119138D01*
X115822374Y-120119139D01*
X115775486Y-120155118D01*
X115710317Y-120180312D01*
X115641872Y-120166274D01*
X115624514Y-120155118D01*
X115577625Y-120119139D01*
X115577623Y-120119138D01*
X115443712Y-120063671D01*
X115443710Y-120063670D01*
X115443709Y-120063670D01*
X115371854Y-120054210D01*
X115300001Y-120044750D01*
X115299999Y-120044750D01*
X115156291Y-120063670D01*
X115156287Y-120063671D01*
X115022377Y-120119137D01*
X114907379Y-120207379D01*
X114819137Y-120322377D01*
X114763671Y-120456287D01*
X114763670Y-120456291D01*
X114744750Y-120600000D01*
X99488000Y-120600000D01*
X99488000Y-119399997D01*
X148469196Y-119399997D01*
X148469196Y-119400002D01*
X148490279Y-119533121D01*
X148490280Y-119533124D01*
X148490281Y-119533126D01*
X148551472Y-119653220D01*
X148551473Y-119653221D01*
X148551476Y-119653225D01*
X148646774Y-119748523D01*
X148646778Y-119748526D01*
X148646780Y-119748528D01*
X148766874Y-119809719D01*
X148766876Y-119809719D01*
X148766878Y-119809720D01*
X148899998Y-119830804D01*
X148900000Y-119830804D01*
X148900002Y-119830804D01*
X149033121Y-119809720D01*
X149033121Y-119809719D01*
X149033126Y-119809719D01*
X149153220Y-119748528D01*
X149248528Y-119653220D01*
X149309719Y-119533126D01*
X149330804Y-119400000D01*
X149309719Y-119266874D01*
X149248528Y-119146780D01*
X149248526Y-119146778D01*
X149248523Y-119146774D01*
X149153225Y-119051476D01*
X149153221Y-119051473D01*
X149153220Y-119051472D01*
X149033126Y-118990281D01*
X149033124Y-118990280D01*
X149033121Y-118990279D01*
X148900002Y-118969196D01*
X148899998Y-118969196D01*
X148766878Y-118990279D01*
X148646778Y-119051473D01*
X148646774Y-119051476D01*
X148551476Y-119146774D01*
X148551473Y-119146778D01*
X148490279Y-119266878D01*
X148469196Y-119399997D01*
X99488000Y-119399997D01*
X99488000Y-116349997D01*
X167119196Y-116349997D01*
X167119196Y-116350002D01*
X167140279Y-116483122D01*
X167171148Y-116543707D01*
X167184043Y-116612376D01*
X167171148Y-116656293D01*
X167140279Y-116716877D01*
X167119196Y-116849997D01*
X167119196Y-116850002D01*
X167140279Y-116983122D01*
X167171148Y-117043707D01*
X167184043Y-117112376D01*
X167171148Y-117156293D01*
X167140279Y-117216877D01*
X167119196Y-117349997D01*
X167119196Y-117350002D01*
X167140279Y-117483121D01*
X167140280Y-117483124D01*
X167140281Y-117483126D01*
X167201472Y-117603220D01*
X167201473Y-117603221D01*
X167201476Y-117603225D01*
X167296774Y-117698523D01*
X167296778Y-117698526D01*
X167296780Y-117698528D01*
X167416874Y-117759719D01*
X167416876Y-117759719D01*
X167416878Y-117759720D01*
X167549998Y-117780804D01*
X167550000Y-117780804D01*
X167550002Y-117780804D01*
X167683121Y-117759720D01*
X167683121Y-117759719D01*
X167683126Y-117759719D01*
X167803220Y-117698528D01*
X167898528Y-117603220D01*
X167912908Y-117574997D01*
X168819196Y-117574997D01*
X168819196Y-117575002D01*
X168840279Y-117708123D01*
X168877517Y-117781206D01*
X168890413Y-117849875D01*
X168877517Y-117893794D01*
X168840279Y-117966876D01*
X168819196Y-118099997D01*
X168819196Y-118100002D01*
X168840279Y-118233121D01*
X168840280Y-118233124D01*
X168840281Y-118233126D01*
X168901472Y-118353220D01*
X168901473Y-118353221D01*
X168901476Y-118353225D01*
X168996774Y-118448523D01*
X168996778Y-118448526D01*
X168996780Y-118448528D01*
X169116874Y-118509719D01*
X169116876Y-118509719D01*
X169116878Y-118509720D01*
X169249998Y-118530804D01*
X169250000Y-118530804D01*
X169250002Y-118530804D01*
X169383123Y-118509720D01*
X169383124Y-118509719D01*
X169383126Y-118509719D01*
X169443705Y-118478851D01*
X169512373Y-118465955D01*
X169556293Y-118478851D01*
X169616874Y-118509719D01*
X169616876Y-118509720D01*
X169749998Y-118530804D01*
X169750000Y-118530804D01*
X169750002Y-118530804D01*
X169883121Y-118509720D01*
X169883121Y-118509719D01*
X169883126Y-118509719D01*
X170003220Y-118448528D01*
X170098528Y-118353220D01*
X170159719Y-118233126D01*
X170180804Y-118100000D01*
X170159719Y-117966874D01*
X170122481Y-117893790D01*
X170109586Y-117825126D01*
X170122480Y-117781211D01*
X170159719Y-117708126D01*
X170161239Y-117698528D01*
X170180804Y-117575002D01*
X170180804Y-117574997D01*
X170159720Y-117441878D01*
X170159719Y-117441876D01*
X170159719Y-117441874D01*
X170120549Y-117364999D01*
X179894785Y-117364999D01*
X179894785Y-117365000D01*
X179913602Y-117568082D01*
X179969417Y-117764247D01*
X179969422Y-117764260D01*
X180060327Y-117946821D01*
X180183237Y-118109581D01*
X180333958Y-118246980D01*
X180333960Y-118246982D01*
X180433141Y-118308392D01*
X180507363Y-118354348D01*
X180697544Y-118428024D01*
X180898024Y-118465500D01*
X180898026Y-118465500D01*
X181101974Y-118465500D01*
X181101976Y-118465500D01*
X181302456Y-118428024D01*
X181492637Y-118354348D01*
X181666041Y-118246981D01*
X181816764Y-118109579D01*
X181939673Y-117946821D01*
X182030582Y-117764250D01*
X182086397Y-117568083D01*
X182105215Y-117365000D01*
X182105215Y-117364999D01*
X182394785Y-117364999D01*
X182394785Y-117365000D01*
X182413602Y-117568082D01*
X182469417Y-117764247D01*
X182469422Y-117764260D01*
X182560327Y-117946821D01*
X182683237Y-118109581D01*
X182833958Y-118246980D01*
X182833960Y-118246982D01*
X182933141Y-118308392D01*
X183007363Y-118354348D01*
X183197544Y-118428024D01*
X183398024Y-118465500D01*
X183398026Y-118465500D01*
X183601974Y-118465500D01*
X183601976Y-118465500D01*
X183802456Y-118428024D01*
X183992637Y-118354348D01*
X184166041Y-118246981D01*
X184316764Y-118109579D01*
X184439673Y-117946821D01*
X184530582Y-117764250D01*
X184586397Y-117568083D01*
X184605215Y-117365000D01*
X184605215Y-117364999D01*
X184894785Y-117364999D01*
X184894785Y-117365000D01*
X184913602Y-117568082D01*
X184969417Y-117764247D01*
X184969422Y-117764260D01*
X185060327Y-117946821D01*
X185183237Y-118109581D01*
X185333958Y-118246980D01*
X185333960Y-118246982D01*
X185433141Y-118308392D01*
X185507363Y-118354348D01*
X185697544Y-118428024D01*
X185898024Y-118465500D01*
X185898026Y-118465500D01*
X186101974Y-118465500D01*
X186101976Y-118465500D01*
X186302456Y-118428024D01*
X186492637Y-118354348D01*
X186666041Y-118246981D01*
X186816764Y-118109579D01*
X186939673Y-117946821D01*
X187030582Y-117764250D01*
X187086397Y-117568083D01*
X187105215Y-117365000D01*
X187086397Y-117161917D01*
X187030582Y-116965750D01*
X186939673Y-116783179D01*
X186816764Y-116620421D01*
X186816762Y-116620418D01*
X186666041Y-116483019D01*
X186666039Y-116483017D01*
X186492642Y-116375655D01*
X186492635Y-116375651D01*
X186397546Y-116338814D01*
X186302456Y-116301976D01*
X186101976Y-116264500D01*
X185898024Y-116264500D01*
X185697544Y-116301976D01*
X185697541Y-116301976D01*
X185697541Y-116301977D01*
X185507364Y-116375651D01*
X185507357Y-116375655D01*
X185333960Y-116483017D01*
X185333958Y-116483019D01*
X185183237Y-116620418D01*
X185060327Y-116783178D01*
X184969422Y-116965739D01*
X184969417Y-116965752D01*
X184913602Y-117161917D01*
X184894785Y-117364999D01*
X184605215Y-117364999D01*
X184586397Y-117161917D01*
X184530582Y-116965750D01*
X184439673Y-116783179D01*
X184316764Y-116620421D01*
X184316762Y-116620418D01*
X184166041Y-116483019D01*
X184166039Y-116483017D01*
X183992642Y-116375655D01*
X183992635Y-116375651D01*
X183897546Y-116338814D01*
X183802456Y-116301976D01*
X183601976Y-116264500D01*
X183398024Y-116264500D01*
X183197544Y-116301976D01*
X183197541Y-116301976D01*
X183197541Y-116301977D01*
X183007364Y-116375651D01*
X183007357Y-116375655D01*
X182833960Y-116483017D01*
X182833958Y-116483019D01*
X182683237Y-116620418D01*
X182560327Y-116783178D01*
X182469422Y-116965739D01*
X182469417Y-116965752D01*
X182413602Y-117161917D01*
X182394785Y-117364999D01*
X182105215Y-117364999D01*
X182086397Y-117161917D01*
X182030582Y-116965750D01*
X181939673Y-116783179D01*
X181816764Y-116620421D01*
X181816762Y-116620418D01*
X181666041Y-116483019D01*
X181666039Y-116483017D01*
X181492642Y-116375655D01*
X181492635Y-116375651D01*
X181397546Y-116338814D01*
X181302456Y-116301976D01*
X181101976Y-116264500D01*
X180898024Y-116264500D01*
X180697544Y-116301976D01*
X180697541Y-116301976D01*
X180697541Y-116301977D01*
X180507364Y-116375651D01*
X180507357Y-116375655D01*
X180333960Y-116483017D01*
X180333958Y-116483019D01*
X180183237Y-116620418D01*
X180060327Y-116783178D01*
X179969422Y-116965739D01*
X179969417Y-116965752D01*
X179913602Y-117161917D01*
X179894785Y-117364999D01*
X170120549Y-117364999D01*
X170098528Y-117321780D01*
X170098526Y-117321778D01*
X170098523Y-117321774D01*
X170003225Y-117226476D01*
X170003221Y-117226473D01*
X170003220Y-117226472D01*
X169883126Y-117165281D01*
X169883124Y-117165280D01*
X169883121Y-117165279D01*
X169750002Y-117144196D01*
X169749998Y-117144196D01*
X169616877Y-117165279D01*
X169556293Y-117196148D01*
X169487624Y-117209043D01*
X169443707Y-117196148D01*
X169383122Y-117165279D01*
X169250002Y-117144196D01*
X169249998Y-117144196D01*
X169116878Y-117165279D01*
X168996778Y-117226473D01*
X168996774Y-117226476D01*
X168901476Y-117321774D01*
X168901473Y-117321778D01*
X168840279Y-117441878D01*
X168819196Y-117574997D01*
X167912908Y-117574997D01*
X167959719Y-117483126D01*
X167966253Y-117441874D01*
X167980804Y-117350002D01*
X167980804Y-117349997D01*
X167959720Y-117216876D01*
X167959719Y-117216874D01*
X167949158Y-117196148D01*
X167928851Y-117156293D01*
X167915955Y-117087627D01*
X167928851Y-117043706D01*
X167959719Y-116983126D01*
X167959719Y-116983124D01*
X167959720Y-116983123D01*
X167980804Y-116850002D01*
X167980804Y-116849997D01*
X167959720Y-116716876D01*
X167959719Y-116716874D01*
X167928851Y-116656293D01*
X167915955Y-116587627D01*
X167928851Y-116543706D01*
X167959719Y-116483126D01*
X167959719Y-116483124D01*
X167959720Y-116483123D01*
X167980804Y-116350002D01*
X167980804Y-116349997D01*
X167959720Y-116216878D01*
X167959719Y-116216876D01*
X167959719Y-116216874D01*
X167898528Y-116096780D01*
X167898526Y-116096778D01*
X167898523Y-116096774D01*
X167803225Y-116001476D01*
X167803221Y-116001473D01*
X167803220Y-116001472D01*
X167683126Y-115940281D01*
X167683124Y-115940280D01*
X167683121Y-115940279D01*
X167550002Y-115919196D01*
X167549998Y-115919196D01*
X167416878Y-115940279D01*
X167296778Y-116001473D01*
X167296774Y-116001476D01*
X167201476Y-116096774D01*
X167201473Y-116096778D01*
X167140279Y-116216878D01*
X167119196Y-116349997D01*
X99488000Y-116349997D01*
X99488000Y-115515000D01*
X102906853Y-115515000D01*
X102927334Y-115657456D01*
X102987122Y-115788371D01*
X102987123Y-115788373D01*
X103081372Y-115897143D01*
X103202447Y-115974953D01*
X103202450Y-115974954D01*
X103202449Y-115974954D01*
X103340536Y-116015499D01*
X103340538Y-116015500D01*
X103340539Y-116015500D01*
X103484462Y-116015500D01*
X103484462Y-116015499D01*
X103622553Y-115974953D01*
X103743628Y-115897143D01*
X103837877Y-115788373D01*
X103897665Y-115657457D01*
X103918147Y-115515000D01*
X103897665Y-115372543D01*
X103837877Y-115241627D01*
X103743628Y-115132857D01*
X103622553Y-115055047D01*
X103622551Y-115055046D01*
X103622549Y-115055045D01*
X103622550Y-115055045D01*
X103484463Y-115014500D01*
X103484461Y-115014500D01*
X103340539Y-115014500D01*
X103340536Y-115014500D01*
X103202449Y-115055045D01*
X103081373Y-115132856D01*
X102987123Y-115241626D01*
X102987122Y-115241628D01*
X102927334Y-115372543D01*
X102906853Y-115515000D01*
X99488000Y-115515000D01*
X99488000Y-114990000D01*
X101531853Y-114990000D01*
X101552334Y-115132456D01*
X101602191Y-115241626D01*
X101612123Y-115263373D01*
X101706372Y-115372143D01*
X101827447Y-115449953D01*
X101827450Y-115449954D01*
X101827449Y-115449954D01*
X101965536Y-115490499D01*
X101965538Y-115490500D01*
X101965539Y-115490500D01*
X102109462Y-115490500D01*
X102109462Y-115490499D01*
X102247553Y-115449953D01*
X102368628Y-115372143D01*
X102462877Y-115263373D01*
X102522665Y-115132457D01*
X102543147Y-114990000D01*
X102522665Y-114847543D01*
X102462877Y-114716627D01*
X102368628Y-114607857D01*
X102247553Y-114530047D01*
X102247551Y-114530046D01*
X102247549Y-114530045D01*
X102247550Y-114530045D01*
X102109463Y-114489500D01*
X102109461Y-114489500D01*
X101965539Y-114489500D01*
X101965536Y-114489500D01*
X101827449Y-114530045D01*
X101706373Y-114607856D01*
X101612123Y-114716626D01*
X101612122Y-114716628D01*
X101552334Y-114847543D01*
X101531853Y-114990000D01*
X99488000Y-114990000D01*
X99488000Y-113199998D01*
X113394318Y-113199998D01*
X113394318Y-113200001D01*
X113414955Y-113356760D01*
X113414956Y-113356762D01*
X113475464Y-113502842D01*
X113530460Y-113574514D01*
X113555654Y-113639683D01*
X113541615Y-113708128D01*
X113530460Y-113725486D01*
X113475464Y-113797157D01*
X113414956Y-113943237D01*
X113414955Y-113943239D01*
X113394318Y-114099998D01*
X113394318Y-114100001D01*
X113414955Y-114256760D01*
X113414956Y-114256762D01*
X113475464Y-114402841D01*
X113571718Y-114528282D01*
X113697159Y-114624536D01*
X113843238Y-114685044D01*
X113921619Y-114695363D01*
X113999999Y-114705682D01*
X114000000Y-114705682D01*
X114000001Y-114705682D01*
X114052254Y-114698802D01*
X114156762Y-114685044D01*
X114302841Y-114624536D01*
X114424515Y-114531171D01*
X114489683Y-114505979D01*
X114558127Y-114520017D01*
X114575478Y-114531167D01*
X114697159Y-114624536D01*
X114843238Y-114685044D01*
X114921619Y-114695363D01*
X114999999Y-114705682D01*
X115000000Y-114705682D01*
X115000001Y-114705682D01*
X115052254Y-114698802D01*
X115156762Y-114685044D01*
X115302841Y-114624536D01*
X115424515Y-114531171D01*
X115489683Y-114505979D01*
X115558127Y-114520017D01*
X115575478Y-114531167D01*
X115697159Y-114624536D01*
X115843238Y-114685044D01*
X115921619Y-114695363D01*
X115999999Y-114705682D01*
X116000000Y-114705682D01*
X116000001Y-114705682D01*
X116052254Y-114698802D01*
X116156762Y-114685044D01*
X116302841Y-114624536D01*
X116424515Y-114531171D01*
X116489683Y-114505979D01*
X116558127Y-114520017D01*
X116575478Y-114531167D01*
X116697159Y-114624536D01*
X116843238Y-114685044D01*
X116921619Y-114695363D01*
X116999999Y-114705682D01*
X117000000Y-114705682D01*
X117000001Y-114705682D01*
X117052254Y-114698802D01*
X117156762Y-114685044D01*
X117302841Y-114624536D01*
X117428282Y-114528282D01*
X117524536Y-114402841D01*
X117585044Y-114256762D01*
X117605682Y-114100000D01*
X117585044Y-113943238D01*
X117524536Y-113797159D01*
X117524535Y-113797158D01*
X117524535Y-113797157D01*
X117469540Y-113725487D01*
X117444345Y-113660318D01*
X117458383Y-113591873D01*
X117469538Y-113574515D01*
X117524536Y-113502841D01*
X117585044Y-113356762D01*
X117605682Y-113200000D01*
X117599989Y-113156760D01*
X117585044Y-113043239D01*
X117585044Y-113043238D01*
X117524536Y-112897159D01*
X117428282Y-112771718D01*
X117302841Y-112675464D01*
X117301607Y-112674953D01*
X117156762Y-112614956D01*
X117156760Y-112614955D01*
X117000001Y-112594318D01*
X116999999Y-112594318D01*
X116843239Y-112614955D01*
X116843237Y-112614956D01*
X116697157Y-112675464D01*
X116575486Y-112768826D01*
X116510317Y-112794020D01*
X116441872Y-112779981D01*
X116424514Y-112768826D01*
X116302842Y-112675464D01*
X116156762Y-112614956D01*
X116156760Y-112614955D01*
X116000001Y-112594318D01*
X115999999Y-112594318D01*
X115843239Y-112614955D01*
X115843237Y-112614956D01*
X115697157Y-112675464D01*
X115575486Y-112768826D01*
X115510317Y-112794020D01*
X115441872Y-112779981D01*
X115424514Y-112768826D01*
X115302842Y-112675464D01*
X115156762Y-112614956D01*
X115156760Y-112614955D01*
X115000001Y-112594318D01*
X114999999Y-112594318D01*
X114843239Y-112614955D01*
X114843237Y-112614956D01*
X114697157Y-112675464D01*
X114575486Y-112768826D01*
X114510317Y-112794020D01*
X114441872Y-112779981D01*
X114424514Y-112768826D01*
X114302842Y-112675464D01*
X114156762Y-112614956D01*
X114156760Y-112614955D01*
X114000001Y-112594318D01*
X113999999Y-112594318D01*
X113843239Y-112614955D01*
X113843237Y-112614956D01*
X113697160Y-112675463D01*
X113571718Y-112771718D01*
X113475463Y-112897160D01*
X113414956Y-113043237D01*
X113414955Y-113043239D01*
X113394318Y-113199998D01*
X99488000Y-113199998D01*
X99488000Y-112215000D01*
X104381853Y-112215000D01*
X104402334Y-112357456D01*
X104432959Y-112424514D01*
X104462123Y-112488373D01*
X104556372Y-112597143D01*
X104677447Y-112674953D01*
X104677450Y-112674954D01*
X104677449Y-112674954D01*
X104815536Y-112715499D01*
X104815538Y-112715500D01*
X104815539Y-112715500D01*
X104959462Y-112715500D01*
X104959462Y-112715499D01*
X105097553Y-112674953D01*
X105218628Y-112597143D01*
X105312877Y-112488373D01*
X105372665Y-112357457D01*
X105393147Y-112215000D01*
X105372665Y-112072543D01*
X105339534Y-111999997D01*
X120469196Y-111999997D01*
X120469196Y-112000002D01*
X120490279Y-112133121D01*
X120490280Y-112133124D01*
X120490281Y-112133126D01*
X120551472Y-112253220D01*
X120551473Y-112253221D01*
X120551476Y-112253225D01*
X120646774Y-112348523D01*
X120646778Y-112348526D01*
X120646780Y-112348528D01*
X120766874Y-112409719D01*
X120766876Y-112409719D01*
X120766878Y-112409720D01*
X120899998Y-112430804D01*
X120900000Y-112430804D01*
X120900002Y-112430804D01*
X121033123Y-112409720D01*
X121033124Y-112409719D01*
X121033126Y-112409719D01*
X121093705Y-112378851D01*
X121162373Y-112365955D01*
X121206293Y-112378851D01*
X121266874Y-112409719D01*
X121266876Y-112409720D01*
X121399998Y-112430804D01*
X121400000Y-112430804D01*
X121400002Y-112430804D01*
X121533123Y-112409720D01*
X121533124Y-112409719D01*
X121533126Y-112409719D01*
X121593705Y-112378851D01*
X121662373Y-112365955D01*
X121706293Y-112378851D01*
X121766874Y-112409719D01*
X121766876Y-112409720D01*
X121899998Y-112430804D01*
X121900000Y-112430804D01*
X121900002Y-112430804D01*
X122033123Y-112409720D01*
X122033124Y-112409719D01*
X122033126Y-112409719D01*
X122093705Y-112378851D01*
X122162373Y-112365955D01*
X122206293Y-112378851D01*
X122266874Y-112409719D01*
X122266876Y-112409720D01*
X122399998Y-112430804D01*
X122400000Y-112430804D01*
X122400002Y-112430804D01*
X122533121Y-112409720D01*
X122533121Y-112409719D01*
X122533126Y-112409719D01*
X122653220Y-112348528D01*
X122748528Y-112253220D01*
X122809719Y-112133126D01*
X122809720Y-112133121D01*
X122830804Y-112000002D01*
X122830804Y-111999998D01*
X164394318Y-111999998D01*
X164394318Y-112000001D01*
X164414955Y-112156760D01*
X164414956Y-112156762D01*
X164475464Y-112302842D01*
X164568826Y-112424514D01*
X164594020Y-112489683D01*
X164579981Y-112558128D01*
X164568826Y-112575486D01*
X164475464Y-112697157D01*
X164414956Y-112843237D01*
X164414955Y-112843239D01*
X164394318Y-112999998D01*
X164394318Y-113000001D01*
X164414955Y-113156760D01*
X164414956Y-113156762D01*
X164475464Y-113302841D01*
X164571718Y-113428282D01*
X164697159Y-113524536D01*
X164843238Y-113585044D01*
X164895110Y-113591873D01*
X164999999Y-113605682D01*
X165000000Y-113605682D01*
X165000001Y-113605682D01*
X165052254Y-113598802D01*
X165156762Y-113585044D01*
X165302841Y-113524536D01*
X165424515Y-113431171D01*
X165489683Y-113405979D01*
X165558127Y-113420017D01*
X165575478Y-113431167D01*
X165697159Y-113524536D01*
X165843238Y-113585044D01*
X165895110Y-113591873D01*
X165999999Y-113605682D01*
X166000000Y-113605682D01*
X166000001Y-113605682D01*
X166052254Y-113598802D01*
X166156762Y-113585044D01*
X166302841Y-113524536D01*
X166428282Y-113428282D01*
X166524536Y-113302841D01*
X166585044Y-113156762D01*
X166605682Y-113000000D01*
X166593796Y-112909720D01*
X166585044Y-112843239D01*
X166585044Y-112843238D01*
X166524536Y-112697159D01*
X166431171Y-112575484D01*
X166405979Y-112510317D01*
X166420017Y-112441873D01*
X166431167Y-112424521D01*
X166524536Y-112302841D01*
X166585044Y-112156762D01*
X166605682Y-112000000D01*
X166605682Y-111999997D01*
X188069196Y-111999997D01*
X188069196Y-112000002D01*
X188090279Y-112133122D01*
X188121148Y-112193707D01*
X188134043Y-112262376D01*
X188121148Y-112306293D01*
X188090279Y-112366877D01*
X188069196Y-112499997D01*
X188069196Y-112500002D01*
X188090279Y-112633121D01*
X188090280Y-112633124D01*
X188090281Y-112633126D01*
X188132253Y-112715500D01*
X188151473Y-112753221D01*
X188151476Y-112753225D01*
X188246774Y-112848523D01*
X188246778Y-112848526D01*
X188246780Y-112848528D01*
X188366874Y-112909719D01*
X188366876Y-112909719D01*
X188366878Y-112909720D01*
X188499998Y-112930804D01*
X188500000Y-112930804D01*
X188500002Y-112930804D01*
X188633123Y-112909720D01*
X188633124Y-112909719D01*
X188633126Y-112909719D01*
X188693705Y-112878851D01*
X188762373Y-112865955D01*
X188806293Y-112878851D01*
X188842224Y-112897159D01*
X188866874Y-112909719D01*
X188866876Y-112909720D01*
X188999998Y-112930804D01*
X189000000Y-112930804D01*
X189000002Y-112930804D01*
X189133123Y-112909720D01*
X189133124Y-112909719D01*
X189133126Y-112909719D01*
X189193705Y-112878851D01*
X189262373Y-112865955D01*
X189306293Y-112878851D01*
X189342224Y-112897159D01*
X189366874Y-112909719D01*
X189366876Y-112909720D01*
X189499998Y-112930804D01*
X189500000Y-112930804D01*
X189500002Y-112930804D01*
X189633121Y-112909720D01*
X189633121Y-112909719D01*
X189633126Y-112909719D01*
X189753220Y-112848528D01*
X189848528Y-112753220D01*
X189909719Y-112633126D01*
X189919445Y-112571718D01*
X189930804Y-112500002D01*
X189930804Y-112499997D01*
X189909720Y-112366876D01*
X189909719Y-112366874D01*
X189900370Y-112348526D01*
X189878851Y-112306293D01*
X189865955Y-112237627D01*
X189878851Y-112193706D01*
X189909719Y-112133126D01*
X189909719Y-112133124D01*
X189909720Y-112133123D01*
X189930804Y-112000002D01*
X189930804Y-111999997D01*
X189909720Y-111866878D01*
X189909719Y-111866876D01*
X189909719Y-111866874D01*
X189848528Y-111746780D01*
X189848526Y-111746778D01*
X189848523Y-111746774D01*
X189753225Y-111651476D01*
X189753221Y-111651473D01*
X189753220Y-111651472D01*
X189633126Y-111590281D01*
X189633124Y-111590280D01*
X189633121Y-111590279D01*
X189500002Y-111569196D01*
X189499998Y-111569196D01*
X189366877Y-111590279D01*
X189306293Y-111621148D01*
X189237624Y-111634043D01*
X189193707Y-111621148D01*
X189133122Y-111590279D01*
X189000002Y-111569196D01*
X188999998Y-111569196D01*
X188866877Y-111590279D01*
X188806293Y-111621148D01*
X188737624Y-111634043D01*
X188693707Y-111621148D01*
X188633122Y-111590279D01*
X188500002Y-111569196D01*
X188499998Y-111569196D01*
X188366878Y-111590279D01*
X188246778Y-111651473D01*
X188246774Y-111651476D01*
X188151476Y-111746774D01*
X188151473Y-111746778D01*
X188090279Y-111866878D01*
X188069196Y-111999997D01*
X166605682Y-111999997D01*
X166585044Y-111843238D01*
X166524536Y-111697159D01*
X166431171Y-111575484D01*
X166405979Y-111510317D01*
X166420017Y-111441873D01*
X166431167Y-111424521D01*
X166524536Y-111302841D01*
X166585044Y-111156762D01*
X166605682Y-111000000D01*
X166601288Y-110966627D01*
X166585044Y-110843239D01*
X166585044Y-110843238D01*
X166524536Y-110697159D01*
X166428282Y-110571718D01*
X166302841Y-110475464D01*
X166156762Y-110414956D01*
X166156760Y-110414955D01*
X166000001Y-110394318D01*
X165999999Y-110394318D01*
X165843239Y-110414955D01*
X165843237Y-110414956D01*
X165697160Y-110475463D01*
X165571718Y-110571718D01*
X165475463Y-110697160D01*
X165414956Y-110843237D01*
X165414955Y-110843239D01*
X165394318Y-110999998D01*
X165394318Y-111000001D01*
X165414955Y-111156760D01*
X165414956Y-111156762D01*
X165475465Y-111302843D01*
X165479528Y-111309881D01*
X165476773Y-111311471D01*
X165496571Y-111362695D01*
X165482526Y-111431138D01*
X165433707Y-111481123D01*
X165365614Y-111496780D01*
X165311214Y-111477217D01*
X165309881Y-111479528D01*
X165302843Y-111475465D01*
X165302838Y-111475463D01*
X165156762Y-111414956D01*
X165156760Y-111414955D01*
X165000001Y-111394318D01*
X164999999Y-111394318D01*
X164843239Y-111414955D01*
X164843237Y-111414956D01*
X164697160Y-111475463D01*
X164571718Y-111571718D01*
X164475463Y-111697160D01*
X164414956Y-111843237D01*
X164414955Y-111843239D01*
X164394318Y-111999998D01*
X122830804Y-111999998D01*
X122830804Y-111999997D01*
X122809720Y-111866878D01*
X122809719Y-111866876D01*
X122809719Y-111866874D01*
X122748528Y-111746780D01*
X122748526Y-111746778D01*
X122748523Y-111746774D01*
X122653225Y-111651476D01*
X122653221Y-111651473D01*
X122653220Y-111651472D01*
X122533126Y-111590281D01*
X122533124Y-111590280D01*
X122533121Y-111590279D01*
X122400002Y-111569196D01*
X122399998Y-111569196D01*
X122266877Y-111590279D01*
X122206293Y-111621148D01*
X122137624Y-111634043D01*
X122093707Y-111621148D01*
X122033122Y-111590279D01*
X121900002Y-111569196D01*
X121899998Y-111569196D01*
X121766877Y-111590279D01*
X121706293Y-111621148D01*
X121637624Y-111634043D01*
X121593707Y-111621148D01*
X121533122Y-111590279D01*
X121400002Y-111569196D01*
X121399998Y-111569196D01*
X121266877Y-111590279D01*
X121206293Y-111621148D01*
X121137624Y-111634043D01*
X121093707Y-111621148D01*
X121033122Y-111590279D01*
X120900002Y-111569196D01*
X120899998Y-111569196D01*
X120766878Y-111590279D01*
X120646778Y-111651473D01*
X120646774Y-111651476D01*
X120551476Y-111746774D01*
X120551473Y-111746778D01*
X120490279Y-111866878D01*
X120469196Y-111999997D01*
X105339534Y-111999997D01*
X105312877Y-111941627D01*
X105218628Y-111832857D01*
X105097553Y-111755047D01*
X105097551Y-111755046D01*
X105097549Y-111755045D01*
X105097550Y-111755045D01*
X104959463Y-111714500D01*
X104959461Y-111714500D01*
X104815539Y-111714500D01*
X104815536Y-111714500D01*
X104677449Y-111755045D01*
X104556373Y-111832856D01*
X104462123Y-111941626D01*
X104462122Y-111941628D01*
X104402334Y-112072543D01*
X104381853Y-112215000D01*
X99488000Y-112215000D01*
X99488000Y-111240000D01*
X109156853Y-111240000D01*
X109177334Y-111382456D01*
X109219810Y-111475463D01*
X109237123Y-111513373D01*
X109331372Y-111622143D01*
X109452447Y-111699953D01*
X109452450Y-111699954D01*
X109452449Y-111699954D01*
X109590536Y-111740499D01*
X109590538Y-111740500D01*
X109590539Y-111740500D01*
X109734462Y-111740500D01*
X109734462Y-111740499D01*
X109872553Y-111699953D01*
X109993628Y-111622143D01*
X110087877Y-111513373D01*
X110147665Y-111382457D01*
X110168147Y-111240000D01*
X110147665Y-111097543D01*
X110087877Y-110966627D01*
X109993628Y-110857857D01*
X109872553Y-110780047D01*
X109872551Y-110780046D01*
X109872549Y-110780045D01*
X109872550Y-110780045D01*
X109734463Y-110739500D01*
X109734461Y-110739500D01*
X109590539Y-110739500D01*
X109590536Y-110739500D01*
X109452449Y-110780045D01*
X109331373Y-110857856D01*
X109237123Y-110966626D01*
X109237122Y-110966628D01*
X109177334Y-111097543D01*
X109156853Y-111240000D01*
X99488000Y-111240000D01*
X99488000Y-109299997D01*
X119469196Y-109299997D01*
X119469196Y-109300002D01*
X119490279Y-109433121D01*
X119490280Y-109433124D01*
X119490281Y-109433126D01*
X119551472Y-109553220D01*
X119551473Y-109553221D01*
X119551476Y-109553225D01*
X119646774Y-109648523D01*
X119646778Y-109648526D01*
X119646780Y-109648528D01*
X119766874Y-109709719D01*
X119766876Y-109709719D01*
X119766878Y-109709720D01*
X119899998Y-109730804D01*
X119900000Y-109730804D01*
X119900002Y-109730804D01*
X120033123Y-109709720D01*
X120033124Y-109709719D01*
X120033126Y-109709719D01*
X120093705Y-109678851D01*
X120162373Y-109665955D01*
X120206293Y-109678851D01*
X120266874Y-109709719D01*
X120266876Y-109709720D01*
X120399998Y-109730804D01*
X120400000Y-109730804D01*
X120400002Y-109730804D01*
X120533121Y-109709720D01*
X120533121Y-109709719D01*
X120533126Y-109709719D01*
X120643708Y-109653374D01*
X120712374Y-109640479D01*
X120756289Y-109653373D01*
X120866874Y-109709719D01*
X120866876Y-109709719D01*
X120866878Y-109709720D01*
X120999998Y-109730804D01*
X121000000Y-109730804D01*
X121000001Y-109730804D01*
X121027186Y-109726497D01*
X121049005Y-109723042D01*
X121118299Y-109731996D01*
X121156085Y-109757834D01*
X121246774Y-109848523D01*
X121246778Y-109848526D01*
X121246780Y-109848528D01*
X121366874Y-109909719D01*
X121366876Y-109909719D01*
X121366878Y-109909720D01*
X121499998Y-109930804D01*
X121500000Y-109930804D01*
X121500002Y-109930804D01*
X121633123Y-109909720D01*
X121633124Y-109909719D01*
X121633126Y-109909719D01*
X121693705Y-109878851D01*
X121762373Y-109865955D01*
X121806293Y-109878851D01*
X121847794Y-109899997D01*
X121866874Y-109909719D01*
X121866876Y-109909720D01*
X121999998Y-109930804D01*
X122000000Y-109930804D01*
X122000002Y-109930804D01*
X122133121Y-109909720D01*
X122133121Y-109909719D01*
X122133126Y-109909719D01*
X122152206Y-109899997D01*
X148469196Y-109899997D01*
X148469196Y-109900002D01*
X148490279Y-110033121D01*
X148490280Y-110033124D01*
X148490281Y-110033126D01*
X148551472Y-110153220D01*
X148551473Y-110153221D01*
X148551476Y-110153225D01*
X148646774Y-110248523D01*
X148646778Y-110248526D01*
X148646780Y-110248528D01*
X148766874Y-110309719D01*
X148766876Y-110309719D01*
X148766878Y-110309720D01*
X148899998Y-110330804D01*
X148900000Y-110330804D01*
X148900002Y-110330804D01*
X149033121Y-110309720D01*
X149033121Y-110309719D01*
X149033126Y-110309719D01*
X149153220Y-110248528D01*
X149248528Y-110153220D01*
X149309719Y-110033126D01*
X149330804Y-109900000D01*
X149327454Y-109878852D01*
X149309720Y-109766878D01*
X149309719Y-109766876D01*
X149309719Y-109766874D01*
X149248528Y-109646780D01*
X149248526Y-109646778D01*
X149248523Y-109646774D01*
X149153225Y-109551476D01*
X149153221Y-109551473D01*
X149153220Y-109551472D01*
X149033126Y-109490281D01*
X149033124Y-109490280D01*
X149033121Y-109490279D01*
X148900002Y-109469196D01*
X148899998Y-109469196D01*
X148766878Y-109490279D01*
X148766874Y-109490280D01*
X148766874Y-109490281D01*
X148686811Y-109531075D01*
X148646778Y-109551473D01*
X148646774Y-109551476D01*
X148551476Y-109646774D01*
X148551473Y-109646778D01*
X148490279Y-109766878D01*
X148469196Y-109899997D01*
X122152206Y-109899997D01*
X122253220Y-109848528D01*
X122348528Y-109753220D01*
X122409719Y-109633126D01*
X122430804Y-109500000D01*
X122429264Y-109490279D01*
X122409720Y-109366878D01*
X122409719Y-109366876D01*
X122409719Y-109366874D01*
X122348528Y-109246780D01*
X122348526Y-109246778D01*
X122348523Y-109246774D01*
X122253225Y-109151476D01*
X122253221Y-109151473D01*
X122253220Y-109151472D01*
X122133126Y-109090281D01*
X122133124Y-109090280D01*
X122133121Y-109090279D01*
X122000002Y-109069196D01*
X121999998Y-109069196D01*
X121866877Y-109090279D01*
X121806293Y-109121148D01*
X121737624Y-109134043D01*
X121693707Y-109121148D01*
X121633122Y-109090279D01*
X121500002Y-109069196D01*
X121500001Y-109069196D01*
X121500000Y-109069196D01*
X121479845Y-109072388D01*
X121450990Y-109076958D01*
X121381697Y-109068002D01*
X121343915Y-109042167D01*
X121253220Y-108951472D01*
X121133126Y-108890281D01*
X121133124Y-108890280D01*
X121133121Y-108890279D01*
X121000002Y-108869196D01*
X120999998Y-108869196D01*
X120866876Y-108890279D01*
X120756294Y-108946624D01*
X120687625Y-108959520D01*
X120643706Y-108946624D01*
X120533123Y-108890279D01*
X120400002Y-108869196D01*
X120399998Y-108869196D01*
X120266877Y-108890279D01*
X120206293Y-108921148D01*
X120137624Y-108934043D01*
X120093707Y-108921148D01*
X120033122Y-108890279D01*
X119900002Y-108869196D01*
X119899998Y-108869196D01*
X119766878Y-108890279D01*
X119646778Y-108951473D01*
X119646774Y-108951476D01*
X119551476Y-109046774D01*
X119551473Y-109046778D01*
X119490279Y-109166878D01*
X119469196Y-109299997D01*
X99488000Y-109299997D01*
X99488000Y-107999997D01*
X188069196Y-107999997D01*
X188069196Y-108000002D01*
X188090279Y-108133121D01*
X188090280Y-108133124D01*
X188090281Y-108133126D01*
X188151472Y-108253220D01*
X188151473Y-108253221D01*
X188151476Y-108253225D01*
X188246774Y-108348523D01*
X188246778Y-108348526D01*
X188246780Y-108348528D01*
X188366874Y-108409719D01*
X188366876Y-108409719D01*
X188366878Y-108409720D01*
X188499998Y-108430804D01*
X188500000Y-108430804D01*
X188500002Y-108430804D01*
X188633121Y-108409720D01*
X188633121Y-108409719D01*
X188633126Y-108409719D01*
X188753220Y-108348528D01*
X188848528Y-108253220D01*
X188909719Y-108133126D01*
X188930804Y-108000000D01*
X188915098Y-107900837D01*
X188909720Y-107866878D01*
X188909719Y-107866876D01*
X188909719Y-107866874D01*
X188848528Y-107746780D01*
X188848526Y-107746778D01*
X188848523Y-107746774D01*
X188753225Y-107651476D01*
X188753221Y-107651473D01*
X188753220Y-107651472D01*
X188633126Y-107590281D01*
X188633124Y-107590280D01*
X188633121Y-107590279D01*
X188500002Y-107569196D01*
X188499998Y-107569196D01*
X188366878Y-107590279D01*
X188246778Y-107651473D01*
X188246774Y-107651476D01*
X188151476Y-107746774D01*
X188151473Y-107746778D01*
X188090279Y-107866878D01*
X188069196Y-107999997D01*
X99488000Y-107999997D01*
X99488000Y-106789999D01*
X100532573Y-106789999D01*
X100532573Y-106790000D01*
X100552237Y-107002216D01*
X100552238Y-107002219D01*
X100610558Y-107207196D01*
X100610564Y-107207211D01*
X100705561Y-107397991D01*
X100705564Y-107397996D01*
X100714336Y-107409610D01*
X101204537Y-106919409D01*
X101221575Y-106982993D01*
X101287401Y-107097007D01*
X101380493Y-107190099D01*
X101494507Y-107255925D01*
X101558090Y-107272962D01*
X101070491Y-107760559D01*
X101172704Y-107823847D01*
X101172708Y-107823849D01*
X101371436Y-107900836D01*
X101371441Y-107900837D01*
X101580939Y-107940000D01*
X101794061Y-107940000D01*
X102003558Y-107900837D01*
X102003563Y-107900836D01*
X102202291Y-107823849D01*
X102202298Y-107823846D01*
X102304506Y-107760560D01*
X102304506Y-107760559D01*
X101816910Y-107272962D01*
X101880493Y-107255925D01*
X101994507Y-107190099D01*
X102087599Y-107097007D01*
X102153425Y-106982993D01*
X102170462Y-106919409D01*
X102660662Y-107409609D01*
X102660663Y-107409609D01*
X102669440Y-107397988D01*
X102669442Y-107397985D01*
X102764433Y-107207216D01*
X102764441Y-107207196D01*
X102822761Y-107002219D01*
X102822762Y-107002216D01*
X102822968Y-106999997D01*
X187569196Y-106999997D01*
X187569196Y-107000002D01*
X187590279Y-107133121D01*
X187590280Y-107133124D01*
X187590281Y-107133126D01*
X187628032Y-107207216D01*
X187651473Y-107253221D01*
X187651476Y-107253225D01*
X187746774Y-107348523D01*
X187746778Y-107348526D01*
X187746780Y-107348528D01*
X187866874Y-107409719D01*
X187866876Y-107409719D01*
X187866878Y-107409720D01*
X187999998Y-107430804D01*
X188000000Y-107430804D01*
X188000002Y-107430804D01*
X188133121Y-107409720D01*
X188133121Y-107409719D01*
X188133126Y-107409719D01*
X188253220Y-107348528D01*
X188348528Y-107253220D01*
X188409719Y-107133126D01*
X188430804Y-107000000D01*
X188428110Y-106982993D01*
X188409720Y-106866878D01*
X188409719Y-106866876D01*
X188409719Y-106866874D01*
X188348528Y-106746780D01*
X188348526Y-106746778D01*
X188348523Y-106746774D01*
X188253225Y-106651476D01*
X188253221Y-106651473D01*
X188253220Y-106651472D01*
X188133126Y-106590281D01*
X188133124Y-106590280D01*
X188133121Y-106590279D01*
X188000002Y-106569196D01*
X187999998Y-106569196D01*
X187866878Y-106590279D01*
X187866874Y-106590280D01*
X187866874Y-106590281D01*
X187786811Y-106631075D01*
X187746778Y-106651473D01*
X187746774Y-106651476D01*
X187651476Y-106746774D01*
X187651473Y-106746778D01*
X187590279Y-106866878D01*
X187569196Y-106999997D01*
X102822968Y-106999997D01*
X102842427Y-106790000D01*
X102842427Y-106789999D01*
X102822762Y-106577783D01*
X102822761Y-106577780D01*
X102764441Y-106372803D01*
X102764433Y-106372783D01*
X102669442Y-106182014D01*
X102669437Y-106182006D01*
X102660663Y-106170389D01*
X102170462Y-106660589D01*
X102153425Y-106597007D01*
X102087599Y-106482993D01*
X101994507Y-106389901D01*
X101880493Y-106324075D01*
X101816909Y-106307037D01*
X102133946Y-105990000D01*
X103731853Y-105990000D01*
X103752334Y-106132456D01*
X103774965Y-106182010D01*
X103812123Y-106263373D01*
X103906372Y-106372143D01*
X104027447Y-106449953D01*
X104027450Y-106449954D01*
X104027449Y-106449954D01*
X104165536Y-106490499D01*
X104165538Y-106490500D01*
X104165539Y-106490500D01*
X104309462Y-106490500D01*
X104309462Y-106490499D01*
X104447553Y-106449953D01*
X104568628Y-106372143D01*
X104662877Y-106263373D01*
X104722665Y-106132457D01*
X104743147Y-105990000D01*
X104722665Y-105847543D01*
X104662877Y-105716627D01*
X104568628Y-105607857D01*
X104447553Y-105530047D01*
X104447551Y-105530046D01*
X104447549Y-105530045D01*
X104447550Y-105530045D01*
X104309463Y-105489500D01*
X104309461Y-105489500D01*
X104165539Y-105489500D01*
X104165536Y-105489500D01*
X104027449Y-105530045D01*
X103906373Y-105607856D01*
X103812123Y-105716626D01*
X103812122Y-105716628D01*
X103752334Y-105847543D01*
X103731853Y-105990000D01*
X102133946Y-105990000D01*
X102304507Y-105819439D01*
X102202293Y-105756151D01*
X102202289Y-105756149D01*
X102003563Y-105679163D01*
X102003558Y-105679162D01*
X101794061Y-105640000D01*
X101580939Y-105640000D01*
X101371441Y-105679162D01*
X101371436Y-105679163D01*
X101172710Y-105756149D01*
X101172701Y-105756154D01*
X101070492Y-105819438D01*
X101070491Y-105819439D01*
X101558090Y-106307037D01*
X101494507Y-106324075D01*
X101380493Y-106389901D01*
X101287401Y-106482993D01*
X101221575Y-106597007D01*
X101204537Y-106660589D01*
X100714336Y-106170388D01*
X100705559Y-106182010D01*
X100610566Y-106372783D01*
X100610558Y-106372803D01*
X100552238Y-106577780D01*
X100552237Y-106577783D01*
X100532573Y-106789999D01*
X99488000Y-106789999D01*
X99488000Y-104190000D01*
X100832315Y-104190000D01*
X100851003Y-104367805D01*
X100851004Y-104367807D01*
X100906247Y-104537829D01*
X100906250Y-104537835D01*
X100995641Y-104692665D01*
X101037312Y-104738946D01*
X101115264Y-104825521D01*
X101115267Y-104825523D01*
X101115270Y-104825526D01*
X101259907Y-104930612D01*
X101423233Y-105003329D01*
X101598109Y-105040500D01*
X101598110Y-105040500D01*
X101776889Y-105040500D01*
X101776891Y-105040500D01*
X101896859Y-105015000D01*
X108631853Y-105015000D01*
X108652334Y-105157456D01*
X108712122Y-105288371D01*
X108712123Y-105288373D01*
X108806372Y-105397143D01*
X108927447Y-105474953D01*
X108927450Y-105474954D01*
X108927449Y-105474954D01*
X109065536Y-105515499D01*
X109065538Y-105515500D01*
X109065539Y-105515500D01*
X109209462Y-105515500D01*
X109209462Y-105515499D01*
X109347553Y-105474953D01*
X109468628Y-105397143D01*
X109562877Y-105288373D01*
X109622665Y-105157457D01*
X109643147Y-105015000D01*
X109622665Y-104872543D01*
X109562877Y-104741627D01*
X109468628Y-104632857D01*
X109347553Y-104555047D01*
X109347551Y-104555046D01*
X109347549Y-104555045D01*
X109347550Y-104555045D01*
X109209463Y-104514500D01*
X109209461Y-104514500D01*
X109065539Y-104514500D01*
X109065536Y-104514500D01*
X108927449Y-104555045D01*
X108806373Y-104632856D01*
X108712123Y-104741626D01*
X108712122Y-104741628D01*
X108652334Y-104872543D01*
X108631853Y-105015000D01*
X101896859Y-105015000D01*
X101951767Y-105003329D01*
X102115093Y-104930612D01*
X102259730Y-104825526D01*
X102379359Y-104692665D01*
X102468750Y-104537835D01*
X102523997Y-104367803D01*
X102542685Y-104190000D01*
X102523997Y-104012197D01*
X102491098Y-103910945D01*
X102491097Y-103910943D01*
X123187000Y-103910943D01*
X123187000Y-104069056D01*
X123227923Y-104221783D01*
X123227926Y-104221790D01*
X123306975Y-104358709D01*
X123306979Y-104358714D01*
X123306980Y-104358716D01*
X123418784Y-104470520D01*
X123418786Y-104470521D01*
X123418790Y-104470524D01*
X123535378Y-104537835D01*
X123555716Y-104549577D01*
X123708443Y-104590500D01*
X123708445Y-104590500D01*
X123866555Y-104590500D01*
X123866557Y-104590500D01*
X124019284Y-104549577D01*
X124156216Y-104470520D01*
X124268020Y-104358716D01*
X124347077Y-104221784D01*
X124388000Y-104069057D01*
X124388000Y-103910943D01*
X163387000Y-103910943D01*
X163387000Y-104069056D01*
X163427923Y-104221783D01*
X163427926Y-104221790D01*
X163506975Y-104358709D01*
X163506979Y-104358714D01*
X163506980Y-104358716D01*
X163618784Y-104470520D01*
X163618786Y-104470521D01*
X163618790Y-104470524D01*
X163735378Y-104537835D01*
X163755716Y-104549577D01*
X163908443Y-104590500D01*
X163908445Y-104590500D01*
X164066555Y-104590500D01*
X164066557Y-104590500D01*
X164219284Y-104549577D01*
X164356216Y-104470520D01*
X164468020Y-104358716D01*
X164547077Y-104221784D01*
X164588000Y-104069057D01*
X164588000Y-103910943D01*
X164547077Y-103758216D01*
X164506155Y-103687336D01*
X164468024Y-103621290D01*
X164468018Y-103621282D01*
X164356217Y-103509481D01*
X164356209Y-103509475D01*
X164219290Y-103430426D01*
X164219286Y-103430424D01*
X164219284Y-103430423D01*
X164066557Y-103389500D01*
X163908443Y-103389500D01*
X163755716Y-103430423D01*
X163755709Y-103430426D01*
X163618790Y-103509475D01*
X163618782Y-103509481D01*
X163506981Y-103621282D01*
X163506975Y-103621290D01*
X163427926Y-103758209D01*
X163427923Y-103758216D01*
X163387000Y-103910943D01*
X124388000Y-103910943D01*
X124347077Y-103758216D01*
X124306155Y-103687336D01*
X124268024Y-103621290D01*
X124268018Y-103621282D01*
X124156217Y-103509481D01*
X124156209Y-103509475D01*
X124019290Y-103430426D01*
X124019286Y-103430424D01*
X124019284Y-103430423D01*
X123866557Y-103389500D01*
X123708443Y-103389500D01*
X123555716Y-103430423D01*
X123555709Y-103430426D01*
X123418790Y-103509475D01*
X123418782Y-103509481D01*
X123306981Y-103621282D01*
X123306975Y-103621290D01*
X123227926Y-103758209D01*
X123227923Y-103758216D01*
X123187000Y-103910943D01*
X102491097Y-103910943D01*
X102468752Y-103842170D01*
X102468749Y-103842164D01*
X102420278Y-103758209D01*
X102379359Y-103687335D01*
X102319886Y-103621284D01*
X102259735Y-103554478D01*
X102259732Y-103554476D01*
X102259731Y-103554475D01*
X102259730Y-103554474D01*
X102115093Y-103449388D01*
X101951767Y-103376671D01*
X101951765Y-103376670D01*
X101824094Y-103349533D01*
X101776891Y-103339500D01*
X101598109Y-103339500D01*
X101567454Y-103346015D01*
X101423233Y-103376670D01*
X101423228Y-103376672D01*
X101259908Y-103449387D01*
X101115268Y-103554475D01*
X100995640Y-103687336D01*
X100906250Y-103842164D01*
X100906247Y-103842170D01*
X100851004Y-104012192D01*
X100851003Y-104012194D01*
X100832315Y-104190000D01*
X99488000Y-104190000D01*
X99488000Y-102690000D01*
X111781853Y-102690000D01*
X111802334Y-102832456D01*
X111862122Y-102963371D01*
X111862123Y-102963373D01*
X111956372Y-103072143D01*
X112077447Y-103149953D01*
X112077450Y-103149954D01*
X112077449Y-103149954D01*
X112215536Y-103190499D01*
X112215538Y-103190500D01*
X112215539Y-103190500D01*
X112359462Y-103190500D01*
X112359462Y-103190499D01*
X112497553Y-103149953D01*
X112618628Y-103072143D01*
X112712877Y-102963373D01*
X112772665Y-102832457D01*
X112791710Y-102699997D01*
X149869196Y-102699997D01*
X149869196Y-102700002D01*
X149890279Y-102833121D01*
X149890280Y-102833124D01*
X149890281Y-102833126D01*
X149951472Y-102953220D01*
X149951473Y-102953221D01*
X149951476Y-102953225D01*
X150046774Y-103048523D01*
X150046778Y-103048526D01*
X150046780Y-103048528D01*
X150166874Y-103109719D01*
X150166876Y-103109719D01*
X150166878Y-103109720D01*
X150299998Y-103130804D01*
X150300000Y-103130804D01*
X150300002Y-103130804D01*
X150433121Y-103109720D01*
X150433121Y-103109719D01*
X150433126Y-103109719D01*
X150553220Y-103048528D01*
X150648528Y-102953220D01*
X150709719Y-102833126D01*
X150730804Y-102700000D01*
X150729220Y-102690000D01*
X150709720Y-102566878D01*
X150709719Y-102566876D01*
X150709719Y-102566874D01*
X150648528Y-102446780D01*
X150648526Y-102446778D01*
X150648523Y-102446774D01*
X150553225Y-102351476D01*
X150553221Y-102351473D01*
X150553220Y-102351472D01*
X150433126Y-102290281D01*
X150433124Y-102290280D01*
X150433121Y-102290279D01*
X150300002Y-102269196D01*
X150299998Y-102269196D01*
X150166878Y-102290279D01*
X150046778Y-102351473D01*
X150046774Y-102351476D01*
X149951476Y-102446774D01*
X149951473Y-102446778D01*
X149890279Y-102566878D01*
X149869196Y-102699997D01*
X112791710Y-102699997D01*
X112793147Y-102690000D01*
X112772665Y-102547543D01*
X112712877Y-102416627D01*
X112618628Y-102307857D01*
X112497553Y-102230047D01*
X112497551Y-102230046D01*
X112497549Y-102230045D01*
X112497550Y-102230045D01*
X112359463Y-102189500D01*
X112359461Y-102189500D01*
X112215539Y-102189500D01*
X112215536Y-102189500D01*
X112077449Y-102230045D01*
X111956373Y-102307856D01*
X111862123Y-102416626D01*
X111862122Y-102416628D01*
X111802334Y-102547543D01*
X111781853Y-102690000D01*
X99488000Y-102690000D01*
X99488000Y-101590000D01*
X100832315Y-101590000D01*
X100851003Y-101767805D01*
X100851004Y-101767807D01*
X100906247Y-101937829D01*
X100906250Y-101937835D01*
X100995641Y-102092665D01*
X101015752Y-102115000D01*
X101115264Y-102225521D01*
X101115267Y-102225523D01*
X101115270Y-102225526D01*
X101259907Y-102330612D01*
X101423233Y-102403329D01*
X101598109Y-102440500D01*
X101598110Y-102440500D01*
X101776889Y-102440500D01*
X101776891Y-102440500D01*
X101951767Y-102403329D01*
X102115093Y-102330612D01*
X102259730Y-102225526D01*
X102359248Y-102115000D01*
X109881853Y-102115000D01*
X109902334Y-102257456D01*
X109962122Y-102388371D01*
X109962123Y-102388373D01*
X110056372Y-102497143D01*
X110177447Y-102574953D01*
X110177450Y-102574954D01*
X110177449Y-102574954D01*
X110315536Y-102615499D01*
X110315538Y-102615500D01*
X110315539Y-102615500D01*
X110459462Y-102615500D01*
X110459462Y-102615499D01*
X110597553Y-102574953D01*
X110718628Y-102497143D01*
X110812877Y-102388373D01*
X110872665Y-102257457D01*
X110893147Y-102115000D01*
X110872665Y-101972543D01*
X110812877Y-101841627D01*
X110718628Y-101732857D01*
X110597553Y-101655047D01*
X110597551Y-101655046D01*
X110597549Y-101655045D01*
X110597550Y-101655045D01*
X110459463Y-101614500D01*
X110459461Y-101614500D01*
X110315539Y-101614500D01*
X110315536Y-101614500D01*
X110177449Y-101655045D01*
X110056373Y-101732856D01*
X109962123Y-101841626D01*
X109962122Y-101841628D01*
X109902334Y-101972543D01*
X109881853Y-102115000D01*
X102359248Y-102115000D01*
X102379359Y-102092665D01*
X102468750Y-101937835D01*
X102523997Y-101767803D01*
X102542685Y-101590000D01*
X102523997Y-101412197D01*
X102468750Y-101242165D01*
X102379359Y-101087335D01*
X102307154Y-101007143D01*
X102259735Y-100954478D01*
X102259732Y-100954476D01*
X102259731Y-100954475D01*
X102259730Y-100954474D01*
X102115093Y-100849388D01*
X101951767Y-100776671D01*
X101951765Y-100776670D01*
X101824094Y-100749533D01*
X101776891Y-100739500D01*
X101598109Y-100739500D01*
X101567454Y-100746015D01*
X101423233Y-100776670D01*
X101423228Y-100776672D01*
X101259908Y-100849387D01*
X101115268Y-100954475D01*
X100995640Y-101087336D01*
X100906250Y-101242164D01*
X100906247Y-101242170D01*
X100851004Y-101412192D01*
X100851003Y-101412194D01*
X100832315Y-101590000D01*
X99488000Y-101590000D01*
X99488000Y-98800000D01*
X123244750Y-98800000D01*
X123250442Y-98843238D01*
X123263670Y-98943708D01*
X123263671Y-98943712D01*
X123319138Y-99077623D01*
X123319139Y-99077625D01*
X123355118Y-99124514D01*
X123380312Y-99189683D01*
X123366274Y-99258128D01*
X123355118Y-99275486D01*
X123319139Y-99322374D01*
X123319138Y-99322376D01*
X123263671Y-99456287D01*
X123263670Y-99456291D01*
X123251527Y-99548528D01*
X123244750Y-99600000D01*
X123248805Y-99630804D01*
X123263670Y-99743708D01*
X123263671Y-99743712D01*
X123319138Y-99877623D01*
X123319139Y-99877625D01*
X123355118Y-99924514D01*
X123380312Y-99989683D01*
X123366274Y-100058128D01*
X123355118Y-100075486D01*
X123319139Y-100122374D01*
X123319138Y-100122376D01*
X123263671Y-100256287D01*
X123263670Y-100256291D01*
X123251119Y-100351627D01*
X123244750Y-100400000D01*
X123257915Y-100500000D01*
X123263670Y-100543708D01*
X123263671Y-100543712D01*
X123319137Y-100677622D01*
X123319138Y-100677624D01*
X123319139Y-100677625D01*
X123407379Y-100792621D01*
X123522375Y-100880861D01*
X123522376Y-100880861D01*
X123522377Y-100880862D01*
X123564653Y-100898373D01*
X123656291Y-100936330D01*
X123783280Y-100953048D01*
X123799999Y-100955250D01*
X123800000Y-100955250D01*
X123800001Y-100955250D01*
X123814977Y-100953278D01*
X123943709Y-100936330D01*
X124077625Y-100880861D01*
X124192621Y-100792621D01*
X124280861Y-100677625D01*
X124302659Y-100625000D01*
X135331853Y-100625000D01*
X135352334Y-100767456D01*
X135404125Y-100880861D01*
X135412123Y-100898373D01*
X135506372Y-101007143D01*
X135627447Y-101084953D01*
X135627450Y-101084954D01*
X135627449Y-101084954D01*
X135765536Y-101125499D01*
X135765538Y-101125500D01*
X135765539Y-101125500D01*
X135909462Y-101125500D01*
X135909462Y-101125499D01*
X136047553Y-101084953D01*
X136168628Y-101007143D01*
X136262877Y-100898373D01*
X136322665Y-100767457D01*
X136343147Y-100625000D01*
X136325174Y-100499997D01*
X147669196Y-100499997D01*
X147669196Y-100500002D01*
X147690279Y-100633121D01*
X147690280Y-100633124D01*
X147690281Y-100633126D01*
X147751472Y-100753220D01*
X147751473Y-100753221D01*
X147751476Y-100753225D01*
X147846774Y-100848523D01*
X147846778Y-100848526D01*
X147846780Y-100848528D01*
X147966874Y-100909719D01*
X147966876Y-100909719D01*
X147966878Y-100909720D01*
X148099998Y-100930804D01*
X148100000Y-100930804D01*
X148100002Y-100930804D01*
X148233121Y-100909720D01*
X148233121Y-100909719D01*
X148233126Y-100909719D01*
X148353220Y-100848528D01*
X148448528Y-100753220D01*
X148509719Y-100633126D01*
X148523881Y-100543709D01*
X148530804Y-100500002D01*
X148530804Y-100499997D01*
X148509720Y-100366878D01*
X148509719Y-100366876D01*
X148509719Y-100366874D01*
X148448528Y-100246780D01*
X148448526Y-100246778D01*
X148448523Y-100246774D01*
X148353225Y-100151476D01*
X148353221Y-100151473D01*
X148353220Y-100151472D01*
X148233126Y-100090281D01*
X148233124Y-100090280D01*
X148233121Y-100090279D01*
X148100002Y-100069196D01*
X148099998Y-100069196D01*
X147966878Y-100090279D01*
X147846778Y-100151473D01*
X147846774Y-100151476D01*
X147751476Y-100246774D01*
X147751473Y-100246778D01*
X147690279Y-100366878D01*
X147669196Y-100499997D01*
X136325174Y-100499997D01*
X136322665Y-100482543D01*
X136262877Y-100351627D01*
X136168628Y-100242857D01*
X136047553Y-100165047D01*
X136047551Y-100165046D01*
X136047549Y-100165045D01*
X136047550Y-100165045D01*
X135909463Y-100124500D01*
X135909461Y-100124500D01*
X135765539Y-100124500D01*
X135765536Y-100124500D01*
X135627449Y-100165045D01*
X135506373Y-100242856D01*
X135506372Y-100242856D01*
X135506372Y-100242857D01*
X135502973Y-100246780D01*
X135412123Y-100351626D01*
X135412122Y-100351628D01*
X135352334Y-100482543D01*
X135331853Y-100625000D01*
X124302659Y-100625000D01*
X124336330Y-100543709D01*
X124355250Y-100400000D01*
X124336330Y-100256291D01*
X124280861Y-100122375D01*
X124244881Y-100075485D01*
X124219687Y-100010318D01*
X124233725Y-99941873D01*
X124244880Y-99924516D01*
X124280861Y-99877625D01*
X124336330Y-99743709D01*
X124355250Y-99600000D01*
X124336330Y-99456291D01*
X124280861Y-99322375D01*
X124244881Y-99275485D01*
X124219687Y-99210318D01*
X124221804Y-99199997D01*
X126169196Y-99199997D01*
X126169196Y-99200002D01*
X126190279Y-99333121D01*
X126190280Y-99333124D01*
X126190281Y-99333126D01*
X126251472Y-99453220D01*
X126251473Y-99453221D01*
X126251476Y-99453225D01*
X126346774Y-99548523D01*
X126346778Y-99548526D01*
X126346780Y-99548528D01*
X126466874Y-99609719D01*
X126466876Y-99609719D01*
X126466878Y-99609720D01*
X126599998Y-99630804D01*
X126600000Y-99630804D01*
X126600002Y-99630804D01*
X126733121Y-99609720D01*
X126733121Y-99609719D01*
X126733126Y-99609719D01*
X126853220Y-99548528D01*
X126948528Y-99453220D01*
X127009719Y-99333126D01*
X127018848Y-99275486D01*
X127030804Y-99200002D01*
X127030804Y-99199997D01*
X127009720Y-99066878D01*
X127009719Y-99066876D01*
X127009719Y-99066874D01*
X126948528Y-98946780D01*
X126948526Y-98946778D01*
X126948523Y-98946774D01*
X126853225Y-98851476D01*
X126853221Y-98851473D01*
X126853220Y-98851472D01*
X126733126Y-98790281D01*
X126733124Y-98790280D01*
X126733121Y-98790279D01*
X126600002Y-98769196D01*
X126599998Y-98769196D01*
X126466878Y-98790279D01*
X126346778Y-98851473D01*
X126346774Y-98851476D01*
X126251476Y-98946774D01*
X126251473Y-98946778D01*
X126190279Y-99066878D01*
X126169196Y-99199997D01*
X124221804Y-99199997D01*
X124233725Y-99141873D01*
X124244880Y-99124516D01*
X124280861Y-99077625D01*
X124336330Y-98943709D01*
X124355250Y-98800000D01*
X124353970Y-98790281D01*
X124353048Y-98783280D01*
X124336330Y-98656291D01*
X124280861Y-98522375D01*
X124192621Y-98407379D01*
X124183001Y-98399997D01*
X137369196Y-98399997D01*
X137369196Y-98400002D01*
X137390279Y-98533121D01*
X137390280Y-98533124D01*
X137390281Y-98533126D01*
X137451472Y-98653220D01*
X137451473Y-98653221D01*
X137451476Y-98653225D01*
X137546774Y-98748523D01*
X137546778Y-98748526D01*
X137546780Y-98748528D01*
X137666874Y-98809719D01*
X137666876Y-98809719D01*
X137666878Y-98809720D01*
X137799998Y-98830804D01*
X137800000Y-98830804D01*
X137800002Y-98830804D01*
X137933121Y-98809720D01*
X137933121Y-98809719D01*
X137933126Y-98809719D01*
X138053220Y-98748528D01*
X138148528Y-98653220D01*
X138209719Y-98533126D01*
X138209720Y-98533121D01*
X138230804Y-98400002D01*
X138230804Y-98399997D01*
X149869196Y-98399997D01*
X149869196Y-98400002D01*
X149890279Y-98533121D01*
X149890280Y-98533124D01*
X149890281Y-98533126D01*
X149951472Y-98653220D01*
X149951473Y-98653221D01*
X149951476Y-98653225D01*
X150046774Y-98748523D01*
X150046778Y-98748526D01*
X150046780Y-98748528D01*
X150166874Y-98809719D01*
X150166876Y-98809719D01*
X150166878Y-98809720D01*
X150299998Y-98830804D01*
X150300000Y-98830804D01*
X150300002Y-98830804D01*
X150433121Y-98809720D01*
X150433121Y-98809719D01*
X150433126Y-98809719D01*
X150553220Y-98748528D01*
X150648528Y-98653220D01*
X150709719Y-98533126D01*
X150709720Y-98533121D01*
X150714966Y-98499997D01*
X152569196Y-98499997D01*
X152569196Y-98500002D01*
X152590279Y-98633121D01*
X152590280Y-98633124D01*
X152590281Y-98633126D01*
X152651472Y-98753220D01*
X152651473Y-98753221D01*
X152651476Y-98753225D01*
X152746774Y-98848523D01*
X152746778Y-98848526D01*
X152746780Y-98848528D01*
X152866874Y-98909719D01*
X152866876Y-98909719D01*
X152866878Y-98909720D01*
X152999998Y-98930804D01*
X153000000Y-98930804D01*
X153000002Y-98930804D01*
X153133121Y-98909720D01*
X153133121Y-98909719D01*
X153133126Y-98909719D01*
X153253220Y-98848528D01*
X153348528Y-98753220D01*
X153409719Y-98633126D01*
X153419445Y-98571718D01*
X153430804Y-98500002D01*
X153430804Y-98499997D01*
X153409720Y-98366878D01*
X153409719Y-98366876D01*
X153409719Y-98366874D01*
X153348528Y-98246780D01*
X153348526Y-98246778D01*
X153348523Y-98246774D01*
X153253225Y-98151476D01*
X153253221Y-98151473D01*
X153253220Y-98151472D01*
X153152199Y-98099999D01*
X165844750Y-98099999D01*
X165844750Y-98100000D01*
X165863670Y-98243708D01*
X165863671Y-98243712D01*
X165919137Y-98377622D01*
X165919138Y-98377624D01*
X165919139Y-98377625D01*
X166007379Y-98492621D01*
X166122375Y-98580861D01*
X166256291Y-98636330D01*
X166383280Y-98653048D01*
X166399999Y-98655250D01*
X166400000Y-98655250D01*
X166400001Y-98655250D01*
X166415419Y-98653220D01*
X166543709Y-98636330D01*
X166677625Y-98580861D01*
X166792621Y-98492621D01*
X166880861Y-98377625D01*
X166936330Y-98243709D01*
X166955250Y-98100000D01*
X166953970Y-98090281D01*
X166953048Y-98083280D01*
X166942084Y-97999998D01*
X178394318Y-97999998D01*
X178394318Y-98000001D01*
X178414955Y-98156760D01*
X178414956Y-98156762D01*
X178475464Y-98302842D01*
X178568826Y-98424514D01*
X178594020Y-98489683D01*
X178579981Y-98558128D01*
X178568826Y-98575486D01*
X178475464Y-98697157D01*
X178414956Y-98843237D01*
X178414955Y-98843239D01*
X178394318Y-98999998D01*
X178394318Y-99000001D01*
X178414955Y-99156760D01*
X178414956Y-99156762D01*
X178464133Y-99275487D01*
X178475464Y-99302841D01*
X178571718Y-99428282D01*
X178697159Y-99524536D01*
X178843238Y-99585044D01*
X178921619Y-99595363D01*
X178999999Y-99605682D01*
X179000000Y-99605682D01*
X179000001Y-99605682D01*
X179052254Y-99598802D01*
X179156762Y-99585044D01*
X179302841Y-99524536D01*
X179424515Y-99431171D01*
X179489683Y-99405979D01*
X179558127Y-99420017D01*
X179575478Y-99431167D01*
X179697159Y-99524536D01*
X179843238Y-99585044D01*
X179921619Y-99595363D01*
X179999999Y-99605682D01*
X180000000Y-99605682D01*
X180000001Y-99605682D01*
X180052254Y-99598802D01*
X180156762Y-99585044D01*
X180302841Y-99524536D01*
X180424515Y-99431171D01*
X180489683Y-99405979D01*
X180558127Y-99420017D01*
X180575478Y-99431167D01*
X180697159Y-99524536D01*
X180843238Y-99585044D01*
X180921619Y-99595363D01*
X180999999Y-99605682D01*
X181000000Y-99605682D01*
X181000001Y-99605682D01*
X181052254Y-99598802D01*
X181156762Y-99585044D01*
X181302841Y-99524536D01*
X181424515Y-99431171D01*
X181489683Y-99405979D01*
X181558127Y-99420017D01*
X181575478Y-99431167D01*
X181697159Y-99524536D01*
X181843238Y-99585044D01*
X181921619Y-99595363D01*
X181999999Y-99605682D01*
X182000000Y-99605682D01*
X182000001Y-99605682D01*
X182052254Y-99598802D01*
X182156762Y-99585044D01*
X182302841Y-99524536D01*
X182334821Y-99499997D01*
X184569196Y-99499997D01*
X184569196Y-99500002D01*
X184590279Y-99633121D01*
X184590280Y-99633124D01*
X184590281Y-99633126D01*
X184651472Y-99753220D01*
X184651473Y-99753221D01*
X184651476Y-99753225D01*
X184746774Y-99848523D01*
X184746778Y-99848526D01*
X184746780Y-99848528D01*
X184866874Y-99909719D01*
X184866876Y-99909719D01*
X184866878Y-99909720D01*
X184999998Y-99930804D01*
X185000000Y-99930804D01*
X185000002Y-99930804D01*
X185133123Y-99909720D01*
X185133124Y-99909719D01*
X185133126Y-99909719D01*
X185193705Y-99878851D01*
X185262373Y-99865955D01*
X185306293Y-99878851D01*
X185366874Y-99909719D01*
X185366876Y-99909720D01*
X185499998Y-99930804D01*
X185500000Y-99930804D01*
X185500002Y-99930804D01*
X185633121Y-99909720D01*
X185633121Y-99909719D01*
X185633126Y-99909719D01*
X185753220Y-99848528D01*
X185848528Y-99753220D01*
X185909719Y-99633126D01*
X185913426Y-99609720D01*
X185930804Y-99500002D01*
X185930804Y-99499997D01*
X185909720Y-99366878D01*
X185909719Y-99366876D01*
X185909719Y-99366874D01*
X185848528Y-99246780D01*
X185848526Y-99246778D01*
X185848523Y-99246774D01*
X185753225Y-99151476D01*
X185753221Y-99151473D01*
X185753220Y-99151472D01*
X185633126Y-99090281D01*
X185633124Y-99090280D01*
X185633121Y-99090279D01*
X185500002Y-99069196D01*
X185499998Y-99069196D01*
X185366877Y-99090279D01*
X185306293Y-99121148D01*
X185237624Y-99134043D01*
X185193707Y-99121148D01*
X185133122Y-99090279D01*
X185000002Y-99069196D01*
X184999998Y-99069196D01*
X184866878Y-99090279D01*
X184746778Y-99151473D01*
X184746774Y-99151476D01*
X184651476Y-99246774D01*
X184651473Y-99246778D01*
X184651472Y-99246780D01*
X184607477Y-99333126D01*
X184590279Y-99366878D01*
X184569196Y-99499997D01*
X182334821Y-99499997D01*
X182428282Y-99428282D01*
X182524536Y-99302841D01*
X182585044Y-99156762D01*
X182605682Y-99000000D01*
X182598675Y-98946780D01*
X182591923Y-98895492D01*
X182585044Y-98843238D01*
X182524536Y-98697159D01*
X182431171Y-98575484D01*
X182405979Y-98510317D01*
X182420017Y-98441873D01*
X182431167Y-98424521D01*
X182524536Y-98302841D01*
X182585044Y-98156762D01*
X182605682Y-98000000D01*
X182604402Y-97990281D01*
X182585044Y-97843239D01*
X182585044Y-97843238D01*
X182524536Y-97697159D01*
X182428282Y-97571718D01*
X182302841Y-97475464D01*
X182156762Y-97414956D01*
X182156760Y-97414955D01*
X182000001Y-97394318D01*
X181999999Y-97394318D01*
X181843239Y-97414955D01*
X181843237Y-97414956D01*
X181697157Y-97475464D01*
X181575486Y-97568826D01*
X181510317Y-97594020D01*
X181441872Y-97579981D01*
X181424514Y-97568826D01*
X181302842Y-97475464D01*
X181156762Y-97414956D01*
X181156760Y-97414955D01*
X181000001Y-97394318D01*
X180999999Y-97394318D01*
X180843239Y-97414955D01*
X180843237Y-97414956D01*
X180697157Y-97475464D01*
X180575486Y-97568826D01*
X180510317Y-97594020D01*
X180441872Y-97579981D01*
X180424514Y-97568826D01*
X180302842Y-97475464D01*
X180156762Y-97414956D01*
X180156760Y-97414955D01*
X180000001Y-97394318D01*
X179999999Y-97394318D01*
X179843239Y-97414955D01*
X179843237Y-97414956D01*
X179697157Y-97475464D01*
X179575486Y-97568826D01*
X179510317Y-97594020D01*
X179441872Y-97579981D01*
X179424514Y-97568826D01*
X179302842Y-97475464D01*
X179156762Y-97414956D01*
X179156760Y-97414955D01*
X179000001Y-97394318D01*
X178999999Y-97394318D01*
X178843239Y-97414955D01*
X178843237Y-97414956D01*
X178697160Y-97475463D01*
X178571718Y-97571718D01*
X178475463Y-97697160D01*
X178414956Y-97843237D01*
X178414955Y-97843239D01*
X178394318Y-97999998D01*
X166942084Y-97999998D01*
X166936330Y-97956291D01*
X166880861Y-97822375D01*
X166792621Y-97707379D01*
X166677625Y-97619139D01*
X166677624Y-97619138D01*
X166677622Y-97619137D01*
X166543712Y-97563671D01*
X166543710Y-97563670D01*
X166543709Y-97563670D01*
X166471854Y-97554210D01*
X166400001Y-97544750D01*
X166399999Y-97544750D01*
X166256291Y-97563670D01*
X166256287Y-97563671D01*
X166122377Y-97619137D01*
X166007379Y-97707379D01*
X165919137Y-97822377D01*
X165863671Y-97956287D01*
X165863670Y-97956291D01*
X165844750Y-98099999D01*
X153152199Y-98099999D01*
X153133126Y-98090281D01*
X153133124Y-98090280D01*
X153133121Y-98090279D01*
X153000002Y-98069196D01*
X152999998Y-98069196D01*
X152866878Y-98090279D01*
X152746778Y-98151473D01*
X152746774Y-98151476D01*
X152651476Y-98246774D01*
X152651473Y-98246778D01*
X152590279Y-98366878D01*
X152569196Y-98499997D01*
X150714966Y-98499997D01*
X150730804Y-98400002D01*
X150730804Y-98399997D01*
X150709720Y-98266878D01*
X150709719Y-98266876D01*
X150709719Y-98266874D01*
X150648528Y-98146780D01*
X150648526Y-98146778D01*
X150648523Y-98146774D01*
X150553225Y-98051476D01*
X150553221Y-98051473D01*
X150553220Y-98051472D01*
X150433126Y-97990281D01*
X150433124Y-97990280D01*
X150433121Y-97990279D01*
X150300002Y-97969196D01*
X150299998Y-97969196D01*
X150166878Y-97990279D01*
X150046778Y-98051473D01*
X150046774Y-98051476D01*
X149951476Y-98146774D01*
X149951473Y-98146778D01*
X149890279Y-98266878D01*
X149869196Y-98399997D01*
X138230804Y-98399997D01*
X138209720Y-98266878D01*
X138209719Y-98266876D01*
X138209719Y-98266874D01*
X138148528Y-98146780D01*
X138148526Y-98146778D01*
X138148523Y-98146774D01*
X138053225Y-98051476D01*
X138053221Y-98051473D01*
X138053220Y-98051472D01*
X137933126Y-97990281D01*
X137933124Y-97990280D01*
X137933121Y-97990279D01*
X137800002Y-97969196D01*
X137799998Y-97969196D01*
X137666878Y-97990279D01*
X137546778Y-98051473D01*
X137546774Y-98051476D01*
X137451476Y-98146774D01*
X137451473Y-98146778D01*
X137390279Y-98266878D01*
X137369196Y-98399997D01*
X124183001Y-98399997D01*
X124077625Y-98319139D01*
X124077624Y-98319138D01*
X124077622Y-98319137D01*
X123943712Y-98263671D01*
X123943710Y-98263670D01*
X123943709Y-98263670D01*
X123871854Y-98254210D01*
X123800001Y-98244750D01*
X123799999Y-98244750D01*
X123656291Y-98263670D01*
X123656287Y-98263671D01*
X123522377Y-98319137D01*
X123407379Y-98407379D01*
X123319137Y-98522377D01*
X123263671Y-98656287D01*
X123263670Y-98656291D01*
X123246030Y-98790281D01*
X123244750Y-98800000D01*
X99488000Y-98800000D01*
X99488000Y-96420513D01*
X100912000Y-96420513D01*
X100912000Y-96609486D01*
X100941559Y-96796118D01*
X100999954Y-96975836D01*
X101042815Y-97059954D01*
X101085740Y-97144199D01*
X101196810Y-97297073D01*
X101330427Y-97430690D01*
X101483301Y-97541760D01*
X101542097Y-97571718D01*
X101651663Y-97627545D01*
X101651665Y-97627545D01*
X101651668Y-97627547D01*
X101747997Y-97658846D01*
X101831381Y-97685940D01*
X102018014Y-97715500D01*
X102018019Y-97715500D01*
X103706986Y-97715500D01*
X103893618Y-97685940D01*
X103922948Y-97676410D01*
X104073332Y-97627547D01*
X104241699Y-97541760D01*
X104394573Y-97430690D01*
X104528190Y-97297073D01*
X104598719Y-97199999D01*
X123544750Y-97199999D01*
X123544750Y-97200000D01*
X123563670Y-97343708D01*
X123563671Y-97343712D01*
X123619137Y-97477622D01*
X123619138Y-97477624D01*
X123619139Y-97477625D01*
X123707379Y-97592621D01*
X123822375Y-97680861D01*
X123956291Y-97736330D01*
X124083280Y-97753048D01*
X124099999Y-97755250D01*
X124100000Y-97755250D01*
X124100001Y-97755250D01*
X124114977Y-97753278D01*
X124243709Y-97736330D01*
X124377625Y-97680861D01*
X124492621Y-97592621D01*
X124580861Y-97477625D01*
X124636330Y-97343709D01*
X124655250Y-97200000D01*
X124636330Y-97056291D01*
X124580861Y-96922375D01*
X124492621Y-96807379D01*
X124377625Y-96719139D01*
X124377624Y-96719138D01*
X124377622Y-96719137D01*
X124243712Y-96663671D01*
X124243710Y-96663670D01*
X124243709Y-96663670D01*
X124171854Y-96654210D01*
X124100001Y-96644750D01*
X124099999Y-96644750D01*
X123956291Y-96663670D01*
X123956287Y-96663671D01*
X123822377Y-96719137D01*
X123707379Y-96807379D01*
X123619137Y-96922377D01*
X123563671Y-97056287D01*
X123563670Y-97056291D01*
X123544750Y-97199999D01*
X104598719Y-97199999D01*
X104639260Y-97144199D01*
X104725047Y-96975832D01*
X104752396Y-96891660D01*
X121499392Y-96891660D01*
X121499392Y-96891661D01*
X121513192Y-96900333D01*
X121513191Y-96900333D01*
X121683361Y-96959878D01*
X121862497Y-96980062D01*
X121862503Y-96980062D01*
X122041638Y-96959878D01*
X122041641Y-96959877D01*
X122211805Y-96900334D01*
X122211806Y-96900334D01*
X122225606Y-96891661D01*
X122225606Y-96891660D01*
X122499392Y-96891660D01*
X122499392Y-96891661D01*
X122513192Y-96900333D01*
X122513191Y-96900333D01*
X122683361Y-96959878D01*
X122862497Y-96980062D01*
X122862503Y-96980062D01*
X123041638Y-96959878D01*
X123041641Y-96959877D01*
X123211805Y-96900334D01*
X123211806Y-96900334D01*
X123225606Y-96891661D01*
X123225606Y-96891660D01*
X122933948Y-96600000D01*
X136794353Y-96600000D01*
X136814834Y-96742456D01*
X136839341Y-96796118D01*
X136874623Y-96873373D01*
X136968872Y-96982143D01*
X137089947Y-97059953D01*
X137089950Y-97059954D01*
X137089949Y-97059954D01*
X137228036Y-97100499D01*
X137228038Y-97100500D01*
X137228039Y-97100500D01*
X137371962Y-97100500D01*
X137371962Y-97100499D01*
X137510053Y-97059953D01*
X137631128Y-96982143D01*
X137676310Y-96930000D01*
X157131917Y-96930000D01*
X157152199Y-97135932D01*
X157152200Y-97135934D01*
X157212268Y-97333954D01*
X157309815Y-97516450D01*
X157330586Y-97541760D01*
X157441089Y-97676410D01*
X157514102Y-97736329D01*
X157601050Y-97807685D01*
X157783546Y-97905232D01*
X157981566Y-97965300D01*
X157981565Y-97965300D01*
X158000029Y-97967118D01*
X158187500Y-97985583D01*
X158393434Y-97965300D01*
X158591454Y-97905232D01*
X158773950Y-97807685D01*
X158933910Y-97676410D01*
X159065185Y-97516450D01*
X159162732Y-97333954D01*
X159222800Y-97135934D01*
X159243083Y-96930000D01*
X159222800Y-96724066D01*
X159162732Y-96526046D01*
X159065185Y-96343550D01*
X158984970Y-96245807D01*
X158933910Y-96183589D01*
X158794317Y-96069030D01*
X158773950Y-96052315D01*
X158591454Y-95954768D01*
X158410906Y-95900000D01*
X163294353Y-95900000D01*
X163314834Y-96042456D01*
X163364011Y-96150136D01*
X163374623Y-96173373D01*
X163468872Y-96282143D01*
X163589947Y-96359953D01*
X163589950Y-96359954D01*
X163589949Y-96359954D01*
X163728036Y-96400499D01*
X163728038Y-96400500D01*
X163728039Y-96400500D01*
X163871962Y-96400500D01*
X163871962Y-96400499D01*
X164010053Y-96359953D01*
X164131128Y-96282143D01*
X164225377Y-96173373D01*
X164285165Y-96042457D01*
X164305647Y-95900000D01*
X164285165Y-95757543D01*
X164225377Y-95626627D01*
X164131128Y-95517857D01*
X164010053Y-95440047D01*
X164010051Y-95440046D01*
X164010049Y-95440045D01*
X164010050Y-95440045D01*
X163871963Y-95399500D01*
X163871961Y-95399500D01*
X163728039Y-95399500D01*
X163728036Y-95399500D01*
X163589949Y-95440045D01*
X163468873Y-95517856D01*
X163374623Y-95626626D01*
X163374622Y-95626628D01*
X163314834Y-95757543D01*
X163294353Y-95900000D01*
X158410906Y-95900000D01*
X158393434Y-95894700D01*
X158393432Y-95894699D01*
X158393434Y-95894699D01*
X158187500Y-95874417D01*
X157981567Y-95894699D01*
X157783543Y-95954769D01*
X157706667Y-95995861D01*
X157601050Y-96052315D01*
X157601048Y-96052316D01*
X157601047Y-96052317D01*
X157441089Y-96183589D01*
X157323703Y-96326627D01*
X157309815Y-96343550D01*
X157301047Y-96359954D01*
X157212269Y-96526043D01*
X157152199Y-96724067D01*
X157131917Y-96930000D01*
X137676310Y-96930000D01*
X137725377Y-96873373D01*
X137785165Y-96742457D01*
X137805647Y-96600000D01*
X137785165Y-96457543D01*
X137725377Y-96326627D01*
X137631128Y-96217857D01*
X137510053Y-96140047D01*
X137510051Y-96140046D01*
X137510049Y-96140045D01*
X137510050Y-96140045D01*
X137371963Y-96099500D01*
X137371961Y-96099500D01*
X137228039Y-96099500D01*
X137228036Y-96099500D01*
X137089949Y-96140045D01*
X136968873Y-96217856D01*
X136874623Y-96326626D01*
X136874622Y-96326628D01*
X136814834Y-96457543D01*
X136794353Y-96600000D01*
X122933948Y-96600000D01*
X122862501Y-96528553D01*
X122862500Y-96528553D01*
X122499392Y-96891660D01*
X122225606Y-96891660D01*
X121862501Y-96528553D01*
X121862500Y-96528553D01*
X121499392Y-96891660D01*
X104752396Y-96891660D01*
X104783440Y-96796118D01*
X104795632Y-96719139D01*
X104813000Y-96609486D01*
X104813000Y-96420513D01*
X104783440Y-96233881D01*
X104725045Y-96054163D01*
X104663373Y-95933126D01*
X104639260Y-95885801D01*
X104528190Y-95732927D01*
X104394573Y-95599310D01*
X104241699Y-95488240D01*
X104230712Y-95482642D01*
X104073336Y-95402454D01*
X103893618Y-95344059D01*
X103706986Y-95314500D01*
X103706981Y-95314500D01*
X102018019Y-95314500D01*
X102018014Y-95314500D01*
X101831381Y-95344059D01*
X101651663Y-95402454D01*
X101483300Y-95488240D01*
X101402736Y-95546774D01*
X101330427Y-95599310D01*
X101330425Y-95599312D01*
X101330424Y-95599312D01*
X101196812Y-95732924D01*
X101196812Y-95732925D01*
X101196810Y-95732927D01*
X101171167Y-95768222D01*
X101085740Y-95885800D01*
X100999954Y-96054163D01*
X100941559Y-96233881D01*
X100912000Y-96420513D01*
X99488000Y-96420513D01*
X99488000Y-95214997D01*
X120431696Y-95214997D01*
X120431696Y-95215002D01*
X120452779Y-95348121D01*
X120452780Y-95348124D01*
X120452781Y-95348126D01*
X120508937Y-95458338D01*
X120513973Y-95468221D01*
X120513976Y-95468225D01*
X120609274Y-95563523D01*
X120609278Y-95563526D01*
X120609280Y-95563528D01*
X120729374Y-95624719D01*
X120729376Y-95624719D01*
X120729378Y-95624720D01*
X120862498Y-95645804D01*
X120862500Y-95645804D01*
X120862502Y-95645804D01*
X120929063Y-95635261D01*
X120995626Y-95624719D01*
X120995629Y-95624717D01*
X121004902Y-95621705D01*
X121005922Y-95624845D01*
X121057864Y-95615072D01*
X121122614Y-95641325D01*
X121162891Y-95698418D01*
X121165908Y-95768222D01*
X121150528Y-95804426D01*
X121137165Y-95825694D01*
X121077622Y-95995858D01*
X121077621Y-95995861D01*
X121057438Y-96174997D01*
X121057438Y-96175002D01*
X121077621Y-96354138D01*
X121137165Y-96524304D01*
X121145838Y-96538107D01*
X121533810Y-96150136D01*
X121737500Y-96150136D01*
X121737500Y-96199864D01*
X121756530Y-96245807D01*
X121791693Y-96280970D01*
X121837636Y-96300000D01*
X121887364Y-96300000D01*
X121933307Y-96280970D01*
X121968470Y-96245807D01*
X121987500Y-96199864D01*
X121987500Y-96174999D01*
X122216053Y-96174999D01*
X122362500Y-96321446D01*
X122508946Y-96175001D01*
X122508946Y-96175000D01*
X122484082Y-96150136D01*
X122737500Y-96150136D01*
X122737500Y-96199864D01*
X122756530Y-96245807D01*
X122791693Y-96280970D01*
X122837636Y-96300000D01*
X122887364Y-96300000D01*
X122933307Y-96280970D01*
X122968470Y-96245807D01*
X122987500Y-96199864D01*
X122987500Y-96175000D01*
X123216053Y-96175000D01*
X123579160Y-96538106D01*
X123579161Y-96538106D01*
X123587834Y-96524306D01*
X123587834Y-96524305D01*
X123647377Y-96354141D01*
X123647378Y-96354138D01*
X123667562Y-96175002D01*
X123667562Y-96174997D01*
X123647378Y-95995861D01*
X123587833Y-95825692D01*
X123579161Y-95811892D01*
X123579160Y-95811892D01*
X123216053Y-96175000D01*
X122987500Y-96175000D01*
X122987500Y-96150136D01*
X122968470Y-96104193D01*
X122933307Y-96069030D01*
X122887364Y-96050000D01*
X122837636Y-96050000D01*
X122791693Y-96069030D01*
X122756530Y-96104193D01*
X122737500Y-96150136D01*
X122484082Y-96150136D01*
X122362500Y-96028553D01*
X122216053Y-96174999D01*
X121987500Y-96174999D01*
X121987500Y-96150136D01*
X121968470Y-96104193D01*
X121933307Y-96069030D01*
X121887364Y-96050000D01*
X121837636Y-96050000D01*
X121791693Y-96069030D01*
X121756530Y-96104193D01*
X121737500Y-96150136D01*
X121533810Y-96150136D01*
X121862500Y-95821447D01*
X122225606Y-95458338D01*
X122225604Y-95458337D01*
X122499391Y-95458337D01*
X122499391Y-95458338D01*
X122862500Y-95821446D01*
X122862501Y-95821446D01*
X122883950Y-95799997D01*
X135469196Y-95799997D01*
X135469196Y-95800002D01*
X135490279Y-95933121D01*
X135490280Y-95933124D01*
X135490281Y-95933126D01*
X135551011Y-96052315D01*
X135551473Y-96053221D01*
X135551476Y-96053225D01*
X135646774Y-96148523D01*
X135646778Y-96148526D01*
X135646780Y-96148528D01*
X135766874Y-96209719D01*
X135766876Y-96209719D01*
X135766878Y-96209720D01*
X135899998Y-96230804D01*
X135900000Y-96230804D01*
X135900002Y-96230804D01*
X136033121Y-96209720D01*
X136033121Y-96209719D01*
X136033126Y-96209719D01*
X136153220Y-96148528D01*
X136248528Y-96053220D01*
X136309719Y-95933126D01*
X136319018Y-95874417D01*
X136330804Y-95800002D01*
X136330804Y-95799997D01*
X136309720Y-95666878D01*
X136309719Y-95666876D01*
X136309719Y-95666874D01*
X136248528Y-95546780D01*
X136248526Y-95546778D01*
X136248523Y-95546774D01*
X136153225Y-95451476D01*
X136153221Y-95451473D01*
X136153220Y-95451472D01*
X136033126Y-95390281D01*
X136033124Y-95390280D01*
X136033121Y-95390279D01*
X135900002Y-95369196D01*
X135899998Y-95369196D01*
X135766878Y-95390279D01*
X135646778Y-95451473D01*
X135646774Y-95451476D01*
X135551476Y-95546774D01*
X135551473Y-95546778D01*
X135490279Y-95666878D01*
X135469196Y-95799997D01*
X122883950Y-95799997D01*
X123225607Y-95458338D01*
X123211804Y-95449665D01*
X123041638Y-95390121D01*
X122862503Y-95369938D01*
X122862497Y-95369938D01*
X122683361Y-95390121D01*
X122683358Y-95390122D01*
X122513201Y-95449662D01*
X122513191Y-95449667D01*
X122499391Y-95458337D01*
X122225604Y-95458337D01*
X122211804Y-95449665D01*
X122041638Y-95390121D01*
X121862503Y-95369938D01*
X121862497Y-95369938D01*
X121683361Y-95390121D01*
X121683358Y-95390122D01*
X121513195Y-95449664D01*
X121458534Y-95484010D01*
X121391297Y-95503010D01*
X121324462Y-95482642D01*
X121279249Y-95429373D01*
X121270012Y-95360117D01*
X121270933Y-95356249D01*
X121293304Y-95215002D01*
X121293304Y-95214997D01*
X121272220Y-95081878D01*
X121272219Y-95081876D01*
X121272219Y-95081874D01*
X121225405Y-94989997D01*
X123656696Y-94989997D01*
X123656696Y-94990002D01*
X123677779Y-95123121D01*
X123677780Y-95123124D01*
X123677781Y-95123126D01*
X123738972Y-95243220D01*
X123738973Y-95243221D01*
X123738976Y-95243225D01*
X123834274Y-95338523D01*
X123834278Y-95338526D01*
X123834280Y-95338528D01*
X123954374Y-95399719D01*
X123954376Y-95399719D01*
X123954378Y-95399720D01*
X124087498Y-95420804D01*
X124087500Y-95420804D01*
X124087502Y-95420804D01*
X124220621Y-95399720D01*
X124220621Y-95399719D01*
X124220626Y-95399719D01*
X124340720Y-95338528D01*
X124436028Y-95243220D01*
X124497219Y-95123126D01*
X124518304Y-94990000D01*
X124516158Y-94976452D01*
X124497220Y-94856878D01*
X124497219Y-94856876D01*
X124497219Y-94856874D01*
X124436028Y-94736780D01*
X124436026Y-94736778D01*
X124436023Y-94736774D01*
X124340725Y-94641476D01*
X124340721Y-94641473D01*
X124340720Y-94641472D01*
X124220626Y-94580281D01*
X124220624Y-94580280D01*
X124220621Y-94580279D01*
X124087502Y-94559196D01*
X124087498Y-94559196D01*
X123954378Y-94580279D01*
X123834278Y-94641473D01*
X123834274Y-94641476D01*
X123738976Y-94736774D01*
X123738973Y-94736778D01*
X123677779Y-94856878D01*
X123656696Y-94989997D01*
X121225405Y-94989997D01*
X121211028Y-94961780D01*
X121211026Y-94961778D01*
X121211023Y-94961774D01*
X121115725Y-94866476D01*
X121115721Y-94866473D01*
X121115720Y-94866472D01*
X120995626Y-94805281D01*
X120995624Y-94805280D01*
X120995621Y-94805279D01*
X120862502Y-94784196D01*
X120862498Y-94784196D01*
X120729378Y-94805279D01*
X120609278Y-94866473D01*
X120609274Y-94866476D01*
X120513976Y-94961774D01*
X120513973Y-94961778D01*
X120452779Y-95081878D01*
X120431696Y-95214997D01*
X99488000Y-95214997D01*
X99488000Y-94464997D01*
X117081696Y-94464997D01*
X117081696Y-94465002D01*
X117102779Y-94598121D01*
X117102780Y-94598124D01*
X117102781Y-94598126D01*
X117124869Y-94641476D01*
X117163973Y-94718221D01*
X117163976Y-94718225D01*
X117259274Y-94813523D01*
X117259278Y-94813526D01*
X117259280Y-94813528D01*
X117379374Y-94874719D01*
X117379376Y-94874719D01*
X117379378Y-94874720D01*
X117512498Y-94895804D01*
X117512500Y-94895804D01*
X117512502Y-94895804D01*
X117645621Y-94874720D01*
X117645621Y-94874719D01*
X117645626Y-94874719D01*
X117765720Y-94813528D01*
X117861028Y-94718220D01*
X117922219Y-94598126D01*
X117922566Y-94595934D01*
X117937761Y-94499997D01*
X137369196Y-94499997D01*
X137369196Y-94500002D01*
X137390279Y-94633121D01*
X137390280Y-94633124D01*
X137390281Y-94633126D01*
X137451472Y-94753220D01*
X137451473Y-94753221D01*
X137451476Y-94753225D01*
X137546774Y-94848523D01*
X137546778Y-94848526D01*
X137546780Y-94848528D01*
X137666874Y-94909719D01*
X137666876Y-94909719D01*
X137666878Y-94909720D01*
X137799998Y-94930804D01*
X137800000Y-94930804D01*
X137800002Y-94930804D01*
X137933123Y-94909720D01*
X137933124Y-94909719D01*
X137933126Y-94909719D01*
X137993705Y-94878851D01*
X138062373Y-94865955D01*
X138106293Y-94878851D01*
X138139565Y-94895804D01*
X138166874Y-94909719D01*
X138166876Y-94909720D01*
X138299998Y-94930804D01*
X138300000Y-94930804D01*
X138300002Y-94930804D01*
X138433123Y-94909720D01*
X138433124Y-94909719D01*
X138433126Y-94909719D01*
X138493705Y-94878851D01*
X138562373Y-94865955D01*
X138606293Y-94878851D01*
X138639565Y-94895804D01*
X138666874Y-94909719D01*
X138666876Y-94909720D01*
X138799998Y-94930804D01*
X138800000Y-94930804D01*
X138800002Y-94930804D01*
X138933123Y-94909720D01*
X138933124Y-94909719D01*
X138933126Y-94909719D01*
X138993705Y-94878851D01*
X139062373Y-94865955D01*
X139106293Y-94878851D01*
X139139565Y-94895804D01*
X139166874Y-94909719D01*
X139166876Y-94909720D01*
X139299998Y-94930804D01*
X139300000Y-94930804D01*
X139300002Y-94930804D01*
X139433121Y-94909720D01*
X139433121Y-94909719D01*
X139433126Y-94909719D01*
X139553220Y-94848528D01*
X139648528Y-94753220D01*
X139709719Y-94633126D01*
X139709720Y-94633121D01*
X139730804Y-94500002D01*
X139730804Y-94499997D01*
X139709720Y-94366878D01*
X139709719Y-94366876D01*
X139709719Y-94366874D01*
X139648528Y-94246780D01*
X139648526Y-94246778D01*
X139648523Y-94246774D01*
X139553225Y-94151476D01*
X139553221Y-94151473D01*
X139553220Y-94151472D01*
X139433126Y-94090281D01*
X139433124Y-94090280D01*
X139433121Y-94090279D01*
X139300002Y-94069196D01*
X139299998Y-94069196D01*
X139166877Y-94090279D01*
X139106293Y-94121148D01*
X139037624Y-94134043D01*
X138993707Y-94121148D01*
X138933122Y-94090279D01*
X138800002Y-94069196D01*
X138799998Y-94069196D01*
X138666877Y-94090279D01*
X138606293Y-94121148D01*
X138537624Y-94134043D01*
X138493707Y-94121148D01*
X138433122Y-94090279D01*
X138300002Y-94069196D01*
X138299998Y-94069196D01*
X138166877Y-94090279D01*
X138106293Y-94121148D01*
X138037624Y-94134043D01*
X137993707Y-94121148D01*
X137933122Y-94090279D01*
X137800002Y-94069196D01*
X137799998Y-94069196D01*
X137666878Y-94090279D01*
X137546778Y-94151473D01*
X137546774Y-94151476D01*
X137451476Y-94246774D01*
X137451473Y-94246778D01*
X137390279Y-94366878D01*
X137369196Y-94499997D01*
X117937761Y-94499997D01*
X117943304Y-94465002D01*
X117943304Y-94464997D01*
X117922220Y-94331878D01*
X117922219Y-94331876D01*
X117922219Y-94331874D01*
X117861028Y-94211780D01*
X117861026Y-94211778D01*
X117861023Y-94211774D01*
X117765725Y-94116476D01*
X117765721Y-94116473D01*
X117765720Y-94116472D01*
X117645626Y-94055281D01*
X117645624Y-94055280D01*
X117645621Y-94055279D01*
X117512502Y-94034196D01*
X117512498Y-94034196D01*
X117379378Y-94055279D01*
X117379374Y-94055280D01*
X117379374Y-94055281D01*
X117310687Y-94090279D01*
X117259278Y-94116473D01*
X117259274Y-94116476D01*
X117163976Y-94211774D01*
X117163973Y-94211778D01*
X117102779Y-94331878D01*
X117081696Y-94464997D01*
X99488000Y-94464997D01*
X99488000Y-91921379D01*
X99912000Y-91921379D01*
X99912000Y-92108620D01*
X99948525Y-92292243D01*
X99948527Y-92292251D01*
X100020176Y-92465228D01*
X100020181Y-92465237D01*
X100124197Y-92620907D01*
X100124200Y-92620911D01*
X100256588Y-92753299D01*
X100256592Y-92753302D01*
X100412262Y-92857318D01*
X100412268Y-92857321D01*
X100412269Y-92857322D01*
X100585249Y-92928973D01*
X100768879Y-92965499D01*
X100768883Y-92965500D01*
X100768884Y-92965500D01*
X100956117Y-92965500D01*
X100956118Y-92965499D01*
X101139751Y-92928973D01*
X101312731Y-92857322D01*
X101468408Y-92753302D01*
X101600802Y-92620908D01*
X101704822Y-92465231D01*
X101776473Y-92292251D01*
X101813000Y-92108616D01*
X101813000Y-91921384D01*
X101776473Y-91737749D01*
X101713939Y-91586780D01*
X101704823Y-91564771D01*
X101704818Y-91564762D01*
X101600802Y-91409092D01*
X101600799Y-91409088D01*
X101468411Y-91276700D01*
X101468407Y-91276697D01*
X101423883Y-91246947D01*
X102362500Y-91246947D01*
X102362500Y-91765000D01*
X103362500Y-91765000D01*
X103362500Y-92265000D01*
X102362500Y-92265000D01*
X102362500Y-92783052D01*
X102399434Y-93016247D01*
X102472397Y-93240802D01*
X102579585Y-93451171D01*
X102718366Y-93642186D01*
X102885313Y-93809133D01*
X103076328Y-93947914D01*
X103286695Y-94055102D01*
X103511244Y-94128063D01*
X103511250Y-94128065D01*
X103612500Y-94144101D01*
X103612500Y-93098012D01*
X103669507Y-93130925D01*
X103796674Y-93165000D01*
X103928326Y-93165000D01*
X104055493Y-93130925D01*
X104112500Y-93098012D01*
X104112500Y-94144100D01*
X104213749Y-94128065D01*
X104213755Y-94128063D01*
X104438304Y-94055102D01*
X104648671Y-93947914D01*
X104839686Y-93809133D01*
X105006633Y-93642186D01*
X105145414Y-93451171D01*
X105252602Y-93240802D01*
X105325565Y-93016247D01*
X105362500Y-92783052D01*
X105362500Y-92265000D01*
X104362500Y-92265000D01*
X104362500Y-91765000D01*
X105362500Y-91765000D01*
X105362500Y-91246947D01*
X105325565Y-91013752D01*
X105252602Y-90789197D01*
X105145414Y-90578828D01*
X105006633Y-90387813D01*
X104839686Y-90220866D01*
X104648671Y-90082085D01*
X104478241Y-89995247D01*
X108662000Y-89995247D01*
X108662000Y-94034752D01*
X108673631Y-94093229D01*
X108673632Y-94093230D01*
X108717947Y-94159552D01*
X108784269Y-94203867D01*
X108784270Y-94203868D01*
X108842747Y-94215499D01*
X108842750Y-94215500D01*
X108842752Y-94215500D01*
X110882250Y-94215500D01*
X110882251Y-94215499D01*
X110900980Y-94211774D01*
X110940729Y-94203868D01*
X110940729Y-94203867D01*
X110940731Y-94203867D01*
X111007052Y-94159552D01*
X111051367Y-94093231D01*
X111051367Y-94093229D01*
X111051368Y-94093229D01*
X111062999Y-94034752D01*
X111063000Y-94034750D01*
X111063000Y-93975000D01*
X142794353Y-93975000D01*
X142814834Y-94117456D01*
X142873895Y-94246780D01*
X142874623Y-94248373D01*
X142968872Y-94357143D01*
X143089947Y-94434953D01*
X143089950Y-94434954D01*
X143089949Y-94434954D01*
X143228036Y-94475499D01*
X143228038Y-94475500D01*
X143228039Y-94475500D01*
X143371962Y-94475500D01*
X143371962Y-94475499D01*
X143510053Y-94434953D01*
X143580001Y-94390000D01*
X157131917Y-94390000D01*
X157152199Y-94595932D01*
X157166014Y-94641473D01*
X157212268Y-94793954D01*
X157309815Y-94976450D01*
X157309817Y-94976452D01*
X157441089Y-95136410D01*
X157536849Y-95214997D01*
X157601050Y-95267685D01*
X157783546Y-95365232D01*
X157981566Y-95425300D01*
X157981565Y-95425300D01*
X158000029Y-95427118D01*
X158187500Y-95445583D01*
X158393434Y-95425300D01*
X158591454Y-95365232D01*
X158773950Y-95267685D01*
X158933910Y-95136410D01*
X159065185Y-94976450D01*
X159162732Y-94793954D01*
X159222800Y-94595934D01*
X159243083Y-94390000D01*
X159222800Y-94184066D01*
X159162732Y-93986046D01*
X159065185Y-93803550D01*
X159062271Y-93799999D01*
X167344750Y-93799999D01*
X167344750Y-93800000D01*
X167363670Y-93943708D01*
X167363671Y-93943712D01*
X167419137Y-94077622D01*
X167419138Y-94077624D01*
X167419139Y-94077625D01*
X167507379Y-94192621D01*
X167622375Y-94280861D01*
X167756291Y-94336330D01*
X167883280Y-94353048D01*
X167899999Y-94355250D01*
X167900000Y-94355250D01*
X167900001Y-94355250D01*
X167914977Y-94353278D01*
X168043709Y-94336330D01*
X168177625Y-94280861D01*
X168292621Y-94192621D01*
X168380861Y-94077625D01*
X168436330Y-93943709D01*
X168455250Y-93800000D01*
X168436330Y-93656291D01*
X168380861Y-93522375D01*
X168292621Y-93407379D01*
X168177625Y-93319139D01*
X168177624Y-93319138D01*
X168177622Y-93319137D01*
X168043712Y-93263671D01*
X168043710Y-93263670D01*
X168043709Y-93263670D01*
X167941153Y-93250168D01*
X167900001Y-93244750D01*
X167899999Y-93244750D01*
X167756291Y-93263670D01*
X167756287Y-93263671D01*
X167622377Y-93319137D01*
X167507379Y-93407379D01*
X167419137Y-93522377D01*
X167363671Y-93656287D01*
X167363670Y-93656291D01*
X167344750Y-93799999D01*
X159062271Y-93799999D01*
X159013202Y-93740209D01*
X158933910Y-93643589D01*
X158796479Y-93530804D01*
X158773950Y-93512315D01*
X158591454Y-93414768D01*
X158393434Y-93354700D01*
X158393432Y-93354699D01*
X158393434Y-93354699D01*
X158187500Y-93334417D01*
X157981567Y-93354699D01*
X157783543Y-93414769D01*
X157683525Y-93468231D01*
X157601050Y-93512315D01*
X157601048Y-93512316D01*
X157601047Y-93512317D01*
X157441089Y-93643589D01*
X157309817Y-93803547D01*
X157212269Y-93986043D01*
X157152199Y-94184067D01*
X157131917Y-94390000D01*
X143580001Y-94390000D01*
X143631128Y-94357143D01*
X143725377Y-94248373D01*
X143785165Y-94117457D01*
X143805647Y-93975000D01*
X143785165Y-93832543D01*
X143725377Y-93701627D01*
X143631128Y-93592857D01*
X143510053Y-93515047D01*
X143510051Y-93515046D01*
X143510049Y-93515045D01*
X143510050Y-93515045D01*
X143371963Y-93474500D01*
X143371961Y-93474500D01*
X143228039Y-93474500D01*
X143228036Y-93474500D01*
X143089949Y-93515045D01*
X142968873Y-93592856D01*
X142874623Y-93701626D01*
X142874622Y-93701628D01*
X142814834Y-93832543D01*
X142794353Y-93975000D01*
X111063000Y-93975000D01*
X111063000Y-92399997D01*
X136269196Y-92399997D01*
X136269196Y-92400002D01*
X136290279Y-92533122D01*
X136321148Y-92593707D01*
X136334043Y-92662376D01*
X136321148Y-92706293D01*
X136290279Y-92766877D01*
X136269196Y-92899997D01*
X136269196Y-92900002D01*
X136290279Y-93033121D01*
X136290280Y-93033124D01*
X136290281Y-93033126D01*
X136351472Y-93153220D01*
X136351473Y-93153221D01*
X136351476Y-93153225D01*
X136446774Y-93248523D01*
X136446778Y-93248526D01*
X136446780Y-93248528D01*
X136566874Y-93309719D01*
X136566876Y-93309719D01*
X136566878Y-93309720D01*
X136699998Y-93330804D01*
X136700000Y-93330804D01*
X136700002Y-93330804D01*
X136833123Y-93309720D01*
X136833124Y-93309719D01*
X136833126Y-93309719D01*
X136893705Y-93278851D01*
X136962373Y-93265955D01*
X137006293Y-93278851D01*
X137066874Y-93309719D01*
X137066876Y-93309720D01*
X137199998Y-93330804D01*
X137200000Y-93330804D01*
X137200002Y-93330804D01*
X137333121Y-93309720D01*
X137333121Y-93309719D01*
X137333126Y-93309719D01*
X137453220Y-93248528D01*
X137548528Y-93153220D01*
X137575646Y-93099997D01*
X152769196Y-93099997D01*
X152769196Y-93100002D01*
X152790279Y-93233121D01*
X152790280Y-93233124D01*
X152790281Y-93233126D01*
X152851472Y-93353220D01*
X152851473Y-93353221D01*
X152851476Y-93353225D01*
X152946774Y-93448523D01*
X152946778Y-93448526D01*
X152946780Y-93448528D01*
X153066874Y-93509719D01*
X153066876Y-93509719D01*
X153066878Y-93509720D01*
X153199998Y-93530804D01*
X153200000Y-93530804D01*
X153200002Y-93530804D01*
X153333121Y-93509720D01*
X153333121Y-93509719D01*
X153333126Y-93509719D01*
X153453220Y-93448528D01*
X153548528Y-93353220D01*
X153609719Y-93233126D01*
X153630804Y-93100000D01*
X153625276Y-93065099D01*
X153609720Y-92966878D01*
X153609719Y-92966876D01*
X153609719Y-92966874D01*
X153548528Y-92846780D01*
X153548526Y-92846778D01*
X153548523Y-92846774D01*
X153453225Y-92751476D01*
X153453221Y-92751473D01*
X153453220Y-92751472D01*
X153333126Y-92690281D01*
X153333124Y-92690280D01*
X153333121Y-92690279D01*
X153200002Y-92669196D01*
X153199998Y-92669196D01*
X153066878Y-92690279D01*
X152946778Y-92751473D01*
X152946774Y-92751476D01*
X152851476Y-92846774D01*
X152851473Y-92846778D01*
X152790279Y-92966878D01*
X152769196Y-93099997D01*
X137575646Y-93099997D01*
X137609719Y-93033126D01*
X137609720Y-93033121D01*
X137630804Y-92900002D01*
X137630804Y-92899997D01*
X137609720Y-92766876D01*
X137609719Y-92766874D01*
X137589749Y-92727682D01*
X137578851Y-92706293D01*
X137565955Y-92637627D01*
X137578851Y-92593706D01*
X137609719Y-92533126D01*
X137609719Y-92533124D01*
X137609720Y-92533123D01*
X137630804Y-92400002D01*
X137630804Y-92399997D01*
X137609720Y-92266878D01*
X137609719Y-92266876D01*
X137609719Y-92266874D01*
X137548528Y-92146780D01*
X137548526Y-92146778D01*
X137548523Y-92146774D01*
X137453225Y-92051476D01*
X137453221Y-92051473D01*
X137453220Y-92051472D01*
X137333126Y-91990281D01*
X137333124Y-91990280D01*
X137333121Y-91990279D01*
X137200002Y-91969196D01*
X137199998Y-91969196D01*
X137066877Y-91990279D01*
X137006293Y-92021148D01*
X136937624Y-92034043D01*
X136893707Y-92021148D01*
X136833122Y-91990279D01*
X136700002Y-91969196D01*
X136699998Y-91969196D01*
X136566878Y-91990279D01*
X136446778Y-92051473D01*
X136446774Y-92051476D01*
X136351476Y-92146774D01*
X136351473Y-92146778D01*
X136290279Y-92266878D01*
X136269196Y-92399997D01*
X111063000Y-92399997D01*
X111063000Y-91839997D01*
X123656696Y-91839997D01*
X123656696Y-91840002D01*
X123677779Y-91973121D01*
X123677780Y-91973124D01*
X123677781Y-91973126D01*
X123718594Y-92053225D01*
X123738973Y-92093221D01*
X123738976Y-92093225D01*
X123834274Y-92188523D01*
X123834278Y-92188526D01*
X123834280Y-92188528D01*
X123954374Y-92249719D01*
X123954376Y-92249719D01*
X123954378Y-92249720D01*
X124087498Y-92270804D01*
X124087500Y-92270804D01*
X124087502Y-92270804D01*
X124220621Y-92249720D01*
X124220621Y-92249719D01*
X124220626Y-92249719D01*
X124340720Y-92188528D01*
X124436028Y-92093220D01*
X124497219Y-91973126D01*
X124497220Y-91973121D01*
X124516720Y-91850000D01*
X157131917Y-91850000D01*
X157152199Y-92055932D01*
X157180286Y-92148523D01*
X157212268Y-92253954D01*
X157309815Y-92436450D01*
X157309817Y-92436452D01*
X157441089Y-92596410D01*
X157537709Y-92675702D01*
X157601050Y-92727685D01*
X157783546Y-92825232D01*
X157981566Y-92885300D01*
X157981565Y-92885300D01*
X158000029Y-92887118D01*
X158187500Y-92905583D01*
X158244215Y-92899997D01*
X185969196Y-92899997D01*
X185969196Y-92900002D01*
X185990279Y-93033121D01*
X185990280Y-93033124D01*
X185990281Y-93033126D01*
X186051472Y-93153220D01*
X186051473Y-93153221D01*
X186051476Y-93153225D01*
X186146774Y-93248523D01*
X186146778Y-93248526D01*
X186146780Y-93248528D01*
X186266874Y-93309719D01*
X186266876Y-93309719D01*
X186266878Y-93309720D01*
X186399998Y-93330804D01*
X186400000Y-93330804D01*
X186400002Y-93330804D01*
X186533121Y-93309720D01*
X186533121Y-93309719D01*
X186533126Y-93309719D01*
X186653220Y-93248528D01*
X186748528Y-93153220D01*
X186809719Y-93033126D01*
X186809720Y-93033121D01*
X186830804Y-92900002D01*
X186830804Y-92899997D01*
X186809720Y-92766878D01*
X186809719Y-92766876D01*
X186809719Y-92766874D01*
X186748528Y-92646780D01*
X186748526Y-92646778D01*
X186748523Y-92646774D01*
X186653225Y-92551476D01*
X186653221Y-92551473D01*
X186653220Y-92551472D01*
X186533126Y-92490281D01*
X186533124Y-92490280D01*
X186533121Y-92490279D01*
X186400002Y-92469196D01*
X186399998Y-92469196D01*
X186266878Y-92490279D01*
X186146778Y-92551473D01*
X186146774Y-92551476D01*
X186051476Y-92646774D01*
X186051473Y-92646778D01*
X185990279Y-92766878D01*
X185969196Y-92899997D01*
X158244215Y-92899997D01*
X158393434Y-92885300D01*
X158591454Y-92825232D01*
X158773950Y-92727685D01*
X158933910Y-92596410D01*
X159065185Y-92436450D01*
X159162732Y-92253954D01*
X159222800Y-92055934D01*
X159243083Y-91850000D01*
X159238158Y-91799997D01*
X166869196Y-91799997D01*
X166869196Y-91800002D01*
X166890279Y-91933121D01*
X166890280Y-91933124D01*
X166890281Y-91933126D01*
X166951472Y-92053220D01*
X166951473Y-92053221D01*
X166951476Y-92053225D01*
X167046774Y-92148523D01*
X167046778Y-92148526D01*
X167046780Y-92148528D01*
X167166874Y-92209719D01*
X167166876Y-92209719D01*
X167166878Y-92209720D01*
X167299998Y-92230804D01*
X167300000Y-92230804D01*
X167300002Y-92230804D01*
X167433121Y-92209720D01*
X167433121Y-92209719D01*
X167433126Y-92209719D01*
X167553220Y-92148528D01*
X167648528Y-92053220D01*
X167709719Y-91933126D01*
X167722885Y-91850000D01*
X167730804Y-91800002D01*
X167730804Y-91799997D01*
X167709720Y-91666878D01*
X167709719Y-91666876D01*
X167709719Y-91666874D01*
X167648528Y-91546780D01*
X167648526Y-91546778D01*
X167648523Y-91546774D01*
X167553225Y-91451476D01*
X167553221Y-91451473D01*
X167553220Y-91451472D01*
X167433126Y-91390281D01*
X167433124Y-91390280D01*
X167433121Y-91390279D01*
X167300002Y-91369196D01*
X167299998Y-91369196D01*
X167166878Y-91390279D01*
X167046778Y-91451473D01*
X167046774Y-91451476D01*
X166951476Y-91546774D01*
X166951473Y-91546778D01*
X166890279Y-91666878D01*
X166869196Y-91799997D01*
X159238158Y-91799997D01*
X159222800Y-91644066D01*
X159162732Y-91446046D01*
X159065185Y-91263550D01*
X158990058Y-91172007D01*
X158933910Y-91103589D01*
X158773952Y-90972317D01*
X158773953Y-90972317D01*
X158773950Y-90972315D01*
X158591454Y-90874768D01*
X158393434Y-90814700D01*
X158393432Y-90814699D01*
X158393434Y-90814699D01*
X158187500Y-90794417D01*
X157981567Y-90814699D01*
X157783543Y-90874769D01*
X157673398Y-90933643D01*
X157601050Y-90972315D01*
X157601048Y-90972316D01*
X157601047Y-90972317D01*
X157441089Y-91103589D01*
X157322143Y-91248528D01*
X157309815Y-91263550D01*
X157273867Y-91330804D01*
X157212269Y-91446043D01*
X157152199Y-91644067D01*
X157131917Y-91850000D01*
X124516720Y-91850000D01*
X124518304Y-91840002D01*
X124518304Y-91839997D01*
X124497220Y-91706878D01*
X124497219Y-91706876D01*
X124497219Y-91706874D01*
X124436028Y-91586780D01*
X124436026Y-91586778D01*
X124436023Y-91586774D01*
X124340725Y-91491476D01*
X124340721Y-91491473D01*
X124340720Y-91491472D01*
X124220626Y-91430281D01*
X124220624Y-91430280D01*
X124220621Y-91430279D01*
X124087502Y-91409196D01*
X124087498Y-91409196D01*
X123954378Y-91430279D01*
X123954374Y-91430280D01*
X123954374Y-91430281D01*
X123918572Y-91448523D01*
X123834278Y-91491473D01*
X123834274Y-91491476D01*
X123738976Y-91586774D01*
X123738973Y-91586778D01*
X123677779Y-91706878D01*
X123656696Y-91839997D01*
X111063000Y-91839997D01*
X111063000Y-90899997D01*
X132469196Y-90899997D01*
X132469196Y-90900002D01*
X132490279Y-91033121D01*
X132490280Y-91033124D01*
X132490281Y-91033126D01*
X132551472Y-91153220D01*
X132551473Y-91153221D01*
X132551476Y-91153225D01*
X132646774Y-91248523D01*
X132646778Y-91248526D01*
X132646780Y-91248528D01*
X132766874Y-91309719D01*
X132766876Y-91309719D01*
X132766878Y-91309720D01*
X132899998Y-91330804D01*
X132900000Y-91330804D01*
X132900002Y-91330804D01*
X133033121Y-91309720D01*
X133033121Y-91309719D01*
X133033126Y-91309719D01*
X133153220Y-91248528D01*
X133248528Y-91153220D01*
X133309719Y-91033126D01*
X133319350Y-90972317D01*
X133330804Y-90900002D01*
X133330804Y-90899997D01*
X133309720Y-90766878D01*
X133309719Y-90766876D01*
X133309719Y-90766874D01*
X133248528Y-90646780D01*
X133248526Y-90646778D01*
X133248523Y-90646774D01*
X133153225Y-90551476D01*
X133153221Y-90551473D01*
X133153220Y-90551472D01*
X133052195Y-90499997D01*
X137569196Y-90499997D01*
X137569196Y-90500002D01*
X137590279Y-90633123D01*
X137646624Y-90743706D01*
X137659520Y-90812375D01*
X137646624Y-90856294D01*
X137590279Y-90966876D01*
X137569196Y-91099997D01*
X137569196Y-91100002D01*
X137590279Y-91233121D01*
X137590280Y-91233124D01*
X137590281Y-91233126D01*
X137651472Y-91353220D01*
X137651473Y-91353221D01*
X137651476Y-91353225D01*
X137746774Y-91448523D01*
X137746778Y-91448526D01*
X137746780Y-91448528D01*
X137866874Y-91509719D01*
X137866876Y-91509719D01*
X137866878Y-91509720D01*
X137999998Y-91530804D01*
X138000000Y-91530804D01*
X138000002Y-91530804D01*
X138133121Y-91509720D01*
X138133121Y-91509719D01*
X138133126Y-91509719D01*
X138253220Y-91448528D01*
X138348528Y-91353220D01*
X138409719Y-91233126D01*
X138419293Y-91172678D01*
X138430804Y-91100002D01*
X138430804Y-91099997D01*
X138409720Y-90966878D01*
X138409719Y-90966876D01*
X138409719Y-90966874D01*
X138353374Y-90856291D01*
X138340479Y-90787626D01*
X138345582Y-90770247D01*
X192792000Y-90770247D01*
X192792000Y-93409752D01*
X192803631Y-93468229D01*
X192803632Y-93468230D01*
X192847947Y-93534552D01*
X192914269Y-93578867D01*
X192914270Y-93578868D01*
X192972747Y-93590499D01*
X192972750Y-93590500D01*
X192972752Y-93590500D01*
X195612250Y-93590500D01*
X195612251Y-93590499D01*
X195627068Y-93587552D01*
X195670729Y-93578868D01*
X195670729Y-93578867D01*
X195670731Y-93578867D01*
X195737052Y-93534552D01*
X195781367Y-93468231D01*
X195781367Y-93468229D01*
X195781368Y-93468229D01*
X195792999Y-93409752D01*
X195793000Y-93409750D01*
X195793000Y-90770249D01*
X195792999Y-90770247D01*
X195781368Y-90711770D01*
X195781367Y-90711769D01*
X195737052Y-90645447D01*
X195670730Y-90601132D01*
X195670729Y-90601131D01*
X195612252Y-90589500D01*
X195612248Y-90589500D01*
X192972752Y-90589500D01*
X192972747Y-90589500D01*
X192914270Y-90601131D01*
X192914269Y-90601132D01*
X192847947Y-90645447D01*
X192803632Y-90711769D01*
X192803631Y-90711770D01*
X192792000Y-90770247D01*
X138345582Y-90770247D01*
X138353373Y-90743710D01*
X138409719Y-90633126D01*
X138414786Y-90601133D01*
X138430804Y-90500002D01*
X138430804Y-90499997D01*
X138409720Y-90366878D01*
X138409719Y-90366876D01*
X138409719Y-90366874D01*
X138348528Y-90246780D01*
X138348526Y-90246778D01*
X138348523Y-90246774D01*
X138253225Y-90151476D01*
X138253221Y-90151473D01*
X138253220Y-90151472D01*
X138133126Y-90090281D01*
X138133124Y-90090280D01*
X138133121Y-90090279D01*
X138000002Y-90069196D01*
X137999998Y-90069196D01*
X137866878Y-90090279D01*
X137746778Y-90151473D01*
X137746774Y-90151476D01*
X137651476Y-90246774D01*
X137651473Y-90246778D01*
X137590279Y-90366878D01*
X137569196Y-90499997D01*
X133052195Y-90499997D01*
X133033126Y-90490281D01*
X133033124Y-90490280D01*
X133033121Y-90490279D01*
X132900002Y-90469196D01*
X132899998Y-90469196D01*
X132766878Y-90490279D01*
X132766874Y-90490280D01*
X132766874Y-90490281D01*
X132686811Y-90531075D01*
X132646778Y-90551473D01*
X132646774Y-90551476D01*
X132551476Y-90646774D01*
X132551473Y-90646778D01*
X132490279Y-90766878D01*
X132469196Y-90899997D01*
X111063000Y-90899997D01*
X111063000Y-89995249D01*
X111062999Y-89995247D01*
X111051368Y-89936770D01*
X111051367Y-89936769D01*
X111007052Y-89870447D01*
X110940730Y-89826132D01*
X110940729Y-89826131D01*
X110882252Y-89814500D01*
X110882248Y-89814500D01*
X108842752Y-89814500D01*
X108842747Y-89814500D01*
X108784270Y-89826131D01*
X108784269Y-89826132D01*
X108717947Y-89870447D01*
X108673632Y-89936769D01*
X108673631Y-89936770D01*
X108662000Y-89995247D01*
X104478241Y-89995247D01*
X104438302Y-89974897D01*
X104213747Y-89901934D01*
X104112500Y-89885897D01*
X104112500Y-90931988D01*
X104055493Y-90899075D01*
X103928326Y-90865000D01*
X103796674Y-90865000D01*
X103669507Y-90899075D01*
X103612500Y-90931988D01*
X103612500Y-89885897D01*
X103511252Y-89901934D01*
X103286697Y-89974897D01*
X103076328Y-90082085D01*
X102885313Y-90220866D01*
X102718366Y-90387813D01*
X102579585Y-90578828D01*
X102472397Y-90789197D01*
X102399434Y-91013752D01*
X102362500Y-91246947D01*
X101423883Y-91246947D01*
X101312737Y-91172681D01*
X101312728Y-91172676D01*
X101139751Y-91101027D01*
X101139743Y-91101025D01*
X100956120Y-91064500D01*
X100956116Y-91064500D01*
X100768884Y-91064500D01*
X100768879Y-91064500D01*
X100585256Y-91101025D01*
X100585248Y-91101027D01*
X100412271Y-91172676D01*
X100412262Y-91172681D01*
X100256592Y-91276697D01*
X100256588Y-91276700D01*
X100124200Y-91409088D01*
X100124197Y-91409092D01*
X100020181Y-91564762D01*
X100020176Y-91564771D01*
X99948527Y-91737748D01*
X99948525Y-91737756D01*
X99912000Y-91921379D01*
X99488000Y-91921379D01*
X99488000Y-89400000D01*
X149594353Y-89400000D01*
X149614834Y-89542456D01*
X149674622Y-89673371D01*
X149674623Y-89673373D01*
X149768872Y-89782143D01*
X149889947Y-89859953D01*
X149889950Y-89859954D01*
X149889949Y-89859954D01*
X150028036Y-89900499D01*
X150028038Y-89900500D01*
X150028039Y-89900500D01*
X150171962Y-89900500D01*
X150171962Y-89900499D01*
X150310053Y-89859953D01*
X150431128Y-89782143D01*
X150525377Y-89673373D01*
X150585165Y-89542457D01*
X150605647Y-89400000D01*
X150592707Y-89310000D01*
X157131917Y-89310000D01*
X157152199Y-89515932D01*
X157182234Y-89614944D01*
X157212268Y-89713954D01*
X157309815Y-89896450D01*
X157309817Y-89896452D01*
X157441089Y-90056410D01*
X157482362Y-90090281D01*
X157601050Y-90187685D01*
X157783546Y-90285232D01*
X157981566Y-90345300D01*
X157981565Y-90345300D01*
X158000029Y-90347118D01*
X158187500Y-90365583D01*
X158393434Y-90345300D01*
X158591454Y-90285232D01*
X158773950Y-90187685D01*
X158933910Y-90056410D01*
X159065185Y-89896450D01*
X159162732Y-89713954D01*
X159222800Y-89515934D01*
X159243083Y-89310000D01*
X159222800Y-89104066D01*
X159162732Y-88906046D01*
X159065185Y-88723550D01*
X159007465Y-88653218D01*
X158933910Y-88563589D01*
X158773952Y-88432317D01*
X158773953Y-88432317D01*
X158773950Y-88432315D01*
X158591454Y-88334768D01*
X158393434Y-88274700D01*
X158393432Y-88274699D01*
X158393434Y-88274699D01*
X158187500Y-88254417D01*
X157981567Y-88274699D01*
X157783543Y-88334769D01*
X157673398Y-88393643D01*
X157601050Y-88432315D01*
X157601048Y-88432316D01*
X157601047Y-88432317D01*
X157441089Y-88563589D01*
X157316421Y-88715500D01*
X157309815Y-88723550D01*
X157293953Y-88753225D01*
X157212269Y-88906043D01*
X157152199Y-89104067D01*
X157131917Y-89310000D01*
X150592707Y-89310000D01*
X150585165Y-89257543D01*
X150525377Y-89126627D01*
X150431128Y-89017857D01*
X150310053Y-88940047D01*
X150310051Y-88940046D01*
X150310049Y-88940045D01*
X150310050Y-88940045D01*
X150171963Y-88899500D01*
X150171961Y-88899500D01*
X150028039Y-88899500D01*
X150028036Y-88899500D01*
X149889949Y-88940045D01*
X149768873Y-89017856D01*
X149674623Y-89126626D01*
X149674622Y-89126628D01*
X149614834Y-89257543D01*
X149594353Y-89400000D01*
X99488000Y-89400000D01*
X99488000Y-87420513D01*
X100912000Y-87420513D01*
X100912000Y-87609486D01*
X100941559Y-87796118D01*
X100999954Y-87975836D01*
X101085740Y-88144199D01*
X101196810Y-88297073D01*
X101330427Y-88430690D01*
X101483301Y-88541760D01*
X101526143Y-88563589D01*
X101651663Y-88627545D01*
X101651665Y-88627545D01*
X101651668Y-88627547D01*
X101730675Y-88653218D01*
X101831381Y-88685940D01*
X102018014Y-88715500D01*
X102018019Y-88715500D01*
X103706986Y-88715500D01*
X103893618Y-88685940D01*
X104073332Y-88627547D01*
X104241699Y-88541760D01*
X104299181Y-88499997D01*
X139669196Y-88499997D01*
X139669196Y-88500002D01*
X139690279Y-88633121D01*
X139690280Y-88633124D01*
X139690281Y-88633126D01*
X139751472Y-88753220D01*
X139751473Y-88753221D01*
X139751476Y-88753225D01*
X139846774Y-88848523D01*
X139846778Y-88848526D01*
X139846780Y-88848528D01*
X139966874Y-88909719D01*
X139966876Y-88909719D01*
X139966878Y-88909720D01*
X140099998Y-88930804D01*
X140100000Y-88930804D01*
X140100002Y-88930804D01*
X140233121Y-88909720D01*
X140233121Y-88909719D01*
X140233126Y-88909719D01*
X140353220Y-88848528D01*
X140448528Y-88753220D01*
X140509719Y-88633126D01*
X140510603Y-88627545D01*
X140530804Y-88500002D01*
X140530804Y-88499997D01*
X140509720Y-88366878D01*
X140509719Y-88366876D01*
X140509719Y-88366874D01*
X140448528Y-88246780D01*
X140448526Y-88246778D01*
X140448523Y-88246774D01*
X140353225Y-88151476D01*
X140353221Y-88151473D01*
X140353220Y-88151472D01*
X140233126Y-88090281D01*
X140233124Y-88090280D01*
X140233121Y-88090279D01*
X140100002Y-88069196D01*
X140099998Y-88069196D01*
X139966878Y-88090279D01*
X139966874Y-88090280D01*
X139966874Y-88090281D01*
X139934399Y-88106828D01*
X139846778Y-88151473D01*
X139846774Y-88151476D01*
X139751476Y-88246774D01*
X139751473Y-88246778D01*
X139690279Y-88366878D01*
X139669196Y-88499997D01*
X104299181Y-88499997D01*
X104394573Y-88430690D01*
X104528190Y-88297073D01*
X104639260Y-88144199D01*
X104725047Y-87975832D01*
X104783440Y-87796118D01*
X104813000Y-87609486D01*
X104813000Y-87420513D01*
X104783440Y-87233881D01*
X104736691Y-87090004D01*
X104725047Y-87054168D01*
X104725045Y-87054165D01*
X104725045Y-87054163D01*
X104679790Y-86965347D01*
X104639260Y-86885801D01*
X104528190Y-86732927D01*
X104394573Y-86599310D01*
X104241699Y-86488240D01*
X104073336Y-86402454D01*
X103893618Y-86344059D01*
X103706986Y-86314500D01*
X103706981Y-86314500D01*
X102018019Y-86314500D01*
X102018014Y-86314500D01*
X101831381Y-86344059D01*
X101651663Y-86402454D01*
X101483300Y-86488240D01*
X101424717Y-86530804D01*
X101330427Y-86599310D01*
X101330425Y-86599312D01*
X101330424Y-86599312D01*
X101196812Y-86732924D01*
X101196812Y-86732925D01*
X101196810Y-86732927D01*
X101194253Y-86736447D01*
X101085740Y-86885800D01*
X100999954Y-87054163D01*
X100941559Y-87233881D01*
X100912000Y-87420513D01*
X99488000Y-87420513D01*
X99488000Y-86099997D01*
X133669196Y-86099997D01*
X133669196Y-86100002D01*
X133690279Y-86233121D01*
X133690280Y-86233124D01*
X133690281Y-86233126D01*
X133746805Y-86344060D01*
X133751473Y-86353221D01*
X133751476Y-86353225D01*
X133846774Y-86448523D01*
X133846778Y-86448526D01*
X133846780Y-86448528D01*
X133966874Y-86509719D01*
X133966876Y-86509719D01*
X133966878Y-86509720D01*
X134099998Y-86530804D01*
X134100000Y-86530804D01*
X134100002Y-86530804D01*
X134233121Y-86509720D01*
X134233121Y-86509719D01*
X134233126Y-86509719D01*
X134353220Y-86448528D01*
X134362318Y-86439429D01*
X134423638Y-86405945D01*
X134493330Y-86410927D01*
X134537681Y-86439429D01*
X134546780Y-86448528D01*
X134666874Y-86509719D01*
X134666876Y-86509719D01*
X134666878Y-86509720D01*
X134799998Y-86530804D01*
X134800000Y-86530804D01*
X134800002Y-86530804D01*
X134933121Y-86509720D01*
X134933121Y-86509719D01*
X134933126Y-86509719D01*
X135053220Y-86448528D01*
X135062318Y-86439429D01*
X135123638Y-86405945D01*
X135193330Y-86410927D01*
X135237681Y-86439429D01*
X135246780Y-86448528D01*
X135366874Y-86509719D01*
X135366876Y-86509719D01*
X135366878Y-86509720D01*
X135499998Y-86530804D01*
X135500000Y-86530804D01*
X135500002Y-86530804D01*
X135633121Y-86509720D01*
X135633121Y-86509719D01*
X135633126Y-86509719D01*
X135753220Y-86448528D01*
X135762318Y-86439429D01*
X135823638Y-86405945D01*
X135893330Y-86410927D01*
X135937681Y-86439429D01*
X135946780Y-86448528D01*
X136066874Y-86509719D01*
X136066876Y-86509719D01*
X136066878Y-86509720D01*
X136199998Y-86530804D01*
X136200000Y-86530804D01*
X136200002Y-86530804D01*
X136333121Y-86509720D01*
X136333121Y-86509719D01*
X136333126Y-86509719D01*
X136453220Y-86448528D01*
X136548528Y-86353220D01*
X136609719Y-86233126D01*
X136609720Y-86233121D01*
X136611604Y-86221229D01*
X154590428Y-86221229D01*
X154590428Y-86221234D01*
X154611511Y-86354353D01*
X154611512Y-86354356D01*
X154611513Y-86354358D01*
X154672704Y-86474452D01*
X154672705Y-86474453D01*
X154672708Y-86474457D01*
X154768006Y-86569755D01*
X154768010Y-86569758D01*
X154768012Y-86569760D01*
X154888106Y-86630951D01*
X154888108Y-86630951D01*
X154888110Y-86630952D01*
X155021230Y-86652036D01*
X155021232Y-86652036D01*
X155021234Y-86652036D01*
X155154353Y-86630952D01*
X155154353Y-86630951D01*
X155154358Y-86630951D01*
X155274452Y-86569760D01*
X155369760Y-86474452D01*
X155430951Y-86354358D01*
X155430952Y-86354353D01*
X155452036Y-86221234D01*
X155452036Y-86221229D01*
X155430952Y-86088110D01*
X155430951Y-86088108D01*
X155430951Y-86088106D01*
X155369760Y-85968012D01*
X155369758Y-85968010D01*
X155369755Y-85968006D01*
X155351434Y-85949685D01*
X155324439Y-85900247D01*
X157137000Y-85900247D01*
X157137000Y-87639752D01*
X157148631Y-87698229D01*
X157148632Y-87698230D01*
X157192947Y-87764552D01*
X157259269Y-87808867D01*
X157259270Y-87808868D01*
X157317747Y-87820499D01*
X157317750Y-87820500D01*
X157317752Y-87820500D01*
X159057250Y-87820500D01*
X159057251Y-87820499D01*
X159072068Y-87817552D01*
X159115729Y-87808868D01*
X159115729Y-87808867D01*
X159115731Y-87808867D01*
X159182052Y-87764552D01*
X159226367Y-87698231D01*
X159226367Y-87698229D01*
X159226368Y-87698229D01*
X159237999Y-87639752D01*
X159238000Y-87639750D01*
X159238000Y-87089995D01*
X192487453Y-87089995D01*
X192487453Y-87090004D01*
X192507613Y-87359026D01*
X192507613Y-87359028D01*
X192567642Y-87622033D01*
X192567648Y-87622052D01*
X192666209Y-87873181D01*
X192666208Y-87873181D01*
X192801102Y-88106822D01*
X192854794Y-88174151D01*
X193691457Y-87337487D01*
X193716478Y-87397890D01*
X193787612Y-87504351D01*
X193878149Y-87594888D01*
X193984610Y-87666022D01*
X194045010Y-87691041D01*
X193207348Y-88528702D01*
X193389983Y-88653220D01*
X193389985Y-88653221D01*
X193633039Y-88770269D01*
X193633037Y-88770269D01*
X193890837Y-88849790D01*
X193890843Y-88849792D01*
X194157601Y-88889999D01*
X194157610Y-88890000D01*
X194427390Y-88890000D01*
X194427398Y-88889999D01*
X194694156Y-88849792D01*
X194694162Y-88849790D01*
X194951961Y-88770269D01*
X195195021Y-88653218D01*
X195377650Y-88528702D01*
X194539988Y-87691041D01*
X194600390Y-87666022D01*
X194706851Y-87594888D01*
X194797388Y-87504351D01*
X194868522Y-87397890D01*
X194893541Y-87337488D01*
X195730203Y-88174151D01*
X195730204Y-88174150D01*
X195783893Y-88106828D01*
X195783900Y-88106817D01*
X195918790Y-87873181D01*
X196017351Y-87622052D01*
X196017357Y-87622033D01*
X196077386Y-87359028D01*
X196077386Y-87359026D01*
X196097547Y-87090004D01*
X196097547Y-87089995D01*
X196077386Y-86820973D01*
X196077386Y-86820971D01*
X196017357Y-86557966D01*
X196017351Y-86557947D01*
X195918790Y-86306818D01*
X195918791Y-86306818D01*
X195783897Y-86073177D01*
X195730204Y-86005847D01*
X194893541Y-86842510D01*
X194868522Y-86782110D01*
X194797388Y-86675649D01*
X194706851Y-86585112D01*
X194600390Y-86513978D01*
X194539988Y-86488958D01*
X195377650Y-85651296D01*
X195195017Y-85526779D01*
X195195016Y-85526778D01*
X194951960Y-85409730D01*
X194951962Y-85409730D01*
X194694162Y-85330209D01*
X194694156Y-85330207D01*
X194427398Y-85290000D01*
X194157601Y-85290000D01*
X193890843Y-85330207D01*
X193890837Y-85330209D01*
X193633038Y-85409730D01*
X193389985Y-85526778D01*
X193389976Y-85526783D01*
X193207348Y-85651296D01*
X194045011Y-86488958D01*
X193984610Y-86513978D01*
X193878149Y-86585112D01*
X193787612Y-86675649D01*
X193716478Y-86782110D01*
X193691458Y-86842511D01*
X192854795Y-86005848D01*
X192801100Y-86073180D01*
X192666209Y-86306818D01*
X192567648Y-86557947D01*
X192567642Y-86557966D01*
X192507613Y-86820971D01*
X192507613Y-86820973D01*
X192487453Y-87089995D01*
X159238000Y-87089995D01*
X159238000Y-85900249D01*
X159237999Y-85900247D01*
X159226368Y-85841770D01*
X159226367Y-85841769D01*
X159182052Y-85775447D01*
X159115730Y-85731132D01*
X159115729Y-85731131D01*
X159057252Y-85719500D01*
X159057248Y-85719500D01*
X157317752Y-85719500D01*
X157317747Y-85719500D01*
X157259270Y-85731131D01*
X157259269Y-85731132D01*
X157192947Y-85775447D01*
X157148632Y-85841769D01*
X157148631Y-85841770D01*
X157137000Y-85900247D01*
X155324439Y-85900247D01*
X155317949Y-85888362D01*
X155322933Y-85818670D01*
X155364805Y-85762737D01*
X155422930Y-85739065D01*
X155443709Y-85736330D01*
X155577625Y-85680861D01*
X155692621Y-85592621D01*
X155780861Y-85477625D01*
X155836330Y-85343709D01*
X155855250Y-85200000D01*
X155836330Y-85056291D01*
X155780861Y-84922375D01*
X155692621Y-84807379D01*
X155577625Y-84719139D01*
X155577624Y-84719138D01*
X155577622Y-84719137D01*
X155443712Y-84663671D01*
X155443710Y-84663670D01*
X155443709Y-84663670D01*
X155371854Y-84654210D01*
X155300001Y-84644750D01*
X155299999Y-84644750D01*
X155156291Y-84663670D01*
X155156287Y-84663671D01*
X155022377Y-84719137D01*
X154907379Y-84807379D01*
X154819137Y-84922377D01*
X154763671Y-85056287D01*
X154763670Y-85056291D01*
X154744750Y-85200000D01*
X154761892Y-85330207D01*
X154763670Y-85343708D01*
X154763671Y-85343712D01*
X154819137Y-85477622D01*
X154819138Y-85477624D01*
X154819139Y-85477625D01*
X154907379Y-85592621D01*
X154915203Y-85598624D01*
X154956406Y-85655051D01*
X154960561Y-85724797D01*
X154926350Y-85785717D01*
X154896012Y-85807485D01*
X154888106Y-85811512D01*
X154888106Y-85811513D01*
X154768012Y-85872704D01*
X154768011Y-85872705D01*
X154768006Y-85872708D01*
X154672708Y-85968006D01*
X154672705Y-85968010D01*
X154611511Y-86088110D01*
X154590428Y-86221229D01*
X136611604Y-86221229D01*
X136630804Y-86100002D01*
X136630804Y-86099997D01*
X136609720Y-85966878D01*
X136609719Y-85966876D01*
X136609719Y-85966874D01*
X136548528Y-85846780D01*
X136548526Y-85846778D01*
X136548523Y-85846774D01*
X136453225Y-85751476D01*
X136453221Y-85751473D01*
X136453220Y-85751472D01*
X136333126Y-85690281D01*
X136333124Y-85690280D01*
X136333121Y-85690279D01*
X136200002Y-85669196D01*
X136199998Y-85669196D01*
X136066878Y-85690279D01*
X135946778Y-85751473D01*
X135946774Y-85751476D01*
X135937681Y-85760570D01*
X135876358Y-85794055D01*
X135806666Y-85789071D01*
X135762319Y-85760570D01*
X135753225Y-85751476D01*
X135753221Y-85751473D01*
X135753220Y-85751472D01*
X135633126Y-85690281D01*
X135633124Y-85690280D01*
X135633121Y-85690279D01*
X135500002Y-85669196D01*
X135499998Y-85669196D01*
X135366878Y-85690279D01*
X135246778Y-85751473D01*
X135246774Y-85751476D01*
X135237681Y-85760570D01*
X135176358Y-85794055D01*
X135106666Y-85789071D01*
X135062319Y-85760570D01*
X135053225Y-85751476D01*
X135053221Y-85751473D01*
X135053220Y-85751472D01*
X134933126Y-85690281D01*
X134933124Y-85690280D01*
X134933121Y-85690279D01*
X134800002Y-85669196D01*
X134799998Y-85669196D01*
X134666878Y-85690279D01*
X134546778Y-85751473D01*
X134546774Y-85751476D01*
X134537681Y-85760570D01*
X134476358Y-85794055D01*
X134406666Y-85789071D01*
X134362319Y-85760570D01*
X134353225Y-85751476D01*
X134353221Y-85751473D01*
X134353220Y-85751472D01*
X134233126Y-85690281D01*
X134233124Y-85690280D01*
X134233121Y-85690279D01*
X134100002Y-85669196D01*
X134099998Y-85669196D01*
X133966878Y-85690279D01*
X133846778Y-85751473D01*
X133846774Y-85751476D01*
X133751476Y-85846774D01*
X133751473Y-85846778D01*
X133690279Y-85966878D01*
X133669196Y-86099997D01*
X99488000Y-86099997D01*
X99488000Y-84189997D01*
X136019196Y-84189997D01*
X136019196Y-84190002D01*
X136040279Y-84323121D01*
X136040280Y-84323124D01*
X136040281Y-84323126D01*
X136101472Y-84443220D01*
X136101473Y-84443221D01*
X136101476Y-84443225D01*
X136196774Y-84538523D01*
X136196778Y-84538526D01*
X136196780Y-84538528D01*
X136316874Y-84599719D01*
X136316876Y-84599719D01*
X136316878Y-84599720D01*
X136449998Y-84620804D01*
X136450000Y-84620804D01*
X136450002Y-84620804D01*
X136583121Y-84599720D01*
X136583121Y-84599719D01*
X136583126Y-84599719D01*
X136703220Y-84538528D01*
X136798528Y-84443220D01*
X136859719Y-84323126D01*
X136880804Y-84190000D01*
X136871428Y-84130804D01*
X136859720Y-84056878D01*
X136859719Y-84056876D01*
X136859719Y-84056874D01*
X136798528Y-83936780D01*
X136798526Y-83936778D01*
X136798523Y-83936774D01*
X136703225Y-83841476D01*
X136703221Y-83841473D01*
X136703220Y-83841472D01*
X136583126Y-83780281D01*
X136583124Y-83780280D01*
X136583121Y-83780279D01*
X136450002Y-83759196D01*
X136449998Y-83759196D01*
X136316878Y-83780279D01*
X136196778Y-83841473D01*
X136196774Y-83841476D01*
X136101476Y-83936774D01*
X136101473Y-83936778D01*
X136040279Y-84056878D01*
X136019196Y-84189997D01*
X99488000Y-84189997D01*
X99488000Y-81689997D01*
X123319196Y-81689997D01*
X123319196Y-81690002D01*
X123340279Y-81823121D01*
X123340280Y-81823124D01*
X123340281Y-81823126D01*
X123401472Y-81943220D01*
X123401473Y-81943221D01*
X123401476Y-81943225D01*
X123496774Y-82038523D01*
X123496778Y-82038526D01*
X123496780Y-82038528D01*
X123616874Y-82099719D01*
X123616876Y-82099719D01*
X123616878Y-82099720D01*
X123749998Y-82120804D01*
X123750000Y-82120804D01*
X123750002Y-82120804D01*
X123883121Y-82099720D01*
X123883121Y-82099719D01*
X123883126Y-82099719D01*
X124003220Y-82038528D01*
X124098528Y-81943220D01*
X124159719Y-81823126D01*
X124163382Y-81800000D01*
X126744750Y-81800000D01*
X126757541Y-81897159D01*
X126763670Y-81943708D01*
X126763671Y-81943712D01*
X126819137Y-82077622D01*
X126819138Y-82077624D01*
X126819139Y-82077625D01*
X126907379Y-82192621D01*
X127022375Y-82280861D01*
X127156291Y-82336330D01*
X127283280Y-82353048D01*
X127299999Y-82355250D01*
X127300000Y-82355250D01*
X127300001Y-82355250D01*
X127314977Y-82353278D01*
X127443709Y-82336330D01*
X127577625Y-82280861D01*
X127589730Y-82271571D01*
X127654897Y-82246376D01*
X127723342Y-82260412D01*
X127773333Y-82309225D01*
X127788999Y-82377315D01*
X127779780Y-82417397D01*
X127763670Y-82456290D01*
X127763670Y-82456291D01*
X127744750Y-82599999D01*
X127744750Y-82600000D01*
X127763669Y-82743706D01*
X127763669Y-82743708D01*
X127763670Y-82743709D01*
X127779780Y-82782603D01*
X127787248Y-82852071D01*
X127755972Y-82914550D01*
X127695883Y-82950202D01*
X127626058Y-82947707D01*
X127589732Y-82928429D01*
X127577625Y-82919139D01*
X127577623Y-82919138D01*
X127443712Y-82863671D01*
X127443710Y-82863670D01*
X127443709Y-82863670D01*
X127371854Y-82854210D01*
X127300001Y-82844750D01*
X127299999Y-82844750D01*
X127156291Y-82863670D01*
X127156287Y-82863671D01*
X127022377Y-82919137D01*
X126907379Y-83007379D01*
X126819137Y-83122377D01*
X126763671Y-83256287D01*
X126763670Y-83256291D01*
X126744750Y-83399999D01*
X126744750Y-83400000D01*
X126763670Y-83543708D01*
X126763671Y-83543712D01*
X126819137Y-83677622D01*
X126819138Y-83677624D01*
X126819139Y-83677625D01*
X126907379Y-83792621D01*
X127022375Y-83880861D01*
X127156291Y-83936330D01*
X127283280Y-83953048D01*
X127299999Y-83955250D01*
X127300000Y-83955250D01*
X127300001Y-83955250D01*
X127315419Y-83953220D01*
X127443709Y-83936330D01*
X127577625Y-83880861D01*
X127692621Y-83792621D01*
X127701625Y-83780886D01*
X127758050Y-83739685D01*
X127827796Y-83735529D01*
X127888717Y-83769740D01*
X127898367Y-83780876D01*
X127907379Y-83792621D01*
X128022375Y-83880861D01*
X128156291Y-83936330D01*
X128283280Y-83953048D01*
X128299999Y-83955250D01*
X128300000Y-83955250D01*
X128300001Y-83955250D01*
X128315419Y-83953220D01*
X128443709Y-83936330D01*
X128577625Y-83880861D01*
X128692621Y-83792621D01*
X128701625Y-83780886D01*
X128758050Y-83739685D01*
X128827796Y-83735529D01*
X128888717Y-83769740D01*
X128898367Y-83780876D01*
X128907379Y-83792621D01*
X129022375Y-83880861D01*
X129156291Y-83936330D01*
X129283280Y-83953048D01*
X129299999Y-83955250D01*
X129300000Y-83955250D01*
X129300001Y-83955250D01*
X129315419Y-83953220D01*
X129443709Y-83936330D01*
X129577625Y-83880861D01*
X129692621Y-83792621D01*
X129701625Y-83780886D01*
X129758050Y-83739685D01*
X129827796Y-83735529D01*
X129888717Y-83769740D01*
X129898367Y-83780876D01*
X129907379Y-83792621D01*
X130022375Y-83880861D01*
X130156291Y-83936330D01*
X130283280Y-83953048D01*
X130299999Y-83955250D01*
X130300000Y-83955250D01*
X130300001Y-83955250D01*
X130315419Y-83953220D01*
X130443709Y-83936330D01*
X130577625Y-83880861D01*
X130692621Y-83792621D01*
X130763694Y-83699997D01*
X160869196Y-83699997D01*
X160869196Y-83700002D01*
X160890279Y-83833121D01*
X160890280Y-83833124D01*
X160890281Y-83833126D01*
X160951472Y-83953220D01*
X160951473Y-83953221D01*
X160951476Y-83953225D01*
X161046774Y-84048523D01*
X161046778Y-84048526D01*
X161046780Y-84048528D01*
X161166874Y-84109719D01*
X161166876Y-84109719D01*
X161166878Y-84109720D01*
X161299998Y-84130804D01*
X161300000Y-84130804D01*
X161300002Y-84130804D01*
X161433121Y-84109720D01*
X161433121Y-84109719D01*
X161433126Y-84109719D01*
X161553220Y-84048528D01*
X161648528Y-83953220D01*
X161709719Y-83833126D01*
X161709720Y-83833121D01*
X161730804Y-83700002D01*
X161730804Y-83699997D01*
X161709720Y-83566878D01*
X161709719Y-83566876D01*
X161709719Y-83566874D01*
X161648528Y-83446780D01*
X161648526Y-83446778D01*
X161648523Y-83446774D01*
X161553225Y-83351476D01*
X161553221Y-83351473D01*
X161553220Y-83351472D01*
X161433126Y-83290281D01*
X161433124Y-83290280D01*
X161433121Y-83290279D01*
X161300002Y-83269196D01*
X161299998Y-83269196D01*
X161166878Y-83290279D01*
X161046778Y-83351473D01*
X161046774Y-83351476D01*
X160951476Y-83446774D01*
X160951473Y-83446778D01*
X160890279Y-83566878D01*
X160869196Y-83699997D01*
X130763694Y-83699997D01*
X130780861Y-83677625D01*
X130836330Y-83543709D01*
X130855250Y-83400000D01*
X130836330Y-83256291D01*
X130780861Y-83122375D01*
X130692621Y-83007379D01*
X130577625Y-82919139D01*
X130577624Y-82919138D01*
X130577622Y-82919137D01*
X130443712Y-82863671D01*
X130443710Y-82863670D01*
X130443709Y-82863670D01*
X130371854Y-82854210D01*
X130300001Y-82844750D01*
X130299999Y-82844750D01*
X130156291Y-82863670D01*
X130156287Y-82863671D01*
X130022376Y-82919138D01*
X130022375Y-82919138D01*
X130010265Y-82928431D01*
X129945095Y-82953623D01*
X129876651Y-82939583D01*
X129826662Y-82890768D01*
X129811001Y-82822676D01*
X129820218Y-82782607D01*
X129836330Y-82743709D01*
X129855250Y-82600000D01*
X129836330Y-82456291D01*
X129820219Y-82417396D01*
X129812751Y-82347930D01*
X129844026Y-82285450D01*
X129904115Y-82249798D01*
X129973940Y-82252292D01*
X130010268Y-82271571D01*
X130022375Y-82280861D01*
X130156291Y-82336330D01*
X130283280Y-82353048D01*
X130299999Y-82355250D01*
X130300000Y-82355250D01*
X130300001Y-82355250D01*
X130314977Y-82353278D01*
X130443709Y-82336330D01*
X130577625Y-82280861D01*
X130692621Y-82192621D01*
X130763694Y-82099998D01*
X141794318Y-82099998D01*
X141794318Y-82100001D01*
X141814955Y-82256760D01*
X141814956Y-82256762D01*
X141856376Y-82356760D01*
X141875464Y-82402841D01*
X141971718Y-82528282D01*
X142097159Y-82624536D01*
X142243238Y-82685044D01*
X142321619Y-82695363D01*
X142399999Y-82705682D01*
X142400000Y-82705682D01*
X142400001Y-82705682D01*
X142452254Y-82698802D01*
X142556762Y-82685044D01*
X142702841Y-82624536D01*
X142828282Y-82528282D01*
X142924536Y-82402841D01*
X142985044Y-82256762D01*
X142992517Y-82199998D01*
X149894318Y-82199998D01*
X149894318Y-82200001D01*
X149914955Y-82356760D01*
X149914956Y-82356762D01*
X149975464Y-82502841D01*
X150071718Y-82628282D01*
X150197159Y-82724536D01*
X150343238Y-82785044D01*
X150421619Y-82795363D01*
X150499999Y-82805682D01*
X150500000Y-82805682D01*
X150500001Y-82805682D01*
X150552254Y-82798802D01*
X150656762Y-82785044D01*
X150802841Y-82724536D01*
X150928282Y-82628282D01*
X151024536Y-82502841D01*
X151085044Y-82356762D01*
X151105682Y-82200000D01*
X151104710Y-82192620D01*
X151085044Y-82043239D01*
X151085044Y-82043238D01*
X151024536Y-81897159D01*
X150928282Y-81771718D01*
X150834817Y-81700000D01*
X160844750Y-81700000D01*
X160860959Y-81823121D01*
X160863670Y-81843708D01*
X160863671Y-81843712D01*
X160919137Y-81977622D01*
X160919138Y-81977624D01*
X160919139Y-81977625D01*
X161007379Y-82092621D01*
X161122375Y-82180861D01*
X161122376Y-82180861D01*
X161122377Y-82180862D01*
X161167013Y-82199350D01*
X161256291Y-82236330D01*
X161383280Y-82253048D01*
X161399999Y-82255250D01*
X161400000Y-82255250D01*
X161400001Y-82255250D01*
X161414977Y-82253278D01*
X161543709Y-82236330D01*
X161677625Y-82180861D01*
X161792621Y-82092621D01*
X161880861Y-81977625D01*
X161936330Y-81843709D01*
X161955250Y-81700000D01*
X161953933Y-81690000D01*
X161952020Y-81675463D01*
X161936330Y-81556291D01*
X161880861Y-81422375D01*
X161792621Y-81307379D01*
X161677625Y-81219139D01*
X161677624Y-81219138D01*
X161677622Y-81219137D01*
X161543712Y-81163671D01*
X161543710Y-81163670D01*
X161543709Y-81163670D01*
X161471854Y-81154210D01*
X161400001Y-81144750D01*
X161399999Y-81144750D01*
X161256291Y-81163670D01*
X161256287Y-81163671D01*
X161122377Y-81219137D01*
X161007379Y-81307379D01*
X160919137Y-81422377D01*
X160863671Y-81556287D01*
X160863670Y-81556291D01*
X160846067Y-81690000D01*
X160844750Y-81700000D01*
X150834817Y-81700000D01*
X150802841Y-81675464D01*
X150793797Y-81671718D01*
X150656762Y-81614956D01*
X150656760Y-81614955D01*
X150500001Y-81594318D01*
X150499999Y-81594318D01*
X150343239Y-81614955D01*
X150343237Y-81614956D01*
X150197160Y-81675463D01*
X150071718Y-81771718D01*
X149975463Y-81897160D01*
X149914956Y-82043237D01*
X149914955Y-82043239D01*
X149894318Y-82199998D01*
X142992517Y-82199998D01*
X143005682Y-82100000D01*
X143004710Y-82092620D01*
X142985044Y-81943239D01*
X142985044Y-81943238D01*
X142924536Y-81797159D01*
X142828282Y-81671718D01*
X142702841Y-81575464D01*
X142657970Y-81556878D01*
X142556762Y-81514956D01*
X142556760Y-81514955D01*
X142400001Y-81494318D01*
X142399999Y-81494318D01*
X142243239Y-81514955D01*
X142243237Y-81514956D01*
X142097160Y-81575463D01*
X141971718Y-81671718D01*
X141875463Y-81797160D01*
X141814956Y-81943237D01*
X141814955Y-81943239D01*
X141794318Y-82099998D01*
X130763694Y-82099998D01*
X130780861Y-82077625D01*
X130836330Y-81943709D01*
X130855250Y-81800000D01*
X130836330Y-81656291D01*
X130780861Y-81522375D01*
X130692621Y-81407379D01*
X130577625Y-81319139D01*
X130577624Y-81319138D01*
X130577622Y-81319137D01*
X130443712Y-81263671D01*
X130443710Y-81263670D01*
X130443709Y-81263670D01*
X130343675Y-81250500D01*
X130300001Y-81244750D01*
X130299999Y-81244750D01*
X130156291Y-81263670D01*
X130156287Y-81263671D01*
X130022377Y-81319137D01*
X129993270Y-81341472D01*
X129907379Y-81407379D01*
X129907378Y-81407380D01*
X129907377Y-81407381D01*
X129898375Y-81419113D01*
X129841947Y-81460316D01*
X129772201Y-81464470D01*
X129711281Y-81430257D01*
X129701625Y-81419113D01*
X129699782Y-81416711D01*
X129692621Y-81407379D01*
X129577625Y-81319139D01*
X129577624Y-81319138D01*
X129577622Y-81319137D01*
X129443712Y-81263671D01*
X129443710Y-81263670D01*
X129443709Y-81263670D01*
X129343675Y-81250500D01*
X129300001Y-81244750D01*
X129299999Y-81244750D01*
X129156291Y-81263670D01*
X129156287Y-81263671D01*
X129022377Y-81319137D01*
X128993270Y-81341472D01*
X128907379Y-81407379D01*
X128907378Y-81407380D01*
X128907377Y-81407381D01*
X128898375Y-81419113D01*
X128841947Y-81460316D01*
X128772201Y-81464470D01*
X128711281Y-81430257D01*
X128701625Y-81419113D01*
X128699782Y-81416711D01*
X128692621Y-81407379D01*
X128577625Y-81319139D01*
X128577624Y-81319138D01*
X128577622Y-81319137D01*
X128443712Y-81263671D01*
X128443710Y-81263670D01*
X128443709Y-81263670D01*
X128343675Y-81250500D01*
X128300001Y-81244750D01*
X128299999Y-81244750D01*
X128156291Y-81263670D01*
X128156287Y-81263671D01*
X128022377Y-81319137D01*
X127993270Y-81341472D01*
X127907379Y-81407379D01*
X127907378Y-81407380D01*
X127907377Y-81407381D01*
X127898375Y-81419113D01*
X127841947Y-81460316D01*
X127772201Y-81464470D01*
X127711281Y-81430257D01*
X127701625Y-81419113D01*
X127699782Y-81416711D01*
X127692621Y-81407379D01*
X127577625Y-81319139D01*
X127577624Y-81319138D01*
X127577622Y-81319137D01*
X127443712Y-81263671D01*
X127443710Y-81263670D01*
X127443709Y-81263670D01*
X127343675Y-81250500D01*
X127300001Y-81244750D01*
X127299999Y-81244750D01*
X127156291Y-81263670D01*
X127156287Y-81263671D01*
X127022377Y-81319137D01*
X126907379Y-81407379D01*
X126819137Y-81522377D01*
X126763671Y-81656287D01*
X126763670Y-81656291D01*
X126744750Y-81800000D01*
X124163382Y-81800000D01*
X124179220Y-81700000D01*
X124180804Y-81690002D01*
X124180804Y-81689997D01*
X124159720Y-81556878D01*
X124159719Y-81556876D01*
X124159719Y-81556874D01*
X124098528Y-81436780D01*
X124098526Y-81436778D01*
X124098523Y-81436774D01*
X124003225Y-81341476D01*
X124003221Y-81341473D01*
X124003220Y-81341472D01*
X123883126Y-81280281D01*
X123883124Y-81280280D01*
X123883121Y-81280279D01*
X123750002Y-81259196D01*
X123749998Y-81259196D01*
X123616878Y-81280279D01*
X123496778Y-81341473D01*
X123496774Y-81341476D01*
X123401476Y-81436774D01*
X123401473Y-81436778D01*
X123340279Y-81556878D01*
X123319196Y-81689997D01*
X99488000Y-81689997D01*
X99488000Y-80750000D01*
X145145603Y-80750000D01*
X145166084Y-80892456D01*
X145225872Y-81023371D01*
X145225873Y-81023373D01*
X145320122Y-81132143D01*
X145441197Y-81209953D01*
X145441200Y-81209954D01*
X145441199Y-81209954D01*
X145579286Y-81250499D01*
X145579288Y-81250500D01*
X145579289Y-81250500D01*
X145723212Y-81250500D01*
X145723212Y-81250499D01*
X145861303Y-81209953D01*
X145982378Y-81132143D01*
X146076627Y-81023373D01*
X146136415Y-80892457D01*
X146156897Y-80750000D01*
X146136415Y-80607543D01*
X146076627Y-80476627D01*
X145982378Y-80367857D01*
X145861303Y-80290047D01*
X145861301Y-80290046D01*
X145861299Y-80290045D01*
X145861300Y-80290045D01*
X145723213Y-80249500D01*
X145723211Y-80249500D01*
X145579289Y-80249500D01*
X145579286Y-80249500D01*
X145441199Y-80290045D01*
X145320123Y-80367856D01*
X145225873Y-80476626D01*
X145225872Y-80476628D01*
X145166084Y-80607543D01*
X145145603Y-80750000D01*
X99488000Y-80750000D01*
X99488000Y-80289997D01*
X136619196Y-80289997D01*
X136619196Y-80290002D01*
X136640279Y-80423121D01*
X136640280Y-80423124D01*
X136640281Y-80423126D01*
X136667542Y-80476628D01*
X136701473Y-80543221D01*
X136701476Y-80543225D01*
X136796774Y-80638523D01*
X136796778Y-80638526D01*
X136796780Y-80638528D01*
X136916874Y-80699719D01*
X136916876Y-80699719D01*
X136916878Y-80699720D01*
X137049998Y-80720804D01*
X137050000Y-80720804D01*
X137050002Y-80720804D01*
X137183121Y-80699720D01*
X137183121Y-80699719D01*
X137183126Y-80699719D01*
X137303220Y-80638528D01*
X137398528Y-80543220D01*
X137459719Y-80423126D01*
X137480804Y-80290000D01*
X137474389Y-80249500D01*
X137459720Y-80156878D01*
X137459719Y-80156876D01*
X137459719Y-80156874D01*
X137398528Y-80036780D01*
X137398526Y-80036778D01*
X137398523Y-80036774D01*
X137303225Y-79941476D01*
X137303221Y-79941473D01*
X137303220Y-79941472D01*
X137183126Y-79880281D01*
X137183124Y-79880280D01*
X137183121Y-79880279D01*
X137050002Y-79859196D01*
X137049998Y-79859196D01*
X136916878Y-79880279D01*
X136796778Y-79941473D01*
X136796774Y-79941476D01*
X136701476Y-80036774D01*
X136701473Y-80036778D01*
X136640279Y-80156878D01*
X136619196Y-80289997D01*
X99488000Y-80289997D01*
X99488000Y-77889997D01*
X145140446Y-77889997D01*
X145140446Y-77890002D01*
X145161529Y-78023121D01*
X145161530Y-78023124D01*
X145161531Y-78023126D01*
X145222722Y-78143220D01*
X145222723Y-78143221D01*
X145222726Y-78143225D01*
X145318024Y-78238523D01*
X145318028Y-78238526D01*
X145318030Y-78238528D01*
X145438124Y-78299719D01*
X145438126Y-78299719D01*
X145438128Y-78299720D01*
X145571248Y-78320804D01*
X145571250Y-78320804D01*
X145571252Y-78320804D01*
X145704371Y-78299720D01*
X145704371Y-78299719D01*
X145704376Y-78299719D01*
X145824470Y-78238528D01*
X145919778Y-78143220D01*
X145980969Y-78023126D01*
X146002054Y-77890000D01*
X145980969Y-77756874D01*
X145919778Y-77636780D01*
X145919776Y-77636778D01*
X145919773Y-77636774D01*
X145824475Y-77541476D01*
X145824471Y-77541473D01*
X145824470Y-77541472D01*
X145704376Y-77480281D01*
X145704374Y-77480280D01*
X145704371Y-77480279D01*
X145571252Y-77459196D01*
X145571248Y-77459196D01*
X145438128Y-77480279D01*
X145318028Y-77541473D01*
X145318024Y-77541476D01*
X145222726Y-77636774D01*
X145222723Y-77636778D01*
X145161529Y-77756878D01*
X145140446Y-77889997D01*
X99488000Y-77889997D01*
X99488000Y-70093750D01*
X99488226Y-70086263D01*
X99505771Y-69796205D01*
X99507576Y-69781340D01*
X99559280Y-69499201D01*
X99562864Y-69484663D01*
X99639596Y-69238422D01*
X99648196Y-69210822D01*
X99653498Y-69196841D01*
X99771231Y-68935249D01*
X99778176Y-68922016D01*
X99912389Y-68700000D01*
X143648103Y-68700000D01*
X143668584Y-68842456D01*
X143728372Y-68973371D01*
X143728373Y-68973373D01*
X143822622Y-69082143D01*
X143943697Y-69159953D01*
X143943700Y-69159954D01*
X143943699Y-69159954D01*
X144050857Y-69191417D01*
X144069293Y-69196831D01*
X144081786Y-69200499D01*
X144081788Y-69200500D01*
X144081789Y-69200500D01*
X144225712Y-69200500D01*
X144225712Y-69200499D01*
X144363803Y-69159953D01*
X144484878Y-69082143D01*
X144579127Y-68973373D01*
X144638915Y-68842457D01*
X144659397Y-68700000D01*
X144638915Y-68557543D01*
X144579127Y-68426627D01*
X144484878Y-68317857D01*
X144363803Y-68240047D01*
X144363801Y-68240046D01*
X144363799Y-68240045D01*
X144363800Y-68240045D01*
X144225713Y-68199500D01*
X144225711Y-68199500D01*
X144081789Y-68199500D01*
X144081786Y-68199500D01*
X143943699Y-68240045D01*
X143822623Y-68317856D01*
X143728373Y-68426626D01*
X143728372Y-68426628D01*
X143668584Y-68557543D01*
X143648103Y-68700000D01*
X99912389Y-68700000D01*
X99926580Y-68676526D01*
X99935067Y-68664230D01*
X100111980Y-68438417D01*
X100121895Y-68427226D01*
X100324726Y-68224395D01*
X100335917Y-68214480D01*
X100561730Y-68037567D01*
X100574026Y-68029080D01*
X100819516Y-67880676D01*
X100832749Y-67873731D01*
X101094341Y-67755998D01*
X101108322Y-67750696D01*
X101382168Y-67665362D01*
X101396697Y-67661780D01*
X101678844Y-67610075D01*
X101693701Y-67608271D01*
X101983764Y-67590726D01*
X101991251Y-67590500D01*
X102053392Y-67590500D01*
X196921608Y-67590500D01*
X196983749Y-67590500D01*
X196991236Y-67590726D01*
G37*
%TD.AperFunction*%
%TD*%
M02*
