%TF.GenerationSoftware,KiCad,Pcbnew,8.0.5*%
%TF.CreationDate,2025-07-10T15:46:46-04:00*%
%TF.ProjectId,Var_Volt_Conv,5661725f-566f-46c7-945f-436f6e762e6b,rev?*%
%TF.SameCoordinates,Original*%
%TF.FileFunction,Soldermask,Top*%
%TF.FilePolarity,Negative*%
%FSLAX46Y46*%
G04 Gerber Fmt 4.6, Leading zero omitted, Abs format (unit mm)*
G04 Created by KiCad (PCBNEW 8.0.5) date 2025-07-10 15:46:46*
%MOMM*%
%LPD*%
G01*
G04 APERTURE LIST*
G04 Aperture macros list*
%AMRoundRect*
0 Rectangle with rounded corners*
0 $1 Rounding radius*
0 $2 $3 $4 $5 $6 $7 $8 $9 X,Y pos of 4 corners*
0 Add a 4 corners polygon primitive as box body*
4,1,4,$2,$3,$4,$5,$6,$7,$8,$9,$2,$3,0*
0 Add four circle primitives for the rounded corners*
1,1,$1+$1,$2,$3*
1,1,$1+$1,$4,$5*
1,1,$1+$1,$6,$7*
1,1,$1+$1,$8,$9*
0 Add four rect primitives between the rounded corners*
20,1,$1+$1,$2,$3,$4,$5,0*
20,1,$1+$1,$4,$5,$6,$7,0*
20,1,$1+$1,$6,$7,$8,$9,0*
20,1,$1+$1,$8,$9,$2,$3,0*%
%AMFreePoly0*
4,1,25,1.176913,0.169619,1.179619,0.166913,1.180000,0.165000,1.180000,0.125000,1.700000,0.125000,1.700000,-0.125000,1.180000,-0.125000,1.180000,-0.165000,1.179619,-0.166913,1.176913,-0.169619,1.175000,-0.170000,-1.175000,-0.170000,-1.176913,-0.169619,-1.179619,-0.166913,-1.180000,-0.165000,-1.180000,-0.125000,-1.700000,-0.125000,-1.700000,0.125000,-1.180000,0.125000,-1.180000,0.165000,
-1.179619,0.166913,-1.176913,0.169619,-1.175000,0.170000,1.175000,0.170000,1.176913,0.169619,1.176913,0.169619,$1*%
G04 Aperture macros list end*
%ADD10C,0.900000*%
%ADD11R,1.100000X1.300000*%
%ADD12O,1.100000X1.300000*%
%ADD13O,2.700000X1.500000*%
%ADD14RoundRect,0.250000X0.312500X1.075000X-0.312500X1.075000X-0.312500X-1.075000X0.312500X-1.075000X0*%
%ADD15RoundRect,0.135000X0.135000X0.185000X-0.135000X0.185000X-0.135000X-0.185000X0.135000X-0.185000X0*%
%ADD16RoundRect,0.150000X-0.512500X-0.150000X0.512500X-0.150000X0.512500X0.150000X-0.512500X0.150000X0*%
%ADD17RoundRect,0.135000X-0.185000X0.135000X-0.185000X-0.135000X0.185000X-0.135000X0.185000X0.135000X0*%
%ADD18RoundRect,0.140000X-0.140000X-0.170000X0.140000X-0.170000X0.140000X0.170000X-0.140000X0.170000X0*%
%ADD19RoundRect,0.050000X0.075000X-0.250000X0.075000X0.250000X-0.075000X0.250000X-0.075000X-0.250000X0*%
%ADD20RoundRect,0.050000X0.275000X0.100000X-0.275000X0.100000X-0.275000X-0.100000X0.275000X-0.100000X0*%
%ADD21RoundRect,0.050000X0.250000X0.075000X-0.250000X0.075000X-0.250000X-0.075000X0.250000X-0.075000X0*%
%ADD22R,3.400000X0.250000*%
%ADD23FreePoly0,180.000000*%
%ADD24RoundRect,0.050000X-0.075000X0.250000X-0.075000X-0.250000X0.075000X-0.250000X0.075000X0.250000X0*%
%ADD25RoundRect,0.050000X-0.275000X-0.100000X0.275000X-0.100000X0.275000X0.100000X-0.275000X0.100000X0*%
%ADD26RoundRect,0.050000X-0.250000X-0.075000X0.250000X-0.075000X0.250000X0.075000X-0.250000X0.075000X0*%
%ADD27R,1.400000X1.200000*%
%ADD28R,2.500000X1.900000*%
%ADD29RoundRect,0.150000X-0.587500X-0.150000X0.587500X-0.150000X0.587500X0.150000X-0.587500X0.150000X0*%
%ADD30RoundRect,0.140000X0.170000X-0.140000X0.170000X0.140000X-0.170000X0.140000X-0.170000X-0.140000X0*%
%ADD31RoundRect,0.100000X-0.637500X-0.100000X0.637500X-0.100000X0.637500X0.100000X-0.637500X0.100000X0*%
%ADD32RoundRect,0.150000X0.150000X-0.587500X0.150000X0.587500X-0.150000X0.587500X-0.150000X-0.587500X0*%
%ADD33RoundRect,0.200000X0.275000X-0.200000X0.275000X0.200000X-0.275000X0.200000X-0.275000X-0.200000X0*%
%ADD34RoundRect,0.200000X-0.200000X-0.275000X0.200000X-0.275000X0.200000X0.275000X-0.200000X0.275000X0*%
%ADD35RoundRect,0.140000X0.140000X0.170000X-0.140000X0.170000X-0.140000X-0.170000X0.140000X-0.170000X0*%
%ADD36RoundRect,0.200000X-0.275000X0.200000X-0.275000X-0.200000X0.275000X-0.200000X0.275000X0.200000X0*%
%ADD37C,4.000000*%
%ADD38C,1.800000*%
%ADD39RoundRect,0.250000X0.550000X-1.500000X0.550000X1.500000X-0.550000X1.500000X-0.550000X-1.500000X0*%
%ADD40R,2.600000X2.600000*%
%ADD41C,2.600000*%
%ADD42RoundRect,0.250000X-0.325000X-0.650000X0.325000X-0.650000X0.325000X0.650000X-0.325000X0.650000X0*%
%ADD43RoundRect,0.140000X-0.170000X0.140000X-0.170000X-0.140000X0.170000X-0.140000X0.170000X0.140000X0*%
%ADD44RoundRect,0.250000X-0.475000X0.250000X-0.475000X-0.250000X0.475000X-0.250000X0.475000X0.250000X0*%
%ADD45RoundRect,0.125000X-0.125000X-0.125000X0.125000X-0.125000X0.125000X0.125000X-0.125000X0.125000X0*%
%ADD46RoundRect,0.250000X-0.650000X0.325000X-0.650000X-0.325000X0.650000X-0.325000X0.650000X0.325000X0*%
%ADD47RoundRect,0.112500X0.112500X-0.187500X0.112500X0.187500X-0.112500X0.187500X-0.112500X-0.187500X0*%
%ADD48RoundRect,0.100000X0.100000X-0.225000X0.100000X0.225000X-0.100000X0.225000X-0.100000X-0.225000X0*%
%ADD49RoundRect,0.100000X-0.225000X-0.100000X0.225000X-0.100000X0.225000X0.100000X-0.225000X0.100000X0*%
%ADD50RoundRect,0.135000X-0.135000X-0.185000X0.135000X-0.185000X0.135000X0.185000X-0.135000X0.185000X0*%
%ADD51RoundRect,0.250000X-1.075000X0.312500X-1.075000X-0.312500X1.075000X-0.312500X1.075000X0.312500X0*%
%ADD52RoundRect,0.135000X0.185000X-0.135000X0.185000X0.135000X-0.185000X0.135000X-0.185000X-0.135000X0*%
%ADD53RoundRect,0.250000X-0.450000X0.262500X-0.450000X-0.262500X0.450000X-0.262500X0.450000X0.262500X0*%
%ADD54R,1.700000X1.700000*%
%ADD55O,1.700000X1.700000*%
%ADD56RoundRect,0.218750X0.256250X-0.218750X0.256250X0.218750X-0.256250X0.218750X-0.256250X-0.218750X0*%
%ADD57RoundRect,0.150000X0.587500X0.150000X-0.587500X0.150000X-0.587500X-0.150000X0.587500X-0.150000X0*%
%ADD58RoundRect,0.250000X0.475000X-0.250000X0.475000X0.250000X-0.475000X0.250000X-0.475000X-0.250000X0*%
%ADD59RoundRect,0.050000X0.150000X0.300000X-0.150000X0.300000X-0.150000X-0.300000X0.150000X-0.300000X0*%
%ADD60RoundRect,0.112500X-0.112500X0.187500X-0.112500X-0.187500X0.112500X-0.187500X0.112500X0.187500X0*%
%ADD61RoundRect,0.250000X0.325000X0.650000X-0.325000X0.650000X-0.325000X-0.650000X0.325000X-0.650000X0*%
%ADD62RoundRect,0.050000X-0.150000X-0.300000X0.150000X-0.300000X0.150000X0.300000X-0.150000X0.300000X0*%
%ADD63RoundRect,0.125000X-0.125000X0.125000X-0.125000X-0.125000X0.125000X-0.125000X0.125000X0.125000X0*%
%ADD64RoundRect,0.250000X0.250000X0.475000X-0.250000X0.475000X-0.250000X-0.475000X0.250000X-0.475000X0*%
%ADD65RoundRect,0.125000X0.125000X0.125000X-0.125000X0.125000X-0.125000X-0.125000X0.125000X-0.125000X0*%
%ADD66R,1.900000X2.500000*%
%ADD67C,1.600000*%
%ADD68R,2.000000X4.000000*%
%ADD69O,2.000000X3.300000*%
%ADD70O,3.500000X2.000000*%
%ADD71RoundRect,0.062500X0.062500X-0.187500X0.062500X0.187500X-0.062500X0.187500X-0.062500X-0.187500X0*%
%ADD72R,1.600000X0.900000*%
%ADD73RoundRect,0.100000X0.225000X0.100000X-0.225000X0.100000X-0.225000X-0.100000X0.225000X-0.100000X0*%
%ADD74RoundRect,0.225000X-0.250000X0.225000X-0.250000X-0.225000X0.250000X-0.225000X0.250000X0.225000X0*%
%ADD75R,1.250000X1.000000*%
%ADD76RoundRect,0.150000X0.512500X0.150000X-0.512500X0.150000X-0.512500X-0.150000X0.512500X-0.150000X0*%
%ADD77RoundRect,0.150000X-0.150000X0.587500X-0.150000X-0.587500X0.150000X-0.587500X0.150000X0.587500X0*%
G04 APERTURE END LIST*
D10*
%TO.C,U301*%
X123787500Y-103990000D03*
X123787500Y-127090000D03*
X163987500Y-103990000D03*
X163987500Y-127090000D03*
D11*
X131887500Y-126940000D03*
D12*
X133387500Y-126940000D03*
X134887500Y-126940000D03*
X136387500Y-126940000D03*
X137887500Y-126940000D03*
X139387500Y-126940000D03*
X140887500Y-126940000D03*
X142387500Y-126940000D03*
X143887500Y-126940000D03*
X145387500Y-126940000D03*
X146887500Y-126940000D03*
X148387500Y-126940000D03*
X149887500Y-126940000D03*
X151387500Y-126940000D03*
X152887500Y-126940000D03*
X154387500Y-126940000D03*
X155887500Y-126940000D03*
D13*
X126587500Y-125140000D03*
X161187500Y-125140000D03*
%TD*%
D14*
%TO.C,R116*%
X170220000Y-111310000D03*
X167295000Y-111310000D03*
%TD*%
D15*
%TO.C,R101*%
X143906250Y-83652500D03*
X142886250Y-83652500D03*
%TD*%
D16*
%TO.C,U102*%
X105700000Y-104077500D03*
X105700000Y-105027500D03*
X105700000Y-105977500D03*
X107975000Y-105977500D03*
X107975000Y-105027500D03*
X107975000Y-104077500D03*
%TD*%
D17*
%TO.C,R103*%
X149121250Y-84755000D03*
X149121250Y-85775000D03*
%TD*%
D18*
%TO.C,C203*%
X137220000Y-86250000D03*
X138180000Y-86250000D03*
%TD*%
D19*
%TO.C,U105*%
X187687500Y-100965000D03*
X187187500Y-100965000D03*
X186687500Y-100965000D03*
X186187500Y-100965000D03*
D20*
X185562500Y-101325000D03*
D21*
X185537500Y-101825000D03*
D22*
X186937500Y-102285000D03*
X186937500Y-102825000D03*
D23*
X186937500Y-103365000D03*
D22*
X186937500Y-103905000D03*
X186937500Y-104445000D03*
D21*
X185537500Y-104905000D03*
D20*
X185562500Y-105405000D03*
D24*
X186187500Y-105765000D03*
X186687500Y-105765000D03*
X187187500Y-105765000D03*
X187687500Y-105765000D03*
D25*
X188312500Y-105405000D03*
D26*
X188337500Y-104905000D03*
X188337500Y-101825000D03*
D25*
X188312500Y-101325000D03*
%TD*%
D27*
%TO.C,Y201*%
X135400000Y-89400000D03*
X137600000Y-89400000D03*
X137600000Y-87700000D03*
X135400000Y-87700000D03*
%TD*%
D28*
%TO.C,L102*%
X194287500Y-101315000D03*
X194287500Y-105415000D03*
%TD*%
D29*
%TO.C,Q106*%
X138512500Y-80240000D03*
X138512500Y-82140000D03*
X140387500Y-81190000D03*
%TD*%
D30*
%TO.C,C205*%
X135875000Y-97585000D03*
X135875000Y-96625000D03*
%TD*%
D31*
%TO.C,U201*%
X141725000Y-90725000D03*
X141725000Y-91375000D03*
X141725000Y-92025000D03*
X141725000Y-92675000D03*
X141725000Y-93325000D03*
X141725000Y-93975000D03*
X141725000Y-94625000D03*
X141725000Y-95275000D03*
X141725000Y-95925000D03*
X141725000Y-96575000D03*
X147450000Y-96575000D03*
X147450000Y-95925000D03*
X147450000Y-95275000D03*
X147450000Y-94625000D03*
X147450000Y-93975000D03*
X147450000Y-93325000D03*
X147450000Y-92675000D03*
X147450000Y-92025000D03*
X147450000Y-91375000D03*
X147450000Y-90725000D03*
%TD*%
D32*
%TO.C,U106*%
X117987500Y-123190000D03*
X119887500Y-123190000D03*
X118937500Y-121315000D03*
%TD*%
D33*
%TO.C,R117*%
X188687500Y-115290000D03*
X188687500Y-113640000D03*
%TD*%
D30*
%TO.C,C116*%
X189887500Y-102445000D03*
X189887500Y-101485000D03*
%TD*%
D15*
%TO.C,R110*%
X151443750Y-72615000D03*
X150423750Y-72615000D03*
%TD*%
D34*
%TO.C,R401*%
X115462500Y-105090000D03*
X117112500Y-105090000D03*
%TD*%
D35*
%TO.C,C402*%
X169312500Y-116940000D03*
X168352500Y-116940000D03*
%TD*%
D36*
%TO.C,R114*%
X186287500Y-109165000D03*
X186287500Y-110815000D03*
%TD*%
D37*
%TO.C,RV101*%
X187900000Y-124365000D03*
X179100000Y-124365000D03*
D38*
X181000000Y-117365000D03*
X183500000Y-117365000D03*
X186000000Y-117365000D03*
%TD*%
D34*
%TO.C,R402*%
X118662500Y-105090000D03*
X120312500Y-105090000D03*
%TD*%
D39*
%TO.C,C120*%
X178687500Y-111165000D03*
X178687500Y-105765000D03*
%TD*%
D40*
%TO.C,J102*%
X105142500Y-122215000D03*
D41*
X105142500Y-127215000D03*
%TD*%
D18*
%TO.C,C121*%
X186807500Y-112190000D03*
X187767500Y-112190000D03*
%TD*%
D29*
%TO.C,Q104*%
X116275000Y-81552500D03*
X116275000Y-83452500D03*
X118150000Y-82502500D03*
%TD*%
D30*
%TO.C,C303*%
X133397500Y-129770000D03*
X133397500Y-128810000D03*
%TD*%
D42*
%TO.C,C102*%
X105742500Y-116440000D03*
X108692500Y-116440000D03*
%TD*%
D30*
%TO.C,C118*%
X183687500Y-105145000D03*
X183687500Y-104185000D03*
%TD*%
D43*
%TO.C,C202*%
X139300000Y-92770000D03*
X139300000Y-93730000D03*
%TD*%
D44*
%TO.C,C113*%
X179887500Y-100515000D03*
X179887500Y-102415000D03*
%TD*%
D45*
%TO.C,D105*%
X148121250Y-79340000D03*
X150321250Y-79340000D03*
%TD*%
D46*
%TO.C,C111*%
X119487500Y-94465000D03*
X119487500Y-97415000D03*
%TD*%
D35*
%TO.C,C106*%
X108017500Y-107627500D03*
X107057500Y-107627500D03*
%TD*%
D47*
%TO.C,D202*%
X155087500Y-93950000D03*
X155087500Y-91850000D03*
%TD*%
D35*
%TO.C,C204*%
X137080000Y-90950000D03*
X136120000Y-90950000D03*
%TD*%
D48*
%TO.C,U402*%
X167782500Y-115690000D03*
X168432500Y-115690000D03*
X169082500Y-115690000D03*
X169082500Y-113790000D03*
X168432500Y-113790000D03*
X167782500Y-113790000D03*
%TD*%
D29*
%TO.C,Q105*%
X125012500Y-81640000D03*
X125012500Y-83540000D03*
X126887500Y-82590000D03*
%TD*%
D49*
%TO.C,U101*%
X145653750Y-82340000D03*
X145653750Y-82990000D03*
X145653750Y-83640000D03*
X147553750Y-83640000D03*
X147553750Y-82340000D03*
%TD*%
D18*
%TO.C,C103*%
X147541250Y-80940000D03*
X148501250Y-80940000D03*
%TD*%
%TO.C,C105*%
X106717500Y-114540000D03*
X107677500Y-114540000D03*
%TD*%
D50*
%TO.C,R104*%
X143053750Y-71982500D03*
X144073750Y-71982500D03*
%TD*%
D44*
%TO.C,C115*%
X190487500Y-108015000D03*
X190487500Y-109915000D03*
%TD*%
D35*
%TO.C,C301*%
X146610000Y-128765000D03*
X145650000Y-128765000D03*
%TD*%
D51*
%TO.C,R106*%
X115637500Y-108952500D03*
X115637500Y-111877500D03*
%TD*%
D40*
%TO.C,J103*%
X194292500Y-92090000D03*
D41*
X194292500Y-87090000D03*
%TD*%
D32*
%TO.C,Q101*%
X143151250Y-75545000D03*
X145051250Y-75545000D03*
X144101250Y-73670000D03*
%TD*%
D52*
%TO.C,R403*%
X186400000Y-92205000D03*
X186400000Y-91185000D03*
%TD*%
D50*
%TO.C,R115*%
X183977500Y-107365000D03*
X184997500Y-107365000D03*
%TD*%
D18*
%TO.C,C302*%
X130907500Y-129290000D03*
X131867500Y-129290000D03*
%TD*%
D53*
%TO.C,R112*%
X185387500Y-96552500D03*
X185387500Y-98377500D03*
%TD*%
D44*
%TO.C,C112*%
X182087500Y-100515000D03*
X182087500Y-102415000D03*
%TD*%
D18*
%TO.C,C307*%
X139622500Y-128790000D03*
X140582500Y-128790000D03*
%TD*%
D52*
%TO.C,R109*%
X124087500Y-93750000D03*
X124087500Y-92730000D03*
%TD*%
D54*
%TO.C,J201*%
X158187500Y-86770000D03*
D55*
X158187500Y-89310000D03*
X158187500Y-91850000D03*
X158187500Y-94390000D03*
X158187500Y-96930000D03*
%TD*%
D56*
%TO.C,D106*%
X167937500Y-96602500D03*
X167937500Y-95027500D03*
%TD*%
D18*
%TO.C,C308*%
X142682500Y-128790000D03*
X143642500Y-128790000D03*
%TD*%
D57*
%TO.C,Q107*%
X132625000Y-83550000D03*
X132625000Y-81650000D03*
X130750000Y-82600000D03*
%TD*%
D30*
%TO.C,C305*%
X136397500Y-129770000D03*
X136397500Y-128810000D03*
%TD*%
D35*
%TO.C,C107*%
X106180000Y-109900000D03*
X105220000Y-109900000D03*
%TD*%
D43*
%TO.C,C114*%
X183687500Y-100985000D03*
X183687500Y-101945000D03*
%TD*%
D58*
%TO.C,C110*%
X134887500Y-83550000D03*
X134887500Y-81650000D03*
%TD*%
D59*
%TO.C,D102*%
X107567500Y-118340000D03*
X106867500Y-118340000D03*
%TD*%
D60*
%TO.C,D203*%
X155050000Y-87225000D03*
X155050000Y-89325000D03*
%TD*%
D61*
%TO.C,C101*%
X108312500Y-100927500D03*
X105362500Y-100927500D03*
%TD*%
D17*
%TO.C,R108*%
X144153750Y-69635000D03*
X144153750Y-70655000D03*
%TD*%
D36*
%TO.C,R113*%
X167937500Y-98390000D03*
X167937500Y-100040000D03*
%TD*%
D17*
%TO.C,R105*%
X120600000Y-82030000D03*
X120600000Y-83050000D03*
%TD*%
D62*
%TO.C,D101*%
X106487500Y-99027500D03*
X107187500Y-99027500D03*
%TD*%
D35*
%TO.C,C123*%
X119392500Y-124852500D03*
X118432500Y-124852500D03*
%TD*%
D63*
%TO.C,D104*%
X152221250Y-79340000D03*
X152221250Y-81540000D03*
%TD*%
D44*
%TO.C,C108*%
X122375000Y-81640000D03*
X122375000Y-83540000D03*
%TD*%
D32*
%TO.C,Q110*%
X166987500Y-103890000D03*
X168887500Y-103890000D03*
X167937500Y-102015000D03*
%TD*%
D35*
%TO.C,C104*%
X107317500Y-102727500D03*
X106357500Y-102727500D03*
%TD*%
D43*
%TO.C,C401*%
X121837500Y-110260000D03*
X121837500Y-111220000D03*
%TD*%
D64*
%TO.C,C109*%
X122737500Y-99440000D03*
X120837500Y-99440000D03*
%TD*%
D65*
%TO.C,D103*%
X146921250Y-79340000D03*
X144721250Y-79340000D03*
%TD*%
D66*
%TO.C,L101*%
X122137500Y-90540000D03*
X118037500Y-90540000D03*
%TD*%
D30*
%TO.C,C304*%
X134897500Y-129770000D03*
X134897500Y-128810000D03*
%TD*%
D32*
%TO.C,Q103*%
X102047500Y-113115000D03*
X103947500Y-113115000D03*
X102997500Y-111240000D03*
%TD*%
D67*
%TO.C,J101*%
X100862500Y-92015000D03*
D68*
X109862500Y-92015000D03*
D69*
X103862500Y-92015000D03*
D70*
X102862500Y-87515000D03*
X102862500Y-96515000D03*
%TD*%
D30*
%TO.C,C306*%
X137897500Y-129770000D03*
X137897500Y-128810000D03*
%TD*%
D71*
%TO.C,U104*%
X121612500Y-97125000D03*
X122112500Y-97125000D03*
X122612500Y-97125000D03*
X123112500Y-97125000D03*
X123112500Y-95225000D03*
X122612500Y-95225000D03*
X122112500Y-95225000D03*
X121612500Y-95225000D03*
D72*
X122362500Y-96175000D03*
%TD*%
D32*
%TO.C,Q109*%
X149421250Y-76340000D03*
X151321250Y-76340000D03*
X150371250Y-74465000D03*
%TD*%
D57*
%TO.C,Q108*%
X147708750Y-71615000D03*
X147708750Y-69715000D03*
X145833750Y-70665000D03*
%TD*%
D73*
%TO.C,U401*%
X120387500Y-111390000D03*
X120387500Y-110740000D03*
X120387500Y-110090000D03*
X118487500Y-110090000D03*
X118487500Y-110740000D03*
X118487500Y-111390000D03*
%TD*%
D43*
%TO.C,C201*%
X138100000Y-92770000D03*
X138100000Y-93730000D03*
%TD*%
D74*
%TO.C,C119*%
X188087500Y-109215000D03*
X188087500Y-110765000D03*
%TD*%
D75*
%TO.C,SW201*%
X128000000Y-99225000D03*
X135750000Y-99225000D03*
%TD*%
D52*
%TO.C,R404*%
X186400000Y-89615000D03*
X186400000Y-88595000D03*
%TD*%
D47*
%TO.C,D201*%
X161500000Y-97950000D03*
X161500000Y-95850000D03*
%TD*%
D43*
%TO.C,C122*%
X116587500Y-121697500D03*
X116587500Y-122657500D03*
%TD*%
D76*
%TO.C,U103*%
X108317500Y-113140000D03*
X108317500Y-112190000D03*
X108317500Y-111240000D03*
X106042500Y-111240000D03*
X106042500Y-112190000D03*
X106042500Y-113140000D03*
%TD*%
D52*
%TO.C,R107*%
X136487500Y-83110000D03*
X136487500Y-82090000D03*
%TD*%
D15*
%TO.C,R102*%
X150131250Y-83715000D03*
X149111250Y-83715000D03*
%TD*%
D43*
%TO.C,C117*%
X189887500Y-104285000D03*
X189887500Y-105245000D03*
%TD*%
D33*
%TO.C,R111*%
X183487500Y-98190000D03*
X183487500Y-96540000D03*
%TD*%
D77*
%TO.C,Q102*%
X112287500Y-104190000D03*
X110387500Y-104190000D03*
X111337500Y-106065000D03*
%TD*%
D60*
%TO.C,D204*%
X161300000Y-84675000D03*
X161300000Y-86775000D03*
%TD*%
M02*
