%TF.GenerationSoftware,KiCad,Pcbnew,8.0.5*%
%TF.CreationDate,2025-07-08T19:03:54-04:00*%
%TF.ProjectId,Var_Volt_Conv,5661725f-566f-46c7-945f-436f6e762e6b,rev?*%
%TF.SameCoordinates,Original*%
%TF.FileFunction,Copper,L6,Bot*%
%TF.FilePolarity,Positive*%
%FSLAX46Y46*%
G04 Gerber Fmt 4.6, Leading zero omitted, Abs format (unit mm)*
G04 Created by KiCad (PCBNEW 8.0.5) date 2025-07-08 19:03:54*
%MOMM*%
%LPD*%
G01*
G04 APERTURE LIST*
%TA.AperFunction,EtchedComponent*%
%ADD10C,0.000000*%
%TD*%
%TA.AperFunction,ComponentPad*%
%ADD11R,1.100000X1.300000*%
%TD*%
%TA.AperFunction,ComponentPad*%
%ADD12O,1.100000X1.300000*%
%TD*%
%TA.AperFunction,ComponentPad*%
%ADD13O,2.700000X1.500000*%
%TD*%
%TA.AperFunction,WasherPad*%
%ADD14C,4.000000*%
%TD*%
%TA.AperFunction,ComponentPad*%
%ADD15C,1.800000*%
%TD*%
%TA.AperFunction,ComponentPad*%
%ADD16R,2.600000X2.600000*%
%TD*%
%TA.AperFunction,ComponentPad*%
%ADD17C,2.600000*%
%TD*%
%TA.AperFunction,ComponentPad*%
%ADD18R,1.700000X1.700000*%
%TD*%
%TA.AperFunction,ComponentPad*%
%ADD19O,1.700000X1.700000*%
%TD*%
%TA.AperFunction,ComponentPad*%
%ADD20R,2.000000X4.000000*%
%TD*%
%TA.AperFunction,ComponentPad*%
%ADD21O,2.000000X3.300000*%
%TD*%
%TA.AperFunction,ComponentPad*%
%ADD22O,3.500000X2.000000*%
%TD*%
%TA.AperFunction,ComponentPad*%
%ADD23C,0.600000*%
%TD*%
%TA.AperFunction,SMDPad,CuDef*%
%ADD24R,1.600000X0.900000*%
%TD*%
%TA.AperFunction,ComponentPad*%
%ADD25C,1.300000*%
%TD*%
%TA.AperFunction,ViaPad*%
%ADD26C,0.600000*%
%TD*%
%TA.AperFunction,ViaPad*%
%ADD27C,0.450000*%
%TD*%
%TA.AperFunction,ViaPad*%
%ADD28C,0.800000*%
%TD*%
%TA.AperFunction,ViaPad*%
%ADD29C,0.700000*%
%TD*%
%TA.AperFunction,Conductor*%
%ADD30C,0.200000*%
%TD*%
%TA.AperFunction,Conductor*%
%ADD31C,0.750000*%
%TD*%
G04 APERTURE END LIST*
D10*
%TA.AperFunction,EtchedComponent*%
%TO.C,NT101*%
G36*
X102337500Y-106790000D02*
G01*
X101037500Y-106790000D01*
X101037500Y-101590000D01*
X102337500Y-101590000D01*
X102337500Y-106790000D01*
G37*
%TD.AperFunction*%
%TD*%
D11*
%TO.P,U301,1,V0*%
%TO.N,/[3] Display/LV0*%
X131887500Y-126940000D03*
D12*
%TO.P,U301,2,V1*%
%TO.N,/[3] Display/LV1*%
X133387500Y-126940000D03*
%TO.P,U301,3,V2*%
%TO.N,/[3] Display/LV2*%
X134887500Y-126940000D03*
%TO.P,U301,4,V3*%
%TO.N,/[3] Display/LV3*%
X136387500Y-126940000D03*
%TO.P,U301,5,V4*%
%TO.N,/[3] Display/LV4*%
X137887500Y-126940000D03*
%TO.P,U301,6,C2-*%
%TO.N,/[3] Display/LC2-*%
X139387500Y-126940000D03*
%TO.P,U301,7,C2+*%
%TO.N,/[3] Display/LC2+*%
X140887500Y-126940000D03*
%TO.P,U301,8,C1+*%
%TO.N,/[3] Display/LC1+*%
X142387500Y-126940000D03*
%TO.P,U301,9,C1-*%
%TO.N,/[3] Display/LC1-*%
X143887500Y-126940000D03*
%TO.P,U301,10,VOUT*%
%TO.N,/[3] Display/LVOUT*%
X145387500Y-126940000D03*
%TO.P,U301,11,VSS*%
%TO.N,GNDD*%
X146887500Y-126940000D03*
%TO.P,U301,12,VDD*%
%TO.N,+3V0*%
X148387500Y-126940000D03*
%TO.P,U301,13,SI*%
%TO.N,SPI_MOSI*%
X149887500Y-126940000D03*
%TO.P,U301,14,SCL*%
%TO.N,SPI_CLK*%
X151387500Y-126940000D03*
%TO.P,U301,15,A0*%
%TO.N,REGISTER_SELECT*%
X152887500Y-126940000D03*
%TO.P,U301,16,/RST*%
%TO.N,{slash}RESET*%
X154387500Y-126940000D03*
%TO.P,U301,17,/CS1*%
%TO.N,{slash}CHIP_SELECT*%
X155887500Y-126940000D03*
D13*
%TO.P,U301,18,LED+*%
%TO.N,+3V0*%
X126587500Y-125140000D03*
%TO.P,U301,19,LED-*%
%TO.N,GNDD*%
X161187500Y-125140000D03*
%TD*%
D14*
%TO.P,RV101,*%
%TO.N,*%
X187900000Y-124365000D03*
X179100000Y-124365000D03*
D15*
%TO.P,RV101,1,1*%
%TO.N,unconnected-(RV101-Pad1)*%
X181000000Y-117365000D03*
%TO.P,RV101,2,2*%
%TO.N,/[1] Power/BB_FEEDBACK*%
X183500000Y-117365000D03*
%TO.P,RV101,3,3*%
%TO.N,/[1] Power/BB_POT_R*%
X186000000Y-117365000D03*
%TD*%
D16*
%TO.P,J102,1,Pin_1*%
%TO.N,/[1] Power/SCREW_TERMINAL_POWER*%
X105142500Y-122215000D03*
D17*
%TO.P,J102,2,Pin_2*%
%TO.N,GNDPWR*%
X105142500Y-127215000D03*
%TD*%
D16*
%TO.P,J103,1,Pin_1*%
%TO.N,VARIABLE_OUTPUT_VOLTAGE_B*%
X194292500Y-92090000D03*
D17*
%TO.P,J103,2,Pin_2*%
%TO.N,GNDPWR*%
X194292500Y-87090000D03*
%TD*%
D18*
%TO.P,J201,1,Pin_1*%
%TO.N,ST_3V3*%
X158187500Y-86770000D03*
D19*
%TO.P,J201,2,Pin_2*%
%TO.N,/[2] Microcontroller/SWCLK*%
X158187500Y-89310000D03*
%TO.P,J201,3,Pin_3*%
%TO.N,/[2] Microcontroller/SWDIO*%
X158187500Y-91850000D03*
%TO.P,J201,4,Pin_4*%
%TO.N,/[2] Microcontroller/NRST*%
X158187500Y-94390000D03*
%TO.P,J201,5,Pin_5*%
%TO.N,GNDD*%
X158187500Y-96930000D03*
%TD*%
D20*
%TO.P,J101,1*%
%TO.N,/[1] Power/JACK_POWER*%
X109862500Y-92015000D03*
D21*
%TO.P,J101,2*%
%TO.N,GNDPWR*%
X103862500Y-92015000D03*
D22*
%TO.P,J101,MP*%
%TO.N,N/C*%
X102862500Y-87515000D03*
X102862500Y-96515000D03*
%TD*%
D23*
%TO.P,U104,9,PAD*%
%TO.N,GNDPWR*%
X121862500Y-96175000D03*
D24*
X122362500Y-96175000D03*
D23*
X122862500Y-96175000D03*
%TD*%
D25*
%TO.P,NT101,1,1*%
%TO.N,GNDPWR*%
X101687500Y-106790000D03*
%TO.P,NT101,2,2*%
%TO.N,GNDA*%
X101687500Y-104190000D03*
%TO.P,NT101,3,3*%
%TO.N,GNDD*%
X101687500Y-101590000D03*
%TD*%
D26*
%TO.N,/[1] Power/JACK_POWER*%
X110387500Y-102115000D03*
X104237500Y-105990000D03*
%TO.N,/[1] Power/SCREW_TERMINAL_POWER*%
X103412500Y-115515000D03*
X109662500Y-111240000D03*
D27*
%TO.N,/[1] Power/BUCK_PPM_GATE*%
X123750000Y-81690000D03*
D28*
%TO.N,SYSTEM_POWER_B*%
X179000000Y-99000000D03*
X115000000Y-113200000D03*
D29*
X123800000Y-98800000D03*
D28*
X114000000Y-113200000D03*
X181000000Y-98000000D03*
X115000000Y-114100000D03*
D29*
X123800000Y-99600000D03*
D28*
X180000000Y-99000000D03*
D29*
X123800000Y-100400000D03*
D28*
X182000000Y-98000000D03*
X117000000Y-113200000D03*
X180000000Y-98000000D03*
X181000000Y-99000000D03*
X179000000Y-98000000D03*
X116000000Y-113200000D03*
X116000000Y-114100000D03*
X117000000Y-114100000D03*
X114000000Y-114100000D03*
X182000000Y-99000000D03*
D27*
%TO.N,/[1] Power/ST_PPM_GATE*%
X137050000Y-80290000D03*
X136450000Y-84190000D03*
D26*
X144153750Y-68700000D03*
D29*
%TO.N,/[1] Power/BUCK_VOS*%
X161400000Y-81700000D03*
D27*
X124087500Y-91840000D03*
X117512500Y-94465000D03*
D29*
X155300000Y-85200000D03*
D27*
%TO.N,+3V3*%
X169250000Y-117575000D03*
D29*
X127300000Y-81800000D03*
X129300000Y-83400000D03*
X130300000Y-83400000D03*
X128300000Y-83400000D03*
D27*
X120400000Y-109300000D03*
X169750000Y-118100000D03*
X136700000Y-92900000D03*
D29*
X167900000Y-93800000D03*
X128300000Y-82600000D03*
X129300000Y-82600000D03*
X115300000Y-121500000D03*
D27*
X121500000Y-109500000D03*
D29*
X116100000Y-120600000D03*
X116900000Y-120600000D03*
D27*
X122000000Y-109500000D03*
X121000000Y-109300000D03*
D29*
X115300000Y-120600000D03*
X127300000Y-83400000D03*
X128300000Y-81800000D03*
D27*
X136700000Y-92400000D03*
X137200000Y-92400000D03*
X169750000Y-117575000D03*
D29*
X129300000Y-81800000D03*
D27*
X169250000Y-118100000D03*
X119900000Y-109300000D03*
X137200000Y-92900000D03*
D29*
X166400000Y-98100000D03*
X130300000Y-81800000D03*
%TO.N,+3V0*%
X120300000Y-124850000D03*
X121200000Y-124850000D03*
D26*
%TO.N,/[2] Microcontroller/NRST*%
X163800000Y-95900000D03*
X143300000Y-93975000D03*
X135837500Y-100625000D03*
X137300000Y-96600000D03*
D28*
%TO.N,ST_3V3*%
X150500000Y-82200000D03*
X142400000Y-82100000D03*
%TO.N,VARIABLE_OUTPUT_VOLTAGE_B*%
X166000000Y-111000000D03*
X165000000Y-113000000D03*
X166000000Y-112000000D03*
X165000000Y-112000000D03*
D27*
X186400000Y-92900000D03*
D28*
X166000000Y-113000000D03*
D26*
%TO.N,/[1] Power/COMP_OUT*%
X145651250Y-80750000D03*
D27*
X145571250Y-77890000D03*
D26*
%TO.N,/[1] Power/GATE_J*%
X109137500Y-105015000D03*
X112287500Y-102690000D03*
%TO.N,/[1] Power/GATE_T*%
X104887500Y-112215000D03*
X102037500Y-114990000D03*
D27*
%TO.N,/[1] Power/PG*%
X124087500Y-94990000D03*
X120862500Y-95215000D03*
%TO.N,S-INPUT_VOLTAGE*%
X132900000Y-90900000D03*
X140100000Y-88500000D03*
%TO.N,S-OUTPUT_VOLTAGE*%
X153200000Y-93100000D03*
X167300000Y-91800000D03*
%TO.N,SPI_MOSI*%
X148900000Y-109900000D03*
X148900000Y-119400000D03*
D26*
%TO.N,{slash}CHIP_SELECT*%
X150100000Y-89400000D03*
D27*
X153000000Y-98500000D03*
%TO.N,S-INPUT_CURRENT*%
X150300000Y-98400000D03*
X137800000Y-98400000D03*
%TO.N,{slash}RESET*%
X150300000Y-102700000D03*
X148100000Y-100500000D03*
%TO.N,GNDPWR*%
X186400000Y-87600000D03*
D29*
X119500000Y-98900000D03*
D28*
X109400000Y-118200000D03*
D29*
X116600000Y-123550000D03*
D27*
X191500000Y-111500000D03*
X191500000Y-111000000D03*
X191000000Y-111000000D03*
D29*
X151300000Y-77800000D03*
D28*
X180500000Y-104000000D03*
D27*
X191000000Y-111500000D03*
D28*
X182500000Y-104000000D03*
X109800000Y-112200000D03*
X183500000Y-103000000D03*
D29*
X145000000Y-77000000D03*
D28*
X103500000Y-100000000D03*
X106100000Y-108500000D03*
X104200000Y-104600000D03*
D29*
X117400000Y-124800000D03*
X118700000Y-99700000D03*
X169100000Y-105700000D03*
X118700000Y-98900000D03*
D27*
X191500000Y-109500000D03*
D29*
X118700000Y-100500000D03*
X116550000Y-124800000D03*
D28*
X103500000Y-101000000D03*
D27*
X121300000Y-105100000D03*
X149100000Y-86600000D03*
D29*
X149300000Y-69700000D03*
D28*
X181500000Y-104000000D03*
X108500000Y-118200000D03*
X178000000Y-102500000D03*
D27*
X191500000Y-110500000D03*
D28*
X103500000Y-99000000D03*
X105100000Y-107600000D03*
D29*
X119500000Y-100500000D03*
D28*
X106100000Y-107600000D03*
D27*
X144700000Y-83000000D03*
D28*
X105100000Y-108500000D03*
D29*
X149400000Y-81000000D03*
D28*
X104500000Y-99000000D03*
D29*
X119500000Y-99700000D03*
D28*
X105500000Y-99000000D03*
D27*
%TO.N,GNDA*%
X167550000Y-116850000D03*
X185000000Y-99500000D03*
X189000000Y-112000000D03*
X188500000Y-108000000D03*
X188500000Y-112000000D03*
X189500000Y-112000000D03*
X120900000Y-112000000D03*
X121400000Y-112000000D03*
X185500000Y-99500000D03*
X189500000Y-112500000D03*
X189000000Y-112500000D03*
X167550000Y-117350000D03*
X188500000Y-112500000D03*
D29*
X124100000Y-97200000D03*
D27*
X167550000Y-116350000D03*
X121900000Y-112000000D03*
X188000000Y-107000000D03*
X122400000Y-112000000D03*
%TO.N,GNDD*%
X135500000Y-86100000D03*
D29*
X134900000Y-130700000D03*
X136400000Y-130700000D03*
D27*
X155021232Y-86221232D03*
X139300000Y-94500000D03*
X126600000Y-99200000D03*
X134100000Y-86100000D03*
X136200000Y-86100000D03*
D29*
X133400000Y-130700000D03*
D27*
X138000000Y-90500000D03*
D29*
X137900000Y-130700000D03*
D27*
X161300000Y-83700000D03*
X135900000Y-95800000D03*
D29*
X129800000Y-129300000D03*
D27*
X138300000Y-94500000D03*
D29*
X147500000Y-128750000D03*
D27*
X134800000Y-86100000D03*
X138000000Y-91100000D03*
X138800000Y-94500000D03*
X137800000Y-94500000D03*
%TD*%
D30*
%TO.N,/[1] Power/JACK_POWER*%
X110387500Y-102115000D02*
X106512500Y-105990000D01*
X106512500Y-105990000D02*
X104237500Y-105990000D01*
%TO.N,/[1] Power/SCREW_TERMINAL_POWER*%
X105537500Y-115365000D02*
X109662500Y-111240000D01*
X103412500Y-115515000D02*
X103562500Y-115365000D01*
X103562500Y-115365000D02*
X105537500Y-115365000D01*
%TO.N,/[1] Power/BUCK_PPM_GATE*%
X123760000Y-81700000D02*
X123750000Y-81690000D01*
%TO.N,/[1] Power/ST_PPM_GATE*%
X136650000Y-80690000D02*
X137050000Y-80290000D01*
X143477500Y-68700000D02*
X137050000Y-75127500D01*
X137050000Y-75127500D02*
X137050000Y-80290000D01*
X136450000Y-84190000D02*
X136450000Y-80890000D01*
X144153750Y-68700000D02*
X143477500Y-68700000D01*
X136450000Y-80890000D02*
X136650000Y-80690000D01*
%TO.N,/[1] Power/BUCK_VOS*%
X124087500Y-91840000D02*
X121462500Y-94465000D01*
X155400000Y-85100000D02*
X155300000Y-85200000D01*
X121462500Y-94465000D02*
X117512500Y-94465000D01*
X157600000Y-85100000D02*
X155400000Y-85100000D01*
X161400000Y-81700000D02*
X161000000Y-81700000D01*
X161000000Y-81700000D02*
X157600000Y-85100000D01*
%TO.N,/[2] Microcontroller/NRST*%
X163800000Y-96725000D02*
X160875000Y-99650000D01*
X160875000Y-99650000D02*
X137450000Y-99650000D01*
X137300000Y-96600000D02*
X140675000Y-96600000D01*
X140675000Y-96600000D02*
X143300000Y-93975000D01*
X136475000Y-100625000D02*
X135837500Y-100625000D01*
X137450000Y-99650000D02*
X136475000Y-100625000D01*
X163800000Y-95900000D02*
X163800000Y-96725000D01*
D31*
%TO.N,ST_3V3*%
X142400000Y-82100000D02*
X142500000Y-82200000D01*
X142500000Y-82200000D02*
X150500000Y-82200000D01*
D30*
%TO.N,/[1] Power/COMP_OUT*%
X145571250Y-77890000D02*
X145651250Y-77970000D01*
X145651250Y-77970000D02*
X145651250Y-80750000D01*
%TO.N,/[1] Power/GATE_J*%
X111462500Y-102690000D02*
X109137500Y-105015000D01*
X112287500Y-102690000D02*
X111462500Y-102690000D01*
%TO.N,/[1] Power/GATE_T*%
X104812500Y-112215000D02*
X104887500Y-112215000D01*
X102037500Y-114990000D02*
X104812500Y-112215000D01*
%TO.N,/[1] Power/PG*%
X124087500Y-94990000D02*
X123862500Y-95215000D01*
X123862500Y-95215000D02*
X120862500Y-95215000D01*
%TO.N,S-INPUT_VOLTAGE*%
X133400000Y-90900000D02*
X135800000Y-88500000D01*
X135800000Y-88500000D02*
X140100000Y-88500000D01*
X132900000Y-90900000D02*
X133400000Y-90900000D01*
%TO.N,S-OUTPUT_VOLTAGE*%
X166000000Y-93100000D02*
X153200000Y-93100000D01*
X167300000Y-91800000D02*
X166000000Y-93100000D01*
%TO.N,SPI_MOSI*%
X148900000Y-109900000D02*
X148900000Y-119400000D01*
%TO.N,{slash}CHIP_SELECT*%
X152000000Y-97500000D02*
X153000000Y-98500000D01*
X150100000Y-89400000D02*
X150400000Y-89400000D01*
X152000000Y-91000000D02*
X152000000Y-97500000D01*
X150400000Y-89400000D02*
X152000000Y-91000000D01*
%TO.N,S-INPUT_CURRENT*%
X137800000Y-98400000D02*
X150300000Y-98400000D01*
%TO.N,{slash}RESET*%
X148100000Y-100500000D02*
X150300000Y-102700000D01*
%TD*%
M02*
