%TF.GenerationSoftware,KiCad,Pcbnew,8.0.5*%
%TF.CreationDate,2025-07-15T19:51:41-04:00*%
%TF.ProjectId,Var_Volt_Conv,5661725f-566f-46c7-945f-436f6e762e6b,rev?*%
%TF.SameCoordinates,Original*%
%TF.FileFunction,Soldermask,Bot*%
%TF.FilePolarity,Negative*%
%FSLAX46Y46*%
G04 Gerber Fmt 4.6, Leading zero omitted, Abs format (unit mm)*
G04 Created by KiCad (PCBNEW 8.0.5) date 2025-07-15 19:51:41*
%MOMM*%
%LPD*%
G01*
G04 APERTURE LIST*
%ADD10C,0.900000*%
%ADD11R,1.100000X1.300000*%
%ADD12O,1.100000X1.300000*%
%ADD13O,2.700000X1.500000*%
%ADD14C,4.000000*%
%ADD15C,1.800000*%
%ADD16R,2.600000X2.600000*%
%ADD17C,2.600000*%
%ADD18R,1.700000X1.700000*%
%ADD19O,1.700000X1.700000*%
%ADD20C,1.600000*%
%ADD21R,2.000000X4.000000*%
%ADD22O,2.000000X3.300000*%
%ADD23O,3.500000X2.000000*%
G04 APERTURE END LIST*
D10*
%TO.C,U301*%
X123787500Y-103990000D03*
X123787500Y-127090000D03*
X163987500Y-103990000D03*
X163987500Y-127090000D03*
D11*
X131887500Y-126940000D03*
D12*
X133387500Y-126940000D03*
X134887500Y-126940000D03*
X136387500Y-126940000D03*
X137887500Y-126940000D03*
X139387500Y-126940000D03*
X140887500Y-126940000D03*
X142387500Y-126940000D03*
X143887500Y-126940000D03*
X145387500Y-126940000D03*
X146887500Y-126940000D03*
X148387500Y-126940000D03*
X149887500Y-126940000D03*
X151387500Y-126940000D03*
X152887500Y-126940000D03*
X154387500Y-126940000D03*
X155887500Y-126940000D03*
D13*
X126587500Y-125140000D03*
X161187500Y-125140000D03*
%TD*%
D14*
%TO.C,RV101*%
X187900000Y-124365000D03*
X179100000Y-124365000D03*
D15*
X181000000Y-117365000D03*
X183500000Y-117365000D03*
X186000000Y-117365000D03*
%TD*%
D16*
%TO.C,J102*%
X105142500Y-122215000D03*
D17*
X105142500Y-127215000D03*
%TD*%
D16*
%TO.C,J103*%
X194292500Y-92090000D03*
D17*
X194292500Y-87090000D03*
%TD*%
D18*
%TO.C,J201*%
X158187500Y-86770000D03*
D19*
X158187500Y-89310000D03*
X158187500Y-91850000D03*
X158187500Y-94390000D03*
X158187500Y-96930000D03*
%TD*%
D20*
%TO.C,J101*%
X100862500Y-92015000D03*
D21*
X109862500Y-92015000D03*
D22*
X103862500Y-92015000D03*
D23*
X102862500Y-87515000D03*
X102862500Y-96515000D03*
%TD*%
M02*
