M48
; DRILL file {KiCad 8.0.5} date 2025-07-08T19:03:54-0400
; FORMAT={-:-/ absolute / inch / decimal}
; #@! TF.CreationDate,2025-07-08T19:03:54-04:00
; #@! TF.GenerationSoftware,Kicad,Pcbnew,8.0.5
; #@! TF.FileFunction,Plated,1,6,PTH
FMAT,2
INCH
; #@! TA.AperFunction,Plated,PTH,ViaDrill
T1C0.0098
; #@! TA.AperFunction,Plated,PTH,ComponentDrill
T2C0.0098
; #@! TA.AperFunction,Plated,PTH,ViaDrill
T3C0.0118
; #@! TA.AperFunction,Plated,PTH,ViaDrill
T4C0.0157
; #@! TA.AperFunction,Plated,PTH,ComponentDrill
T5C0.0276
; #@! TA.AperFunction,Plated,PTH,ComponentDrill
T6C0.0315
; #@! TA.AperFunction,Plated,PTH,ComponentDrill
T7C0.0394
; #@! TA.AperFunction,Plated,PTH,ComponentDrill
T8C0.0512
%
G90
G05
T1
X4.6265Y-3.7191
X4.7205Y-4.3031
X4.7402Y-4.3031
X4.7584Y-3.7486
X4.7598Y-4.4094
X4.7638Y-4.3031
X4.7756Y-4.1378
X4.7795Y-4.4094
X4.7835Y-4.311
X4.7992Y-4.4094
X4.8031Y-4.311
X4.8189Y-4.4094
X4.872Y-3.2161
X4.8853Y-3.6157
X4.8853Y-3.7398
X4.9843Y-3.9055
X5.2323Y-3.5787
X5.2795Y-3.3898
X5.3071Y-3.3898
X5.3346Y-3.3898
X5.3504Y-3.7717
X5.3622Y-3.3898
X5.372Y-3.3146
X5.3819Y-3.6378
X5.3819Y-3.6575
X5.3957Y-3.161
X5.4016Y-3.6378
X5.4016Y-3.6575
X5.4252Y-3.7205
X5.4252Y-3.874
X5.4331Y-3.563
X5.4331Y-3.5866
X5.4449Y-3.7205
X5.4646Y-3.7205
X5.4843Y-3.7205
X5.5157Y-3.4843
X5.6969Y-3.2677
X5.7312Y-3.0665
X5.8307Y-3.9567
X5.8622Y-4.3268
X5.8622Y-4.7008
X5.8701Y-3.4094
X5.9173Y-3.874
X5.9173Y-4.0433
X6.0236Y-3.878
X6.0315Y-3.6654
X6.1032Y-3.3945
X6.3504Y-3.2953
X6.5866Y-3.6142
X6.5965Y-4.5807
X6.5965Y-4.6004
X6.5965Y-4.6201
X6.6634Y-4.6289
X6.6634Y-4.6496
X6.6831Y-4.6289
X6.6831Y-4.6496
X7.2835Y-3.9173
X7.3031Y-3.9173
X7.3386Y-3.4488
X7.3386Y-3.6575
X7.4016Y-4.2126
X7.4213Y-4.252
X7.4213Y-4.4094
X7.4213Y-4.4291
X7.4409Y-4.4094
X7.4409Y-4.4291
X7.4606Y-4.4094
X7.4606Y-4.4291
X7.5197Y-4.3701
X7.5197Y-4.3898
X7.5394Y-4.311
X7.5394Y-4.3504
X7.5394Y-4.3701
X7.5394Y-4.3898
T2
X4.7977Y-3.7864
X4.8371Y-3.7864
T3
X4.0172Y-4.5272
X4.0714Y-4.5478
X4.1038Y-4.1728
X4.1294Y-4.4179
X4.2968Y-4.1344
X4.3174Y-4.3795
X4.346Y-4.0203
X4.4208Y-4.0429
X4.5394Y-4.748
X4.5394Y-4.7835
X4.5709Y-4.748
X4.5886Y-4.9134
X4.5906Y-4.8642
X4.6024Y-4.748
X4.622Y-4.9134
X4.6732Y-3.8937
X4.6732Y-3.9252
X4.6732Y-3.9567
X4.7047Y-3.8937
X4.7047Y-3.9252
X4.7047Y-3.9567
X4.7362Y-4.9154
X4.7717Y-4.9154
X4.874Y-3.8898
X4.874Y-3.9213
X4.874Y-3.9528
X4.8858Y-3.8268
X5.0118Y-3.2205
X5.0118Y-3.2835
X5.0512Y-3.2205
X5.0512Y-3.252
X5.0512Y-3.2835
X5.0906Y-3.2205
X5.0906Y-3.252
X5.0906Y-3.2835
X5.1102Y-5.0906
X5.1299Y-3.2205
X5.1299Y-3.2835
X5.252Y-5.1457
X5.311Y-5.1457
X5.3479Y-3.9616
X5.3701Y-5.1457
X5.4055Y-3.8031
X5.4291Y-5.1457
X5.6417Y-3.6998
X5.6753Y-2.7047
X5.7087Y-3.0315
X5.7343Y-3.1791
X5.8071Y-5.0689
X5.878Y-2.7441
X5.8819Y-3.189
X5.9094Y-3.5197
X5.9567Y-3.063
X6.1142Y-3.3543
X6.3543Y-3.2165
X6.4488Y-3.7756
X6.5512Y-3.8622
X6.6102Y-3.6929
X6.6575Y-4.1614
T4
X4.0748Y-3.8976
X4.0748Y-3.937
X4.0748Y-3.9764
X4.1024Y-4.1181
X4.1142Y-3.8976
X4.1378Y-4.2362
X4.1378Y-4.2717
X4.1535Y-3.8976
X4.1772Y-4.2362
X4.1772Y-4.2717
X4.2717Y-4.6535
X4.3071Y-4.6535
X4.3228Y-4.4173
X4.4882Y-4.4567
X4.4882Y-4.4921
X4.5276Y-4.4567
X4.5276Y-4.4921
X4.5669Y-4.4567
X4.5669Y-4.4921
X4.6063Y-4.4567
X4.6063Y-4.4921
X5.6063Y-3.2323
X5.9252Y-3.2362
X6.4961Y-4.4094
X6.4961Y-4.4488
X6.5354Y-4.3701
X6.5354Y-4.4094
X6.5354Y-4.4488
X7.0079Y-4.0354
X7.0472Y-3.8583
X7.0472Y-3.8976
X7.0866Y-3.8583
X7.0866Y-3.8976
X7.1063Y-4.0945
X7.126Y-3.8583
X7.126Y-3.8976
X7.1457Y-4.0945
X7.1654Y-3.8583
X7.1654Y-3.8976
X7.185Y-4.0945
X7.2244Y-4.0551
T5
X5.1924Y-4.9976
X5.2515Y-4.9976
X5.3105Y-4.9976
X5.3696Y-4.9976
X5.4286Y-4.9976
X5.4877Y-4.9976
X5.5468Y-4.9976
X5.6058Y-4.9976
X5.6649Y-4.9976
X5.7239Y-4.9976
X5.783Y-4.9976
X5.842Y-4.9976
X5.9011Y-4.9976
X5.9601Y-4.9976
X6.0192Y-4.9976
X6.0782Y-4.9976
X6.1373Y-4.9976
T7
X4.0034Y-3.9996
X4.0034Y-4.102
X4.0034Y-4.2043
X6.2279Y-3.4161
X6.2279Y-3.5161
X6.2279Y-3.6161
X6.2279Y-3.7161
X6.2279Y-3.8161
X7.126Y-4.6207
X7.2244Y-4.6207
X7.3228Y-4.6207
T8
X4.1395Y-4.8116
X4.1395Y-5.0085
X7.6493Y-3.4287
X7.6493Y-3.6256
T6
G00X4.9601Y-4.9268
M15
G01X5.0074Y-4.9268
M16
G05
G00X6.3223Y-4.9268
M15
G01X6.3696Y-4.9268
M16
G05
T7
G00X4.0792Y-3.4455
M15
G01X4.0202Y-3.4455
M16
G05
G00X4.0792Y-3.7998
M15
G01X4.0202Y-3.7998
M16
G05
G00X4.0891Y-3.597
M15
G01X4.0891Y-3.6482
M16
G05
G00X4.3253Y-3.5833
M15
G01X4.3253Y-3.662
M16
G05
M30
