%TF.GenerationSoftware,KiCad,Pcbnew,8.0.5*%
%TF.CreationDate,2025-07-15T19:51:41-04:00*%
%TF.ProjectId,Var_Volt_Conv,5661725f-566f-46c7-945f-436f6e762e6b,rev?*%
%TF.SameCoordinates,Original*%
%TF.FileFunction,Copper,L3,Inr*%
%TF.FilePolarity,Positive*%
%FSLAX46Y46*%
G04 Gerber Fmt 4.6, Leading zero omitted, Abs format (unit mm)*
G04 Created by KiCad (PCBNEW 8.0.5) date 2025-07-15 19:51:41*
%MOMM*%
%LPD*%
G01*
G04 APERTURE LIST*
%TA.AperFunction,ComponentPad*%
%ADD10R,1.100000X1.300000*%
%TD*%
%TA.AperFunction,ComponentPad*%
%ADD11O,1.100000X1.300000*%
%TD*%
%TA.AperFunction,ComponentPad*%
%ADD12O,2.700000X1.500000*%
%TD*%
%TA.AperFunction,WasherPad*%
%ADD13C,4.000000*%
%TD*%
%TA.AperFunction,ComponentPad*%
%ADD14C,1.800000*%
%TD*%
%TA.AperFunction,ComponentPad*%
%ADD15R,2.600000X2.600000*%
%TD*%
%TA.AperFunction,ComponentPad*%
%ADD16C,2.600000*%
%TD*%
%TA.AperFunction,ComponentPad*%
%ADD17R,1.700000X1.700000*%
%TD*%
%TA.AperFunction,ComponentPad*%
%ADD18O,1.700000X1.700000*%
%TD*%
%TA.AperFunction,ComponentPad*%
%ADD19R,2.000000X4.000000*%
%TD*%
%TA.AperFunction,ComponentPad*%
%ADD20O,2.000000X3.300000*%
%TD*%
%TA.AperFunction,ComponentPad*%
%ADD21O,3.500000X2.000000*%
%TD*%
%TA.AperFunction,ComponentPad*%
%ADD22C,0.600000*%
%TD*%
%TA.AperFunction,ComponentPad*%
%ADD23C,1.300000*%
%TD*%
%TA.AperFunction,ViaPad*%
%ADD24C,0.600000*%
%TD*%
%TA.AperFunction,ViaPad*%
%ADD25C,0.450000*%
%TD*%
%TA.AperFunction,ViaPad*%
%ADD26C,0.800000*%
%TD*%
%TA.AperFunction,ViaPad*%
%ADD27C,0.700000*%
%TD*%
G04 APERTURE END LIST*
D10*
%TO.N,/[3] Display/LV0*%
%TO.C,U301*%
X131887500Y-126940000D03*
D11*
%TO.N,/[3] Display/LV1*%
X133387500Y-126940000D03*
%TO.N,/[3] Display/LV2*%
X134887500Y-126940000D03*
%TO.N,/[3] Display/LV3*%
X136387500Y-126940000D03*
%TO.N,/[3] Display/LV4*%
X137887500Y-126940000D03*
%TO.N,/[3] Display/LC2-*%
X139387500Y-126940000D03*
%TO.N,/[3] Display/LC2+*%
X140887500Y-126940000D03*
%TO.N,/[3] Display/LC1+*%
X142387500Y-126940000D03*
%TO.N,/[3] Display/LC1-*%
X143887500Y-126940000D03*
%TO.N,/[3] Display/LVOUT*%
X145387500Y-126940000D03*
%TO.N,GNDD*%
X146887500Y-126940000D03*
%TO.N,+3V0*%
X148387500Y-126940000D03*
%TO.N,SPI_MOSI*%
X149887500Y-126940000D03*
%TO.N,SPI_CLK*%
X151387500Y-126940000D03*
%TO.N,REGISTER_SELECT*%
X152887500Y-126940000D03*
%TO.N,{slash}RESET*%
X154387500Y-126940000D03*
%TO.N,{slash}CHIP_SELECT*%
X155887500Y-126940000D03*
D12*
%TO.N,+3V0*%
X126587500Y-125140000D03*
%TO.N,GNDD*%
X161187500Y-125140000D03*
%TD*%
D13*
%TO.N,*%
%TO.C,RV101*%
X187900000Y-124365000D03*
X179100000Y-124365000D03*
D14*
%TO.N,unconnected-(RV101-Pad1)*%
X181000000Y-117365000D03*
%TO.N,/[1] Power/BB_FEEDBACK*%
X183500000Y-117365000D03*
%TO.N,/[1] Power/BB_POT_R*%
X186000000Y-117365000D03*
%TD*%
D15*
%TO.N,/[1] Power/SCREW_TERMINAL_POWER*%
%TO.C,J102*%
X105142500Y-122215000D03*
D16*
%TO.N,GNDPWR*%
X105142500Y-127215000D03*
%TD*%
D15*
%TO.N,VARIABLE_OUTPUT_VOLTAGE_B*%
%TO.C,J103*%
X194292500Y-92090000D03*
D16*
%TO.N,GNDPWR*%
X194292500Y-87090000D03*
%TD*%
D17*
%TO.N,ST_3V3*%
%TO.C,J201*%
X158187500Y-86770000D03*
D18*
%TO.N,/[2] Microcontroller/SWCLK*%
X158187500Y-89310000D03*
%TO.N,/[2] Microcontroller/SWDIO*%
X158187500Y-91850000D03*
%TO.N,/[2] Microcontroller/NRST*%
X158187500Y-94390000D03*
%TO.N,GNDD*%
X158187500Y-96930000D03*
%TD*%
D19*
%TO.N,/[1] Power/JACK_POWER*%
%TO.C,J101*%
X109862500Y-92015000D03*
D20*
%TO.N,GNDPWR*%
X103862500Y-92015000D03*
D21*
%TO.N,N/C*%
X102862500Y-87515000D03*
X102862500Y-96515000D03*
%TD*%
D22*
%TO.N,GNDPWR*%
%TO.C,U104*%
X121862500Y-96175000D03*
X122862500Y-96175000D03*
%TD*%
D23*
%TO.N,GNDPWR*%
%TO.C,NT101*%
X101687500Y-106790000D03*
%TO.N,GNDA*%
X101687500Y-104190000D03*
%TO.N,GNDD*%
X101687500Y-101590000D03*
%TD*%
D24*
%TO.N,S-OUTPUT_VOLTAGE*%
X184800000Y-91180000D03*
D25*
%TO.N,S-INPUT_CURRENT*%
X118490000Y-113140000D03*
D24*
%TO.N,/[1] Power/JACK_POWER*%
X110387500Y-102115000D03*
X104237500Y-105990000D03*
%TO.N,/[1] Power/SCREW_TERMINAL_POWER*%
X103412500Y-115515000D03*
X109662500Y-111240000D03*
D25*
%TO.N,/[1] Power/BUCK_PPM_GATE*%
X123750000Y-81690000D03*
D26*
%TO.N,SYSTEM_POWER_B*%
X179000000Y-99000000D03*
X115000000Y-113200000D03*
D27*
X123800000Y-98800000D03*
D26*
X114000000Y-113200000D03*
X181000000Y-98000000D03*
X115000000Y-114100000D03*
D27*
X123800000Y-99600000D03*
D26*
X180000000Y-99000000D03*
D27*
X123800000Y-100400000D03*
D26*
X182000000Y-98000000D03*
X117000000Y-113200000D03*
X180000000Y-98000000D03*
X181000000Y-99000000D03*
X179000000Y-98000000D03*
X116000000Y-113200000D03*
X116000000Y-114100000D03*
X117000000Y-114100000D03*
X114000000Y-114100000D03*
X182000000Y-99000000D03*
D25*
%TO.N,/[1] Power/ST_PPM_GATE*%
X137050000Y-80290000D03*
X136450000Y-84190000D03*
D24*
X144153750Y-68700000D03*
D27*
%TO.N,/[1] Power/BUCK_VOS*%
X161400000Y-81700000D03*
D25*
X124087500Y-91840000D03*
X117512500Y-94465000D03*
D27*
X155300000Y-85200000D03*
D25*
%TO.N,+3V3*%
X169250000Y-117575000D03*
D27*
X127300000Y-81800000D03*
X129300000Y-83400000D03*
X130300000Y-83400000D03*
X128300000Y-83400000D03*
D25*
X120400000Y-109300000D03*
X169750000Y-118100000D03*
X136700000Y-92900000D03*
D27*
X167900000Y-93800000D03*
X128300000Y-82600000D03*
X129300000Y-82600000D03*
X115300000Y-121500000D03*
D25*
X121500000Y-109500000D03*
D27*
X116100000Y-120600000D03*
X116900000Y-120600000D03*
D25*
X122000000Y-109500000D03*
X121000000Y-109300000D03*
D27*
X115300000Y-120600000D03*
X127300000Y-83400000D03*
X128300000Y-81800000D03*
D25*
X136700000Y-92400000D03*
X137200000Y-92400000D03*
X169750000Y-117575000D03*
D27*
X129300000Y-81800000D03*
D25*
X169250000Y-118100000D03*
X119900000Y-109300000D03*
X137200000Y-92900000D03*
D27*
X130300000Y-81800000D03*
%TO.N,+3V0*%
X120300000Y-124850000D03*
X121200000Y-124850000D03*
D24*
%TO.N,/[2] Microcontroller/NRST*%
X163800000Y-95900000D03*
X143300000Y-93975000D03*
X135837500Y-100625000D03*
X137300000Y-96600000D03*
D26*
%TO.N,ST_3V3*%
X150500000Y-82200000D03*
X142400000Y-82100000D03*
%TO.N,VARIABLE_OUTPUT_VOLTAGE_B*%
X166000000Y-111000000D03*
X165000000Y-113000000D03*
X166000000Y-112000000D03*
X165000000Y-112000000D03*
D25*
X186400000Y-92900000D03*
D26*
X166000000Y-113000000D03*
D24*
%TO.N,/[1] Power/COMP_OUT*%
X145651250Y-80750000D03*
D25*
X145571250Y-77890000D03*
D24*
%TO.N,/[1] Power/GATE_J*%
X109137500Y-105015000D03*
X112287500Y-102690000D03*
%TO.N,/[1] Power/GATE_T*%
X104887500Y-112215000D03*
X102037500Y-114990000D03*
D25*
%TO.N,/[1] Power/PG*%
X124087500Y-94990000D03*
X120862500Y-95215000D03*
%TO.N,S-INPUT_VOLTAGE*%
X132900000Y-90900000D03*
X140100000Y-88500000D03*
%TO.N,S-OUTPUT_VOLTAGE*%
X153200000Y-93100000D03*
%TO.N,SPI_MOSI*%
X148900000Y-109900000D03*
X148900000Y-119400000D03*
D24*
%TO.N,{slash}CHIP_SELECT*%
X150100000Y-89400000D03*
D25*
X153000000Y-98500000D03*
%TO.N,S-INPUT_CURRENT*%
X150300000Y-98400000D03*
%TO.N,{slash}RESET*%
X150300000Y-102700000D03*
X148100000Y-100500000D03*
%TO.N,GNDPWR*%
X186400000Y-87600000D03*
D27*
X119500000Y-98900000D03*
D26*
X109400000Y-118200000D03*
D27*
X116600000Y-123550000D03*
D25*
X191500000Y-111500000D03*
X191500000Y-111000000D03*
X191000000Y-111000000D03*
D27*
X151300000Y-77800000D03*
D26*
X180500000Y-104000000D03*
D25*
X191000000Y-111500000D03*
D26*
X182500000Y-104000000D03*
X109800000Y-112200000D03*
X183500000Y-103000000D03*
D27*
X145000000Y-77000000D03*
D26*
X103500000Y-100000000D03*
X106100000Y-108500000D03*
X104200000Y-104600000D03*
D27*
X117400000Y-124800000D03*
X118700000Y-99700000D03*
X167937500Y-102015000D03*
X118700000Y-98900000D03*
D25*
X191500000Y-109500000D03*
D27*
X118700000Y-100500000D03*
X116550000Y-124800000D03*
D26*
X103500000Y-101000000D03*
D25*
X121300000Y-105100000D03*
X149100000Y-86600000D03*
D27*
X149300000Y-69700000D03*
D26*
X181500000Y-104000000D03*
X108500000Y-118200000D03*
X178000000Y-102500000D03*
D25*
X191500000Y-110500000D03*
D26*
X103500000Y-99000000D03*
X105100000Y-107600000D03*
D27*
X119500000Y-100500000D03*
D26*
X106100000Y-107600000D03*
D25*
X144700000Y-83000000D03*
D26*
X105100000Y-108500000D03*
D27*
X149400000Y-81000000D03*
D26*
X104500000Y-99000000D03*
D27*
X119500000Y-99700000D03*
D26*
X105500000Y-99000000D03*
D25*
%TO.N,GNDA*%
X167550000Y-116850000D03*
X185000000Y-99500000D03*
X189000000Y-112000000D03*
X188500000Y-108000000D03*
X188500000Y-112000000D03*
X189500000Y-112000000D03*
X120900000Y-112000000D03*
X121400000Y-112000000D03*
X185500000Y-99500000D03*
X189500000Y-112500000D03*
X189000000Y-112500000D03*
X167550000Y-117350000D03*
X188500000Y-112500000D03*
D27*
X124100000Y-97200000D03*
D25*
X167550000Y-116350000D03*
X121900000Y-112000000D03*
X188000000Y-107000000D03*
X122400000Y-112000000D03*
%TO.N,GNDD*%
X135500000Y-86100000D03*
D27*
X134900000Y-130700000D03*
X136400000Y-130700000D03*
D25*
X155021232Y-86221232D03*
X139300000Y-94500000D03*
X126600000Y-99200000D03*
X134100000Y-86100000D03*
X136200000Y-86100000D03*
D27*
X133400000Y-130700000D03*
D25*
X138000000Y-90500000D03*
D27*
X137900000Y-130700000D03*
D25*
X161300000Y-83700000D03*
X135900000Y-95800000D03*
D27*
X129800000Y-129300000D03*
D25*
X138300000Y-94500000D03*
D27*
X147500000Y-128750000D03*
D25*
X134800000Y-86100000D03*
X138000000Y-91100000D03*
X138800000Y-94500000D03*
X137800000Y-94500000D03*
%TD*%
%TA.AperFunction,Conductor*%
%TO.N,SYSTEM_POWER_B*%
G36*
X182643039Y-67610185D02*
G01*
X182688794Y-67662989D01*
X182700000Y-67714500D01*
X182700000Y-100876000D01*
X182680315Y-100943039D01*
X182627511Y-100988794D01*
X182576000Y-101000000D01*
X175599998Y-101000000D01*
X156534553Y-116971055D01*
X156470522Y-116999015D01*
X156454926Y-117000000D01*
X113624000Y-117000000D01*
X113556961Y-116980315D01*
X113511206Y-116927511D01*
X113500000Y-116876000D01*
X113500000Y-111324000D01*
X113519685Y-111256961D01*
X113572489Y-111211206D01*
X113624000Y-111200000D01*
X117576000Y-111200000D01*
X117643039Y-111219685D01*
X117688794Y-111272489D01*
X117700000Y-111324000D01*
X117700000Y-112600000D01*
X118128889Y-112600000D01*
X118195928Y-112619685D01*
X118241683Y-112672489D01*
X118251627Y-112741647D01*
X118222602Y-112805203D01*
X118216570Y-112811681D01*
X118141476Y-112886774D01*
X118141473Y-112886778D01*
X118141472Y-112886780D01*
X118083784Y-113000000D01*
X118080279Y-113006878D01*
X118059196Y-113139997D01*
X118059196Y-113140002D01*
X118080279Y-113273121D01*
X118080280Y-113273124D01*
X118080281Y-113273126D01*
X118141472Y-113393220D01*
X118141473Y-113393221D01*
X118141476Y-113393225D01*
X118236774Y-113488523D01*
X118236778Y-113488526D01*
X118236780Y-113488528D01*
X118356874Y-113549719D01*
X118356876Y-113549719D01*
X118356878Y-113549720D01*
X118489998Y-113570804D01*
X118490000Y-113570804D01*
X118490002Y-113570804D01*
X118623121Y-113549720D01*
X118623121Y-113549719D01*
X118623126Y-113549719D01*
X118743220Y-113488528D01*
X118838528Y-113393220D01*
X118899719Y-113273126D01*
X118920804Y-113140000D01*
X118899719Y-113006874D01*
X118838528Y-112886780D01*
X118838526Y-112886778D01*
X118838523Y-112886774D01*
X118763430Y-112811681D01*
X118729945Y-112750358D01*
X118734929Y-112680666D01*
X118776801Y-112624733D01*
X118842265Y-112600316D01*
X118851111Y-112600000D01*
X122800000Y-112600000D01*
X122800000Y-112181971D01*
X122809298Y-112143251D01*
X122806703Y-112142408D01*
X122809720Y-112133122D01*
X122830804Y-112000002D01*
X122830804Y-111999997D01*
X122809719Y-111866875D01*
X122806703Y-111857590D01*
X122809291Y-111856749D01*
X122800000Y-111818028D01*
X122800000Y-109899997D01*
X148469196Y-109899997D01*
X148469196Y-109900002D01*
X148490279Y-110033121D01*
X148490280Y-110033124D01*
X148490281Y-110033126D01*
X148551472Y-110153220D01*
X148551473Y-110153221D01*
X148551476Y-110153225D01*
X148646774Y-110248523D01*
X148646778Y-110248526D01*
X148646780Y-110248528D01*
X148766874Y-110309719D01*
X148766876Y-110309719D01*
X148766878Y-110309720D01*
X148899998Y-110330804D01*
X148900000Y-110330804D01*
X148900002Y-110330804D01*
X149033121Y-110309720D01*
X149033121Y-110309719D01*
X149033126Y-110309719D01*
X149153220Y-110248528D01*
X149248528Y-110153220D01*
X149309719Y-110033126D01*
X149330804Y-109900000D01*
X149322911Y-109850168D01*
X149309720Y-109766878D01*
X149309719Y-109766876D01*
X149309719Y-109766874D01*
X149248528Y-109646780D01*
X149248526Y-109646778D01*
X149248523Y-109646774D01*
X149153225Y-109551476D01*
X149153221Y-109551473D01*
X149153220Y-109551472D01*
X149033126Y-109490281D01*
X149033124Y-109490280D01*
X149033121Y-109490279D01*
X148900002Y-109469196D01*
X148899998Y-109469196D01*
X148766878Y-109490279D01*
X148646778Y-109551473D01*
X148646774Y-109551476D01*
X148551476Y-109646774D01*
X148551473Y-109646778D01*
X148490279Y-109766878D01*
X148469196Y-109899997D01*
X122800000Y-109899997D01*
X122800000Y-106900000D01*
X121846538Y-106137230D01*
X121806486Y-106079979D01*
X121800000Y-106040402D01*
X121800000Y-103910943D01*
X123187000Y-103910943D01*
X123187000Y-104069057D01*
X123210501Y-104156762D01*
X123227923Y-104221783D01*
X123227926Y-104221790D01*
X123306975Y-104358709D01*
X123306979Y-104358714D01*
X123306980Y-104358716D01*
X123418784Y-104470520D01*
X123418786Y-104470521D01*
X123418790Y-104470524D01*
X123512343Y-104524536D01*
X123555716Y-104549577D01*
X123708443Y-104590500D01*
X123708445Y-104590500D01*
X123866555Y-104590500D01*
X123866557Y-104590500D01*
X124019284Y-104549577D01*
X124156216Y-104470520D01*
X124268020Y-104358716D01*
X124347077Y-104221784D01*
X124388000Y-104069057D01*
X124388000Y-103910943D01*
X163387000Y-103910943D01*
X163387000Y-104069057D01*
X163410501Y-104156762D01*
X163427923Y-104221783D01*
X163427926Y-104221790D01*
X163506975Y-104358709D01*
X163506979Y-104358714D01*
X163506980Y-104358716D01*
X163618784Y-104470520D01*
X163618786Y-104470521D01*
X163618790Y-104470524D01*
X163712343Y-104524536D01*
X163755716Y-104549577D01*
X163908443Y-104590500D01*
X163908445Y-104590500D01*
X164066555Y-104590500D01*
X164066557Y-104590500D01*
X164219284Y-104549577D01*
X164356216Y-104470520D01*
X164468020Y-104358716D01*
X164547077Y-104221784D01*
X164588000Y-104069057D01*
X164588000Y-103910943D01*
X164547077Y-103758216D01*
X164511826Y-103697159D01*
X164468024Y-103621290D01*
X164468018Y-103621282D01*
X164356217Y-103509481D01*
X164356209Y-103509475D01*
X164219290Y-103430426D01*
X164219286Y-103430424D01*
X164219284Y-103430423D01*
X164066557Y-103389500D01*
X163908443Y-103389500D01*
X163755716Y-103430423D01*
X163755709Y-103430426D01*
X163618790Y-103509475D01*
X163618782Y-103509481D01*
X163506981Y-103621282D01*
X163506975Y-103621290D01*
X163427926Y-103758209D01*
X163427923Y-103758216D01*
X163387000Y-103910943D01*
X124388000Y-103910943D01*
X124347077Y-103758216D01*
X124311826Y-103697159D01*
X124268024Y-103621290D01*
X124268018Y-103621282D01*
X124156217Y-103509481D01*
X124156209Y-103509475D01*
X124019290Y-103430426D01*
X124019286Y-103430424D01*
X124019284Y-103430423D01*
X123866557Y-103389500D01*
X123708443Y-103389500D01*
X123555716Y-103430423D01*
X123555709Y-103430426D01*
X123418790Y-103509475D01*
X123418782Y-103509481D01*
X123306981Y-103621282D01*
X123306975Y-103621290D01*
X123227926Y-103758209D01*
X123227923Y-103758216D01*
X123187000Y-103910943D01*
X121800000Y-103910943D01*
X121800000Y-98124000D01*
X121819685Y-98056961D01*
X121872489Y-98011206D01*
X121924000Y-98000000D01*
X125276000Y-98000000D01*
X125343039Y-98019685D01*
X125388794Y-98072489D01*
X125400000Y-98124000D01*
X125400000Y-103100000D01*
X132699999Y-103100000D01*
X132700000Y-103100000D01*
X133742432Y-102699997D01*
X149869196Y-102699997D01*
X149869196Y-102700002D01*
X149890279Y-102833121D01*
X149890280Y-102833124D01*
X149890281Y-102833126D01*
X149951472Y-102953220D01*
X149951473Y-102953221D01*
X149951476Y-102953225D01*
X150046774Y-103048523D01*
X150046778Y-103048526D01*
X150046780Y-103048528D01*
X150166874Y-103109719D01*
X150166876Y-103109719D01*
X150166878Y-103109720D01*
X150299998Y-103130804D01*
X150300000Y-103130804D01*
X150300002Y-103130804D01*
X150433121Y-103109720D01*
X150433121Y-103109719D01*
X150433126Y-103109719D01*
X150553220Y-103048528D01*
X150648528Y-102953220D01*
X150709719Y-102833126D01*
X150730804Y-102700000D01*
X150730354Y-102697159D01*
X150709720Y-102566878D01*
X150709719Y-102566876D01*
X150709719Y-102566874D01*
X150648528Y-102446780D01*
X150648526Y-102446778D01*
X150648523Y-102446774D01*
X150553225Y-102351476D01*
X150553221Y-102351473D01*
X150553220Y-102351472D01*
X150433126Y-102290281D01*
X150433124Y-102290280D01*
X150433121Y-102290279D01*
X150300002Y-102269196D01*
X150299998Y-102269196D01*
X150166878Y-102290279D01*
X150046778Y-102351473D01*
X150046774Y-102351476D01*
X149951476Y-102446774D01*
X149951473Y-102446778D01*
X149890279Y-102566878D01*
X149869196Y-102699997D01*
X133742432Y-102699997D01*
X135527578Y-102014999D01*
X167382250Y-102014999D01*
X167382250Y-102015000D01*
X167401170Y-102158708D01*
X167401171Y-102158712D01*
X167456637Y-102292622D01*
X167456638Y-102292624D01*
X167456639Y-102292625D01*
X167544879Y-102407621D01*
X167659875Y-102495861D01*
X167659876Y-102495861D01*
X167659877Y-102495862D01*
X167704513Y-102514350D01*
X167793791Y-102551330D01*
X167911888Y-102566878D01*
X167937499Y-102570250D01*
X167937500Y-102570250D01*
X167937501Y-102570250D01*
X167963112Y-102566878D01*
X168081209Y-102551330D01*
X168215125Y-102495861D01*
X168330121Y-102407621D01*
X168418361Y-102292625D01*
X168473830Y-102158709D01*
X168492750Y-102015000D01*
X168473830Y-101871291D01*
X168418361Y-101737375D01*
X168330121Y-101622379D01*
X168215125Y-101534139D01*
X168215124Y-101534138D01*
X168215122Y-101534137D01*
X168081212Y-101478671D01*
X168081210Y-101478670D01*
X168081209Y-101478670D01*
X168009354Y-101469210D01*
X167937501Y-101459750D01*
X167937499Y-101459750D01*
X167793791Y-101478670D01*
X167793787Y-101478671D01*
X167659877Y-101534137D01*
X167544879Y-101622379D01*
X167456637Y-101737377D01*
X167401171Y-101871287D01*
X167401170Y-101871291D01*
X167382250Y-102014999D01*
X135527578Y-102014999D01*
X139475763Y-100499997D01*
X147669196Y-100499997D01*
X147669196Y-100500002D01*
X147690279Y-100633121D01*
X147690280Y-100633124D01*
X147690281Y-100633126D01*
X147751472Y-100753220D01*
X147751473Y-100753221D01*
X147751476Y-100753225D01*
X147846774Y-100848523D01*
X147846778Y-100848526D01*
X147846780Y-100848528D01*
X147966874Y-100909719D01*
X147966876Y-100909719D01*
X147966878Y-100909720D01*
X148099998Y-100930804D01*
X148100000Y-100930804D01*
X148100002Y-100930804D01*
X148233121Y-100909720D01*
X148233121Y-100909719D01*
X148233126Y-100909719D01*
X148353220Y-100848528D01*
X148448528Y-100753220D01*
X148509719Y-100633126D01*
X148530804Y-100500000D01*
X148528039Y-100482543D01*
X148509720Y-100366878D01*
X148509719Y-100366876D01*
X148509719Y-100366874D01*
X148448528Y-100246780D01*
X148448526Y-100246778D01*
X148448523Y-100246774D01*
X148353225Y-100151476D01*
X148353221Y-100151473D01*
X148353220Y-100151472D01*
X148233126Y-100090281D01*
X148233124Y-100090280D01*
X148233121Y-100090279D01*
X148100002Y-100069196D01*
X148099998Y-100069196D01*
X147966878Y-100090279D01*
X147966874Y-100090280D01*
X147966874Y-100090281D01*
X147947799Y-100100000D01*
X147846778Y-100151473D01*
X147846774Y-100151476D01*
X147751476Y-100246774D01*
X147751473Y-100246778D01*
X147690279Y-100366878D01*
X147669196Y-100499997D01*
X139475763Y-100499997D01*
X141278552Y-99808229D01*
X141322975Y-99800000D01*
X169800000Y-99800000D01*
X169800000Y-67714500D01*
X169819685Y-67647461D01*
X169872489Y-67601706D01*
X169924000Y-67590500D01*
X182576000Y-67590500D01*
X182643039Y-67610185D01*
G37*
%TD.AperFunction*%
%TD*%
%TA.AperFunction,Conductor*%
%TO.N,+3V3*%
G36*
X168743039Y-67610185D02*
G01*
X168788794Y-67662989D01*
X168800000Y-67714500D01*
X168800000Y-98776000D01*
X168780315Y-98843039D01*
X168727511Y-98888794D01*
X168676000Y-98900000D01*
X153476089Y-98900000D01*
X153409050Y-98880315D01*
X153363295Y-98827511D01*
X153353351Y-98758353D01*
X153365602Y-98719708D01*
X153409719Y-98633126D01*
X153415913Y-98594020D01*
X153430804Y-98500002D01*
X153430804Y-98499997D01*
X153409720Y-98366878D01*
X153409719Y-98366876D01*
X153409719Y-98366874D01*
X153348528Y-98246780D01*
X153348526Y-98246778D01*
X153348523Y-98246774D01*
X153253225Y-98151476D01*
X153253221Y-98151473D01*
X153253220Y-98151472D01*
X153133126Y-98090281D01*
X153133124Y-98090280D01*
X153133121Y-98090279D01*
X153000002Y-98069196D01*
X152999998Y-98069196D01*
X152866878Y-98090279D01*
X152746778Y-98151473D01*
X152746774Y-98151476D01*
X152651476Y-98246774D01*
X152651473Y-98246778D01*
X152590279Y-98366878D01*
X152569196Y-98499997D01*
X152569196Y-98500002D01*
X152590279Y-98633121D01*
X152590280Y-98633124D01*
X152590281Y-98633126D01*
X152634396Y-98719707D01*
X152647292Y-98788374D01*
X152621016Y-98853115D01*
X152563909Y-98893372D01*
X152523911Y-98900000D01*
X150701111Y-98900000D01*
X150634072Y-98880315D01*
X150588317Y-98827511D01*
X150578373Y-98758353D01*
X150607398Y-98694797D01*
X150613430Y-98688319D01*
X150648523Y-98653225D01*
X150648528Y-98653220D01*
X150709719Y-98533126D01*
X150713797Y-98507379D01*
X150730804Y-98400002D01*
X150730804Y-98399997D01*
X150709720Y-98266878D01*
X150709719Y-98266876D01*
X150709719Y-98266874D01*
X150648528Y-98146780D01*
X150648526Y-98146778D01*
X150648523Y-98146774D01*
X150553225Y-98051476D01*
X150553221Y-98051473D01*
X150553220Y-98051472D01*
X150433126Y-97990281D01*
X150433124Y-97990280D01*
X150433121Y-97990279D01*
X150300002Y-97969196D01*
X150299998Y-97969196D01*
X150166878Y-97990279D01*
X150046778Y-98051473D01*
X150046774Y-98051476D01*
X149951476Y-98146774D01*
X149951473Y-98146778D01*
X149890279Y-98266878D01*
X149869196Y-98399997D01*
X149869196Y-98400002D01*
X149890279Y-98533121D01*
X149890280Y-98533124D01*
X149890281Y-98533126D01*
X149941234Y-98633126D01*
X149951473Y-98653221D01*
X149951476Y-98653225D01*
X149986570Y-98688319D01*
X150020055Y-98749642D01*
X150015071Y-98819334D01*
X149973199Y-98875267D01*
X149907735Y-98899684D01*
X149898889Y-98900000D01*
X141799999Y-98900000D01*
X136473622Y-100948606D01*
X136403985Y-100954299D01*
X136342324Y-100921440D01*
X136308217Y-100860461D01*
X136312492Y-100790722D01*
X136316309Y-100781374D01*
X136322665Y-100767457D01*
X136343147Y-100625000D01*
X136322665Y-100482543D01*
X136262877Y-100351627D01*
X136168628Y-100242857D01*
X136047553Y-100165047D01*
X136047551Y-100165046D01*
X136047549Y-100165045D01*
X136047550Y-100165045D01*
X135909463Y-100124500D01*
X135909461Y-100124500D01*
X135765539Y-100124500D01*
X135765536Y-100124500D01*
X135627449Y-100165045D01*
X135506373Y-100242856D01*
X135412123Y-100351626D01*
X135412122Y-100351628D01*
X135352334Y-100482543D01*
X135331853Y-100625000D01*
X135352334Y-100767456D01*
X135394809Y-100860461D01*
X135412123Y-100898373D01*
X135506372Y-101007143D01*
X135605758Y-101071014D01*
X135651512Y-101123817D01*
X135661456Y-101192975D01*
X135632431Y-101256531D01*
X135583231Y-101291064D01*
X132721489Y-102391735D01*
X132676976Y-102400000D01*
X126224000Y-102400000D01*
X126156961Y-102380315D01*
X126111206Y-102327511D01*
X126100000Y-102276000D01*
X126100000Y-99601111D01*
X126119685Y-99534072D01*
X126172489Y-99488317D01*
X126241647Y-99478373D01*
X126305203Y-99507398D01*
X126311681Y-99513430D01*
X126346774Y-99548523D01*
X126346778Y-99548526D01*
X126346780Y-99548528D01*
X126466874Y-99609719D01*
X126466876Y-99609719D01*
X126466878Y-99609720D01*
X126599998Y-99630804D01*
X126600000Y-99630804D01*
X126600002Y-99630804D01*
X126733121Y-99609720D01*
X126733121Y-99609719D01*
X126733126Y-99609719D01*
X126853220Y-99548528D01*
X126948528Y-99453220D01*
X127009719Y-99333126D01*
X127013797Y-99307379D01*
X127030804Y-99200002D01*
X127030804Y-99199997D01*
X127009720Y-99066878D01*
X127009719Y-99066876D01*
X127009719Y-99066874D01*
X126948528Y-98946780D01*
X126948526Y-98946778D01*
X126948523Y-98946774D01*
X126853225Y-98851476D01*
X126853221Y-98851473D01*
X126853220Y-98851472D01*
X126733126Y-98790281D01*
X126733124Y-98790280D01*
X126733121Y-98790279D01*
X126600002Y-98769196D01*
X126599998Y-98769196D01*
X126466878Y-98790279D01*
X126346778Y-98851473D01*
X126346774Y-98851476D01*
X126311681Y-98886570D01*
X126250358Y-98920055D01*
X126180666Y-98915071D01*
X126124733Y-98873199D01*
X126100316Y-98807735D01*
X126100000Y-98798889D01*
X126100000Y-97400000D01*
X124770314Y-97400000D01*
X124703275Y-97380315D01*
X124657520Y-97327511D01*
X124647375Y-97259814D01*
X124655250Y-97200000D01*
X124655250Y-97199999D01*
X124653048Y-97183280D01*
X124636330Y-97056291D01*
X124580861Y-96922375D01*
X124492621Y-96807379D01*
X124377625Y-96719139D01*
X124377624Y-96719138D01*
X124377622Y-96719137D01*
X124243712Y-96663671D01*
X124243710Y-96663670D01*
X124243709Y-96663670D01*
X124171854Y-96654210D01*
X124100001Y-96644750D01*
X124099999Y-96644750D01*
X123956291Y-96663670D01*
X123956287Y-96663671D01*
X123822377Y-96719137D01*
X123707379Y-96807379D01*
X123619137Y-96922377D01*
X123563671Y-97056287D01*
X123563670Y-97056291D01*
X123544750Y-97199999D01*
X123544750Y-97200000D01*
X123552625Y-97259814D01*
X123541860Y-97328849D01*
X123495480Y-97381105D01*
X123429686Y-97400000D01*
X117600000Y-97400000D01*
X117600000Y-101476000D01*
X117580315Y-101543039D01*
X117527511Y-101588794D01*
X117476000Y-101600000D01*
X114200000Y-101600000D01*
X114200000Y-103900000D01*
X114200000Y-104600000D01*
X119376000Y-104600000D01*
X119443039Y-104619685D01*
X119488794Y-104672489D01*
X119500000Y-104724000D01*
X119500000Y-107400000D01*
X122176000Y-107400000D01*
X122243039Y-107419685D01*
X122288794Y-107472489D01*
X122300000Y-107524000D01*
X122300000Y-110576000D01*
X122280315Y-110643039D01*
X122227511Y-110688794D01*
X122176000Y-110700000D01*
X121424000Y-110700000D01*
X121356961Y-110680315D01*
X121311206Y-110627511D01*
X121300000Y-110576000D01*
X121300000Y-110300000D01*
X119600000Y-110300000D01*
X119600000Y-110476000D01*
X119580315Y-110543039D01*
X119527511Y-110588794D01*
X119476000Y-110600000D01*
X114500000Y-110600000D01*
X112700000Y-110600000D01*
X112700000Y-117700000D01*
X119700000Y-117700000D01*
X121900000Y-117700000D01*
X156400000Y-117700000D01*
X158200000Y-117700000D01*
X159658003Y-116349997D01*
X167119196Y-116349997D01*
X167119196Y-116350002D01*
X167140279Y-116483122D01*
X167171148Y-116543707D01*
X167184043Y-116612376D01*
X167171148Y-116656293D01*
X167140279Y-116716877D01*
X167119196Y-116849997D01*
X167119196Y-116850002D01*
X167140279Y-116983122D01*
X167171148Y-117043707D01*
X167184043Y-117112376D01*
X167171148Y-117156293D01*
X167140279Y-117216877D01*
X167119196Y-117349997D01*
X167119196Y-117350002D01*
X167140279Y-117483121D01*
X167140280Y-117483124D01*
X167140281Y-117483126D01*
X167201472Y-117603220D01*
X167201473Y-117603221D01*
X167201476Y-117603225D01*
X167296774Y-117698523D01*
X167296778Y-117698526D01*
X167296780Y-117698528D01*
X167416874Y-117759719D01*
X167416876Y-117759719D01*
X167416878Y-117759720D01*
X167549998Y-117780804D01*
X167550000Y-117780804D01*
X167550002Y-117780804D01*
X167683121Y-117759720D01*
X167683121Y-117759719D01*
X167683126Y-117759719D01*
X167803220Y-117698528D01*
X167898528Y-117603220D01*
X167959719Y-117483126D01*
X167980804Y-117350000D01*
X167980804Y-117349997D01*
X167959720Y-117216876D01*
X167959719Y-117216874D01*
X167928851Y-117156293D01*
X167915955Y-117087627D01*
X167928851Y-117043706D01*
X167959719Y-116983126D01*
X167959719Y-116983124D01*
X167959720Y-116983123D01*
X167980804Y-116850002D01*
X167980804Y-116849997D01*
X167959720Y-116716876D01*
X167959719Y-116716874D01*
X167928851Y-116656293D01*
X167915955Y-116587627D01*
X167928851Y-116543706D01*
X167959719Y-116483126D01*
X167959719Y-116483124D01*
X167959720Y-116483123D01*
X167980804Y-116350002D01*
X167980804Y-116349997D01*
X167959720Y-116216878D01*
X167959719Y-116216876D01*
X167959719Y-116216874D01*
X167898528Y-116096780D01*
X167898526Y-116096778D01*
X167898523Y-116096774D01*
X167803225Y-116001476D01*
X167803221Y-116001473D01*
X167803220Y-116001472D01*
X167683126Y-115940281D01*
X167683124Y-115940280D01*
X167683121Y-115940279D01*
X167550002Y-115919196D01*
X167549998Y-115919196D01*
X167416878Y-115940279D01*
X167296778Y-116001473D01*
X167296774Y-116001476D01*
X167201476Y-116096774D01*
X167201473Y-116096778D01*
X167140279Y-116216878D01*
X167119196Y-116349997D01*
X159658003Y-116349997D01*
X160864345Y-115233014D01*
X160926910Y-115201910D01*
X160948592Y-115200000D01*
X173076000Y-115200000D01*
X173143039Y-115219685D01*
X173188794Y-115272489D01*
X173200000Y-115324000D01*
X173200000Y-121876000D01*
X173180315Y-121943039D01*
X173127511Y-121988794D01*
X173076000Y-122000000D01*
X119700000Y-122000000D01*
X106767000Y-122000000D01*
X106699961Y-121980315D01*
X106654206Y-121927511D01*
X106643000Y-121876000D01*
X106643000Y-120895249D01*
X106642999Y-120895247D01*
X106631368Y-120836770D01*
X106631367Y-120836769D01*
X106587052Y-120770447D01*
X106520730Y-120726132D01*
X106520729Y-120726131D01*
X106462252Y-120714500D01*
X106462248Y-120714500D01*
X103822752Y-120714500D01*
X103822747Y-120714500D01*
X103764270Y-120726131D01*
X103764269Y-120726132D01*
X103697947Y-120770447D01*
X103653632Y-120836769D01*
X103653631Y-120836770D01*
X103642000Y-120895247D01*
X103642000Y-121876000D01*
X103622315Y-121943039D01*
X103569511Y-121988794D01*
X103518000Y-122000000D01*
X99612000Y-122000000D01*
X99544961Y-121980315D01*
X99499206Y-121927511D01*
X99488000Y-121876000D01*
X99488000Y-119399997D01*
X148469196Y-119399997D01*
X148469196Y-119400002D01*
X148490279Y-119533121D01*
X148490280Y-119533124D01*
X148490281Y-119533126D01*
X148551472Y-119653220D01*
X148551473Y-119653221D01*
X148551476Y-119653225D01*
X148646774Y-119748523D01*
X148646778Y-119748526D01*
X148646780Y-119748528D01*
X148766874Y-119809719D01*
X148766876Y-119809719D01*
X148766878Y-119809720D01*
X148899998Y-119830804D01*
X148900000Y-119830804D01*
X148900002Y-119830804D01*
X149033121Y-119809720D01*
X149033121Y-119809719D01*
X149033126Y-119809719D01*
X149153220Y-119748528D01*
X149248528Y-119653220D01*
X149309719Y-119533126D01*
X149330804Y-119400000D01*
X149309719Y-119266874D01*
X149248528Y-119146780D01*
X149248526Y-119146778D01*
X149248523Y-119146774D01*
X149153225Y-119051476D01*
X149153221Y-119051473D01*
X149153220Y-119051472D01*
X149033126Y-118990281D01*
X149033124Y-118990280D01*
X149033121Y-118990279D01*
X148900002Y-118969196D01*
X148899998Y-118969196D01*
X148766878Y-118990279D01*
X148646778Y-119051473D01*
X148646774Y-119051476D01*
X148551476Y-119146774D01*
X148551473Y-119146778D01*
X148490279Y-119266878D01*
X148469196Y-119399997D01*
X99488000Y-119399997D01*
X99488000Y-118199998D01*
X107894318Y-118199998D01*
X107894318Y-118200001D01*
X107914955Y-118356760D01*
X107914956Y-118356762D01*
X107975464Y-118502841D01*
X108071718Y-118628282D01*
X108197159Y-118724536D01*
X108343238Y-118785044D01*
X108421619Y-118795363D01*
X108499999Y-118805682D01*
X108500000Y-118805682D01*
X108500001Y-118805682D01*
X108552254Y-118798802D01*
X108656762Y-118785044D01*
X108802841Y-118724536D01*
X108874513Y-118669539D01*
X108939682Y-118644345D01*
X109008127Y-118658383D01*
X109025487Y-118669540D01*
X109097157Y-118724535D01*
X109097158Y-118724535D01*
X109097159Y-118724536D01*
X109243238Y-118785044D01*
X109321619Y-118795363D01*
X109399999Y-118805682D01*
X109400000Y-118805682D01*
X109400001Y-118805682D01*
X109452254Y-118798802D01*
X109556762Y-118785044D01*
X109702841Y-118724536D01*
X109828282Y-118628282D01*
X109924536Y-118502841D01*
X109985044Y-118356762D01*
X110005682Y-118200000D01*
X109985044Y-118043238D01*
X109924536Y-117897159D01*
X109828282Y-117771718D01*
X109702841Y-117675464D01*
X109556762Y-117614956D01*
X109556760Y-117614955D01*
X109400001Y-117594318D01*
X109399999Y-117594318D01*
X109243239Y-117614955D01*
X109243237Y-117614956D01*
X109097157Y-117675464D01*
X109025486Y-117730460D01*
X108960317Y-117755654D01*
X108891872Y-117741615D01*
X108874514Y-117730460D01*
X108802842Y-117675464D01*
X108656762Y-117614956D01*
X108656760Y-117614955D01*
X108500001Y-117594318D01*
X108499999Y-117594318D01*
X108343239Y-117614955D01*
X108343237Y-117614956D01*
X108197160Y-117675463D01*
X108071718Y-117771718D01*
X107975463Y-117897160D01*
X107914956Y-118043237D01*
X107914955Y-118043239D01*
X107894318Y-118199998D01*
X99488000Y-118199998D01*
X99488000Y-115515000D01*
X102906853Y-115515000D01*
X102927334Y-115657456D01*
X102987122Y-115788371D01*
X102987123Y-115788373D01*
X103081372Y-115897143D01*
X103202447Y-115974953D01*
X103202450Y-115974954D01*
X103202449Y-115974954D01*
X103340536Y-116015499D01*
X103340538Y-116015500D01*
X103340539Y-116015500D01*
X103484462Y-116015500D01*
X103484462Y-116015499D01*
X103622553Y-115974953D01*
X103743628Y-115897143D01*
X103837877Y-115788373D01*
X103897665Y-115657457D01*
X103918147Y-115515000D01*
X103897665Y-115372543D01*
X103837877Y-115241627D01*
X103743628Y-115132857D01*
X103622553Y-115055047D01*
X103622551Y-115055046D01*
X103622549Y-115055045D01*
X103622550Y-115055045D01*
X103484463Y-115014500D01*
X103484461Y-115014500D01*
X103340539Y-115014500D01*
X103340536Y-115014500D01*
X103202449Y-115055045D01*
X103081373Y-115132856D01*
X102987123Y-115241626D01*
X102987122Y-115241628D01*
X102927334Y-115372543D01*
X102906853Y-115515000D01*
X99488000Y-115515000D01*
X99488000Y-114990000D01*
X101531853Y-114990000D01*
X101552334Y-115132456D01*
X101583181Y-115200000D01*
X101612123Y-115263373D01*
X101706372Y-115372143D01*
X101827447Y-115449953D01*
X101827450Y-115449954D01*
X101827449Y-115449954D01*
X101965536Y-115490499D01*
X101965538Y-115490500D01*
X101965539Y-115490500D01*
X102109462Y-115490500D01*
X102109462Y-115490499D01*
X102247553Y-115449953D01*
X102368628Y-115372143D01*
X102462877Y-115263373D01*
X102522665Y-115132457D01*
X102543147Y-114990000D01*
X102522665Y-114847543D01*
X102462877Y-114716627D01*
X102368628Y-114607857D01*
X102247553Y-114530047D01*
X102247551Y-114530046D01*
X102247549Y-114530045D01*
X102247550Y-114530045D01*
X102109463Y-114489500D01*
X102109461Y-114489500D01*
X101965539Y-114489500D01*
X101965536Y-114489500D01*
X101827449Y-114530045D01*
X101706373Y-114607856D01*
X101612123Y-114716626D01*
X101612122Y-114716628D01*
X101552334Y-114847543D01*
X101531853Y-114990000D01*
X99488000Y-114990000D01*
X99488000Y-112215000D01*
X104381853Y-112215000D01*
X104402334Y-112357456D01*
X104434680Y-112428282D01*
X104462123Y-112488373D01*
X104556372Y-112597143D01*
X104677447Y-112674953D01*
X104677450Y-112674954D01*
X104677449Y-112674954D01*
X104815536Y-112715499D01*
X104815538Y-112715500D01*
X104815539Y-112715500D01*
X104959462Y-112715500D01*
X104959462Y-112715499D01*
X105097553Y-112674953D01*
X105218628Y-112597143D01*
X105312877Y-112488373D01*
X105372665Y-112357457D01*
X105393147Y-112215000D01*
X105372665Y-112072543D01*
X105312877Y-111941627D01*
X105218628Y-111832857D01*
X105097553Y-111755047D01*
X105097551Y-111755046D01*
X105097549Y-111755045D01*
X105097550Y-111755045D01*
X104959463Y-111714500D01*
X104959461Y-111714500D01*
X104815539Y-111714500D01*
X104815536Y-111714500D01*
X104677449Y-111755045D01*
X104556373Y-111832856D01*
X104462123Y-111941626D01*
X104462122Y-111941628D01*
X104402334Y-112072543D01*
X104381853Y-112215000D01*
X99488000Y-112215000D01*
X99488000Y-111240000D01*
X109156853Y-111240000D01*
X109177334Y-111382456D01*
X109237122Y-111513371D01*
X109237123Y-111513373D01*
X109331373Y-111622144D01*
X109336247Y-111626367D01*
X109374021Y-111685146D01*
X109374020Y-111755016D01*
X109353419Y-111795565D01*
X109275464Y-111897157D01*
X109214956Y-112043237D01*
X109214955Y-112043239D01*
X109194318Y-112199998D01*
X109194318Y-112200001D01*
X109214955Y-112356760D01*
X109214956Y-112356762D01*
X109236891Y-112409719D01*
X109275464Y-112502841D01*
X109371718Y-112628282D01*
X109497159Y-112724536D01*
X109643238Y-112785044D01*
X109692064Y-112791472D01*
X109799999Y-112805682D01*
X109800000Y-112805682D01*
X109800001Y-112805682D01*
X109852254Y-112798802D01*
X109956762Y-112785044D01*
X110102841Y-112724536D01*
X110228282Y-112628282D01*
X110324536Y-112502841D01*
X110385044Y-112356762D01*
X110405682Y-112200000D01*
X110385044Y-112043238D01*
X110324536Y-111897159D01*
X110228282Y-111771718D01*
X110228280Y-111771717D01*
X110228280Y-111771716D01*
X110153714Y-111714500D01*
X110113556Y-111683686D01*
X110072354Y-111627259D01*
X110068199Y-111557513D01*
X110084733Y-111518263D01*
X110087869Y-111513381D01*
X110087877Y-111513373D01*
X110147665Y-111382457D01*
X110168147Y-111240000D01*
X110147665Y-111097543D01*
X110087877Y-110966627D01*
X109993628Y-110857857D01*
X109872553Y-110780047D01*
X109872551Y-110780046D01*
X109872549Y-110780045D01*
X109872550Y-110780045D01*
X109734463Y-110739500D01*
X109734461Y-110739500D01*
X109590539Y-110739500D01*
X109590536Y-110739500D01*
X109452449Y-110780045D01*
X109331373Y-110857856D01*
X109237123Y-110966626D01*
X109237122Y-110966628D01*
X109177334Y-111097543D01*
X109156853Y-111240000D01*
X99488000Y-111240000D01*
X99488000Y-106790000D01*
X100832315Y-106790000D01*
X100851003Y-106967805D01*
X100851004Y-106967807D01*
X100906247Y-107137829D01*
X100906250Y-107137835D01*
X100995641Y-107292665D01*
X101037312Y-107338946D01*
X101115264Y-107425521D01*
X101115267Y-107425523D01*
X101115270Y-107425526D01*
X101259907Y-107530612D01*
X101423233Y-107603329D01*
X101598109Y-107640500D01*
X101598110Y-107640500D01*
X101776889Y-107640500D01*
X101776891Y-107640500D01*
X101951767Y-107603329D01*
X101959249Y-107599998D01*
X104494318Y-107599998D01*
X104494318Y-107600001D01*
X104514955Y-107756760D01*
X104514956Y-107756762D01*
X104575464Y-107902842D01*
X104630460Y-107974514D01*
X104655654Y-108039683D01*
X104641615Y-108108128D01*
X104630460Y-108125486D01*
X104575464Y-108197157D01*
X104514956Y-108343237D01*
X104514955Y-108343239D01*
X104494318Y-108499998D01*
X104494318Y-108500001D01*
X104514955Y-108656760D01*
X104514956Y-108656762D01*
X104575464Y-108802841D01*
X104671718Y-108928282D01*
X104797159Y-109024536D01*
X104943238Y-109085044D01*
X105021619Y-109095363D01*
X105099999Y-109105682D01*
X105100000Y-109105682D01*
X105100001Y-109105682D01*
X105152254Y-109098802D01*
X105256762Y-109085044D01*
X105402841Y-109024536D01*
X105524515Y-108931171D01*
X105589683Y-108905979D01*
X105658127Y-108920017D01*
X105675478Y-108931167D01*
X105797159Y-109024536D01*
X105943238Y-109085044D01*
X106021619Y-109095363D01*
X106099999Y-109105682D01*
X106100000Y-109105682D01*
X106100001Y-109105682D01*
X106152254Y-109098802D01*
X106256762Y-109085044D01*
X106402841Y-109024536D01*
X106528282Y-108928282D01*
X106624536Y-108802841D01*
X106685044Y-108656762D01*
X106705682Y-108500000D01*
X106685044Y-108343238D01*
X106624536Y-108197159D01*
X106624535Y-108197158D01*
X106624535Y-108197157D01*
X106569540Y-108125487D01*
X106544345Y-108060318D01*
X106558383Y-107991873D01*
X106569538Y-107974515D01*
X106624536Y-107902841D01*
X106685044Y-107756762D01*
X106705682Y-107600000D01*
X106695676Y-107524000D01*
X106685044Y-107443239D01*
X106685044Y-107443238D01*
X106624536Y-107297159D01*
X106528282Y-107171718D01*
X106402841Y-107075464D01*
X106256762Y-107014956D01*
X106256760Y-107014955D01*
X106100001Y-106994318D01*
X106099999Y-106994318D01*
X105943239Y-107014955D01*
X105943237Y-107014956D01*
X105797157Y-107075464D01*
X105675486Y-107168826D01*
X105610317Y-107194020D01*
X105541872Y-107179981D01*
X105524514Y-107168826D01*
X105402842Y-107075464D01*
X105256762Y-107014956D01*
X105256760Y-107014955D01*
X105100001Y-106994318D01*
X105099999Y-106994318D01*
X104943239Y-107014955D01*
X104943237Y-107014956D01*
X104797160Y-107075463D01*
X104671718Y-107171718D01*
X104575463Y-107297160D01*
X104514956Y-107443237D01*
X104514955Y-107443239D01*
X104494318Y-107599998D01*
X101959249Y-107599998D01*
X102115093Y-107530612D01*
X102259730Y-107425526D01*
X102264990Y-107419685D01*
X102285648Y-107396741D01*
X102379359Y-107292665D01*
X102468750Y-107137835D01*
X102523997Y-106967803D01*
X102542685Y-106790000D01*
X102523997Y-106612197D01*
X102471281Y-106449954D01*
X102468752Y-106442170D01*
X102468749Y-106442164D01*
X102379359Y-106287335D01*
X102332503Y-106235296D01*
X102259735Y-106154478D01*
X102259732Y-106154476D01*
X102259731Y-106154475D01*
X102259730Y-106154474D01*
X102115093Y-106049388D01*
X101981705Y-105990000D01*
X103731853Y-105990000D01*
X103752334Y-106132456D01*
X103812122Y-106263371D01*
X103812123Y-106263373D01*
X103906372Y-106372143D01*
X104027447Y-106449953D01*
X104027450Y-106449954D01*
X104027449Y-106449954D01*
X104165536Y-106490499D01*
X104165538Y-106490500D01*
X104165539Y-106490500D01*
X104309462Y-106490500D01*
X104309462Y-106490499D01*
X104447553Y-106449953D01*
X104568628Y-106372143D01*
X104662877Y-106263373D01*
X104722665Y-106132457D01*
X104743147Y-105990000D01*
X104722665Y-105847543D01*
X104662877Y-105716627D01*
X104568628Y-105607857D01*
X104447553Y-105530047D01*
X104447551Y-105530046D01*
X104447549Y-105530045D01*
X104447550Y-105530045D01*
X104309463Y-105489500D01*
X104309461Y-105489500D01*
X104165539Y-105489500D01*
X104165536Y-105489500D01*
X104027449Y-105530045D01*
X103906373Y-105607856D01*
X103812123Y-105716626D01*
X103812122Y-105716628D01*
X103752334Y-105847543D01*
X103731853Y-105990000D01*
X101981705Y-105990000D01*
X101951767Y-105976671D01*
X101951765Y-105976670D01*
X101824094Y-105949533D01*
X101776891Y-105939500D01*
X101598109Y-105939500D01*
X101567454Y-105946015D01*
X101423233Y-105976670D01*
X101423228Y-105976672D01*
X101259908Y-106049387D01*
X101115268Y-106154475D01*
X100995640Y-106287336D01*
X100906250Y-106442164D01*
X100906247Y-106442170D01*
X100851004Y-106612192D01*
X100851003Y-106612194D01*
X100832315Y-106790000D01*
X99488000Y-106790000D01*
X99488000Y-104190000D01*
X100832315Y-104190000D01*
X100851003Y-104367805D01*
X100851004Y-104367807D01*
X100906247Y-104537829D01*
X100906250Y-104537835D01*
X100995641Y-104692665D01*
X101037312Y-104738946D01*
X101115264Y-104825521D01*
X101115267Y-104825523D01*
X101115270Y-104825526D01*
X101259907Y-104930612D01*
X101423233Y-105003329D01*
X101598109Y-105040500D01*
X101598110Y-105040500D01*
X101776889Y-105040500D01*
X101776891Y-105040500D01*
X101951767Y-105003329D01*
X102115093Y-104930612D01*
X102259730Y-104825526D01*
X102379359Y-104692665D01*
X102432860Y-104599998D01*
X103594318Y-104599998D01*
X103594318Y-104600000D01*
X103614955Y-104756760D01*
X103614956Y-104756762D01*
X103675464Y-104902841D01*
X103771718Y-105028282D01*
X103897159Y-105124536D01*
X104043238Y-105185044D01*
X104121619Y-105195363D01*
X104199999Y-105205682D01*
X104200000Y-105205682D01*
X104200001Y-105205682D01*
X104252254Y-105198802D01*
X104356762Y-105185044D01*
X104502841Y-105124536D01*
X104628282Y-105028282D01*
X104638474Y-105015000D01*
X108631853Y-105015000D01*
X108652334Y-105157456D01*
X108686892Y-105233126D01*
X108712123Y-105288373D01*
X108806372Y-105397143D01*
X108927447Y-105474953D01*
X108927450Y-105474954D01*
X108927449Y-105474954D01*
X109034607Y-105506417D01*
X109045850Y-105509719D01*
X109065536Y-105515499D01*
X109065538Y-105515500D01*
X109065539Y-105515500D01*
X109209462Y-105515500D01*
X109209462Y-105515499D01*
X109347553Y-105474953D01*
X109468628Y-105397143D01*
X109562877Y-105288373D01*
X109622665Y-105157457D01*
X109643147Y-105015000D01*
X109622665Y-104872543D01*
X109562877Y-104741627D01*
X109468628Y-104632857D01*
X109347553Y-104555047D01*
X109347551Y-104555046D01*
X109347549Y-104555045D01*
X109347550Y-104555045D01*
X109209463Y-104514500D01*
X109209461Y-104514500D01*
X109065539Y-104514500D01*
X109065536Y-104514500D01*
X108927449Y-104555045D01*
X108806373Y-104632856D01*
X108712123Y-104741626D01*
X108712122Y-104741628D01*
X108652334Y-104872543D01*
X108631853Y-105015000D01*
X104638474Y-105015000D01*
X104724536Y-104902841D01*
X104785044Y-104756762D01*
X104805682Y-104600000D01*
X104804431Y-104590500D01*
X104785044Y-104443239D01*
X104785044Y-104443238D01*
X104724536Y-104297159D01*
X104628282Y-104171718D01*
X104502841Y-104075464D01*
X104487373Y-104069057D01*
X104356762Y-104014956D01*
X104356760Y-104014955D01*
X104200001Y-103994318D01*
X104199999Y-103994318D01*
X104043239Y-104014955D01*
X104043237Y-104014956D01*
X103897160Y-104075463D01*
X103771718Y-104171718D01*
X103675463Y-104297160D01*
X103614956Y-104443237D01*
X103614955Y-104443239D01*
X103594318Y-104599998D01*
X102432860Y-104599998D01*
X102468750Y-104537835D01*
X102523997Y-104367803D01*
X102542685Y-104190000D01*
X102523997Y-104012197D01*
X102496373Y-103927181D01*
X102468752Y-103842170D01*
X102468749Y-103842164D01*
X102420282Y-103758216D01*
X102379359Y-103687335D01*
X102319886Y-103621284D01*
X102259735Y-103554478D01*
X102259732Y-103554476D01*
X102259731Y-103554475D01*
X102259730Y-103554474D01*
X102115093Y-103449388D01*
X101951767Y-103376671D01*
X101951765Y-103376670D01*
X101824094Y-103349533D01*
X101776891Y-103339500D01*
X101598109Y-103339500D01*
X101567454Y-103346015D01*
X101423233Y-103376670D01*
X101423228Y-103376672D01*
X101259908Y-103449387D01*
X101115268Y-103554475D01*
X100995640Y-103687336D01*
X100906250Y-103842164D01*
X100906247Y-103842170D01*
X100851004Y-104012192D01*
X100851003Y-104012194D01*
X100832315Y-104190000D01*
X99488000Y-104190000D01*
X99488000Y-102690000D01*
X111781853Y-102690000D01*
X111802334Y-102832456D01*
X111857486Y-102953220D01*
X111862123Y-102963373D01*
X111956372Y-103072143D01*
X112077447Y-103149953D01*
X112077450Y-103149954D01*
X112077449Y-103149954D01*
X112215536Y-103190499D01*
X112215538Y-103190500D01*
X112215539Y-103190500D01*
X112359462Y-103190500D01*
X112359462Y-103190499D01*
X112497553Y-103149953D01*
X112618628Y-103072143D01*
X112712877Y-102963373D01*
X112772665Y-102832457D01*
X112793147Y-102690000D01*
X112772665Y-102547543D01*
X112712877Y-102416627D01*
X112618628Y-102307857D01*
X112497553Y-102230047D01*
X112497551Y-102230046D01*
X112497549Y-102230045D01*
X112497550Y-102230045D01*
X112359463Y-102189500D01*
X112359461Y-102189500D01*
X112215539Y-102189500D01*
X112215536Y-102189500D01*
X112077449Y-102230045D01*
X111956373Y-102307856D01*
X111862123Y-102416626D01*
X111862122Y-102416628D01*
X111802334Y-102547543D01*
X111781853Y-102690000D01*
X99488000Y-102690000D01*
X99488000Y-101590000D01*
X100832315Y-101590000D01*
X100851003Y-101767805D01*
X100851004Y-101767807D01*
X100906247Y-101937829D01*
X100906250Y-101937835D01*
X100995641Y-102092665D01*
X101015752Y-102115000D01*
X101115264Y-102225521D01*
X101115267Y-102225523D01*
X101115270Y-102225526D01*
X101259907Y-102330612D01*
X101423233Y-102403329D01*
X101598109Y-102440500D01*
X101598110Y-102440500D01*
X101776889Y-102440500D01*
X101776891Y-102440500D01*
X101951767Y-102403329D01*
X102115093Y-102330612D01*
X102259730Y-102225526D01*
X102359248Y-102115000D01*
X109881853Y-102115000D01*
X109902334Y-102257456D01*
X109958443Y-102380315D01*
X109962123Y-102388373D01*
X110056372Y-102497143D01*
X110177447Y-102574953D01*
X110177450Y-102574954D01*
X110177449Y-102574954D01*
X110315536Y-102615499D01*
X110315538Y-102615500D01*
X110315539Y-102615500D01*
X110459462Y-102615500D01*
X110459462Y-102615499D01*
X110597553Y-102574953D01*
X110718628Y-102497143D01*
X110812877Y-102388373D01*
X110872665Y-102257457D01*
X110893147Y-102115000D01*
X110872665Y-101972543D01*
X110812877Y-101841627D01*
X110718628Y-101732857D01*
X110597553Y-101655047D01*
X110597551Y-101655046D01*
X110597549Y-101655045D01*
X110597550Y-101655045D01*
X110459463Y-101614500D01*
X110459461Y-101614500D01*
X110315539Y-101614500D01*
X110315536Y-101614500D01*
X110177449Y-101655045D01*
X110056373Y-101732856D01*
X109962123Y-101841626D01*
X109962122Y-101841628D01*
X109902334Y-101972543D01*
X109881853Y-102115000D01*
X102359248Y-102115000D01*
X102379359Y-102092665D01*
X102468750Y-101937835D01*
X102523997Y-101767803D01*
X102542685Y-101590000D01*
X102523997Y-101412197D01*
X102468750Y-101242165D01*
X102379359Y-101087335D01*
X102300723Y-101000001D01*
X102259735Y-100954478D01*
X102259732Y-100954476D01*
X102259731Y-100954475D01*
X102259730Y-100954474D01*
X102115093Y-100849388D01*
X101951767Y-100776671D01*
X101951765Y-100776670D01*
X101824094Y-100749533D01*
X101776891Y-100739500D01*
X101598109Y-100739500D01*
X101567454Y-100746015D01*
X101423233Y-100776670D01*
X101423228Y-100776672D01*
X101259908Y-100849387D01*
X101115268Y-100954475D01*
X100995640Y-101087336D01*
X100906250Y-101242164D01*
X100906247Y-101242170D01*
X100851004Y-101412192D01*
X100851003Y-101412194D01*
X100832315Y-101590000D01*
X99488000Y-101590000D01*
X99488000Y-98999998D01*
X102894318Y-98999998D01*
X102894318Y-99000001D01*
X102914955Y-99156760D01*
X102914956Y-99156762D01*
X102975464Y-99302842D01*
X103068826Y-99424514D01*
X103094020Y-99489683D01*
X103079981Y-99558128D01*
X103068826Y-99575486D01*
X102975464Y-99697157D01*
X102914956Y-99843237D01*
X102914955Y-99843239D01*
X102894318Y-99999998D01*
X102894318Y-100000001D01*
X102914955Y-100156760D01*
X102914956Y-100156762D01*
X102975464Y-100302842D01*
X103068826Y-100424514D01*
X103094020Y-100489683D01*
X103079981Y-100558128D01*
X103068826Y-100575486D01*
X102975464Y-100697157D01*
X102914956Y-100843237D01*
X102914955Y-100843239D01*
X102894318Y-100999998D01*
X102894318Y-101000001D01*
X102914955Y-101156760D01*
X102914956Y-101156762D01*
X102975464Y-101302841D01*
X103071718Y-101428282D01*
X103197159Y-101524536D01*
X103343238Y-101585044D01*
X103380883Y-101590000D01*
X103499999Y-101605682D01*
X103500000Y-101605682D01*
X103500001Y-101605682D01*
X103552254Y-101598802D01*
X103656762Y-101585044D01*
X103802841Y-101524536D01*
X103928282Y-101428282D01*
X104024536Y-101302841D01*
X104085044Y-101156762D01*
X104105682Y-101000000D01*
X104103162Y-100980861D01*
X104085854Y-100849388D01*
X104085044Y-100843238D01*
X104024536Y-100697159D01*
X103931171Y-100575484D01*
X103905979Y-100510317D01*
X103920017Y-100441873D01*
X103931167Y-100424521D01*
X104024536Y-100302841D01*
X104085044Y-100156762D01*
X104105682Y-100000000D01*
X104085044Y-99843238D01*
X104024536Y-99697159D01*
X104024534Y-99697156D01*
X104020472Y-99690119D01*
X104023228Y-99688527D01*
X104003429Y-99637320D01*
X104017465Y-99568875D01*
X104066278Y-99518884D01*
X104134369Y-99503218D01*
X104188787Y-99522778D01*
X104190119Y-99520472D01*
X104197157Y-99524534D01*
X104197159Y-99524536D01*
X104343238Y-99585044D01*
X104421619Y-99595363D01*
X104499999Y-99605682D01*
X104500000Y-99605682D01*
X104500001Y-99605682D01*
X104552254Y-99598802D01*
X104656762Y-99585044D01*
X104802841Y-99524536D01*
X104924515Y-99431171D01*
X104989683Y-99405979D01*
X105058127Y-99420017D01*
X105075478Y-99431167D01*
X105197159Y-99524536D01*
X105343238Y-99585044D01*
X105421619Y-99595363D01*
X105499999Y-99605682D01*
X105500000Y-99605682D01*
X105500001Y-99605682D01*
X105552254Y-99598802D01*
X105656762Y-99585044D01*
X105802841Y-99524536D01*
X105928282Y-99428282D01*
X106024536Y-99302841D01*
X106085044Y-99156762D01*
X106105682Y-99000000D01*
X106098675Y-98946780D01*
X106086344Y-98853115D01*
X106085044Y-98843238D01*
X106024536Y-98697159D01*
X105928282Y-98571718D01*
X105802841Y-98475464D01*
X105656762Y-98414956D01*
X105656760Y-98414955D01*
X105500001Y-98394318D01*
X105499999Y-98394318D01*
X105343239Y-98414955D01*
X105343237Y-98414956D01*
X105197157Y-98475464D01*
X105075486Y-98568826D01*
X105010317Y-98594020D01*
X104941872Y-98579981D01*
X104924514Y-98568826D01*
X104802842Y-98475464D01*
X104656762Y-98414956D01*
X104656760Y-98414955D01*
X104500001Y-98394318D01*
X104499999Y-98394318D01*
X104343239Y-98414955D01*
X104343237Y-98414956D01*
X104197157Y-98475464D01*
X104075486Y-98568826D01*
X104010317Y-98594020D01*
X103941872Y-98579981D01*
X103924514Y-98568826D01*
X103802842Y-98475464D01*
X103656762Y-98414956D01*
X103656760Y-98414955D01*
X103500001Y-98394318D01*
X103499999Y-98394318D01*
X103343239Y-98414955D01*
X103343237Y-98414956D01*
X103197160Y-98475463D01*
X103071718Y-98571718D01*
X102975463Y-98697160D01*
X102914956Y-98843237D01*
X102914955Y-98843239D01*
X102894318Y-98999998D01*
X99488000Y-98999998D01*
X99488000Y-96420513D01*
X100912000Y-96420513D01*
X100912000Y-96609486D01*
X100941559Y-96796118D01*
X100999954Y-96975836D01*
X101042815Y-97059954D01*
X101085740Y-97144199D01*
X101196810Y-97297073D01*
X101330427Y-97430690D01*
X101483301Y-97541760D01*
X101562847Y-97582290D01*
X101651663Y-97627545D01*
X101651665Y-97627545D01*
X101651668Y-97627547D01*
X101747997Y-97658846D01*
X101831381Y-97685940D01*
X102018014Y-97715500D01*
X102018019Y-97715500D01*
X103706986Y-97715500D01*
X103893618Y-97685940D01*
X103922948Y-97676410D01*
X104073332Y-97627547D01*
X104241699Y-97541760D01*
X104394573Y-97430690D01*
X104528190Y-97297073D01*
X104639260Y-97144199D01*
X104725047Y-96975832D01*
X104783440Y-96796118D01*
X104795632Y-96719139D01*
X104813000Y-96609486D01*
X104813000Y-96420513D01*
X104783440Y-96233881D01*
X104764308Y-96175000D01*
X121356853Y-96175000D01*
X121377334Y-96317456D01*
X121424402Y-96420519D01*
X121437123Y-96448373D01*
X121531372Y-96557143D01*
X121652447Y-96634953D01*
X121652450Y-96634954D01*
X121652449Y-96634954D01*
X121790536Y-96675499D01*
X121790538Y-96675500D01*
X121790539Y-96675500D01*
X121934462Y-96675500D01*
X121934462Y-96675499D01*
X122072553Y-96634953D01*
X122193628Y-96557143D01*
X122268787Y-96470403D01*
X122327564Y-96432629D01*
X122397434Y-96432629D01*
X122456212Y-96470403D01*
X122456213Y-96470404D01*
X122504426Y-96526046D01*
X122531372Y-96557143D01*
X122652447Y-96634953D01*
X122652450Y-96634954D01*
X122652449Y-96634954D01*
X122790536Y-96675499D01*
X122790538Y-96675500D01*
X122790539Y-96675500D01*
X122934462Y-96675500D01*
X122934462Y-96675499D01*
X123072553Y-96634953D01*
X123126941Y-96600000D01*
X136794353Y-96600000D01*
X136814834Y-96742456D01*
X136839341Y-96796118D01*
X136874623Y-96873373D01*
X136968872Y-96982143D01*
X137089947Y-97059953D01*
X137089950Y-97059954D01*
X137089949Y-97059954D01*
X137228036Y-97100499D01*
X137228038Y-97100500D01*
X137228039Y-97100500D01*
X137371962Y-97100500D01*
X137371962Y-97100499D01*
X137510053Y-97059953D01*
X137631128Y-96982143D01*
X137676310Y-96930000D01*
X157131917Y-96930000D01*
X157152199Y-97135932D01*
X157152200Y-97135934D01*
X157212268Y-97333954D01*
X157309815Y-97516450D01*
X157330586Y-97541760D01*
X157441089Y-97676410D01*
X157514103Y-97736330D01*
X157601050Y-97807685D01*
X157783546Y-97905232D01*
X157981566Y-97965300D01*
X157981565Y-97965300D01*
X158000029Y-97967118D01*
X158187500Y-97985583D01*
X158393434Y-97965300D01*
X158591454Y-97905232D01*
X158773950Y-97807685D01*
X158933910Y-97676410D01*
X159065185Y-97516450D01*
X159162732Y-97333954D01*
X159222800Y-97135934D01*
X159243083Y-96930000D01*
X159222800Y-96724066D01*
X159162732Y-96526046D01*
X159065185Y-96343550D01*
X159013202Y-96280209D01*
X158933910Y-96183589D01*
X158816177Y-96086969D01*
X158773950Y-96052315D01*
X158591454Y-95954768D01*
X158410906Y-95900000D01*
X163294353Y-95900000D01*
X163314834Y-96042456D01*
X163374622Y-96173371D01*
X163374623Y-96173373D01*
X163468872Y-96282143D01*
X163589947Y-96359953D01*
X163589950Y-96359954D01*
X163589949Y-96359954D01*
X163728036Y-96400499D01*
X163728038Y-96400500D01*
X163728039Y-96400500D01*
X163871962Y-96400500D01*
X163871962Y-96400499D01*
X164010053Y-96359953D01*
X164131128Y-96282143D01*
X164225377Y-96173373D01*
X164285165Y-96042457D01*
X164305647Y-95900000D01*
X164285165Y-95757543D01*
X164225377Y-95626627D01*
X164131128Y-95517857D01*
X164010053Y-95440047D01*
X164010051Y-95440046D01*
X164010049Y-95440045D01*
X164010050Y-95440045D01*
X163871963Y-95399500D01*
X163871961Y-95399500D01*
X163728039Y-95399500D01*
X163728036Y-95399500D01*
X163589949Y-95440045D01*
X163468873Y-95517856D01*
X163374623Y-95626626D01*
X163374622Y-95626628D01*
X163314834Y-95757543D01*
X163294353Y-95900000D01*
X158410906Y-95900000D01*
X158393434Y-95894700D01*
X158393432Y-95894699D01*
X158393434Y-95894699D01*
X158187500Y-95874417D01*
X157981567Y-95894699D01*
X157783543Y-95954769D01*
X157673398Y-96013643D01*
X157601050Y-96052315D01*
X157601048Y-96052316D01*
X157601047Y-96052317D01*
X157441089Y-96183589D01*
X157323703Y-96326627D01*
X157309815Y-96343550D01*
X157301047Y-96359954D01*
X157212269Y-96526043D01*
X157152199Y-96724067D01*
X157131917Y-96930000D01*
X137676310Y-96930000D01*
X137725377Y-96873373D01*
X137785165Y-96742457D01*
X137805647Y-96600000D01*
X137785165Y-96457543D01*
X137725377Y-96326627D01*
X137631128Y-96217857D01*
X137510053Y-96140047D01*
X137510051Y-96140046D01*
X137510049Y-96140045D01*
X137510050Y-96140045D01*
X137371963Y-96099500D01*
X137371961Y-96099500D01*
X137228039Y-96099500D01*
X137228036Y-96099500D01*
X137089949Y-96140045D01*
X136968873Y-96217856D01*
X136874623Y-96326626D01*
X136874622Y-96326628D01*
X136814834Y-96457543D01*
X136794353Y-96600000D01*
X123126941Y-96600000D01*
X123193628Y-96557143D01*
X123287877Y-96448373D01*
X123347665Y-96317457D01*
X123368147Y-96175000D01*
X123347665Y-96032543D01*
X123287877Y-95901627D01*
X123199815Y-95799997D01*
X135469196Y-95799997D01*
X135469196Y-95800002D01*
X135490279Y-95933121D01*
X135490280Y-95933124D01*
X135490281Y-95933126D01*
X135545988Y-96042457D01*
X135551473Y-96053221D01*
X135551476Y-96053225D01*
X135646774Y-96148523D01*
X135646778Y-96148526D01*
X135646780Y-96148528D01*
X135766874Y-96209719D01*
X135766876Y-96209719D01*
X135766878Y-96209720D01*
X135899998Y-96230804D01*
X135900000Y-96230804D01*
X135900002Y-96230804D01*
X136033121Y-96209720D01*
X136033121Y-96209719D01*
X136033126Y-96209719D01*
X136153220Y-96148528D01*
X136248528Y-96053220D01*
X136309719Y-95933126D01*
X136309720Y-95933121D01*
X136330804Y-95800002D01*
X136330804Y-95799997D01*
X136309720Y-95666878D01*
X136309719Y-95666876D01*
X136309719Y-95666874D01*
X136248528Y-95546780D01*
X136248526Y-95546778D01*
X136248523Y-95546774D01*
X136153225Y-95451476D01*
X136153221Y-95451473D01*
X136153220Y-95451472D01*
X136033126Y-95390281D01*
X136033124Y-95390280D01*
X136033121Y-95390279D01*
X135900002Y-95369196D01*
X135899998Y-95369196D01*
X135766878Y-95390279D01*
X135646778Y-95451473D01*
X135646774Y-95451476D01*
X135551476Y-95546774D01*
X135551473Y-95546778D01*
X135490279Y-95666878D01*
X135469196Y-95799997D01*
X123199815Y-95799997D01*
X123193628Y-95792857D01*
X123072553Y-95715047D01*
X123072551Y-95715046D01*
X123072549Y-95715045D01*
X123072550Y-95715045D01*
X122934463Y-95674500D01*
X122934461Y-95674500D01*
X122790539Y-95674500D01*
X122790536Y-95674500D01*
X122652449Y-95715045D01*
X122531373Y-95792856D01*
X122531372Y-95792856D01*
X122531372Y-95792857D01*
X122460701Y-95874417D01*
X122456213Y-95879596D01*
X122397435Y-95917370D01*
X122327565Y-95917370D01*
X122268787Y-95879596D01*
X122193628Y-95792857D01*
X122072553Y-95715047D01*
X122072551Y-95715046D01*
X122072549Y-95715045D01*
X122072550Y-95715045D01*
X121934463Y-95674500D01*
X121934461Y-95674500D01*
X121790539Y-95674500D01*
X121790536Y-95674500D01*
X121652449Y-95715045D01*
X121531373Y-95792856D01*
X121437123Y-95901626D01*
X121437122Y-95901628D01*
X121377334Y-96032543D01*
X121356853Y-96175000D01*
X104764308Y-96175000D01*
X104725045Y-96054163D01*
X104663373Y-95933126D01*
X104639260Y-95885801D01*
X104528190Y-95732927D01*
X104394573Y-95599310D01*
X104241699Y-95488240D01*
X104073336Y-95402454D01*
X103893618Y-95344059D01*
X103706986Y-95314500D01*
X103706981Y-95314500D01*
X102018019Y-95314500D01*
X102018014Y-95314500D01*
X101831381Y-95344059D01*
X101651663Y-95402454D01*
X101483300Y-95488240D01*
X101402736Y-95546774D01*
X101330427Y-95599310D01*
X101330425Y-95599312D01*
X101330424Y-95599312D01*
X101196812Y-95732924D01*
X101196812Y-95732925D01*
X101196810Y-95732927D01*
X101153269Y-95792856D01*
X101085740Y-95885800D01*
X100999954Y-96054163D01*
X100941559Y-96233881D01*
X100912000Y-96420513D01*
X99488000Y-96420513D01*
X99488000Y-95214997D01*
X120431696Y-95214997D01*
X120431696Y-95215002D01*
X120452779Y-95348121D01*
X120452780Y-95348124D01*
X120452781Y-95348126D01*
X120513972Y-95468220D01*
X120513973Y-95468221D01*
X120513976Y-95468225D01*
X120609274Y-95563523D01*
X120609278Y-95563526D01*
X120609280Y-95563528D01*
X120729374Y-95624719D01*
X120729376Y-95624719D01*
X120729378Y-95624720D01*
X120862498Y-95645804D01*
X120862500Y-95645804D01*
X120862502Y-95645804D01*
X120995621Y-95624720D01*
X120995621Y-95624719D01*
X120995626Y-95624719D01*
X121115720Y-95563528D01*
X121211028Y-95468220D01*
X121272219Y-95348126D01*
X121273739Y-95338528D01*
X121293304Y-95215002D01*
X121293304Y-95214997D01*
X121272220Y-95081878D01*
X121272219Y-95081876D01*
X121272219Y-95081874D01*
X121225405Y-94989997D01*
X123656696Y-94989997D01*
X123656696Y-94990002D01*
X123677779Y-95123121D01*
X123677780Y-95123124D01*
X123677781Y-95123126D01*
X123738972Y-95243220D01*
X123738973Y-95243221D01*
X123738976Y-95243225D01*
X123834274Y-95338523D01*
X123834278Y-95338526D01*
X123834280Y-95338528D01*
X123954374Y-95399719D01*
X123954376Y-95399719D01*
X123954378Y-95399720D01*
X124087498Y-95420804D01*
X124087500Y-95420804D01*
X124087502Y-95420804D01*
X124220621Y-95399720D01*
X124220621Y-95399719D01*
X124220626Y-95399719D01*
X124340720Y-95338528D01*
X124436028Y-95243220D01*
X124497219Y-95123126D01*
X124518304Y-94990000D01*
X124516158Y-94976452D01*
X124497220Y-94856878D01*
X124497219Y-94856876D01*
X124497219Y-94856874D01*
X124436028Y-94736780D01*
X124436026Y-94736778D01*
X124436023Y-94736774D01*
X124340725Y-94641476D01*
X124340721Y-94641473D01*
X124340720Y-94641472D01*
X124220626Y-94580281D01*
X124220624Y-94580280D01*
X124220621Y-94580279D01*
X124087502Y-94559196D01*
X124087498Y-94559196D01*
X123954378Y-94580279D01*
X123834278Y-94641473D01*
X123834274Y-94641476D01*
X123738976Y-94736774D01*
X123738973Y-94736778D01*
X123677779Y-94856878D01*
X123656696Y-94989997D01*
X121225405Y-94989997D01*
X121211028Y-94961780D01*
X121211026Y-94961778D01*
X121211023Y-94961774D01*
X121115725Y-94866476D01*
X121115721Y-94866473D01*
X121115720Y-94866472D01*
X120995626Y-94805281D01*
X120995624Y-94805280D01*
X120995621Y-94805279D01*
X120862502Y-94784196D01*
X120862498Y-94784196D01*
X120729378Y-94805279D01*
X120609278Y-94866473D01*
X120609274Y-94866476D01*
X120513976Y-94961774D01*
X120513973Y-94961778D01*
X120452779Y-95081878D01*
X120431696Y-95214997D01*
X99488000Y-95214997D01*
X99488000Y-94464997D01*
X117081696Y-94464997D01*
X117081696Y-94465002D01*
X117102779Y-94598121D01*
X117102780Y-94598124D01*
X117102781Y-94598126D01*
X117124869Y-94641476D01*
X117163973Y-94718221D01*
X117163976Y-94718225D01*
X117259274Y-94813523D01*
X117259278Y-94813526D01*
X117259280Y-94813528D01*
X117379374Y-94874719D01*
X117379376Y-94874719D01*
X117379378Y-94874720D01*
X117512498Y-94895804D01*
X117512500Y-94895804D01*
X117512502Y-94895804D01*
X117645621Y-94874720D01*
X117645621Y-94874719D01*
X117645626Y-94874719D01*
X117765720Y-94813528D01*
X117861028Y-94718220D01*
X117922219Y-94598126D01*
X117922566Y-94595934D01*
X117937761Y-94499997D01*
X137369196Y-94499997D01*
X137369196Y-94500002D01*
X137390279Y-94633121D01*
X137390280Y-94633124D01*
X137390281Y-94633126D01*
X137451472Y-94753220D01*
X137451473Y-94753221D01*
X137451476Y-94753225D01*
X137546774Y-94848523D01*
X137546778Y-94848526D01*
X137546780Y-94848528D01*
X137666874Y-94909719D01*
X137666876Y-94909719D01*
X137666878Y-94909720D01*
X137799998Y-94930804D01*
X137800000Y-94930804D01*
X137800002Y-94930804D01*
X137933123Y-94909720D01*
X137933124Y-94909719D01*
X137933126Y-94909719D01*
X137993705Y-94878851D01*
X138062373Y-94865955D01*
X138106293Y-94878851D01*
X138139565Y-94895804D01*
X138166874Y-94909719D01*
X138166876Y-94909720D01*
X138299998Y-94930804D01*
X138300000Y-94930804D01*
X138300002Y-94930804D01*
X138433123Y-94909720D01*
X138433124Y-94909719D01*
X138433126Y-94909719D01*
X138493705Y-94878851D01*
X138562373Y-94865955D01*
X138606293Y-94878851D01*
X138639565Y-94895804D01*
X138666874Y-94909719D01*
X138666876Y-94909720D01*
X138799998Y-94930804D01*
X138800000Y-94930804D01*
X138800002Y-94930804D01*
X138933123Y-94909720D01*
X138933124Y-94909719D01*
X138933126Y-94909719D01*
X138993705Y-94878851D01*
X139062373Y-94865955D01*
X139106293Y-94878851D01*
X139139565Y-94895804D01*
X139166874Y-94909719D01*
X139166876Y-94909720D01*
X139299998Y-94930804D01*
X139300000Y-94930804D01*
X139300002Y-94930804D01*
X139433121Y-94909720D01*
X139433121Y-94909719D01*
X139433126Y-94909719D01*
X139553220Y-94848528D01*
X139648528Y-94753220D01*
X139709719Y-94633126D01*
X139709720Y-94633121D01*
X139730804Y-94500002D01*
X139730804Y-94499997D01*
X139709720Y-94366878D01*
X139709719Y-94366876D01*
X139709719Y-94366874D01*
X139648528Y-94246780D01*
X139648526Y-94246778D01*
X139648523Y-94246774D01*
X139553225Y-94151476D01*
X139553221Y-94151473D01*
X139553220Y-94151472D01*
X139433126Y-94090281D01*
X139433124Y-94090280D01*
X139433121Y-94090279D01*
X139300002Y-94069196D01*
X139299998Y-94069196D01*
X139166877Y-94090279D01*
X139106293Y-94121148D01*
X139037624Y-94134043D01*
X138993707Y-94121148D01*
X138933122Y-94090279D01*
X138800002Y-94069196D01*
X138799998Y-94069196D01*
X138666877Y-94090279D01*
X138606293Y-94121148D01*
X138537624Y-94134043D01*
X138493707Y-94121148D01*
X138433122Y-94090279D01*
X138300002Y-94069196D01*
X138299998Y-94069196D01*
X138166877Y-94090279D01*
X138106293Y-94121148D01*
X138037624Y-94134043D01*
X137993707Y-94121148D01*
X137933122Y-94090279D01*
X137800002Y-94069196D01*
X137799998Y-94069196D01*
X137666878Y-94090279D01*
X137546778Y-94151473D01*
X137546774Y-94151476D01*
X137451476Y-94246774D01*
X137451473Y-94246778D01*
X137390279Y-94366878D01*
X137369196Y-94499997D01*
X117937761Y-94499997D01*
X117943304Y-94465002D01*
X117943304Y-94464997D01*
X117922220Y-94331878D01*
X117922219Y-94331876D01*
X117922219Y-94331874D01*
X117861028Y-94211780D01*
X117861026Y-94211778D01*
X117861023Y-94211774D01*
X117765725Y-94116476D01*
X117765721Y-94116473D01*
X117765720Y-94116472D01*
X117645626Y-94055281D01*
X117645624Y-94055280D01*
X117645621Y-94055279D01*
X117512502Y-94034196D01*
X117512498Y-94034196D01*
X117379378Y-94055279D01*
X117259278Y-94116473D01*
X117259274Y-94116476D01*
X117163976Y-94211774D01*
X117163973Y-94211778D01*
X117102779Y-94331878D01*
X117081696Y-94464997D01*
X99488000Y-94464997D01*
X99488000Y-91921379D01*
X99912000Y-91921379D01*
X99912000Y-92108620D01*
X99948525Y-92292243D01*
X99948527Y-92292251D01*
X100020176Y-92465228D01*
X100020181Y-92465237D01*
X100124197Y-92620907D01*
X100124200Y-92620911D01*
X100256588Y-92753299D01*
X100256592Y-92753302D01*
X100412262Y-92857318D01*
X100412268Y-92857321D01*
X100412269Y-92857322D01*
X100585249Y-92928973D01*
X100768879Y-92965499D01*
X100768883Y-92965500D01*
X100768884Y-92965500D01*
X100956117Y-92965500D01*
X100956118Y-92965499D01*
X101139751Y-92928973D01*
X101312731Y-92857322D01*
X101468408Y-92753302D01*
X101600802Y-92620908D01*
X101704822Y-92465231D01*
X101776473Y-92292251D01*
X101813000Y-92108616D01*
X101813000Y-91921384D01*
X101776473Y-91737749D01*
X101713939Y-91586780D01*
X101704823Y-91564771D01*
X101704818Y-91564762D01*
X101600802Y-91409092D01*
X101600799Y-91409088D01*
X101468411Y-91276700D01*
X101468407Y-91276697D01*
X101459152Y-91270513D01*
X102662000Y-91270513D01*
X102662000Y-92759486D01*
X102691559Y-92946118D01*
X102749954Y-93125836D01*
X102835740Y-93294199D01*
X102946810Y-93447073D01*
X103080427Y-93580690D01*
X103233301Y-93691760D01*
X103312847Y-93732290D01*
X103401663Y-93777545D01*
X103401665Y-93777545D01*
X103401668Y-93777547D01*
X103497997Y-93808846D01*
X103581381Y-93835940D01*
X103768014Y-93865500D01*
X103768019Y-93865500D01*
X103956986Y-93865500D01*
X104143618Y-93835940D01*
X104154073Y-93832543D01*
X104323332Y-93777547D01*
X104491699Y-93691760D01*
X104644573Y-93580690D01*
X104778190Y-93447073D01*
X104889260Y-93294199D01*
X104975047Y-93125832D01*
X105033440Y-92946118D01*
X105036155Y-92928974D01*
X105063000Y-92759486D01*
X105063000Y-91270513D01*
X105033440Y-91083881D01*
X104995422Y-90966876D01*
X104975047Y-90904168D01*
X104975045Y-90904165D01*
X104975045Y-90904163D01*
X104898135Y-90753220D01*
X104889260Y-90735801D01*
X104778190Y-90582927D01*
X104644573Y-90449310D01*
X104491699Y-90338240D01*
X104323336Y-90252454D01*
X104143618Y-90194059D01*
X103956986Y-90164500D01*
X103956981Y-90164500D01*
X103768019Y-90164500D01*
X103768014Y-90164500D01*
X103581381Y-90194059D01*
X103401663Y-90252454D01*
X103233300Y-90338240D01*
X103193884Y-90366878D01*
X103080427Y-90449310D01*
X103080425Y-90449312D01*
X103080424Y-90449312D01*
X102946812Y-90582924D01*
X102946812Y-90582925D01*
X102946810Y-90582927D01*
X102910342Y-90633121D01*
X102835740Y-90735800D01*
X102749954Y-90904163D01*
X102691559Y-91083881D01*
X102662000Y-91270513D01*
X101459152Y-91270513D01*
X101312737Y-91172681D01*
X101312728Y-91172676D01*
X101139751Y-91101027D01*
X101139743Y-91101025D01*
X100956120Y-91064500D01*
X100956116Y-91064500D01*
X100768884Y-91064500D01*
X100768879Y-91064500D01*
X100585256Y-91101025D01*
X100585248Y-91101027D01*
X100412271Y-91172676D01*
X100412262Y-91172681D01*
X100256592Y-91276697D01*
X100256588Y-91276700D01*
X100124200Y-91409088D01*
X100124197Y-91409092D01*
X100020181Y-91564762D01*
X100020176Y-91564771D01*
X99948527Y-91737748D01*
X99948525Y-91737756D01*
X99912000Y-91921379D01*
X99488000Y-91921379D01*
X99488000Y-89995247D01*
X108662000Y-89995247D01*
X108662000Y-94034752D01*
X108673631Y-94093229D01*
X108673632Y-94093230D01*
X108717947Y-94159552D01*
X108784269Y-94203867D01*
X108784270Y-94203868D01*
X108842747Y-94215499D01*
X108842750Y-94215500D01*
X108842752Y-94215500D01*
X110882250Y-94215500D01*
X110882251Y-94215499D01*
X110900980Y-94211774D01*
X110940729Y-94203868D01*
X110940729Y-94203867D01*
X110940731Y-94203867D01*
X111007052Y-94159552D01*
X111051367Y-94093231D01*
X111051367Y-94093229D01*
X111051368Y-94093229D01*
X111062999Y-94034752D01*
X111063000Y-94034750D01*
X111063000Y-93975000D01*
X142794353Y-93975000D01*
X142814834Y-94117456D01*
X142873895Y-94246780D01*
X142874623Y-94248373D01*
X142968872Y-94357143D01*
X143089947Y-94434953D01*
X143089950Y-94434954D01*
X143089949Y-94434954D01*
X143228036Y-94475499D01*
X143228038Y-94475500D01*
X143228039Y-94475500D01*
X143371962Y-94475500D01*
X143371962Y-94475499D01*
X143510053Y-94434953D01*
X143580001Y-94390000D01*
X157131917Y-94390000D01*
X157152199Y-94595932D01*
X157166014Y-94641473D01*
X157212268Y-94793954D01*
X157309815Y-94976450D01*
X157309817Y-94976452D01*
X157441089Y-95136410D01*
X157536849Y-95214997D01*
X157601050Y-95267685D01*
X157783546Y-95365232D01*
X157981566Y-95425300D01*
X157981565Y-95425300D01*
X158000029Y-95427118D01*
X158187500Y-95445583D01*
X158393434Y-95425300D01*
X158591454Y-95365232D01*
X158773950Y-95267685D01*
X158933910Y-95136410D01*
X159065185Y-94976450D01*
X159162732Y-94793954D01*
X159222800Y-94595934D01*
X159243083Y-94390000D01*
X159222800Y-94184066D01*
X159162732Y-93986046D01*
X159065185Y-93803550D01*
X159013202Y-93740209D01*
X158933910Y-93643589D01*
X158777279Y-93515047D01*
X158773950Y-93512315D01*
X158591454Y-93414768D01*
X158393434Y-93354700D01*
X158393432Y-93354699D01*
X158393434Y-93354699D01*
X158187500Y-93334417D01*
X157981567Y-93354699D01*
X157783543Y-93414769D01*
X157720386Y-93448528D01*
X157601050Y-93512315D01*
X157601048Y-93512316D01*
X157601047Y-93512317D01*
X157441089Y-93643589D01*
X157309817Y-93803547D01*
X157212269Y-93986043D01*
X157152199Y-94184067D01*
X157131917Y-94390000D01*
X143580001Y-94390000D01*
X143631128Y-94357143D01*
X143725377Y-94248373D01*
X143785165Y-94117457D01*
X143805647Y-93975000D01*
X143785165Y-93832543D01*
X143725377Y-93701627D01*
X143631128Y-93592857D01*
X143510053Y-93515047D01*
X143510051Y-93515046D01*
X143510049Y-93515045D01*
X143510050Y-93515045D01*
X143371963Y-93474500D01*
X143371961Y-93474500D01*
X143228039Y-93474500D01*
X143228036Y-93474500D01*
X143089949Y-93515045D01*
X142968873Y-93592856D01*
X142874623Y-93701626D01*
X142874622Y-93701628D01*
X142814834Y-93832543D01*
X142794353Y-93975000D01*
X111063000Y-93975000D01*
X111063000Y-93099997D01*
X152769196Y-93099997D01*
X152769196Y-93100002D01*
X152790279Y-93233121D01*
X152790280Y-93233124D01*
X152790281Y-93233126D01*
X152851472Y-93353220D01*
X152851473Y-93353221D01*
X152851476Y-93353225D01*
X152946774Y-93448523D01*
X152946778Y-93448526D01*
X152946780Y-93448528D01*
X153066874Y-93509719D01*
X153066876Y-93509719D01*
X153066878Y-93509720D01*
X153199998Y-93530804D01*
X153200000Y-93530804D01*
X153200002Y-93530804D01*
X153333121Y-93509720D01*
X153333121Y-93509719D01*
X153333126Y-93509719D01*
X153453220Y-93448528D01*
X153548528Y-93353220D01*
X153609719Y-93233126D01*
X153630804Y-93100000D01*
X153609719Y-92966874D01*
X153548528Y-92846780D01*
X153548526Y-92846778D01*
X153548523Y-92846774D01*
X153453225Y-92751476D01*
X153453221Y-92751473D01*
X153453220Y-92751472D01*
X153333126Y-92690281D01*
X153333124Y-92690280D01*
X153333121Y-92690279D01*
X153200002Y-92669196D01*
X153199998Y-92669196D01*
X153066878Y-92690279D01*
X152946778Y-92751473D01*
X152946774Y-92751476D01*
X152851476Y-92846774D01*
X152851473Y-92846778D01*
X152790279Y-92966878D01*
X152769196Y-93099997D01*
X111063000Y-93099997D01*
X111063000Y-91839997D01*
X123656696Y-91839997D01*
X123656696Y-91840002D01*
X123677779Y-91973121D01*
X123677780Y-91973124D01*
X123677781Y-91973126D01*
X123719973Y-92055932D01*
X123738973Y-92093221D01*
X123738976Y-92093225D01*
X123834274Y-92188523D01*
X123834278Y-92188526D01*
X123834280Y-92188528D01*
X123954374Y-92249719D01*
X123954376Y-92249719D01*
X123954378Y-92249720D01*
X124087498Y-92270804D01*
X124087500Y-92270804D01*
X124087502Y-92270804D01*
X124220621Y-92249720D01*
X124220621Y-92249719D01*
X124220626Y-92249719D01*
X124340720Y-92188528D01*
X124436028Y-92093220D01*
X124497219Y-91973126D01*
X124505414Y-91921384D01*
X124516720Y-91850000D01*
X157131917Y-91850000D01*
X157152199Y-92055932D01*
X157152200Y-92055934D01*
X157212268Y-92253954D01*
X157309815Y-92436450D01*
X157309817Y-92436452D01*
X157441089Y-92596410D01*
X157537709Y-92675702D01*
X157601050Y-92727685D01*
X157783546Y-92825232D01*
X157981566Y-92885300D01*
X157981565Y-92885300D01*
X158000029Y-92887118D01*
X158187500Y-92905583D01*
X158393434Y-92885300D01*
X158591454Y-92825232D01*
X158773950Y-92727685D01*
X158933910Y-92596410D01*
X159065185Y-92436450D01*
X159162732Y-92253954D01*
X159222800Y-92055934D01*
X159243083Y-91850000D01*
X159222800Y-91644066D01*
X159162732Y-91446046D01*
X159065185Y-91263550D01*
X158990607Y-91172676D01*
X158933910Y-91103589D01*
X158773952Y-90972317D01*
X158773953Y-90972317D01*
X158773950Y-90972315D01*
X158591454Y-90874768D01*
X158393434Y-90814700D01*
X158393432Y-90814699D01*
X158393434Y-90814699D01*
X158187500Y-90794417D01*
X157981567Y-90814699D01*
X157783543Y-90874769D01*
X157673398Y-90933643D01*
X157601050Y-90972315D01*
X157601048Y-90972316D01*
X157601047Y-90972317D01*
X157441089Y-91103589D01*
X157322143Y-91248528D01*
X157309815Y-91263550D01*
X157273867Y-91330804D01*
X157212269Y-91446043D01*
X157152199Y-91644067D01*
X157131917Y-91850000D01*
X124516720Y-91850000D01*
X124518304Y-91840002D01*
X124518304Y-91839997D01*
X124497220Y-91706878D01*
X124497219Y-91706876D01*
X124497219Y-91706874D01*
X124436028Y-91586780D01*
X124436026Y-91586778D01*
X124436023Y-91586774D01*
X124340725Y-91491476D01*
X124340721Y-91491473D01*
X124340720Y-91491472D01*
X124220626Y-91430281D01*
X124220624Y-91430280D01*
X124220621Y-91430279D01*
X124087502Y-91409196D01*
X124087498Y-91409196D01*
X123954378Y-91430279D01*
X123954374Y-91430280D01*
X123954374Y-91430281D01*
X123918572Y-91448523D01*
X123834278Y-91491473D01*
X123834274Y-91491476D01*
X123738976Y-91586774D01*
X123738973Y-91586778D01*
X123677779Y-91706878D01*
X123656696Y-91839997D01*
X111063000Y-91839997D01*
X111063000Y-90899997D01*
X132469196Y-90899997D01*
X132469196Y-90900002D01*
X132490279Y-91033121D01*
X132490280Y-91033124D01*
X132490281Y-91033126D01*
X132551472Y-91153220D01*
X132551473Y-91153221D01*
X132551476Y-91153225D01*
X132646774Y-91248523D01*
X132646778Y-91248526D01*
X132646780Y-91248528D01*
X132766874Y-91309719D01*
X132766876Y-91309719D01*
X132766878Y-91309720D01*
X132899998Y-91330804D01*
X132900000Y-91330804D01*
X132900002Y-91330804D01*
X133033121Y-91309720D01*
X133033121Y-91309719D01*
X133033126Y-91309719D01*
X133153220Y-91248528D01*
X133248528Y-91153220D01*
X133309719Y-91033126D01*
X133319350Y-90972317D01*
X133330804Y-90900002D01*
X133330804Y-90899997D01*
X133309720Y-90766878D01*
X133309719Y-90766876D01*
X133309719Y-90766874D01*
X133248528Y-90646780D01*
X133248526Y-90646778D01*
X133248523Y-90646774D01*
X133153225Y-90551476D01*
X133153221Y-90551473D01*
X133153220Y-90551472D01*
X133052195Y-90499997D01*
X137569196Y-90499997D01*
X137569196Y-90500002D01*
X137590279Y-90633123D01*
X137646624Y-90743706D01*
X137659520Y-90812375D01*
X137646624Y-90856294D01*
X137590279Y-90966876D01*
X137569196Y-91099997D01*
X137569196Y-91100002D01*
X137590279Y-91233121D01*
X137590280Y-91233124D01*
X137590281Y-91233126D01*
X137651472Y-91353220D01*
X137651473Y-91353221D01*
X137651476Y-91353225D01*
X137746774Y-91448523D01*
X137746778Y-91448526D01*
X137746780Y-91448528D01*
X137866874Y-91509719D01*
X137866876Y-91509719D01*
X137866878Y-91509720D01*
X137999998Y-91530804D01*
X138000000Y-91530804D01*
X138000002Y-91530804D01*
X138133121Y-91509720D01*
X138133121Y-91509719D01*
X138133126Y-91509719D01*
X138253220Y-91448528D01*
X138348528Y-91353220D01*
X138409719Y-91233126D01*
X138419293Y-91172678D01*
X138430804Y-91100002D01*
X138430804Y-91099997D01*
X138409720Y-90966878D01*
X138409719Y-90966876D01*
X138409719Y-90966874D01*
X138353374Y-90856291D01*
X138340479Y-90787626D01*
X138353373Y-90743710D01*
X138409719Y-90633126D01*
X138430804Y-90500000D01*
X138429264Y-90490279D01*
X138409720Y-90366878D01*
X138409719Y-90366876D01*
X138409719Y-90366874D01*
X138348528Y-90246780D01*
X138348526Y-90246778D01*
X138348523Y-90246774D01*
X138253225Y-90151476D01*
X138253221Y-90151473D01*
X138253220Y-90151472D01*
X138133126Y-90090281D01*
X138133124Y-90090280D01*
X138133121Y-90090279D01*
X138000002Y-90069196D01*
X137999998Y-90069196D01*
X137866878Y-90090279D01*
X137746778Y-90151473D01*
X137746774Y-90151476D01*
X137651476Y-90246774D01*
X137651473Y-90246778D01*
X137590279Y-90366878D01*
X137569196Y-90499997D01*
X133052195Y-90499997D01*
X133033126Y-90490281D01*
X133033124Y-90490280D01*
X133033121Y-90490279D01*
X132900002Y-90469196D01*
X132899998Y-90469196D01*
X132766878Y-90490279D01*
X132766874Y-90490280D01*
X132766874Y-90490281D01*
X132686811Y-90531075D01*
X132646778Y-90551473D01*
X132646774Y-90551476D01*
X132551476Y-90646774D01*
X132551473Y-90646778D01*
X132551472Y-90646780D01*
X132506114Y-90735801D01*
X132490279Y-90766878D01*
X132469196Y-90899997D01*
X111063000Y-90899997D01*
X111063000Y-89995249D01*
X111062999Y-89995247D01*
X111051368Y-89936770D01*
X111051367Y-89936769D01*
X111007052Y-89870447D01*
X110940730Y-89826132D01*
X110940729Y-89826131D01*
X110882252Y-89814500D01*
X110882248Y-89814500D01*
X108842752Y-89814500D01*
X108842747Y-89814500D01*
X108784270Y-89826131D01*
X108784269Y-89826132D01*
X108717947Y-89870447D01*
X108673632Y-89936769D01*
X108673631Y-89936770D01*
X108662000Y-89995247D01*
X99488000Y-89995247D01*
X99488000Y-89400000D01*
X149594353Y-89400000D01*
X149614834Y-89542456D01*
X149674622Y-89673371D01*
X149674623Y-89673373D01*
X149768872Y-89782143D01*
X149889947Y-89859953D01*
X149889950Y-89859954D01*
X149889949Y-89859954D01*
X150028036Y-89900499D01*
X150028038Y-89900500D01*
X150028039Y-89900500D01*
X150171962Y-89900500D01*
X150171962Y-89900499D01*
X150310053Y-89859953D01*
X150431128Y-89782143D01*
X150525377Y-89673373D01*
X150585165Y-89542457D01*
X150605647Y-89400000D01*
X150592707Y-89310000D01*
X157131917Y-89310000D01*
X157152199Y-89515932D01*
X157182234Y-89614944D01*
X157212268Y-89713954D01*
X157309815Y-89896450D01*
X157309817Y-89896452D01*
X157441089Y-90056410D01*
X157482362Y-90090281D01*
X157601050Y-90187685D01*
X157783546Y-90285232D01*
X157981566Y-90345300D01*
X157981565Y-90345300D01*
X158000029Y-90347118D01*
X158187500Y-90365583D01*
X158393434Y-90345300D01*
X158591454Y-90285232D01*
X158773950Y-90187685D01*
X158933910Y-90056410D01*
X159065185Y-89896450D01*
X159162732Y-89713954D01*
X159222800Y-89515934D01*
X159243083Y-89310000D01*
X159222800Y-89104066D01*
X159162732Y-88906046D01*
X159065185Y-88723550D01*
X159013202Y-88660209D01*
X158933910Y-88563589D01*
X158773952Y-88432317D01*
X158773953Y-88432317D01*
X158773950Y-88432315D01*
X158591454Y-88334768D01*
X158393434Y-88274700D01*
X158393432Y-88274699D01*
X158393434Y-88274699D01*
X158187500Y-88254417D01*
X157981567Y-88274699D01*
X157783543Y-88334769D01*
X157673398Y-88393643D01*
X157601050Y-88432315D01*
X157601048Y-88432316D01*
X157601047Y-88432317D01*
X157441089Y-88563589D01*
X157316421Y-88715500D01*
X157309815Y-88723550D01*
X157293953Y-88753225D01*
X157212269Y-88906043D01*
X157152199Y-89104067D01*
X157131917Y-89310000D01*
X150592707Y-89310000D01*
X150585165Y-89257543D01*
X150525377Y-89126627D01*
X150431128Y-89017857D01*
X150310053Y-88940047D01*
X150310051Y-88940046D01*
X150310049Y-88940045D01*
X150310050Y-88940045D01*
X150171963Y-88899500D01*
X150171961Y-88899500D01*
X150028039Y-88899500D01*
X150028036Y-88899500D01*
X149889949Y-88940045D01*
X149768873Y-89017856D01*
X149674623Y-89126626D01*
X149674622Y-89126628D01*
X149614834Y-89257543D01*
X149594353Y-89400000D01*
X99488000Y-89400000D01*
X99488000Y-87420513D01*
X100912000Y-87420513D01*
X100912000Y-87609486D01*
X100941559Y-87796118D01*
X100999954Y-87975836D01*
X101047524Y-88069196D01*
X101085740Y-88144199D01*
X101196810Y-88297073D01*
X101330427Y-88430690D01*
X101483301Y-88541760D01*
X101526143Y-88563589D01*
X101651663Y-88627545D01*
X101651665Y-88627545D01*
X101651668Y-88627547D01*
X101747997Y-88658846D01*
X101831381Y-88685940D01*
X102018014Y-88715500D01*
X102018019Y-88715500D01*
X103706986Y-88715500D01*
X103893618Y-88685940D01*
X104073332Y-88627547D01*
X104241699Y-88541760D01*
X104299181Y-88499997D01*
X139669196Y-88499997D01*
X139669196Y-88500002D01*
X139690279Y-88633121D01*
X139690280Y-88633124D01*
X139690281Y-88633126D01*
X139751472Y-88753220D01*
X139751473Y-88753221D01*
X139751476Y-88753225D01*
X139846774Y-88848523D01*
X139846778Y-88848526D01*
X139846780Y-88848528D01*
X139966874Y-88909719D01*
X139966876Y-88909719D01*
X139966878Y-88909720D01*
X140099998Y-88930804D01*
X140100000Y-88930804D01*
X140100002Y-88930804D01*
X140233121Y-88909720D01*
X140233121Y-88909719D01*
X140233126Y-88909719D01*
X140353220Y-88848528D01*
X140448528Y-88753220D01*
X140509719Y-88633126D01*
X140510603Y-88627545D01*
X140530804Y-88500002D01*
X140530804Y-88499997D01*
X140509720Y-88366878D01*
X140509719Y-88366876D01*
X140509719Y-88366874D01*
X140448528Y-88246780D01*
X140448526Y-88246778D01*
X140448523Y-88246774D01*
X140353225Y-88151476D01*
X140353221Y-88151473D01*
X140353220Y-88151472D01*
X140233126Y-88090281D01*
X140233124Y-88090280D01*
X140233121Y-88090279D01*
X140100002Y-88069196D01*
X140099998Y-88069196D01*
X139966878Y-88090279D01*
X139846778Y-88151473D01*
X139846774Y-88151476D01*
X139751476Y-88246774D01*
X139751473Y-88246778D01*
X139690279Y-88366878D01*
X139669196Y-88499997D01*
X104299181Y-88499997D01*
X104394573Y-88430690D01*
X104528190Y-88297073D01*
X104639260Y-88144199D01*
X104725047Y-87975832D01*
X104783440Y-87796118D01*
X104813000Y-87609486D01*
X104813000Y-87420513D01*
X104783440Y-87233881D01*
X104725045Y-87054163D01*
X104639259Y-86885800D01*
X104528190Y-86732927D01*
X104395260Y-86599997D01*
X148669196Y-86599997D01*
X148669196Y-86600002D01*
X148690279Y-86733121D01*
X148690280Y-86733124D01*
X148690281Y-86733126D01*
X148751472Y-86853220D01*
X148751473Y-86853221D01*
X148751476Y-86853225D01*
X148846774Y-86948523D01*
X148846778Y-86948526D01*
X148846780Y-86948528D01*
X148966874Y-87009719D01*
X148966876Y-87009719D01*
X148966878Y-87009720D01*
X149099998Y-87030804D01*
X149100000Y-87030804D01*
X149100002Y-87030804D01*
X149233121Y-87009720D01*
X149233121Y-87009719D01*
X149233126Y-87009719D01*
X149353220Y-86948528D01*
X149448528Y-86853220D01*
X149509719Y-86733126D01*
X149509751Y-86732924D01*
X149530804Y-86600002D01*
X149530804Y-86599997D01*
X149509720Y-86466878D01*
X149509719Y-86466876D01*
X149509719Y-86466874D01*
X149448528Y-86346780D01*
X149448526Y-86346778D01*
X149448523Y-86346774D01*
X149353225Y-86251476D01*
X149353221Y-86251473D01*
X149353220Y-86251472D01*
X149293865Y-86221229D01*
X154590428Y-86221229D01*
X154590428Y-86221234D01*
X154611511Y-86354353D01*
X154611512Y-86354356D01*
X154611513Y-86354358D01*
X154668843Y-86466874D01*
X154672705Y-86474453D01*
X154672708Y-86474457D01*
X154768006Y-86569755D01*
X154768010Y-86569758D01*
X154768012Y-86569760D01*
X154888106Y-86630951D01*
X154888108Y-86630951D01*
X154888110Y-86630952D01*
X155021230Y-86652036D01*
X155021232Y-86652036D01*
X155021234Y-86652036D01*
X155154353Y-86630952D01*
X155154353Y-86630951D01*
X155154358Y-86630951D01*
X155274452Y-86569760D01*
X155369760Y-86474452D01*
X155430951Y-86354358D01*
X155430952Y-86354353D01*
X155452036Y-86221234D01*
X155452036Y-86221229D01*
X155430952Y-86088110D01*
X155430951Y-86088108D01*
X155430951Y-86088106D01*
X155369760Y-85968012D01*
X155369758Y-85968010D01*
X155369755Y-85968006D01*
X155351434Y-85949685D01*
X155324439Y-85900247D01*
X157137000Y-85900247D01*
X157137000Y-87639752D01*
X157148631Y-87698229D01*
X157148632Y-87698230D01*
X157192947Y-87764552D01*
X157259269Y-87808867D01*
X157259270Y-87808868D01*
X157317747Y-87820499D01*
X157317750Y-87820500D01*
X157317752Y-87820500D01*
X159057250Y-87820500D01*
X159057251Y-87820499D01*
X159072068Y-87817552D01*
X159115729Y-87808868D01*
X159115729Y-87808867D01*
X159115731Y-87808867D01*
X159182052Y-87764552D01*
X159226367Y-87698231D01*
X159226367Y-87698229D01*
X159226368Y-87698229D01*
X159237999Y-87639752D01*
X159238000Y-87639750D01*
X159238000Y-85900249D01*
X159237999Y-85900247D01*
X159226368Y-85841770D01*
X159226367Y-85841769D01*
X159182052Y-85775447D01*
X159115730Y-85731132D01*
X159115729Y-85731131D01*
X159057252Y-85719500D01*
X159057248Y-85719500D01*
X157317752Y-85719500D01*
X157317747Y-85719500D01*
X157259270Y-85731131D01*
X157259269Y-85731132D01*
X157192947Y-85775447D01*
X157148632Y-85841769D01*
X157148631Y-85841770D01*
X157137000Y-85900247D01*
X155324439Y-85900247D01*
X155317949Y-85888362D01*
X155322933Y-85818670D01*
X155364805Y-85762737D01*
X155422930Y-85739065D01*
X155443709Y-85736330D01*
X155577625Y-85680861D01*
X155692621Y-85592621D01*
X155780861Y-85477625D01*
X155836330Y-85343709D01*
X155855250Y-85200000D01*
X155836330Y-85056291D01*
X155780861Y-84922375D01*
X155692621Y-84807379D01*
X155577625Y-84719139D01*
X155577624Y-84719138D01*
X155577622Y-84719137D01*
X155443712Y-84663671D01*
X155443710Y-84663670D01*
X155443709Y-84663670D01*
X155371854Y-84654210D01*
X155300001Y-84644750D01*
X155299999Y-84644750D01*
X155156291Y-84663670D01*
X155156287Y-84663671D01*
X155022377Y-84719137D01*
X154907379Y-84807379D01*
X154819137Y-84922377D01*
X154763671Y-85056287D01*
X154763670Y-85056291D01*
X154744750Y-85199999D01*
X154744750Y-85200000D01*
X154763670Y-85343708D01*
X154763671Y-85343712D01*
X154819137Y-85477622D01*
X154819138Y-85477624D01*
X154819139Y-85477625D01*
X154907379Y-85592621D01*
X154915203Y-85598624D01*
X154956406Y-85655051D01*
X154960561Y-85724797D01*
X154926350Y-85785717D01*
X154896012Y-85807485D01*
X154888106Y-85811512D01*
X154888106Y-85811513D01*
X154768012Y-85872704D01*
X154768011Y-85872705D01*
X154768006Y-85872708D01*
X154672708Y-85968006D01*
X154672705Y-85968010D01*
X154611511Y-86088110D01*
X154590428Y-86221229D01*
X149293865Y-86221229D01*
X149233126Y-86190281D01*
X149233124Y-86190280D01*
X149233121Y-86190279D01*
X149100002Y-86169196D01*
X149099998Y-86169196D01*
X148966878Y-86190279D01*
X148846778Y-86251473D01*
X148846774Y-86251476D01*
X148751476Y-86346774D01*
X148751473Y-86346778D01*
X148690279Y-86466878D01*
X148669196Y-86599997D01*
X104395260Y-86599997D01*
X104394573Y-86599310D01*
X104241699Y-86488240D01*
X104073336Y-86402454D01*
X103893618Y-86344059D01*
X103706986Y-86314500D01*
X103706981Y-86314500D01*
X102018019Y-86314500D01*
X102018014Y-86314500D01*
X101831381Y-86344059D01*
X101651663Y-86402454D01*
X101483300Y-86488240D01*
X101453736Y-86509720D01*
X101330427Y-86599310D01*
X101330425Y-86599312D01*
X101330424Y-86599312D01*
X101196812Y-86732924D01*
X101196812Y-86732925D01*
X101196810Y-86732927D01*
X101149110Y-86798579D01*
X101085740Y-86885800D01*
X100999954Y-87054163D01*
X100941559Y-87233881D01*
X100912000Y-87420513D01*
X99488000Y-87420513D01*
X99488000Y-86099997D01*
X133669196Y-86099997D01*
X133669196Y-86100002D01*
X133690279Y-86233121D01*
X133690280Y-86233124D01*
X133690281Y-86233126D01*
X133746805Y-86344060D01*
X133751473Y-86353221D01*
X133751476Y-86353225D01*
X133846774Y-86448523D01*
X133846778Y-86448526D01*
X133846780Y-86448528D01*
X133966874Y-86509719D01*
X133966876Y-86509719D01*
X133966878Y-86509720D01*
X134099998Y-86530804D01*
X134100000Y-86530804D01*
X134100002Y-86530804D01*
X134233121Y-86509720D01*
X134233121Y-86509719D01*
X134233126Y-86509719D01*
X134353220Y-86448528D01*
X134362318Y-86439429D01*
X134423638Y-86405945D01*
X134493330Y-86410927D01*
X134537681Y-86439429D01*
X134546780Y-86448528D01*
X134666874Y-86509719D01*
X134666876Y-86509719D01*
X134666878Y-86509720D01*
X134799998Y-86530804D01*
X134800000Y-86530804D01*
X134800002Y-86530804D01*
X134933121Y-86509720D01*
X134933121Y-86509719D01*
X134933126Y-86509719D01*
X135053220Y-86448528D01*
X135062318Y-86439429D01*
X135123638Y-86405945D01*
X135193330Y-86410927D01*
X135237681Y-86439429D01*
X135246780Y-86448528D01*
X135366874Y-86509719D01*
X135366876Y-86509719D01*
X135366878Y-86509720D01*
X135499998Y-86530804D01*
X135500000Y-86530804D01*
X135500002Y-86530804D01*
X135633121Y-86509720D01*
X135633121Y-86509719D01*
X135633126Y-86509719D01*
X135753220Y-86448528D01*
X135762318Y-86439429D01*
X135823638Y-86405945D01*
X135893330Y-86410927D01*
X135937681Y-86439429D01*
X135946780Y-86448528D01*
X136066874Y-86509719D01*
X136066876Y-86509719D01*
X136066878Y-86509720D01*
X136199998Y-86530804D01*
X136200000Y-86530804D01*
X136200002Y-86530804D01*
X136333121Y-86509720D01*
X136333121Y-86509719D01*
X136333126Y-86509719D01*
X136453220Y-86448528D01*
X136548528Y-86353220D01*
X136609719Y-86233126D01*
X136609720Y-86233121D01*
X136630804Y-86100002D01*
X136630804Y-86099997D01*
X136609720Y-85966878D01*
X136609719Y-85966876D01*
X136609719Y-85966874D01*
X136548528Y-85846780D01*
X136548526Y-85846778D01*
X136548523Y-85846774D01*
X136453225Y-85751476D01*
X136453221Y-85751473D01*
X136453220Y-85751472D01*
X136333126Y-85690281D01*
X136333124Y-85690280D01*
X136333121Y-85690279D01*
X136200002Y-85669196D01*
X136199998Y-85669196D01*
X136066878Y-85690279D01*
X135946778Y-85751473D01*
X135946774Y-85751476D01*
X135937681Y-85760570D01*
X135876358Y-85794055D01*
X135806666Y-85789071D01*
X135762319Y-85760570D01*
X135753225Y-85751476D01*
X135753221Y-85751473D01*
X135753220Y-85751472D01*
X135633126Y-85690281D01*
X135633124Y-85690280D01*
X135633121Y-85690279D01*
X135500002Y-85669196D01*
X135499998Y-85669196D01*
X135366878Y-85690279D01*
X135246778Y-85751473D01*
X135246774Y-85751476D01*
X135237681Y-85760570D01*
X135176358Y-85794055D01*
X135106666Y-85789071D01*
X135062319Y-85760570D01*
X135053225Y-85751476D01*
X135053221Y-85751473D01*
X135053220Y-85751472D01*
X134933126Y-85690281D01*
X134933124Y-85690280D01*
X134933121Y-85690279D01*
X134800002Y-85669196D01*
X134799998Y-85669196D01*
X134666878Y-85690279D01*
X134546778Y-85751473D01*
X134546774Y-85751476D01*
X134537681Y-85760570D01*
X134476358Y-85794055D01*
X134406666Y-85789071D01*
X134362319Y-85760570D01*
X134353225Y-85751476D01*
X134353221Y-85751473D01*
X134353220Y-85751472D01*
X134233126Y-85690281D01*
X134233124Y-85690280D01*
X134233121Y-85690279D01*
X134100002Y-85669196D01*
X134099998Y-85669196D01*
X133966878Y-85690279D01*
X133846778Y-85751473D01*
X133846774Y-85751476D01*
X133751476Y-85846774D01*
X133751473Y-85846778D01*
X133690279Y-85966878D01*
X133669196Y-86099997D01*
X99488000Y-86099997D01*
X99488000Y-84189997D01*
X136019196Y-84189997D01*
X136019196Y-84190002D01*
X136040279Y-84323121D01*
X136040280Y-84323124D01*
X136040281Y-84323126D01*
X136101472Y-84443220D01*
X136101473Y-84443221D01*
X136101476Y-84443225D01*
X136196774Y-84538523D01*
X136196778Y-84538526D01*
X136196780Y-84538528D01*
X136316874Y-84599719D01*
X136316876Y-84599719D01*
X136316878Y-84599720D01*
X136449998Y-84620804D01*
X136450000Y-84620804D01*
X136450002Y-84620804D01*
X136583121Y-84599720D01*
X136583121Y-84599719D01*
X136583126Y-84599719D01*
X136703220Y-84538528D01*
X136798528Y-84443220D01*
X136859719Y-84323126D01*
X136880804Y-84190000D01*
X136871428Y-84130804D01*
X136859720Y-84056878D01*
X136859719Y-84056876D01*
X136859719Y-84056874D01*
X136798528Y-83936780D01*
X136798526Y-83936778D01*
X136798523Y-83936774D01*
X136703225Y-83841476D01*
X136703221Y-83841473D01*
X136703220Y-83841472D01*
X136583126Y-83780281D01*
X136583124Y-83780280D01*
X136583121Y-83780279D01*
X136450002Y-83759196D01*
X136449998Y-83759196D01*
X136316878Y-83780279D01*
X136196778Y-83841473D01*
X136196774Y-83841476D01*
X136101476Y-83936774D01*
X136101473Y-83936778D01*
X136040279Y-84056878D01*
X136019196Y-84189997D01*
X99488000Y-84189997D01*
X99488000Y-83699997D01*
X160869196Y-83699997D01*
X160869196Y-83700002D01*
X160890279Y-83833121D01*
X160890280Y-83833124D01*
X160890281Y-83833126D01*
X160951472Y-83953220D01*
X160951473Y-83953221D01*
X160951476Y-83953225D01*
X161046774Y-84048523D01*
X161046778Y-84048526D01*
X161046780Y-84048528D01*
X161166874Y-84109719D01*
X161166876Y-84109719D01*
X161166878Y-84109720D01*
X161299998Y-84130804D01*
X161300000Y-84130804D01*
X161300002Y-84130804D01*
X161433121Y-84109720D01*
X161433121Y-84109719D01*
X161433126Y-84109719D01*
X161553220Y-84048528D01*
X161648528Y-83953220D01*
X161709719Y-83833126D01*
X161718089Y-83780279D01*
X161730804Y-83700002D01*
X161730804Y-83699997D01*
X161709720Y-83566878D01*
X161709719Y-83566876D01*
X161709719Y-83566874D01*
X161648528Y-83446780D01*
X161648526Y-83446778D01*
X161648523Y-83446774D01*
X161553225Y-83351476D01*
X161553221Y-83351473D01*
X161553220Y-83351472D01*
X161433126Y-83290281D01*
X161433124Y-83290280D01*
X161433121Y-83290279D01*
X161300002Y-83269196D01*
X161299998Y-83269196D01*
X161166878Y-83290279D01*
X161046778Y-83351473D01*
X161046774Y-83351476D01*
X160951476Y-83446774D01*
X160951473Y-83446778D01*
X160890279Y-83566878D01*
X160869196Y-83699997D01*
X99488000Y-83699997D01*
X99488000Y-82999997D01*
X144269196Y-82999997D01*
X144269196Y-83000002D01*
X144290279Y-83133121D01*
X144290280Y-83133124D01*
X144290281Y-83133126D01*
X144351472Y-83253220D01*
X144351473Y-83253221D01*
X144351476Y-83253225D01*
X144446774Y-83348523D01*
X144446778Y-83348526D01*
X144446780Y-83348528D01*
X144566874Y-83409719D01*
X144566876Y-83409719D01*
X144566878Y-83409720D01*
X144699998Y-83430804D01*
X144700000Y-83430804D01*
X144700002Y-83430804D01*
X144833121Y-83409720D01*
X144833121Y-83409719D01*
X144833126Y-83409719D01*
X144953220Y-83348528D01*
X145048528Y-83253220D01*
X145109719Y-83133126D01*
X145130804Y-83000000D01*
X145109719Y-82866874D01*
X145048528Y-82746780D01*
X145048526Y-82746778D01*
X145048523Y-82746774D01*
X144953225Y-82651476D01*
X144953221Y-82651473D01*
X144953220Y-82651472D01*
X144833126Y-82590281D01*
X144833124Y-82590280D01*
X144833121Y-82590279D01*
X144700002Y-82569196D01*
X144699998Y-82569196D01*
X144566878Y-82590279D01*
X144446778Y-82651473D01*
X144446774Y-82651476D01*
X144351476Y-82746774D01*
X144351473Y-82746778D01*
X144290279Y-82866878D01*
X144269196Y-82999997D01*
X99488000Y-82999997D01*
X99488000Y-81689997D01*
X123319196Y-81689997D01*
X123319196Y-81690002D01*
X123340279Y-81823121D01*
X123340280Y-81823124D01*
X123340281Y-81823126D01*
X123401472Y-81943220D01*
X123401473Y-81943221D01*
X123401476Y-81943225D01*
X123496774Y-82038523D01*
X123496778Y-82038526D01*
X123496780Y-82038528D01*
X123616874Y-82099719D01*
X123616876Y-82099719D01*
X123616878Y-82099720D01*
X123749998Y-82120804D01*
X123750000Y-82120804D01*
X123750002Y-82120804D01*
X123881366Y-82099998D01*
X141794318Y-82099998D01*
X141794318Y-82100001D01*
X141814955Y-82256760D01*
X141814956Y-82256762D01*
X141856376Y-82356760D01*
X141875464Y-82402841D01*
X141971718Y-82528282D01*
X142097159Y-82624536D01*
X142243238Y-82685044D01*
X142321619Y-82695363D01*
X142399999Y-82705682D01*
X142400000Y-82705682D01*
X142400001Y-82705682D01*
X142452254Y-82698802D01*
X142556762Y-82685044D01*
X142702841Y-82624536D01*
X142828282Y-82528282D01*
X142924536Y-82402841D01*
X142985044Y-82256762D01*
X142992517Y-82199998D01*
X149894318Y-82199998D01*
X149894318Y-82200001D01*
X149914955Y-82356760D01*
X149914956Y-82356762D01*
X149975464Y-82502841D01*
X150071718Y-82628282D01*
X150197159Y-82724536D01*
X150343238Y-82785044D01*
X150421619Y-82795363D01*
X150499999Y-82805682D01*
X150500000Y-82805682D01*
X150500001Y-82805682D01*
X150552254Y-82798802D01*
X150656762Y-82785044D01*
X150802841Y-82724536D01*
X150928282Y-82628282D01*
X151024536Y-82502841D01*
X151085044Y-82356762D01*
X151105682Y-82200000D01*
X151103162Y-82180862D01*
X151085044Y-82043239D01*
X151085044Y-82043238D01*
X151024536Y-81897159D01*
X150928282Y-81771718D01*
X150834817Y-81700000D01*
X160844750Y-81700000D01*
X160860959Y-81823121D01*
X160863670Y-81843708D01*
X160863671Y-81843712D01*
X160919137Y-81977622D01*
X160919138Y-81977624D01*
X160919139Y-81977625D01*
X161007379Y-82092621D01*
X161122375Y-82180861D01*
X161256291Y-82236330D01*
X161383280Y-82253048D01*
X161399999Y-82255250D01*
X161400000Y-82255250D01*
X161400001Y-82255250D01*
X161414977Y-82253278D01*
X161543709Y-82236330D01*
X161677625Y-82180861D01*
X161792621Y-82092621D01*
X161880861Y-81977625D01*
X161936330Y-81843709D01*
X161955250Y-81700000D01*
X161953933Y-81690000D01*
X161952020Y-81675463D01*
X161936330Y-81556291D01*
X161880861Y-81422375D01*
X161792621Y-81307379D01*
X161677625Y-81219139D01*
X161677624Y-81219138D01*
X161677622Y-81219137D01*
X161543712Y-81163671D01*
X161543710Y-81163670D01*
X161543709Y-81163670D01*
X161471854Y-81154210D01*
X161400001Y-81144750D01*
X161399999Y-81144750D01*
X161256291Y-81163670D01*
X161256287Y-81163671D01*
X161122377Y-81219137D01*
X161007379Y-81307379D01*
X160919137Y-81422377D01*
X160863671Y-81556287D01*
X160863670Y-81556291D01*
X160846067Y-81690000D01*
X160844750Y-81700000D01*
X150834817Y-81700000D01*
X150802841Y-81675464D01*
X150793797Y-81671718D01*
X150656762Y-81614956D01*
X150656760Y-81614955D01*
X150500001Y-81594318D01*
X150499999Y-81594318D01*
X150343239Y-81614955D01*
X150343237Y-81614956D01*
X150197160Y-81675463D01*
X150071718Y-81771718D01*
X149975463Y-81897160D01*
X149914956Y-82043237D01*
X149914955Y-82043239D01*
X149894318Y-82199998D01*
X142992517Y-82199998D01*
X143005682Y-82100000D01*
X143004710Y-82092620D01*
X142985044Y-81943239D01*
X142985044Y-81943238D01*
X142924536Y-81797159D01*
X142828282Y-81671718D01*
X142702841Y-81575464D01*
X142657970Y-81556878D01*
X142556762Y-81514956D01*
X142556760Y-81514955D01*
X142400001Y-81494318D01*
X142399999Y-81494318D01*
X142243239Y-81514955D01*
X142243237Y-81514956D01*
X142097160Y-81575463D01*
X141971718Y-81671718D01*
X141875463Y-81797160D01*
X141814956Y-81943237D01*
X141814955Y-81943239D01*
X141794318Y-82099998D01*
X123881366Y-82099998D01*
X123883121Y-82099720D01*
X123883121Y-82099719D01*
X123883126Y-82099719D01*
X124003220Y-82038528D01*
X124098528Y-81943220D01*
X124159719Y-81823126D01*
X124179220Y-81700000D01*
X124180804Y-81690002D01*
X124180804Y-81689997D01*
X124159720Y-81556878D01*
X124159719Y-81556876D01*
X124159719Y-81556874D01*
X124098528Y-81436780D01*
X124098526Y-81436778D01*
X124098523Y-81436774D01*
X124003225Y-81341476D01*
X124003221Y-81341473D01*
X124003220Y-81341472D01*
X123883126Y-81280281D01*
X123883124Y-81280280D01*
X123883121Y-81280279D01*
X123750002Y-81259196D01*
X123749998Y-81259196D01*
X123616878Y-81280279D01*
X123496778Y-81341473D01*
X123496774Y-81341476D01*
X123401476Y-81436774D01*
X123401473Y-81436778D01*
X123401472Y-81436780D01*
X123341109Y-81555250D01*
X123340279Y-81556878D01*
X123319196Y-81689997D01*
X99488000Y-81689997D01*
X99488000Y-80750000D01*
X145145603Y-80750000D01*
X145166084Y-80892456D01*
X145215198Y-80999999D01*
X145225873Y-81023373D01*
X145320122Y-81132143D01*
X145441197Y-81209953D01*
X145441200Y-81209954D01*
X145441199Y-81209954D01*
X145579286Y-81250499D01*
X145579288Y-81250500D01*
X145579289Y-81250500D01*
X145723212Y-81250500D01*
X145723212Y-81250499D01*
X145861303Y-81209953D01*
X145982378Y-81132143D01*
X146076627Y-81023373D01*
X146087302Y-80999999D01*
X148844750Y-80999999D01*
X148844750Y-81000000D01*
X148863670Y-81143708D01*
X148863671Y-81143712D01*
X148919137Y-81277622D01*
X148919138Y-81277624D01*
X148919139Y-81277625D01*
X149007379Y-81392621D01*
X149122375Y-81480861D01*
X149122376Y-81480861D01*
X149122377Y-81480862D01*
X149167013Y-81499350D01*
X149256291Y-81536330D01*
X149383280Y-81553048D01*
X149399999Y-81555250D01*
X149400000Y-81555250D01*
X149400001Y-81555250D01*
X149414977Y-81553278D01*
X149543709Y-81536330D01*
X149677625Y-81480861D01*
X149792621Y-81392621D01*
X149880861Y-81277625D01*
X149936330Y-81143709D01*
X149955250Y-81000000D01*
X149936330Y-80856291D01*
X149899350Y-80767013D01*
X149880862Y-80722377D01*
X149880861Y-80722376D01*
X149880861Y-80722375D01*
X149792621Y-80607379D01*
X149677625Y-80519139D01*
X149677624Y-80519138D01*
X149677622Y-80519137D01*
X149543712Y-80463671D01*
X149543710Y-80463670D01*
X149543709Y-80463670D01*
X149471854Y-80454210D01*
X149400001Y-80444750D01*
X149399999Y-80444750D01*
X149256291Y-80463670D01*
X149256287Y-80463671D01*
X149122377Y-80519137D01*
X149007379Y-80607379D01*
X148919137Y-80722377D01*
X148863671Y-80856287D01*
X148863670Y-80856291D01*
X148844750Y-80999999D01*
X146087302Y-80999999D01*
X146136415Y-80892457D01*
X146156897Y-80750000D01*
X146136415Y-80607543D01*
X146076627Y-80476627D01*
X145982378Y-80367857D01*
X145861303Y-80290047D01*
X145861301Y-80290046D01*
X145861299Y-80290045D01*
X145861300Y-80290045D01*
X145723213Y-80249500D01*
X145723211Y-80249500D01*
X145579289Y-80249500D01*
X145579286Y-80249500D01*
X145441199Y-80290045D01*
X145320123Y-80367856D01*
X145225873Y-80476626D01*
X145225872Y-80476628D01*
X145166084Y-80607543D01*
X145145603Y-80750000D01*
X99488000Y-80750000D01*
X99488000Y-80289997D01*
X136619196Y-80289997D01*
X136619196Y-80290002D01*
X136640279Y-80423121D01*
X136640280Y-80423124D01*
X136640281Y-80423126D01*
X136701472Y-80543220D01*
X136701473Y-80543221D01*
X136701476Y-80543225D01*
X136796774Y-80638523D01*
X136796778Y-80638526D01*
X136796780Y-80638528D01*
X136916874Y-80699719D01*
X136916876Y-80699719D01*
X136916878Y-80699720D01*
X137049998Y-80720804D01*
X137050000Y-80720804D01*
X137050002Y-80720804D01*
X137183121Y-80699720D01*
X137183121Y-80699719D01*
X137183126Y-80699719D01*
X137303220Y-80638528D01*
X137398528Y-80543220D01*
X137459719Y-80423126D01*
X137480804Y-80290000D01*
X137474389Y-80249500D01*
X137459720Y-80156878D01*
X137459719Y-80156876D01*
X137459719Y-80156874D01*
X137398528Y-80036780D01*
X137398526Y-80036778D01*
X137398523Y-80036774D01*
X137303225Y-79941476D01*
X137303221Y-79941473D01*
X137303220Y-79941472D01*
X137183126Y-79880281D01*
X137183124Y-79880280D01*
X137183121Y-79880279D01*
X137050002Y-79859196D01*
X137049998Y-79859196D01*
X136916878Y-79880279D01*
X136796778Y-79941473D01*
X136796774Y-79941476D01*
X136701476Y-80036774D01*
X136701473Y-80036778D01*
X136640279Y-80156878D01*
X136619196Y-80289997D01*
X99488000Y-80289997D01*
X99488000Y-76999999D01*
X144444750Y-76999999D01*
X144444750Y-77000000D01*
X144463670Y-77143708D01*
X144463671Y-77143712D01*
X144519137Y-77277622D01*
X144519138Y-77277624D01*
X144519139Y-77277625D01*
X144607379Y-77392621D01*
X144722375Y-77480861D01*
X144856291Y-77536330D01*
X144983280Y-77553048D01*
X144999999Y-77555250D01*
X144999999Y-77555249D01*
X145000000Y-77555250D01*
X145049596Y-77548720D01*
X145118631Y-77559485D01*
X145170887Y-77605864D01*
X145189773Y-77673133D01*
X145176267Y-77727953D01*
X145161529Y-77756876D01*
X145140446Y-77889997D01*
X145140446Y-77890002D01*
X145161529Y-78023121D01*
X145161530Y-78023124D01*
X145161531Y-78023126D01*
X145189300Y-78077625D01*
X145222723Y-78143221D01*
X145222726Y-78143225D01*
X145318024Y-78238523D01*
X145318028Y-78238526D01*
X145318030Y-78238528D01*
X145438124Y-78299719D01*
X145438126Y-78299719D01*
X145438128Y-78299720D01*
X145571248Y-78320804D01*
X145571250Y-78320804D01*
X145571252Y-78320804D01*
X145704371Y-78299720D01*
X145704371Y-78299719D01*
X145704376Y-78299719D01*
X145824470Y-78238528D01*
X145919778Y-78143220D01*
X145980969Y-78023126D01*
X145993547Y-77943712D01*
X146002054Y-77890002D01*
X146002054Y-77889997D01*
X145987800Y-77799999D01*
X150744750Y-77799999D01*
X150744750Y-77800000D01*
X150763670Y-77943708D01*
X150763671Y-77943712D01*
X150819137Y-78077622D01*
X150819138Y-78077624D01*
X150819139Y-78077625D01*
X150907379Y-78192621D01*
X151022375Y-78280861D01*
X151156291Y-78336330D01*
X151283280Y-78353048D01*
X151299999Y-78355250D01*
X151300000Y-78355250D01*
X151300001Y-78355250D01*
X151314977Y-78353278D01*
X151443709Y-78336330D01*
X151577625Y-78280861D01*
X151692621Y-78192621D01*
X151780861Y-78077625D01*
X151836330Y-77943709D01*
X151855250Y-77800000D01*
X151836330Y-77656291D01*
X151786641Y-77536329D01*
X151780862Y-77522377D01*
X151780861Y-77522376D01*
X151780861Y-77522375D01*
X151692621Y-77407379D01*
X151577625Y-77319139D01*
X151577624Y-77319138D01*
X151577622Y-77319137D01*
X151443712Y-77263671D01*
X151443710Y-77263670D01*
X151443709Y-77263670D01*
X151371854Y-77254210D01*
X151300001Y-77244750D01*
X151299999Y-77244750D01*
X151156291Y-77263670D01*
X151156287Y-77263671D01*
X151022377Y-77319137D01*
X150907379Y-77407379D01*
X150819137Y-77522377D01*
X150763671Y-77656287D01*
X150763670Y-77656291D01*
X150744750Y-77799999D01*
X145987800Y-77799999D01*
X145980970Y-77756878D01*
X145980969Y-77756876D01*
X145980969Y-77756874D01*
X145919778Y-77636780D01*
X145919776Y-77636778D01*
X145919773Y-77636774D01*
X145824475Y-77541476D01*
X145824471Y-77541473D01*
X145824470Y-77541472D01*
X145704376Y-77480281D01*
X145704374Y-77480280D01*
X145704371Y-77480279D01*
X145570586Y-77459090D01*
X145507451Y-77429161D01*
X145470520Y-77369849D01*
X145471518Y-77299987D01*
X145477966Y-77285223D01*
X145477751Y-77285134D01*
X145494478Y-77244750D01*
X145536330Y-77143709D01*
X145555250Y-77000000D01*
X145536330Y-76856291D01*
X145480861Y-76722375D01*
X145392621Y-76607379D01*
X145277625Y-76519139D01*
X145277624Y-76519138D01*
X145277622Y-76519137D01*
X145143712Y-76463671D01*
X145143710Y-76463670D01*
X145143709Y-76463670D01*
X145071854Y-76454210D01*
X145000001Y-76444750D01*
X144999999Y-76444750D01*
X144856291Y-76463670D01*
X144856287Y-76463671D01*
X144722377Y-76519137D01*
X144607379Y-76607379D01*
X144519137Y-76722377D01*
X144463671Y-76856287D01*
X144463670Y-76856291D01*
X144444750Y-76999999D01*
X99488000Y-76999999D01*
X99488000Y-70093750D01*
X99488226Y-70086263D01*
X99494797Y-69977625D01*
X99505771Y-69796201D01*
X99507576Y-69781340D01*
X99522483Y-69699999D01*
X148744750Y-69699999D01*
X148744750Y-69700000D01*
X148763670Y-69843708D01*
X148763671Y-69843712D01*
X148819137Y-69977622D01*
X148819138Y-69977624D01*
X148819139Y-69977625D01*
X148907379Y-70092621D01*
X149022375Y-70180861D01*
X149156291Y-70236330D01*
X149283280Y-70253048D01*
X149299999Y-70255250D01*
X149300000Y-70255250D01*
X149300001Y-70255250D01*
X149314977Y-70253278D01*
X149443709Y-70236330D01*
X149577625Y-70180861D01*
X149692621Y-70092621D01*
X149780861Y-69977625D01*
X149836330Y-69843709D01*
X149855250Y-69700000D01*
X149836330Y-69556291D01*
X149780861Y-69422375D01*
X149692621Y-69307379D01*
X149577625Y-69219139D01*
X149577624Y-69219138D01*
X149577622Y-69219137D01*
X149443712Y-69163671D01*
X149443710Y-69163670D01*
X149443709Y-69163670D01*
X149371854Y-69154210D01*
X149300001Y-69144750D01*
X149299999Y-69144750D01*
X149156291Y-69163670D01*
X149156287Y-69163671D01*
X149022377Y-69219137D01*
X148907379Y-69307379D01*
X148819137Y-69422377D01*
X148763671Y-69556287D01*
X148763670Y-69556291D01*
X148744750Y-69699999D01*
X99522483Y-69699999D01*
X99559280Y-69499197D01*
X99562864Y-69484663D01*
X99639596Y-69238422D01*
X99648196Y-69210822D01*
X99653498Y-69196841D01*
X99771231Y-68935249D01*
X99778176Y-68922016D01*
X99912389Y-68700000D01*
X143648103Y-68700000D01*
X143668584Y-68842456D01*
X143728372Y-68973371D01*
X143728373Y-68973373D01*
X143822622Y-69082143D01*
X143943697Y-69159953D01*
X143943700Y-69159954D01*
X143943699Y-69159954D01*
X144050857Y-69191417D01*
X144069293Y-69196831D01*
X144081786Y-69200499D01*
X144081788Y-69200500D01*
X144081789Y-69200500D01*
X144225712Y-69200500D01*
X144225712Y-69200499D01*
X144363803Y-69159953D01*
X144484878Y-69082143D01*
X144579127Y-68973373D01*
X144638915Y-68842457D01*
X144659397Y-68700000D01*
X144638915Y-68557543D01*
X144579127Y-68426627D01*
X144484878Y-68317857D01*
X144363803Y-68240047D01*
X144363801Y-68240046D01*
X144363799Y-68240045D01*
X144363800Y-68240045D01*
X144225713Y-68199500D01*
X144225711Y-68199500D01*
X144081789Y-68199500D01*
X144081786Y-68199500D01*
X143943699Y-68240045D01*
X143822623Y-68317856D01*
X143728373Y-68426626D01*
X143728372Y-68426628D01*
X143668584Y-68557543D01*
X143648103Y-68700000D01*
X99912389Y-68700000D01*
X99926580Y-68676526D01*
X99935067Y-68664230D01*
X100111980Y-68438417D01*
X100121895Y-68427226D01*
X100324726Y-68224395D01*
X100335917Y-68214480D01*
X100561730Y-68037567D01*
X100574026Y-68029080D01*
X100819516Y-67880676D01*
X100832749Y-67873731D01*
X101094341Y-67755998D01*
X101108322Y-67750696D01*
X101382168Y-67665362D01*
X101396697Y-67661780D01*
X101678844Y-67610075D01*
X101693701Y-67608271D01*
X101983764Y-67590726D01*
X101991251Y-67590500D01*
X168676000Y-67590500D01*
X168743039Y-67610185D01*
G37*
%TD.AperFunction*%
%TD*%
%TA.AperFunction,Conductor*%
%TO.N,VARIABLE_OUTPUT_VOLTAGE_B*%
G36*
X196991236Y-67590726D02*
G01*
X197281296Y-67608271D01*
X197296159Y-67610076D01*
X197578298Y-67661780D01*
X197592835Y-67665363D01*
X197866672Y-67750695D01*
X197880663Y-67756000D01*
X198142243Y-67873727D01*
X198155489Y-67880680D01*
X198400965Y-68029075D01*
X198413276Y-68037573D01*
X198639073Y-68214473D01*
X198650281Y-68224403D01*
X198853096Y-68427218D01*
X198863026Y-68438426D01*
X198982981Y-68591538D01*
X199039922Y-68664217D01*
X199048428Y-68676540D01*
X199196816Y-68922004D01*
X199203775Y-68935263D01*
X199321497Y-69196831D01*
X199326806Y-69210832D01*
X199412135Y-69484663D01*
X199415719Y-69499201D01*
X199467423Y-69781340D01*
X199469228Y-69796205D01*
X199486774Y-70086263D01*
X199487000Y-70093750D01*
X199487000Y-129086249D01*
X199486774Y-129093736D01*
X199469228Y-129383794D01*
X199467423Y-129398659D01*
X199415719Y-129680798D01*
X199412135Y-129695336D01*
X199326806Y-129969167D01*
X199321497Y-129983168D01*
X199203775Y-130244736D01*
X199196816Y-130257995D01*
X199048428Y-130503459D01*
X199039922Y-130515782D01*
X198863026Y-130741573D01*
X198853096Y-130752781D01*
X198650281Y-130955596D01*
X198639073Y-130965526D01*
X198413282Y-131142422D01*
X198400959Y-131150928D01*
X198155495Y-131299316D01*
X198142236Y-131306275D01*
X197880668Y-131423997D01*
X197866667Y-131429306D01*
X197592836Y-131514635D01*
X197578298Y-131518219D01*
X197296159Y-131569923D01*
X197281294Y-131571728D01*
X196991224Y-131589274D01*
X196983737Y-131589500D01*
X196913887Y-131589500D01*
X196913638Y-131589515D01*
X175024173Y-131594410D01*
X174957129Y-131574740D01*
X174911362Y-131521947D01*
X174900147Y-131470390D01*
X174901804Y-124365000D01*
X176894778Y-124365000D01*
X176913644Y-124652837D01*
X176913646Y-124652849D01*
X176969917Y-124935745D01*
X176969921Y-124935760D01*
X177062642Y-125208905D01*
X177190219Y-125467606D01*
X177190223Y-125467613D01*
X177350478Y-125707452D01*
X177540672Y-125924327D01*
X177757546Y-126114520D01*
X177997389Y-126274778D01*
X178256098Y-126402359D01*
X178529247Y-126495081D01*
X178812161Y-126551356D01*
X179100000Y-126570222D01*
X179387839Y-126551356D01*
X179670753Y-126495081D01*
X179943902Y-126402359D01*
X180202611Y-126274778D01*
X180442454Y-126114520D01*
X180659327Y-125924327D01*
X180849520Y-125707454D01*
X181009778Y-125467611D01*
X181137359Y-125208902D01*
X181230081Y-124935753D01*
X181286356Y-124652839D01*
X181305222Y-124365000D01*
X185694778Y-124365000D01*
X185713644Y-124652837D01*
X185713646Y-124652849D01*
X185769917Y-124935745D01*
X185769921Y-124935760D01*
X185862642Y-125208905D01*
X185990219Y-125467606D01*
X185990223Y-125467613D01*
X186150478Y-125707452D01*
X186340672Y-125924327D01*
X186557546Y-126114520D01*
X186797389Y-126274778D01*
X187056098Y-126402359D01*
X187329247Y-126495081D01*
X187612161Y-126551356D01*
X187900000Y-126570222D01*
X188187839Y-126551356D01*
X188470753Y-126495081D01*
X188743902Y-126402359D01*
X189002611Y-126274778D01*
X189242454Y-126114520D01*
X189459327Y-125924327D01*
X189649520Y-125707454D01*
X189809778Y-125467611D01*
X189937359Y-125208902D01*
X190030081Y-124935753D01*
X190086356Y-124652839D01*
X190105222Y-124365000D01*
X190086356Y-124077161D01*
X190030081Y-123794247D01*
X189937359Y-123521098D01*
X189809778Y-123262389D01*
X189649520Y-123022546D01*
X189459327Y-122805672D01*
X189242452Y-122615478D01*
X189002613Y-122455223D01*
X189002606Y-122455219D01*
X188743905Y-122327642D01*
X188470760Y-122234921D01*
X188470754Y-122234919D01*
X188470753Y-122234919D01*
X188470751Y-122234918D01*
X188470745Y-122234917D01*
X188187849Y-122178646D01*
X188187839Y-122178644D01*
X187900000Y-122159778D01*
X187612161Y-122178644D01*
X187612155Y-122178645D01*
X187612150Y-122178646D01*
X187329254Y-122234917D01*
X187329239Y-122234921D01*
X187056094Y-122327642D01*
X186797393Y-122455219D01*
X186797386Y-122455223D01*
X186557547Y-122615478D01*
X186340672Y-122805672D01*
X186150478Y-123022547D01*
X185990223Y-123262386D01*
X185990219Y-123262393D01*
X185862642Y-123521094D01*
X185769921Y-123794239D01*
X185769917Y-123794254D01*
X185713646Y-124077150D01*
X185713644Y-124077162D01*
X185694778Y-124365000D01*
X181305222Y-124365000D01*
X181286356Y-124077161D01*
X181230081Y-123794247D01*
X181137359Y-123521098D01*
X181009778Y-123262389D01*
X180849520Y-123022546D01*
X180659327Y-122805672D01*
X180442452Y-122615478D01*
X180202613Y-122455223D01*
X180202606Y-122455219D01*
X179943905Y-122327642D01*
X179670760Y-122234921D01*
X179670754Y-122234919D01*
X179670753Y-122234919D01*
X179670751Y-122234918D01*
X179670745Y-122234917D01*
X179387849Y-122178646D01*
X179387839Y-122178644D01*
X179100000Y-122159778D01*
X178812161Y-122178644D01*
X178812155Y-122178645D01*
X178812150Y-122178646D01*
X178529254Y-122234917D01*
X178529239Y-122234921D01*
X178256094Y-122327642D01*
X177997393Y-122455219D01*
X177997386Y-122455223D01*
X177757547Y-122615478D01*
X177540672Y-122805672D01*
X177350478Y-123022547D01*
X177190223Y-123262386D01*
X177190219Y-123262393D01*
X177062642Y-123521094D01*
X176969921Y-123794239D01*
X176969917Y-123794254D01*
X176913646Y-124077150D01*
X176913644Y-124077162D01*
X176894778Y-124365000D01*
X174901804Y-124365000D01*
X174903437Y-117364999D01*
X179894785Y-117364999D01*
X179894785Y-117365000D01*
X179913602Y-117568082D01*
X179969417Y-117764247D01*
X179969422Y-117764260D01*
X180060327Y-117946821D01*
X180183237Y-118109581D01*
X180333958Y-118246980D01*
X180333960Y-118246982D01*
X180433141Y-118308392D01*
X180507363Y-118354348D01*
X180697544Y-118428024D01*
X180898024Y-118465500D01*
X180898026Y-118465500D01*
X181101974Y-118465500D01*
X181101976Y-118465500D01*
X181302456Y-118428024D01*
X181492637Y-118354348D01*
X181666041Y-118246981D01*
X181816764Y-118109579D01*
X181939673Y-117946821D01*
X182030582Y-117764250D01*
X182086397Y-117568083D01*
X182105215Y-117365000D01*
X182105215Y-117364999D01*
X182394785Y-117364999D01*
X182394785Y-117365000D01*
X182413602Y-117568082D01*
X182469417Y-117764247D01*
X182469422Y-117764260D01*
X182560327Y-117946821D01*
X182683237Y-118109581D01*
X182833958Y-118246980D01*
X182833960Y-118246982D01*
X182933141Y-118308392D01*
X183007363Y-118354348D01*
X183197544Y-118428024D01*
X183398024Y-118465500D01*
X183398026Y-118465500D01*
X183601974Y-118465500D01*
X183601976Y-118465500D01*
X183802456Y-118428024D01*
X183992637Y-118354348D01*
X184166041Y-118246981D01*
X184316764Y-118109579D01*
X184439673Y-117946821D01*
X184530582Y-117764250D01*
X184586397Y-117568083D01*
X184605215Y-117365000D01*
X184605215Y-117364999D01*
X184894785Y-117364999D01*
X184894785Y-117365000D01*
X184913602Y-117568082D01*
X184969417Y-117764247D01*
X184969422Y-117764260D01*
X185060327Y-117946821D01*
X185183237Y-118109581D01*
X185333958Y-118246980D01*
X185333960Y-118246982D01*
X185433141Y-118308392D01*
X185507363Y-118354348D01*
X185697544Y-118428024D01*
X185898024Y-118465500D01*
X185898026Y-118465500D01*
X186101974Y-118465500D01*
X186101976Y-118465500D01*
X186302456Y-118428024D01*
X186492637Y-118354348D01*
X186666041Y-118246981D01*
X186816764Y-118109579D01*
X186939673Y-117946821D01*
X187030582Y-117764250D01*
X187086397Y-117568083D01*
X187105215Y-117365000D01*
X187086397Y-117161917D01*
X187030582Y-116965750D01*
X186939673Y-116783179D01*
X186816764Y-116620421D01*
X186816762Y-116620418D01*
X186666041Y-116483019D01*
X186666039Y-116483017D01*
X186492642Y-116375655D01*
X186492635Y-116375651D01*
X186397546Y-116338814D01*
X186302456Y-116301976D01*
X186101976Y-116264500D01*
X185898024Y-116264500D01*
X185697544Y-116301976D01*
X185697541Y-116301976D01*
X185697541Y-116301977D01*
X185507364Y-116375651D01*
X185507357Y-116375655D01*
X185333960Y-116483017D01*
X185333958Y-116483019D01*
X185183237Y-116620418D01*
X185060327Y-116783178D01*
X184969422Y-116965739D01*
X184969417Y-116965752D01*
X184913602Y-117161917D01*
X184894785Y-117364999D01*
X184605215Y-117364999D01*
X184586397Y-117161917D01*
X184530582Y-116965750D01*
X184439673Y-116783179D01*
X184316764Y-116620421D01*
X184316762Y-116620418D01*
X184166041Y-116483019D01*
X184166039Y-116483017D01*
X183992642Y-116375655D01*
X183992635Y-116375651D01*
X183897546Y-116338814D01*
X183802456Y-116301976D01*
X183601976Y-116264500D01*
X183398024Y-116264500D01*
X183197544Y-116301976D01*
X183197541Y-116301976D01*
X183197541Y-116301977D01*
X183007364Y-116375651D01*
X183007357Y-116375655D01*
X182833960Y-116483017D01*
X182833958Y-116483019D01*
X182683237Y-116620418D01*
X182560327Y-116783178D01*
X182469422Y-116965739D01*
X182469417Y-116965752D01*
X182413602Y-117161917D01*
X182394785Y-117364999D01*
X182105215Y-117364999D01*
X182086397Y-117161917D01*
X182030582Y-116965750D01*
X181939673Y-116783179D01*
X181816764Y-116620421D01*
X181816762Y-116620418D01*
X181666041Y-116483019D01*
X181666039Y-116483017D01*
X181492642Y-116375655D01*
X181492635Y-116375651D01*
X181397546Y-116338814D01*
X181302456Y-116301976D01*
X181101976Y-116264500D01*
X180898024Y-116264500D01*
X180697544Y-116301976D01*
X180697541Y-116301976D01*
X180697541Y-116301977D01*
X180507364Y-116375651D01*
X180507357Y-116375655D01*
X180333960Y-116483017D01*
X180333958Y-116483019D01*
X180183237Y-116620418D01*
X180060327Y-116783178D01*
X179969422Y-116965739D01*
X179969417Y-116965752D01*
X179913602Y-117161917D01*
X179894785Y-117364999D01*
X174903437Y-117364999D01*
X174904152Y-114300000D01*
X164024000Y-114300000D01*
X163956961Y-114280315D01*
X163911206Y-114227511D01*
X163900000Y-114176000D01*
X163900000Y-111999997D01*
X188069196Y-111999997D01*
X188069196Y-112000002D01*
X188090279Y-112133122D01*
X188121148Y-112193707D01*
X188134043Y-112262376D01*
X188121148Y-112306293D01*
X188090279Y-112366877D01*
X188069196Y-112499997D01*
X188069196Y-112500002D01*
X188090279Y-112633121D01*
X188090280Y-112633124D01*
X188090281Y-112633126D01*
X188151472Y-112753220D01*
X188151473Y-112753221D01*
X188151476Y-112753225D01*
X188246774Y-112848523D01*
X188246778Y-112848526D01*
X188246780Y-112848528D01*
X188366874Y-112909719D01*
X188366876Y-112909719D01*
X188366878Y-112909720D01*
X188499998Y-112930804D01*
X188500000Y-112930804D01*
X188500002Y-112930804D01*
X188633123Y-112909720D01*
X188633124Y-112909719D01*
X188633126Y-112909719D01*
X188693705Y-112878851D01*
X188762373Y-112865955D01*
X188806293Y-112878851D01*
X188866874Y-112909719D01*
X188866876Y-112909720D01*
X188999998Y-112930804D01*
X189000000Y-112930804D01*
X189000002Y-112930804D01*
X189133123Y-112909720D01*
X189133124Y-112909719D01*
X189133126Y-112909719D01*
X189193705Y-112878851D01*
X189262373Y-112865955D01*
X189306293Y-112878851D01*
X189366874Y-112909719D01*
X189366876Y-112909720D01*
X189499998Y-112930804D01*
X189500000Y-112930804D01*
X189500002Y-112930804D01*
X189633121Y-112909720D01*
X189633121Y-112909719D01*
X189633126Y-112909719D01*
X189753220Y-112848528D01*
X189848528Y-112753220D01*
X189909719Y-112633126D01*
X189930804Y-112500000D01*
X189930804Y-112499997D01*
X189909720Y-112366876D01*
X189909719Y-112366874D01*
X189878851Y-112306293D01*
X189865955Y-112237627D01*
X189878851Y-112193706D01*
X189909719Y-112133126D01*
X189909719Y-112133124D01*
X189909720Y-112133123D01*
X189930804Y-112000002D01*
X189930804Y-111999997D01*
X189909720Y-111866878D01*
X189909719Y-111866876D01*
X189909719Y-111866874D01*
X189848528Y-111746780D01*
X189848526Y-111746778D01*
X189848523Y-111746774D01*
X189753225Y-111651476D01*
X189753221Y-111651473D01*
X189753220Y-111651472D01*
X189633126Y-111590281D01*
X189633124Y-111590280D01*
X189633121Y-111590279D01*
X189500002Y-111569196D01*
X189499998Y-111569196D01*
X189366877Y-111590279D01*
X189306293Y-111621148D01*
X189237624Y-111634043D01*
X189193707Y-111621148D01*
X189133122Y-111590279D01*
X189000002Y-111569196D01*
X188999998Y-111569196D01*
X188866877Y-111590279D01*
X188806293Y-111621148D01*
X188737624Y-111634043D01*
X188693707Y-111621148D01*
X188633122Y-111590279D01*
X188500002Y-111569196D01*
X188499998Y-111569196D01*
X188366878Y-111590279D01*
X188246778Y-111651473D01*
X188246774Y-111651476D01*
X188151476Y-111746774D01*
X188151473Y-111746778D01*
X188090279Y-111866878D01*
X188069196Y-111999997D01*
X163900000Y-111999997D01*
X163900000Y-111759298D01*
X163919685Y-111692259D01*
X163946159Y-111662775D01*
X164768004Y-110999997D01*
X190569196Y-110999997D01*
X190569196Y-111000002D01*
X190590279Y-111133122D01*
X190621148Y-111193707D01*
X190634043Y-111262376D01*
X190621148Y-111306293D01*
X190590279Y-111366877D01*
X190569196Y-111499997D01*
X190569196Y-111500002D01*
X190590279Y-111633121D01*
X190590280Y-111633124D01*
X190590281Y-111633126D01*
X190599631Y-111651476D01*
X190651473Y-111753221D01*
X190651476Y-111753225D01*
X190746774Y-111848523D01*
X190746778Y-111848526D01*
X190746780Y-111848528D01*
X190866874Y-111909719D01*
X190866876Y-111909719D01*
X190866878Y-111909720D01*
X190999998Y-111930804D01*
X191000000Y-111930804D01*
X191000002Y-111930804D01*
X191133123Y-111909720D01*
X191133124Y-111909719D01*
X191133126Y-111909719D01*
X191193705Y-111878851D01*
X191262373Y-111865955D01*
X191306293Y-111878851D01*
X191366874Y-111909719D01*
X191366876Y-111909720D01*
X191499998Y-111930804D01*
X191500000Y-111930804D01*
X191500002Y-111930804D01*
X191633121Y-111909720D01*
X191633121Y-111909719D01*
X191633126Y-111909719D01*
X191753220Y-111848528D01*
X191848528Y-111753220D01*
X191909719Y-111633126D01*
X191916505Y-111590281D01*
X191930804Y-111500002D01*
X191930804Y-111499997D01*
X191909720Y-111366876D01*
X191909719Y-111366874D01*
X191878851Y-111306293D01*
X191865955Y-111237627D01*
X191878851Y-111193706D01*
X191909719Y-111133126D01*
X191909719Y-111133124D01*
X191909720Y-111133123D01*
X191930804Y-111000002D01*
X191930804Y-110999997D01*
X191909720Y-110866876D01*
X191909719Y-110866874D01*
X191878851Y-110806294D01*
X191865955Y-110737627D01*
X191878851Y-110693706D01*
X191909719Y-110633126D01*
X191909719Y-110633124D01*
X191909720Y-110633123D01*
X191930804Y-110500002D01*
X191930804Y-110499997D01*
X191909720Y-110366878D01*
X191909719Y-110366876D01*
X191909719Y-110366874D01*
X191848528Y-110246780D01*
X191848526Y-110246778D01*
X191848523Y-110246774D01*
X191753225Y-110151476D01*
X191753221Y-110151473D01*
X191753220Y-110151472D01*
X191672775Y-110110483D01*
X191621981Y-110062511D01*
X191605186Y-109994690D01*
X191627723Y-109928555D01*
X191672774Y-109889516D01*
X191753220Y-109848528D01*
X191848528Y-109753220D01*
X191909719Y-109633126D01*
X191930804Y-109500000D01*
X191909719Y-109366874D01*
X191848528Y-109246780D01*
X191848526Y-109246778D01*
X191848523Y-109246774D01*
X191753225Y-109151476D01*
X191753221Y-109151473D01*
X191753220Y-109151472D01*
X191633126Y-109090281D01*
X191633124Y-109090280D01*
X191633121Y-109090279D01*
X191500002Y-109069196D01*
X191499998Y-109069196D01*
X191366878Y-109090279D01*
X191246778Y-109151473D01*
X191246774Y-109151476D01*
X191151476Y-109246774D01*
X191151473Y-109246778D01*
X191090279Y-109366878D01*
X191069196Y-109499997D01*
X191069196Y-109500002D01*
X191090279Y-109633121D01*
X191090280Y-109633124D01*
X191090281Y-109633126D01*
X191151472Y-109753220D01*
X191151473Y-109753221D01*
X191151476Y-109753225D01*
X191246774Y-109848523D01*
X191246776Y-109848524D01*
X191246780Y-109848528D01*
X191327222Y-109889515D01*
X191378018Y-109937490D01*
X191394813Y-110005311D01*
X191372275Y-110071446D01*
X191327222Y-110110484D01*
X191246780Y-110151472D01*
X191246779Y-110151473D01*
X191246774Y-110151476D01*
X191151476Y-110246774D01*
X191151473Y-110246778D01*
X191090279Y-110366877D01*
X191073827Y-110470753D01*
X191043897Y-110533887D01*
X190984586Y-110570818D01*
X190970753Y-110573827D01*
X190866877Y-110590279D01*
X190746778Y-110651473D01*
X190746774Y-110651476D01*
X190651476Y-110746774D01*
X190651473Y-110746778D01*
X190590279Y-110866878D01*
X190569196Y-110999997D01*
X164768004Y-110999997D01*
X168488004Y-107999997D01*
X188069196Y-107999997D01*
X188069196Y-108000002D01*
X188090279Y-108133121D01*
X188090280Y-108133124D01*
X188090281Y-108133126D01*
X188151472Y-108253220D01*
X188151473Y-108253221D01*
X188151476Y-108253225D01*
X188246774Y-108348523D01*
X188246778Y-108348526D01*
X188246780Y-108348528D01*
X188366874Y-108409719D01*
X188366876Y-108409719D01*
X188366878Y-108409720D01*
X188499998Y-108430804D01*
X188500000Y-108430804D01*
X188500002Y-108430804D01*
X188633121Y-108409720D01*
X188633121Y-108409719D01*
X188633126Y-108409719D01*
X188753220Y-108348528D01*
X188848528Y-108253220D01*
X188909719Y-108133126D01*
X188930804Y-108000000D01*
X188909719Y-107866874D01*
X188848528Y-107746780D01*
X188848526Y-107746778D01*
X188848523Y-107746774D01*
X188753225Y-107651476D01*
X188753221Y-107651473D01*
X188753220Y-107651472D01*
X188633126Y-107590281D01*
X188633124Y-107590280D01*
X188633121Y-107590279D01*
X188500002Y-107569196D01*
X188499998Y-107569196D01*
X188366878Y-107590279D01*
X188246778Y-107651473D01*
X188246774Y-107651476D01*
X188151476Y-107746774D01*
X188151473Y-107746778D01*
X188090279Y-107866878D01*
X188069196Y-107999997D01*
X168488004Y-107999997D01*
X169728004Y-106999997D01*
X187569196Y-106999997D01*
X187569196Y-107000002D01*
X187590279Y-107133121D01*
X187590280Y-107133124D01*
X187590281Y-107133126D01*
X187651472Y-107253220D01*
X187651473Y-107253221D01*
X187651476Y-107253225D01*
X187746774Y-107348523D01*
X187746778Y-107348526D01*
X187746780Y-107348528D01*
X187866874Y-107409719D01*
X187866876Y-107409719D01*
X187866878Y-107409720D01*
X187999998Y-107430804D01*
X188000000Y-107430804D01*
X188000002Y-107430804D01*
X188133121Y-107409720D01*
X188133121Y-107409719D01*
X188133126Y-107409719D01*
X188253220Y-107348528D01*
X188348528Y-107253220D01*
X188409719Y-107133126D01*
X188430804Y-107000000D01*
X188409719Y-106866874D01*
X188348528Y-106746780D01*
X188348526Y-106746778D01*
X188348523Y-106746774D01*
X188253225Y-106651476D01*
X188253221Y-106651473D01*
X188253220Y-106651472D01*
X188133126Y-106590281D01*
X188133124Y-106590280D01*
X188133121Y-106590279D01*
X188000002Y-106569196D01*
X187999998Y-106569196D01*
X187866878Y-106590279D01*
X187746778Y-106651473D01*
X187746774Y-106651476D01*
X187651476Y-106746774D01*
X187651473Y-106746778D01*
X187590279Y-106866878D01*
X187569196Y-106999997D01*
X169728004Y-106999997D01*
X173448003Y-103999998D01*
X179894318Y-103999998D01*
X179894318Y-104000001D01*
X179914955Y-104156760D01*
X179914956Y-104156762D01*
X179975464Y-104302841D01*
X180071718Y-104428282D01*
X180197159Y-104524536D01*
X180343238Y-104585044D01*
X180384681Y-104590500D01*
X180499999Y-104605682D01*
X180500000Y-104605682D01*
X180500001Y-104605682D01*
X180552254Y-104598802D01*
X180656762Y-104585044D01*
X180802841Y-104524536D01*
X180924515Y-104431171D01*
X180989683Y-104405979D01*
X181058127Y-104420017D01*
X181075478Y-104431167D01*
X181197159Y-104524536D01*
X181343238Y-104585044D01*
X181384681Y-104590500D01*
X181499999Y-104605682D01*
X181500000Y-104605682D01*
X181500001Y-104605682D01*
X181552254Y-104598802D01*
X181656762Y-104585044D01*
X181802841Y-104524536D01*
X181924515Y-104431171D01*
X181989683Y-104405979D01*
X182058127Y-104420017D01*
X182075478Y-104431167D01*
X182197159Y-104524536D01*
X182343238Y-104585044D01*
X182384681Y-104590500D01*
X182499999Y-104605682D01*
X182500000Y-104605682D01*
X182500001Y-104605682D01*
X182552254Y-104598802D01*
X182656762Y-104585044D01*
X182802841Y-104524536D01*
X182928282Y-104428282D01*
X183024536Y-104302841D01*
X183085044Y-104156762D01*
X183105682Y-104000000D01*
X183093957Y-103910943D01*
X183085044Y-103843239D01*
X183085044Y-103843238D01*
X183024536Y-103697159D01*
X183024534Y-103697156D01*
X183020472Y-103690119D01*
X183023228Y-103688527D01*
X183003429Y-103637320D01*
X183017465Y-103568875D01*
X183066278Y-103518884D01*
X183134369Y-103503218D01*
X183188787Y-103522778D01*
X183190119Y-103520472D01*
X183197157Y-103524534D01*
X183197159Y-103524536D01*
X183343238Y-103585044D01*
X183411418Y-103594020D01*
X183499999Y-103605682D01*
X183500000Y-103605682D01*
X183500001Y-103605682D01*
X183552254Y-103598802D01*
X183656762Y-103585044D01*
X183802841Y-103524536D01*
X183928282Y-103428282D01*
X184024536Y-103302841D01*
X184085044Y-103156762D01*
X184105682Y-103000000D01*
X184085044Y-102843238D01*
X184024536Y-102697159D01*
X183928282Y-102571718D01*
X183802841Y-102475464D01*
X183656762Y-102414956D01*
X183656760Y-102414955D01*
X183500001Y-102394318D01*
X183499999Y-102394318D01*
X183343239Y-102414955D01*
X183343237Y-102414956D01*
X183197160Y-102475463D01*
X183071718Y-102571718D01*
X182975463Y-102697160D01*
X182914956Y-102843237D01*
X182914955Y-102843239D01*
X182894318Y-102999998D01*
X182894318Y-103000001D01*
X182914955Y-103156760D01*
X182914956Y-103156762D01*
X182975465Y-103302843D01*
X182979528Y-103309881D01*
X182976773Y-103311471D01*
X182996571Y-103362695D01*
X182982526Y-103431138D01*
X182933707Y-103481123D01*
X182865614Y-103496780D01*
X182811214Y-103477217D01*
X182809881Y-103479528D01*
X182802843Y-103475465D01*
X182802838Y-103475463D01*
X182656762Y-103414956D01*
X182656760Y-103414955D01*
X182500001Y-103394318D01*
X182499999Y-103394318D01*
X182343239Y-103414955D01*
X182343237Y-103414956D01*
X182197157Y-103475464D01*
X182075486Y-103568826D01*
X182010317Y-103594020D01*
X181941872Y-103579981D01*
X181924514Y-103568826D01*
X181802842Y-103475464D01*
X181656762Y-103414956D01*
X181656760Y-103414955D01*
X181500001Y-103394318D01*
X181499999Y-103394318D01*
X181343239Y-103414955D01*
X181343237Y-103414956D01*
X181197157Y-103475464D01*
X181075486Y-103568826D01*
X181010317Y-103594020D01*
X180941872Y-103579981D01*
X180924514Y-103568826D01*
X180802842Y-103475464D01*
X180656762Y-103414956D01*
X180656760Y-103414955D01*
X180500001Y-103394318D01*
X180499999Y-103394318D01*
X180343239Y-103414955D01*
X180343237Y-103414956D01*
X180197160Y-103475463D01*
X180071718Y-103571718D01*
X179975463Y-103697160D01*
X179914956Y-103843237D01*
X179914955Y-103843239D01*
X179894318Y-103999998D01*
X173448003Y-103999998D01*
X176265929Y-101727477D01*
X176330470Y-101700715D01*
X176343770Y-101700000D01*
X177738798Y-101700000D01*
X177805837Y-101719685D01*
X177851592Y-101772489D01*
X177861536Y-101841647D01*
X177832511Y-101905203D01*
X177786251Y-101938561D01*
X177697160Y-101975463D01*
X177571718Y-102071718D01*
X177475463Y-102197160D01*
X177414956Y-102343237D01*
X177414955Y-102343239D01*
X177394318Y-102499998D01*
X177394318Y-102500001D01*
X177414955Y-102656760D01*
X177414956Y-102656762D01*
X177475464Y-102802841D01*
X177571718Y-102928282D01*
X177697159Y-103024536D01*
X177843238Y-103085044D01*
X177921619Y-103095363D01*
X177999999Y-103105682D01*
X178000000Y-103105682D01*
X178000001Y-103105682D01*
X178052254Y-103098802D01*
X178156762Y-103085044D01*
X178302841Y-103024536D01*
X178428282Y-102928282D01*
X178524536Y-102802841D01*
X178585044Y-102656762D01*
X178605682Y-102500000D01*
X178585044Y-102343238D01*
X178524536Y-102197159D01*
X178428282Y-102071718D01*
X178302841Y-101975464D01*
X178213748Y-101938560D01*
X178159346Y-101894720D01*
X178137281Y-101828426D01*
X178154560Y-101760727D01*
X178205697Y-101713116D01*
X178261202Y-101700000D01*
X183600000Y-101700000D01*
X183600000Y-99499997D01*
X184569196Y-99499997D01*
X184569196Y-99500002D01*
X184590279Y-99633121D01*
X184590280Y-99633124D01*
X184590281Y-99633126D01*
X184651472Y-99753220D01*
X184651473Y-99753221D01*
X184651476Y-99753225D01*
X184746774Y-99848523D01*
X184746778Y-99848526D01*
X184746780Y-99848528D01*
X184866874Y-99909719D01*
X184866876Y-99909719D01*
X184866878Y-99909720D01*
X184999998Y-99930804D01*
X185000000Y-99930804D01*
X185000002Y-99930804D01*
X185133123Y-99909720D01*
X185133124Y-99909719D01*
X185133126Y-99909719D01*
X185193705Y-99878851D01*
X185262373Y-99865955D01*
X185306293Y-99878851D01*
X185366874Y-99909719D01*
X185366876Y-99909720D01*
X185499998Y-99930804D01*
X185500000Y-99930804D01*
X185500002Y-99930804D01*
X185633121Y-99909720D01*
X185633121Y-99909719D01*
X185633126Y-99909719D01*
X185753220Y-99848528D01*
X185848528Y-99753220D01*
X185909719Y-99633126D01*
X185914066Y-99605682D01*
X185930804Y-99500002D01*
X185930804Y-99499997D01*
X185909720Y-99366878D01*
X185909719Y-99366876D01*
X185909719Y-99366874D01*
X185848528Y-99246780D01*
X185848526Y-99246778D01*
X185848523Y-99246774D01*
X185753225Y-99151476D01*
X185753221Y-99151473D01*
X185753220Y-99151472D01*
X185633126Y-99090281D01*
X185633124Y-99090280D01*
X185633121Y-99090279D01*
X185500002Y-99069196D01*
X185499998Y-99069196D01*
X185366877Y-99090279D01*
X185306293Y-99121148D01*
X185237624Y-99134043D01*
X185193707Y-99121148D01*
X185133122Y-99090279D01*
X185000002Y-99069196D01*
X184999998Y-99069196D01*
X184866878Y-99090279D01*
X184746778Y-99151473D01*
X184746774Y-99151476D01*
X184651476Y-99246774D01*
X184651473Y-99246778D01*
X184590279Y-99366878D01*
X184569196Y-99499997D01*
X183600000Y-99499997D01*
X183600000Y-95724000D01*
X183619685Y-95656961D01*
X183672489Y-95611206D01*
X183724000Y-95600000D01*
X185300000Y-95600000D01*
X185300000Y-91228145D01*
X185301262Y-91210498D01*
X185305647Y-91180000D01*
X185301262Y-91149500D01*
X185300000Y-91131854D01*
X185300000Y-90742155D01*
X192492500Y-90742155D01*
X192492500Y-91840000D01*
X193692499Y-91840000D01*
X193667479Y-91900402D01*
X193642500Y-92025981D01*
X193642500Y-92154019D01*
X193667479Y-92279598D01*
X193692499Y-92340000D01*
X192492500Y-92340000D01*
X192492500Y-93437844D01*
X192498901Y-93497372D01*
X192498903Y-93497379D01*
X192549145Y-93632086D01*
X192549149Y-93632093D01*
X192635309Y-93747187D01*
X192635312Y-93747190D01*
X192750406Y-93833350D01*
X192750413Y-93833354D01*
X192885120Y-93883596D01*
X192885127Y-93883598D01*
X192944655Y-93889999D01*
X192944672Y-93890000D01*
X194042500Y-93890000D01*
X194042500Y-92690001D01*
X194102902Y-92715021D01*
X194228481Y-92740000D01*
X194356519Y-92740000D01*
X194482098Y-92715021D01*
X194542500Y-92690001D01*
X194542500Y-93890000D01*
X195640328Y-93890000D01*
X195640344Y-93889999D01*
X195699872Y-93883598D01*
X195699879Y-93883596D01*
X195834586Y-93833354D01*
X195834593Y-93833350D01*
X195949687Y-93747190D01*
X195949690Y-93747187D01*
X196035850Y-93632093D01*
X196035854Y-93632086D01*
X196086096Y-93497379D01*
X196086098Y-93497372D01*
X196092499Y-93437844D01*
X196092500Y-93437827D01*
X196092500Y-92340000D01*
X194892501Y-92340000D01*
X194917521Y-92279598D01*
X194942500Y-92154019D01*
X194942500Y-92025981D01*
X194917521Y-91900402D01*
X194892501Y-91840000D01*
X196092500Y-91840000D01*
X196092500Y-90742172D01*
X196092499Y-90742155D01*
X196086098Y-90682627D01*
X196086096Y-90682620D01*
X196035854Y-90547913D01*
X196035850Y-90547906D01*
X195949690Y-90432812D01*
X195949687Y-90432809D01*
X195834593Y-90346649D01*
X195834586Y-90346645D01*
X195699879Y-90296403D01*
X195699872Y-90296401D01*
X195640344Y-90290000D01*
X194542500Y-90290000D01*
X194542500Y-91489998D01*
X194482098Y-91464979D01*
X194356519Y-91440000D01*
X194228481Y-91440000D01*
X194102902Y-91464979D01*
X194042500Y-91489998D01*
X194042500Y-90290000D01*
X192944655Y-90290000D01*
X192885127Y-90296401D01*
X192885120Y-90296403D01*
X192750413Y-90346645D01*
X192750406Y-90346649D01*
X192635312Y-90432809D01*
X192635309Y-90432812D01*
X192549149Y-90547906D01*
X192549145Y-90547913D01*
X192498903Y-90682620D01*
X192498901Y-90682627D01*
X192492500Y-90742155D01*
X185300000Y-90742155D01*
X185300000Y-87599997D01*
X185969196Y-87599997D01*
X185969196Y-87600002D01*
X185990279Y-87733121D01*
X185990280Y-87733124D01*
X185990281Y-87733126D01*
X186051472Y-87853220D01*
X186051473Y-87853221D01*
X186051476Y-87853225D01*
X186146774Y-87948523D01*
X186146778Y-87948526D01*
X186146780Y-87948528D01*
X186266874Y-88009719D01*
X186266876Y-88009719D01*
X186266878Y-88009720D01*
X186399998Y-88030804D01*
X186400000Y-88030804D01*
X186400002Y-88030804D01*
X186533121Y-88009720D01*
X186533121Y-88009719D01*
X186533126Y-88009719D01*
X186653220Y-87948528D01*
X186748528Y-87853220D01*
X186809719Y-87733126D01*
X186830804Y-87600000D01*
X186827459Y-87578881D01*
X186809720Y-87466878D01*
X186809719Y-87466876D01*
X186809719Y-87466874D01*
X186748528Y-87346780D01*
X186748526Y-87346778D01*
X186748523Y-87346774D01*
X186653225Y-87251476D01*
X186653221Y-87251473D01*
X186653220Y-87251472D01*
X186533126Y-87190281D01*
X186533124Y-87190280D01*
X186533121Y-87190279D01*
X186400002Y-87169196D01*
X186399998Y-87169196D01*
X186266878Y-87190279D01*
X186146778Y-87251473D01*
X186146774Y-87251476D01*
X186051476Y-87346774D01*
X186051473Y-87346778D01*
X185990279Y-87466878D01*
X185969196Y-87599997D01*
X185300000Y-87599997D01*
X185300000Y-87089994D01*
X192786857Y-87089994D01*
X192786857Y-87090005D01*
X192807390Y-87337812D01*
X192807392Y-87337824D01*
X192868436Y-87578881D01*
X192968326Y-87806606D01*
X193104333Y-88014782D01*
X193136745Y-88049991D01*
X193272756Y-88197738D01*
X193468991Y-88350474D01*
X193687690Y-88468828D01*
X193922886Y-88549571D01*
X194168165Y-88590500D01*
X194416835Y-88590500D01*
X194662114Y-88549571D01*
X194897310Y-88468828D01*
X195116009Y-88350474D01*
X195312244Y-88197738D01*
X195480664Y-88014785D01*
X195616673Y-87806607D01*
X195716563Y-87578881D01*
X195777608Y-87337821D01*
X195784763Y-87251472D01*
X195798143Y-87090005D01*
X195798143Y-87089994D01*
X195777609Y-86842187D01*
X195777607Y-86842175D01*
X195716563Y-86601118D01*
X195616673Y-86373393D01*
X195480666Y-86165217D01*
X195459057Y-86141744D01*
X195312244Y-85982262D01*
X195116009Y-85829526D01*
X195116007Y-85829525D01*
X195116006Y-85829524D01*
X194897311Y-85711172D01*
X194897302Y-85711169D01*
X194662116Y-85630429D01*
X194416835Y-85589500D01*
X194168165Y-85589500D01*
X193922883Y-85630429D01*
X193687697Y-85711169D01*
X193687688Y-85711172D01*
X193468993Y-85829524D01*
X193272757Y-85982261D01*
X193104333Y-86165217D01*
X192968326Y-86373393D01*
X192868436Y-86601118D01*
X192807392Y-86842175D01*
X192807390Y-86842187D01*
X192786857Y-87089994D01*
X185300000Y-87089994D01*
X185300000Y-67714500D01*
X185319685Y-67647461D01*
X185372489Y-67601706D01*
X185424000Y-67590500D01*
X196921608Y-67590500D01*
X196983749Y-67590500D01*
X196991236Y-67590726D01*
G37*
%TD.AperFunction*%
%TD*%
%TA.AperFunction,Conductor*%
%TO.N,+3V0*%
G36*
X103585039Y-122519685D02*
G01*
X103630794Y-122572489D01*
X103642000Y-122624000D01*
X103642000Y-123534752D01*
X103653631Y-123593229D01*
X103653632Y-123593230D01*
X103697947Y-123659552D01*
X103764269Y-123703867D01*
X103764270Y-123703868D01*
X103822747Y-123715499D01*
X103822750Y-123715500D01*
X103822752Y-123715500D01*
X106462250Y-123715500D01*
X106462251Y-123715499D01*
X106477068Y-123712552D01*
X106520729Y-123703868D01*
X106520729Y-123703867D01*
X106520731Y-123703867D01*
X106587052Y-123659552D01*
X106631367Y-123593231D01*
X106631367Y-123593229D01*
X106631368Y-123593229D01*
X106642999Y-123534752D01*
X106643000Y-123534750D01*
X106643000Y-122624000D01*
X106662685Y-122556961D01*
X106715489Y-122511206D01*
X106767000Y-122500000D01*
X173076000Y-122500000D01*
X173143039Y-122519685D01*
X173188794Y-122572489D01*
X173200000Y-122624000D01*
X173200000Y-131470846D01*
X173180315Y-131537885D01*
X173127511Y-131583640D01*
X173076028Y-131594846D01*
X101994905Y-131610742D01*
X101986545Y-131610462D01*
X101696002Y-131590896D01*
X101681217Y-131589002D01*
X101398175Y-131535294D01*
X101383723Y-131531640D01*
X101109159Y-131444352D01*
X101095251Y-131438990D01*
X100833154Y-131319391D01*
X100819989Y-131312399D01*
X100574131Y-131162209D01*
X100561901Y-131153688D01*
X100335843Y-130975084D01*
X100324723Y-130965156D01*
X100121735Y-130760722D01*
X100111887Y-130749532D01*
X100073320Y-130699999D01*
X132844750Y-130699999D01*
X132844750Y-130700000D01*
X132863670Y-130843708D01*
X132863671Y-130843712D01*
X132919137Y-130977622D01*
X132919138Y-130977624D01*
X132919139Y-130977625D01*
X133007379Y-131092621D01*
X133122375Y-131180861D01*
X133122376Y-131180861D01*
X133122377Y-131180862D01*
X133167013Y-131199350D01*
X133256291Y-131236330D01*
X133383280Y-131253048D01*
X133399999Y-131255250D01*
X133400000Y-131255250D01*
X133400001Y-131255250D01*
X133414977Y-131253278D01*
X133543709Y-131236330D01*
X133677625Y-131180861D01*
X133792621Y-131092621D01*
X133880861Y-130977625D01*
X133936330Y-130843709D01*
X133955250Y-130700000D01*
X133955250Y-130699999D01*
X134344750Y-130699999D01*
X134344750Y-130700000D01*
X134363670Y-130843708D01*
X134363671Y-130843712D01*
X134419137Y-130977622D01*
X134419138Y-130977624D01*
X134419139Y-130977625D01*
X134507379Y-131092621D01*
X134622375Y-131180861D01*
X134622376Y-131180861D01*
X134622377Y-131180862D01*
X134667013Y-131199350D01*
X134756291Y-131236330D01*
X134883280Y-131253048D01*
X134899999Y-131255250D01*
X134900000Y-131255250D01*
X134900001Y-131255250D01*
X134914977Y-131253278D01*
X135043709Y-131236330D01*
X135177625Y-131180861D01*
X135292621Y-131092621D01*
X135380861Y-130977625D01*
X135436330Y-130843709D01*
X135455250Y-130700000D01*
X135455250Y-130699999D01*
X135844750Y-130699999D01*
X135844750Y-130700000D01*
X135863670Y-130843708D01*
X135863671Y-130843712D01*
X135919137Y-130977622D01*
X135919138Y-130977624D01*
X135919139Y-130977625D01*
X136007379Y-131092621D01*
X136122375Y-131180861D01*
X136122376Y-131180861D01*
X136122377Y-131180862D01*
X136167013Y-131199350D01*
X136256291Y-131236330D01*
X136383280Y-131253048D01*
X136399999Y-131255250D01*
X136400000Y-131255250D01*
X136400001Y-131255250D01*
X136414977Y-131253278D01*
X136543709Y-131236330D01*
X136677625Y-131180861D01*
X136792621Y-131092621D01*
X136880861Y-130977625D01*
X136936330Y-130843709D01*
X136955250Y-130700000D01*
X136955250Y-130699999D01*
X137344750Y-130699999D01*
X137344750Y-130700000D01*
X137363670Y-130843708D01*
X137363671Y-130843712D01*
X137419137Y-130977622D01*
X137419138Y-130977624D01*
X137419139Y-130977625D01*
X137507379Y-131092621D01*
X137622375Y-131180861D01*
X137622376Y-131180861D01*
X137622377Y-131180862D01*
X137667013Y-131199350D01*
X137756291Y-131236330D01*
X137883280Y-131253048D01*
X137899999Y-131255250D01*
X137900000Y-131255250D01*
X137900001Y-131255250D01*
X137914977Y-131253278D01*
X138043709Y-131236330D01*
X138177625Y-131180861D01*
X138292621Y-131092621D01*
X138380861Y-130977625D01*
X138436330Y-130843709D01*
X138455250Y-130700000D01*
X138436330Y-130556291D01*
X138380861Y-130422375D01*
X138292621Y-130307379D01*
X138177625Y-130219139D01*
X138177624Y-130219138D01*
X138177622Y-130219137D01*
X138043712Y-130163671D01*
X138043710Y-130163670D01*
X138043709Y-130163670D01*
X137971854Y-130154210D01*
X137900001Y-130144750D01*
X137899999Y-130144750D01*
X137756291Y-130163670D01*
X137756287Y-130163671D01*
X137622377Y-130219137D01*
X137507379Y-130307379D01*
X137419137Y-130422377D01*
X137363671Y-130556287D01*
X137363670Y-130556291D01*
X137344750Y-130699999D01*
X136955250Y-130699999D01*
X136936330Y-130556291D01*
X136880861Y-130422375D01*
X136792621Y-130307379D01*
X136677625Y-130219139D01*
X136677624Y-130219138D01*
X136677622Y-130219137D01*
X136543712Y-130163671D01*
X136543710Y-130163670D01*
X136543709Y-130163670D01*
X136471854Y-130154210D01*
X136400001Y-130144750D01*
X136399999Y-130144750D01*
X136256291Y-130163670D01*
X136256287Y-130163671D01*
X136122377Y-130219137D01*
X136007379Y-130307379D01*
X135919137Y-130422377D01*
X135863671Y-130556287D01*
X135863670Y-130556291D01*
X135844750Y-130699999D01*
X135455250Y-130699999D01*
X135436330Y-130556291D01*
X135380861Y-130422375D01*
X135292621Y-130307379D01*
X135177625Y-130219139D01*
X135177624Y-130219138D01*
X135177622Y-130219137D01*
X135043712Y-130163671D01*
X135043710Y-130163670D01*
X135043709Y-130163670D01*
X134971854Y-130154210D01*
X134900001Y-130144750D01*
X134899999Y-130144750D01*
X134756291Y-130163670D01*
X134756287Y-130163671D01*
X134622377Y-130219137D01*
X134507379Y-130307379D01*
X134419137Y-130422377D01*
X134363671Y-130556287D01*
X134363670Y-130556291D01*
X134344750Y-130699999D01*
X133955250Y-130699999D01*
X133936330Y-130556291D01*
X133880861Y-130422375D01*
X133792621Y-130307379D01*
X133677625Y-130219139D01*
X133677624Y-130219138D01*
X133677622Y-130219137D01*
X133543712Y-130163671D01*
X133543710Y-130163670D01*
X133543709Y-130163670D01*
X133471854Y-130154210D01*
X133400001Y-130144750D01*
X133399999Y-130144750D01*
X133256291Y-130163670D01*
X133256287Y-130163671D01*
X133122377Y-130219137D01*
X133007379Y-130307379D01*
X132919137Y-130422377D01*
X132863671Y-130556287D01*
X132863670Y-130556291D01*
X132844750Y-130699999D01*
X100073320Y-130699999D01*
X99934889Y-130522207D01*
X99926455Y-130509917D01*
X99778020Y-130263007D01*
X99771121Y-130249793D01*
X99724086Y-130144750D01*
X99653379Y-129986839D01*
X99648122Y-129972909D01*
X99562782Y-129697722D01*
X99559232Y-129683248D01*
X99539965Y-129577625D01*
X99507533Y-129399829D01*
X99505745Y-129385033D01*
X99500625Y-129299999D01*
X129244750Y-129299999D01*
X129244750Y-129300000D01*
X129263670Y-129443708D01*
X129263671Y-129443712D01*
X129319137Y-129577622D01*
X129319138Y-129577624D01*
X129319139Y-129577625D01*
X129407379Y-129692621D01*
X129522375Y-129780861D01*
X129656291Y-129836330D01*
X129783280Y-129853048D01*
X129799999Y-129855250D01*
X129800000Y-129855250D01*
X129800001Y-129855250D01*
X129814977Y-129853278D01*
X129943709Y-129836330D01*
X130077625Y-129780861D01*
X130192621Y-129692621D01*
X130280861Y-129577625D01*
X130336330Y-129443709D01*
X130355250Y-129300000D01*
X130336330Y-129156291D01*
X130280861Y-129022375D01*
X130192621Y-128907379D01*
X130077625Y-128819139D01*
X130077624Y-128819138D01*
X130077622Y-128819137D01*
X129943712Y-128763671D01*
X129943710Y-128763670D01*
X129943709Y-128763670D01*
X129839877Y-128750000D01*
X146944750Y-128750000D01*
X146953852Y-128819139D01*
X146963670Y-128893708D01*
X146963671Y-128893712D01*
X147019137Y-129027622D01*
X147019138Y-129027624D01*
X147019139Y-129027625D01*
X147107379Y-129142621D01*
X147222375Y-129230861D01*
X147356291Y-129286330D01*
X147483280Y-129303048D01*
X147499999Y-129305250D01*
X147500000Y-129305250D01*
X147500001Y-129305250D01*
X147514977Y-129303278D01*
X147643709Y-129286330D01*
X147777625Y-129230861D01*
X147892621Y-129142621D01*
X147980861Y-129027625D01*
X148036330Y-128893709D01*
X148055250Y-128750000D01*
X148036330Y-128606291D01*
X147980861Y-128472375D01*
X147892621Y-128357379D01*
X147777625Y-128269139D01*
X147777624Y-128269138D01*
X147777622Y-128269137D01*
X147643712Y-128213671D01*
X147643710Y-128213670D01*
X147643709Y-128213670D01*
X147571854Y-128204210D01*
X147500001Y-128194750D01*
X147499999Y-128194750D01*
X147356291Y-128213670D01*
X147356287Y-128213671D01*
X147222377Y-128269137D01*
X147107379Y-128357379D01*
X147019137Y-128472377D01*
X146963671Y-128606287D01*
X146963670Y-128606291D01*
X146944750Y-128750000D01*
X129839877Y-128750000D01*
X129800001Y-128744750D01*
X129799999Y-128744750D01*
X129656291Y-128763670D01*
X129656287Y-128763671D01*
X129522377Y-128819137D01*
X129407379Y-128907379D01*
X129319137Y-129022377D01*
X129263671Y-129156287D01*
X129263670Y-129156291D01*
X129244750Y-129299999D01*
X99500625Y-129299999D01*
X99488224Y-129094052D01*
X99488000Y-129086599D01*
X99488000Y-127214994D01*
X103636857Y-127214994D01*
X103636857Y-127215005D01*
X103657390Y-127462812D01*
X103657392Y-127462824D01*
X103718436Y-127703881D01*
X103818326Y-127931606D01*
X103954333Y-128139782D01*
X103954336Y-128139785D01*
X104122756Y-128322738D01*
X104318991Y-128475474D01*
X104537690Y-128593828D01*
X104772886Y-128674571D01*
X105018165Y-128715500D01*
X105266835Y-128715500D01*
X105512114Y-128674571D01*
X105747310Y-128593828D01*
X105966009Y-128475474D01*
X106162244Y-128322738D01*
X106330664Y-128139785D01*
X106466673Y-127931607D01*
X106566563Y-127703881D01*
X106627608Y-127462821D01*
X106627949Y-127458709D01*
X106648143Y-127215005D01*
X106648143Y-127214994D01*
X106631235Y-127010943D01*
X123187000Y-127010943D01*
X123187000Y-127169057D01*
X123213016Y-127266148D01*
X123227923Y-127321783D01*
X123227926Y-127321790D01*
X123306975Y-127458709D01*
X123306979Y-127458714D01*
X123306980Y-127458716D01*
X123418784Y-127570520D01*
X123418786Y-127570521D01*
X123418790Y-127570524D01*
X123555709Y-127649573D01*
X123555716Y-127649577D01*
X123708443Y-127690500D01*
X123708445Y-127690500D01*
X123866555Y-127690500D01*
X123866557Y-127690500D01*
X124019284Y-127649577D01*
X124156216Y-127570520D01*
X124268020Y-127458716D01*
X124347077Y-127321784D01*
X124388000Y-127169057D01*
X124388000Y-127010943D01*
X124347077Y-126858216D01*
X124293884Y-126766082D01*
X124268024Y-126721290D01*
X124268018Y-126721282D01*
X124156217Y-126609481D01*
X124156209Y-126609475D01*
X124019290Y-126530426D01*
X124019286Y-126530424D01*
X124019284Y-126530423D01*
X123866557Y-126489500D01*
X123708443Y-126489500D01*
X123555716Y-126530423D01*
X123555709Y-126530426D01*
X123418790Y-126609475D01*
X123418782Y-126609481D01*
X123306981Y-126721282D01*
X123306975Y-126721290D01*
X123227926Y-126858209D01*
X123227923Y-126858216D01*
X123187000Y-127010943D01*
X106631235Y-127010943D01*
X106627609Y-126967187D01*
X106627607Y-126967175D01*
X106566563Y-126726118D01*
X106466673Y-126498393D01*
X106330666Y-126290217D01*
X106300134Y-126257051D01*
X106162244Y-126107262D01*
X105966009Y-125954526D01*
X105966007Y-125954525D01*
X105966006Y-125954524D01*
X105747311Y-125836172D01*
X105747302Y-125836169D01*
X105512116Y-125755429D01*
X105266835Y-125714500D01*
X105018165Y-125714500D01*
X104772883Y-125755429D01*
X104537697Y-125836169D01*
X104537688Y-125836172D01*
X104318993Y-125954524D01*
X104122757Y-126107261D01*
X103954333Y-126290217D01*
X103818326Y-126498393D01*
X103718436Y-126726118D01*
X103657392Y-126967175D01*
X103657390Y-126967187D01*
X103636857Y-127214994D01*
X99488000Y-127214994D01*
X99488000Y-124800000D01*
X115994750Y-124800000D01*
X116007177Y-124894394D01*
X116013670Y-124943708D01*
X116013671Y-124943712D01*
X116069137Y-125077622D01*
X116069138Y-125077624D01*
X116069139Y-125077625D01*
X116157379Y-125192621D01*
X116272375Y-125280861D01*
X116406291Y-125336330D01*
X116533280Y-125353048D01*
X116549999Y-125355250D01*
X116550000Y-125355250D01*
X116550001Y-125355250D01*
X116564977Y-125353278D01*
X116693709Y-125336330D01*
X116827625Y-125280861D01*
X116899513Y-125225698D01*
X116964682Y-125200504D01*
X117033127Y-125214542D01*
X117050487Y-125225699D01*
X117122373Y-125280860D01*
X117122374Y-125280860D01*
X117122375Y-125280861D01*
X117256291Y-125336330D01*
X117383280Y-125353048D01*
X117399999Y-125355250D01*
X117400000Y-125355250D01*
X117400001Y-125355250D01*
X117414977Y-125353278D01*
X117543709Y-125336330D01*
X117677625Y-125280861D01*
X117792621Y-125192621D01*
X117880861Y-125077625D01*
X117936330Y-124943709D01*
X117943401Y-124890000D01*
X124761516Y-124890000D01*
X125671814Y-124890000D01*
X125667420Y-124894394D01*
X125614759Y-124985606D01*
X125587500Y-125087339D01*
X125587500Y-125192661D01*
X125614759Y-125294394D01*
X125667420Y-125385606D01*
X125671814Y-125390000D01*
X124761516Y-125390000D01*
X124768281Y-125432716D01*
X124829081Y-125619837D01*
X124918404Y-125795143D01*
X125034055Y-125954321D01*
X125173178Y-126093444D01*
X125332356Y-126209095D01*
X125507664Y-126298418D01*
X125694794Y-126359221D01*
X125889118Y-126390000D01*
X126337500Y-126390000D01*
X126337500Y-125540000D01*
X126837500Y-125540000D01*
X126837500Y-126390000D01*
X127285882Y-126390000D01*
X127480205Y-126359221D01*
X127667335Y-126298418D01*
X127722624Y-126270247D01*
X131137000Y-126270247D01*
X131137000Y-127609752D01*
X131148631Y-127668229D01*
X131148632Y-127668230D01*
X131192947Y-127734552D01*
X131259269Y-127778867D01*
X131259270Y-127778868D01*
X131317747Y-127790499D01*
X131317750Y-127790500D01*
X131317752Y-127790500D01*
X132457250Y-127790500D01*
X132457251Y-127790499D01*
X132472068Y-127787552D01*
X132515729Y-127778868D01*
X132515729Y-127778867D01*
X132515731Y-127778867D01*
X132582052Y-127734552D01*
X132626367Y-127668231D01*
X132626367Y-127668229D01*
X132626368Y-127668229D01*
X132635527Y-127622183D01*
X132667911Y-127560272D01*
X132728627Y-127525698D01*
X132798396Y-127529437D01*
X132844825Y-127558693D01*
X132909080Y-127622948D01*
X132909084Y-127622951D01*
X133031998Y-127705080D01*
X133032011Y-127705087D01*
X133103147Y-127734552D01*
X133168587Y-127761658D01*
X133168591Y-127761658D01*
X133168592Y-127761659D01*
X133313579Y-127790500D01*
X133313582Y-127790500D01*
X133461420Y-127790500D01*
X133558962Y-127771096D01*
X133606413Y-127761658D01*
X133742995Y-127705084D01*
X133865916Y-127622951D01*
X133970451Y-127518416D01*
X134034398Y-127422713D01*
X134088010Y-127377908D01*
X134157335Y-127369201D01*
X134220362Y-127399355D01*
X134240602Y-127422713D01*
X134304548Y-127518415D01*
X134304551Y-127518419D01*
X134409080Y-127622948D01*
X134409084Y-127622951D01*
X134531998Y-127705080D01*
X134532011Y-127705087D01*
X134603147Y-127734552D01*
X134668587Y-127761658D01*
X134668591Y-127761658D01*
X134668592Y-127761659D01*
X134813579Y-127790500D01*
X134813582Y-127790500D01*
X134961420Y-127790500D01*
X135058962Y-127771096D01*
X135106413Y-127761658D01*
X135242995Y-127705084D01*
X135365916Y-127622951D01*
X135470451Y-127518416D01*
X135534398Y-127422713D01*
X135588010Y-127377908D01*
X135657335Y-127369201D01*
X135720362Y-127399355D01*
X135740602Y-127422713D01*
X135804548Y-127518415D01*
X135804551Y-127518419D01*
X135909080Y-127622948D01*
X135909084Y-127622951D01*
X136031998Y-127705080D01*
X136032011Y-127705087D01*
X136103147Y-127734552D01*
X136168587Y-127761658D01*
X136168591Y-127761658D01*
X136168592Y-127761659D01*
X136313579Y-127790500D01*
X136313582Y-127790500D01*
X136461420Y-127790500D01*
X136558962Y-127771096D01*
X136606413Y-127761658D01*
X136742995Y-127705084D01*
X136865916Y-127622951D01*
X136970451Y-127518416D01*
X137034398Y-127422713D01*
X137088010Y-127377908D01*
X137157335Y-127369201D01*
X137220362Y-127399355D01*
X137240602Y-127422713D01*
X137304548Y-127518415D01*
X137304551Y-127518419D01*
X137409080Y-127622948D01*
X137409084Y-127622951D01*
X137531998Y-127705080D01*
X137532011Y-127705087D01*
X137603147Y-127734552D01*
X137668587Y-127761658D01*
X137668591Y-127761658D01*
X137668592Y-127761659D01*
X137813579Y-127790500D01*
X137813582Y-127790500D01*
X137961420Y-127790500D01*
X138058962Y-127771096D01*
X138106413Y-127761658D01*
X138242995Y-127705084D01*
X138365916Y-127622951D01*
X138470451Y-127518416D01*
X138534398Y-127422713D01*
X138588010Y-127377908D01*
X138657335Y-127369201D01*
X138720362Y-127399355D01*
X138740602Y-127422713D01*
X138804548Y-127518415D01*
X138804551Y-127518419D01*
X138909080Y-127622948D01*
X138909084Y-127622951D01*
X139031998Y-127705080D01*
X139032011Y-127705087D01*
X139103147Y-127734552D01*
X139168587Y-127761658D01*
X139168591Y-127761658D01*
X139168592Y-127761659D01*
X139313579Y-127790500D01*
X139313582Y-127790500D01*
X139461420Y-127790500D01*
X139558962Y-127771096D01*
X139606413Y-127761658D01*
X139742995Y-127705084D01*
X139865916Y-127622951D01*
X139970451Y-127518416D01*
X140034398Y-127422713D01*
X140088010Y-127377908D01*
X140157335Y-127369201D01*
X140220362Y-127399355D01*
X140240602Y-127422713D01*
X140304548Y-127518415D01*
X140304551Y-127518419D01*
X140409080Y-127622948D01*
X140409084Y-127622951D01*
X140531998Y-127705080D01*
X140532011Y-127705087D01*
X140603147Y-127734552D01*
X140668587Y-127761658D01*
X140668591Y-127761658D01*
X140668592Y-127761659D01*
X140813579Y-127790500D01*
X140813582Y-127790500D01*
X140961420Y-127790500D01*
X141058962Y-127771096D01*
X141106413Y-127761658D01*
X141242995Y-127705084D01*
X141365916Y-127622951D01*
X141470451Y-127518416D01*
X141534398Y-127422713D01*
X141588010Y-127377908D01*
X141657335Y-127369201D01*
X141720362Y-127399355D01*
X141740602Y-127422713D01*
X141804548Y-127518415D01*
X141804551Y-127518419D01*
X141909080Y-127622948D01*
X141909084Y-127622951D01*
X142031998Y-127705080D01*
X142032011Y-127705087D01*
X142103147Y-127734552D01*
X142168587Y-127761658D01*
X142168591Y-127761658D01*
X142168592Y-127761659D01*
X142313579Y-127790500D01*
X142313582Y-127790500D01*
X142461420Y-127790500D01*
X142558962Y-127771096D01*
X142606413Y-127761658D01*
X142742995Y-127705084D01*
X142865916Y-127622951D01*
X142970451Y-127518416D01*
X143034398Y-127422713D01*
X143088010Y-127377908D01*
X143157335Y-127369201D01*
X143220362Y-127399355D01*
X143240602Y-127422713D01*
X143304548Y-127518415D01*
X143304551Y-127518419D01*
X143409080Y-127622948D01*
X143409084Y-127622951D01*
X143531998Y-127705080D01*
X143532011Y-127705087D01*
X143603147Y-127734552D01*
X143668587Y-127761658D01*
X143668591Y-127761658D01*
X143668592Y-127761659D01*
X143813579Y-127790500D01*
X143813582Y-127790500D01*
X143961420Y-127790500D01*
X144058962Y-127771096D01*
X144106413Y-127761658D01*
X144242995Y-127705084D01*
X144365916Y-127622951D01*
X144470451Y-127518416D01*
X144534398Y-127422713D01*
X144588010Y-127377908D01*
X144657335Y-127369201D01*
X144720362Y-127399355D01*
X144740602Y-127422713D01*
X144804548Y-127518415D01*
X144804551Y-127518419D01*
X144909080Y-127622948D01*
X144909084Y-127622951D01*
X145031998Y-127705080D01*
X145032011Y-127705087D01*
X145103147Y-127734552D01*
X145168587Y-127761658D01*
X145168591Y-127761658D01*
X145168592Y-127761659D01*
X145313579Y-127790500D01*
X145313582Y-127790500D01*
X145461420Y-127790500D01*
X145558962Y-127771096D01*
X145606413Y-127761658D01*
X145742995Y-127705084D01*
X145865916Y-127622951D01*
X145970451Y-127518416D01*
X146034398Y-127422713D01*
X146088010Y-127377908D01*
X146157335Y-127369201D01*
X146220362Y-127399355D01*
X146240602Y-127422713D01*
X146304548Y-127518415D01*
X146304551Y-127518419D01*
X146409080Y-127622948D01*
X146409084Y-127622951D01*
X146531998Y-127705080D01*
X146532011Y-127705087D01*
X146603147Y-127734552D01*
X146668587Y-127761658D01*
X146668591Y-127761658D01*
X146668592Y-127761659D01*
X146813579Y-127790500D01*
X146813582Y-127790500D01*
X146961420Y-127790500D01*
X147058962Y-127771096D01*
X147106413Y-127761658D01*
X147242995Y-127705084D01*
X147365322Y-127623347D01*
X147431998Y-127602470D01*
X147499378Y-127620954D01*
X147537314Y-127657559D01*
X147571910Y-127709335D01*
X147571913Y-127709339D01*
X147718160Y-127855586D01*
X147718164Y-127855589D01*
X147890131Y-127970494D01*
X147890141Y-127970499D01*
X148081223Y-128049648D01*
X148081225Y-128049649D01*
X148137500Y-128060842D01*
X148137500Y-127184975D01*
X148172595Y-127220070D01*
X148252405Y-127266148D01*
X148341422Y-127290000D01*
X148433578Y-127290000D01*
X148522595Y-127266148D01*
X148602405Y-127220070D01*
X148637500Y-127184975D01*
X148637500Y-128060842D01*
X148693774Y-128049649D01*
X148693776Y-128049648D01*
X148884858Y-127970499D01*
X148884868Y-127970494D01*
X149056835Y-127855589D01*
X149056839Y-127855586D01*
X149203087Y-127709338D01*
X149237684Y-127657560D01*
X149291296Y-127612755D01*
X149360621Y-127604047D01*
X149409678Y-127623348D01*
X149531998Y-127705080D01*
X149532011Y-127705087D01*
X149603147Y-127734552D01*
X149668587Y-127761658D01*
X149668591Y-127761658D01*
X149668592Y-127761659D01*
X149813579Y-127790500D01*
X149813582Y-127790500D01*
X149961420Y-127790500D01*
X150058962Y-127771096D01*
X150106413Y-127761658D01*
X150242995Y-127705084D01*
X150365916Y-127622951D01*
X150470451Y-127518416D01*
X150534398Y-127422713D01*
X150588010Y-127377908D01*
X150657335Y-127369201D01*
X150720362Y-127399355D01*
X150740602Y-127422713D01*
X150804548Y-127518415D01*
X150804551Y-127518419D01*
X150909080Y-127622948D01*
X150909084Y-127622951D01*
X151031998Y-127705080D01*
X151032011Y-127705087D01*
X151103147Y-127734552D01*
X151168587Y-127761658D01*
X151168591Y-127761658D01*
X151168592Y-127761659D01*
X151313579Y-127790500D01*
X151313582Y-127790500D01*
X151461420Y-127790500D01*
X151558962Y-127771096D01*
X151606413Y-127761658D01*
X151742995Y-127705084D01*
X151865916Y-127622951D01*
X151970451Y-127518416D01*
X152034398Y-127422713D01*
X152088010Y-127377908D01*
X152157335Y-127369201D01*
X152220362Y-127399355D01*
X152240602Y-127422713D01*
X152304548Y-127518415D01*
X152304551Y-127518419D01*
X152409080Y-127622948D01*
X152409084Y-127622951D01*
X152531998Y-127705080D01*
X152532011Y-127705087D01*
X152603147Y-127734552D01*
X152668587Y-127761658D01*
X152668591Y-127761658D01*
X152668592Y-127761659D01*
X152813579Y-127790500D01*
X152813582Y-127790500D01*
X152961420Y-127790500D01*
X153058962Y-127771096D01*
X153106413Y-127761658D01*
X153242995Y-127705084D01*
X153365916Y-127622951D01*
X153470451Y-127518416D01*
X153534398Y-127422713D01*
X153588010Y-127377908D01*
X153657335Y-127369201D01*
X153720362Y-127399355D01*
X153740602Y-127422713D01*
X153804548Y-127518415D01*
X153804551Y-127518419D01*
X153909080Y-127622948D01*
X153909084Y-127622951D01*
X154031998Y-127705080D01*
X154032011Y-127705087D01*
X154103147Y-127734552D01*
X154168587Y-127761658D01*
X154168591Y-127761658D01*
X154168592Y-127761659D01*
X154313579Y-127790500D01*
X154313582Y-127790500D01*
X154461420Y-127790500D01*
X154558962Y-127771096D01*
X154606413Y-127761658D01*
X154742995Y-127705084D01*
X154865916Y-127622951D01*
X154970451Y-127518416D01*
X155034398Y-127422713D01*
X155088010Y-127377908D01*
X155157335Y-127369201D01*
X155220362Y-127399355D01*
X155240602Y-127422713D01*
X155304548Y-127518415D01*
X155304551Y-127518419D01*
X155409080Y-127622948D01*
X155409084Y-127622951D01*
X155531998Y-127705080D01*
X155532011Y-127705087D01*
X155603147Y-127734552D01*
X155668587Y-127761658D01*
X155668591Y-127761658D01*
X155668592Y-127761659D01*
X155813579Y-127790500D01*
X155813582Y-127790500D01*
X155961420Y-127790500D01*
X156058962Y-127771096D01*
X156106413Y-127761658D01*
X156242995Y-127705084D01*
X156365916Y-127622951D01*
X156470451Y-127518416D01*
X156552584Y-127395495D01*
X156609158Y-127258913D01*
X156637000Y-127118945D01*
X156638000Y-127113920D01*
X156638000Y-127010943D01*
X163387000Y-127010943D01*
X163387000Y-127169057D01*
X163413016Y-127266148D01*
X163427923Y-127321783D01*
X163427926Y-127321790D01*
X163506975Y-127458709D01*
X163506979Y-127458714D01*
X163506980Y-127458716D01*
X163618784Y-127570520D01*
X163618786Y-127570521D01*
X163618790Y-127570524D01*
X163755709Y-127649573D01*
X163755716Y-127649577D01*
X163908443Y-127690500D01*
X163908445Y-127690500D01*
X164066555Y-127690500D01*
X164066557Y-127690500D01*
X164219284Y-127649577D01*
X164356216Y-127570520D01*
X164468020Y-127458716D01*
X164547077Y-127321784D01*
X164588000Y-127169057D01*
X164588000Y-127010943D01*
X164547077Y-126858216D01*
X164493884Y-126766082D01*
X164468024Y-126721290D01*
X164468018Y-126721282D01*
X164356217Y-126609481D01*
X164356209Y-126609475D01*
X164219290Y-126530426D01*
X164219286Y-126530424D01*
X164219284Y-126530423D01*
X164066557Y-126489500D01*
X163908443Y-126489500D01*
X163755716Y-126530423D01*
X163755709Y-126530426D01*
X163618790Y-126609475D01*
X163618782Y-126609481D01*
X163506981Y-126721282D01*
X163506975Y-126721290D01*
X163427926Y-126858209D01*
X163427923Y-126858216D01*
X163387000Y-127010943D01*
X156638000Y-127010943D01*
X156638000Y-126766079D01*
X156609159Y-126621092D01*
X156609158Y-126621091D01*
X156609158Y-126621087D01*
X156604348Y-126609475D01*
X156552587Y-126484511D01*
X156552580Y-126484498D01*
X156470451Y-126361584D01*
X156470448Y-126361580D01*
X156365919Y-126257051D01*
X156365915Y-126257048D01*
X156243001Y-126174919D01*
X156242988Y-126174912D01*
X156106417Y-126118343D01*
X156106407Y-126118340D01*
X155961420Y-126089500D01*
X155961418Y-126089500D01*
X155813582Y-126089500D01*
X155813580Y-126089500D01*
X155668592Y-126118340D01*
X155668582Y-126118343D01*
X155532011Y-126174912D01*
X155531998Y-126174919D01*
X155409084Y-126257048D01*
X155409080Y-126257051D01*
X155304551Y-126361580D01*
X155304548Y-126361584D01*
X155240602Y-126457286D01*
X155186989Y-126502091D01*
X155117664Y-126510798D01*
X155054637Y-126480643D01*
X155034398Y-126457286D01*
X154970451Y-126361584D01*
X154970448Y-126361580D01*
X154865919Y-126257051D01*
X154865915Y-126257048D01*
X154743001Y-126174919D01*
X154742988Y-126174912D01*
X154606417Y-126118343D01*
X154606407Y-126118340D01*
X154461420Y-126089500D01*
X154461418Y-126089500D01*
X154313582Y-126089500D01*
X154313580Y-126089500D01*
X154168592Y-126118340D01*
X154168582Y-126118343D01*
X154032011Y-126174912D01*
X154031998Y-126174919D01*
X153909084Y-126257048D01*
X153909080Y-126257051D01*
X153804551Y-126361580D01*
X153804548Y-126361584D01*
X153740602Y-126457286D01*
X153686989Y-126502091D01*
X153617664Y-126510798D01*
X153554637Y-126480643D01*
X153534398Y-126457286D01*
X153470451Y-126361584D01*
X153470448Y-126361580D01*
X153365919Y-126257051D01*
X153365915Y-126257048D01*
X153243001Y-126174919D01*
X153242988Y-126174912D01*
X153106417Y-126118343D01*
X153106407Y-126118340D01*
X152961420Y-126089500D01*
X152961418Y-126089500D01*
X152813582Y-126089500D01*
X152813580Y-126089500D01*
X152668592Y-126118340D01*
X152668582Y-126118343D01*
X152532011Y-126174912D01*
X152531998Y-126174919D01*
X152409084Y-126257048D01*
X152409080Y-126257051D01*
X152304551Y-126361580D01*
X152304548Y-126361584D01*
X152240602Y-126457286D01*
X152186989Y-126502091D01*
X152117664Y-126510798D01*
X152054637Y-126480643D01*
X152034398Y-126457286D01*
X151970451Y-126361584D01*
X151970448Y-126361580D01*
X151865919Y-126257051D01*
X151865915Y-126257048D01*
X151743001Y-126174919D01*
X151742988Y-126174912D01*
X151606417Y-126118343D01*
X151606407Y-126118340D01*
X151461420Y-126089500D01*
X151461418Y-126089500D01*
X151313582Y-126089500D01*
X151313580Y-126089500D01*
X151168592Y-126118340D01*
X151168582Y-126118343D01*
X151032011Y-126174912D01*
X151031998Y-126174919D01*
X150909084Y-126257048D01*
X150909080Y-126257051D01*
X150804551Y-126361580D01*
X150804548Y-126361584D01*
X150740602Y-126457286D01*
X150686989Y-126502091D01*
X150617664Y-126510798D01*
X150554637Y-126480643D01*
X150534398Y-126457286D01*
X150470451Y-126361584D01*
X150470448Y-126361580D01*
X150365919Y-126257051D01*
X150365915Y-126257048D01*
X150243001Y-126174919D01*
X150242988Y-126174912D01*
X150106417Y-126118343D01*
X150106407Y-126118340D01*
X149961420Y-126089500D01*
X149961418Y-126089500D01*
X149813582Y-126089500D01*
X149813580Y-126089500D01*
X149668592Y-126118340D01*
X149668582Y-126118343D01*
X149532011Y-126174912D01*
X149531993Y-126174922D01*
X149409677Y-126256651D01*
X149343000Y-126277529D01*
X149275620Y-126259044D01*
X149237685Y-126222440D01*
X149203089Y-126170664D01*
X149203086Y-126170660D01*
X149056839Y-126024413D01*
X149056835Y-126024410D01*
X148884868Y-125909505D01*
X148884858Y-125909500D01*
X148693772Y-125830349D01*
X148693767Y-125830347D01*
X148637500Y-125819155D01*
X148637500Y-126695025D01*
X148602405Y-126659930D01*
X148522595Y-126613852D01*
X148433578Y-126590000D01*
X148341422Y-126590000D01*
X148252405Y-126613852D01*
X148172595Y-126659930D01*
X148137500Y-126695025D01*
X148137500Y-125819156D01*
X148137499Y-125819155D01*
X148081232Y-125830347D01*
X148081227Y-125830349D01*
X147890141Y-125909500D01*
X147890131Y-125909505D01*
X147718164Y-126024410D01*
X147718160Y-126024413D01*
X147571913Y-126170660D01*
X147571908Y-126170666D01*
X147537313Y-126222441D01*
X147483701Y-126267245D01*
X147414375Y-126275952D01*
X147365321Y-126256651D01*
X147243001Y-126174919D01*
X147242988Y-126174912D01*
X147106417Y-126118343D01*
X147106407Y-126118340D01*
X146961420Y-126089500D01*
X146961418Y-126089500D01*
X146813582Y-126089500D01*
X146813580Y-126089500D01*
X146668592Y-126118340D01*
X146668582Y-126118343D01*
X146532011Y-126174912D01*
X146531998Y-126174919D01*
X146409084Y-126257048D01*
X146409080Y-126257051D01*
X146304551Y-126361580D01*
X146304548Y-126361584D01*
X146240602Y-126457286D01*
X146186989Y-126502091D01*
X146117664Y-126510798D01*
X146054637Y-126480643D01*
X146034398Y-126457286D01*
X145970451Y-126361584D01*
X145970448Y-126361580D01*
X145865919Y-126257051D01*
X145865915Y-126257048D01*
X145743001Y-126174919D01*
X145742988Y-126174912D01*
X145606417Y-126118343D01*
X145606407Y-126118340D01*
X145461420Y-126089500D01*
X145461418Y-126089500D01*
X145313582Y-126089500D01*
X145313580Y-126089500D01*
X145168592Y-126118340D01*
X145168582Y-126118343D01*
X145032011Y-126174912D01*
X145031998Y-126174919D01*
X144909084Y-126257048D01*
X144909080Y-126257051D01*
X144804551Y-126361580D01*
X144804548Y-126361584D01*
X144740602Y-126457286D01*
X144686989Y-126502091D01*
X144617664Y-126510798D01*
X144554637Y-126480643D01*
X144534398Y-126457286D01*
X144470451Y-126361584D01*
X144470448Y-126361580D01*
X144365919Y-126257051D01*
X144365915Y-126257048D01*
X144243001Y-126174919D01*
X144242988Y-126174912D01*
X144106417Y-126118343D01*
X144106407Y-126118340D01*
X143961420Y-126089500D01*
X143961418Y-126089500D01*
X143813582Y-126089500D01*
X143813580Y-126089500D01*
X143668592Y-126118340D01*
X143668582Y-126118343D01*
X143532011Y-126174912D01*
X143531998Y-126174919D01*
X143409084Y-126257048D01*
X143409080Y-126257051D01*
X143304551Y-126361580D01*
X143304548Y-126361584D01*
X143240602Y-126457286D01*
X143186989Y-126502091D01*
X143117664Y-126510798D01*
X143054637Y-126480643D01*
X143034398Y-126457286D01*
X142970451Y-126361584D01*
X142970448Y-126361580D01*
X142865919Y-126257051D01*
X142865915Y-126257048D01*
X142743001Y-126174919D01*
X142742988Y-126174912D01*
X142606417Y-126118343D01*
X142606407Y-126118340D01*
X142461420Y-126089500D01*
X142461418Y-126089500D01*
X142313582Y-126089500D01*
X142313580Y-126089500D01*
X142168592Y-126118340D01*
X142168582Y-126118343D01*
X142032011Y-126174912D01*
X142031998Y-126174919D01*
X141909084Y-126257048D01*
X141909080Y-126257051D01*
X141804551Y-126361580D01*
X141804548Y-126361584D01*
X141740602Y-126457286D01*
X141686989Y-126502091D01*
X141617664Y-126510798D01*
X141554637Y-126480643D01*
X141534398Y-126457286D01*
X141470451Y-126361584D01*
X141470448Y-126361580D01*
X141365919Y-126257051D01*
X141365915Y-126257048D01*
X141243001Y-126174919D01*
X141242988Y-126174912D01*
X141106417Y-126118343D01*
X141106407Y-126118340D01*
X140961420Y-126089500D01*
X140961418Y-126089500D01*
X140813582Y-126089500D01*
X140813580Y-126089500D01*
X140668592Y-126118340D01*
X140668582Y-126118343D01*
X140532011Y-126174912D01*
X140531998Y-126174919D01*
X140409084Y-126257048D01*
X140409080Y-126257051D01*
X140304551Y-126361580D01*
X140304548Y-126361584D01*
X140240602Y-126457286D01*
X140186989Y-126502091D01*
X140117664Y-126510798D01*
X140054637Y-126480643D01*
X140034398Y-126457286D01*
X139970451Y-126361584D01*
X139970448Y-126361580D01*
X139865919Y-126257051D01*
X139865915Y-126257048D01*
X139743001Y-126174919D01*
X139742988Y-126174912D01*
X139606417Y-126118343D01*
X139606407Y-126118340D01*
X139461420Y-126089500D01*
X139461418Y-126089500D01*
X139313582Y-126089500D01*
X139313580Y-126089500D01*
X139168592Y-126118340D01*
X139168582Y-126118343D01*
X139032011Y-126174912D01*
X139031998Y-126174919D01*
X138909084Y-126257048D01*
X138909080Y-126257051D01*
X138804551Y-126361580D01*
X138804548Y-126361584D01*
X138740602Y-126457286D01*
X138686989Y-126502091D01*
X138617664Y-126510798D01*
X138554637Y-126480643D01*
X138534398Y-126457286D01*
X138470451Y-126361584D01*
X138470448Y-126361580D01*
X138365919Y-126257051D01*
X138365915Y-126257048D01*
X138243001Y-126174919D01*
X138242988Y-126174912D01*
X138106417Y-126118343D01*
X138106407Y-126118340D01*
X137961420Y-126089500D01*
X137961418Y-126089500D01*
X137813582Y-126089500D01*
X137813580Y-126089500D01*
X137668592Y-126118340D01*
X137668582Y-126118343D01*
X137532011Y-126174912D01*
X137531998Y-126174919D01*
X137409084Y-126257048D01*
X137409080Y-126257051D01*
X137304551Y-126361580D01*
X137304548Y-126361584D01*
X137240602Y-126457286D01*
X137186989Y-126502091D01*
X137117664Y-126510798D01*
X137054637Y-126480643D01*
X137034398Y-126457286D01*
X136970451Y-126361584D01*
X136970448Y-126361580D01*
X136865919Y-126257051D01*
X136865915Y-126257048D01*
X136743001Y-126174919D01*
X136742988Y-126174912D01*
X136606417Y-126118343D01*
X136606407Y-126118340D01*
X136461420Y-126089500D01*
X136461418Y-126089500D01*
X136313582Y-126089500D01*
X136313580Y-126089500D01*
X136168592Y-126118340D01*
X136168582Y-126118343D01*
X136032011Y-126174912D01*
X136031998Y-126174919D01*
X135909084Y-126257048D01*
X135909080Y-126257051D01*
X135804551Y-126361580D01*
X135804548Y-126361584D01*
X135740602Y-126457286D01*
X135686989Y-126502091D01*
X135617664Y-126510798D01*
X135554637Y-126480643D01*
X135534398Y-126457286D01*
X135470451Y-126361584D01*
X135470448Y-126361580D01*
X135365919Y-126257051D01*
X135365915Y-126257048D01*
X135243001Y-126174919D01*
X135242988Y-126174912D01*
X135106417Y-126118343D01*
X135106407Y-126118340D01*
X134961420Y-126089500D01*
X134961418Y-126089500D01*
X134813582Y-126089500D01*
X134813580Y-126089500D01*
X134668592Y-126118340D01*
X134668582Y-126118343D01*
X134532011Y-126174912D01*
X134531998Y-126174919D01*
X134409084Y-126257048D01*
X134409080Y-126257051D01*
X134304551Y-126361580D01*
X134304548Y-126361584D01*
X134240602Y-126457286D01*
X134186989Y-126502091D01*
X134117664Y-126510798D01*
X134054637Y-126480643D01*
X134034398Y-126457286D01*
X133970451Y-126361584D01*
X133970448Y-126361580D01*
X133865919Y-126257051D01*
X133865915Y-126257048D01*
X133743001Y-126174919D01*
X133742988Y-126174912D01*
X133606417Y-126118343D01*
X133606407Y-126118340D01*
X133461420Y-126089500D01*
X133461418Y-126089500D01*
X133313582Y-126089500D01*
X133313580Y-126089500D01*
X133168592Y-126118340D01*
X133168582Y-126118343D01*
X133032011Y-126174912D01*
X133031998Y-126174919D01*
X132909084Y-126257048D01*
X132844825Y-126321307D01*
X132783501Y-126354791D01*
X132713810Y-126349806D01*
X132657876Y-126307935D01*
X132635527Y-126257816D01*
X132626368Y-126211770D01*
X132626367Y-126211769D01*
X132582052Y-126145447D01*
X132515730Y-126101132D01*
X132515729Y-126101131D01*
X132457252Y-126089500D01*
X132457248Y-126089500D01*
X131317752Y-126089500D01*
X131317747Y-126089500D01*
X131259270Y-126101131D01*
X131259269Y-126101132D01*
X131192947Y-126145447D01*
X131148632Y-126211769D01*
X131148631Y-126211770D01*
X131137000Y-126270247D01*
X127722624Y-126270247D01*
X127842643Y-126209095D01*
X128001821Y-126093444D01*
X128140944Y-125954321D01*
X128256595Y-125795143D01*
X128345918Y-125619837D01*
X128406718Y-125432716D01*
X128413484Y-125390000D01*
X127503186Y-125390000D01*
X127507580Y-125385606D01*
X127560241Y-125294394D01*
X127587500Y-125192661D01*
X127587500Y-125087339D01*
X127576525Y-125046379D01*
X159637000Y-125046379D01*
X159637000Y-125233620D01*
X159673525Y-125417243D01*
X159673527Y-125417251D01*
X159745176Y-125590228D01*
X159745181Y-125590237D01*
X159849197Y-125745907D01*
X159849200Y-125745911D01*
X159981588Y-125878299D01*
X159981592Y-125878302D01*
X160137262Y-125982318D01*
X160137268Y-125982321D01*
X160137269Y-125982322D01*
X160310249Y-126053973D01*
X160488857Y-126089500D01*
X160493879Y-126090499D01*
X160493883Y-126090500D01*
X160493884Y-126090500D01*
X161881117Y-126090500D01*
X161881118Y-126090499D01*
X162064751Y-126053973D01*
X162237731Y-125982322D01*
X162393408Y-125878302D01*
X162525802Y-125745908D01*
X162629822Y-125590231D01*
X162701473Y-125417251D01*
X162738000Y-125233616D01*
X162738000Y-125046384D01*
X162701473Y-124862749D01*
X162629822Y-124689769D01*
X162629821Y-124689768D01*
X162629818Y-124689762D01*
X162525802Y-124534092D01*
X162525799Y-124534088D01*
X162393411Y-124401700D01*
X162393407Y-124401697D01*
X162237737Y-124297681D01*
X162237728Y-124297676D01*
X162064751Y-124226027D01*
X162064743Y-124226025D01*
X161881120Y-124189500D01*
X161881116Y-124189500D01*
X160493884Y-124189500D01*
X160493879Y-124189500D01*
X160310256Y-124226025D01*
X160310248Y-124226027D01*
X160137271Y-124297676D01*
X160137262Y-124297681D01*
X159981592Y-124401697D01*
X159981588Y-124401700D01*
X159849200Y-124534088D01*
X159849197Y-124534092D01*
X159745181Y-124689762D01*
X159745176Y-124689771D01*
X159673527Y-124862748D01*
X159673525Y-124862756D01*
X159637000Y-125046379D01*
X127576525Y-125046379D01*
X127560241Y-124985606D01*
X127507580Y-124894394D01*
X127503186Y-124890000D01*
X128413484Y-124890000D01*
X128406718Y-124847283D01*
X128345918Y-124660162D01*
X128256595Y-124484856D01*
X128140944Y-124325678D01*
X128001821Y-124186555D01*
X127842643Y-124070904D01*
X127667335Y-123981581D01*
X127480205Y-123920778D01*
X127285882Y-123890000D01*
X126837500Y-123890000D01*
X126837500Y-124740000D01*
X126337500Y-124740000D01*
X126337500Y-123890000D01*
X125889118Y-123890000D01*
X125694794Y-123920778D01*
X125507664Y-123981581D01*
X125332356Y-124070904D01*
X125173178Y-124186555D01*
X125034055Y-124325678D01*
X124918404Y-124484856D01*
X124829081Y-124660162D01*
X124768281Y-124847283D01*
X124761516Y-124890000D01*
X117943401Y-124890000D01*
X117955250Y-124800000D01*
X117936330Y-124656291D01*
X117880861Y-124522375D01*
X117792621Y-124407379D01*
X117677625Y-124319139D01*
X117677624Y-124319138D01*
X117677622Y-124319137D01*
X117543712Y-124263671D01*
X117543710Y-124263670D01*
X117543709Y-124263670D01*
X117471854Y-124254210D01*
X117400001Y-124244750D01*
X117399999Y-124244750D01*
X117256291Y-124263670D01*
X117256287Y-124263671D01*
X117122376Y-124319138D01*
X117122374Y-124319139D01*
X117050486Y-124374301D01*
X116985317Y-124399495D01*
X116916872Y-124385456D01*
X116899514Y-124374301D01*
X116827625Y-124319139D01*
X116827623Y-124319138D01*
X116781216Y-124299916D01*
X116726812Y-124256076D01*
X116704747Y-124189782D01*
X116722026Y-124122082D01*
X116773162Y-124074472D01*
X116781184Y-124070807D01*
X116877625Y-124030861D01*
X116992621Y-123942621D01*
X117080861Y-123827625D01*
X117136330Y-123693709D01*
X117155250Y-123550000D01*
X117136330Y-123406291D01*
X117080861Y-123272375D01*
X116992621Y-123157379D01*
X116877625Y-123069139D01*
X116877624Y-123069138D01*
X116877622Y-123069137D01*
X116743712Y-123013671D01*
X116743710Y-123013670D01*
X116743709Y-123013670D01*
X116671854Y-123004210D01*
X116600001Y-122994750D01*
X116599999Y-122994750D01*
X116456291Y-123013670D01*
X116456287Y-123013671D01*
X116322377Y-123069137D01*
X116207379Y-123157379D01*
X116119137Y-123272377D01*
X116063671Y-123406287D01*
X116063670Y-123406291D01*
X116044750Y-123549999D01*
X116044750Y-123550000D01*
X116063670Y-123693708D01*
X116063671Y-123693712D01*
X116119137Y-123827622D01*
X116119138Y-123827624D01*
X116119139Y-123827625D01*
X116207379Y-123942621D01*
X116322375Y-124030861D01*
X116368784Y-124050084D01*
X116423186Y-124093922D01*
X116445252Y-124160216D01*
X116427974Y-124227916D01*
X116376838Y-124275527D01*
X116368784Y-124279205D01*
X116272376Y-124319138D01*
X116157379Y-124407379D01*
X116069137Y-124522377D01*
X116013671Y-124656287D01*
X116013670Y-124656291D01*
X115999061Y-124767259D01*
X115994750Y-124800000D01*
X99488000Y-124800000D01*
X99488000Y-122624000D01*
X99507685Y-122556961D01*
X99560489Y-122511206D01*
X99612000Y-122500000D01*
X103518000Y-122500000D01*
X103585039Y-122519685D01*
G37*
%TD.AperFunction*%
%TD*%
M02*
