%TF.GenerationSoftware,KiCad,Pcbnew,8.0.5*%
%TF.CreationDate,2025-05-11T20:57:56-04:00*%
%TF.ProjectId,Var_Volt_Conv,5661725f-566f-46c7-945f-436f6e762e6b,rev?*%
%TF.SameCoordinates,Original*%
%TF.FileFunction,Copper,L1,Top*%
%TF.FilePolarity,Positive*%
%FSLAX46Y46*%
G04 Gerber Fmt 4.6, Leading zero omitted, Abs format (unit mm)*
G04 Created by KiCad (PCBNEW 8.0.5) date 2025-05-11 20:57:56*
%MOMM*%
%LPD*%
G01*
G04 APERTURE LIST*
G04 Aperture macros list*
%AMRoundRect*
0 Rectangle with rounded corners*
0 $1 Rounding radius*
0 $2 $3 $4 $5 $6 $7 $8 $9 X,Y pos of 4 corners*
0 Add a 4 corners polygon primitive as box body*
4,1,4,$2,$3,$4,$5,$6,$7,$8,$9,$2,$3,0*
0 Add four circle primitives for the rounded corners*
1,1,$1+$1,$2,$3*
1,1,$1+$1,$4,$5*
1,1,$1+$1,$6,$7*
1,1,$1+$1,$8,$9*
0 Add four rect primitives between the rounded corners*
20,1,$1+$1,$2,$3,$4,$5,0*
20,1,$1+$1,$4,$5,$6,$7,0*
20,1,$1+$1,$6,$7,$8,$9,0*
20,1,$1+$1,$8,$9,$2,$3,0*%
%AMFreePoly0*
4,1,25,1.176913,0.169619,1.179619,0.166913,1.180000,0.165000,1.180000,0.125000,1.700000,0.125000,1.700000,-0.125000,1.180000,-0.125000,1.180000,-0.165000,1.179619,-0.166913,1.176913,-0.169619,1.175000,-0.170000,-1.175000,-0.170000,-1.176913,-0.169619,-1.179619,-0.166913,-1.180000,-0.165000,-1.180000,-0.125000,-1.700000,-0.125000,-1.700000,0.125000,-1.180000,0.125000,-1.180000,0.165000,
-1.179619,0.166913,-1.176913,0.169619,-1.175000,0.170000,1.175000,0.170000,1.176913,0.169619,1.176913,0.169619,$1*%
G04 Aperture macros list end*
%TA.AperFunction,EtchedComponent*%
%ADD10C,0.000000*%
%TD*%
%TA.AperFunction,ComponentPad*%
%ADD11R,1.100000X1.300000*%
%TD*%
%TA.AperFunction,ComponentPad*%
%ADD12O,1.100000X1.300000*%
%TD*%
%TA.AperFunction,ComponentPad*%
%ADD13O,2.700000X1.500000*%
%TD*%
%TA.AperFunction,SMDPad,CuDef*%
%ADD14RoundRect,0.250000X0.312500X1.075000X-0.312500X1.075000X-0.312500X-1.075000X0.312500X-1.075000X0*%
%TD*%
%TA.AperFunction,SMDPad,CuDef*%
%ADD15RoundRect,0.135000X0.135000X0.185000X-0.135000X0.185000X-0.135000X-0.185000X0.135000X-0.185000X0*%
%TD*%
%TA.AperFunction,SMDPad,CuDef*%
%ADD16RoundRect,0.150000X-0.512500X-0.150000X0.512500X-0.150000X0.512500X0.150000X-0.512500X0.150000X0*%
%TD*%
%TA.AperFunction,SMDPad,CuDef*%
%ADD17RoundRect,0.135000X-0.185000X0.135000X-0.185000X-0.135000X0.185000X-0.135000X0.185000X0.135000X0*%
%TD*%
%TA.AperFunction,SMDPad,CuDef*%
%ADD18RoundRect,0.140000X-0.140000X-0.170000X0.140000X-0.170000X0.140000X0.170000X-0.140000X0.170000X0*%
%TD*%
%TA.AperFunction,SMDPad,CuDef*%
%ADD19RoundRect,0.050000X0.075000X-0.250000X0.075000X0.250000X-0.075000X0.250000X-0.075000X-0.250000X0*%
%TD*%
%TA.AperFunction,SMDPad,CuDef*%
%ADD20RoundRect,0.050000X0.275000X0.100000X-0.275000X0.100000X-0.275000X-0.100000X0.275000X-0.100000X0*%
%TD*%
%TA.AperFunction,SMDPad,CuDef*%
%ADD21RoundRect,0.050000X0.250000X0.075000X-0.250000X0.075000X-0.250000X-0.075000X0.250000X-0.075000X0*%
%TD*%
%TA.AperFunction,SMDPad,CuDef*%
%ADD22R,3.400000X0.250000*%
%TD*%
%TA.AperFunction,SMDPad,CuDef*%
%ADD23FreePoly0,180.000000*%
%TD*%
%TA.AperFunction,SMDPad,CuDef*%
%ADD24RoundRect,0.050000X-0.075000X0.250000X-0.075000X-0.250000X0.075000X-0.250000X0.075000X0.250000X0*%
%TD*%
%TA.AperFunction,SMDPad,CuDef*%
%ADD25RoundRect,0.050000X-0.275000X-0.100000X0.275000X-0.100000X0.275000X0.100000X-0.275000X0.100000X0*%
%TD*%
%TA.AperFunction,SMDPad,CuDef*%
%ADD26RoundRect,0.050000X-0.250000X-0.075000X0.250000X-0.075000X0.250000X0.075000X-0.250000X0.075000X0*%
%TD*%
%TA.AperFunction,SMDPad,CuDef*%
%ADD27R,1.400000X1.200000*%
%TD*%
%TA.AperFunction,SMDPad,CuDef*%
%ADD28R,2.500000X1.900000*%
%TD*%
%TA.AperFunction,SMDPad,CuDef*%
%ADD29RoundRect,0.150000X-0.587500X-0.150000X0.587500X-0.150000X0.587500X0.150000X-0.587500X0.150000X0*%
%TD*%
%TA.AperFunction,SMDPad,CuDef*%
%ADD30RoundRect,0.140000X0.170000X-0.140000X0.170000X0.140000X-0.170000X0.140000X-0.170000X-0.140000X0*%
%TD*%
%TA.AperFunction,SMDPad,CuDef*%
%ADD31RoundRect,0.100000X-0.637500X-0.100000X0.637500X-0.100000X0.637500X0.100000X-0.637500X0.100000X0*%
%TD*%
%TA.AperFunction,SMDPad,CuDef*%
%ADD32RoundRect,0.150000X0.150000X-0.587500X0.150000X0.587500X-0.150000X0.587500X-0.150000X-0.587500X0*%
%TD*%
%TA.AperFunction,SMDPad,CuDef*%
%ADD33RoundRect,0.200000X0.275000X-0.200000X0.275000X0.200000X-0.275000X0.200000X-0.275000X-0.200000X0*%
%TD*%
%TA.AperFunction,SMDPad,CuDef*%
%ADD34RoundRect,0.200000X-0.200000X-0.275000X0.200000X-0.275000X0.200000X0.275000X-0.200000X0.275000X0*%
%TD*%
%TA.AperFunction,SMDPad,CuDef*%
%ADD35RoundRect,0.140000X0.140000X0.170000X-0.140000X0.170000X-0.140000X-0.170000X0.140000X-0.170000X0*%
%TD*%
%TA.AperFunction,SMDPad,CuDef*%
%ADD36RoundRect,0.200000X-0.275000X0.200000X-0.275000X-0.200000X0.275000X-0.200000X0.275000X0.200000X0*%
%TD*%
%TA.AperFunction,WasherPad*%
%ADD37C,4.000000*%
%TD*%
%TA.AperFunction,ComponentPad*%
%ADD38C,1.800000*%
%TD*%
%TA.AperFunction,SMDPad,CuDef*%
%ADD39RoundRect,0.250000X0.550000X-1.500000X0.550000X1.500000X-0.550000X1.500000X-0.550000X-1.500000X0*%
%TD*%
%TA.AperFunction,ComponentPad*%
%ADD40R,2.600000X2.600000*%
%TD*%
%TA.AperFunction,ComponentPad*%
%ADD41C,2.600000*%
%TD*%
%TA.AperFunction,SMDPad,CuDef*%
%ADD42RoundRect,0.250000X-0.325000X-0.650000X0.325000X-0.650000X0.325000X0.650000X-0.325000X0.650000X0*%
%TD*%
%TA.AperFunction,SMDPad,CuDef*%
%ADD43RoundRect,0.140000X-0.170000X0.140000X-0.170000X-0.140000X0.170000X-0.140000X0.170000X0.140000X0*%
%TD*%
%TA.AperFunction,SMDPad,CuDef*%
%ADD44RoundRect,0.250000X-0.475000X0.250000X-0.475000X-0.250000X0.475000X-0.250000X0.475000X0.250000X0*%
%TD*%
%TA.AperFunction,SMDPad,CuDef*%
%ADD45RoundRect,0.125000X-0.125000X-0.125000X0.125000X-0.125000X0.125000X0.125000X-0.125000X0.125000X0*%
%TD*%
%TA.AperFunction,SMDPad,CuDef*%
%ADD46RoundRect,0.250000X-0.650000X0.325000X-0.650000X-0.325000X0.650000X-0.325000X0.650000X0.325000X0*%
%TD*%
%TA.AperFunction,SMDPad,CuDef*%
%ADD47RoundRect,0.112500X0.112500X-0.187500X0.112500X0.187500X-0.112500X0.187500X-0.112500X-0.187500X0*%
%TD*%
%TA.AperFunction,SMDPad,CuDef*%
%ADD48RoundRect,0.100000X0.100000X-0.225000X0.100000X0.225000X-0.100000X0.225000X-0.100000X-0.225000X0*%
%TD*%
%TA.AperFunction,SMDPad,CuDef*%
%ADD49RoundRect,0.100000X-0.225000X-0.100000X0.225000X-0.100000X0.225000X0.100000X-0.225000X0.100000X0*%
%TD*%
%TA.AperFunction,SMDPad,CuDef*%
%ADD50RoundRect,0.135000X-0.135000X-0.185000X0.135000X-0.185000X0.135000X0.185000X-0.135000X0.185000X0*%
%TD*%
%TA.AperFunction,SMDPad,CuDef*%
%ADD51RoundRect,0.250000X-1.075000X0.312500X-1.075000X-0.312500X1.075000X-0.312500X1.075000X0.312500X0*%
%TD*%
%TA.AperFunction,SMDPad,CuDef*%
%ADD52RoundRect,0.135000X0.185000X-0.135000X0.185000X0.135000X-0.185000X0.135000X-0.185000X-0.135000X0*%
%TD*%
%TA.AperFunction,SMDPad,CuDef*%
%ADD53RoundRect,0.250000X-0.450000X0.262500X-0.450000X-0.262500X0.450000X-0.262500X0.450000X0.262500X0*%
%TD*%
%TA.AperFunction,ComponentPad*%
%ADD54R,1.700000X1.700000*%
%TD*%
%TA.AperFunction,ComponentPad*%
%ADD55O,1.700000X1.700000*%
%TD*%
%TA.AperFunction,SMDPad,CuDef*%
%ADD56RoundRect,0.218750X0.256250X-0.218750X0.256250X0.218750X-0.256250X0.218750X-0.256250X-0.218750X0*%
%TD*%
%TA.AperFunction,SMDPad,CuDef*%
%ADD57RoundRect,0.150000X0.587500X0.150000X-0.587500X0.150000X-0.587500X-0.150000X0.587500X-0.150000X0*%
%TD*%
%TA.AperFunction,SMDPad,CuDef*%
%ADD58RoundRect,0.250000X0.475000X-0.250000X0.475000X0.250000X-0.475000X0.250000X-0.475000X-0.250000X0*%
%TD*%
%TA.AperFunction,SMDPad,CuDef*%
%ADD59RoundRect,0.050000X0.150000X0.300000X-0.150000X0.300000X-0.150000X-0.300000X0.150000X-0.300000X0*%
%TD*%
%TA.AperFunction,SMDPad,CuDef*%
%ADD60RoundRect,0.112500X-0.112500X0.187500X-0.112500X-0.187500X0.112500X-0.187500X0.112500X0.187500X0*%
%TD*%
%TA.AperFunction,SMDPad,CuDef*%
%ADD61RoundRect,0.250000X0.325000X0.650000X-0.325000X0.650000X-0.325000X-0.650000X0.325000X-0.650000X0*%
%TD*%
%TA.AperFunction,SMDPad,CuDef*%
%ADD62C,0.500000*%
%TD*%
%TA.AperFunction,SMDPad,CuDef*%
%ADD63RoundRect,0.050000X-0.150000X-0.300000X0.150000X-0.300000X0.150000X0.300000X-0.150000X0.300000X0*%
%TD*%
%TA.AperFunction,SMDPad,CuDef*%
%ADD64RoundRect,0.125000X-0.125000X0.125000X-0.125000X-0.125000X0.125000X-0.125000X0.125000X0.125000X0*%
%TD*%
%TA.AperFunction,SMDPad,CuDef*%
%ADD65RoundRect,0.250000X0.250000X0.475000X-0.250000X0.475000X-0.250000X-0.475000X0.250000X-0.475000X0*%
%TD*%
%TA.AperFunction,SMDPad,CuDef*%
%ADD66RoundRect,0.125000X0.125000X0.125000X-0.125000X0.125000X-0.125000X-0.125000X0.125000X-0.125000X0*%
%TD*%
%TA.AperFunction,SMDPad,CuDef*%
%ADD67R,1.900000X2.500000*%
%TD*%
%TA.AperFunction,ComponentPad*%
%ADD68R,2.000000X4.000000*%
%TD*%
%TA.AperFunction,ComponentPad*%
%ADD69O,2.000000X3.300000*%
%TD*%
%TA.AperFunction,ComponentPad*%
%ADD70O,3.500000X2.000000*%
%TD*%
%TA.AperFunction,SMDPad,CuDef*%
%ADD71RoundRect,0.062500X0.062500X-0.187500X0.062500X0.187500X-0.062500X0.187500X-0.062500X-0.187500X0*%
%TD*%
%TA.AperFunction,ComponentPad*%
%ADD72C,0.600000*%
%TD*%
%TA.AperFunction,SMDPad,CuDef*%
%ADD73R,1.600000X0.900000*%
%TD*%
%TA.AperFunction,SMDPad,CuDef*%
%ADD74RoundRect,0.100000X0.225000X0.100000X-0.225000X0.100000X-0.225000X-0.100000X0.225000X-0.100000X0*%
%TD*%
%TA.AperFunction,SMDPad,CuDef*%
%ADD75RoundRect,0.225000X-0.250000X0.225000X-0.250000X-0.225000X0.250000X-0.225000X0.250000X0.225000X0*%
%TD*%
%TA.AperFunction,SMDPad,CuDef*%
%ADD76R,1.250000X1.000000*%
%TD*%
%TA.AperFunction,ComponentPad*%
%ADD77C,1.300000*%
%TD*%
%TA.AperFunction,SMDPad,CuDef*%
%ADD78RoundRect,0.150000X0.512500X0.150000X-0.512500X0.150000X-0.512500X-0.150000X0.512500X-0.150000X0*%
%TD*%
%TA.AperFunction,SMDPad,CuDef*%
%ADD79RoundRect,0.150000X-0.150000X0.587500X-0.150000X-0.587500X0.150000X-0.587500X0.150000X0.587500X0*%
%TD*%
%TA.AperFunction,ViaPad*%
%ADD80C,0.600000*%
%TD*%
%TA.AperFunction,ViaPad*%
%ADD81C,0.450000*%
%TD*%
%TA.AperFunction,ViaPad*%
%ADD82C,0.800000*%
%TD*%
%TA.AperFunction,ViaPad*%
%ADD83C,0.700000*%
%TD*%
%TA.AperFunction,Conductor*%
%ADD84C,0.200000*%
%TD*%
%TA.AperFunction,Conductor*%
%ADD85C,0.500000*%
%TD*%
%TA.AperFunction,Conductor*%
%ADD86C,0.750000*%
%TD*%
%TA.AperFunction,Conductor*%
%ADD87C,0.250000*%
%TD*%
G04 APERTURE END LIST*
D10*
%TA.AperFunction,EtchedComponent*%
%TO.C,NT102*%
G36*
X190387500Y-111540000D02*
G01*
X189387500Y-111540000D01*
X189387500Y-111040000D01*
X190387500Y-111040000D01*
X190387500Y-111540000D01*
G37*
%TD.AperFunction*%
%TA.AperFunction,EtchedComponent*%
%TO.C,NT103*%
G36*
X124350000Y-97100000D02*
G01*
X123850000Y-97100000D01*
X123850000Y-96100000D01*
X124350000Y-96100000D01*
X124350000Y-97100000D01*
G37*
%TD.AperFunction*%
%TA.AperFunction,EtchedComponent*%
%TO.C,NT101*%
G36*
X102337500Y-106790000D02*
G01*
X101037500Y-106790000D01*
X101037500Y-101590000D01*
X102337500Y-101590000D01*
X102337500Y-106790000D01*
G37*
%TD.AperFunction*%
%TD*%
D11*
%TO.P,U301,1,V0*%
%TO.N,/[3] Display/LV0*%
X131887500Y-126940000D03*
D12*
%TO.P,U301,2,V1*%
%TO.N,/[3] Display/LV1*%
X133387500Y-126940000D03*
%TO.P,U301,3,V2*%
%TO.N,/[3] Display/LV2*%
X134887500Y-126940000D03*
%TO.P,U301,4,V3*%
%TO.N,/[3] Display/LV3*%
X136387500Y-126940000D03*
%TO.P,U301,5,V4*%
%TO.N,/[3] Display/LV4*%
X137887500Y-126940000D03*
%TO.P,U301,6,C2-*%
%TO.N,/[3] Display/LC2-*%
X139387500Y-126940000D03*
%TO.P,U301,7,C2+*%
%TO.N,/[3] Display/LC2+*%
X140887500Y-126940000D03*
%TO.P,U301,8,C1+*%
%TO.N,/[3] Display/LC1+*%
X142387500Y-126940000D03*
%TO.P,U301,9,C1-*%
%TO.N,/[3] Display/LC1-*%
X143887500Y-126940000D03*
%TO.P,U301,10,VOUT*%
%TO.N,/[3] Display/LVOUT*%
X145387500Y-126940000D03*
%TO.P,U301,11,VSS*%
%TO.N,GNDD*%
X146887500Y-126940000D03*
%TO.P,U301,12,VDD*%
%TO.N,+3V0*%
X148387500Y-126940000D03*
%TO.P,U301,13,SI*%
%TO.N,SPI_MOSI*%
X149887500Y-126940000D03*
%TO.P,U301,14,SCL*%
%TO.N,SPI_CLK*%
X151387500Y-126940000D03*
%TO.P,U301,15,A0*%
%TO.N,REGISTER_SELECT*%
X152887500Y-126940000D03*
%TO.P,U301,16,/RST*%
%TO.N,{slash}RESET*%
X154387500Y-126940000D03*
%TO.P,U301,17,/CS1*%
%TO.N,{slash}CHIP_SELECT*%
X155887500Y-126940000D03*
D13*
%TO.P,U301,18,LED+*%
%TO.N,+3V0*%
X126587500Y-125140000D03*
%TO.P,U301,19,LED-*%
%TO.N,GNDD*%
X161187500Y-125140000D03*
%TD*%
D14*
%TO.P,R116,1*%
%TO.N,VARIABLE_OUTPUT_VOLTAGE_A*%
X170220000Y-111310000D03*
%TO.P,R116,2*%
%TO.N,VARIABLE_OUTPUT_VOLTAGE_B*%
X167295000Y-111310000D03*
%TD*%
D15*
%TO.P,R101,1*%
%TO.N,/[1] Power/BUCK_VOS*%
X143906250Y-83652500D03*
%TO.P,R101,2*%
%TO.N,GND*%
X142886250Y-83652500D03*
%TD*%
D16*
%TO.P,U102,1,VCAP*%
%TO.N,/[1] Power/VCAP_J*%
X105700000Y-104077500D03*
%TO.P,U102,2,GND*%
%TO.N,GNDPWR*%
X105700000Y-105027500D03*
%TO.P,U102,3,EN*%
%TO.N,/[1] Power/JACK_POWER*%
X105700000Y-105977500D03*
%TO.P,U102,4,CATHODE*%
%TO.N,SYSTEM_POWER_A*%
X107975000Y-105977500D03*
%TO.P,U102,5,GATE*%
%TO.N,/[1] Power/GATE_J*%
X107975000Y-105027500D03*
%TO.P,U102,6,ANODE*%
%TO.N,/[1] Power/JACK_POWER*%
X107975000Y-104077500D03*
%TD*%
D17*
%TO.P,R103,1*%
%TO.N,/[1] Power/ST_PPM_IN*%
X149121250Y-84755000D03*
%TO.P,R103,2*%
%TO.N,GNDPWR*%
X149121250Y-85775000D03*
%TD*%
D18*
%TO.P,C203,1*%
%TO.N,GNDD*%
X137220000Y-86250000D03*
%TO.P,C203,2*%
%TO.N,/[2] Microcontroller/HSE_IN*%
X138180000Y-86250000D03*
%TD*%
D19*
%TO.P,U105,1,EN/UVLO*%
%TO.N,/[1] Power/BUCK_VOS*%
X187687500Y-100965000D03*
%TO.P,U105,2,MODE*%
X187187500Y-100965000D03*
%TO.P,U105,3,PG*%
%TO.N,unconnected-(U105-PG-Pad3)*%
X186687500Y-100965000D03*
%TO.P,U105,4,CC\u005C*%
%TO.N,unconnected-(U105-CC\u005C-Pad4)*%
X186187500Y-100965000D03*
D20*
%TO.P,U105,5,DITH/SYNC*%
%TO.N,GNDA*%
X185562500Y-101325000D03*
D21*
%TO.P,U105,6,FSW*%
%TO.N,/[1] Power/BB_FSW1*%
X185537500Y-101825000D03*
D22*
%TO.P,U105,7,VIN*%
%TO.N,SYSTEM_POWER_B*%
X186937500Y-102285000D03*
%TO.P,U105,8,SW1*%
%TO.N,/[1] Power/BB_SW1*%
X186937500Y-102825000D03*
D23*
%TO.P,U105,9,PGND*%
%TO.N,GNDPWR*%
X186937500Y-103365000D03*
D22*
%TO.P,U105,10,SW2*%
%TO.N,/[1] Power/BB_SW2*%
X186937500Y-103905000D03*
%TO.P,U105,11,VOUT*%
%TO.N,VARIABLE_OUTPUT_VOLTAGE_A*%
X186937500Y-104445000D03*
D21*
%TO.P,U105,12,ISP*%
X185537500Y-104905000D03*
D20*
%TO.P,U105,13,ISN*%
X185562500Y-105405000D03*
D24*
%TO.P,U105,14,FB*%
%TO.N,/[1] Power/BB_FEEDBACK*%
X186187500Y-105765000D03*
%TO.P,U105,15,COMP*%
%TO.N,/[1] Power/BB_COMP1*%
X186687500Y-105765000D03*
%TO.P,U105,16,CDC*%
%TO.N,unconnected-(U105-CDC-Pad16)*%
X187187500Y-105765000D03*
%TO.P,U105,17,AGND*%
%TO.N,GNDA*%
X187687500Y-105765000D03*
D25*
%TO.P,U105,18,VCC*%
%TO.N,/[1] Power/VCC_BB*%
X188312500Y-105405000D03*
D26*
%TO.P,U105,19,BOOT2*%
%TO.N,/[1] Power/BB_BOOT2*%
X188337500Y-104905000D03*
%TO.P,U105,20,BOOT1*%
%TO.N,/[1] Power/BB_BOOT1*%
X188337500Y-101825000D03*
D25*
%TO.P,U105,21,EXTVCC*%
%TO.N,unconnected-(U105-EXTVCC-Pad21)*%
X188312500Y-101325000D03*
%TD*%
D27*
%TO.P,Y201,1,1*%
%TO.N,/[2] Microcontroller/HSE_OUT*%
X135400000Y-89400000D03*
%TO.P,Y201,2,2*%
%TO.N,GNDD*%
X137600000Y-89400000D03*
%TO.P,Y201,3,3*%
%TO.N,/[2] Microcontroller/HSE_IN*%
X137600000Y-87700000D03*
%TO.P,Y201,4,4*%
%TO.N,GNDD*%
X135400000Y-87700000D03*
%TD*%
D28*
%TO.P,L102,1,1*%
%TO.N,/[1] Power/BB_SW1*%
X194287500Y-101315000D03*
%TO.P,L102,2,2*%
%TO.N,/[1] Power/BB_SW2*%
X194287500Y-105415000D03*
%TD*%
D29*
%TO.P,Q106,1,G*%
%TO.N,/[1] Power/ST_PPM_GATE*%
X138512500Y-80240000D03*
%TO.P,Q106,2,S*%
%TO.N,/[1] Power/ST_PPM_SOURCE*%
X138512500Y-82140000D03*
%TO.P,Q106,3,D*%
%TO.N,ST_3V3*%
X140387500Y-81190000D03*
%TD*%
D30*
%TO.P,C205,1*%
%TO.N,/[2] Microcontroller/NRST*%
X135875000Y-97585000D03*
%TO.P,C205,2*%
%TO.N,GNDD*%
X135875000Y-96625000D03*
%TD*%
D31*
%TO.P,U201,1,PB7/PB8*%
%TO.N,S-INPUT_VOLTAGE*%
X141725000Y-90725000D03*
%TO.P,U201,2,PC14/PB9*%
%TO.N,/[2] Microcontroller/HSE_IN*%
X141725000Y-91375000D03*
%TO.P,U201,3,PC15*%
%TO.N,/[2] Microcontroller/HSE_OUT*%
X141725000Y-92025000D03*
%TO.P,U201,4,VDD*%
%TO.N,+3V3*%
X141725000Y-92675000D03*
%TO.P,U201,5,VSS*%
%TO.N,GNDD*%
X141725000Y-93325000D03*
%TO.P,U201,6,NRST*%
%TO.N,/[2] Microcontroller/NRST*%
X141725000Y-93975000D03*
%TO.P,U201,7,PA0*%
%TO.N,SPI_CLK*%
X141725000Y-94625000D03*
%TO.P,U201,8,PA1*%
%TO.N,{slash}RESET*%
X141725000Y-95275000D03*
%TO.P,U201,9,PA2*%
%TO.N,REGISTER_SELECT*%
X141725000Y-95925000D03*
%TO.P,U201,10,PA3*%
%TO.N,unconnected-(U201-PA3-Pad10)*%
X141725000Y-96575000D03*
%TO.P,U201,11,PA4*%
%TO.N,SPI_MOSI*%
X147450000Y-96575000D03*
%TO.P,U201,12,PA5*%
%TO.N,unconnected-(U201-PA5-Pad12)*%
X147450000Y-95925000D03*
%TO.P,U201,13,PA6*%
%TO.N,S-INPUT_CURRENT*%
X147450000Y-95275000D03*
%TO.P,U201,14,PA7*%
%TO.N,S-OUTPUT_CURRENT*%
X147450000Y-94625000D03*
%TO.P,U201,15,PB0/PB1/PB2/PA8*%
%TO.N,S-OUTPUT_VOLTAGE*%
X147450000Y-93975000D03*
%TO.P,U201,16,PA11/PA9*%
%TO.N,unconnected-(U201-PA11{slash}PA9-Pad16)*%
X147450000Y-93325000D03*
%TO.P,U201,17,PA12/PA10*%
%TO.N,unconnected-(U201-PA12{slash}PA10-Pad17)*%
X147450000Y-92675000D03*
%TO.P,U201,18,PA13*%
%TO.N,/[2] Microcontroller/SWDIO*%
X147450000Y-92025000D03*
%TO.P,U201,19,PA14/PA15*%
%TO.N,/[2] Microcontroller/SWCLK*%
X147450000Y-91375000D03*
%TO.P,U201,20,PB3/PB4/PB5/PB6*%
%TO.N,{slash}CHIP_SELECT*%
X147450000Y-90725000D03*
%TD*%
D32*
%TO.P,U106,1,GND*%
%TO.N,GNDPWR*%
X117987500Y-123190000D03*
%TO.P,U106,2,VO*%
%TO.N,+3V0*%
X119887500Y-123190000D03*
%TO.P,U106,3,VI*%
%TO.N,+3V3*%
X118937500Y-121315000D03*
%TD*%
D33*
%TO.P,R117,1*%
%TO.N,/[1] Power/BB_POT_R*%
X188687500Y-115290000D03*
%TO.P,R117,2*%
%TO.N,GNDA*%
X188687500Y-113640000D03*
%TD*%
D30*
%TO.P,C116,1*%
%TO.N,/[1] Power/BB_SW1*%
X189887500Y-102445000D03*
%TO.P,C116,2*%
%TO.N,/[1] Power/BB_BOOT1*%
X189887500Y-101485000D03*
%TD*%
D15*
%TO.P,R110,1*%
%TO.N,ST_3V3*%
X151443750Y-72615000D03*
%TO.P,R110,2*%
%TO.N,/[1] Power/ST_PPM_INV1*%
X150423750Y-72615000D03*
%TD*%
D34*
%TO.P,R401,1*%
%TO.N,SYSTEM_POWER_A*%
X115462500Y-105090000D03*
%TO.P,R401,2*%
%TO.N,S-INPUT_VOLTAGE*%
X117112500Y-105090000D03*
%TD*%
D35*
%TO.P,C402,1*%
%TO.N,+3V3*%
X169312500Y-116940000D03*
%TO.P,C402,2*%
%TO.N,GNDA*%
X168352500Y-116940000D03*
%TD*%
D36*
%TO.P,R114,1*%
%TO.N,/[1] Power/BB_COMP1*%
X186287500Y-109165000D03*
%TO.P,R114,2*%
%TO.N,/[1] Power/BB_COMP2*%
X186287500Y-110815000D03*
%TD*%
D37*
%TO.P,RV101,*%
%TO.N,*%
X187900000Y-124365000D03*
X179100000Y-124365000D03*
D38*
%TO.P,RV101,1,1*%
%TO.N,unconnected-(RV101-Pad1)*%
X181000000Y-117365000D03*
%TO.P,RV101,2,2*%
%TO.N,/[1] Power/BB_FEEDBACK*%
X183500000Y-117365000D03*
%TO.P,RV101,3,3*%
%TO.N,/[1] Power/BB_POT_R*%
X186000000Y-117365000D03*
%TD*%
D34*
%TO.P,R402,1*%
%TO.N,S-INPUT_VOLTAGE*%
X118662500Y-105090000D03*
%TO.P,R402,2*%
%TO.N,GNDPWR*%
X120312500Y-105090000D03*
%TD*%
D39*
%TO.P,C120,1*%
%TO.N,VARIABLE_OUTPUT_VOLTAGE_A*%
X178687500Y-111165000D03*
%TO.P,C120,2*%
%TO.N,GNDPWR*%
X178687500Y-105765000D03*
%TD*%
D40*
%TO.P,J102,1,Pin_1*%
%TO.N,/[1] Power/SCREW_TERMINAL_POWER*%
X105142500Y-122215000D03*
D41*
%TO.P,J102,2,Pin_2*%
%TO.N,GNDPWR*%
X105142500Y-127215000D03*
%TD*%
D18*
%TO.P,C121,1*%
%TO.N,/[1] Power/BB_COMP2*%
X186807500Y-112190000D03*
%TO.P,C121,2*%
%TO.N,GNDA*%
X187767500Y-112190000D03*
%TD*%
D29*
%TO.P,Q104,1,G*%
%TO.N,/[1] Power/BUCK_PPM_GATE*%
X116275000Y-81552500D03*
%TO.P,Q104,2,S*%
%TO.N,/[1] Power/BUCK_PPM_SOURCE*%
X116275000Y-83452500D03*
%TO.P,Q104,3,D*%
%TO.N,/[1] Power/BUCK_VOS*%
X118150000Y-82502500D03*
%TD*%
D30*
%TO.P,C303,1*%
%TO.N,GNDD*%
X133397500Y-129770000D03*
%TO.P,C303,2*%
%TO.N,/[3] Display/LV1*%
X133397500Y-128810000D03*
%TD*%
D42*
%TO.P,C102,1*%
%TO.N,/[1] Power/SCREW_TERMINAL_POWER*%
X105742500Y-116440000D03*
%TO.P,C102,2*%
%TO.N,GNDPWR*%
X108692500Y-116440000D03*
%TD*%
D30*
%TO.P,C118,1*%
%TO.N,VARIABLE_OUTPUT_VOLTAGE_A*%
X183687500Y-105145000D03*
%TO.P,C118,2*%
%TO.N,GNDPWR*%
X183687500Y-104185000D03*
%TD*%
D43*
%TO.P,C202,1*%
%TO.N,+3V3*%
X139300000Y-92770000D03*
%TO.P,C202,2*%
%TO.N,GNDD*%
X139300000Y-93730000D03*
%TD*%
D44*
%TO.P,C113,1*%
%TO.N,SYSTEM_POWER_B*%
X179887500Y-100515000D03*
%TO.P,C113,2*%
%TO.N,GNDPWR*%
X179887500Y-102415000D03*
%TD*%
D45*
%TO.P,D105,1,K*%
%TO.N,/[1] Power/COMP_POWER*%
X148121250Y-79340000D03*
%TO.P,D105,2,A*%
%TO.N,/[1] Power/ST_3V3_Diode*%
X150321250Y-79340000D03*
%TD*%
D46*
%TO.P,C111,1*%
%TO.N,/[1] Power/BUCK_VOS*%
X119487500Y-94465000D03*
%TO.P,C111,2*%
%TO.N,GNDPWR*%
X119487500Y-97415000D03*
%TD*%
D35*
%TO.P,C106,1*%
%TO.N,SYSTEM_POWER_A*%
X108017500Y-107627500D03*
%TO.P,C106,2*%
%TO.N,GNDPWR*%
X107057500Y-107627500D03*
%TD*%
D47*
%TO.P,D202,1,A1*%
%TO.N,GNDD*%
X155087500Y-93950000D03*
%TO.P,D202,2,A2*%
%TO.N,/[2] Microcontroller/SWDIO*%
X155087500Y-91850000D03*
%TD*%
D35*
%TO.P,C204,1*%
%TO.N,GNDD*%
X137080000Y-90950000D03*
%TO.P,C204,2*%
%TO.N,/[2] Microcontroller/HSE_OUT*%
X136120000Y-90950000D03*
%TD*%
D48*
%TO.P,U402,1,REF*%
%TO.N,GNDA*%
X167782500Y-115690000D03*
%TO.P,U402,2,GND*%
X168432500Y-115690000D03*
%TO.P,U402,3,V+*%
%TO.N,+3V3*%
X169082500Y-115690000D03*
%TO.P,U402,4,IN+*%
%TO.N,VARIABLE_OUTPUT_VOLTAGE_A*%
X169082500Y-113790000D03*
%TO.P,U402,5,IN-*%
%TO.N,VARIABLE_OUTPUT_VOLTAGE_B*%
X168432500Y-113790000D03*
%TO.P,U402,6,OUT*%
%TO.N,S-OUTPUT_CURRENT*%
X167782500Y-113790000D03*
%TD*%
D29*
%TO.P,Q105,1,G*%
%TO.N,/[1] Power/BUCK_PPM_GATE*%
X125012500Y-81640000D03*
%TO.P,Q105,2,S*%
%TO.N,/[1] Power/BUCK_PPM_SOURCE*%
X125012500Y-83540000D03*
%TO.P,Q105,3,D*%
%TO.N,+3V3*%
X126887500Y-82590000D03*
%TD*%
D49*
%TO.P,U101,1*%
%TO.N,/[1] Power/COMP_OUT*%
X145653750Y-82340000D03*
%TO.P,U101,2,V-*%
%TO.N,GNDPWR*%
X145653750Y-82990000D03*
%TO.P,U101,3,+*%
%TO.N,/[1] Power/BUCK_VOS*%
X145653750Y-83640000D03*
%TO.P,U101,4,-*%
%TO.N,/[1] Power/ST_PPM_IN*%
X147553750Y-83640000D03*
%TO.P,U101,5,V+*%
%TO.N,/[1] Power/COMP_POWER*%
X147553750Y-82340000D03*
%TD*%
D18*
%TO.P,C103,1*%
%TO.N,/[1] Power/COMP_POWER*%
X147541250Y-80940000D03*
%TO.P,C103,2*%
%TO.N,GNDPWR*%
X148501250Y-80940000D03*
%TD*%
%TO.P,C105,1*%
%TO.N,/[1] Power/SCREW_TERMINAL_POWER*%
X106717500Y-114540000D03*
%TO.P,C105,2*%
%TO.N,/[1] Power/VCAP_T*%
X107677500Y-114540000D03*
%TD*%
D50*
%TO.P,R104,1*%
%TO.N,/[1] Power/BUCK_PPM_GATE*%
X143053750Y-71982500D03*
%TO.P,R104,2*%
%TO.N,/[1] Power/BUCK_PPM_INV*%
X144073750Y-71982500D03*
%TD*%
D44*
%TO.P,C115,1*%
%TO.N,/[1] Power/VCC_BB*%
X190487500Y-108015000D03*
%TO.P,C115,2*%
%TO.N,GNDPWR*%
X190487500Y-109915000D03*
%TD*%
D35*
%TO.P,C301,1*%
%TO.N,GNDD*%
X146610000Y-128765000D03*
%TO.P,C301,2*%
%TO.N,/[3] Display/LVOUT*%
X145650000Y-128765000D03*
%TD*%
D51*
%TO.P,R106,1*%
%TO.N,SYSTEM_POWER_A*%
X115637500Y-108952500D03*
%TO.P,R106,2*%
%TO.N,SYSTEM_POWER_B*%
X115637500Y-111877500D03*
%TD*%
D40*
%TO.P,J103,1,Pin_1*%
%TO.N,VARIABLE_OUTPUT_VOLTAGE_B*%
X194292500Y-92090000D03*
D41*
%TO.P,J103,2,Pin_2*%
%TO.N,GNDPWR*%
X194292500Y-87090000D03*
%TD*%
D32*
%TO.P,Q101,1,G*%
%TO.N,/[1] Power/COMP_OUT*%
X143151250Y-75545000D03*
%TO.P,Q101,2,S*%
%TO.N,GNDPWR*%
X145051250Y-75545000D03*
%TO.P,Q101,3,D*%
%TO.N,/[1] Power/BUCK_PPM_INV*%
X144101250Y-73670000D03*
%TD*%
D52*
%TO.P,R403,1*%
%TO.N,VARIABLE_OUTPUT_VOLTAGE_B*%
X186400000Y-92205000D03*
%TO.P,R403,2*%
%TO.N,S-OUTPUT_VOLTAGE*%
X186400000Y-91185000D03*
%TD*%
D50*
%TO.P,R115,1*%
%TO.N,VARIABLE_OUTPUT_VOLTAGE_A*%
X183977500Y-107365000D03*
%TO.P,R115,2*%
%TO.N,/[1] Power/BB_FEEDBACK*%
X184997500Y-107365000D03*
%TD*%
D18*
%TO.P,C302,1*%
%TO.N,GNDD*%
X130907500Y-129290000D03*
%TO.P,C302,2*%
%TO.N,/[3] Display/LV0*%
X131867500Y-129290000D03*
%TD*%
D53*
%TO.P,R112,1*%
%TO.N,/[1] Power/BB_FSW2*%
X185387500Y-96552500D03*
%TO.P,R112,2*%
%TO.N,GNDA*%
X185387500Y-98377500D03*
%TD*%
D44*
%TO.P,C112,1*%
%TO.N,SYSTEM_POWER_B*%
X182087500Y-100515000D03*
%TO.P,C112,2*%
%TO.N,GNDPWR*%
X182087500Y-102415000D03*
%TD*%
D18*
%TO.P,C307,1*%
%TO.N,/[3] Display/LC2-*%
X139622500Y-128790000D03*
%TO.P,C307,2*%
%TO.N,/[3] Display/LC2+*%
X140582500Y-128790000D03*
%TD*%
D52*
%TO.P,R109,1*%
%TO.N,/[1] Power/PG*%
X124087500Y-93750000D03*
%TO.P,R109,2*%
%TO.N,/[1] Power/BUCK_VOS*%
X124087500Y-92730000D03*
%TD*%
D54*
%TO.P,J201,1,Pin_1*%
%TO.N,ST_3V3*%
X158187500Y-86770000D03*
D55*
%TO.P,J201,2,Pin_2*%
%TO.N,/[2] Microcontroller/SWCLK*%
X158187500Y-89310000D03*
%TO.P,J201,3,Pin_3*%
%TO.N,/[2] Microcontroller/SWDIO*%
X158187500Y-91850000D03*
%TO.P,J201,4,Pin_4*%
%TO.N,/[2] Microcontroller/NRST*%
X158187500Y-94390000D03*
%TO.P,J201,5,Pin_5*%
%TO.N,GNDD*%
X158187500Y-96930000D03*
%TD*%
D56*
%TO.P,D106,1,K*%
%TO.N,/[1] Power/POW_IND_LED_R*%
X167937500Y-96602500D03*
%TO.P,D106,2,A*%
%TO.N,+3V3*%
X167937500Y-95027500D03*
%TD*%
D18*
%TO.P,C308,1*%
%TO.N,/[3] Display/LC1+*%
X142682500Y-128790000D03*
%TO.P,C308,2*%
%TO.N,/[3] Display/LC1-*%
X143642500Y-128790000D03*
%TD*%
D57*
%TO.P,Q107,1,G*%
%TO.N,/[1] Power/ST_PPM_GATE*%
X132625000Y-83550000D03*
%TO.P,Q107,2,S*%
%TO.N,/[1] Power/ST_PPM_SOURCE*%
X132625000Y-81650000D03*
%TO.P,Q107,3,D*%
%TO.N,+3V3*%
X130750000Y-82600000D03*
%TD*%
D30*
%TO.P,C305,1*%
%TO.N,GNDD*%
X136397500Y-129770000D03*
%TO.P,C305,2*%
%TO.N,/[3] Display/LV3*%
X136397500Y-128810000D03*
%TD*%
D35*
%TO.P,C107,1*%
%TO.N,SYSTEM_POWER_A*%
X106180000Y-109900000D03*
%TO.P,C107,2*%
%TO.N,GNDPWR*%
X105220000Y-109900000D03*
%TD*%
D43*
%TO.P,C114,1*%
%TO.N,SYSTEM_POWER_B*%
X183687500Y-100985000D03*
%TO.P,C114,2*%
%TO.N,GNDPWR*%
X183687500Y-101945000D03*
%TD*%
D58*
%TO.P,C110,1*%
%TO.N,/[1] Power/ST_PPM_GATE*%
X134887500Y-83550000D03*
%TO.P,C110,2*%
%TO.N,/[1] Power/ST_PPM_SOURCE*%
X134887500Y-81650000D03*
%TD*%
D59*
%TO.P,D102,1,A1*%
%TO.N,GNDPWR*%
X107567500Y-118340000D03*
%TO.P,D102,2,A2*%
%TO.N,/[1] Power/SCREW_TERMINAL_POWER*%
X106867500Y-118340000D03*
%TD*%
D60*
%TO.P,D203,1,A1*%
%TO.N,GNDD*%
X155050000Y-87225000D03*
%TO.P,D203,2,A2*%
%TO.N,/[2] Microcontroller/SWCLK*%
X155050000Y-89325000D03*
%TD*%
D61*
%TO.P,C101,1*%
%TO.N,/[1] Power/JACK_POWER*%
X108312500Y-100927500D03*
%TO.P,C101,2*%
%TO.N,GNDPWR*%
X105362500Y-100927500D03*
%TD*%
D17*
%TO.P,R108,1*%
%TO.N,/[1] Power/ST_PPM_GATE*%
X144153750Y-69635000D03*
%TO.P,R108,2*%
%TO.N,/[1] Power/ST_PPM_INV2*%
X144153750Y-70655000D03*
%TD*%
D62*
%TO.P,NT102,1,1*%
%TO.N,GNDPWR*%
X190387500Y-111290000D03*
%TO.P,NT102,2,2*%
%TO.N,GNDA*%
X189387500Y-111290000D03*
%TD*%
D36*
%TO.P,R113,1*%
%TO.N,/[1] Power/POW_IND_LED_R*%
X167937500Y-98390000D03*
%TO.P,R113,2*%
%TO.N,/[1] Power/POW_IND_R_NMOS*%
X167937500Y-100040000D03*
%TD*%
D17*
%TO.P,R105,1*%
%TO.N,/[1] Power/BUCK_PPM_GATE*%
X120600000Y-82030000D03*
%TO.P,R105,2*%
%TO.N,/[1] Power/BUCK_PPM_SOURCE*%
X120600000Y-83050000D03*
%TD*%
D63*
%TO.P,D101,1,A1*%
%TO.N,GNDPWR*%
X106487500Y-99027500D03*
%TO.P,D101,2,A2*%
%TO.N,/[1] Power/JACK_POWER*%
X107187500Y-99027500D03*
%TD*%
D35*
%TO.P,C123,1*%
%TO.N,+3V0*%
X119392500Y-124852500D03*
%TO.P,C123,2*%
%TO.N,GNDPWR*%
X118432500Y-124852500D03*
%TD*%
D64*
%TO.P,D104,1,K*%
%TO.N,/[1] Power/ST_3V3_Diode*%
X152221250Y-79340000D03*
%TO.P,D104,2,A*%
%TO.N,ST_3V3*%
X152221250Y-81540000D03*
%TD*%
D62*
%TO.P,NT103,1,1*%
%TO.N,GNDPWR*%
X124100000Y-96100000D03*
%TO.P,NT103,2,2*%
%TO.N,GNDA*%
X124100000Y-97100000D03*
%TD*%
D44*
%TO.P,C108,1*%
%TO.N,/[1] Power/BUCK_PPM_GATE*%
X122375000Y-81640000D03*
%TO.P,C108,2*%
%TO.N,/[1] Power/BUCK_PPM_SOURCE*%
X122375000Y-83540000D03*
%TD*%
D32*
%TO.P,Q110,1,G*%
%TO.N,+3V3*%
X166987500Y-103890000D03*
%TO.P,Q110,2,S*%
%TO.N,GNDPWR*%
X168887500Y-103890000D03*
%TO.P,Q110,3,D*%
%TO.N,/[1] Power/POW_IND_R_NMOS*%
X167937500Y-102015000D03*
%TD*%
D35*
%TO.P,C104,1*%
%TO.N,/[1] Power/JACK_POWER*%
X107317500Y-102727500D03*
%TO.P,C104,2*%
%TO.N,/[1] Power/VCAP_J*%
X106357500Y-102727500D03*
%TD*%
D43*
%TO.P,C401,1*%
%TO.N,+3V3*%
X121837500Y-110260000D03*
%TO.P,C401,2*%
%TO.N,GNDA*%
X121837500Y-111220000D03*
%TD*%
D65*
%TO.P,C109,1*%
%TO.N,SYSTEM_POWER_B*%
X122737500Y-99440000D03*
%TO.P,C109,2*%
%TO.N,GNDPWR*%
X120837500Y-99440000D03*
%TD*%
D66*
%TO.P,D103,1,K*%
%TO.N,/[1] Power/COMP_POWER*%
X146921250Y-79340000D03*
%TO.P,D103,2,A*%
%TO.N,/[1] Power/BUCK_VOS*%
X144721250Y-79340000D03*
%TD*%
D67*
%TO.P,L101,1,1*%
%TO.N,/[1] Power/BUCK_SW*%
X122137500Y-90540000D03*
%TO.P,L101,2,2*%
%TO.N,/[1] Power/BUCK_VOS*%
X118037500Y-90540000D03*
%TD*%
D30*
%TO.P,C304,1*%
%TO.N,GNDD*%
X134897500Y-129770000D03*
%TO.P,C304,2*%
%TO.N,/[3] Display/LV2*%
X134897500Y-128810000D03*
%TD*%
D32*
%TO.P,Q103,1,G*%
%TO.N,/[1] Power/GATE_T*%
X102047500Y-113115000D03*
%TO.P,Q103,2,S*%
%TO.N,/[1] Power/SCREW_TERMINAL_POWER*%
X103947500Y-113115000D03*
%TO.P,Q103,3,D*%
%TO.N,SYSTEM_POWER_A*%
X102997500Y-111240000D03*
%TD*%
D68*
%TO.P,J101,1*%
%TO.N,/[1] Power/JACK_POWER*%
X109862500Y-92015000D03*
D69*
%TO.P,J101,2*%
%TO.N,GNDPWR*%
X103862500Y-92015000D03*
D70*
%TO.P,J101,MP*%
%TO.N,N/C*%
X102862500Y-87515000D03*
X102862500Y-96515000D03*
%TD*%
D30*
%TO.P,C306,1*%
%TO.N,GNDD*%
X137897500Y-129770000D03*
%TO.P,C306,2*%
%TO.N,/[3] Display/LV4*%
X137897500Y-128810000D03*
%TD*%
D71*
%TO.P,U104,1,PGND*%
%TO.N,GNDPWR*%
X121612500Y-97125000D03*
%TO.P,U104,2,VIN*%
%TO.N,SYSTEM_POWER_B*%
X122112500Y-97125000D03*
%TO.P,U104,3,EN*%
X122612500Y-97125000D03*
%TO.P,U104,4,AGND*%
%TO.N,GNDA*%
X123112500Y-97125000D03*
%TO.P,U104,5,FB*%
%TO.N,GNDPWR*%
X123112500Y-95225000D03*
%TO.P,U104,6,VOS*%
%TO.N,/[1] Power/BUCK_VOS*%
X122612500Y-95225000D03*
%TO.P,U104,7,SW*%
%TO.N,/[1] Power/BUCK_SW*%
X122112500Y-95225000D03*
%TO.P,U104,8,PG*%
%TO.N,/[1] Power/PG*%
X121612500Y-95225000D03*
D72*
%TO.P,U104,9,PAD*%
%TO.N,GNDPWR*%
X121862500Y-96175000D03*
D73*
X122362500Y-96175000D03*
D72*
X122862500Y-96175000D03*
%TD*%
D32*
%TO.P,Q109,1,G*%
%TO.N,/[1] Power/COMP_OUT*%
X149421250Y-76340000D03*
%TO.P,Q109,2,S*%
%TO.N,GNDPWR*%
X151321250Y-76340000D03*
%TO.P,Q109,3,D*%
%TO.N,/[1] Power/ST_PPM_INV1*%
X150371250Y-74465000D03*
%TD*%
D57*
%TO.P,Q108,1,G*%
%TO.N,/[1] Power/ST_PPM_INV1*%
X147708750Y-71615000D03*
%TO.P,Q108,2,S*%
%TO.N,GNDPWR*%
X147708750Y-69715000D03*
%TO.P,Q108,3,D*%
%TO.N,/[1] Power/ST_PPM_INV2*%
X145833750Y-70665000D03*
%TD*%
D74*
%TO.P,U401,1,REF*%
%TO.N,GNDA*%
X120387500Y-111390000D03*
%TO.P,U401,2,GND*%
X120387500Y-110740000D03*
%TO.P,U401,3,V+*%
%TO.N,+3V3*%
X120387500Y-110090000D03*
%TO.P,U401,4,IN+*%
%TO.N,SYSTEM_POWER_A*%
X118487500Y-110090000D03*
%TO.P,U401,5,IN-*%
%TO.N,SYSTEM_POWER_B*%
X118487500Y-110740000D03*
%TO.P,U401,6,OUT*%
%TO.N,S-INPUT_CURRENT*%
X118487500Y-111390000D03*
%TD*%
D43*
%TO.P,C201,1*%
%TO.N,+3V3*%
X138100000Y-92770000D03*
%TO.P,C201,2*%
%TO.N,GNDD*%
X138100000Y-93730000D03*
%TD*%
D75*
%TO.P,C119,1*%
%TO.N,/[1] Power/BB_COMP1*%
X188087500Y-109215000D03*
%TO.P,C119,2*%
%TO.N,GNDA*%
X188087500Y-110765000D03*
%TD*%
D76*
%TO.P,SW201,1,1*%
%TO.N,GNDD*%
X128000000Y-99225000D03*
%TO.P,SW201,2,2*%
%TO.N,/[2] Microcontroller/NRST*%
X135750000Y-99225000D03*
%TD*%
D52*
%TO.P,R404,1*%
%TO.N,S-OUTPUT_VOLTAGE*%
X186400000Y-89615000D03*
%TO.P,R404,2*%
%TO.N,GNDPWR*%
X186400000Y-88595000D03*
%TD*%
D47*
%TO.P,D201,1,A1*%
%TO.N,GNDD*%
X161500000Y-97950000D03*
%TO.P,D201,2,A2*%
%TO.N,/[2] Microcontroller/NRST*%
X161500000Y-95850000D03*
%TD*%
D77*
%TO.P,NT101,1,1*%
%TO.N,GNDPWR*%
X101687500Y-106790000D03*
%TO.P,NT101,2,2*%
%TO.N,GNDA*%
X101687500Y-104190000D03*
%TO.P,NT101,3,3*%
%TO.N,GNDD*%
X101687500Y-101590000D03*
%TD*%
D43*
%TO.P,C122,1*%
%TO.N,+3V3*%
X116587500Y-121697500D03*
%TO.P,C122,2*%
%TO.N,GNDPWR*%
X116587500Y-122657500D03*
%TD*%
D78*
%TO.P,U103,1,VCAP*%
%TO.N,/[1] Power/VCAP_T*%
X108317500Y-113140000D03*
%TO.P,U103,2,GND*%
%TO.N,GNDPWR*%
X108317500Y-112190000D03*
%TO.P,U103,3,EN*%
%TO.N,/[1] Power/SCREW_TERMINAL_POWER*%
X108317500Y-111240000D03*
%TO.P,U103,4,CATHODE*%
%TO.N,SYSTEM_POWER_A*%
X106042500Y-111240000D03*
%TO.P,U103,5,GATE*%
%TO.N,/[1] Power/GATE_T*%
X106042500Y-112190000D03*
%TO.P,U103,6,ANODE*%
%TO.N,/[1] Power/SCREW_TERMINAL_POWER*%
X106042500Y-113140000D03*
%TD*%
D52*
%TO.P,R107,1*%
%TO.N,/[1] Power/ST_PPM_GATE*%
X136487500Y-83110000D03*
%TO.P,R107,2*%
%TO.N,/[1] Power/ST_PPM_SOURCE*%
X136487500Y-82090000D03*
%TD*%
D15*
%TO.P,R102,1*%
%TO.N,ST_3V3*%
X150131250Y-83715000D03*
%TO.P,R102,2*%
%TO.N,/[1] Power/ST_PPM_IN*%
X149111250Y-83715000D03*
%TD*%
D43*
%TO.P,C117,1*%
%TO.N,/[1] Power/BB_SW2*%
X189887500Y-104285000D03*
%TO.P,C117,2*%
%TO.N,/[1] Power/BB_BOOT2*%
X189887500Y-105245000D03*
%TD*%
D33*
%TO.P,R111,1*%
%TO.N,/[1] Power/BB_FSW1*%
X183487500Y-98190000D03*
%TO.P,R111,2*%
%TO.N,/[1] Power/BB_FSW2*%
X183487500Y-96540000D03*
%TD*%
D79*
%TO.P,Q102,1,G*%
%TO.N,/[1] Power/GATE_J*%
X112287500Y-104190000D03*
%TO.P,Q102,2,S*%
%TO.N,/[1] Power/JACK_POWER*%
X110387500Y-104190000D03*
%TO.P,Q102,3,D*%
%TO.N,SYSTEM_POWER_A*%
X111337500Y-106065000D03*
%TD*%
D60*
%TO.P,D204,1,A1*%
%TO.N,GNDD*%
X161300000Y-84675000D03*
%TO.P,D204,2,A2*%
%TO.N,ST_3V3*%
X161300000Y-86775000D03*
%TD*%
D80*
%TO.N,/[1] Power/JACK_POWER*%
X110387500Y-102115000D03*
X104237500Y-105990000D03*
%TO.N,/[1] Power/SCREW_TERMINAL_POWER*%
X103412500Y-115515000D03*
X109662500Y-111240000D03*
D81*
%TO.N,/[1] Power/BUCK_PPM_GATE*%
X123750000Y-81690000D03*
D82*
%TO.N,SYSTEM_POWER_B*%
X179000000Y-99000000D03*
X115000000Y-113200000D03*
D83*
X123800000Y-98800000D03*
D82*
X114000000Y-113200000D03*
X181000000Y-98000000D03*
X115000000Y-114100000D03*
D83*
X123800000Y-99600000D03*
D82*
X180000000Y-99000000D03*
D83*
X123800000Y-100400000D03*
D82*
X182000000Y-98000000D03*
X117000000Y-113200000D03*
X180000000Y-98000000D03*
X181000000Y-99000000D03*
X179000000Y-98000000D03*
X116000000Y-113200000D03*
X116000000Y-114100000D03*
X117000000Y-114100000D03*
X114000000Y-114100000D03*
X182000000Y-99000000D03*
D81*
%TO.N,/[1] Power/ST_PPM_GATE*%
X137050000Y-80290000D03*
X136450000Y-84190000D03*
D80*
X144153750Y-68700000D03*
D83*
%TO.N,/[1] Power/BUCK_VOS*%
X161400000Y-81700000D03*
D81*
X124087500Y-91840000D03*
X117512500Y-94465000D03*
D83*
X155300000Y-85200000D03*
D81*
%TO.N,+3V3*%
X169250000Y-117575000D03*
D83*
X127300000Y-81800000D03*
X129300000Y-83400000D03*
X130300000Y-83400000D03*
X128300000Y-83400000D03*
D81*
X120400000Y-109300000D03*
X169750000Y-118100000D03*
X136700000Y-92900000D03*
D83*
X167900000Y-93800000D03*
X128300000Y-82600000D03*
X129300000Y-82600000D03*
X115300000Y-121500000D03*
D81*
X121500000Y-109500000D03*
D83*
X116100000Y-120600000D03*
X116900000Y-120600000D03*
D81*
X122000000Y-109500000D03*
X121000000Y-109300000D03*
D83*
X115300000Y-120600000D03*
X127300000Y-83400000D03*
X128300000Y-81800000D03*
D81*
X136700000Y-92400000D03*
X137200000Y-92400000D03*
X169750000Y-117575000D03*
D83*
X129300000Y-81800000D03*
D81*
X169250000Y-118100000D03*
X119900000Y-109300000D03*
X137200000Y-92900000D03*
D83*
X166400000Y-98100000D03*
X130300000Y-81800000D03*
%TO.N,+3V0*%
X120300000Y-124850000D03*
X121200000Y-124850000D03*
D80*
%TO.N,/[2] Microcontroller/NRST*%
X163800000Y-95900000D03*
X143300000Y-93975000D03*
X135837500Y-100625000D03*
X137300000Y-96600000D03*
D82*
%TO.N,ST_3V3*%
X150500000Y-82200000D03*
X142400000Y-82100000D03*
%TO.N,VARIABLE_OUTPUT_VOLTAGE_B*%
X166000000Y-111000000D03*
X165000000Y-113000000D03*
X166000000Y-112000000D03*
X165000000Y-112000000D03*
D81*
X186400000Y-92900000D03*
D82*
X166000000Y-113000000D03*
D80*
%TO.N,/[1] Power/COMP_OUT*%
X145651250Y-80750000D03*
D81*
X145571250Y-77890000D03*
D80*
%TO.N,/[1] Power/GATE_J*%
X109137500Y-105015000D03*
X112287500Y-102690000D03*
%TO.N,/[1] Power/GATE_T*%
X104887500Y-112215000D03*
X102037500Y-114990000D03*
D81*
%TO.N,/[1] Power/PG*%
X124087500Y-94990000D03*
X120862500Y-95215000D03*
%TO.N,S-INPUT_VOLTAGE*%
X132900000Y-90900000D03*
X140100000Y-88500000D03*
%TO.N,S-OUTPUT_VOLTAGE*%
X153200000Y-93100000D03*
X167300000Y-91800000D03*
%TO.N,SPI_MOSI*%
X148900000Y-109900000D03*
X148900000Y-119400000D03*
D80*
%TO.N,{slash}CHIP_SELECT*%
X150100000Y-89400000D03*
D81*
X153000000Y-98500000D03*
%TO.N,S-INPUT_CURRENT*%
X150300000Y-98400000D03*
X137800000Y-98400000D03*
%TO.N,{slash}RESET*%
X150300000Y-102700000D03*
X148100000Y-100500000D03*
%TO.N,GNDPWR*%
X186400000Y-87600000D03*
D83*
X119500000Y-98900000D03*
D82*
X109400000Y-118200000D03*
D83*
X116600000Y-123550000D03*
D81*
X191500000Y-111500000D03*
X191500000Y-111000000D03*
X191000000Y-111000000D03*
D83*
X151300000Y-77800000D03*
D82*
X180500000Y-104000000D03*
D81*
X191000000Y-111500000D03*
D82*
X182500000Y-104000000D03*
X109800000Y-112200000D03*
X183500000Y-103000000D03*
D83*
X145000000Y-77000000D03*
D82*
X103500000Y-100000000D03*
X106100000Y-108500000D03*
X104200000Y-104600000D03*
D83*
X117400000Y-124800000D03*
X118700000Y-99700000D03*
X169100000Y-105700000D03*
X118700000Y-98900000D03*
D81*
X191500000Y-109500000D03*
D83*
X118700000Y-100500000D03*
X116550000Y-124800000D03*
D82*
X103500000Y-101000000D03*
D81*
X121300000Y-105100000D03*
X149100000Y-86600000D03*
D83*
X149300000Y-69700000D03*
D82*
X181500000Y-104000000D03*
X108500000Y-118200000D03*
X178000000Y-102500000D03*
D81*
X191500000Y-110500000D03*
D82*
X103500000Y-99000000D03*
X105100000Y-107600000D03*
D83*
X119500000Y-100500000D03*
D82*
X106100000Y-107600000D03*
D81*
X144700000Y-83000000D03*
D82*
X105100000Y-108500000D03*
D83*
X149400000Y-81000000D03*
D82*
X104500000Y-99000000D03*
D83*
X119500000Y-99700000D03*
D82*
X105500000Y-99000000D03*
D81*
%TO.N,GNDA*%
X167550000Y-116850000D03*
X185000000Y-99500000D03*
X189000000Y-112000000D03*
X188500000Y-108000000D03*
X188500000Y-112000000D03*
X189500000Y-112000000D03*
X120900000Y-112000000D03*
X121400000Y-112000000D03*
X185500000Y-99500000D03*
X189500000Y-112500000D03*
X189000000Y-112500000D03*
X167550000Y-117350000D03*
X188500000Y-112500000D03*
D83*
X124100000Y-97200000D03*
D81*
X167550000Y-116350000D03*
X121900000Y-112000000D03*
X188000000Y-107000000D03*
X122400000Y-112000000D03*
%TO.N,GNDD*%
X135500000Y-86100000D03*
D83*
X134900000Y-130700000D03*
X136400000Y-130700000D03*
D81*
X155021232Y-86221232D03*
X139300000Y-94500000D03*
X126600000Y-99200000D03*
X134100000Y-86100000D03*
X136200000Y-86100000D03*
D83*
X133400000Y-130700000D03*
D81*
X138000000Y-90500000D03*
D83*
X137900000Y-130700000D03*
D81*
X161300000Y-83700000D03*
X135900000Y-95800000D03*
D83*
X129800000Y-129300000D03*
D81*
X138300000Y-94500000D03*
D83*
X147500000Y-128750000D03*
D81*
X134800000Y-86100000D03*
X138000000Y-91100000D03*
X138800000Y-94500000D03*
X137800000Y-94500000D03*
%TD*%
D84*
%TO.N,/[1] Power/JACK_POWER*%
X110387500Y-104190000D02*
X110387500Y-102115000D01*
X104237500Y-105990000D02*
X105687500Y-105990000D01*
X105687500Y-105990000D02*
X105700000Y-105977500D01*
%TO.N,/[1] Power/SCREW_TERMINAL_POWER*%
X103947500Y-113115000D02*
X103947500Y-114980000D01*
X109662500Y-111240000D02*
X108317500Y-111240000D01*
X103947500Y-114980000D02*
X103412500Y-115515000D01*
%TO.N,/[1] Power/COMP_POWER*%
X147553750Y-80952500D02*
X147541250Y-80940000D01*
X147541250Y-79342500D02*
X147538750Y-79340000D01*
X146921250Y-79340000D02*
X147538750Y-79340000D01*
X147553750Y-82340000D02*
X147553750Y-80952500D01*
X147541250Y-80940000D02*
X147541250Y-79342500D01*
X147538750Y-79340000D02*
X148121250Y-79340000D01*
D85*
%TO.N,/[1] Power/VCAP_J*%
X105662500Y-104040000D02*
X105700000Y-104077500D01*
X106075000Y-102727500D02*
X105662500Y-103140000D01*
X105662500Y-103140000D02*
X105662500Y-104040000D01*
X106357500Y-102727500D02*
X106075000Y-102727500D01*
%TO.N,/[1] Power/VCAP_T*%
X107677500Y-114150000D02*
X107677500Y-114540000D01*
X108317500Y-113140000D02*
X108317500Y-113510000D01*
X108317500Y-113510000D02*
X107677500Y-114150000D01*
D84*
%TO.N,SYSTEM_POWER_A*%
X115637500Y-108952500D02*
X115637500Y-109565000D01*
X116162500Y-110090000D02*
X118487500Y-110090000D01*
D85*
X108012500Y-107632500D02*
X108017500Y-107627500D01*
D84*
X115637500Y-109565000D02*
X116162500Y-110090000D01*
D85*
%TO.N,/[1] Power/BUCK_PPM_SOURCE*%
X122375000Y-83540000D02*
X125012500Y-83540000D01*
X120810000Y-83050000D02*
X121300000Y-83540000D01*
X119387500Y-83452500D02*
X119790000Y-83050000D01*
X119790000Y-83050000D02*
X120600000Y-83050000D01*
X120600000Y-83050000D02*
X120810000Y-83050000D01*
X121300000Y-83540000D02*
X122375000Y-83540000D01*
X116275000Y-83452500D02*
X119387500Y-83452500D01*
D84*
%TO.N,/[1] Power/BUCK_PPM_GATE*%
X121110000Y-82030000D02*
X121500000Y-81640000D01*
X120287500Y-80390000D02*
X120600000Y-80702500D01*
X115012500Y-81552500D02*
X114950000Y-81490000D01*
X120600000Y-80702500D02*
X120600000Y-82030000D01*
X116275000Y-81552500D02*
X115012500Y-81552500D01*
X125012500Y-75287500D02*
X125012500Y-81640000D01*
X114950000Y-80690000D02*
X115250000Y-80390000D01*
X123750000Y-81690000D02*
X122425000Y-81690000D01*
X143053750Y-71982500D02*
X128317500Y-71982500D01*
X121500000Y-81640000D02*
X122375000Y-81640000D01*
X122425000Y-81690000D02*
X122375000Y-81640000D01*
X120600000Y-82030000D02*
X121110000Y-82030000D01*
X124962500Y-81690000D02*
X125012500Y-81640000D01*
X128317500Y-71982500D02*
X125012500Y-75287500D01*
X123750000Y-81690000D02*
X124962500Y-81690000D01*
X114950000Y-81490000D02*
X114950000Y-80690000D01*
X115250000Y-80390000D02*
X120287500Y-80390000D01*
%TO.N,SYSTEM_POWER_B*%
X115637500Y-111877500D02*
X115637500Y-111265000D01*
X116162500Y-110740000D02*
X118487500Y-110740000D01*
X115637500Y-111265000D02*
X116162500Y-110740000D01*
X122112500Y-97125000D02*
X122612500Y-97125000D01*
D85*
%TO.N,/[1] Power/ST_PPM_SOURCE*%
X136050000Y-82090000D02*
X136487500Y-82090000D01*
X132625000Y-81650000D02*
X134887500Y-81650000D01*
X138512500Y-82140000D02*
X137400000Y-82140000D01*
X134887500Y-81650000D02*
X135610000Y-81650000D01*
X137350000Y-82090000D02*
X136487500Y-82090000D01*
X135610000Y-81650000D02*
X136050000Y-82090000D01*
X137400000Y-82140000D02*
X137350000Y-82090000D01*
D84*
%TO.N,/[1] Power/ST_PPM_GATE*%
X134887500Y-83550000D02*
X135590000Y-83550000D01*
X144153750Y-68700000D02*
X144153750Y-69635000D01*
X133750000Y-83550000D02*
X134887500Y-83550000D01*
X132625000Y-83550000D02*
X133750000Y-83550000D01*
X136487500Y-84152500D02*
X136450000Y-84190000D01*
X138462500Y-80290000D02*
X138512500Y-80240000D01*
X136487500Y-83110000D02*
X136487500Y-84152500D01*
X137050000Y-80290000D02*
X138462500Y-80290000D01*
X136030000Y-83110000D02*
X136487500Y-83110000D01*
X135590000Y-83550000D02*
X136030000Y-83110000D01*
%TO.N,/[1] Power/BUCK_VOS*%
X145653750Y-86353750D02*
X146800000Y-87500000D01*
D86*
X118150000Y-82502500D02*
X114497500Y-82502500D01*
D84*
X154700000Y-85200000D02*
X155300000Y-85200000D01*
X124087500Y-92730000D02*
X124087500Y-91840000D01*
X143906250Y-81942500D02*
X144721250Y-81127500D01*
D86*
X114200000Y-86100000D02*
X116100000Y-86100000D01*
D84*
X152400000Y-87500000D02*
X154700000Y-85200000D01*
X187687500Y-99512500D02*
X187687500Y-100965000D01*
D86*
X114497500Y-82502500D02*
X114200000Y-82800000D01*
D84*
X182500000Y-81700000D02*
X188700000Y-87900000D01*
X144381250Y-83652500D02*
X143906250Y-83652500D01*
X144393750Y-83640000D02*
X144381250Y-83652500D01*
X146800000Y-87500000D02*
X152400000Y-87500000D01*
X188700000Y-98500000D02*
X187687500Y-99512500D01*
D86*
X116100000Y-86100000D02*
X118037500Y-88037500D01*
D84*
X143906250Y-83652500D02*
X143906250Y-81942500D01*
X124087500Y-91840000D02*
X131212500Y-84715000D01*
X143906250Y-84493750D02*
X143906250Y-83652500D01*
X187687500Y-100965000D02*
X187187500Y-100965000D01*
X161400000Y-81700000D02*
X182500000Y-81700000D01*
D86*
X114200000Y-82800000D02*
X114200000Y-86100000D01*
D84*
X144721250Y-81127500D02*
X144721250Y-79340000D01*
X188700000Y-87900000D02*
X188700000Y-98500000D01*
X122612500Y-93315000D02*
X122612500Y-95225000D01*
X145653750Y-83640000D02*
X144393750Y-83640000D01*
X124087500Y-91840000D02*
X122612500Y-93315000D01*
X143685000Y-84715000D02*
X143906250Y-84493750D01*
X145653750Y-83640000D02*
X145653750Y-86353750D01*
D86*
X118037500Y-88037500D02*
X118037500Y-90540000D01*
D84*
X131212500Y-84715000D02*
X143685000Y-84715000D01*
D87*
%TO.N,/[1] Power/BB_BOOT1*%
X188337500Y-101825000D02*
X188827500Y-101825000D01*
X188827500Y-101825000D02*
X189167500Y-101485000D01*
X189167500Y-101485000D02*
X189887500Y-101485000D01*
%TO.N,/[1] Power/BB_BOOT2*%
X189167500Y-105245000D02*
X189887500Y-105245000D01*
X188827500Y-104905000D02*
X189167500Y-105245000D01*
X188337500Y-104905000D02*
X188827500Y-104905000D01*
D84*
%TO.N,VARIABLE_OUTPUT_VOLTAGE_A*%
X185537500Y-104905000D02*
X184947500Y-104905000D01*
X170220000Y-111310000D02*
X169617500Y-111310000D01*
X185562500Y-104930000D02*
X185537500Y-104905000D01*
X183977500Y-106655000D02*
X183977500Y-107365000D01*
X169082500Y-111845000D02*
X169082500Y-113790000D01*
X184947500Y-104905000D02*
X184707500Y-105145000D01*
X183787500Y-106265000D02*
X183787500Y-106465000D01*
X185562500Y-105405000D02*
X185562500Y-104930000D01*
X169617500Y-111310000D02*
X169082500Y-111845000D01*
X183687500Y-106165000D02*
X183787500Y-106265000D01*
X183787500Y-106465000D02*
X183977500Y-106655000D01*
X184707500Y-105145000D02*
X183687500Y-105145000D01*
X183687500Y-105145000D02*
X183687500Y-106165000D01*
%TO.N,/[1] Power/BB_COMP1*%
X186287500Y-109165000D02*
X188037500Y-109165000D01*
X186287500Y-108265000D02*
X186287500Y-109165000D01*
X186687500Y-105765000D02*
X186687500Y-107865000D01*
X188037500Y-109165000D02*
X188087500Y-109215000D01*
X186687500Y-107865000D02*
X186287500Y-108265000D01*
%TO.N,/[1] Power/BB_COMP2*%
X186807500Y-111685000D02*
X186807500Y-112190000D01*
X186287500Y-110815000D02*
X186287500Y-111165000D01*
X186287500Y-111165000D02*
X186807500Y-111685000D01*
%TO.N,+3V3*%
X166987500Y-98687500D02*
X166400000Y-98100000D01*
X167900000Y-93800000D02*
X167900000Y-94400000D01*
X167900000Y-94400000D02*
X167937500Y-94437500D01*
X167937500Y-94437500D02*
X167937500Y-95027500D01*
X166987500Y-103890000D02*
X166987500Y-98687500D01*
%TO.N,/[2] Microcontroller/HSE_IN*%
X139000000Y-90050000D02*
X139000000Y-86450000D01*
X138180000Y-86570000D02*
X137600000Y-87150000D01*
X137600000Y-87150000D02*
X137600000Y-87700000D01*
X140325000Y-91375000D02*
X139000000Y-90050000D01*
X138800000Y-86250000D02*
X138180000Y-86250000D01*
X138180000Y-86250000D02*
X138180000Y-86570000D01*
X141725000Y-91375000D02*
X140325000Y-91375000D01*
X139000000Y-86450000D02*
X138800000Y-86250000D01*
%TO.N,/[2] Microcontroller/NRST*%
X159190000Y-94390000D02*
X160650000Y-95850000D01*
X137300000Y-96600000D02*
X136315000Y-97585000D01*
X158187500Y-94390000D02*
X159190000Y-94390000D01*
X160650000Y-95850000D02*
X161500000Y-95850000D01*
X135837500Y-99312500D02*
X135750000Y-99225000D01*
X135875000Y-97585000D02*
X135875000Y-99100000D01*
X136315000Y-97585000D02*
X135875000Y-97585000D01*
X135875000Y-99100000D02*
X135750000Y-99225000D01*
X161550000Y-95900000D02*
X161500000Y-95850000D01*
X163800000Y-95900000D02*
X161550000Y-95900000D01*
X141725000Y-93975000D02*
X143300000Y-93975000D01*
X135837500Y-100625000D02*
X135837500Y-99312500D01*
%TO.N,/[2] Microcontroller/HSE_OUT*%
X141725000Y-92025000D02*
X139975000Y-92025000D01*
X135400000Y-89850000D02*
X136120000Y-90570000D01*
X135400000Y-89400000D02*
X135400000Y-89850000D01*
X136920000Y-91750000D02*
X136120000Y-90950000D01*
X139700000Y-91750000D02*
X136920000Y-91750000D01*
X136120000Y-90570000D02*
X136120000Y-90950000D01*
X139975000Y-92025000D02*
X139700000Y-91750000D01*
%TO.N,/[3] Display/LVOUT*%
X145650000Y-128050000D02*
X145650000Y-128765000D01*
X145387500Y-126940000D02*
X145387500Y-127787500D01*
X145387500Y-127787500D02*
X145650000Y-128050000D01*
%TO.N,/[3] Display/LV0*%
X131867500Y-129290000D02*
X131867500Y-126960000D01*
X131867500Y-126960000D02*
X131887500Y-126940000D01*
%TO.N,/[3] Display/LV1*%
X133397500Y-126890000D02*
X133397500Y-128810000D01*
%TO.N,/[3] Display/LV2*%
X134897500Y-126890000D02*
X134897500Y-128810000D01*
%TO.N,/[3] Display/LV3*%
X136397500Y-126890000D02*
X136397500Y-128810000D01*
%TO.N,/[3] Display/LV4*%
X137897500Y-126890000D02*
X137897500Y-128810000D01*
%TO.N,/[3] Display/LC2+*%
X140622500Y-128107500D02*
X140622500Y-128790000D01*
X140887500Y-126940000D02*
X140887500Y-127842500D01*
X140887500Y-127842500D02*
X140622500Y-128107500D01*
%TO.N,/[3] Display/LC2-*%
X139387500Y-126940000D02*
X139387500Y-127850000D01*
X139387500Y-127850000D02*
X139400000Y-127850000D01*
X139400000Y-127850000D02*
X139662500Y-128112500D01*
X139662500Y-128112500D02*
X139662500Y-128790000D01*
%TO.N,/[3] Display/LC1+*%
X142387500Y-126940000D02*
X142387500Y-127857500D01*
X142682500Y-128152500D02*
X142682500Y-128790000D01*
X142387500Y-127857500D02*
X142682500Y-128152500D01*
D86*
%TO.N,ST_3V3*%
X152221250Y-81540000D02*
X152221250Y-82200000D01*
X156870000Y-86770000D02*
X158187500Y-86770000D01*
X141490000Y-81190000D02*
X141700000Y-81400000D01*
X156615000Y-86515000D02*
X156870000Y-86770000D01*
X156615000Y-83715000D02*
X156615000Y-86515000D01*
X140387500Y-81190000D02*
X141490000Y-81190000D01*
D84*
X161295000Y-86770000D02*
X161300000Y-86775000D01*
D86*
X152221250Y-83693750D02*
X152200000Y-83715000D01*
X141700000Y-81400000D02*
X142400000Y-82100000D01*
D84*
X155700000Y-82800000D02*
X155700000Y-76100000D01*
X155700000Y-76100000D02*
X152215000Y-72615000D01*
D86*
X152200000Y-83715000D02*
X156615000Y-83715000D01*
X158187500Y-86770000D02*
X161295000Y-86770000D01*
X150131250Y-83715000D02*
X152200000Y-83715000D01*
X152221250Y-82200000D02*
X152221250Y-83693750D01*
X150500000Y-82200000D02*
X152221250Y-82200000D01*
D84*
X152215000Y-72615000D02*
X151443750Y-72615000D01*
X156615000Y-83715000D02*
X155700000Y-82800000D01*
%TO.N,/[3] Display/LC1-*%
X143887500Y-127820000D02*
X143642500Y-128065000D01*
X143887500Y-126940000D02*
X143887500Y-127820000D01*
X143642500Y-128065000D02*
X143642500Y-128790000D01*
%TO.N,/[1] Power/ST_3V3_Diode*%
X152221250Y-79340000D02*
X150321250Y-79340000D01*
%TO.N,/[2] Microcontroller/SWCLK*%
X150325000Y-91375000D02*
X147450000Y-91375000D01*
X152375000Y-89325000D02*
X150325000Y-91375000D01*
X155065000Y-89310000D02*
X155050000Y-89325000D01*
X158187500Y-89310000D02*
X155065000Y-89310000D01*
X155050000Y-89325000D02*
X152375000Y-89325000D01*
%TO.N,/[2] Microcontroller/SWDIO*%
X153250000Y-91850000D02*
X153075000Y-92025000D01*
X155087500Y-91850000D02*
X153250000Y-91850000D01*
X158187500Y-91850000D02*
X155087500Y-91850000D01*
X153075000Y-92025000D02*
X147450000Y-92025000D01*
%TO.N,VARIABLE_OUTPUT_VOLTAGE_B*%
X167295000Y-111310000D02*
X167907500Y-111310000D01*
D87*
X186400000Y-92900000D02*
X186400000Y-92205000D01*
D84*
X168432500Y-111835000D02*
X168432500Y-113790000D01*
X167907500Y-111310000D02*
X168432500Y-111835000D01*
%TO.N,/[1] Power/COMP_OUT*%
X145571250Y-77890000D02*
X144261250Y-77890000D01*
X145571250Y-77890000D02*
X149003750Y-77890000D01*
X143151250Y-76780000D02*
X143151250Y-75545000D01*
X145653750Y-80752500D02*
X145651250Y-80750000D01*
X144261250Y-77890000D02*
X143151250Y-76780000D01*
X149421250Y-77472500D02*
X149421250Y-76340000D01*
X145653750Y-82340000D02*
X145653750Y-80752500D01*
X149003750Y-77890000D02*
X149421250Y-77472500D01*
%TO.N,/[1] Power/POW_IND_LED_R*%
X167937500Y-96602500D02*
X167937500Y-98390000D01*
%TO.N,/[1] Power/GATE_J*%
X112287500Y-104190000D02*
X112287500Y-102690000D01*
X107987500Y-105015000D02*
X107975000Y-105027500D01*
X109137500Y-105015000D02*
X107987500Y-105015000D01*
%TO.N,/[1] Power/GATE_T*%
X102047500Y-113115000D02*
X102047500Y-114980000D01*
X106017500Y-112215000D02*
X106042500Y-112190000D01*
X104887500Y-112215000D02*
X106017500Y-112215000D01*
X102047500Y-114980000D02*
X102037500Y-114990000D01*
%TO.N,/[1] Power/BUCK_PPM_INV*%
X144073750Y-73642500D02*
X144101250Y-73670000D01*
X144073750Y-71982500D02*
X144073750Y-73642500D01*
%TO.N,/[1] Power/ST_PPM_INV2*%
X145823750Y-70655000D02*
X145833750Y-70665000D01*
X144153750Y-70655000D02*
X145823750Y-70655000D01*
%TO.N,/[1] Power/ST_PPM_INV1*%
X150371250Y-72667500D02*
X150423750Y-72615000D01*
X149983750Y-71615000D02*
X150423750Y-72055000D01*
X150371250Y-74465000D02*
X150371250Y-72667500D01*
X147708750Y-71615000D02*
X149983750Y-71615000D01*
X150423750Y-72055000D02*
X150423750Y-72615000D01*
%TO.N,/[1] Power/POW_IND_R_NMOS*%
X167937500Y-100040000D02*
X167937500Y-102015000D01*
%TO.N,/[1] Power/ST_PPM_IN*%
X149036250Y-83640000D02*
X149111250Y-83715000D01*
X149121250Y-83725000D02*
X149111250Y-83715000D01*
X147553750Y-83640000D02*
X149036250Y-83640000D01*
X149121250Y-84755000D02*
X149121250Y-83725000D01*
%TO.N,/[1] Power/PG*%
X124087500Y-94990000D02*
X124087500Y-93750000D01*
X121612500Y-95225000D02*
X120872500Y-95225000D01*
X120872500Y-95225000D02*
X120862500Y-95215000D01*
%TO.N,/[1] Power/BB_FSW1*%
X184887500Y-101521360D02*
X184887500Y-100665000D01*
X185537500Y-101825000D02*
X185191140Y-101825000D01*
X184887500Y-100665000D02*
X183487500Y-99265000D01*
X183487500Y-99265000D02*
X183487500Y-98190000D01*
X185191140Y-101825000D02*
X184887500Y-101521360D01*
%TO.N,/[1] Power/BB_FSW2*%
X185387500Y-96552500D02*
X183500000Y-96552500D01*
X183500000Y-96552500D02*
X183487500Y-96540000D01*
%TO.N,/[1] Power/BB_FEEDBACK*%
X185787500Y-107365000D02*
X184997500Y-107365000D01*
X186187500Y-106965000D02*
X185787500Y-107365000D01*
X186187500Y-105765000D02*
X186187500Y-106965000D01*
X184997500Y-113075000D02*
X183500000Y-114572500D01*
X184997500Y-107365000D02*
X184997500Y-113075000D01*
X183500000Y-114572500D02*
X183500000Y-117365000D01*
%TO.N,S-INPUT_VOLTAGE*%
X125800000Y-98600000D02*
X126600000Y-97800000D01*
X126600000Y-97800000D02*
X128600000Y-97800000D01*
X122700000Y-103100000D02*
X125800000Y-103100000D01*
X140400000Y-88500000D02*
X140600000Y-88700000D01*
X125800000Y-103100000D02*
X125800000Y-98600000D01*
X117112500Y-105090000D02*
X118662500Y-105090000D01*
X140600000Y-90500000D02*
X140825000Y-90725000D01*
X140100000Y-88500000D02*
X140400000Y-88500000D01*
X140825000Y-90725000D02*
X141725000Y-90725000D01*
X122200000Y-103600000D02*
X122700000Y-103100000D01*
X119500000Y-103600000D02*
X122200000Y-103600000D01*
X118662500Y-105090000D02*
X118662500Y-104437500D01*
X128600000Y-97800000D02*
X132900000Y-93500000D01*
X132900000Y-93500000D02*
X132900000Y-90900000D01*
X140600000Y-88700000D02*
X140600000Y-90500000D01*
X118662500Y-104437500D02*
X119500000Y-103600000D01*
%TO.N,S-OUTPUT_VOLTAGE*%
X186400000Y-91185000D02*
X186400000Y-89615000D01*
X153200000Y-93100000D02*
X151300000Y-93100000D01*
X150425000Y-93975000D02*
X147450000Y-93975000D01*
X151300000Y-93100000D02*
X150425000Y-93975000D01*
X167300000Y-91800000D02*
X167915000Y-91185000D01*
X167915000Y-91185000D02*
X186400000Y-91185000D01*
%TO.N,SPI_MOSI*%
X148900000Y-97100000D02*
X148375000Y-96575000D01*
X148900000Y-119400000D02*
X148900000Y-124052500D01*
X148900000Y-109900000D02*
X148900000Y-97100000D01*
X148900000Y-124052500D02*
X149887500Y-125040000D01*
X149887500Y-125040000D02*
X149887500Y-126940000D01*
X148375000Y-96575000D02*
X147450000Y-96575000D01*
%TO.N,S-OUTPUT_CURRENT*%
X157400000Y-100800000D02*
X151225000Y-94625000D01*
X157400000Y-107000000D02*
X157400000Y-100800000D01*
X147450000Y-94625000D02*
X151225000Y-94625000D01*
X164190000Y-113790000D02*
X157400000Y-107000000D01*
X167782500Y-113790000D02*
X164190000Y-113790000D01*
%TO.N,{slash}CHIP_SELECT*%
X150100000Y-89400000D02*
X150025000Y-89400000D01*
X150025000Y-89400000D02*
X148700000Y-90725000D01*
X155887500Y-101387500D02*
X155887500Y-126940000D01*
X153000000Y-98500000D02*
X155887500Y-101387500D01*
X148700000Y-90725000D02*
X147450000Y-90725000D01*
%TO.N,S-INPUT_CURRENT*%
X150300000Y-98400000D02*
X150300000Y-96700000D01*
X133700000Y-102800000D02*
X136100000Y-102800000D01*
X136100000Y-102800000D02*
X137800000Y-101100000D01*
X123400000Y-113100000D02*
X133700000Y-102800000D01*
X137800000Y-101100000D02*
X137800000Y-101000000D01*
X148875000Y-95275000D02*
X147450000Y-95275000D01*
X118600000Y-112900000D02*
X118800000Y-113100000D01*
X150300000Y-96700000D02*
X148875000Y-95275000D01*
X137800000Y-101000000D02*
X137800000Y-98400000D01*
X118800000Y-113100000D02*
X123400000Y-113100000D01*
X118487500Y-112787500D02*
X118600000Y-112900000D01*
X118487500Y-111390000D02*
X118487500Y-112787500D01*
%TO.N,REGISTER_SELECT*%
X140300000Y-96250000D02*
X140300000Y-104100000D01*
X152887500Y-126940000D02*
X152900000Y-126927500D01*
X140300000Y-104100000D02*
X152887500Y-116687500D01*
X140625000Y-95925000D02*
X140300000Y-96250000D01*
X152887500Y-116687500D02*
X152887500Y-126940000D01*
X141725000Y-95925000D02*
X140625000Y-95925000D01*
%TO.N,SPI_CLK*%
X139100000Y-105000000D02*
X151387500Y-117287500D01*
X141725000Y-94625000D02*
X140375000Y-94625000D01*
X151387500Y-117287500D02*
X151387500Y-126940000D01*
X139100000Y-95900000D02*
X139100000Y-105000000D01*
X140375000Y-94625000D02*
X139100000Y-95900000D01*
X151687500Y-126640000D02*
X151387500Y-126940000D01*
%TO.N,{slash}RESET*%
X154387500Y-106787500D02*
X154387500Y-126940000D01*
X142875000Y-95275000D02*
X148100000Y-100500000D01*
X150300000Y-102700000D02*
X154387500Y-106787500D01*
X141725000Y-95275000D02*
X142875000Y-95275000D01*
%TO.N,/[1] Power/BB_POT_R*%
X186000000Y-115500000D02*
X186000000Y-117365000D01*
X186210000Y-115290000D02*
X186000000Y-115500000D01*
X188687500Y-115290000D02*
X186210000Y-115290000D01*
%TO.N,GNDPWR*%
X168887500Y-103890000D02*
X168887500Y-105487500D01*
X149121250Y-86578750D02*
X149100000Y-86600000D01*
X145643750Y-83000000D02*
X145653750Y-82990000D01*
X149121250Y-85775000D02*
X149121250Y-86578750D01*
X151321250Y-76340000D02*
X151321250Y-77778750D01*
X149285000Y-69715000D02*
X149300000Y-69700000D01*
X120312500Y-105090000D02*
X121290000Y-105090000D01*
X145051250Y-76948750D02*
X145000000Y-77000000D01*
X149340000Y-80940000D02*
X149400000Y-81000000D01*
D86*
X109790000Y-112190000D02*
X109800000Y-112200000D01*
D84*
X144700000Y-83000000D02*
X145643750Y-83000000D01*
X151321250Y-77778750D02*
X151300000Y-77800000D01*
X121290000Y-105090000D02*
X121300000Y-105100000D01*
X147708750Y-69715000D02*
X149285000Y-69715000D01*
X168887500Y-105487500D02*
X169100000Y-105700000D01*
D86*
X104627500Y-105027500D02*
X105700000Y-105027500D01*
D84*
X148501250Y-80940000D02*
X149340000Y-80940000D01*
D86*
X104200000Y-104600000D02*
X104627500Y-105027500D01*
D84*
X145051250Y-75545000D02*
X145051250Y-76948750D01*
X186400000Y-88595000D02*
X186400000Y-87600000D01*
D86*
X108317500Y-112190000D02*
X109790000Y-112190000D01*
D84*
%TO.N,GNDA*%
X123112500Y-97125000D02*
X124025000Y-97125000D01*
X124025000Y-97125000D02*
X124100000Y-97200000D01*
D87*
%TO.N,GNDD*%
X147500000Y-128750000D02*
X146625000Y-128750000D01*
D84*
X146610000Y-128040000D02*
X146610000Y-128765000D01*
X155050000Y-86250000D02*
X155021232Y-86221232D01*
X155050000Y-87225000D02*
X155050000Y-86250000D01*
X161300000Y-84675000D02*
X161300000Y-83700000D01*
D87*
X129800000Y-129300000D02*
X130897500Y-129300000D01*
X130897500Y-129300000D02*
X130907500Y-129290000D01*
X146625000Y-128750000D02*
X146610000Y-128765000D01*
D84*
X135875000Y-96625000D02*
X135875000Y-95825000D01*
X126625000Y-99225000D02*
X126600000Y-99200000D01*
X135875000Y-95825000D02*
X135900000Y-95800000D01*
X128000000Y-99225000D02*
X126625000Y-99225000D01*
X146887500Y-126940000D02*
X146887500Y-127762500D01*
X146887500Y-127762500D02*
X146610000Y-128040000D01*
%TD*%
%TA.AperFunction,Conductor*%
%TO.N,/[1] Power/BUCK_VOS*%
G36*
X120480539Y-88809685D02*
G01*
X120526294Y-88862489D01*
X120537500Y-88914000D01*
X120537500Y-94889106D01*
X120517815Y-94956145D01*
X120513998Y-94961727D01*
X120483139Y-95022294D01*
X120435165Y-95073091D01*
X120372654Y-95090000D01*
X115636500Y-95090000D01*
X115569461Y-95070315D01*
X115523706Y-95017511D01*
X115512500Y-94966000D01*
X115512500Y-88914000D01*
X115532185Y-88846961D01*
X115584989Y-88801206D01*
X115636500Y-88790000D01*
X120413500Y-88790000D01*
X120480539Y-88809685D01*
G37*
%TD.AperFunction*%
%TD*%
%TA.AperFunction,Conductor*%
%TO.N,SYSTEM_POWER_B*%
G36*
X122255539Y-96845185D02*
G01*
X122301294Y-96897989D01*
X122312500Y-96949500D01*
X122312500Y-98340000D01*
X124088500Y-98340000D01*
X124155539Y-98359685D01*
X124201294Y-98412489D01*
X124212500Y-98464000D01*
X124212500Y-100776000D01*
X124192815Y-100843039D01*
X124140011Y-100888794D01*
X124088500Y-100900000D01*
X122061500Y-100900000D01*
X121994461Y-100880315D01*
X121948706Y-100827511D01*
X121937500Y-100776000D01*
X121937500Y-97349568D01*
X121937999Y-97339401D01*
X121937999Y-97338406D01*
X121938000Y-97338401D01*
X121937999Y-96949499D01*
X121957683Y-96882461D01*
X122010487Y-96836706D01*
X122061999Y-96825500D01*
X122188500Y-96825500D01*
X122255539Y-96845185D01*
G37*
%TD.AperFunction*%
%TD*%
%TA.AperFunction,Conductor*%
%TO.N,+3V3*%
G36*
X169877025Y-115298985D02*
G01*
X169943897Y-115319222D01*
X169989215Y-115372402D01*
X170000000Y-115422981D01*
X170000000Y-118226000D01*
X169980315Y-118293039D01*
X169927511Y-118338794D01*
X169876000Y-118350000D01*
X169111500Y-118350000D01*
X169044461Y-118330315D01*
X168998706Y-118277511D01*
X168987500Y-118226000D01*
X168987500Y-116190000D01*
X168929319Y-116131819D01*
X168895834Y-116070496D01*
X168893000Y-116044138D01*
X168893000Y-116011057D01*
X168891187Y-115983817D01*
X168890981Y-115981753D01*
X168891057Y-115981745D01*
X168890544Y-115974223D01*
X168888326Y-115955098D01*
X168887500Y-115940811D01*
X168887500Y-115415851D01*
X168907185Y-115348812D01*
X168959989Y-115303057D01*
X169012519Y-115291855D01*
X169877025Y-115298985D01*
G37*
%TD.AperFunction*%
%TD*%
%TA.AperFunction,Conductor*%
%TO.N,GNDPWR*%
G36*
X118259025Y-122247185D02*
G01*
X118260769Y-122248326D01*
X118493433Y-122403435D01*
X118538293Y-122456999D01*
X118547838Y-122492448D01*
X118786689Y-124570444D01*
X118787500Y-124584604D01*
X118787500Y-125278500D01*
X118767815Y-125345539D01*
X118715011Y-125391294D01*
X118663500Y-125402500D01*
X118613140Y-125402500D01*
X118611835Y-125402493D01*
X116237513Y-125377500D01*
X116237500Y-125377500D01*
X115987500Y-125377500D01*
X115936500Y-125377500D01*
X115869461Y-125357815D01*
X115823706Y-125305011D01*
X115812500Y-125253500D01*
X115812500Y-122351500D01*
X115832185Y-122284461D01*
X115884989Y-122238706D01*
X115936500Y-122227500D01*
X118191986Y-122227500D01*
X118259025Y-122247185D01*
G37*
%TD.AperFunction*%
%TD*%
%TA.AperFunction,Conductor*%
%TO.N,/[1] Power/SCREW_TERMINAL_POWER*%
G36*
X104330662Y-112159685D02*
G01*
X104376417Y-112212489D01*
X104386361Y-112246353D01*
X104402334Y-112357456D01*
X104462122Y-112488371D01*
X104462123Y-112488373D01*
X104556372Y-112597143D01*
X104677447Y-112674953D01*
X104677450Y-112674954D01*
X104677449Y-112674954D01*
X104815536Y-112715499D01*
X104815538Y-112715500D01*
X104815539Y-112715500D01*
X104959461Y-112715500D01*
X105063996Y-112684806D01*
X105133865Y-112684806D01*
X105184874Y-112714398D01*
X105237500Y-112765000D01*
X106811767Y-112765000D01*
X106878806Y-112784685D01*
X106924561Y-112837489D01*
X106933137Y-112863597D01*
X107134870Y-113827434D01*
X107137500Y-113852837D01*
X107137500Y-115239940D01*
X107123906Y-115292097D01*
X107125207Y-115292644D01*
X107122512Y-115299057D01*
X107102826Y-115366096D01*
X107094500Y-115424003D01*
X107094500Y-118676007D01*
X107099197Y-118719684D01*
X107102836Y-118736412D01*
X107097852Y-118806104D01*
X107089332Y-118824292D01*
X106837500Y-119264999D01*
X106837500Y-123741000D01*
X106817815Y-123808039D01*
X106765011Y-123853794D01*
X106713500Y-123865000D01*
X103586500Y-123865000D01*
X103519461Y-123845315D01*
X103473706Y-123792511D01*
X103462500Y-123741000D01*
X103462500Y-120782083D01*
X103482185Y-120715044D01*
X103488115Y-120706609D01*
X104594007Y-119265000D01*
X104862499Y-118915001D01*
X104862500Y-118915001D01*
X104862500Y-117514999D01*
X103396758Y-113937595D01*
X103387500Y-113890582D01*
X103387500Y-112398699D01*
X103407185Y-112331660D01*
X103459989Y-112285905D01*
X103481112Y-112278725D01*
X103481094Y-112278662D01*
X103482537Y-112278241D01*
X103483606Y-112277877D01*
X103484468Y-112277679D01*
X103528328Y-112262145D01*
X103542949Y-112255013D01*
X103542951Y-112255012D01*
X103752992Y-112152552D01*
X103807356Y-112140000D01*
X104263623Y-112140000D01*
X104330662Y-112159685D01*
G37*
%TD.AperFunction*%
%TD*%
%TA.AperFunction,Conductor*%
%TO.N,SYSTEM_POWER_B*%
G36*
X117643039Y-111219685D02*
G01*
X117688794Y-111272489D01*
X117700000Y-111324000D01*
X117700000Y-114476000D01*
X117680315Y-114543039D01*
X117627511Y-114588794D01*
X117576000Y-114600000D01*
X113624000Y-114600000D01*
X113556961Y-114580315D01*
X113511206Y-114527511D01*
X113500000Y-114476000D01*
X113500000Y-111324000D01*
X113519685Y-111256961D01*
X113572489Y-111211206D01*
X113624000Y-111200000D01*
X117576000Y-111200000D01*
X117643039Y-111219685D01*
G37*
%TD.AperFunction*%
%TD*%
%TA.AperFunction,Conductor*%
%TO.N,GNDD*%
G36*
X138490539Y-129359685D02*
G01*
X138536294Y-129412489D01*
X138547500Y-129464000D01*
X138547500Y-131091000D01*
X138527815Y-131158039D01*
X138475011Y-131203794D01*
X138423500Y-131215000D01*
X138297500Y-131215000D01*
X132821500Y-131215000D01*
X132754461Y-131195315D01*
X132708706Y-131142511D01*
X132697500Y-131091000D01*
X132697500Y-129464000D01*
X132717185Y-129396961D01*
X132769989Y-129351206D01*
X132821500Y-129340000D01*
X138423500Y-129340000D01*
X138490539Y-129359685D01*
G37*
%TD.AperFunction*%
%TD*%
%TA.AperFunction,Conductor*%
%TO.N,GNDA*%
G36*
X187760040Y-105384685D02*
G01*
X187805795Y-105437489D01*
X187817001Y-105489000D01*
X187817001Y-105526717D01*
X187829793Y-105591035D01*
X187829795Y-105591039D01*
X187866601Y-105646122D01*
X187887480Y-105712799D01*
X187887500Y-105715014D01*
X187887500Y-106065000D01*
X189470513Y-109132089D01*
X189483768Y-109200690D01*
X189483063Y-109206598D01*
X189482000Y-109213989D01*
X189482000Y-110623638D01*
X189486336Y-110665634D01*
X189496688Y-110715222D01*
X189496692Y-110715239D01*
X189498663Y-110723768D01*
X189540310Y-110805191D01*
X189574370Y-110845859D01*
X189585170Y-110858755D01*
X189585173Y-110858758D01*
X189628722Y-110897795D01*
X189628725Y-110897798D01*
X189726782Y-110963168D01*
X189771644Y-111016733D01*
X189782000Y-111066343D01*
X189782000Y-111666007D01*
X189786789Y-111710539D01*
X189787500Y-111723795D01*
X189787500Y-114141000D01*
X189767815Y-114208039D01*
X189715011Y-114253794D01*
X189663500Y-114265000D01*
X187511500Y-114265000D01*
X187444461Y-114245315D01*
X187398706Y-114192511D01*
X187387500Y-114141000D01*
X187387500Y-110214000D01*
X187407185Y-110146961D01*
X187459989Y-110101206D01*
X187511500Y-110090000D01*
X188787500Y-110090000D01*
X188787500Y-108965000D01*
X188771261Y-108940017D01*
X188752757Y-108891840D01*
X188747219Y-108856874D01*
X188686028Y-108736780D01*
X188686026Y-108736778D01*
X188686023Y-108736774D01*
X188590723Y-108641474D01*
X188583689Y-108636364D01*
X188552605Y-108603623D01*
X187507533Y-106995820D01*
X187487502Y-106928883D01*
X187487500Y-106928241D01*
X187487500Y-105489000D01*
X187507185Y-105421961D01*
X187559989Y-105376206D01*
X187611500Y-105365000D01*
X187693001Y-105365000D01*
X187760040Y-105384685D01*
G37*
%TD.AperFunction*%
%TD*%
%TA.AperFunction,Conductor*%
%TO.N,GNDPWR*%
G36*
X109843039Y-115319685D02*
G01*
X109888794Y-115372489D01*
X109900000Y-115424000D01*
X109900000Y-118676000D01*
X109880315Y-118743039D01*
X109827511Y-118788794D01*
X109776000Y-118800000D01*
X107424000Y-118800000D01*
X107356961Y-118780315D01*
X107311206Y-118727511D01*
X107300000Y-118676000D01*
X107300000Y-115424000D01*
X107319685Y-115356961D01*
X107372489Y-115311206D01*
X107424000Y-115300000D01*
X109776000Y-115300000D01*
X109843039Y-115319685D01*
G37*
%TD.AperFunction*%
%TD*%
%TA.AperFunction,Conductor*%
%TO.N,/[1] Power/VCC_BB*%
G36*
X188203657Y-105207528D02*
G01*
X188204010Y-105206214D01*
X188211861Y-105208317D01*
X188211862Y-105208318D01*
X188294647Y-105230500D01*
X188641311Y-105230500D01*
X188708350Y-105250185D01*
X188728992Y-105266819D01*
X188902704Y-105440531D01*
X188907034Y-105444861D01*
X188907035Y-105444862D01*
X188967638Y-105505465D01*
X188967640Y-105505466D01*
X188967641Y-105505467D01*
X189041858Y-105548316D01*
X189041859Y-105548317D01*
X189041861Y-105548317D01*
X189041862Y-105548318D01*
X189124647Y-105570501D01*
X189124649Y-105570501D01*
X189217949Y-105570501D01*
X189217965Y-105570500D01*
X189232823Y-105570500D01*
X189299862Y-105590185D01*
X189311881Y-105598971D01*
X189557428Y-105802182D01*
X191642558Y-107527807D01*
X191681655Y-107585713D01*
X191687500Y-107623335D01*
X191687500Y-108641000D01*
X191667815Y-108708039D01*
X191615011Y-108753794D01*
X191563500Y-108765000D01*
X189664136Y-108765000D01*
X189597097Y-108745315D01*
X189553227Y-108696454D01*
X189016668Y-107623335D01*
X188997857Y-107585713D01*
X188106091Y-105802182D01*
X188093000Y-105746728D01*
X188093000Y-105715018D01*
X188092992Y-105713152D01*
X188092972Y-105710950D01*
X188092972Y-105710944D01*
X188086242Y-105668224D01*
X188083592Y-105651398D01*
X188083590Y-105651393D01*
X188083590Y-105651390D01*
X188062711Y-105584713D01*
X188055911Y-105570501D01*
X188035556Y-105527956D01*
X188036100Y-105527695D01*
X188021950Y-105483877D01*
X188017804Y-105445316D01*
X188012591Y-105421354D01*
X188006603Y-105393825D01*
X188004111Y-105383628D01*
X188004111Y-105383627D01*
X188003679Y-105382817D01*
X188003534Y-105382119D01*
X188001343Y-105376376D01*
X188002273Y-105376021D01*
X187989521Y-105314400D01*
X188014600Y-105249187D01*
X188070955Y-105207884D01*
X188113105Y-105200499D01*
X188168321Y-105200499D01*
X188203657Y-105207528D01*
G37*
%TD.AperFunction*%
%TD*%
%TA.AperFunction,Conductor*%
%TO.N,GNDPWR*%
G36*
X106705539Y-98309685D02*
G01*
X106751294Y-98362489D01*
X106762500Y-98414000D01*
X106762500Y-101966328D01*
X106742815Y-102033367D01*
X106690011Y-102079122D01*
X106638830Y-102090328D01*
X103124330Y-102099669D01*
X103057238Y-102080162D01*
X103011343Y-102027480D01*
X103000000Y-101975669D01*
X103000000Y-98414000D01*
X103019685Y-98346961D01*
X103072489Y-98301206D01*
X103124000Y-98290000D01*
X106638500Y-98290000D01*
X106705539Y-98309685D01*
G37*
%TD.AperFunction*%
%TD*%
%TA.AperFunction,Conductor*%
%TO.N,+3V3*%
G36*
X122243039Y-109019685D02*
G01*
X122288794Y-109072489D01*
X122300000Y-109124000D01*
X122300000Y-110576000D01*
X122280315Y-110643039D01*
X122227511Y-110688794D01*
X122176000Y-110700000D01*
X121424000Y-110700000D01*
X121356961Y-110680315D01*
X121311206Y-110627511D01*
X121300000Y-110576000D01*
X121300000Y-110300000D01*
X119724000Y-110300000D01*
X119656961Y-110280315D01*
X119611206Y-110227511D01*
X119600000Y-110176000D01*
X119600000Y-109124000D01*
X119619685Y-109056961D01*
X119672489Y-109011206D01*
X119724000Y-109000000D01*
X122176000Y-109000000D01*
X122243039Y-109019685D01*
G37*
%TD.AperFunction*%
%TD*%
%TA.AperFunction,Conductor*%
%TO.N,+3V3*%
G36*
X118237500Y-120202500D02*
G01*
X119212500Y-120202500D01*
X119338500Y-120202500D01*
X119405539Y-120222185D01*
X119451294Y-120274989D01*
X119462500Y-120326500D01*
X119462500Y-122178500D01*
X119442815Y-122245539D01*
X119390011Y-122291294D01*
X119338500Y-122302500D01*
X118750044Y-122302500D01*
X118683005Y-122282815D01*
X118681261Y-122281674D01*
X118262500Y-122002500D01*
X115962500Y-122002500D01*
X115024000Y-122002500D01*
X114956961Y-121982815D01*
X114911206Y-121930011D01*
X114900000Y-121878500D01*
X114900000Y-120324000D01*
X114919685Y-120256961D01*
X114972489Y-120211206D01*
X115024000Y-120200000D01*
X117300000Y-120200000D01*
X118237500Y-120202500D01*
G37*
%TD.AperFunction*%
%TD*%
%TA.AperFunction,Conductor*%
%TO.N,GNDPWR*%
G36*
X191930539Y-109109685D02*
G01*
X191976294Y-109162489D01*
X191987500Y-109214000D01*
X191987500Y-111666000D01*
X191967815Y-111733039D01*
X191915011Y-111778794D01*
X191863500Y-111790000D01*
X190111500Y-111790000D01*
X190044461Y-111770315D01*
X189998706Y-111717511D01*
X189987500Y-111666000D01*
X189987500Y-110889999D01*
X189742717Y-110726811D01*
X189697856Y-110673246D01*
X189687500Y-110623637D01*
X189687500Y-109214000D01*
X189707185Y-109146961D01*
X189759989Y-109101206D01*
X189811500Y-109090000D01*
X191863500Y-109090000D01*
X191930539Y-109109685D01*
G37*
%TD.AperFunction*%
%TD*%
%TA.AperFunction,Conductor*%
%TO.N,SYSTEM_POWER_B*%
G36*
X182530539Y-96884685D02*
G01*
X182576294Y-96937489D01*
X182587500Y-96989000D01*
X182587500Y-99565000D01*
X183132952Y-99565000D01*
X183199991Y-99584685D01*
X183224359Y-99605210D01*
X184277057Y-100753608D01*
X184294827Y-100778608D01*
X184572178Y-101293689D01*
X184587000Y-101352475D01*
X184587000Y-101560922D01*
X184599262Y-101606684D01*
X184607479Y-101637350D01*
X184607480Y-101637351D01*
X184622846Y-101663965D01*
X184643282Y-101699362D01*
X184647040Y-101705871D01*
X184647042Y-101705873D01*
X184952849Y-102011680D01*
X184974346Y-102040572D01*
X184987499Y-102065000D01*
X184999615Y-102072237D01*
X185034606Y-102081612D01*
X185075151Y-102105021D01*
X185151578Y-102125500D01*
X185151580Y-102125500D01*
X185577061Y-102125500D01*
X185577062Y-102125500D01*
X185579955Y-102124724D01*
X185612051Y-102120499D01*
X185809217Y-102120499D01*
X185809218Y-102120499D01*
X185873535Y-102107707D01*
X185877558Y-102105019D01*
X185906175Y-102085898D01*
X185972852Y-102065020D01*
X185975066Y-102065000D01*
X185987500Y-102065000D01*
X186156321Y-101642948D01*
X186199495Y-101588014D01*
X186265515Y-101565142D01*
X186271452Y-101565000D01*
X187517293Y-101565000D01*
X187584332Y-101584685D01*
X187623622Y-101625203D01*
X187887499Y-102064999D01*
X187887499Y-102065000D01*
X187887500Y-102065000D01*
X187899935Y-102065000D01*
X187966974Y-102084685D01*
X187968803Y-102085883D01*
X188001465Y-102107707D01*
X188001466Y-102107707D01*
X188001467Y-102107708D01*
X188039983Y-102115368D01*
X188065781Y-102120500D01*
X188168320Y-102120499D01*
X188203657Y-102127528D01*
X188204010Y-102126214D01*
X188211861Y-102128317D01*
X188211862Y-102128318D01*
X188294647Y-102150500D01*
X188294649Y-102150500D01*
X188563500Y-102150500D01*
X188630539Y-102170185D01*
X188676294Y-102222989D01*
X188687500Y-102274500D01*
X188687500Y-102341000D01*
X188667815Y-102408039D01*
X188615011Y-102453794D01*
X188563500Y-102465000D01*
X184755570Y-102465000D01*
X184688531Y-102445315D01*
X184650956Y-102407573D01*
X184204415Y-101705867D01*
X183987500Y-101365000D01*
X183987499Y-101365000D01*
X178624000Y-101365000D01*
X178556961Y-101345315D01*
X178511206Y-101292511D01*
X178500000Y-101241000D01*
X178500000Y-96989000D01*
X178519685Y-96921961D01*
X178572489Y-96876206D01*
X178624000Y-96865000D01*
X182463500Y-96865000D01*
X182530539Y-96884685D01*
G37*
%TD.AperFunction*%
%TD*%
%TA.AperFunction,Conductor*%
%TO.N,/[1] Power/BB_SW2*%
G36*
X190400788Y-103667953D02*
G01*
X192489693Y-104132154D01*
X193087500Y-104265000D01*
X195563500Y-104265000D01*
X195630539Y-104284685D01*
X195676294Y-104337489D01*
X195687500Y-104389000D01*
X195687500Y-106441000D01*
X195667815Y-106508039D01*
X195615011Y-106553794D01*
X195563500Y-106565000D01*
X191711500Y-106565000D01*
X191644461Y-106545315D01*
X191598706Y-106492511D01*
X191587500Y-106441000D01*
X191587500Y-105065000D01*
X191587499Y-105064999D01*
X190187504Y-104665000D01*
X190187500Y-104665000D01*
X189333371Y-104665000D01*
X189266332Y-104645315D01*
X189252673Y-104635148D01*
X188913388Y-104344332D01*
X188878376Y-104290490D01*
X188877375Y-104290873D01*
X188875599Y-104286220D01*
X188875298Y-104285757D01*
X188874990Y-104284625D01*
X188874611Y-104283633D01*
X188874610Y-104283627D01*
X188831600Y-104202915D01*
X188785845Y-104150111D01*
X188785839Y-104150104D01*
X188768257Y-104132160D01*
X188768256Y-104132159D01*
X188768254Y-104132157D01*
X188768252Y-104132156D01*
X188768250Y-104132154D01*
X188688440Y-104087511D01*
X188688435Y-104087509D01*
X188621403Y-104067826D01*
X188621399Y-104067825D01*
X188621398Y-104067825D01*
X188563500Y-104059500D01*
X188563496Y-104059500D01*
X185311500Y-104059500D01*
X185244461Y-104039815D01*
X185198706Y-103987011D01*
X185187500Y-103935500D01*
X185187500Y-103894500D01*
X185207185Y-103827461D01*
X185259989Y-103781706D01*
X185311500Y-103770500D01*
X188563491Y-103770500D01*
X188563500Y-103770500D01*
X188607184Y-103765803D01*
X188636375Y-103759452D01*
X188658674Y-103754602D01*
X188658690Y-103754598D01*
X188658695Y-103754597D01*
X188668873Y-103752110D01*
X188749585Y-103709100D01*
X188765527Y-103695285D01*
X188829083Y-103666262D01*
X188846729Y-103665000D01*
X190373889Y-103665000D01*
X190400788Y-103667953D01*
G37*
%TD.AperFunction*%
%TD*%
%TA.AperFunction,Conductor*%
%TO.N,GNDA*%
G36*
X121030539Y-110525185D02*
G01*
X121076294Y-110577989D01*
X121087500Y-110629500D01*
X121087500Y-110815000D01*
X121155024Y-110815000D01*
X121215558Y-110830780D01*
X121239370Y-110844100D01*
X121299063Y-110877490D01*
X121366102Y-110897175D01*
X121424000Y-110905500D01*
X121424004Y-110905500D01*
X122175991Y-110905500D01*
X122176000Y-110905500D01*
X122219684Y-110900803D01*
X122248875Y-110894452D01*
X122271174Y-110889602D01*
X122271190Y-110889598D01*
X122271195Y-110889597D01*
X122281373Y-110887110D01*
X122362085Y-110844100D01*
X122362092Y-110844093D01*
X122367827Y-110840156D01*
X122368810Y-110841588D01*
X122424276Y-110816261D01*
X122441918Y-110815000D01*
X122563500Y-110815000D01*
X122630539Y-110834685D01*
X122676294Y-110887489D01*
X122687500Y-110939000D01*
X122687500Y-112376000D01*
X122667815Y-112443039D01*
X122615011Y-112488794D01*
X122563500Y-112500000D01*
X120011500Y-112500000D01*
X119944461Y-112480315D01*
X119898706Y-112427511D01*
X119887500Y-112376000D01*
X119887500Y-110629500D01*
X119907185Y-110562461D01*
X119959989Y-110516706D01*
X120011500Y-110505500D01*
X120963500Y-110505500D01*
X121030539Y-110525185D01*
G37*
%TD.AperFunction*%
%TD*%
%TA.AperFunction,Conductor*%
%TO.N,SYSTEM_POWER_A*%
G36*
X116143039Y-104319685D02*
G01*
X116188794Y-104372489D01*
X116200000Y-104424000D01*
X116200000Y-107400000D01*
X117376000Y-107400000D01*
X117443039Y-107419685D01*
X117488794Y-107472489D01*
X117500000Y-107524000D01*
X117500000Y-109576000D01*
X117480315Y-109643039D01*
X117427511Y-109688794D01*
X117376000Y-109700000D01*
X113900000Y-109700000D01*
X113899997Y-109700000D01*
X113899994Y-109700001D01*
X111315838Y-110395736D01*
X111283601Y-110400000D01*
X105800000Y-110400000D01*
X105800000Y-110223121D01*
X105801262Y-110205473D01*
X105805500Y-110175998D01*
X105805500Y-109429500D01*
X105825185Y-109362461D01*
X105877989Y-109316706D01*
X105929500Y-109305500D01*
X106640409Y-109305500D01*
X106655626Y-109304260D01*
X106673637Y-109302795D01*
X106713214Y-109296309D01*
X106713224Y-109296305D01*
X106797770Y-109261903D01*
X106797772Y-109261901D01*
X106797779Y-109261899D01*
X106855030Y-109221847D01*
X106897699Y-109181837D01*
X107633297Y-108262340D01*
X107639732Y-108253854D01*
X107647219Y-108243431D01*
X107677490Y-108181440D01*
X107697175Y-108114401D01*
X107705500Y-108056503D01*
X107705500Y-107437544D01*
X107705492Y-107435769D01*
X107705474Y-107433685D01*
X107696157Y-107374259D01*
X107675349Y-107307560D01*
X107673323Y-107303315D01*
X107650161Y-107254771D01*
X107600000Y-107179530D01*
X107600000Y-106900000D01*
X112000000Y-106900000D01*
X112012498Y-105140235D01*
X112017885Y-105140470D01*
X112699998Y-105200000D01*
X112699998Y-105199999D01*
X112700000Y-105200000D01*
X113563681Y-104336319D01*
X113625004Y-104302834D01*
X113651362Y-104300000D01*
X116076000Y-104300000D01*
X116143039Y-104319685D01*
G37*
%TD.AperFunction*%
%TD*%
%TA.AperFunction,Conductor*%
%TO.N,SYSTEM_POWER_A*%
G36*
X112012498Y-105140234D02*
G01*
X112000000Y-106900000D01*
X107600000Y-106900000D01*
X107600000Y-107179529D01*
X107591048Y-107166102D01*
X107507797Y-107041226D01*
X107480894Y-107008689D01*
X107444759Y-106973157D01*
X107438393Y-106967158D01*
X107432247Y-106962651D01*
X107433365Y-106961126D01*
X107397648Y-106927375D01*
X107106886Y-106470462D01*
X107087500Y-106403890D01*
X107087500Y-105714000D01*
X107107185Y-105646961D01*
X107159989Y-105601206D01*
X107211500Y-105590000D01*
X108787499Y-105590000D01*
X108787500Y-105590000D01*
X108954912Y-105554126D01*
X109122325Y-105518252D01*
X109148306Y-105515500D01*
X109209461Y-105515500D01*
X109347553Y-105474953D01*
X109347555Y-105474951D01*
X109355622Y-105471268D01*
X109356463Y-105473109D01*
X109381207Y-105462777D01*
X110874657Y-105142751D01*
X110900639Y-105140000D01*
X112007104Y-105140000D01*
X112012498Y-105140234D01*
G37*
%TD.AperFunction*%
%TD*%
%TA.AperFunction,Conductor*%
%TO.N,GNDA*%
G36*
X186430539Y-97584685D02*
G01*
X186476294Y-97637489D01*
X186487500Y-97689000D01*
X186487500Y-99141000D01*
X186467815Y-99208039D01*
X186415011Y-99253794D01*
X186363500Y-99265000D01*
X185987500Y-99265000D01*
X185987500Y-100470694D01*
X185967815Y-100537733D01*
X185955741Y-100552715D01*
X185904792Y-100628966D01*
X185904791Y-100628967D01*
X185892000Y-100693277D01*
X185892000Y-101236716D01*
X185892001Y-101236719D01*
X185904793Y-101301035D01*
X185929277Y-101337678D01*
X185950155Y-101404355D01*
X185931671Y-101471735D01*
X185879692Y-101518426D01*
X185814032Y-101529973D01*
X185809225Y-101529500D01*
X185809219Y-101529500D01*
X185612046Y-101529500D01*
X185579960Y-101525276D01*
X185577062Y-101524500D01*
X185577060Y-101524500D01*
X185366973Y-101524500D01*
X185299934Y-101504815D01*
X185279292Y-101488181D01*
X185224319Y-101433208D01*
X185190834Y-101371885D01*
X185188000Y-101345527D01*
X185188000Y-100625439D01*
X185188000Y-100625438D01*
X185167521Y-100549011D01*
X185145592Y-100511028D01*
X185127964Y-100480495D01*
X185127958Y-100480487D01*
X184423819Y-99776348D01*
X184390334Y-99715025D01*
X184387500Y-99688667D01*
X184387500Y-97689000D01*
X184407185Y-97621961D01*
X184459989Y-97576206D01*
X184511500Y-97565000D01*
X186363500Y-97565000D01*
X186430539Y-97584685D01*
G37*
%TD.AperFunction*%
%TD*%
%TA.AperFunction,Conductor*%
%TO.N,+3V3*%
G36*
X139565701Y-92154187D02*
G01*
X139688314Y-92186883D01*
X139744044Y-92219015D01*
X139790489Y-92265460D01*
X139859012Y-92305022D01*
X139935438Y-92325500D01*
X140014562Y-92325500D01*
X140191876Y-92325500D01*
X140223825Y-92329686D01*
X140256472Y-92338392D01*
X140299999Y-92350000D01*
X140300000Y-92350000D01*
X140836621Y-92350000D01*
X140903660Y-92369685D01*
X140906696Y-92371699D01*
X140914731Y-92377202D01*
X140914735Y-92377206D01*
X141017509Y-92422585D01*
X141042635Y-92425500D01*
X142407364Y-92425499D01*
X142407379Y-92425497D01*
X142407382Y-92425497D01*
X142432487Y-92422586D01*
X142432487Y-92422585D01*
X142432491Y-92422585D01*
X142521341Y-92383353D01*
X142590617Y-92374282D01*
X142653803Y-92404105D01*
X142659107Y-92409107D01*
X142713681Y-92463681D01*
X142747166Y-92525004D01*
X142750000Y-92551362D01*
X142750000Y-92725316D01*
X142730315Y-92792355D01*
X142677511Y-92838110D01*
X142608353Y-92848053D01*
X142583637Y-92844500D01*
X142509798Y-92844500D01*
X142509793Y-92844500D01*
X142467390Y-92848924D01*
X142467372Y-92848927D01*
X142417297Y-92859491D01*
X142417294Y-92859492D01*
X142403246Y-92864020D01*
X142365207Y-92869999D01*
X141084796Y-92869999D01*
X141046752Y-92864019D01*
X141032699Y-92859489D01*
X140982626Y-92848927D01*
X140982617Y-92848925D01*
X140940202Y-92844500D01*
X140151362Y-92844500D01*
X140151361Y-92844500D01*
X140129381Y-92845678D01*
X140103034Y-92848511D01*
X140103032Y-92848512D01*
X140026521Y-92872470D01*
X140026516Y-92872471D01*
X139965188Y-92905960D01*
X139918384Y-92940998D01*
X139918363Y-92941016D01*
X139801199Y-93058181D01*
X139739876Y-93091666D01*
X139713518Y-93094500D01*
X137529270Y-93094500D01*
X137482057Y-93099997D01*
X137482049Y-93099998D01*
X137426603Y-93113088D01*
X137426601Y-93113088D01*
X137381914Y-93129286D01*
X137176636Y-93231925D01*
X137174890Y-93232950D01*
X137174226Y-93233130D01*
X137172927Y-93233780D01*
X137172796Y-93233518D01*
X137112140Y-93250000D01*
X136524000Y-93250000D01*
X136456961Y-93230315D01*
X136411206Y-93177511D01*
X136400000Y-93126000D01*
X136400000Y-92274000D01*
X136419685Y-92206961D01*
X136472489Y-92161206D01*
X136524000Y-92150000D01*
X139533751Y-92150000D01*
X139565701Y-92154187D01*
G37*
%TD.AperFunction*%
%TD*%
%TA.AperFunction,Conductor*%
%TO.N,GNDA*%
G36*
X168625187Y-115309685D02*
G01*
X168670942Y-115362489D01*
X168681074Y-115416554D01*
X168682000Y-115416554D01*
X168682000Y-115959856D01*
X168682001Y-115959865D01*
X168685990Y-115994259D01*
X168685265Y-115994342D01*
X168687500Y-116011060D01*
X168687500Y-117566000D01*
X168667815Y-117633039D01*
X168615011Y-117678794D01*
X168563500Y-117690000D01*
X167311500Y-117690000D01*
X167244461Y-117670315D01*
X167198706Y-117617511D01*
X167187500Y-117566000D01*
X167187500Y-115414000D01*
X167207185Y-115346961D01*
X167259989Y-115301206D01*
X167311500Y-115290000D01*
X168558148Y-115290000D01*
X168625187Y-115309685D01*
G37*
%TD.AperFunction*%
%TD*%
%TA.AperFunction,Conductor*%
%TO.N,/[1] Power/BB_SW1*%
G36*
X195630539Y-100184685D02*
G01*
X195676294Y-100237489D01*
X195687500Y-100289000D01*
X195687500Y-102341000D01*
X195667815Y-102408039D01*
X195615011Y-102453794D01*
X195563500Y-102465000D01*
X193087500Y-102465000D01*
X190400788Y-103062047D01*
X190373889Y-103065000D01*
X188852538Y-103065000D01*
X188785499Y-103045315D01*
X188775550Y-103037213D01*
X188775298Y-103037544D01*
X188768250Y-103032154D01*
X188688440Y-102987511D01*
X188688435Y-102987509D01*
X188621403Y-102967826D01*
X188621399Y-102967825D01*
X188621398Y-102967825D01*
X188563500Y-102959500D01*
X188563496Y-102959500D01*
X185311500Y-102959500D01*
X185244461Y-102939815D01*
X185198706Y-102887011D01*
X185187500Y-102835500D01*
X185187500Y-102794500D01*
X185207185Y-102727461D01*
X185259989Y-102681706D01*
X185311500Y-102670500D01*
X188563491Y-102670500D01*
X188563500Y-102670500D01*
X188607184Y-102665803D01*
X188636375Y-102659452D01*
X188658674Y-102654602D01*
X188658690Y-102654598D01*
X188658695Y-102654597D01*
X188668873Y-102652110D01*
X188749585Y-102609100D01*
X188802389Y-102563345D01*
X188820343Y-102545754D01*
X188864990Y-102465937D01*
X188869849Y-102449388D01*
X188907622Y-102390611D01*
X188907906Y-102390365D01*
X189252673Y-102094852D01*
X189316384Y-102066169D01*
X189333371Y-102065000D01*
X190187497Y-102065000D01*
X190187500Y-102065000D01*
X191587500Y-101665000D01*
X191587500Y-100289000D01*
X191607185Y-100221961D01*
X191659989Y-100176206D01*
X191711500Y-100165000D01*
X195563500Y-100165000D01*
X195630539Y-100184685D01*
G37*
%TD.AperFunction*%
%TD*%
%TA.AperFunction,Conductor*%
%TO.N,GNDPWR*%
G36*
X107300676Y-107119685D02*
G01*
X107336811Y-107155217D01*
X107479174Y-107368761D01*
X107499982Y-107435460D01*
X107500000Y-107437544D01*
X107500000Y-108056503D01*
X107480315Y-108123542D01*
X107472828Y-108133965D01*
X106737230Y-109053462D01*
X106679979Y-109093514D01*
X106640402Y-109100000D01*
X105600000Y-109100000D01*
X105600000Y-110176000D01*
X105580315Y-110243039D01*
X105527511Y-110288794D01*
X105476000Y-110300000D01*
X104724000Y-110300000D01*
X104656961Y-110280315D01*
X104611206Y-110227511D01*
X104600000Y-110176000D01*
X104600000Y-107224000D01*
X104619685Y-107156961D01*
X104672489Y-107111206D01*
X104724000Y-107100000D01*
X107233637Y-107100000D01*
X107300676Y-107119685D01*
G37*
%TD.AperFunction*%
%TD*%
%TA.AperFunction,Conductor*%
%TO.N,SYSTEM_POWER_A*%
G36*
X104502001Y-110419685D02*
G01*
X104511949Y-110427786D01*
X104512202Y-110427456D01*
X104519249Y-110432845D01*
X104599059Y-110477488D01*
X104599063Y-110477490D01*
X104666102Y-110497175D01*
X104724000Y-110505500D01*
X104724004Y-110505500D01*
X105475991Y-110505500D01*
X105476000Y-110505500D01*
X105519684Y-110500803D01*
X105548875Y-110494452D01*
X105571174Y-110489602D01*
X105571190Y-110489598D01*
X105571195Y-110489597D01*
X105581373Y-110487110D01*
X105662085Y-110444100D01*
X105678027Y-110430285D01*
X105741583Y-110401262D01*
X105759229Y-110400000D01*
X105800000Y-110400000D01*
X106712500Y-110400000D01*
X106712500Y-110565001D01*
X106712499Y-110565001D01*
X106961003Y-110881276D01*
X106986944Y-110946152D01*
X106987500Y-110957886D01*
X106987500Y-111466000D01*
X106967815Y-111533039D01*
X106915011Y-111578794D01*
X106863500Y-111590000D01*
X104437500Y-111590000D01*
X103452855Y-112070315D01*
X103438234Y-112077447D01*
X103383869Y-112090000D01*
X102561500Y-112090000D01*
X102494461Y-112070315D01*
X102448706Y-112017511D01*
X102437500Y-111966000D01*
X102437500Y-110524000D01*
X102457185Y-110456961D01*
X102509989Y-110411206D01*
X102561500Y-110400000D01*
X104434962Y-110400000D01*
X104502001Y-110419685D01*
G37*
%TD.AperFunction*%
%TD*%
%TA.AperFunction,Conductor*%
%TO.N,+3V3*%
G36*
X131493039Y-81409685D02*
G01*
X131538794Y-81462489D01*
X131550000Y-81514000D01*
X131550000Y-83666000D01*
X131530315Y-83733039D01*
X131477511Y-83778794D01*
X131426000Y-83790000D01*
X126174000Y-83790000D01*
X126106961Y-83770315D01*
X126061206Y-83717511D01*
X126050000Y-83666000D01*
X126050000Y-81514000D01*
X126069685Y-81446961D01*
X126122489Y-81401206D01*
X126174000Y-81390000D01*
X131426000Y-81390000D01*
X131493039Y-81409685D01*
G37*
%TD.AperFunction*%
%TD*%
%TA.AperFunction,Conductor*%
%TO.N,GNDD*%
G36*
X140990287Y-93060565D02*
G01*
X141017509Y-93072585D01*
X141042635Y-93075500D01*
X142407364Y-93075499D01*
X142407379Y-93075497D01*
X142407382Y-93075497D01*
X142432487Y-93072586D01*
X142432491Y-93072585D01*
X142459712Y-93060566D01*
X142509798Y-93050000D01*
X142583637Y-93050000D01*
X142650676Y-93069685D01*
X142686811Y-93105217D01*
X142729174Y-93168761D01*
X142749982Y-93235460D01*
X142750000Y-93237544D01*
X142750000Y-93418234D01*
X142730315Y-93485273D01*
X142677511Y-93531028D01*
X142674846Y-93532208D01*
X142549490Y-93585932D01*
X142480117Y-93594247D01*
X142450559Y-93585393D01*
X142432491Y-93577415D01*
X142407365Y-93574500D01*
X141042643Y-93574500D01*
X141042617Y-93574502D01*
X141017512Y-93577413D01*
X141017508Y-93577415D01*
X140914736Y-93622793D01*
X140906696Y-93628301D01*
X140840264Y-93649946D01*
X140836621Y-93650000D01*
X140299999Y-93650000D01*
X139800000Y-94149999D01*
X139800000Y-94723667D01*
X139780315Y-94790706D01*
X139763681Y-94811348D01*
X139611348Y-94963681D01*
X139550025Y-94997166D01*
X139523667Y-95000000D01*
X137324000Y-95000000D01*
X137256961Y-94980315D01*
X137211206Y-94927511D01*
X137200000Y-94876000D01*
X137200000Y-93526636D01*
X137219685Y-93459597D01*
X137268546Y-93415727D01*
X137473818Y-93313091D01*
X137529272Y-93300000D01*
X139850000Y-93300000D01*
X140063681Y-93086319D01*
X140125004Y-93052834D01*
X140151362Y-93050000D01*
X140940202Y-93050000D01*
X140990287Y-93060565D01*
G37*
%TD.AperFunction*%
%TD*%
%TA.AperFunction,Conductor*%
%TO.N,GNDD*%
G36*
X137518039Y-85419685D02*
G01*
X137563794Y-85472489D01*
X137575000Y-85524000D01*
X137575000Y-86554138D01*
X137555315Y-86621177D01*
X137502511Y-86666932D01*
X137454178Y-86678097D01*
X136600000Y-86699999D01*
X136600000Y-86700000D01*
X136600000Y-86975000D01*
X136600000Y-88500000D01*
X136869084Y-88500000D01*
X136879262Y-88500500D01*
X136880252Y-88500500D01*
X138320738Y-88500500D01*
X138330916Y-88500000D01*
X138476000Y-88500000D01*
X138543039Y-88519685D01*
X138588794Y-88572489D01*
X138600000Y-88624000D01*
X138600000Y-91276000D01*
X138580315Y-91343039D01*
X138527511Y-91388794D01*
X138476000Y-91400000D01*
X137400000Y-91400000D01*
X137046333Y-91400000D01*
X136979294Y-91380315D01*
X136958652Y-91363681D01*
X136736319Y-91141348D01*
X136702834Y-91080025D01*
X136700000Y-91053667D01*
X136700000Y-90400000D01*
X136426333Y-90400000D01*
X136359294Y-90380315D01*
X136338652Y-90363681D01*
X136336319Y-90361348D01*
X136302834Y-90300025D01*
X136300000Y-90273667D01*
X136300000Y-90030915D01*
X136300500Y-90020747D01*
X136300500Y-88779262D01*
X136300000Y-88769084D01*
X136300000Y-88500000D01*
X133924000Y-88500000D01*
X133856961Y-88480315D01*
X133811206Y-88427511D01*
X133800000Y-88376000D01*
X133800000Y-85524000D01*
X133819685Y-85456961D01*
X133872489Y-85411206D01*
X133924000Y-85400000D01*
X137451000Y-85400000D01*
X137518039Y-85419685D01*
G37*
%TD.AperFunction*%
%TD*%
%TA.AperFunction,Conductor*%
%TO.N,/[1] Power/BUCK_SW*%
G36*
X123155539Y-89159685D02*
G01*
X123201294Y-89212489D01*
X123212500Y-89264000D01*
X123212500Y-91814101D01*
X123202133Y-91863734D01*
X122872877Y-92617554D01*
X122846925Y-92655602D01*
X122427989Y-93074540D01*
X122372041Y-93130487D01*
X122372035Y-93130495D01*
X122332482Y-93199004D01*
X122332479Y-93199009D01*
X122312000Y-93275439D01*
X122312000Y-93875772D01*
X122301634Y-93925402D01*
X122262500Y-94015000D01*
X122262500Y-94015001D01*
X122262500Y-95400500D01*
X122242815Y-95467539D01*
X122190011Y-95513294D01*
X122138500Y-95524500D01*
X122062000Y-95524500D01*
X121994961Y-95504815D01*
X121949206Y-95452011D01*
X121938000Y-95400500D01*
X121937999Y-95010600D01*
X121937500Y-95000442D01*
X121937500Y-94864999D01*
X121005320Y-93319543D01*
X120987500Y-93255498D01*
X120987500Y-89264000D01*
X121007185Y-89196961D01*
X121059989Y-89151206D01*
X121111500Y-89140000D01*
X123088500Y-89140000D01*
X123155539Y-89159685D01*
G37*
%TD.AperFunction*%
%TD*%
%TA.AperFunction,Conductor*%
%TO.N,+3V0*%
G36*
X120480539Y-122247185D02*
G01*
X120526294Y-122299989D01*
X120537500Y-122351500D01*
X120537500Y-123927500D01*
X121613838Y-124272391D01*
X121671674Y-124311594D01*
X121699133Y-124375841D01*
X121700000Y-124390477D01*
X121700000Y-125274976D01*
X121680315Y-125342015D01*
X121627511Y-125387770D01*
X121574981Y-125398972D01*
X119115981Y-125378760D01*
X119049105Y-125358525D01*
X119003786Y-125305347D01*
X118993000Y-125254764D01*
X118993000Y-124584587D01*
X118992665Y-124572863D01*
X118991853Y-124558701D01*
X118991853Y-124558693D01*
X118990845Y-124546978D01*
X118963311Y-124307431D01*
X118962500Y-124293272D01*
X118962500Y-123501379D01*
X118971369Y-123455327D01*
X119009583Y-123359792D01*
X119016307Y-123345646D01*
X119496967Y-122480457D01*
X119524155Y-122446972D01*
X119524583Y-122446600D01*
X119524585Y-122446600D01*
X119577389Y-122400845D01*
X119595343Y-122383254D01*
X119639990Y-122303437D01*
X119639990Y-122303435D01*
X119643389Y-122297360D01*
X119644459Y-122297958D01*
X119684100Y-122249282D01*
X119750506Y-122227558D01*
X119754296Y-122227500D01*
X120413500Y-122227500D01*
X120480539Y-122247185D01*
G37*
%TD.AperFunction*%
%TD*%
%TA.AperFunction,Conductor*%
%TO.N,VARIABLE_OUTPUT_VOLTAGE_B*%
G36*
X167843039Y-109719685D02*
G01*
X167888794Y-109772489D01*
X167900000Y-109824000D01*
X167900000Y-112776000D01*
X167880315Y-112843039D01*
X167827511Y-112888794D01*
X167776000Y-112900000D01*
X166700000Y-112900000D01*
X166700000Y-113365500D01*
X166680315Y-113432539D01*
X166627511Y-113478294D01*
X166576000Y-113489500D01*
X164624000Y-113489500D01*
X164556961Y-113469815D01*
X164511206Y-113417011D01*
X164500000Y-113365500D01*
X164500000Y-111359597D01*
X164519685Y-111292558D01*
X164546536Y-111262771D01*
X166466035Y-109727172D01*
X166530681Y-109700664D01*
X166543497Y-109700000D01*
X167776000Y-109700000D01*
X167843039Y-109719685D01*
G37*
%TD.AperFunction*%
%TD*%
%TA.AperFunction,Conductor*%
%TO.N,GNDPWR*%
G36*
X178594525Y-101566262D02*
G01*
X178597965Y-101566756D01*
X178624000Y-101570500D01*
X183806622Y-101570500D01*
X183873661Y-101590185D01*
X183911236Y-101627928D01*
X184048112Y-101843020D01*
X184048113Y-101843020D01*
X184477584Y-102517901D01*
X184477586Y-102517903D01*
X184477586Y-102517904D01*
X184505319Y-102552555D01*
X184505326Y-102552563D01*
X184542903Y-102590308D01*
X184550812Y-102597840D01*
X184550814Y-102597841D01*
X184550816Y-102597843D01*
X184630633Y-102642490D01*
X184697672Y-102662175D01*
X184723705Y-102665918D01*
X184787259Y-102694941D01*
X184811207Y-102722932D01*
X185087500Y-103165000D01*
X188563500Y-103165000D01*
X188630539Y-103184685D01*
X188676294Y-103237489D01*
X188687500Y-103289000D01*
X188687500Y-103441000D01*
X188667815Y-103508039D01*
X188615011Y-103553794D01*
X188563500Y-103565000D01*
X185087500Y-103565000D01*
X184709674Y-104037280D01*
X184659582Y-104074673D01*
X184589729Y-104103096D01*
X184589718Y-104103102D01*
X184532471Y-104143151D01*
X184532470Y-104143152D01*
X184489809Y-104183156D01*
X184489802Y-104183163D01*
X184225961Y-104512962D01*
X184168712Y-104553014D01*
X184129135Y-104559500D01*
X183248017Y-104559500D01*
X183213569Y-104562408D01*
X183213563Y-104562408D01*
X183213554Y-104562410D01*
X183208646Y-104563245D01*
X183187859Y-104565000D01*
X183186535Y-104565000D01*
X183178195Y-104567282D01*
X183178283Y-104567583D01*
X183171522Y-104569559D01*
X183087218Y-104605010D01*
X183087215Y-104605012D01*
X183030453Y-104645746D01*
X182988267Y-104686266D01*
X182852916Y-104859683D01*
X182837546Y-104876068D01*
X179622736Y-107733679D01*
X179559553Y-107763505D01*
X179540355Y-107765000D01*
X177611500Y-107765000D01*
X177544461Y-107745315D01*
X177498706Y-107692511D01*
X177487500Y-107641000D01*
X177487500Y-101689000D01*
X177507185Y-101621961D01*
X177559989Y-101576206D01*
X177611500Y-101565000D01*
X178576878Y-101565000D01*
X178594525Y-101566262D01*
G37*
%TD.AperFunction*%
%TD*%
%TA.AperFunction,Conductor*%
%TO.N,GNDD*%
G36*
X156368039Y-93419685D02*
G01*
X156413794Y-93472489D01*
X156425000Y-93524000D01*
X156425000Y-95575000D01*
X156424999Y-95575000D01*
X157474995Y-95799999D01*
X157474999Y-95800000D01*
X157475000Y-95800000D01*
X158900000Y-95800000D01*
X159776000Y-95800000D01*
X159843039Y-95819685D01*
X159888794Y-95872489D01*
X159900000Y-95924000D01*
X159900000Y-97000000D01*
X159900000Y-97500000D01*
X162076000Y-97500000D01*
X162143039Y-97519685D01*
X162188794Y-97572489D01*
X162200000Y-97624000D01*
X162200000Y-98276000D01*
X162180315Y-98343039D01*
X162127511Y-98388794D01*
X162076000Y-98400000D01*
X156156455Y-98400000D01*
X156089416Y-98380315D01*
X156062931Y-98357421D01*
X155424423Y-97624000D01*
X155095312Y-97245967D01*
X154280476Y-96310006D01*
X154251304Y-96246518D01*
X154250000Y-96228585D01*
X154250000Y-93524000D01*
X154269685Y-93456961D01*
X154322489Y-93411206D01*
X154374000Y-93400000D01*
X156301000Y-93400000D01*
X156368039Y-93419685D01*
G37*
%TD.AperFunction*%
%TD*%
%TA.AperFunction,Conductor*%
%TO.N,/[1] Power/JACK_POWER*%
G36*
X111080539Y-89109685D02*
G01*
X111126294Y-89162489D01*
X111137500Y-89214000D01*
X111137500Y-97183370D01*
X111117815Y-97250409D01*
X111065011Y-97296164D01*
X111062520Y-97297269D01*
X109162500Y-98114999D01*
X109162500Y-102090000D01*
X110898720Y-103054567D01*
X110947763Y-103104331D01*
X110962500Y-103162962D01*
X110962500Y-104815237D01*
X110942815Y-104882276D01*
X110890011Y-104928031D01*
X110854590Y-104937765D01*
X110854645Y-104938177D01*
X110853033Y-104938390D01*
X110831615Y-104941810D01*
X110831577Y-104941817D01*
X110269574Y-105062247D01*
X110243592Y-105065000D01*
X109851013Y-105065000D01*
X109783974Y-105045315D01*
X109780763Y-105043181D01*
X109677306Y-104972054D01*
X109633215Y-104917853D01*
X109624818Y-104887518D01*
X109624064Y-104882276D01*
X109622665Y-104872543D01*
X109578624Y-104776107D01*
X109562879Y-104741630D01*
X109562876Y-104741626D01*
X109468628Y-104632857D01*
X109347553Y-104555047D01*
X109347551Y-104555046D01*
X109347549Y-104555045D01*
X109347550Y-104555045D01*
X109209463Y-104514500D01*
X109209461Y-104514500D01*
X109065539Y-104514500D01*
X109056761Y-104515762D01*
X109056253Y-104512232D01*
X109031663Y-104512227D01*
X109031694Y-104514769D01*
X109012500Y-104515000D01*
X108017247Y-104526991D01*
X108015753Y-104527000D01*
X107429240Y-104527000D01*
X107413306Y-104529321D01*
X107384444Y-104533526D01*
X107368063Y-104534812D01*
X107062994Y-104538487D01*
X106995722Y-104519611D01*
X106949334Y-104467362D01*
X106937500Y-104414496D01*
X106937500Y-104265020D01*
X106937500Y-104265000D01*
X106920245Y-102159907D01*
X106936024Y-102098355D01*
X106939989Y-102091266D01*
X106939990Y-102091265D01*
X106959675Y-102024226D01*
X106968000Y-101966328D01*
X106968000Y-98414000D01*
X106963303Y-98370316D01*
X106959651Y-98353529D01*
X106964635Y-98283838D01*
X106965547Y-98281465D01*
X107637500Y-96590000D01*
X108637500Y-93215000D01*
X108637500Y-89214000D01*
X108657185Y-89146961D01*
X108709989Y-89101206D01*
X108761500Y-89090000D01*
X111013500Y-89090000D01*
X111080539Y-89109685D01*
G37*
%TD.AperFunction*%
%TD*%
%TA.AperFunction,Conductor*%
%TO.N,VARIABLE_OUTPUT_VOLTAGE_A*%
G36*
X188630539Y-104284685D02*
G01*
X188676294Y-104337489D01*
X188687500Y-104389000D01*
X188687500Y-104455500D01*
X188667815Y-104522539D01*
X188615011Y-104568294D01*
X188563500Y-104579500D01*
X188294647Y-104579500D01*
X188204013Y-104603785D01*
X188203661Y-104602472D01*
X188168323Y-104609500D01*
X188065783Y-104609500D01*
X188001464Y-104622293D01*
X188001461Y-104622294D01*
X187968825Y-104644102D01*
X187902148Y-104664980D01*
X187899934Y-104665000D01*
X187887500Y-104665000D01*
X187720825Y-105081686D01*
X187677651Y-105136619D01*
X187614745Y-105158616D01*
X187614802Y-105159145D01*
X187612538Y-105159388D01*
X187612351Y-105159454D01*
X187611505Y-105159499D01*
X187566960Y-105164289D01*
X187553704Y-105165000D01*
X186271452Y-105165000D01*
X186204413Y-105145315D01*
X186158658Y-105092511D01*
X186156321Y-105087052D01*
X185987500Y-104665000D01*
X184987500Y-104665000D01*
X184776974Y-105165000D01*
X184219450Y-106489119D01*
X184175293Y-106543266D01*
X184108871Y-106564945D01*
X184105167Y-106565000D01*
X183187500Y-106565000D01*
X183187500Y-113241000D01*
X183167815Y-113308039D01*
X183115011Y-113353794D01*
X183063500Y-113365000D01*
X175388181Y-113365000D01*
X175386788Y-113364992D01*
X169722607Y-113301377D01*
X169655793Y-113280941D01*
X169610634Y-113227626D01*
X169600000Y-113177385D01*
X169600000Y-109824000D01*
X169619685Y-109756961D01*
X169672489Y-109711206D01*
X169724000Y-109700000D01*
X175387500Y-109700000D01*
X175387500Y-108989000D01*
X175407185Y-108921961D01*
X175459989Y-108876206D01*
X175511500Y-108865000D01*
X179987499Y-108865000D01*
X179987500Y-108865000D01*
X183150266Y-104812705D01*
X183207031Y-104771969D01*
X183248017Y-104765000D01*
X184287500Y-104765000D01*
X184650270Y-104311538D01*
X184707521Y-104271486D01*
X184747098Y-104265000D01*
X188563500Y-104265000D01*
X188630539Y-104284685D01*
G37*
%TD.AperFunction*%
%TD*%
%TA.AperFunction,Conductor*%
%TO.N,GNDPWR*%
G36*
X123255539Y-94909685D02*
G01*
X123301294Y-94962489D01*
X123312500Y-95014000D01*
X123312500Y-95600000D01*
X124276000Y-95600000D01*
X124343039Y-95619685D01*
X124388794Y-95672489D01*
X124400000Y-95724000D01*
X124400000Y-96485070D01*
X124380315Y-96552109D01*
X124327511Y-96597864D01*
X124285401Y-96608713D01*
X123278469Y-96685272D01*
X123244879Y-96683247D01*
X123208824Y-96676076D01*
X123200901Y-96674500D01*
X123200900Y-96674500D01*
X123024101Y-96674500D01*
X122947381Y-96689760D01*
X122940883Y-96694103D01*
X122874205Y-96714980D01*
X122871993Y-96715000D01*
X122853007Y-96715000D01*
X122785968Y-96695315D01*
X122784118Y-96694104D01*
X122784117Y-96694103D01*
X122777617Y-96689760D01*
X122777616Y-96689759D01*
X122777615Y-96689759D01*
X122700903Y-96674500D01*
X122524100Y-96674500D01*
X122448462Y-96689545D01*
X122378871Y-96683316D01*
X122363739Y-96676147D01*
X122328343Y-96656348D01*
X122313437Y-96648010D01*
X122313436Y-96648009D01*
X122313435Y-96648009D01*
X122246403Y-96628326D01*
X122246399Y-96628325D01*
X122246398Y-96628325D01*
X122188500Y-96620000D01*
X122061999Y-96620000D01*
X122061991Y-96620000D01*
X122018315Y-96624696D01*
X121966788Y-96635906D01*
X121956626Y-96638389D01*
X121875910Y-96681401D01*
X121872094Y-96684709D01*
X121818154Y-96709345D01*
X121806961Y-96720538D01*
X121796720Y-96759825D01*
X121760508Y-96824561D01*
X121760507Y-96824564D01*
X121740824Y-96891598D01*
X121740821Y-96891610D01*
X121732499Y-96949499D01*
X121732499Y-97331309D01*
X121732351Y-97337370D01*
X121732246Y-97339496D01*
X121732000Y-97349574D01*
X121732000Y-97526968D01*
X121712315Y-97594007D01*
X121688699Y-97621115D01*
X121637500Y-97665000D01*
X121637500Y-101166000D01*
X121617815Y-101233039D01*
X121565011Y-101278794D01*
X121513500Y-101290000D01*
X118261500Y-101290000D01*
X118194461Y-101270315D01*
X118148706Y-101217511D01*
X118137500Y-101166000D01*
X118137500Y-95764000D01*
X118157185Y-95696961D01*
X118209989Y-95651206D01*
X118261500Y-95640000D01*
X120816098Y-95640000D01*
X120835494Y-95641526D01*
X120849175Y-95643693D01*
X120862499Y-95645804D01*
X120862500Y-95645804D01*
X120862501Y-95645804D01*
X120875824Y-95643693D01*
X120889505Y-95641526D01*
X120908902Y-95640000D01*
X121379477Y-95640000D01*
X121435711Y-95656512D01*
X121436103Y-95655567D01*
X121444894Y-95659208D01*
X121446516Y-95659685D01*
X121447328Y-95660216D01*
X121447380Y-95660238D01*
X121447383Y-95660240D01*
X121447386Y-95660240D01*
X121447387Y-95660241D01*
X121480950Y-95666917D01*
X121524099Y-95675500D01*
X121700900Y-95675499D01*
X121777617Y-95660240D01*
X121777617Y-95660239D01*
X121789596Y-95657857D01*
X121790216Y-95660974D01*
X121840264Y-95655586D01*
X121878798Y-95669398D01*
X121937063Y-95701990D01*
X122004102Y-95721675D01*
X122062000Y-95730000D01*
X122062004Y-95730000D01*
X122138491Y-95730000D01*
X122138500Y-95730000D01*
X122182184Y-95725303D01*
X122211375Y-95718952D01*
X122233674Y-95714102D01*
X122233690Y-95714098D01*
X122233695Y-95714097D01*
X122243873Y-95711610D01*
X122324585Y-95668600D01*
X122324586Y-95668598D01*
X122330730Y-95665325D01*
X122331578Y-95666917D01*
X122389304Y-95648030D01*
X122440552Y-95657411D01*
X122447382Y-95660240D01*
X122472723Y-95665280D01*
X122524099Y-95675500D01*
X122700900Y-95675499D01*
X122777617Y-95660240D01*
X122777619Y-95660238D01*
X122788898Y-95655567D01*
X122789444Y-95656886D01*
X122843312Y-95640020D01*
X122845523Y-95640000D01*
X122912500Y-95640000D01*
X122912500Y-95564504D01*
X122921940Y-95517049D01*
X122922741Y-95515114D01*
X122937999Y-95438405D01*
X122938000Y-95438401D01*
X122937999Y-95013999D01*
X122957683Y-94946961D01*
X123010487Y-94901206D01*
X123061999Y-94890000D01*
X123188500Y-94890000D01*
X123255539Y-94909685D01*
G37*
%TD.AperFunction*%
%TD*%
M02*
