%TF.GenerationSoftware,KiCad,Pcbnew,8.0.5*%
%TF.CreationDate,2025-07-10T18:20:16-04:00*%
%TF.ProjectId,Var_Volt_Conv,5661725f-566f-46c7-945f-436f6e762e6b,rev?*%
%TF.SameCoordinates,Original*%
%TF.FileFunction,Legend,Top*%
%TF.FilePolarity,Positive*%
%FSLAX46Y46*%
G04 Gerber Fmt 4.6, Leading zero omitted, Abs format (unit mm)*
G04 Created by KiCad (PCBNEW 8.0.5) date 2025-07-10 18:20:16*
%MOMM*%
%LPD*%
G01*
G04 APERTURE LIST*
G04 Aperture macros list*
%AMRoundRect*
0 Rectangle with rounded corners*
0 $1 Rounding radius*
0 $2 $3 $4 $5 $6 $7 $8 $9 X,Y pos of 4 corners*
0 Add a 4 corners polygon primitive as box body*
4,1,4,$2,$3,$4,$5,$6,$7,$8,$9,$2,$3,0*
0 Add four circle primitives for the rounded corners*
1,1,$1+$1,$2,$3*
1,1,$1+$1,$4,$5*
1,1,$1+$1,$6,$7*
1,1,$1+$1,$8,$9*
0 Add four rect primitives between the rounded corners*
20,1,$1+$1,$2,$3,$4,$5,0*
20,1,$1+$1,$4,$5,$6,$7,0*
20,1,$1+$1,$6,$7,$8,$9,0*
20,1,$1+$1,$8,$9,$2,$3,0*%
%AMFreePoly0*
4,1,25,1.176913,0.169619,1.179619,0.166913,1.180000,0.165000,1.180000,0.125000,1.700000,0.125000,1.700000,-0.125000,1.180000,-0.125000,1.180000,-0.165000,1.179619,-0.166913,1.176913,-0.169619,1.175000,-0.170000,-1.175000,-0.170000,-1.176913,-0.169619,-1.179619,-0.166913,-1.180000,-0.165000,-1.180000,-0.125000,-1.700000,-0.125000,-1.700000,0.125000,-1.180000,0.125000,-1.180000,0.165000,
-1.179619,0.166913,-1.176913,0.169619,-1.175000,0.170000,1.175000,0.170000,1.176913,0.169619,1.176913,0.169619,$1*%
G04 Aperture macros list end*
%ADD10C,0.100000*%
%ADD11C,0.150000*%
%ADD12C,0.200000*%
%ADD13C,0.300000*%
%ADD14C,0.120000*%
%ADD15C,0.900000*%
%ADD16R,1.100000X1.300000*%
%ADD17O,1.100000X1.300000*%
%ADD18O,2.700000X1.500000*%
%ADD19RoundRect,0.250000X0.312500X1.075000X-0.312500X1.075000X-0.312500X-1.075000X0.312500X-1.075000X0*%
%ADD20RoundRect,0.135000X0.135000X0.185000X-0.135000X0.185000X-0.135000X-0.185000X0.135000X-0.185000X0*%
%ADD21RoundRect,0.150000X-0.512500X-0.150000X0.512500X-0.150000X0.512500X0.150000X-0.512500X0.150000X0*%
%ADD22RoundRect,0.135000X-0.185000X0.135000X-0.185000X-0.135000X0.185000X-0.135000X0.185000X0.135000X0*%
%ADD23RoundRect,0.140000X-0.140000X-0.170000X0.140000X-0.170000X0.140000X0.170000X-0.140000X0.170000X0*%
%ADD24RoundRect,0.050000X0.075000X-0.250000X0.075000X0.250000X-0.075000X0.250000X-0.075000X-0.250000X0*%
%ADD25RoundRect,0.050000X0.275000X0.100000X-0.275000X0.100000X-0.275000X-0.100000X0.275000X-0.100000X0*%
%ADD26RoundRect,0.050000X0.250000X0.075000X-0.250000X0.075000X-0.250000X-0.075000X0.250000X-0.075000X0*%
%ADD27R,3.400000X0.250000*%
%ADD28FreePoly0,180.000000*%
%ADD29RoundRect,0.050000X-0.075000X0.250000X-0.075000X-0.250000X0.075000X-0.250000X0.075000X0.250000X0*%
%ADD30RoundRect,0.050000X-0.275000X-0.100000X0.275000X-0.100000X0.275000X0.100000X-0.275000X0.100000X0*%
%ADD31RoundRect,0.050000X-0.250000X-0.075000X0.250000X-0.075000X0.250000X0.075000X-0.250000X0.075000X0*%
%ADD32R,1.400000X1.200000*%
%ADD33R,2.500000X1.900000*%
%ADD34RoundRect,0.150000X-0.587500X-0.150000X0.587500X-0.150000X0.587500X0.150000X-0.587500X0.150000X0*%
%ADD35RoundRect,0.140000X0.170000X-0.140000X0.170000X0.140000X-0.170000X0.140000X-0.170000X-0.140000X0*%
%ADD36RoundRect,0.100000X-0.637500X-0.100000X0.637500X-0.100000X0.637500X0.100000X-0.637500X0.100000X0*%
%ADD37RoundRect,0.150000X0.150000X-0.587500X0.150000X0.587500X-0.150000X0.587500X-0.150000X-0.587500X0*%
%ADD38RoundRect,0.200000X0.275000X-0.200000X0.275000X0.200000X-0.275000X0.200000X-0.275000X-0.200000X0*%
%ADD39RoundRect,0.200000X-0.200000X-0.275000X0.200000X-0.275000X0.200000X0.275000X-0.200000X0.275000X0*%
%ADD40RoundRect,0.140000X0.140000X0.170000X-0.140000X0.170000X-0.140000X-0.170000X0.140000X-0.170000X0*%
%ADD41RoundRect,0.200000X-0.275000X0.200000X-0.275000X-0.200000X0.275000X-0.200000X0.275000X0.200000X0*%
%ADD42C,4.000000*%
%ADD43C,1.800000*%
%ADD44RoundRect,0.250000X0.550000X-1.500000X0.550000X1.500000X-0.550000X1.500000X-0.550000X-1.500000X0*%
%ADD45R,2.600000X2.600000*%
%ADD46C,2.600000*%
%ADD47RoundRect,0.250000X-0.325000X-0.650000X0.325000X-0.650000X0.325000X0.650000X-0.325000X0.650000X0*%
%ADD48RoundRect,0.140000X-0.170000X0.140000X-0.170000X-0.140000X0.170000X-0.140000X0.170000X0.140000X0*%
%ADD49RoundRect,0.250000X-0.475000X0.250000X-0.475000X-0.250000X0.475000X-0.250000X0.475000X0.250000X0*%
%ADD50RoundRect,0.125000X-0.125000X-0.125000X0.125000X-0.125000X0.125000X0.125000X-0.125000X0.125000X0*%
%ADD51RoundRect,0.250000X-0.650000X0.325000X-0.650000X-0.325000X0.650000X-0.325000X0.650000X0.325000X0*%
%ADD52RoundRect,0.112500X0.112500X-0.187500X0.112500X0.187500X-0.112500X0.187500X-0.112500X-0.187500X0*%
%ADD53RoundRect,0.100000X0.100000X-0.225000X0.100000X0.225000X-0.100000X0.225000X-0.100000X-0.225000X0*%
%ADD54RoundRect,0.100000X-0.225000X-0.100000X0.225000X-0.100000X0.225000X0.100000X-0.225000X0.100000X0*%
%ADD55RoundRect,0.135000X-0.135000X-0.185000X0.135000X-0.185000X0.135000X0.185000X-0.135000X0.185000X0*%
%ADD56RoundRect,0.250000X-1.075000X0.312500X-1.075000X-0.312500X1.075000X-0.312500X1.075000X0.312500X0*%
%ADD57RoundRect,0.135000X0.185000X-0.135000X0.185000X0.135000X-0.185000X0.135000X-0.185000X-0.135000X0*%
%ADD58RoundRect,0.250000X-0.450000X0.262500X-0.450000X-0.262500X0.450000X-0.262500X0.450000X0.262500X0*%
%ADD59R,1.700000X1.700000*%
%ADD60O,1.700000X1.700000*%
%ADD61RoundRect,0.218750X0.256250X-0.218750X0.256250X0.218750X-0.256250X0.218750X-0.256250X-0.218750X0*%
%ADD62RoundRect,0.150000X0.587500X0.150000X-0.587500X0.150000X-0.587500X-0.150000X0.587500X-0.150000X0*%
%ADD63RoundRect,0.250000X0.475000X-0.250000X0.475000X0.250000X-0.475000X0.250000X-0.475000X-0.250000X0*%
%ADD64RoundRect,0.050000X0.150000X0.300000X-0.150000X0.300000X-0.150000X-0.300000X0.150000X-0.300000X0*%
%ADD65RoundRect,0.112500X-0.112500X0.187500X-0.112500X-0.187500X0.112500X-0.187500X0.112500X0.187500X0*%
%ADD66RoundRect,0.250000X0.325000X0.650000X-0.325000X0.650000X-0.325000X-0.650000X0.325000X-0.650000X0*%
%ADD67RoundRect,0.050000X-0.150000X-0.300000X0.150000X-0.300000X0.150000X0.300000X-0.150000X0.300000X0*%
%ADD68RoundRect,0.125000X-0.125000X0.125000X-0.125000X-0.125000X0.125000X-0.125000X0.125000X0.125000X0*%
%ADD69RoundRect,0.250000X0.250000X0.475000X-0.250000X0.475000X-0.250000X-0.475000X0.250000X-0.475000X0*%
%ADD70RoundRect,0.125000X0.125000X0.125000X-0.125000X0.125000X-0.125000X-0.125000X0.125000X-0.125000X0*%
%ADD71R,1.900000X2.500000*%
%ADD72C,1.600000*%
%ADD73R,2.000000X4.000000*%
%ADD74O,2.000000X3.300000*%
%ADD75O,3.500000X2.000000*%
%ADD76RoundRect,0.062500X0.062500X-0.187500X0.062500X0.187500X-0.062500X0.187500X-0.062500X-0.187500X0*%
%ADD77R,1.600000X0.900000*%
%ADD78RoundRect,0.100000X0.225000X0.100000X-0.225000X0.100000X-0.225000X-0.100000X0.225000X-0.100000X0*%
%ADD79RoundRect,0.225000X-0.250000X0.225000X-0.250000X-0.225000X0.250000X-0.225000X0.250000X0.225000X0*%
%ADD80R,1.250000X1.000000*%
%ADD81RoundRect,0.150000X0.512500X0.150000X-0.512500X0.150000X-0.512500X-0.150000X0.512500X-0.150000X0*%
%ADD82RoundRect,0.150000X-0.150000X0.587500X-0.150000X-0.587500X0.150000X-0.587500X0.150000X0.587500X0*%
G04 APERTURE END LIST*
D10*
X193850000Y-128000000D02*
X193400000Y-127400000D01*
X194300000Y-127400000D01*
X193850000Y-128000000D01*
G36*
X193850000Y-128000000D02*
G01*
X193400000Y-127400000D01*
X194300000Y-127400000D01*
X193850000Y-128000000D01*
G37*
X173400000Y-123300000D02*
X173400000Y-126200000D01*
X193850000Y-128000000D02*
X193850000Y-125100000D01*
X173850000Y-123900000D02*
X172950000Y-123900000D01*
X173400000Y-123300000D01*
X173850000Y-123900000D01*
G36*
X173850000Y-123900000D02*
G01*
X172950000Y-123900000D01*
X173400000Y-123300000D01*
X173850000Y-123900000D01*
G37*
D11*
X165520112Y-107442956D02*
X165662969Y-107442956D01*
X165662969Y-107442956D02*
X165734398Y-107478670D01*
X165734398Y-107478670D02*
X165805826Y-107550099D01*
X165805826Y-107550099D02*
X165841541Y-107692956D01*
X165841541Y-107692956D02*
X165841541Y-107942956D01*
X165841541Y-107942956D02*
X165805826Y-108085813D01*
X165805826Y-108085813D02*
X165734398Y-108157242D01*
X165734398Y-108157242D02*
X165662969Y-108192956D01*
X165662969Y-108192956D02*
X165520112Y-108192956D01*
X165520112Y-108192956D02*
X165448684Y-108157242D01*
X165448684Y-108157242D02*
X165377255Y-108085813D01*
X165377255Y-108085813D02*
X165341541Y-107942956D01*
X165341541Y-107942956D02*
X165341541Y-107692956D01*
X165341541Y-107692956D02*
X165377255Y-107550099D01*
X165377255Y-107550099D02*
X165448684Y-107478670D01*
X165448684Y-107478670D02*
X165520112Y-107442956D01*
X166484398Y-107692956D02*
X166484398Y-108192956D01*
X166162969Y-107692956D02*
X166162969Y-108085813D01*
X166162969Y-108085813D02*
X166198683Y-108157242D01*
X166198683Y-108157242D02*
X166270112Y-108192956D01*
X166270112Y-108192956D02*
X166377255Y-108192956D01*
X166377255Y-108192956D02*
X166448683Y-108157242D01*
X166448683Y-108157242D02*
X166484398Y-108121527D01*
X166734397Y-107692956D02*
X167020111Y-107692956D01*
X166841540Y-107442956D02*
X166841540Y-108085813D01*
X166841540Y-108085813D02*
X166877254Y-108157242D01*
X166877254Y-108157242D02*
X166948683Y-108192956D01*
X166948683Y-108192956D02*
X167020111Y-108192956D01*
X167270111Y-107692956D02*
X167270111Y-108442956D01*
X167270111Y-107728670D02*
X167341540Y-107692956D01*
X167341540Y-107692956D02*
X167484397Y-107692956D01*
X167484397Y-107692956D02*
X167555825Y-107728670D01*
X167555825Y-107728670D02*
X167591540Y-107764384D01*
X167591540Y-107764384D02*
X167627254Y-107835813D01*
X167627254Y-107835813D02*
X167627254Y-108050099D01*
X167627254Y-108050099D02*
X167591540Y-108121527D01*
X167591540Y-108121527D02*
X167555825Y-108157242D01*
X167555825Y-108157242D02*
X167484397Y-108192956D01*
X167484397Y-108192956D02*
X167341540Y-108192956D01*
X167341540Y-108192956D02*
X167270111Y-108157242D01*
X168270111Y-107692956D02*
X168270111Y-108192956D01*
X167948682Y-107692956D02*
X167948682Y-108085813D01*
X167948682Y-108085813D02*
X167984396Y-108157242D01*
X167984396Y-108157242D02*
X168055825Y-108192956D01*
X168055825Y-108192956D02*
X168162968Y-108192956D01*
X168162968Y-108192956D02*
X168234396Y-108157242D01*
X168234396Y-108157242D02*
X168270111Y-108121527D01*
X168520110Y-107692956D02*
X168805824Y-107692956D01*
X168627253Y-107442956D02*
X168627253Y-108085813D01*
X168627253Y-108085813D02*
X168662967Y-108157242D01*
X168662967Y-108157242D02*
X168734396Y-108192956D01*
X168734396Y-108192956D02*
X168805824Y-108192956D01*
X165805826Y-109328985D02*
X165770112Y-109364700D01*
X165770112Y-109364700D02*
X165662969Y-109400414D01*
X165662969Y-109400414D02*
X165591541Y-109400414D01*
X165591541Y-109400414D02*
X165484398Y-109364700D01*
X165484398Y-109364700D02*
X165412969Y-109293271D01*
X165412969Y-109293271D02*
X165377255Y-109221842D01*
X165377255Y-109221842D02*
X165341541Y-109078985D01*
X165341541Y-109078985D02*
X165341541Y-108971842D01*
X165341541Y-108971842D02*
X165377255Y-108828985D01*
X165377255Y-108828985D02*
X165412969Y-108757557D01*
X165412969Y-108757557D02*
X165484398Y-108686128D01*
X165484398Y-108686128D02*
X165591541Y-108650414D01*
X165591541Y-108650414D02*
X165662969Y-108650414D01*
X165662969Y-108650414D02*
X165770112Y-108686128D01*
X165770112Y-108686128D02*
X165805826Y-108721842D01*
X166448684Y-108900414D02*
X166448684Y-109400414D01*
X166127255Y-108900414D02*
X166127255Y-109293271D01*
X166127255Y-109293271D02*
X166162969Y-109364700D01*
X166162969Y-109364700D02*
X166234398Y-109400414D01*
X166234398Y-109400414D02*
X166341541Y-109400414D01*
X166341541Y-109400414D02*
X166412969Y-109364700D01*
X166412969Y-109364700D02*
X166448684Y-109328985D01*
X166805826Y-109400414D02*
X166805826Y-108900414D01*
X166805826Y-109043271D02*
X166841540Y-108971842D01*
X166841540Y-108971842D02*
X166877255Y-108936128D01*
X166877255Y-108936128D02*
X166948683Y-108900414D01*
X166948683Y-108900414D02*
X167020112Y-108900414D01*
X167270112Y-109400414D02*
X167270112Y-108900414D01*
X167270112Y-109043271D02*
X167305826Y-108971842D01*
X167305826Y-108971842D02*
X167341541Y-108936128D01*
X167341541Y-108936128D02*
X167412969Y-108900414D01*
X167412969Y-108900414D02*
X167484398Y-108900414D01*
X168020112Y-109364700D02*
X167948684Y-109400414D01*
X167948684Y-109400414D02*
X167805827Y-109400414D01*
X167805827Y-109400414D02*
X167734398Y-109364700D01*
X167734398Y-109364700D02*
X167698684Y-109293271D01*
X167698684Y-109293271D02*
X167698684Y-109007557D01*
X167698684Y-109007557D02*
X167734398Y-108936128D01*
X167734398Y-108936128D02*
X167805827Y-108900414D01*
X167805827Y-108900414D02*
X167948684Y-108900414D01*
X167948684Y-108900414D02*
X168020112Y-108936128D01*
X168020112Y-108936128D02*
X168055827Y-109007557D01*
X168055827Y-109007557D02*
X168055827Y-109078985D01*
X168055827Y-109078985D02*
X167698684Y-109150414D01*
X168377255Y-108900414D02*
X168377255Y-109400414D01*
X168377255Y-108971842D02*
X168412969Y-108936128D01*
X168412969Y-108936128D02*
X168484398Y-108900414D01*
X168484398Y-108900414D02*
X168591541Y-108900414D01*
X168591541Y-108900414D02*
X168662969Y-108936128D01*
X168662969Y-108936128D02*
X168698684Y-109007557D01*
X168698684Y-109007557D02*
X168698684Y-109400414D01*
X168948683Y-108900414D02*
X169234397Y-108900414D01*
X169055826Y-108650414D02*
X169055826Y-109293271D01*
X169055826Y-109293271D02*
X169091540Y-109364700D01*
X169091540Y-109364700D02*
X169162969Y-109400414D01*
X169162969Y-109400414D02*
X169234397Y-109400414D01*
X170020112Y-109364700D02*
X170127255Y-109400414D01*
X170127255Y-109400414D02*
X170305826Y-109400414D01*
X170305826Y-109400414D02*
X170377255Y-109364700D01*
X170377255Y-109364700D02*
X170412969Y-109328985D01*
X170412969Y-109328985D02*
X170448683Y-109257557D01*
X170448683Y-109257557D02*
X170448683Y-109186128D01*
X170448683Y-109186128D02*
X170412969Y-109114700D01*
X170412969Y-109114700D02*
X170377255Y-109078985D01*
X170377255Y-109078985D02*
X170305826Y-109043271D01*
X170305826Y-109043271D02*
X170162969Y-109007557D01*
X170162969Y-109007557D02*
X170091540Y-108971842D01*
X170091540Y-108971842D02*
X170055826Y-108936128D01*
X170055826Y-108936128D02*
X170020112Y-108864700D01*
X170020112Y-108864700D02*
X170020112Y-108793271D01*
X170020112Y-108793271D02*
X170055826Y-108721842D01*
X170055826Y-108721842D02*
X170091540Y-108686128D01*
X170091540Y-108686128D02*
X170162969Y-108650414D01*
X170162969Y-108650414D02*
X170341540Y-108650414D01*
X170341540Y-108650414D02*
X170448683Y-108686128D01*
X171055826Y-109364700D02*
X170984398Y-109400414D01*
X170984398Y-109400414D02*
X170841541Y-109400414D01*
X170841541Y-109400414D02*
X170770112Y-109364700D01*
X170770112Y-109364700D02*
X170734398Y-109293271D01*
X170734398Y-109293271D02*
X170734398Y-109007557D01*
X170734398Y-109007557D02*
X170770112Y-108936128D01*
X170770112Y-108936128D02*
X170841541Y-108900414D01*
X170841541Y-108900414D02*
X170984398Y-108900414D01*
X170984398Y-108900414D02*
X171055826Y-108936128D01*
X171055826Y-108936128D02*
X171091541Y-109007557D01*
X171091541Y-109007557D02*
X171091541Y-109078985D01*
X171091541Y-109078985D02*
X170734398Y-109150414D01*
X171412969Y-108900414D02*
X171412969Y-109400414D01*
X171412969Y-108971842D02*
X171448683Y-108936128D01*
X171448683Y-108936128D02*
X171520112Y-108900414D01*
X171520112Y-108900414D02*
X171627255Y-108900414D01*
X171627255Y-108900414D02*
X171698683Y-108936128D01*
X171698683Y-108936128D02*
X171734398Y-109007557D01*
X171734398Y-109007557D02*
X171734398Y-109400414D01*
X172055826Y-109364700D02*
X172127254Y-109400414D01*
X172127254Y-109400414D02*
X172270111Y-109400414D01*
X172270111Y-109400414D02*
X172341540Y-109364700D01*
X172341540Y-109364700D02*
X172377254Y-109293271D01*
X172377254Y-109293271D02*
X172377254Y-109257557D01*
X172377254Y-109257557D02*
X172341540Y-109186128D01*
X172341540Y-109186128D02*
X172270111Y-109150414D01*
X172270111Y-109150414D02*
X172162969Y-109150414D01*
X172162969Y-109150414D02*
X172091540Y-109114700D01*
X172091540Y-109114700D02*
X172055826Y-109043271D01*
X172055826Y-109043271D02*
X172055826Y-109007557D01*
X172055826Y-109007557D02*
X172091540Y-108936128D01*
X172091540Y-108936128D02*
X172162969Y-108900414D01*
X172162969Y-108900414D02*
X172270111Y-108900414D01*
X172270111Y-108900414D02*
X172341540Y-108936128D01*
X172805826Y-109400414D02*
X172734397Y-109364700D01*
X172734397Y-109364700D02*
X172698683Y-109328985D01*
X172698683Y-109328985D02*
X172662969Y-109257557D01*
X172662969Y-109257557D02*
X172662969Y-109043271D01*
X172662969Y-109043271D02*
X172698683Y-108971842D01*
X172698683Y-108971842D02*
X172734397Y-108936128D01*
X172734397Y-108936128D02*
X172805826Y-108900414D01*
X172805826Y-108900414D02*
X172912969Y-108900414D01*
X172912969Y-108900414D02*
X172984397Y-108936128D01*
X172984397Y-108936128D02*
X173020112Y-108971842D01*
X173020112Y-108971842D02*
X173055826Y-109043271D01*
X173055826Y-109043271D02*
X173055826Y-109257557D01*
X173055826Y-109257557D02*
X173020112Y-109328985D01*
X173020112Y-109328985D02*
X172984397Y-109364700D01*
X172984397Y-109364700D02*
X172912969Y-109400414D01*
X172912969Y-109400414D02*
X172805826Y-109400414D01*
X173377254Y-109400414D02*
X173377254Y-108900414D01*
X173377254Y-109043271D02*
X173412968Y-108971842D01*
X173412968Y-108971842D02*
X173448683Y-108936128D01*
X173448683Y-108936128D02*
X173520111Y-108900414D01*
X173520111Y-108900414D02*
X173591540Y-108900414D01*
X157950000Y-83778670D02*
X157914285Y-83742956D01*
X157914285Y-83742956D02*
X157842857Y-83635813D01*
X157842857Y-83635813D02*
X157807143Y-83564384D01*
X157807143Y-83564384D02*
X157771428Y-83457242D01*
X157771428Y-83457242D02*
X157735714Y-83278670D01*
X157735714Y-83278670D02*
X157735714Y-83135813D01*
X157735714Y-83135813D02*
X157771428Y-82957242D01*
X157771428Y-82957242D02*
X157807143Y-82850099D01*
X157807143Y-82850099D02*
X157842857Y-82778670D01*
X157842857Y-82778670D02*
X157914285Y-82671527D01*
X157914285Y-82671527D02*
X157950000Y-82635813D01*
X158200000Y-83457242D02*
X158307143Y-83492956D01*
X158307143Y-83492956D02*
X158485714Y-83492956D01*
X158485714Y-83492956D02*
X158557143Y-83457242D01*
X158557143Y-83457242D02*
X158592857Y-83421527D01*
X158592857Y-83421527D02*
X158628571Y-83350099D01*
X158628571Y-83350099D02*
X158628571Y-83278670D01*
X158628571Y-83278670D02*
X158592857Y-83207242D01*
X158592857Y-83207242D02*
X158557143Y-83171527D01*
X158557143Y-83171527D02*
X158485714Y-83135813D01*
X158485714Y-83135813D02*
X158342857Y-83100099D01*
X158342857Y-83100099D02*
X158271428Y-83064384D01*
X158271428Y-83064384D02*
X158235714Y-83028670D01*
X158235714Y-83028670D02*
X158200000Y-82957242D01*
X158200000Y-82957242D02*
X158200000Y-82885813D01*
X158200000Y-82885813D02*
X158235714Y-82814384D01*
X158235714Y-82814384D02*
X158271428Y-82778670D01*
X158271428Y-82778670D02*
X158342857Y-82742956D01*
X158342857Y-82742956D02*
X158521428Y-82742956D01*
X158521428Y-82742956D02*
X158628571Y-82778670D01*
X158842857Y-82742956D02*
X159271429Y-82742956D01*
X159057143Y-83492956D02*
X159057143Y-82742956D01*
X159450000Y-83778670D02*
X159485715Y-83742956D01*
X159485715Y-83742956D02*
X159557143Y-83635813D01*
X159557143Y-83635813D02*
X159592858Y-83564384D01*
X159592858Y-83564384D02*
X159628572Y-83457242D01*
X159628572Y-83457242D02*
X159664286Y-83278670D01*
X159664286Y-83278670D02*
X159664286Y-83135813D01*
X159664286Y-83135813D02*
X159628572Y-82957242D01*
X159628572Y-82957242D02*
X159592858Y-82850099D01*
X159592858Y-82850099D02*
X159557143Y-82778670D01*
X159557143Y-82778670D02*
X159485715Y-82671527D01*
X159485715Y-82671527D02*
X159450000Y-82635813D01*
X157771428Y-83950414D02*
X158235714Y-83950414D01*
X158235714Y-83950414D02*
X157985714Y-84236128D01*
X157985714Y-84236128D02*
X158092857Y-84236128D01*
X158092857Y-84236128D02*
X158164286Y-84271842D01*
X158164286Y-84271842D02*
X158200000Y-84307557D01*
X158200000Y-84307557D02*
X158235714Y-84378985D01*
X158235714Y-84378985D02*
X158235714Y-84557557D01*
X158235714Y-84557557D02*
X158200000Y-84628985D01*
X158200000Y-84628985D02*
X158164286Y-84664700D01*
X158164286Y-84664700D02*
X158092857Y-84700414D01*
X158092857Y-84700414D02*
X157878571Y-84700414D01*
X157878571Y-84700414D02*
X157807143Y-84664700D01*
X157807143Y-84664700D02*
X157771428Y-84628985D01*
X158450000Y-83950414D02*
X158700000Y-84700414D01*
X158700000Y-84700414D02*
X158950000Y-83950414D01*
X159128571Y-83950414D02*
X159592857Y-83950414D01*
X159592857Y-83950414D02*
X159342857Y-84236128D01*
X159342857Y-84236128D02*
X159450000Y-84236128D01*
X159450000Y-84236128D02*
X159521429Y-84271842D01*
X159521429Y-84271842D02*
X159557143Y-84307557D01*
X159557143Y-84307557D02*
X159592857Y-84378985D01*
X159592857Y-84378985D02*
X159592857Y-84557557D01*
X159592857Y-84557557D02*
X159557143Y-84628985D01*
X159557143Y-84628985D02*
X159521429Y-84664700D01*
X159521429Y-84664700D02*
X159450000Y-84700414D01*
X159450000Y-84700414D02*
X159235714Y-84700414D01*
X159235714Y-84700414D02*
X159164286Y-84664700D01*
X159164286Y-84664700D02*
X159128571Y-84628985D01*
D12*
X170926816Y-126567219D02*
X171260149Y-127567219D01*
X171260149Y-127567219D02*
X171593482Y-126567219D01*
X172069673Y-127567219D02*
X171974435Y-127519600D01*
X171974435Y-127519600D02*
X171926816Y-127471980D01*
X171926816Y-127471980D02*
X171879197Y-127376742D01*
X171879197Y-127376742D02*
X171879197Y-127091028D01*
X171879197Y-127091028D02*
X171926816Y-126995790D01*
X171926816Y-126995790D02*
X171974435Y-126948171D01*
X171974435Y-126948171D02*
X172069673Y-126900552D01*
X172069673Y-126900552D02*
X172212530Y-126900552D01*
X172212530Y-126900552D02*
X172307768Y-126948171D01*
X172307768Y-126948171D02*
X172355387Y-126995790D01*
X172355387Y-126995790D02*
X172403006Y-127091028D01*
X172403006Y-127091028D02*
X172403006Y-127376742D01*
X172403006Y-127376742D02*
X172355387Y-127471980D01*
X172355387Y-127471980D02*
X172307768Y-127519600D01*
X172307768Y-127519600D02*
X172212530Y-127567219D01*
X172212530Y-127567219D02*
X172069673Y-127567219D01*
X172974435Y-127567219D02*
X172879197Y-127519600D01*
X172879197Y-127519600D02*
X172831578Y-127424361D01*
X172831578Y-127424361D02*
X172831578Y-126567219D01*
X173212531Y-126900552D02*
X173593483Y-126900552D01*
X173355388Y-126567219D02*
X173355388Y-127424361D01*
X173355388Y-127424361D02*
X173403007Y-127519600D01*
X173403007Y-127519600D02*
X173498245Y-127567219D01*
X173498245Y-127567219D02*
X173593483Y-127567219D01*
X174355388Y-127567219D02*
X174355388Y-127043409D01*
X174355388Y-127043409D02*
X174307769Y-126948171D01*
X174307769Y-126948171D02*
X174212531Y-126900552D01*
X174212531Y-126900552D02*
X174022055Y-126900552D01*
X174022055Y-126900552D02*
X173926817Y-126948171D01*
X174355388Y-127519600D02*
X174260150Y-127567219D01*
X174260150Y-127567219D02*
X174022055Y-127567219D01*
X174022055Y-127567219D02*
X173926817Y-127519600D01*
X173926817Y-127519600D02*
X173879198Y-127424361D01*
X173879198Y-127424361D02*
X173879198Y-127329123D01*
X173879198Y-127329123D02*
X173926817Y-127233885D01*
X173926817Y-127233885D02*
X174022055Y-127186266D01*
X174022055Y-127186266D02*
X174260150Y-127186266D01*
X174260150Y-127186266D02*
X174355388Y-127138647D01*
X175260150Y-126900552D02*
X175260150Y-127710076D01*
X175260150Y-127710076D02*
X175212531Y-127805314D01*
X175212531Y-127805314D02*
X175164912Y-127852933D01*
X175164912Y-127852933D02*
X175069674Y-127900552D01*
X175069674Y-127900552D02*
X174926817Y-127900552D01*
X174926817Y-127900552D02*
X174831579Y-127852933D01*
X175260150Y-127519600D02*
X175164912Y-127567219D01*
X175164912Y-127567219D02*
X174974436Y-127567219D01*
X174974436Y-127567219D02*
X174879198Y-127519600D01*
X174879198Y-127519600D02*
X174831579Y-127471980D01*
X174831579Y-127471980D02*
X174783960Y-127376742D01*
X174783960Y-127376742D02*
X174783960Y-127091028D01*
X174783960Y-127091028D02*
X174831579Y-126995790D01*
X174831579Y-126995790D02*
X174879198Y-126948171D01*
X174879198Y-126948171D02*
X174974436Y-126900552D01*
X174974436Y-126900552D02*
X175164912Y-126900552D01*
X175164912Y-126900552D02*
X175260150Y-126948171D01*
X176117293Y-127519600D02*
X176022055Y-127567219D01*
X176022055Y-127567219D02*
X175831579Y-127567219D01*
X175831579Y-127567219D02*
X175736341Y-127519600D01*
X175736341Y-127519600D02*
X175688722Y-127424361D01*
X175688722Y-127424361D02*
X175688722Y-127043409D01*
X175688722Y-127043409D02*
X175736341Y-126948171D01*
X175736341Y-126948171D02*
X175831579Y-126900552D01*
X175831579Y-126900552D02*
X176022055Y-126900552D01*
X176022055Y-126900552D02*
X176117293Y-126948171D01*
X176117293Y-126948171D02*
X176164912Y-127043409D01*
X176164912Y-127043409D02*
X176164912Y-127138647D01*
X176164912Y-127138647D02*
X175688722Y-127233885D01*
D11*
X115077255Y-102892956D02*
X115077255Y-102142956D01*
X115434398Y-102392956D02*
X115434398Y-102892956D01*
X115434398Y-102464384D02*
X115470112Y-102428670D01*
X115470112Y-102428670D02*
X115541541Y-102392956D01*
X115541541Y-102392956D02*
X115648684Y-102392956D01*
X115648684Y-102392956D02*
X115720112Y-102428670D01*
X115720112Y-102428670D02*
X115755827Y-102500099D01*
X115755827Y-102500099D02*
X115755827Y-102892956D01*
X116112969Y-102392956D02*
X116112969Y-103142956D01*
X116112969Y-102428670D02*
X116184398Y-102392956D01*
X116184398Y-102392956D02*
X116327255Y-102392956D01*
X116327255Y-102392956D02*
X116398683Y-102428670D01*
X116398683Y-102428670D02*
X116434398Y-102464384D01*
X116434398Y-102464384D02*
X116470112Y-102535813D01*
X116470112Y-102535813D02*
X116470112Y-102750099D01*
X116470112Y-102750099D02*
X116434398Y-102821527D01*
X116434398Y-102821527D02*
X116398683Y-102857242D01*
X116398683Y-102857242D02*
X116327255Y-102892956D01*
X116327255Y-102892956D02*
X116184398Y-102892956D01*
X116184398Y-102892956D02*
X116112969Y-102857242D01*
X117112969Y-102392956D02*
X117112969Y-102892956D01*
X116791540Y-102392956D02*
X116791540Y-102785813D01*
X116791540Y-102785813D02*
X116827254Y-102857242D01*
X116827254Y-102857242D02*
X116898683Y-102892956D01*
X116898683Y-102892956D02*
X117005826Y-102892956D01*
X117005826Y-102892956D02*
X117077254Y-102857242D01*
X117077254Y-102857242D02*
X117112969Y-102821527D01*
X117362968Y-102392956D02*
X117648682Y-102392956D01*
X117470111Y-102142956D02*
X117470111Y-102785813D01*
X117470111Y-102785813D02*
X117505825Y-102857242D01*
X117505825Y-102857242D02*
X117577254Y-102892956D01*
X117577254Y-102892956D02*
X117648682Y-102892956D01*
X118362968Y-102142956D02*
X118612968Y-102892956D01*
X118612968Y-102892956D02*
X118862968Y-102142956D01*
X119220111Y-102892956D02*
X119148682Y-102857242D01*
X119148682Y-102857242D02*
X119112968Y-102821527D01*
X119112968Y-102821527D02*
X119077254Y-102750099D01*
X119077254Y-102750099D02*
X119077254Y-102535813D01*
X119077254Y-102535813D02*
X119112968Y-102464384D01*
X119112968Y-102464384D02*
X119148682Y-102428670D01*
X119148682Y-102428670D02*
X119220111Y-102392956D01*
X119220111Y-102392956D02*
X119327254Y-102392956D01*
X119327254Y-102392956D02*
X119398682Y-102428670D01*
X119398682Y-102428670D02*
X119434397Y-102464384D01*
X119434397Y-102464384D02*
X119470111Y-102535813D01*
X119470111Y-102535813D02*
X119470111Y-102750099D01*
X119470111Y-102750099D02*
X119434397Y-102821527D01*
X119434397Y-102821527D02*
X119398682Y-102857242D01*
X119398682Y-102857242D02*
X119327254Y-102892956D01*
X119327254Y-102892956D02*
X119220111Y-102892956D01*
X119898682Y-102892956D02*
X119827253Y-102857242D01*
X119827253Y-102857242D02*
X119791539Y-102785813D01*
X119791539Y-102785813D02*
X119791539Y-102142956D01*
X120077253Y-102392956D02*
X120362967Y-102392956D01*
X120184396Y-102142956D02*
X120184396Y-102785813D01*
X120184396Y-102785813D02*
X120220110Y-102857242D01*
X120220110Y-102857242D02*
X120291539Y-102892956D01*
X120291539Y-102892956D02*
X120362967Y-102892956D01*
X120934396Y-102892956D02*
X120934396Y-102500099D01*
X120934396Y-102500099D02*
X120898681Y-102428670D01*
X120898681Y-102428670D02*
X120827253Y-102392956D01*
X120827253Y-102392956D02*
X120684396Y-102392956D01*
X120684396Y-102392956D02*
X120612967Y-102428670D01*
X120934396Y-102857242D02*
X120862967Y-102892956D01*
X120862967Y-102892956D02*
X120684396Y-102892956D01*
X120684396Y-102892956D02*
X120612967Y-102857242D01*
X120612967Y-102857242D02*
X120577253Y-102785813D01*
X120577253Y-102785813D02*
X120577253Y-102714384D01*
X120577253Y-102714384D02*
X120612967Y-102642956D01*
X120612967Y-102642956D02*
X120684396Y-102607242D01*
X120684396Y-102607242D02*
X120862967Y-102607242D01*
X120862967Y-102607242D02*
X120934396Y-102571527D01*
X121612967Y-102392956D02*
X121612967Y-103000099D01*
X121612967Y-103000099D02*
X121577252Y-103071527D01*
X121577252Y-103071527D02*
X121541538Y-103107242D01*
X121541538Y-103107242D02*
X121470109Y-103142956D01*
X121470109Y-103142956D02*
X121362967Y-103142956D01*
X121362967Y-103142956D02*
X121291538Y-103107242D01*
X121612967Y-102857242D02*
X121541538Y-102892956D01*
X121541538Y-102892956D02*
X121398681Y-102892956D01*
X121398681Y-102892956D02*
X121327252Y-102857242D01*
X121327252Y-102857242D02*
X121291538Y-102821527D01*
X121291538Y-102821527D02*
X121255824Y-102750099D01*
X121255824Y-102750099D02*
X121255824Y-102535813D01*
X121255824Y-102535813D02*
X121291538Y-102464384D01*
X121291538Y-102464384D02*
X121327252Y-102428670D01*
X121327252Y-102428670D02*
X121398681Y-102392956D01*
X121398681Y-102392956D02*
X121541538Y-102392956D01*
X121541538Y-102392956D02*
X121612967Y-102428670D01*
X122255823Y-102857242D02*
X122184395Y-102892956D01*
X122184395Y-102892956D02*
X122041538Y-102892956D01*
X122041538Y-102892956D02*
X121970109Y-102857242D01*
X121970109Y-102857242D02*
X121934395Y-102785813D01*
X121934395Y-102785813D02*
X121934395Y-102500099D01*
X121934395Y-102500099D02*
X121970109Y-102428670D01*
X121970109Y-102428670D02*
X122041538Y-102392956D01*
X122041538Y-102392956D02*
X122184395Y-102392956D01*
X122184395Y-102392956D02*
X122255823Y-102428670D01*
X122255823Y-102428670D02*
X122291538Y-102500099D01*
X122291538Y-102500099D02*
X122291538Y-102571527D01*
X122291538Y-102571527D02*
X121934395Y-102642956D01*
X115041541Y-104064700D02*
X115148684Y-104100414D01*
X115148684Y-104100414D02*
X115327255Y-104100414D01*
X115327255Y-104100414D02*
X115398684Y-104064700D01*
X115398684Y-104064700D02*
X115434398Y-104028985D01*
X115434398Y-104028985D02*
X115470112Y-103957557D01*
X115470112Y-103957557D02*
X115470112Y-103886128D01*
X115470112Y-103886128D02*
X115434398Y-103814700D01*
X115434398Y-103814700D02*
X115398684Y-103778985D01*
X115398684Y-103778985D02*
X115327255Y-103743271D01*
X115327255Y-103743271D02*
X115184398Y-103707557D01*
X115184398Y-103707557D02*
X115112969Y-103671842D01*
X115112969Y-103671842D02*
X115077255Y-103636128D01*
X115077255Y-103636128D02*
X115041541Y-103564700D01*
X115041541Y-103564700D02*
X115041541Y-103493271D01*
X115041541Y-103493271D02*
X115077255Y-103421842D01*
X115077255Y-103421842D02*
X115112969Y-103386128D01*
X115112969Y-103386128D02*
X115184398Y-103350414D01*
X115184398Y-103350414D02*
X115362969Y-103350414D01*
X115362969Y-103350414D02*
X115470112Y-103386128D01*
X116077255Y-104064700D02*
X116005827Y-104100414D01*
X116005827Y-104100414D02*
X115862970Y-104100414D01*
X115862970Y-104100414D02*
X115791541Y-104064700D01*
X115791541Y-104064700D02*
X115755827Y-103993271D01*
X115755827Y-103993271D02*
X115755827Y-103707557D01*
X115755827Y-103707557D02*
X115791541Y-103636128D01*
X115791541Y-103636128D02*
X115862970Y-103600414D01*
X115862970Y-103600414D02*
X116005827Y-103600414D01*
X116005827Y-103600414D02*
X116077255Y-103636128D01*
X116077255Y-103636128D02*
X116112970Y-103707557D01*
X116112970Y-103707557D02*
X116112970Y-103778985D01*
X116112970Y-103778985D02*
X115755827Y-103850414D01*
X116434398Y-103600414D02*
X116434398Y-104100414D01*
X116434398Y-103671842D02*
X116470112Y-103636128D01*
X116470112Y-103636128D02*
X116541541Y-103600414D01*
X116541541Y-103600414D02*
X116648684Y-103600414D01*
X116648684Y-103600414D02*
X116720112Y-103636128D01*
X116720112Y-103636128D02*
X116755827Y-103707557D01*
X116755827Y-103707557D02*
X116755827Y-104100414D01*
X117077255Y-104064700D02*
X117148683Y-104100414D01*
X117148683Y-104100414D02*
X117291540Y-104100414D01*
X117291540Y-104100414D02*
X117362969Y-104064700D01*
X117362969Y-104064700D02*
X117398683Y-103993271D01*
X117398683Y-103993271D02*
X117398683Y-103957557D01*
X117398683Y-103957557D02*
X117362969Y-103886128D01*
X117362969Y-103886128D02*
X117291540Y-103850414D01*
X117291540Y-103850414D02*
X117184398Y-103850414D01*
X117184398Y-103850414D02*
X117112969Y-103814700D01*
X117112969Y-103814700D02*
X117077255Y-103743271D01*
X117077255Y-103743271D02*
X117077255Y-103707557D01*
X117077255Y-103707557D02*
X117112969Y-103636128D01*
X117112969Y-103636128D02*
X117184398Y-103600414D01*
X117184398Y-103600414D02*
X117291540Y-103600414D01*
X117291540Y-103600414D02*
X117362969Y-103636128D01*
X117827255Y-104100414D02*
X117755826Y-104064700D01*
X117755826Y-104064700D02*
X117720112Y-104028985D01*
X117720112Y-104028985D02*
X117684398Y-103957557D01*
X117684398Y-103957557D02*
X117684398Y-103743271D01*
X117684398Y-103743271D02*
X117720112Y-103671842D01*
X117720112Y-103671842D02*
X117755826Y-103636128D01*
X117755826Y-103636128D02*
X117827255Y-103600414D01*
X117827255Y-103600414D02*
X117934398Y-103600414D01*
X117934398Y-103600414D02*
X118005826Y-103636128D01*
X118005826Y-103636128D02*
X118041541Y-103671842D01*
X118041541Y-103671842D02*
X118077255Y-103743271D01*
X118077255Y-103743271D02*
X118077255Y-103957557D01*
X118077255Y-103957557D02*
X118041541Y-104028985D01*
X118041541Y-104028985D02*
X118005826Y-104064700D01*
X118005826Y-104064700D02*
X117934398Y-104100414D01*
X117934398Y-104100414D02*
X117827255Y-104100414D01*
X118398683Y-104100414D02*
X118398683Y-103600414D01*
X118398683Y-103743271D02*
X118434397Y-103671842D01*
X118434397Y-103671842D02*
X118470112Y-103636128D01*
X118470112Y-103636128D02*
X118541540Y-103600414D01*
X118541540Y-103600414D02*
X118612969Y-103600414D01*
X160241541Y-92164700D02*
X160348684Y-92200414D01*
X160348684Y-92200414D02*
X160527255Y-92200414D01*
X160527255Y-92200414D02*
X160598684Y-92164700D01*
X160598684Y-92164700D02*
X160634398Y-92128985D01*
X160634398Y-92128985D02*
X160670112Y-92057557D01*
X160670112Y-92057557D02*
X160670112Y-91986128D01*
X160670112Y-91986128D02*
X160634398Y-91914700D01*
X160634398Y-91914700D02*
X160598684Y-91878985D01*
X160598684Y-91878985D02*
X160527255Y-91843271D01*
X160527255Y-91843271D02*
X160384398Y-91807557D01*
X160384398Y-91807557D02*
X160312969Y-91771842D01*
X160312969Y-91771842D02*
X160277255Y-91736128D01*
X160277255Y-91736128D02*
X160241541Y-91664700D01*
X160241541Y-91664700D02*
X160241541Y-91593271D01*
X160241541Y-91593271D02*
X160277255Y-91521842D01*
X160277255Y-91521842D02*
X160312969Y-91486128D01*
X160312969Y-91486128D02*
X160384398Y-91450414D01*
X160384398Y-91450414D02*
X160562969Y-91450414D01*
X160562969Y-91450414D02*
X160670112Y-91486128D01*
X160920112Y-91450414D02*
X161098684Y-92200414D01*
X161098684Y-92200414D02*
X161241541Y-91664700D01*
X161241541Y-91664700D02*
X161384398Y-92200414D01*
X161384398Y-92200414D02*
X161562970Y-91450414D01*
X161848684Y-92200414D02*
X161848684Y-91450414D01*
X161848684Y-91450414D02*
X162027255Y-91450414D01*
X162027255Y-91450414D02*
X162134398Y-91486128D01*
X162134398Y-91486128D02*
X162205827Y-91557557D01*
X162205827Y-91557557D02*
X162241541Y-91628985D01*
X162241541Y-91628985D02*
X162277255Y-91771842D01*
X162277255Y-91771842D02*
X162277255Y-91878985D01*
X162277255Y-91878985D02*
X162241541Y-92021842D01*
X162241541Y-92021842D02*
X162205827Y-92093271D01*
X162205827Y-92093271D02*
X162134398Y-92164700D01*
X162134398Y-92164700D02*
X162027255Y-92200414D01*
X162027255Y-92200414D02*
X161848684Y-92200414D01*
X162598684Y-92200414D02*
X162598684Y-91450414D01*
X163098684Y-91450414D02*
X163241541Y-91450414D01*
X163241541Y-91450414D02*
X163312970Y-91486128D01*
X163312970Y-91486128D02*
X163384398Y-91557557D01*
X163384398Y-91557557D02*
X163420113Y-91700414D01*
X163420113Y-91700414D02*
X163420113Y-91950414D01*
X163420113Y-91950414D02*
X163384398Y-92093271D01*
X163384398Y-92093271D02*
X163312970Y-92164700D01*
X163312970Y-92164700D02*
X163241541Y-92200414D01*
X163241541Y-92200414D02*
X163098684Y-92200414D01*
X163098684Y-92200414D02*
X163027256Y-92164700D01*
X163027256Y-92164700D02*
X162955827Y-92093271D01*
X162955827Y-92093271D02*
X162920113Y-91950414D01*
X162920113Y-91950414D02*
X162920113Y-91700414D01*
X162920113Y-91700414D02*
X162955827Y-91557557D01*
X162955827Y-91557557D02*
X163027256Y-91486128D01*
X163027256Y-91486128D02*
X163098684Y-91450414D01*
X124853572Y-96378670D02*
X124817857Y-96342956D01*
X124817857Y-96342956D02*
X124746429Y-96235813D01*
X124746429Y-96235813D02*
X124710715Y-96164384D01*
X124710715Y-96164384D02*
X124675000Y-96057242D01*
X124675000Y-96057242D02*
X124639286Y-95878670D01*
X124639286Y-95878670D02*
X124639286Y-95735813D01*
X124639286Y-95735813D02*
X124675000Y-95557242D01*
X124675000Y-95557242D02*
X124710715Y-95450099D01*
X124710715Y-95450099D02*
X124746429Y-95378670D01*
X124746429Y-95378670D02*
X124817857Y-95271527D01*
X124817857Y-95271527D02*
X124853572Y-95235813D01*
X125389286Y-95700099D02*
X125496429Y-95735813D01*
X125496429Y-95735813D02*
X125532143Y-95771527D01*
X125532143Y-95771527D02*
X125567857Y-95842956D01*
X125567857Y-95842956D02*
X125567857Y-95950099D01*
X125567857Y-95950099D02*
X125532143Y-96021527D01*
X125532143Y-96021527D02*
X125496429Y-96057242D01*
X125496429Y-96057242D02*
X125425000Y-96092956D01*
X125425000Y-96092956D02*
X125139286Y-96092956D01*
X125139286Y-96092956D02*
X125139286Y-95342956D01*
X125139286Y-95342956D02*
X125389286Y-95342956D01*
X125389286Y-95342956D02*
X125460715Y-95378670D01*
X125460715Y-95378670D02*
X125496429Y-95414384D01*
X125496429Y-95414384D02*
X125532143Y-95485813D01*
X125532143Y-95485813D02*
X125532143Y-95557242D01*
X125532143Y-95557242D02*
X125496429Y-95628670D01*
X125496429Y-95628670D02*
X125460715Y-95664384D01*
X125460715Y-95664384D02*
X125389286Y-95700099D01*
X125389286Y-95700099D02*
X125139286Y-95700099D01*
X126210715Y-95592956D02*
X126210715Y-96092956D01*
X125889286Y-95592956D02*
X125889286Y-95985813D01*
X125889286Y-95985813D02*
X125925000Y-96057242D01*
X125925000Y-96057242D02*
X125996429Y-96092956D01*
X125996429Y-96092956D02*
X126103572Y-96092956D01*
X126103572Y-96092956D02*
X126175000Y-96057242D01*
X126175000Y-96057242D02*
X126210715Y-96021527D01*
X126889286Y-96057242D02*
X126817857Y-96092956D01*
X126817857Y-96092956D02*
X126675000Y-96092956D01*
X126675000Y-96092956D02*
X126603571Y-96057242D01*
X126603571Y-96057242D02*
X126567857Y-96021527D01*
X126567857Y-96021527D02*
X126532143Y-95950099D01*
X126532143Y-95950099D02*
X126532143Y-95735813D01*
X126532143Y-95735813D02*
X126567857Y-95664384D01*
X126567857Y-95664384D02*
X126603571Y-95628670D01*
X126603571Y-95628670D02*
X126675000Y-95592956D01*
X126675000Y-95592956D02*
X126817857Y-95592956D01*
X126817857Y-95592956D02*
X126889286Y-95628670D01*
X127210714Y-96092956D02*
X127210714Y-95342956D01*
X127282143Y-95807242D02*
X127496428Y-96092956D01*
X127496428Y-95592956D02*
X127210714Y-95878670D01*
X127746428Y-96378670D02*
X127782143Y-96342956D01*
X127782143Y-96342956D02*
X127853571Y-96235813D01*
X127853571Y-96235813D02*
X127889286Y-96164384D01*
X127889286Y-96164384D02*
X127925000Y-96057242D01*
X127925000Y-96057242D02*
X127960714Y-95878670D01*
X127960714Y-95878670D02*
X127960714Y-95735813D01*
X127960714Y-95735813D02*
X127925000Y-95557242D01*
X127925000Y-95557242D02*
X127889286Y-95450099D01*
X127889286Y-95450099D02*
X127853571Y-95378670D01*
X127853571Y-95378670D02*
X127782143Y-95271527D01*
X127782143Y-95271527D02*
X127746428Y-95235813D01*
X125371428Y-96550414D02*
X125835714Y-96550414D01*
X125835714Y-96550414D02*
X125585714Y-96836128D01*
X125585714Y-96836128D02*
X125692857Y-96836128D01*
X125692857Y-96836128D02*
X125764286Y-96871842D01*
X125764286Y-96871842D02*
X125800000Y-96907557D01*
X125800000Y-96907557D02*
X125835714Y-96978985D01*
X125835714Y-96978985D02*
X125835714Y-97157557D01*
X125835714Y-97157557D02*
X125800000Y-97228985D01*
X125800000Y-97228985D02*
X125764286Y-97264700D01*
X125764286Y-97264700D02*
X125692857Y-97300414D01*
X125692857Y-97300414D02*
X125478571Y-97300414D01*
X125478571Y-97300414D02*
X125407143Y-97264700D01*
X125407143Y-97264700D02*
X125371428Y-97228985D01*
X126050000Y-96550414D02*
X126300000Y-97300414D01*
X126300000Y-97300414D02*
X126550000Y-96550414D01*
X126728571Y-96550414D02*
X127192857Y-96550414D01*
X127192857Y-96550414D02*
X126942857Y-96836128D01*
X126942857Y-96836128D02*
X127050000Y-96836128D01*
X127050000Y-96836128D02*
X127121429Y-96871842D01*
X127121429Y-96871842D02*
X127157143Y-96907557D01*
X127157143Y-96907557D02*
X127192857Y-96978985D01*
X127192857Y-96978985D02*
X127192857Y-97157557D01*
X127192857Y-97157557D02*
X127157143Y-97228985D01*
X127157143Y-97228985D02*
X127121429Y-97264700D01*
X127121429Y-97264700D02*
X127050000Y-97300414D01*
X127050000Y-97300414D02*
X126835714Y-97300414D01*
X126835714Y-97300414D02*
X126764286Y-97264700D01*
X126764286Y-97264700D02*
X126728571Y-97228985D01*
X193170112Y-95550414D02*
X193420112Y-96300414D01*
X193420112Y-96300414D02*
X193670112Y-95550414D01*
X194027255Y-96300414D02*
X193955826Y-96264700D01*
X193955826Y-96264700D02*
X193920112Y-96228985D01*
X193920112Y-96228985D02*
X193884398Y-96157557D01*
X193884398Y-96157557D02*
X193884398Y-95943271D01*
X193884398Y-95943271D02*
X193920112Y-95871842D01*
X193920112Y-95871842D02*
X193955826Y-95836128D01*
X193955826Y-95836128D02*
X194027255Y-95800414D01*
X194027255Y-95800414D02*
X194134398Y-95800414D01*
X194134398Y-95800414D02*
X194205826Y-95836128D01*
X194205826Y-95836128D02*
X194241541Y-95871842D01*
X194241541Y-95871842D02*
X194277255Y-95943271D01*
X194277255Y-95943271D02*
X194277255Y-96157557D01*
X194277255Y-96157557D02*
X194241541Y-96228985D01*
X194241541Y-96228985D02*
X194205826Y-96264700D01*
X194205826Y-96264700D02*
X194134398Y-96300414D01*
X194134398Y-96300414D02*
X194027255Y-96300414D01*
X194920112Y-95800414D02*
X194920112Y-96300414D01*
X194598683Y-95800414D02*
X194598683Y-96193271D01*
X194598683Y-96193271D02*
X194634397Y-96264700D01*
X194634397Y-96264700D02*
X194705826Y-96300414D01*
X194705826Y-96300414D02*
X194812969Y-96300414D01*
X194812969Y-96300414D02*
X194884397Y-96264700D01*
X194884397Y-96264700D02*
X194920112Y-96228985D01*
X195170111Y-95800414D02*
X195455825Y-95800414D01*
X195277254Y-95550414D02*
X195277254Y-96193271D01*
X195277254Y-96193271D02*
X195312968Y-96264700D01*
X195312968Y-96264700D02*
X195384397Y-96300414D01*
X195384397Y-96300414D02*
X195455825Y-96300414D01*
X100770112Y-118050414D02*
X101020112Y-118800414D01*
X101020112Y-118800414D02*
X101270112Y-118050414D01*
X101520112Y-118800414D02*
X101520112Y-118300414D01*
X101520112Y-118050414D02*
X101484398Y-118086128D01*
X101484398Y-118086128D02*
X101520112Y-118121842D01*
X101520112Y-118121842D02*
X101555826Y-118086128D01*
X101555826Y-118086128D02*
X101520112Y-118050414D01*
X101520112Y-118050414D02*
X101520112Y-118121842D01*
X101877255Y-118300414D02*
X101877255Y-118800414D01*
X101877255Y-118371842D02*
X101912969Y-118336128D01*
X101912969Y-118336128D02*
X101984398Y-118300414D01*
X101984398Y-118300414D02*
X102091541Y-118300414D01*
X102091541Y-118300414D02*
X102162969Y-118336128D01*
X102162969Y-118336128D02*
X102198684Y-118407557D01*
X102198684Y-118407557D02*
X102198684Y-118800414D01*
D12*
X191526816Y-123467219D02*
X191860149Y-124467219D01*
X191860149Y-124467219D02*
X192193482Y-123467219D01*
X192669673Y-124467219D02*
X192574435Y-124419600D01*
X192574435Y-124419600D02*
X192526816Y-124371980D01*
X192526816Y-124371980D02*
X192479197Y-124276742D01*
X192479197Y-124276742D02*
X192479197Y-123991028D01*
X192479197Y-123991028D02*
X192526816Y-123895790D01*
X192526816Y-123895790D02*
X192574435Y-123848171D01*
X192574435Y-123848171D02*
X192669673Y-123800552D01*
X192669673Y-123800552D02*
X192812530Y-123800552D01*
X192812530Y-123800552D02*
X192907768Y-123848171D01*
X192907768Y-123848171D02*
X192955387Y-123895790D01*
X192955387Y-123895790D02*
X193003006Y-123991028D01*
X193003006Y-123991028D02*
X193003006Y-124276742D01*
X193003006Y-124276742D02*
X192955387Y-124371980D01*
X192955387Y-124371980D02*
X192907768Y-124419600D01*
X192907768Y-124419600D02*
X192812530Y-124467219D01*
X192812530Y-124467219D02*
X192669673Y-124467219D01*
X193574435Y-124467219D02*
X193479197Y-124419600D01*
X193479197Y-124419600D02*
X193431578Y-124324361D01*
X193431578Y-124324361D02*
X193431578Y-123467219D01*
X193812531Y-123800552D02*
X194193483Y-123800552D01*
X193955388Y-123467219D02*
X193955388Y-124324361D01*
X193955388Y-124324361D02*
X194003007Y-124419600D01*
X194003007Y-124419600D02*
X194098245Y-124467219D01*
X194098245Y-124467219D02*
X194193483Y-124467219D01*
X194955388Y-124467219D02*
X194955388Y-123943409D01*
X194955388Y-123943409D02*
X194907769Y-123848171D01*
X194907769Y-123848171D02*
X194812531Y-123800552D01*
X194812531Y-123800552D02*
X194622055Y-123800552D01*
X194622055Y-123800552D02*
X194526817Y-123848171D01*
X194955388Y-124419600D02*
X194860150Y-124467219D01*
X194860150Y-124467219D02*
X194622055Y-124467219D01*
X194622055Y-124467219D02*
X194526817Y-124419600D01*
X194526817Y-124419600D02*
X194479198Y-124324361D01*
X194479198Y-124324361D02*
X194479198Y-124229123D01*
X194479198Y-124229123D02*
X194526817Y-124133885D01*
X194526817Y-124133885D02*
X194622055Y-124086266D01*
X194622055Y-124086266D02*
X194860150Y-124086266D01*
X194860150Y-124086266D02*
X194955388Y-124038647D01*
X195860150Y-123800552D02*
X195860150Y-124610076D01*
X195860150Y-124610076D02*
X195812531Y-124705314D01*
X195812531Y-124705314D02*
X195764912Y-124752933D01*
X195764912Y-124752933D02*
X195669674Y-124800552D01*
X195669674Y-124800552D02*
X195526817Y-124800552D01*
X195526817Y-124800552D02*
X195431579Y-124752933D01*
X195860150Y-124419600D02*
X195764912Y-124467219D01*
X195764912Y-124467219D02*
X195574436Y-124467219D01*
X195574436Y-124467219D02*
X195479198Y-124419600D01*
X195479198Y-124419600D02*
X195431579Y-124371980D01*
X195431579Y-124371980D02*
X195383960Y-124276742D01*
X195383960Y-124276742D02*
X195383960Y-123991028D01*
X195383960Y-123991028D02*
X195431579Y-123895790D01*
X195431579Y-123895790D02*
X195479198Y-123848171D01*
X195479198Y-123848171D02*
X195574436Y-123800552D01*
X195574436Y-123800552D02*
X195764912Y-123800552D01*
X195764912Y-123800552D02*
X195860150Y-123848171D01*
X196717293Y-124419600D02*
X196622055Y-124467219D01*
X196622055Y-124467219D02*
X196431579Y-124467219D01*
X196431579Y-124467219D02*
X196336341Y-124419600D01*
X196336341Y-124419600D02*
X196288722Y-124324361D01*
X196288722Y-124324361D02*
X196288722Y-123943409D01*
X196288722Y-123943409D02*
X196336341Y-123848171D01*
X196336341Y-123848171D02*
X196431579Y-123800552D01*
X196431579Y-123800552D02*
X196622055Y-123800552D01*
X196622055Y-123800552D02*
X196717293Y-123848171D01*
X196717293Y-123848171D02*
X196764912Y-123943409D01*
X196764912Y-123943409D02*
X196764912Y-124038647D01*
X196764912Y-124038647D02*
X196288722Y-124133885D01*
D11*
X108720113Y-108892956D02*
X108720113Y-108142956D01*
X108720113Y-108142956D02*
X109005827Y-108142956D01*
X109005827Y-108142956D02*
X109077256Y-108178670D01*
X109077256Y-108178670D02*
X109112970Y-108214384D01*
X109112970Y-108214384D02*
X109148684Y-108285813D01*
X109148684Y-108285813D02*
X109148684Y-108392956D01*
X109148684Y-108392956D02*
X109112970Y-108464384D01*
X109112970Y-108464384D02*
X109077256Y-108500099D01*
X109077256Y-108500099D02*
X109005827Y-108535813D01*
X109005827Y-108535813D02*
X108720113Y-108535813D01*
X109398684Y-108392956D02*
X109541542Y-108892956D01*
X109541542Y-108892956D02*
X109684399Y-108535813D01*
X109684399Y-108535813D02*
X109827256Y-108892956D01*
X109827256Y-108892956D02*
X109970113Y-108392956D01*
X110255827Y-108892956D02*
X110255827Y-108392956D01*
X110255827Y-108535813D02*
X110291541Y-108464384D01*
X110291541Y-108464384D02*
X110327256Y-108428670D01*
X110327256Y-108428670D02*
X110398684Y-108392956D01*
X110398684Y-108392956D02*
X110470113Y-108392956D01*
X107577255Y-110100414D02*
X107577255Y-109350414D01*
X107577255Y-109350414D02*
X107827255Y-109886128D01*
X107827255Y-109886128D02*
X108077255Y-109350414D01*
X108077255Y-109350414D02*
X108077255Y-110100414D01*
X108755827Y-109600414D02*
X108755827Y-110100414D01*
X108434398Y-109600414D02*
X108434398Y-109993271D01*
X108434398Y-109993271D02*
X108470112Y-110064700D01*
X108470112Y-110064700D02*
X108541541Y-110100414D01*
X108541541Y-110100414D02*
X108648684Y-110100414D01*
X108648684Y-110100414D02*
X108720112Y-110064700D01*
X108720112Y-110064700D02*
X108755827Y-110028985D01*
X109041540Y-110100414D02*
X109434398Y-109600414D01*
X109041540Y-109600414D02*
X109434398Y-110100414D01*
X109720112Y-110028985D02*
X109755826Y-110064700D01*
X109755826Y-110064700D02*
X109720112Y-110100414D01*
X109720112Y-110100414D02*
X109684398Y-110064700D01*
X109684398Y-110064700D02*
X109720112Y-110028985D01*
X109720112Y-110028985D02*
X109720112Y-110100414D01*
X109720112Y-109636128D02*
X109755826Y-109671842D01*
X109755826Y-109671842D02*
X109720112Y-109707557D01*
X109720112Y-109707557D02*
X109684398Y-109671842D01*
X109684398Y-109671842D02*
X109720112Y-109636128D01*
X109720112Y-109636128D02*
X109720112Y-109707557D01*
X110541541Y-109350414D02*
X110791541Y-110100414D01*
X110791541Y-110100414D02*
X111041541Y-109350414D01*
X111291541Y-110100414D02*
X111291541Y-109600414D01*
X111291541Y-109350414D02*
X111255827Y-109386128D01*
X111255827Y-109386128D02*
X111291541Y-109421842D01*
X111291541Y-109421842D02*
X111327255Y-109386128D01*
X111327255Y-109386128D02*
X111291541Y-109350414D01*
X111291541Y-109350414D02*
X111291541Y-109421842D01*
X111648684Y-109600414D02*
X111648684Y-110100414D01*
X111648684Y-109671842D02*
X111684398Y-109636128D01*
X111684398Y-109636128D02*
X111755827Y-109600414D01*
X111755827Y-109600414D02*
X111862970Y-109600414D01*
X111862970Y-109600414D02*
X111934398Y-109636128D01*
X111934398Y-109636128D02*
X111970113Y-109707557D01*
X111970113Y-109707557D02*
X111970113Y-110100414D01*
X160277255Y-94700414D02*
X160277255Y-93950414D01*
X160277255Y-93950414D02*
X160705826Y-94700414D01*
X160705826Y-94700414D02*
X160705826Y-93950414D01*
X161491540Y-94700414D02*
X161241540Y-94343271D01*
X161062969Y-94700414D02*
X161062969Y-93950414D01*
X161062969Y-93950414D02*
X161348683Y-93950414D01*
X161348683Y-93950414D02*
X161420112Y-93986128D01*
X161420112Y-93986128D02*
X161455826Y-94021842D01*
X161455826Y-94021842D02*
X161491540Y-94093271D01*
X161491540Y-94093271D02*
X161491540Y-94200414D01*
X161491540Y-94200414D02*
X161455826Y-94271842D01*
X161455826Y-94271842D02*
X161420112Y-94307557D01*
X161420112Y-94307557D02*
X161348683Y-94343271D01*
X161348683Y-94343271D02*
X161062969Y-94343271D01*
X161777255Y-94664700D02*
X161884398Y-94700414D01*
X161884398Y-94700414D02*
X162062969Y-94700414D01*
X162062969Y-94700414D02*
X162134398Y-94664700D01*
X162134398Y-94664700D02*
X162170112Y-94628985D01*
X162170112Y-94628985D02*
X162205826Y-94557557D01*
X162205826Y-94557557D02*
X162205826Y-94486128D01*
X162205826Y-94486128D02*
X162170112Y-94414700D01*
X162170112Y-94414700D02*
X162134398Y-94378985D01*
X162134398Y-94378985D02*
X162062969Y-94343271D01*
X162062969Y-94343271D02*
X161920112Y-94307557D01*
X161920112Y-94307557D02*
X161848683Y-94271842D01*
X161848683Y-94271842D02*
X161812969Y-94236128D01*
X161812969Y-94236128D02*
X161777255Y-94164700D01*
X161777255Y-94164700D02*
X161777255Y-94093271D01*
X161777255Y-94093271D02*
X161812969Y-94021842D01*
X161812969Y-94021842D02*
X161848683Y-93986128D01*
X161848683Y-93986128D02*
X161920112Y-93950414D01*
X161920112Y-93950414D02*
X162098683Y-93950414D01*
X162098683Y-93950414D02*
X162205826Y-93986128D01*
X162420112Y-93950414D02*
X162848684Y-93950414D01*
X162634398Y-94700414D02*
X162634398Y-93950414D01*
X115528572Y-107392956D02*
X115528572Y-106642956D01*
X115885715Y-106892956D02*
X115885715Y-107392956D01*
X115885715Y-106964384D02*
X115921429Y-106928670D01*
X115921429Y-106928670D02*
X115992858Y-106892956D01*
X115992858Y-106892956D02*
X116100001Y-106892956D01*
X116100001Y-106892956D02*
X116171429Y-106928670D01*
X116171429Y-106928670D02*
X116207144Y-107000099D01*
X116207144Y-107000099D02*
X116207144Y-107392956D01*
X116564286Y-106892956D02*
X116564286Y-107642956D01*
X116564286Y-106928670D02*
X116635715Y-106892956D01*
X116635715Y-106892956D02*
X116778572Y-106892956D01*
X116778572Y-106892956D02*
X116850000Y-106928670D01*
X116850000Y-106928670D02*
X116885715Y-106964384D01*
X116885715Y-106964384D02*
X116921429Y-107035813D01*
X116921429Y-107035813D02*
X116921429Y-107250099D01*
X116921429Y-107250099D02*
X116885715Y-107321527D01*
X116885715Y-107321527D02*
X116850000Y-107357242D01*
X116850000Y-107357242D02*
X116778572Y-107392956D01*
X116778572Y-107392956D02*
X116635715Y-107392956D01*
X116635715Y-107392956D02*
X116564286Y-107357242D01*
X117564286Y-106892956D02*
X117564286Y-107392956D01*
X117242857Y-106892956D02*
X117242857Y-107285813D01*
X117242857Y-107285813D02*
X117278571Y-107357242D01*
X117278571Y-107357242D02*
X117350000Y-107392956D01*
X117350000Y-107392956D02*
X117457143Y-107392956D01*
X117457143Y-107392956D02*
X117528571Y-107357242D01*
X117528571Y-107357242D02*
X117564286Y-107321527D01*
X117814285Y-106892956D02*
X118099999Y-106892956D01*
X117921428Y-106642956D02*
X117921428Y-107285813D01*
X117921428Y-107285813D02*
X117957142Y-107357242D01*
X117957142Y-107357242D02*
X118028571Y-107392956D01*
X118028571Y-107392956D02*
X118099999Y-107392956D01*
X119349999Y-107321527D02*
X119314285Y-107357242D01*
X119314285Y-107357242D02*
X119207142Y-107392956D01*
X119207142Y-107392956D02*
X119135714Y-107392956D01*
X119135714Y-107392956D02*
X119028571Y-107357242D01*
X119028571Y-107357242D02*
X118957142Y-107285813D01*
X118957142Y-107285813D02*
X118921428Y-107214384D01*
X118921428Y-107214384D02*
X118885714Y-107071527D01*
X118885714Y-107071527D02*
X118885714Y-106964384D01*
X118885714Y-106964384D02*
X118921428Y-106821527D01*
X118921428Y-106821527D02*
X118957142Y-106750099D01*
X118957142Y-106750099D02*
X119028571Y-106678670D01*
X119028571Y-106678670D02*
X119135714Y-106642956D01*
X119135714Y-106642956D02*
X119207142Y-106642956D01*
X119207142Y-106642956D02*
X119314285Y-106678670D01*
X119314285Y-106678670D02*
X119349999Y-106714384D01*
X119992857Y-106892956D02*
X119992857Y-107392956D01*
X119671428Y-106892956D02*
X119671428Y-107285813D01*
X119671428Y-107285813D02*
X119707142Y-107357242D01*
X119707142Y-107357242D02*
X119778571Y-107392956D01*
X119778571Y-107392956D02*
X119885714Y-107392956D01*
X119885714Y-107392956D02*
X119957142Y-107357242D01*
X119957142Y-107357242D02*
X119992857Y-107321527D01*
X120349999Y-107392956D02*
X120349999Y-106892956D01*
X120349999Y-107035813D02*
X120385713Y-106964384D01*
X120385713Y-106964384D02*
X120421428Y-106928670D01*
X120421428Y-106928670D02*
X120492856Y-106892956D01*
X120492856Y-106892956D02*
X120564285Y-106892956D01*
X120814285Y-107392956D02*
X120814285Y-106892956D01*
X120814285Y-107035813D02*
X120849999Y-106964384D01*
X120849999Y-106964384D02*
X120885714Y-106928670D01*
X120885714Y-106928670D02*
X120957142Y-106892956D01*
X120957142Y-106892956D02*
X121028571Y-106892956D01*
X121564285Y-107357242D02*
X121492857Y-107392956D01*
X121492857Y-107392956D02*
X121350000Y-107392956D01*
X121350000Y-107392956D02*
X121278571Y-107357242D01*
X121278571Y-107357242D02*
X121242857Y-107285813D01*
X121242857Y-107285813D02*
X121242857Y-107000099D01*
X121242857Y-107000099D02*
X121278571Y-106928670D01*
X121278571Y-106928670D02*
X121350000Y-106892956D01*
X121350000Y-106892956D02*
X121492857Y-106892956D01*
X121492857Y-106892956D02*
X121564285Y-106928670D01*
X121564285Y-106928670D02*
X121600000Y-107000099D01*
X121600000Y-107000099D02*
X121600000Y-107071527D01*
X121600000Y-107071527D02*
X121242857Y-107142956D01*
X121921428Y-106892956D02*
X121921428Y-107392956D01*
X121921428Y-106964384D02*
X121957142Y-106928670D01*
X121957142Y-106928670D02*
X122028571Y-106892956D01*
X122028571Y-106892956D02*
X122135714Y-106892956D01*
X122135714Y-106892956D02*
X122207142Y-106928670D01*
X122207142Y-106928670D02*
X122242857Y-107000099D01*
X122242857Y-107000099D02*
X122242857Y-107392956D01*
X122492856Y-106892956D02*
X122778570Y-106892956D01*
X122599999Y-106642956D02*
X122599999Y-107285813D01*
X122599999Y-107285813D02*
X122635713Y-107357242D01*
X122635713Y-107357242D02*
X122707142Y-107392956D01*
X122707142Y-107392956D02*
X122778570Y-107392956D01*
X117350000Y-108564700D02*
X117457143Y-108600414D01*
X117457143Y-108600414D02*
X117635714Y-108600414D01*
X117635714Y-108600414D02*
X117707143Y-108564700D01*
X117707143Y-108564700D02*
X117742857Y-108528985D01*
X117742857Y-108528985D02*
X117778571Y-108457557D01*
X117778571Y-108457557D02*
X117778571Y-108386128D01*
X117778571Y-108386128D02*
X117742857Y-108314700D01*
X117742857Y-108314700D02*
X117707143Y-108278985D01*
X117707143Y-108278985D02*
X117635714Y-108243271D01*
X117635714Y-108243271D02*
X117492857Y-108207557D01*
X117492857Y-108207557D02*
X117421428Y-108171842D01*
X117421428Y-108171842D02*
X117385714Y-108136128D01*
X117385714Y-108136128D02*
X117350000Y-108064700D01*
X117350000Y-108064700D02*
X117350000Y-107993271D01*
X117350000Y-107993271D02*
X117385714Y-107921842D01*
X117385714Y-107921842D02*
X117421428Y-107886128D01*
X117421428Y-107886128D02*
X117492857Y-107850414D01*
X117492857Y-107850414D02*
X117671428Y-107850414D01*
X117671428Y-107850414D02*
X117778571Y-107886128D01*
X118385714Y-108564700D02*
X118314286Y-108600414D01*
X118314286Y-108600414D02*
X118171429Y-108600414D01*
X118171429Y-108600414D02*
X118100000Y-108564700D01*
X118100000Y-108564700D02*
X118064286Y-108493271D01*
X118064286Y-108493271D02*
X118064286Y-108207557D01*
X118064286Y-108207557D02*
X118100000Y-108136128D01*
X118100000Y-108136128D02*
X118171429Y-108100414D01*
X118171429Y-108100414D02*
X118314286Y-108100414D01*
X118314286Y-108100414D02*
X118385714Y-108136128D01*
X118385714Y-108136128D02*
X118421429Y-108207557D01*
X118421429Y-108207557D02*
X118421429Y-108278985D01*
X118421429Y-108278985D02*
X118064286Y-108350414D01*
X118742857Y-108100414D02*
X118742857Y-108600414D01*
X118742857Y-108171842D02*
X118778571Y-108136128D01*
X118778571Y-108136128D02*
X118850000Y-108100414D01*
X118850000Y-108100414D02*
X118957143Y-108100414D01*
X118957143Y-108100414D02*
X119028571Y-108136128D01*
X119028571Y-108136128D02*
X119064286Y-108207557D01*
X119064286Y-108207557D02*
X119064286Y-108600414D01*
X119385714Y-108564700D02*
X119457142Y-108600414D01*
X119457142Y-108600414D02*
X119599999Y-108600414D01*
X119599999Y-108600414D02*
X119671428Y-108564700D01*
X119671428Y-108564700D02*
X119707142Y-108493271D01*
X119707142Y-108493271D02*
X119707142Y-108457557D01*
X119707142Y-108457557D02*
X119671428Y-108386128D01*
X119671428Y-108386128D02*
X119599999Y-108350414D01*
X119599999Y-108350414D02*
X119492857Y-108350414D01*
X119492857Y-108350414D02*
X119421428Y-108314700D01*
X119421428Y-108314700D02*
X119385714Y-108243271D01*
X119385714Y-108243271D02*
X119385714Y-108207557D01*
X119385714Y-108207557D02*
X119421428Y-108136128D01*
X119421428Y-108136128D02*
X119492857Y-108100414D01*
X119492857Y-108100414D02*
X119599999Y-108100414D01*
X119599999Y-108100414D02*
X119671428Y-108136128D01*
X120135714Y-108600414D02*
X120064285Y-108564700D01*
X120064285Y-108564700D02*
X120028571Y-108528985D01*
X120028571Y-108528985D02*
X119992857Y-108457557D01*
X119992857Y-108457557D02*
X119992857Y-108243271D01*
X119992857Y-108243271D02*
X120028571Y-108171842D01*
X120028571Y-108171842D02*
X120064285Y-108136128D01*
X120064285Y-108136128D02*
X120135714Y-108100414D01*
X120135714Y-108100414D02*
X120242857Y-108100414D01*
X120242857Y-108100414D02*
X120314285Y-108136128D01*
X120314285Y-108136128D02*
X120350000Y-108171842D01*
X120350000Y-108171842D02*
X120385714Y-108243271D01*
X120385714Y-108243271D02*
X120385714Y-108457557D01*
X120385714Y-108457557D02*
X120350000Y-108528985D01*
X120350000Y-108528985D02*
X120314285Y-108564700D01*
X120314285Y-108564700D02*
X120242857Y-108600414D01*
X120242857Y-108600414D02*
X120135714Y-108600414D01*
X120707142Y-108600414D02*
X120707142Y-108100414D01*
X120707142Y-108243271D02*
X120742856Y-108171842D01*
X120742856Y-108171842D02*
X120778571Y-108136128D01*
X120778571Y-108136128D02*
X120849999Y-108100414D01*
X120849999Y-108100414D02*
X120921428Y-108100414D01*
X169177255Y-96339164D02*
X169177255Y-95589164D01*
X169177255Y-95589164D02*
X169462969Y-95589164D01*
X169462969Y-95589164D02*
X169534398Y-95624878D01*
X169534398Y-95624878D02*
X169570112Y-95660592D01*
X169570112Y-95660592D02*
X169605826Y-95732021D01*
X169605826Y-95732021D02*
X169605826Y-95839164D01*
X169605826Y-95839164D02*
X169570112Y-95910592D01*
X169570112Y-95910592D02*
X169534398Y-95946307D01*
X169534398Y-95946307D02*
X169462969Y-95982021D01*
X169462969Y-95982021D02*
X169177255Y-95982021D01*
X169855826Y-95589164D02*
X170034398Y-96339164D01*
X170034398Y-96339164D02*
X170177255Y-95803450D01*
X170177255Y-95803450D02*
X170320112Y-96339164D01*
X170320112Y-96339164D02*
X170498684Y-95589164D01*
X171212969Y-96339164D02*
X170962969Y-95982021D01*
X170784398Y-96339164D02*
X170784398Y-95589164D01*
X170784398Y-95589164D02*
X171070112Y-95589164D01*
X171070112Y-95589164D02*
X171141541Y-95624878D01*
X171141541Y-95624878D02*
X171177255Y-95660592D01*
X171177255Y-95660592D02*
X171212969Y-95732021D01*
X171212969Y-95732021D02*
X171212969Y-95839164D01*
X171212969Y-95839164D02*
X171177255Y-95910592D01*
X171177255Y-95910592D02*
X171141541Y-95946307D01*
X171141541Y-95946307D02*
X171070112Y-95982021D01*
X171070112Y-95982021D02*
X170784398Y-95982021D01*
X172248684Y-95589164D02*
X172391541Y-95589164D01*
X172391541Y-95589164D02*
X172462970Y-95624878D01*
X172462970Y-95624878D02*
X172534398Y-95696307D01*
X172534398Y-95696307D02*
X172570113Y-95839164D01*
X172570113Y-95839164D02*
X172570113Y-96089164D01*
X172570113Y-96089164D02*
X172534398Y-96232021D01*
X172534398Y-96232021D02*
X172462970Y-96303450D01*
X172462970Y-96303450D02*
X172391541Y-96339164D01*
X172391541Y-96339164D02*
X172248684Y-96339164D01*
X172248684Y-96339164D02*
X172177256Y-96303450D01*
X172177256Y-96303450D02*
X172105827Y-96232021D01*
X172105827Y-96232021D02*
X172070113Y-96089164D01*
X172070113Y-96089164D02*
X172070113Y-95839164D01*
X172070113Y-95839164D02*
X172105827Y-95696307D01*
X172105827Y-95696307D02*
X172177256Y-95624878D01*
X172177256Y-95624878D02*
X172248684Y-95589164D01*
X172891541Y-95839164D02*
X172891541Y-96339164D01*
X172891541Y-95910592D02*
X172927255Y-95874878D01*
X172927255Y-95874878D02*
X172998684Y-95839164D01*
X172998684Y-95839164D02*
X173105827Y-95839164D01*
X173105827Y-95839164D02*
X173177255Y-95874878D01*
X173177255Y-95874878D02*
X173212970Y-95946307D01*
X173212970Y-95946307D02*
X173212970Y-96339164D01*
X116227255Y-119407557D02*
X116334398Y-119443271D01*
X116334398Y-119443271D02*
X116370112Y-119478985D01*
X116370112Y-119478985D02*
X116405826Y-119550414D01*
X116405826Y-119550414D02*
X116405826Y-119657557D01*
X116405826Y-119657557D02*
X116370112Y-119728985D01*
X116370112Y-119728985D02*
X116334398Y-119764700D01*
X116334398Y-119764700D02*
X116262969Y-119800414D01*
X116262969Y-119800414D02*
X115977255Y-119800414D01*
X115977255Y-119800414D02*
X115977255Y-119050414D01*
X115977255Y-119050414D02*
X116227255Y-119050414D01*
X116227255Y-119050414D02*
X116298684Y-119086128D01*
X116298684Y-119086128D02*
X116334398Y-119121842D01*
X116334398Y-119121842D02*
X116370112Y-119193271D01*
X116370112Y-119193271D02*
X116370112Y-119264700D01*
X116370112Y-119264700D02*
X116334398Y-119336128D01*
X116334398Y-119336128D02*
X116298684Y-119371842D01*
X116298684Y-119371842D02*
X116227255Y-119407557D01*
X116227255Y-119407557D02*
X115977255Y-119407557D01*
X117048684Y-119300414D02*
X117048684Y-119800414D01*
X116727255Y-119300414D02*
X116727255Y-119693271D01*
X116727255Y-119693271D02*
X116762969Y-119764700D01*
X116762969Y-119764700D02*
X116834398Y-119800414D01*
X116834398Y-119800414D02*
X116941541Y-119800414D01*
X116941541Y-119800414D02*
X117012969Y-119764700D01*
X117012969Y-119764700D02*
X117048684Y-119728985D01*
X117727255Y-119764700D02*
X117655826Y-119800414D01*
X117655826Y-119800414D02*
X117512969Y-119800414D01*
X117512969Y-119800414D02*
X117441540Y-119764700D01*
X117441540Y-119764700D02*
X117405826Y-119728985D01*
X117405826Y-119728985D02*
X117370112Y-119657557D01*
X117370112Y-119657557D02*
X117370112Y-119443271D01*
X117370112Y-119443271D02*
X117405826Y-119371842D01*
X117405826Y-119371842D02*
X117441540Y-119336128D01*
X117441540Y-119336128D02*
X117512969Y-119300414D01*
X117512969Y-119300414D02*
X117655826Y-119300414D01*
X117655826Y-119300414D02*
X117727255Y-119336128D01*
X118048683Y-119800414D02*
X118048683Y-119050414D01*
X118120112Y-119514700D02*
X118334397Y-119800414D01*
X118334397Y-119300414D02*
X118048683Y-119586128D01*
X118655826Y-119728985D02*
X118691540Y-119764700D01*
X118691540Y-119764700D02*
X118655826Y-119800414D01*
X118655826Y-119800414D02*
X118620112Y-119764700D01*
X118620112Y-119764700D02*
X118655826Y-119728985D01*
X118655826Y-119728985D02*
X118655826Y-119800414D01*
X118655826Y-119336128D02*
X118691540Y-119371842D01*
X118691540Y-119371842D02*
X118655826Y-119407557D01*
X118655826Y-119407557D02*
X118620112Y-119371842D01*
X118620112Y-119371842D02*
X118655826Y-119336128D01*
X118655826Y-119336128D02*
X118655826Y-119407557D01*
X119512969Y-119050414D02*
X119977255Y-119050414D01*
X119977255Y-119050414D02*
X119727255Y-119336128D01*
X119727255Y-119336128D02*
X119834398Y-119336128D01*
X119834398Y-119336128D02*
X119905827Y-119371842D01*
X119905827Y-119371842D02*
X119941541Y-119407557D01*
X119941541Y-119407557D02*
X119977255Y-119478985D01*
X119977255Y-119478985D02*
X119977255Y-119657557D01*
X119977255Y-119657557D02*
X119941541Y-119728985D01*
X119941541Y-119728985D02*
X119905827Y-119764700D01*
X119905827Y-119764700D02*
X119834398Y-119800414D01*
X119834398Y-119800414D02*
X119620112Y-119800414D01*
X119620112Y-119800414D02*
X119548684Y-119764700D01*
X119548684Y-119764700D02*
X119512969Y-119728985D01*
X120191541Y-119050414D02*
X120441541Y-119800414D01*
X120441541Y-119800414D02*
X120691541Y-119050414D01*
X121084398Y-119050414D02*
X121155827Y-119050414D01*
X121155827Y-119050414D02*
X121227255Y-119086128D01*
X121227255Y-119086128D02*
X121262970Y-119121842D01*
X121262970Y-119121842D02*
X121298684Y-119193271D01*
X121298684Y-119193271D02*
X121334398Y-119336128D01*
X121334398Y-119336128D02*
X121334398Y-119514700D01*
X121334398Y-119514700D02*
X121298684Y-119657557D01*
X121298684Y-119657557D02*
X121262970Y-119728985D01*
X121262970Y-119728985D02*
X121227255Y-119764700D01*
X121227255Y-119764700D02*
X121155827Y-119800414D01*
X121155827Y-119800414D02*
X121084398Y-119800414D01*
X121084398Y-119800414D02*
X121012970Y-119764700D01*
X121012970Y-119764700D02*
X120977255Y-119728985D01*
X120977255Y-119728985D02*
X120941541Y-119657557D01*
X120941541Y-119657557D02*
X120905827Y-119514700D01*
X120905827Y-119514700D02*
X120905827Y-119336128D01*
X120905827Y-119336128D02*
X120941541Y-119193271D01*
X120941541Y-119193271D02*
X120977255Y-119121842D01*
X120977255Y-119121842D02*
X121012970Y-119086128D01*
X121012970Y-119086128D02*
X121084398Y-119050414D01*
D13*
X102740225Y-73600828D02*
X103240225Y-75100828D01*
X103240225Y-75100828D02*
X103740225Y-73600828D01*
X104240224Y-74315114D02*
X104740224Y-74315114D01*
X104954510Y-75100828D02*
X104240224Y-75100828D01*
X104240224Y-75100828D02*
X104240224Y-73600828D01*
X104240224Y-73600828D02*
X104954510Y-73600828D01*
X106454510Y-75100828D02*
X105954510Y-74386542D01*
X105597367Y-75100828D02*
X105597367Y-73600828D01*
X105597367Y-73600828D02*
X106168796Y-73600828D01*
X106168796Y-73600828D02*
X106311653Y-73672257D01*
X106311653Y-73672257D02*
X106383082Y-73743685D01*
X106383082Y-73743685D02*
X106454510Y-73886542D01*
X106454510Y-73886542D02*
X106454510Y-74100828D01*
X106454510Y-74100828D02*
X106383082Y-74243685D01*
X106383082Y-74243685D02*
X106311653Y-74315114D01*
X106311653Y-74315114D02*
X106168796Y-74386542D01*
X106168796Y-74386542D02*
X105597367Y-74386542D01*
X107025939Y-75029400D02*
X107240225Y-75100828D01*
X107240225Y-75100828D02*
X107597367Y-75100828D01*
X107597367Y-75100828D02*
X107740225Y-75029400D01*
X107740225Y-75029400D02*
X107811653Y-74957971D01*
X107811653Y-74957971D02*
X107883082Y-74815114D01*
X107883082Y-74815114D02*
X107883082Y-74672257D01*
X107883082Y-74672257D02*
X107811653Y-74529400D01*
X107811653Y-74529400D02*
X107740225Y-74457971D01*
X107740225Y-74457971D02*
X107597367Y-74386542D01*
X107597367Y-74386542D02*
X107311653Y-74315114D01*
X107311653Y-74315114D02*
X107168796Y-74243685D01*
X107168796Y-74243685D02*
X107097367Y-74172257D01*
X107097367Y-74172257D02*
X107025939Y-74029400D01*
X107025939Y-74029400D02*
X107025939Y-73886542D01*
X107025939Y-73886542D02*
X107097367Y-73743685D01*
X107097367Y-73743685D02*
X107168796Y-73672257D01*
X107168796Y-73672257D02*
X107311653Y-73600828D01*
X107311653Y-73600828D02*
X107668796Y-73600828D01*
X107668796Y-73600828D02*
X107883082Y-73672257D01*
X108525938Y-75100828D02*
X108525938Y-73600828D01*
X109525939Y-73600828D02*
X109811653Y-73600828D01*
X109811653Y-73600828D02*
X109954510Y-73672257D01*
X109954510Y-73672257D02*
X110097367Y-73815114D01*
X110097367Y-73815114D02*
X110168796Y-74100828D01*
X110168796Y-74100828D02*
X110168796Y-74600828D01*
X110168796Y-74600828D02*
X110097367Y-74886542D01*
X110097367Y-74886542D02*
X109954510Y-75029400D01*
X109954510Y-75029400D02*
X109811653Y-75100828D01*
X109811653Y-75100828D02*
X109525939Y-75100828D01*
X109525939Y-75100828D02*
X109383082Y-75029400D01*
X109383082Y-75029400D02*
X109240224Y-74886542D01*
X109240224Y-74886542D02*
X109168796Y-74600828D01*
X109168796Y-74600828D02*
X109168796Y-74100828D01*
X109168796Y-74100828D02*
X109240224Y-73815114D01*
X109240224Y-73815114D02*
X109383082Y-73672257D01*
X109383082Y-73672257D02*
X109525939Y-73600828D01*
X110811653Y-75100828D02*
X110811653Y-73600828D01*
X110811653Y-73600828D02*
X111668796Y-75100828D01*
X111668796Y-75100828D02*
X111668796Y-73600828D01*
X112383082Y-74957971D02*
X112454511Y-75029400D01*
X112454511Y-75029400D02*
X112383082Y-75100828D01*
X112383082Y-75100828D02*
X112311654Y-75029400D01*
X112311654Y-75029400D02*
X112383082Y-74957971D01*
X112383082Y-74957971D02*
X112383082Y-75100828D01*
X112383082Y-74172257D02*
X112454511Y-74243685D01*
X112454511Y-74243685D02*
X112383082Y-74315114D01*
X112383082Y-74315114D02*
X112311654Y-74243685D01*
X112311654Y-74243685D02*
X112383082Y-74172257D01*
X112383082Y-74172257D02*
X112383082Y-74315114D01*
X115025940Y-75100828D02*
X114168797Y-75100828D01*
X114597368Y-75100828D02*
X114597368Y-73600828D01*
X114597368Y-73600828D02*
X114454511Y-73815114D01*
X114454511Y-73815114D02*
X114311654Y-73957971D01*
X114311654Y-73957971D02*
X114168797Y-74029400D01*
X115668796Y-74957971D02*
X115740225Y-75029400D01*
X115740225Y-75029400D02*
X115668796Y-75100828D01*
X115668796Y-75100828D02*
X115597368Y-75029400D01*
X115597368Y-75029400D02*
X115668796Y-74957971D01*
X115668796Y-74957971D02*
X115668796Y-75100828D01*
X116668797Y-73600828D02*
X116811654Y-73600828D01*
X116811654Y-73600828D02*
X116954511Y-73672257D01*
X116954511Y-73672257D02*
X117025940Y-73743685D01*
X117025940Y-73743685D02*
X117097368Y-73886542D01*
X117097368Y-73886542D02*
X117168797Y-74172257D01*
X117168797Y-74172257D02*
X117168797Y-74529400D01*
X117168797Y-74529400D02*
X117097368Y-74815114D01*
X117097368Y-74815114D02*
X117025940Y-74957971D01*
X117025940Y-74957971D02*
X116954511Y-75029400D01*
X116954511Y-75029400D02*
X116811654Y-75100828D01*
X116811654Y-75100828D02*
X116668797Y-75100828D01*
X116668797Y-75100828D02*
X116525940Y-75029400D01*
X116525940Y-75029400D02*
X116454511Y-74957971D01*
X116454511Y-74957971D02*
X116383082Y-74815114D01*
X116383082Y-74815114D02*
X116311654Y-74529400D01*
X116311654Y-74529400D02*
X116311654Y-74172257D01*
X116311654Y-74172257D02*
X116383082Y-73886542D01*
X116383082Y-73886542D02*
X116454511Y-73743685D01*
X116454511Y-73743685D02*
X116525940Y-73672257D01*
X116525940Y-73672257D02*
X116668797Y-73600828D01*
D11*
X181920112Y-87335498D02*
X182062969Y-87335498D01*
X182062969Y-87335498D02*
X182134398Y-87371212D01*
X182134398Y-87371212D02*
X182205826Y-87442641D01*
X182205826Y-87442641D02*
X182241541Y-87585498D01*
X182241541Y-87585498D02*
X182241541Y-87835498D01*
X182241541Y-87835498D02*
X182205826Y-87978355D01*
X182205826Y-87978355D02*
X182134398Y-88049784D01*
X182134398Y-88049784D02*
X182062969Y-88085498D01*
X182062969Y-88085498D02*
X181920112Y-88085498D01*
X181920112Y-88085498D02*
X181848684Y-88049784D01*
X181848684Y-88049784D02*
X181777255Y-87978355D01*
X181777255Y-87978355D02*
X181741541Y-87835498D01*
X181741541Y-87835498D02*
X181741541Y-87585498D01*
X181741541Y-87585498D02*
X181777255Y-87442641D01*
X181777255Y-87442641D02*
X181848684Y-87371212D01*
X181848684Y-87371212D02*
X181920112Y-87335498D01*
X182884398Y-87585498D02*
X182884398Y-88085498D01*
X182562969Y-87585498D02*
X182562969Y-87978355D01*
X182562969Y-87978355D02*
X182598683Y-88049784D01*
X182598683Y-88049784D02*
X182670112Y-88085498D01*
X182670112Y-88085498D02*
X182777255Y-88085498D01*
X182777255Y-88085498D02*
X182848683Y-88049784D01*
X182848683Y-88049784D02*
X182884398Y-88014069D01*
X183134397Y-87585498D02*
X183420111Y-87585498D01*
X183241540Y-87335498D02*
X183241540Y-87978355D01*
X183241540Y-87978355D02*
X183277254Y-88049784D01*
X183277254Y-88049784D02*
X183348683Y-88085498D01*
X183348683Y-88085498D02*
X183420111Y-88085498D01*
X183670111Y-87585498D02*
X183670111Y-88335498D01*
X183670111Y-87621212D02*
X183741540Y-87585498D01*
X183741540Y-87585498D02*
X183884397Y-87585498D01*
X183884397Y-87585498D02*
X183955825Y-87621212D01*
X183955825Y-87621212D02*
X183991540Y-87656926D01*
X183991540Y-87656926D02*
X184027254Y-87728355D01*
X184027254Y-87728355D02*
X184027254Y-87942641D01*
X184027254Y-87942641D02*
X183991540Y-88014069D01*
X183991540Y-88014069D02*
X183955825Y-88049784D01*
X183955825Y-88049784D02*
X183884397Y-88085498D01*
X183884397Y-88085498D02*
X183741540Y-88085498D01*
X183741540Y-88085498D02*
X183670111Y-88049784D01*
X184670111Y-87585498D02*
X184670111Y-88085498D01*
X184348682Y-87585498D02*
X184348682Y-87978355D01*
X184348682Y-87978355D02*
X184384396Y-88049784D01*
X184384396Y-88049784D02*
X184455825Y-88085498D01*
X184455825Y-88085498D02*
X184562968Y-88085498D01*
X184562968Y-88085498D02*
X184634396Y-88049784D01*
X184634396Y-88049784D02*
X184670111Y-88014069D01*
X184920110Y-87585498D02*
X185205824Y-87585498D01*
X185027253Y-87335498D02*
X185027253Y-87978355D01*
X185027253Y-87978355D02*
X185062967Y-88049784D01*
X185062967Y-88049784D02*
X185134396Y-88085498D01*
X185134396Y-88085498D02*
X185205824Y-88085498D01*
X181670112Y-88542956D02*
X181920112Y-89292956D01*
X181920112Y-89292956D02*
X182170112Y-88542956D01*
X182527255Y-89292956D02*
X182455826Y-89257242D01*
X182455826Y-89257242D02*
X182420112Y-89221527D01*
X182420112Y-89221527D02*
X182384398Y-89150099D01*
X182384398Y-89150099D02*
X182384398Y-88935813D01*
X182384398Y-88935813D02*
X182420112Y-88864384D01*
X182420112Y-88864384D02*
X182455826Y-88828670D01*
X182455826Y-88828670D02*
X182527255Y-88792956D01*
X182527255Y-88792956D02*
X182634398Y-88792956D01*
X182634398Y-88792956D02*
X182705826Y-88828670D01*
X182705826Y-88828670D02*
X182741541Y-88864384D01*
X182741541Y-88864384D02*
X182777255Y-88935813D01*
X182777255Y-88935813D02*
X182777255Y-89150099D01*
X182777255Y-89150099D02*
X182741541Y-89221527D01*
X182741541Y-89221527D02*
X182705826Y-89257242D01*
X182705826Y-89257242D02*
X182634398Y-89292956D01*
X182634398Y-89292956D02*
X182527255Y-89292956D01*
X183205826Y-89292956D02*
X183134397Y-89257242D01*
X183134397Y-89257242D02*
X183098683Y-89185813D01*
X183098683Y-89185813D02*
X183098683Y-88542956D01*
X183384397Y-88792956D02*
X183670111Y-88792956D01*
X183491540Y-88542956D02*
X183491540Y-89185813D01*
X183491540Y-89185813D02*
X183527254Y-89257242D01*
X183527254Y-89257242D02*
X183598683Y-89292956D01*
X183598683Y-89292956D02*
X183670111Y-89292956D01*
X184241540Y-89292956D02*
X184241540Y-88900099D01*
X184241540Y-88900099D02*
X184205825Y-88828670D01*
X184205825Y-88828670D02*
X184134397Y-88792956D01*
X184134397Y-88792956D02*
X183991540Y-88792956D01*
X183991540Y-88792956D02*
X183920111Y-88828670D01*
X184241540Y-89257242D02*
X184170111Y-89292956D01*
X184170111Y-89292956D02*
X183991540Y-89292956D01*
X183991540Y-89292956D02*
X183920111Y-89257242D01*
X183920111Y-89257242D02*
X183884397Y-89185813D01*
X183884397Y-89185813D02*
X183884397Y-89114384D01*
X183884397Y-89114384D02*
X183920111Y-89042956D01*
X183920111Y-89042956D02*
X183991540Y-89007242D01*
X183991540Y-89007242D02*
X184170111Y-89007242D01*
X184170111Y-89007242D02*
X184241540Y-88971527D01*
X184920111Y-88792956D02*
X184920111Y-89400099D01*
X184920111Y-89400099D02*
X184884396Y-89471527D01*
X184884396Y-89471527D02*
X184848682Y-89507242D01*
X184848682Y-89507242D02*
X184777253Y-89542956D01*
X184777253Y-89542956D02*
X184670111Y-89542956D01*
X184670111Y-89542956D02*
X184598682Y-89507242D01*
X184920111Y-89257242D02*
X184848682Y-89292956D01*
X184848682Y-89292956D02*
X184705825Y-89292956D01*
X184705825Y-89292956D02*
X184634396Y-89257242D01*
X184634396Y-89257242D02*
X184598682Y-89221527D01*
X184598682Y-89221527D02*
X184562968Y-89150099D01*
X184562968Y-89150099D02*
X184562968Y-88935813D01*
X184562968Y-88935813D02*
X184598682Y-88864384D01*
X184598682Y-88864384D02*
X184634396Y-88828670D01*
X184634396Y-88828670D02*
X184705825Y-88792956D01*
X184705825Y-88792956D02*
X184848682Y-88792956D01*
X184848682Y-88792956D02*
X184920111Y-88828670D01*
X185562967Y-89257242D02*
X185491539Y-89292956D01*
X185491539Y-89292956D02*
X185348682Y-89292956D01*
X185348682Y-89292956D02*
X185277253Y-89257242D01*
X185277253Y-89257242D02*
X185241539Y-89185813D01*
X185241539Y-89185813D02*
X185241539Y-88900099D01*
X185241539Y-88900099D02*
X185277253Y-88828670D01*
X185277253Y-88828670D02*
X185348682Y-88792956D01*
X185348682Y-88792956D02*
X185491539Y-88792956D01*
X185491539Y-88792956D02*
X185562967Y-88828670D01*
X185562967Y-88828670D02*
X185598682Y-88900099D01*
X185598682Y-88900099D02*
X185598682Y-88971527D01*
X185598682Y-88971527D02*
X185241539Y-89042956D01*
X181741541Y-90464700D02*
X181848684Y-90500414D01*
X181848684Y-90500414D02*
X182027255Y-90500414D01*
X182027255Y-90500414D02*
X182098684Y-90464700D01*
X182098684Y-90464700D02*
X182134398Y-90428985D01*
X182134398Y-90428985D02*
X182170112Y-90357557D01*
X182170112Y-90357557D02*
X182170112Y-90286128D01*
X182170112Y-90286128D02*
X182134398Y-90214700D01*
X182134398Y-90214700D02*
X182098684Y-90178985D01*
X182098684Y-90178985D02*
X182027255Y-90143271D01*
X182027255Y-90143271D02*
X181884398Y-90107557D01*
X181884398Y-90107557D02*
X181812969Y-90071842D01*
X181812969Y-90071842D02*
X181777255Y-90036128D01*
X181777255Y-90036128D02*
X181741541Y-89964700D01*
X181741541Y-89964700D02*
X181741541Y-89893271D01*
X181741541Y-89893271D02*
X181777255Y-89821842D01*
X181777255Y-89821842D02*
X181812969Y-89786128D01*
X181812969Y-89786128D02*
X181884398Y-89750414D01*
X181884398Y-89750414D02*
X182062969Y-89750414D01*
X182062969Y-89750414D02*
X182170112Y-89786128D01*
X182777255Y-90464700D02*
X182705827Y-90500414D01*
X182705827Y-90500414D02*
X182562970Y-90500414D01*
X182562970Y-90500414D02*
X182491541Y-90464700D01*
X182491541Y-90464700D02*
X182455827Y-90393271D01*
X182455827Y-90393271D02*
X182455827Y-90107557D01*
X182455827Y-90107557D02*
X182491541Y-90036128D01*
X182491541Y-90036128D02*
X182562970Y-90000414D01*
X182562970Y-90000414D02*
X182705827Y-90000414D01*
X182705827Y-90000414D02*
X182777255Y-90036128D01*
X182777255Y-90036128D02*
X182812970Y-90107557D01*
X182812970Y-90107557D02*
X182812970Y-90178985D01*
X182812970Y-90178985D02*
X182455827Y-90250414D01*
X183134398Y-90000414D02*
X183134398Y-90500414D01*
X183134398Y-90071842D02*
X183170112Y-90036128D01*
X183170112Y-90036128D02*
X183241541Y-90000414D01*
X183241541Y-90000414D02*
X183348684Y-90000414D01*
X183348684Y-90000414D02*
X183420112Y-90036128D01*
X183420112Y-90036128D02*
X183455827Y-90107557D01*
X183455827Y-90107557D02*
X183455827Y-90500414D01*
X183777255Y-90464700D02*
X183848683Y-90500414D01*
X183848683Y-90500414D02*
X183991540Y-90500414D01*
X183991540Y-90500414D02*
X184062969Y-90464700D01*
X184062969Y-90464700D02*
X184098683Y-90393271D01*
X184098683Y-90393271D02*
X184098683Y-90357557D01*
X184098683Y-90357557D02*
X184062969Y-90286128D01*
X184062969Y-90286128D02*
X183991540Y-90250414D01*
X183991540Y-90250414D02*
X183884398Y-90250414D01*
X183884398Y-90250414D02*
X183812969Y-90214700D01*
X183812969Y-90214700D02*
X183777255Y-90143271D01*
X183777255Y-90143271D02*
X183777255Y-90107557D01*
X183777255Y-90107557D02*
X183812969Y-90036128D01*
X183812969Y-90036128D02*
X183884398Y-90000414D01*
X183884398Y-90000414D02*
X183991540Y-90000414D01*
X183991540Y-90000414D02*
X184062969Y-90036128D01*
X184527255Y-90500414D02*
X184455826Y-90464700D01*
X184455826Y-90464700D02*
X184420112Y-90428985D01*
X184420112Y-90428985D02*
X184384398Y-90357557D01*
X184384398Y-90357557D02*
X184384398Y-90143271D01*
X184384398Y-90143271D02*
X184420112Y-90071842D01*
X184420112Y-90071842D02*
X184455826Y-90036128D01*
X184455826Y-90036128D02*
X184527255Y-90000414D01*
X184527255Y-90000414D02*
X184634398Y-90000414D01*
X184634398Y-90000414D02*
X184705826Y-90036128D01*
X184705826Y-90036128D02*
X184741541Y-90071842D01*
X184741541Y-90071842D02*
X184777255Y-90143271D01*
X184777255Y-90143271D02*
X184777255Y-90357557D01*
X184777255Y-90357557D02*
X184741541Y-90428985D01*
X184741541Y-90428985D02*
X184705826Y-90464700D01*
X184705826Y-90464700D02*
X184634398Y-90500414D01*
X184634398Y-90500414D02*
X184527255Y-90500414D01*
X185098683Y-90500414D02*
X185098683Y-90000414D01*
X185098683Y-90143271D02*
X185134397Y-90071842D01*
X185134397Y-90071842D02*
X185170112Y-90036128D01*
X185170112Y-90036128D02*
X185241540Y-90000414D01*
X185241540Y-90000414D02*
X185312969Y-90000414D01*
X193370112Y-82986128D02*
X193298684Y-82950414D01*
X193298684Y-82950414D02*
X193191541Y-82950414D01*
X193191541Y-82950414D02*
X193084398Y-82986128D01*
X193084398Y-82986128D02*
X193012969Y-83057557D01*
X193012969Y-83057557D02*
X192977255Y-83128985D01*
X192977255Y-83128985D02*
X192941541Y-83271842D01*
X192941541Y-83271842D02*
X192941541Y-83378985D01*
X192941541Y-83378985D02*
X192977255Y-83521842D01*
X192977255Y-83521842D02*
X193012969Y-83593271D01*
X193012969Y-83593271D02*
X193084398Y-83664700D01*
X193084398Y-83664700D02*
X193191541Y-83700414D01*
X193191541Y-83700414D02*
X193262969Y-83700414D01*
X193262969Y-83700414D02*
X193370112Y-83664700D01*
X193370112Y-83664700D02*
X193405826Y-83628985D01*
X193405826Y-83628985D02*
X193405826Y-83378985D01*
X193405826Y-83378985D02*
X193262969Y-83378985D01*
X193727255Y-83700414D02*
X193727255Y-82950414D01*
X193727255Y-82950414D02*
X194155826Y-83700414D01*
X194155826Y-83700414D02*
X194155826Y-82950414D01*
X194512969Y-83700414D02*
X194512969Y-82950414D01*
X194512969Y-82950414D02*
X194691540Y-82950414D01*
X194691540Y-82950414D02*
X194798683Y-82986128D01*
X194798683Y-82986128D02*
X194870112Y-83057557D01*
X194870112Y-83057557D02*
X194905826Y-83128985D01*
X194905826Y-83128985D02*
X194941540Y-83271842D01*
X194941540Y-83271842D02*
X194941540Y-83378985D01*
X194941540Y-83378985D02*
X194905826Y-83521842D01*
X194905826Y-83521842D02*
X194870112Y-83593271D01*
X194870112Y-83593271D02*
X194798683Y-83664700D01*
X194798683Y-83664700D02*
X194691540Y-83700414D01*
X194691540Y-83700414D02*
X194512969Y-83700414D01*
X189764755Y-98365099D02*
X189871898Y-98400813D01*
X189871898Y-98400813D02*
X189907612Y-98436527D01*
X189907612Y-98436527D02*
X189943326Y-98507956D01*
X189943326Y-98507956D02*
X189943326Y-98615099D01*
X189943326Y-98615099D02*
X189907612Y-98686527D01*
X189907612Y-98686527D02*
X189871898Y-98722242D01*
X189871898Y-98722242D02*
X189800469Y-98757956D01*
X189800469Y-98757956D02*
X189514755Y-98757956D01*
X189514755Y-98757956D02*
X189514755Y-98007956D01*
X189514755Y-98007956D02*
X189764755Y-98007956D01*
X189764755Y-98007956D02*
X189836184Y-98043670D01*
X189836184Y-98043670D02*
X189871898Y-98079384D01*
X189871898Y-98079384D02*
X189907612Y-98150813D01*
X189907612Y-98150813D02*
X189907612Y-98222242D01*
X189907612Y-98222242D02*
X189871898Y-98293670D01*
X189871898Y-98293670D02*
X189836184Y-98329384D01*
X189836184Y-98329384D02*
X189764755Y-98365099D01*
X189764755Y-98365099D02*
X189514755Y-98365099D01*
X190586184Y-98257956D02*
X190586184Y-98757956D01*
X190264755Y-98257956D02*
X190264755Y-98650813D01*
X190264755Y-98650813D02*
X190300469Y-98722242D01*
X190300469Y-98722242D02*
X190371898Y-98757956D01*
X190371898Y-98757956D02*
X190479041Y-98757956D01*
X190479041Y-98757956D02*
X190550469Y-98722242D01*
X190550469Y-98722242D02*
X190586184Y-98686527D01*
X191264755Y-98722242D02*
X191193326Y-98757956D01*
X191193326Y-98757956D02*
X191050469Y-98757956D01*
X191050469Y-98757956D02*
X190979040Y-98722242D01*
X190979040Y-98722242D02*
X190943326Y-98686527D01*
X190943326Y-98686527D02*
X190907612Y-98615099D01*
X190907612Y-98615099D02*
X190907612Y-98400813D01*
X190907612Y-98400813D02*
X190943326Y-98329384D01*
X190943326Y-98329384D02*
X190979040Y-98293670D01*
X190979040Y-98293670D02*
X191050469Y-98257956D01*
X191050469Y-98257956D02*
X191193326Y-98257956D01*
X191193326Y-98257956D02*
X191264755Y-98293670D01*
X191586183Y-98757956D02*
X191586183Y-98007956D01*
X191657612Y-98472242D02*
X191871897Y-98757956D01*
X191871897Y-98257956D02*
X191586183Y-98543670D01*
X192193326Y-98472242D02*
X192764755Y-98472242D01*
X193371897Y-98365099D02*
X193479040Y-98400813D01*
X193479040Y-98400813D02*
X193514754Y-98436527D01*
X193514754Y-98436527D02*
X193550468Y-98507956D01*
X193550468Y-98507956D02*
X193550468Y-98615099D01*
X193550468Y-98615099D02*
X193514754Y-98686527D01*
X193514754Y-98686527D02*
X193479040Y-98722242D01*
X193479040Y-98722242D02*
X193407611Y-98757956D01*
X193407611Y-98757956D02*
X193121897Y-98757956D01*
X193121897Y-98757956D02*
X193121897Y-98007956D01*
X193121897Y-98007956D02*
X193371897Y-98007956D01*
X193371897Y-98007956D02*
X193443326Y-98043670D01*
X193443326Y-98043670D02*
X193479040Y-98079384D01*
X193479040Y-98079384D02*
X193514754Y-98150813D01*
X193514754Y-98150813D02*
X193514754Y-98222242D01*
X193514754Y-98222242D02*
X193479040Y-98293670D01*
X193479040Y-98293670D02*
X193443326Y-98329384D01*
X193443326Y-98329384D02*
X193371897Y-98365099D01*
X193371897Y-98365099D02*
X193121897Y-98365099D01*
X193979040Y-98757956D02*
X193907611Y-98722242D01*
X193907611Y-98722242D02*
X193871897Y-98686527D01*
X193871897Y-98686527D02*
X193836183Y-98615099D01*
X193836183Y-98615099D02*
X193836183Y-98400813D01*
X193836183Y-98400813D02*
X193871897Y-98329384D01*
X193871897Y-98329384D02*
X193907611Y-98293670D01*
X193907611Y-98293670D02*
X193979040Y-98257956D01*
X193979040Y-98257956D02*
X194086183Y-98257956D01*
X194086183Y-98257956D02*
X194157611Y-98293670D01*
X194157611Y-98293670D02*
X194193326Y-98329384D01*
X194193326Y-98329384D02*
X194229040Y-98400813D01*
X194229040Y-98400813D02*
X194229040Y-98615099D01*
X194229040Y-98615099D02*
X194193326Y-98686527D01*
X194193326Y-98686527D02*
X194157611Y-98722242D01*
X194157611Y-98722242D02*
X194086183Y-98757956D01*
X194086183Y-98757956D02*
X193979040Y-98757956D01*
X194657611Y-98757956D02*
X194586182Y-98722242D01*
X194586182Y-98722242D02*
X194550468Y-98686527D01*
X194550468Y-98686527D02*
X194514754Y-98615099D01*
X194514754Y-98615099D02*
X194514754Y-98400813D01*
X194514754Y-98400813D02*
X194550468Y-98329384D01*
X194550468Y-98329384D02*
X194586182Y-98293670D01*
X194586182Y-98293670D02*
X194657611Y-98257956D01*
X194657611Y-98257956D02*
X194764754Y-98257956D01*
X194764754Y-98257956D02*
X194836182Y-98293670D01*
X194836182Y-98293670D02*
X194871897Y-98329384D01*
X194871897Y-98329384D02*
X194907611Y-98400813D01*
X194907611Y-98400813D02*
X194907611Y-98615099D01*
X194907611Y-98615099D02*
X194871897Y-98686527D01*
X194871897Y-98686527D02*
X194836182Y-98722242D01*
X194836182Y-98722242D02*
X194764754Y-98757956D01*
X194764754Y-98757956D02*
X194657611Y-98757956D01*
X195193325Y-98722242D02*
X195264753Y-98757956D01*
X195264753Y-98757956D02*
X195407610Y-98757956D01*
X195407610Y-98757956D02*
X195479039Y-98722242D01*
X195479039Y-98722242D02*
X195514753Y-98650813D01*
X195514753Y-98650813D02*
X195514753Y-98615099D01*
X195514753Y-98615099D02*
X195479039Y-98543670D01*
X195479039Y-98543670D02*
X195407610Y-98507956D01*
X195407610Y-98507956D02*
X195300468Y-98507956D01*
X195300468Y-98507956D02*
X195229039Y-98472242D01*
X195229039Y-98472242D02*
X195193325Y-98400813D01*
X195193325Y-98400813D02*
X195193325Y-98365099D01*
X195193325Y-98365099D02*
X195229039Y-98293670D01*
X195229039Y-98293670D02*
X195300468Y-98257956D01*
X195300468Y-98257956D02*
X195407610Y-98257956D01*
X195407610Y-98257956D02*
X195479039Y-98293670D01*
X195729039Y-98257956D02*
X196014753Y-98257956D01*
X195836182Y-98007956D02*
X195836182Y-98650813D01*
X195836182Y-98650813D02*
X195871896Y-98722242D01*
X195871896Y-98722242D02*
X195943325Y-98757956D01*
X195943325Y-98757956D02*
X196014753Y-98757956D01*
X189943326Y-99893985D02*
X189907612Y-99929700D01*
X189907612Y-99929700D02*
X189800469Y-99965414D01*
X189800469Y-99965414D02*
X189729041Y-99965414D01*
X189729041Y-99965414D02*
X189621898Y-99929700D01*
X189621898Y-99929700D02*
X189550469Y-99858271D01*
X189550469Y-99858271D02*
X189514755Y-99786842D01*
X189514755Y-99786842D02*
X189479041Y-99643985D01*
X189479041Y-99643985D02*
X189479041Y-99536842D01*
X189479041Y-99536842D02*
X189514755Y-99393985D01*
X189514755Y-99393985D02*
X189550469Y-99322557D01*
X189550469Y-99322557D02*
X189621898Y-99251128D01*
X189621898Y-99251128D02*
X189729041Y-99215414D01*
X189729041Y-99215414D02*
X189800469Y-99215414D01*
X189800469Y-99215414D02*
X189907612Y-99251128D01*
X189907612Y-99251128D02*
X189943326Y-99286842D01*
X190371898Y-99965414D02*
X190300469Y-99929700D01*
X190300469Y-99929700D02*
X190264755Y-99893985D01*
X190264755Y-99893985D02*
X190229041Y-99822557D01*
X190229041Y-99822557D02*
X190229041Y-99608271D01*
X190229041Y-99608271D02*
X190264755Y-99536842D01*
X190264755Y-99536842D02*
X190300469Y-99501128D01*
X190300469Y-99501128D02*
X190371898Y-99465414D01*
X190371898Y-99465414D02*
X190479041Y-99465414D01*
X190479041Y-99465414D02*
X190550469Y-99501128D01*
X190550469Y-99501128D02*
X190586184Y-99536842D01*
X190586184Y-99536842D02*
X190621898Y-99608271D01*
X190621898Y-99608271D02*
X190621898Y-99822557D01*
X190621898Y-99822557D02*
X190586184Y-99893985D01*
X190586184Y-99893985D02*
X190550469Y-99929700D01*
X190550469Y-99929700D02*
X190479041Y-99965414D01*
X190479041Y-99965414D02*
X190371898Y-99965414D01*
X190943326Y-99465414D02*
X190943326Y-99965414D01*
X190943326Y-99536842D02*
X190979040Y-99501128D01*
X190979040Y-99501128D02*
X191050469Y-99465414D01*
X191050469Y-99465414D02*
X191157612Y-99465414D01*
X191157612Y-99465414D02*
X191229040Y-99501128D01*
X191229040Y-99501128D02*
X191264755Y-99572557D01*
X191264755Y-99572557D02*
X191264755Y-99965414D01*
X191550468Y-99465414D02*
X191729040Y-99965414D01*
X191729040Y-99965414D02*
X191907611Y-99465414D01*
X192193326Y-99893985D02*
X192229040Y-99929700D01*
X192229040Y-99929700D02*
X192193326Y-99965414D01*
X192193326Y-99965414D02*
X192157612Y-99929700D01*
X192157612Y-99929700D02*
X192193326Y-99893985D01*
X192193326Y-99893985D02*
X192193326Y-99965414D01*
X127978571Y-79092956D02*
X127978571Y-78342956D01*
X127978571Y-78342956D02*
X128264285Y-78342956D01*
X128264285Y-78342956D02*
X128335714Y-78378670D01*
X128335714Y-78378670D02*
X128371428Y-78414384D01*
X128371428Y-78414384D02*
X128407142Y-78485813D01*
X128407142Y-78485813D02*
X128407142Y-78592956D01*
X128407142Y-78592956D02*
X128371428Y-78664384D01*
X128371428Y-78664384D02*
X128335714Y-78700099D01*
X128335714Y-78700099D02*
X128264285Y-78735813D01*
X128264285Y-78735813D02*
X127978571Y-78735813D01*
X128657142Y-78592956D02*
X128800000Y-79092956D01*
X128800000Y-79092956D02*
X128942857Y-78735813D01*
X128942857Y-78735813D02*
X129085714Y-79092956D01*
X129085714Y-79092956D02*
X129228571Y-78592956D01*
X129514285Y-79092956D02*
X129514285Y-78592956D01*
X129514285Y-78735813D02*
X129549999Y-78664384D01*
X129549999Y-78664384D02*
X129585714Y-78628670D01*
X129585714Y-78628670D02*
X129657142Y-78592956D01*
X129657142Y-78592956D02*
X129728571Y-78592956D01*
X126407142Y-80300414D02*
X126407142Y-79550414D01*
X126407142Y-79550414D02*
X126657142Y-80086128D01*
X126657142Y-80086128D02*
X126907142Y-79550414D01*
X126907142Y-79550414D02*
X126907142Y-80300414D01*
X127585714Y-79800414D02*
X127585714Y-80300414D01*
X127264285Y-79800414D02*
X127264285Y-80193271D01*
X127264285Y-80193271D02*
X127299999Y-80264700D01*
X127299999Y-80264700D02*
X127371428Y-80300414D01*
X127371428Y-80300414D02*
X127478571Y-80300414D01*
X127478571Y-80300414D02*
X127549999Y-80264700D01*
X127549999Y-80264700D02*
X127585714Y-80228985D01*
X127871427Y-80300414D02*
X128264285Y-79800414D01*
X127871427Y-79800414D02*
X128264285Y-80300414D01*
X128549999Y-80228985D02*
X128585713Y-80264700D01*
X128585713Y-80264700D02*
X128549999Y-80300414D01*
X128549999Y-80300414D02*
X128514285Y-80264700D01*
X128514285Y-80264700D02*
X128549999Y-80228985D01*
X128549999Y-80228985D02*
X128549999Y-80300414D01*
X128549999Y-79836128D02*
X128585713Y-79871842D01*
X128585713Y-79871842D02*
X128549999Y-79907557D01*
X128549999Y-79907557D02*
X128514285Y-79871842D01*
X128514285Y-79871842D02*
X128549999Y-79836128D01*
X128549999Y-79836128D02*
X128549999Y-79907557D01*
X129407142Y-79550414D02*
X129871428Y-79550414D01*
X129871428Y-79550414D02*
X129621428Y-79836128D01*
X129621428Y-79836128D02*
X129728571Y-79836128D01*
X129728571Y-79836128D02*
X129800000Y-79871842D01*
X129800000Y-79871842D02*
X129835714Y-79907557D01*
X129835714Y-79907557D02*
X129871428Y-79978985D01*
X129871428Y-79978985D02*
X129871428Y-80157557D01*
X129871428Y-80157557D02*
X129835714Y-80228985D01*
X129835714Y-80228985D02*
X129800000Y-80264700D01*
X129800000Y-80264700D02*
X129728571Y-80300414D01*
X129728571Y-80300414D02*
X129514285Y-80300414D01*
X129514285Y-80300414D02*
X129442857Y-80264700D01*
X129442857Y-80264700D02*
X129407142Y-80228985D01*
X130085714Y-79550414D02*
X130335714Y-80300414D01*
X130335714Y-80300414D02*
X130585714Y-79550414D01*
X130764285Y-79550414D02*
X131228571Y-79550414D01*
X131228571Y-79550414D02*
X130978571Y-79836128D01*
X130978571Y-79836128D02*
X131085714Y-79836128D01*
X131085714Y-79836128D02*
X131157143Y-79871842D01*
X131157143Y-79871842D02*
X131192857Y-79907557D01*
X131192857Y-79907557D02*
X131228571Y-79978985D01*
X131228571Y-79978985D02*
X131228571Y-80157557D01*
X131228571Y-80157557D02*
X131192857Y-80228985D01*
X131192857Y-80228985D02*
X131157143Y-80264700D01*
X131157143Y-80264700D02*
X131085714Y-80300414D01*
X131085714Y-80300414D02*
X130871428Y-80300414D01*
X130871428Y-80300414D02*
X130800000Y-80264700D01*
X130800000Y-80264700D02*
X130764285Y-80228985D01*
X111670112Y-129186128D02*
X111598684Y-129150414D01*
X111598684Y-129150414D02*
X111491541Y-129150414D01*
X111491541Y-129150414D02*
X111384398Y-129186128D01*
X111384398Y-129186128D02*
X111312969Y-129257557D01*
X111312969Y-129257557D02*
X111277255Y-129328985D01*
X111277255Y-129328985D02*
X111241541Y-129471842D01*
X111241541Y-129471842D02*
X111241541Y-129578985D01*
X111241541Y-129578985D02*
X111277255Y-129721842D01*
X111277255Y-129721842D02*
X111312969Y-129793271D01*
X111312969Y-129793271D02*
X111384398Y-129864700D01*
X111384398Y-129864700D02*
X111491541Y-129900414D01*
X111491541Y-129900414D02*
X111562969Y-129900414D01*
X111562969Y-129900414D02*
X111670112Y-129864700D01*
X111670112Y-129864700D02*
X111705826Y-129828985D01*
X111705826Y-129828985D02*
X111705826Y-129578985D01*
X111705826Y-129578985D02*
X111562969Y-129578985D01*
X112027255Y-129900414D02*
X112027255Y-129150414D01*
X112027255Y-129150414D02*
X112455826Y-129900414D01*
X112455826Y-129900414D02*
X112455826Y-129150414D01*
X112812969Y-129900414D02*
X112812969Y-129150414D01*
X112812969Y-129150414D02*
X112991540Y-129150414D01*
X112991540Y-129150414D02*
X113098683Y-129186128D01*
X113098683Y-129186128D02*
X113170112Y-129257557D01*
X113170112Y-129257557D02*
X113205826Y-129328985D01*
X113205826Y-129328985D02*
X113241540Y-129471842D01*
X113241540Y-129471842D02*
X113241540Y-129578985D01*
X113241540Y-129578985D02*
X113205826Y-129721842D01*
X113205826Y-129721842D02*
X113170112Y-129793271D01*
X113170112Y-129793271D02*
X113098683Y-129864700D01*
X113098683Y-129864700D02*
X112991540Y-129900414D01*
X112991540Y-129900414D02*
X112812969Y-129900414D01*
X131305826Y-96839164D02*
X131055826Y-96482021D01*
X130877255Y-96839164D02*
X130877255Y-96089164D01*
X130877255Y-96089164D02*
X131162969Y-96089164D01*
X131162969Y-96089164D02*
X131234398Y-96124878D01*
X131234398Y-96124878D02*
X131270112Y-96160592D01*
X131270112Y-96160592D02*
X131305826Y-96232021D01*
X131305826Y-96232021D02*
X131305826Y-96339164D01*
X131305826Y-96339164D02*
X131270112Y-96410592D01*
X131270112Y-96410592D02*
X131234398Y-96446307D01*
X131234398Y-96446307D02*
X131162969Y-96482021D01*
X131162969Y-96482021D02*
X130877255Y-96482021D01*
X131912969Y-96803450D02*
X131841541Y-96839164D01*
X131841541Y-96839164D02*
X131698684Y-96839164D01*
X131698684Y-96839164D02*
X131627255Y-96803450D01*
X131627255Y-96803450D02*
X131591541Y-96732021D01*
X131591541Y-96732021D02*
X131591541Y-96446307D01*
X131591541Y-96446307D02*
X131627255Y-96374878D01*
X131627255Y-96374878D02*
X131698684Y-96339164D01*
X131698684Y-96339164D02*
X131841541Y-96339164D01*
X131841541Y-96339164D02*
X131912969Y-96374878D01*
X131912969Y-96374878D02*
X131948684Y-96446307D01*
X131948684Y-96446307D02*
X131948684Y-96517735D01*
X131948684Y-96517735D02*
X131591541Y-96589164D01*
X132234398Y-96803450D02*
X132305826Y-96839164D01*
X132305826Y-96839164D02*
X132448683Y-96839164D01*
X132448683Y-96839164D02*
X132520112Y-96803450D01*
X132520112Y-96803450D02*
X132555826Y-96732021D01*
X132555826Y-96732021D02*
X132555826Y-96696307D01*
X132555826Y-96696307D02*
X132520112Y-96624878D01*
X132520112Y-96624878D02*
X132448683Y-96589164D01*
X132448683Y-96589164D02*
X132341541Y-96589164D01*
X132341541Y-96589164D02*
X132270112Y-96553450D01*
X132270112Y-96553450D02*
X132234398Y-96482021D01*
X132234398Y-96482021D02*
X132234398Y-96446307D01*
X132234398Y-96446307D02*
X132270112Y-96374878D01*
X132270112Y-96374878D02*
X132341541Y-96339164D01*
X132341541Y-96339164D02*
X132448683Y-96339164D01*
X132448683Y-96339164D02*
X132520112Y-96374878D01*
X133162969Y-96803450D02*
X133091541Y-96839164D01*
X133091541Y-96839164D02*
X132948684Y-96839164D01*
X132948684Y-96839164D02*
X132877255Y-96803450D01*
X132877255Y-96803450D02*
X132841541Y-96732021D01*
X132841541Y-96732021D02*
X132841541Y-96446307D01*
X132841541Y-96446307D02*
X132877255Y-96374878D01*
X132877255Y-96374878D02*
X132948684Y-96339164D01*
X132948684Y-96339164D02*
X133091541Y-96339164D01*
X133091541Y-96339164D02*
X133162969Y-96374878D01*
X133162969Y-96374878D02*
X133198684Y-96446307D01*
X133198684Y-96446307D02*
X133198684Y-96517735D01*
X133198684Y-96517735D02*
X132841541Y-96589164D01*
X133412969Y-96339164D02*
X133698683Y-96339164D01*
X133520112Y-96089164D02*
X133520112Y-96732021D01*
X133520112Y-96732021D02*
X133555826Y-96803450D01*
X133555826Y-96803450D02*
X133627255Y-96839164D01*
X133627255Y-96839164D02*
X133698683Y-96839164D01*
X160241541Y-89603450D02*
X160348684Y-89639164D01*
X160348684Y-89639164D02*
X160527255Y-89639164D01*
X160527255Y-89639164D02*
X160598684Y-89603450D01*
X160598684Y-89603450D02*
X160634398Y-89567735D01*
X160634398Y-89567735D02*
X160670112Y-89496307D01*
X160670112Y-89496307D02*
X160670112Y-89424878D01*
X160670112Y-89424878D02*
X160634398Y-89353450D01*
X160634398Y-89353450D02*
X160598684Y-89317735D01*
X160598684Y-89317735D02*
X160527255Y-89282021D01*
X160527255Y-89282021D02*
X160384398Y-89246307D01*
X160384398Y-89246307D02*
X160312969Y-89210592D01*
X160312969Y-89210592D02*
X160277255Y-89174878D01*
X160277255Y-89174878D02*
X160241541Y-89103450D01*
X160241541Y-89103450D02*
X160241541Y-89032021D01*
X160241541Y-89032021D02*
X160277255Y-88960592D01*
X160277255Y-88960592D02*
X160312969Y-88924878D01*
X160312969Y-88924878D02*
X160384398Y-88889164D01*
X160384398Y-88889164D02*
X160562969Y-88889164D01*
X160562969Y-88889164D02*
X160670112Y-88924878D01*
X160920112Y-88889164D02*
X161098684Y-89639164D01*
X161098684Y-89639164D02*
X161241541Y-89103450D01*
X161241541Y-89103450D02*
X161384398Y-89639164D01*
X161384398Y-89639164D02*
X161562970Y-88889164D01*
X162277255Y-89567735D02*
X162241541Y-89603450D01*
X162241541Y-89603450D02*
X162134398Y-89639164D01*
X162134398Y-89639164D02*
X162062970Y-89639164D01*
X162062970Y-89639164D02*
X161955827Y-89603450D01*
X161955827Y-89603450D02*
X161884398Y-89532021D01*
X161884398Y-89532021D02*
X161848684Y-89460592D01*
X161848684Y-89460592D02*
X161812970Y-89317735D01*
X161812970Y-89317735D02*
X161812970Y-89210592D01*
X161812970Y-89210592D02*
X161848684Y-89067735D01*
X161848684Y-89067735D02*
X161884398Y-88996307D01*
X161884398Y-88996307D02*
X161955827Y-88924878D01*
X161955827Y-88924878D02*
X162062970Y-88889164D01*
X162062970Y-88889164D02*
X162134398Y-88889164D01*
X162134398Y-88889164D02*
X162241541Y-88924878D01*
X162241541Y-88924878D02*
X162277255Y-88960592D01*
X162955827Y-89639164D02*
X162598684Y-89639164D01*
X162598684Y-89639164D02*
X162598684Y-88889164D01*
X163205827Y-89639164D02*
X163205827Y-88889164D01*
X163634398Y-89639164D02*
X163312970Y-89210592D01*
X163634398Y-88889164D02*
X163205827Y-89317735D01*
D13*
X165940225Y-70656080D02*
X166440225Y-72156080D01*
X166440225Y-72156080D02*
X166940225Y-70656080D01*
X168083082Y-72156080D02*
X168083082Y-71370366D01*
X168083082Y-71370366D02*
X168011653Y-71227509D01*
X168011653Y-71227509D02*
X167868796Y-71156080D01*
X167868796Y-71156080D02*
X167583082Y-71156080D01*
X167583082Y-71156080D02*
X167440224Y-71227509D01*
X168083082Y-72084652D02*
X167940224Y-72156080D01*
X167940224Y-72156080D02*
X167583082Y-72156080D01*
X167583082Y-72156080D02*
X167440224Y-72084652D01*
X167440224Y-72084652D02*
X167368796Y-71941794D01*
X167368796Y-71941794D02*
X167368796Y-71798937D01*
X167368796Y-71798937D02*
X167440224Y-71656080D01*
X167440224Y-71656080D02*
X167583082Y-71584652D01*
X167583082Y-71584652D02*
X167940224Y-71584652D01*
X167940224Y-71584652D02*
X168083082Y-71513223D01*
X168797367Y-72156080D02*
X168797367Y-71156080D01*
X168797367Y-71441794D02*
X168868796Y-71298937D01*
X168868796Y-71298937D02*
X168940225Y-71227509D01*
X168940225Y-71227509D02*
X169083082Y-71156080D01*
X169083082Y-71156080D02*
X169225939Y-71156080D01*
X169725938Y-72156080D02*
X169725938Y-71156080D01*
X169725938Y-70656080D02*
X169654510Y-70727509D01*
X169654510Y-70727509D02*
X169725938Y-70798937D01*
X169725938Y-70798937D02*
X169797367Y-70727509D01*
X169797367Y-70727509D02*
X169725938Y-70656080D01*
X169725938Y-70656080D02*
X169725938Y-70798937D01*
X171083082Y-72156080D02*
X171083082Y-71370366D01*
X171083082Y-71370366D02*
X171011653Y-71227509D01*
X171011653Y-71227509D02*
X170868796Y-71156080D01*
X170868796Y-71156080D02*
X170583082Y-71156080D01*
X170583082Y-71156080D02*
X170440224Y-71227509D01*
X171083082Y-72084652D02*
X170940224Y-72156080D01*
X170940224Y-72156080D02*
X170583082Y-72156080D01*
X170583082Y-72156080D02*
X170440224Y-72084652D01*
X170440224Y-72084652D02*
X170368796Y-71941794D01*
X170368796Y-71941794D02*
X170368796Y-71798937D01*
X170368796Y-71798937D02*
X170440224Y-71656080D01*
X170440224Y-71656080D02*
X170583082Y-71584652D01*
X170583082Y-71584652D02*
X170940224Y-71584652D01*
X170940224Y-71584652D02*
X171083082Y-71513223D01*
X171797367Y-72156080D02*
X171797367Y-70656080D01*
X171797367Y-71227509D02*
X171940225Y-71156080D01*
X171940225Y-71156080D02*
X172225939Y-71156080D01*
X172225939Y-71156080D02*
X172368796Y-71227509D01*
X172368796Y-71227509D02*
X172440225Y-71298937D01*
X172440225Y-71298937D02*
X172511653Y-71441794D01*
X172511653Y-71441794D02*
X172511653Y-71870366D01*
X172511653Y-71870366D02*
X172440225Y-72013223D01*
X172440225Y-72013223D02*
X172368796Y-72084652D01*
X172368796Y-72084652D02*
X172225939Y-72156080D01*
X172225939Y-72156080D02*
X171940225Y-72156080D01*
X171940225Y-72156080D02*
X171797367Y-72084652D01*
X173368796Y-72156080D02*
X173225939Y-72084652D01*
X173225939Y-72084652D02*
X173154510Y-71941794D01*
X173154510Y-71941794D02*
X173154510Y-70656080D01*
X174511653Y-72084652D02*
X174368796Y-72156080D01*
X174368796Y-72156080D02*
X174083082Y-72156080D01*
X174083082Y-72156080D02*
X173940224Y-72084652D01*
X173940224Y-72084652D02*
X173868796Y-71941794D01*
X173868796Y-71941794D02*
X173868796Y-71370366D01*
X173868796Y-71370366D02*
X173940224Y-71227509D01*
X173940224Y-71227509D02*
X174083082Y-71156080D01*
X174083082Y-71156080D02*
X174368796Y-71156080D01*
X174368796Y-71156080D02*
X174511653Y-71227509D01*
X174511653Y-71227509D02*
X174583082Y-71370366D01*
X174583082Y-71370366D02*
X174583082Y-71513223D01*
X174583082Y-71513223D02*
X173868796Y-71656080D01*
X176154510Y-70656080D02*
X176654510Y-72156080D01*
X176654510Y-72156080D02*
X177154510Y-70656080D01*
X177868795Y-72156080D02*
X177725938Y-72084652D01*
X177725938Y-72084652D02*
X177654509Y-72013223D01*
X177654509Y-72013223D02*
X177583081Y-71870366D01*
X177583081Y-71870366D02*
X177583081Y-71441794D01*
X177583081Y-71441794D02*
X177654509Y-71298937D01*
X177654509Y-71298937D02*
X177725938Y-71227509D01*
X177725938Y-71227509D02*
X177868795Y-71156080D01*
X177868795Y-71156080D02*
X178083081Y-71156080D01*
X178083081Y-71156080D02*
X178225938Y-71227509D01*
X178225938Y-71227509D02*
X178297367Y-71298937D01*
X178297367Y-71298937D02*
X178368795Y-71441794D01*
X178368795Y-71441794D02*
X178368795Y-71870366D01*
X178368795Y-71870366D02*
X178297367Y-72013223D01*
X178297367Y-72013223D02*
X178225938Y-72084652D01*
X178225938Y-72084652D02*
X178083081Y-72156080D01*
X178083081Y-72156080D02*
X177868795Y-72156080D01*
X179225938Y-72156080D02*
X179083081Y-72084652D01*
X179083081Y-72084652D02*
X179011652Y-71941794D01*
X179011652Y-71941794D02*
X179011652Y-70656080D01*
X179583081Y-71156080D02*
X180154509Y-71156080D01*
X179797366Y-70656080D02*
X179797366Y-71941794D01*
X179797366Y-71941794D02*
X179868795Y-72084652D01*
X179868795Y-72084652D02*
X180011652Y-72156080D01*
X180011652Y-72156080D02*
X180154509Y-72156080D01*
X181297367Y-72156080D02*
X181297367Y-71370366D01*
X181297367Y-71370366D02*
X181225938Y-71227509D01*
X181225938Y-71227509D02*
X181083081Y-71156080D01*
X181083081Y-71156080D02*
X180797367Y-71156080D01*
X180797367Y-71156080D02*
X180654509Y-71227509D01*
X181297367Y-72084652D02*
X181154509Y-72156080D01*
X181154509Y-72156080D02*
X180797367Y-72156080D01*
X180797367Y-72156080D02*
X180654509Y-72084652D01*
X180654509Y-72084652D02*
X180583081Y-71941794D01*
X180583081Y-71941794D02*
X180583081Y-71798937D01*
X180583081Y-71798937D02*
X180654509Y-71656080D01*
X180654509Y-71656080D02*
X180797367Y-71584652D01*
X180797367Y-71584652D02*
X181154509Y-71584652D01*
X181154509Y-71584652D02*
X181297367Y-71513223D01*
X182654510Y-71156080D02*
X182654510Y-72370366D01*
X182654510Y-72370366D02*
X182583081Y-72513223D01*
X182583081Y-72513223D02*
X182511652Y-72584652D01*
X182511652Y-72584652D02*
X182368795Y-72656080D01*
X182368795Y-72656080D02*
X182154510Y-72656080D01*
X182154510Y-72656080D02*
X182011652Y-72584652D01*
X182654510Y-72084652D02*
X182511652Y-72156080D01*
X182511652Y-72156080D02*
X182225938Y-72156080D01*
X182225938Y-72156080D02*
X182083081Y-72084652D01*
X182083081Y-72084652D02*
X182011652Y-72013223D01*
X182011652Y-72013223D02*
X181940224Y-71870366D01*
X181940224Y-71870366D02*
X181940224Y-71441794D01*
X181940224Y-71441794D02*
X182011652Y-71298937D01*
X182011652Y-71298937D02*
X182083081Y-71227509D01*
X182083081Y-71227509D02*
X182225938Y-71156080D01*
X182225938Y-71156080D02*
X182511652Y-71156080D01*
X182511652Y-71156080D02*
X182654510Y-71227509D01*
X183940224Y-72084652D02*
X183797367Y-72156080D01*
X183797367Y-72156080D02*
X183511653Y-72156080D01*
X183511653Y-72156080D02*
X183368795Y-72084652D01*
X183368795Y-72084652D02*
X183297367Y-71941794D01*
X183297367Y-71941794D02*
X183297367Y-71370366D01*
X183297367Y-71370366D02*
X183368795Y-71227509D01*
X183368795Y-71227509D02*
X183511653Y-71156080D01*
X183511653Y-71156080D02*
X183797367Y-71156080D01*
X183797367Y-71156080D02*
X183940224Y-71227509D01*
X183940224Y-71227509D02*
X184011653Y-71370366D01*
X184011653Y-71370366D02*
X184011653Y-71513223D01*
X184011653Y-71513223D02*
X183297367Y-71656080D01*
X186654509Y-72013223D02*
X186583081Y-72084652D01*
X186583081Y-72084652D02*
X186368795Y-72156080D01*
X186368795Y-72156080D02*
X186225938Y-72156080D01*
X186225938Y-72156080D02*
X186011652Y-72084652D01*
X186011652Y-72084652D02*
X185868795Y-71941794D01*
X185868795Y-71941794D02*
X185797366Y-71798937D01*
X185797366Y-71798937D02*
X185725938Y-71513223D01*
X185725938Y-71513223D02*
X185725938Y-71298937D01*
X185725938Y-71298937D02*
X185797366Y-71013223D01*
X185797366Y-71013223D02*
X185868795Y-70870366D01*
X185868795Y-70870366D02*
X186011652Y-70727509D01*
X186011652Y-70727509D02*
X186225938Y-70656080D01*
X186225938Y-70656080D02*
X186368795Y-70656080D01*
X186368795Y-70656080D02*
X186583081Y-70727509D01*
X186583081Y-70727509D02*
X186654509Y-70798937D01*
X187511652Y-72156080D02*
X187368795Y-72084652D01*
X187368795Y-72084652D02*
X187297366Y-72013223D01*
X187297366Y-72013223D02*
X187225938Y-71870366D01*
X187225938Y-71870366D02*
X187225938Y-71441794D01*
X187225938Y-71441794D02*
X187297366Y-71298937D01*
X187297366Y-71298937D02*
X187368795Y-71227509D01*
X187368795Y-71227509D02*
X187511652Y-71156080D01*
X187511652Y-71156080D02*
X187725938Y-71156080D01*
X187725938Y-71156080D02*
X187868795Y-71227509D01*
X187868795Y-71227509D02*
X187940224Y-71298937D01*
X187940224Y-71298937D02*
X188011652Y-71441794D01*
X188011652Y-71441794D02*
X188011652Y-71870366D01*
X188011652Y-71870366D02*
X187940224Y-72013223D01*
X187940224Y-72013223D02*
X187868795Y-72084652D01*
X187868795Y-72084652D02*
X187725938Y-72156080D01*
X187725938Y-72156080D02*
X187511652Y-72156080D01*
X188654509Y-71156080D02*
X188654509Y-72156080D01*
X188654509Y-71298937D02*
X188725938Y-71227509D01*
X188725938Y-71227509D02*
X188868795Y-71156080D01*
X188868795Y-71156080D02*
X189083081Y-71156080D01*
X189083081Y-71156080D02*
X189225938Y-71227509D01*
X189225938Y-71227509D02*
X189297367Y-71370366D01*
X189297367Y-71370366D02*
X189297367Y-72156080D01*
X189797367Y-71156080D02*
X190368795Y-71156080D01*
X190011652Y-70656080D02*
X190011652Y-71941794D01*
X190011652Y-71941794D02*
X190083081Y-72084652D01*
X190083081Y-72084652D02*
X190225938Y-72156080D01*
X190225938Y-72156080D02*
X190368795Y-72156080D01*
X190868795Y-72156080D02*
X190868795Y-71156080D01*
X190868795Y-71441794D02*
X190940224Y-71298937D01*
X190940224Y-71298937D02*
X191011653Y-71227509D01*
X191011653Y-71227509D02*
X191154510Y-71156080D01*
X191154510Y-71156080D02*
X191297367Y-71156080D01*
X192011652Y-72156080D02*
X191868795Y-72084652D01*
X191868795Y-72084652D02*
X191797366Y-72013223D01*
X191797366Y-72013223D02*
X191725938Y-71870366D01*
X191725938Y-71870366D02*
X191725938Y-71441794D01*
X191725938Y-71441794D02*
X191797366Y-71298937D01*
X191797366Y-71298937D02*
X191868795Y-71227509D01*
X191868795Y-71227509D02*
X192011652Y-71156080D01*
X192011652Y-71156080D02*
X192225938Y-71156080D01*
X192225938Y-71156080D02*
X192368795Y-71227509D01*
X192368795Y-71227509D02*
X192440224Y-71298937D01*
X192440224Y-71298937D02*
X192511652Y-71441794D01*
X192511652Y-71441794D02*
X192511652Y-71870366D01*
X192511652Y-71870366D02*
X192440224Y-72013223D01*
X192440224Y-72013223D02*
X192368795Y-72084652D01*
X192368795Y-72084652D02*
X192225938Y-72156080D01*
X192225938Y-72156080D02*
X192011652Y-72156080D01*
X193368795Y-72156080D02*
X193225938Y-72084652D01*
X193225938Y-72084652D02*
X193154509Y-71941794D01*
X193154509Y-71941794D02*
X193154509Y-70656080D01*
X194154509Y-72156080D02*
X194011652Y-72084652D01*
X194011652Y-72084652D02*
X193940223Y-71941794D01*
X193940223Y-71941794D02*
X193940223Y-70656080D01*
X195297366Y-72084652D02*
X195154509Y-72156080D01*
X195154509Y-72156080D02*
X194868795Y-72156080D01*
X194868795Y-72156080D02*
X194725937Y-72084652D01*
X194725937Y-72084652D02*
X194654509Y-71941794D01*
X194654509Y-71941794D02*
X194654509Y-71370366D01*
X194654509Y-71370366D02*
X194725937Y-71227509D01*
X194725937Y-71227509D02*
X194868795Y-71156080D01*
X194868795Y-71156080D02*
X195154509Y-71156080D01*
X195154509Y-71156080D02*
X195297366Y-71227509D01*
X195297366Y-71227509D02*
X195368795Y-71370366D01*
X195368795Y-71370366D02*
X195368795Y-71513223D01*
X195368795Y-71513223D02*
X194654509Y-71656080D01*
X196011651Y-72156080D02*
X196011651Y-71156080D01*
X196011651Y-71441794D02*
X196083080Y-71298937D01*
X196083080Y-71298937D02*
X196154509Y-71227509D01*
X196154509Y-71227509D02*
X196297366Y-71156080D01*
X196297366Y-71156080D02*
X196440223Y-71156080D01*
X166154510Y-74570996D02*
X166154510Y-73070996D01*
X166868796Y-73570996D02*
X166868796Y-74570996D01*
X166868796Y-73713853D02*
X166940225Y-73642425D01*
X166940225Y-73642425D02*
X167083082Y-73570996D01*
X167083082Y-73570996D02*
X167297368Y-73570996D01*
X167297368Y-73570996D02*
X167440225Y-73642425D01*
X167440225Y-73642425D02*
X167511654Y-73785282D01*
X167511654Y-73785282D02*
X167511654Y-74570996D01*
X168225939Y-73570996D02*
X168225939Y-75070996D01*
X168225939Y-73642425D02*
X168368797Y-73570996D01*
X168368797Y-73570996D02*
X168654511Y-73570996D01*
X168654511Y-73570996D02*
X168797368Y-73642425D01*
X168797368Y-73642425D02*
X168868797Y-73713853D01*
X168868797Y-73713853D02*
X168940225Y-73856710D01*
X168940225Y-73856710D02*
X168940225Y-74285282D01*
X168940225Y-74285282D02*
X168868797Y-74428139D01*
X168868797Y-74428139D02*
X168797368Y-74499568D01*
X168797368Y-74499568D02*
X168654511Y-74570996D01*
X168654511Y-74570996D02*
X168368797Y-74570996D01*
X168368797Y-74570996D02*
X168225939Y-74499568D01*
X170225940Y-73570996D02*
X170225940Y-74570996D01*
X169583082Y-73570996D02*
X169583082Y-74356710D01*
X169583082Y-74356710D02*
X169654511Y-74499568D01*
X169654511Y-74499568D02*
X169797368Y-74570996D01*
X169797368Y-74570996D02*
X170011654Y-74570996D01*
X170011654Y-74570996D02*
X170154511Y-74499568D01*
X170154511Y-74499568D02*
X170225940Y-74428139D01*
X170725940Y-73570996D02*
X171297368Y-73570996D01*
X170940225Y-73070996D02*
X170940225Y-74356710D01*
X170940225Y-74356710D02*
X171011654Y-74499568D01*
X171011654Y-74499568D02*
X171154511Y-74570996D01*
X171154511Y-74570996D02*
X171297368Y-74570996D01*
X173797368Y-74570996D02*
X173297368Y-73856710D01*
X172940225Y-74570996D02*
X172940225Y-73070996D01*
X172940225Y-73070996D02*
X173511654Y-73070996D01*
X173511654Y-73070996D02*
X173654511Y-73142425D01*
X173654511Y-73142425D02*
X173725940Y-73213853D01*
X173725940Y-73213853D02*
X173797368Y-73356710D01*
X173797368Y-73356710D02*
X173797368Y-73570996D01*
X173797368Y-73570996D02*
X173725940Y-73713853D01*
X173725940Y-73713853D02*
X173654511Y-73785282D01*
X173654511Y-73785282D02*
X173511654Y-73856710D01*
X173511654Y-73856710D02*
X172940225Y-73856710D01*
X175083083Y-74570996D02*
X175083083Y-73785282D01*
X175083083Y-73785282D02*
X175011654Y-73642425D01*
X175011654Y-73642425D02*
X174868797Y-73570996D01*
X174868797Y-73570996D02*
X174583083Y-73570996D01*
X174583083Y-73570996D02*
X174440225Y-73642425D01*
X175083083Y-74499568D02*
X174940225Y-74570996D01*
X174940225Y-74570996D02*
X174583083Y-74570996D01*
X174583083Y-74570996D02*
X174440225Y-74499568D01*
X174440225Y-74499568D02*
X174368797Y-74356710D01*
X174368797Y-74356710D02*
X174368797Y-74213853D01*
X174368797Y-74213853D02*
X174440225Y-74070996D01*
X174440225Y-74070996D02*
X174583083Y-73999568D01*
X174583083Y-73999568D02*
X174940225Y-73999568D01*
X174940225Y-73999568D02*
X175083083Y-73928139D01*
X175797368Y-73570996D02*
X175797368Y-74570996D01*
X175797368Y-73713853D02*
X175868797Y-73642425D01*
X175868797Y-73642425D02*
X176011654Y-73570996D01*
X176011654Y-73570996D02*
X176225940Y-73570996D01*
X176225940Y-73570996D02*
X176368797Y-73642425D01*
X176368797Y-73642425D02*
X176440226Y-73785282D01*
X176440226Y-73785282D02*
X176440226Y-74570996D01*
X177797369Y-73570996D02*
X177797369Y-74785282D01*
X177797369Y-74785282D02*
X177725940Y-74928139D01*
X177725940Y-74928139D02*
X177654511Y-74999568D01*
X177654511Y-74999568D02*
X177511654Y-75070996D01*
X177511654Y-75070996D02*
X177297369Y-75070996D01*
X177297369Y-75070996D02*
X177154511Y-74999568D01*
X177797369Y-74499568D02*
X177654511Y-74570996D01*
X177654511Y-74570996D02*
X177368797Y-74570996D01*
X177368797Y-74570996D02*
X177225940Y-74499568D01*
X177225940Y-74499568D02*
X177154511Y-74428139D01*
X177154511Y-74428139D02*
X177083083Y-74285282D01*
X177083083Y-74285282D02*
X177083083Y-73856710D01*
X177083083Y-73856710D02*
X177154511Y-73713853D01*
X177154511Y-73713853D02*
X177225940Y-73642425D01*
X177225940Y-73642425D02*
X177368797Y-73570996D01*
X177368797Y-73570996D02*
X177654511Y-73570996D01*
X177654511Y-73570996D02*
X177797369Y-73642425D01*
X179083083Y-74499568D02*
X178940226Y-74570996D01*
X178940226Y-74570996D02*
X178654512Y-74570996D01*
X178654512Y-74570996D02*
X178511654Y-74499568D01*
X178511654Y-74499568D02*
X178440226Y-74356710D01*
X178440226Y-74356710D02*
X178440226Y-73785282D01*
X178440226Y-73785282D02*
X178511654Y-73642425D01*
X178511654Y-73642425D02*
X178654512Y-73570996D01*
X178654512Y-73570996D02*
X178940226Y-73570996D01*
X178940226Y-73570996D02*
X179083083Y-73642425D01*
X179083083Y-73642425D02*
X179154512Y-73785282D01*
X179154512Y-73785282D02*
X179154512Y-73928139D01*
X179154512Y-73928139D02*
X178440226Y-74070996D01*
X179797368Y-74428139D02*
X179868797Y-74499568D01*
X179868797Y-74499568D02*
X179797368Y-74570996D01*
X179797368Y-74570996D02*
X179725940Y-74499568D01*
X179725940Y-74499568D02*
X179797368Y-74428139D01*
X179797368Y-74428139D02*
X179797368Y-74570996D01*
X179797368Y-73642425D02*
X179868797Y-73713853D01*
X179868797Y-73713853D02*
X179797368Y-73785282D01*
X179797368Y-73785282D02*
X179725940Y-73713853D01*
X179725940Y-73713853D02*
X179797368Y-73642425D01*
X179797368Y-73642425D02*
X179797368Y-73785282D01*
X181511654Y-73070996D02*
X182440226Y-73070996D01*
X182440226Y-73070996D02*
X181940226Y-73642425D01*
X181940226Y-73642425D02*
X182154511Y-73642425D01*
X182154511Y-73642425D02*
X182297369Y-73713853D01*
X182297369Y-73713853D02*
X182368797Y-73785282D01*
X182368797Y-73785282D02*
X182440226Y-73928139D01*
X182440226Y-73928139D02*
X182440226Y-74285282D01*
X182440226Y-74285282D02*
X182368797Y-74428139D01*
X182368797Y-74428139D02*
X182297369Y-74499568D01*
X182297369Y-74499568D02*
X182154511Y-74570996D01*
X182154511Y-74570996D02*
X181725940Y-74570996D01*
X181725940Y-74570996D02*
X181583083Y-74499568D01*
X181583083Y-74499568D02*
X181511654Y-74428139D01*
X182868797Y-73070996D02*
X183368797Y-74570996D01*
X183368797Y-74570996D02*
X183868797Y-73070996D01*
X185297368Y-73570996D02*
X185868796Y-73570996D01*
X185511653Y-73070996D02*
X185511653Y-74356710D01*
X185511653Y-74356710D02*
X185583082Y-74499568D01*
X185583082Y-74499568D02*
X185725939Y-74570996D01*
X185725939Y-74570996D02*
X185868796Y-74570996D01*
X186583082Y-74570996D02*
X186440225Y-74499568D01*
X186440225Y-74499568D02*
X186368796Y-74428139D01*
X186368796Y-74428139D02*
X186297368Y-74285282D01*
X186297368Y-74285282D02*
X186297368Y-73856710D01*
X186297368Y-73856710D02*
X186368796Y-73713853D01*
X186368796Y-73713853D02*
X186440225Y-73642425D01*
X186440225Y-73642425D02*
X186583082Y-73570996D01*
X186583082Y-73570996D02*
X186797368Y-73570996D01*
X186797368Y-73570996D02*
X186940225Y-73642425D01*
X186940225Y-73642425D02*
X187011654Y-73713853D01*
X187011654Y-73713853D02*
X187083082Y-73856710D01*
X187083082Y-73856710D02*
X187083082Y-74285282D01*
X187083082Y-74285282D02*
X187011654Y-74428139D01*
X187011654Y-74428139D02*
X186940225Y-74499568D01*
X186940225Y-74499568D02*
X186797368Y-74570996D01*
X186797368Y-74570996D02*
X186583082Y-74570996D01*
X189654511Y-74570996D02*
X188797368Y-74570996D01*
X189225939Y-74570996D02*
X189225939Y-73070996D01*
X189225939Y-73070996D02*
X189083082Y-73285282D01*
X189083082Y-73285282D02*
X188940225Y-73428139D01*
X188940225Y-73428139D02*
X188797368Y-73499568D01*
X190154510Y-73070996D02*
X191154510Y-73070996D01*
X191154510Y-73070996D02*
X190511653Y-74570996D01*
X191511653Y-73070996D02*
X192011653Y-74570996D01*
X192011653Y-74570996D02*
X192511653Y-73070996D01*
X166440225Y-75485912D02*
X166725939Y-75485912D01*
X166725939Y-75485912D02*
X166868796Y-75557341D01*
X166868796Y-75557341D02*
X167011653Y-75700198D01*
X167011653Y-75700198D02*
X167083082Y-75985912D01*
X167083082Y-75985912D02*
X167083082Y-76485912D01*
X167083082Y-76485912D02*
X167011653Y-76771626D01*
X167011653Y-76771626D02*
X166868796Y-76914484D01*
X166868796Y-76914484D02*
X166725939Y-76985912D01*
X166725939Y-76985912D02*
X166440225Y-76985912D01*
X166440225Y-76985912D02*
X166297368Y-76914484D01*
X166297368Y-76914484D02*
X166154510Y-76771626D01*
X166154510Y-76771626D02*
X166083082Y-76485912D01*
X166083082Y-76485912D02*
X166083082Y-75985912D01*
X166083082Y-75985912D02*
X166154510Y-75700198D01*
X166154510Y-75700198D02*
X166297368Y-75557341D01*
X166297368Y-75557341D02*
X166440225Y-75485912D01*
X168368797Y-75985912D02*
X168368797Y-76985912D01*
X167725939Y-75985912D02*
X167725939Y-76771626D01*
X167725939Y-76771626D02*
X167797368Y-76914484D01*
X167797368Y-76914484D02*
X167940225Y-76985912D01*
X167940225Y-76985912D02*
X168154511Y-76985912D01*
X168154511Y-76985912D02*
X168297368Y-76914484D01*
X168297368Y-76914484D02*
X168368797Y-76843055D01*
X168868797Y-75985912D02*
X169440225Y-75985912D01*
X169083082Y-75485912D02*
X169083082Y-76771626D01*
X169083082Y-76771626D02*
X169154511Y-76914484D01*
X169154511Y-76914484D02*
X169297368Y-76985912D01*
X169297368Y-76985912D02*
X169440225Y-76985912D01*
X169940225Y-75985912D02*
X169940225Y-77485912D01*
X169940225Y-76057341D02*
X170083083Y-75985912D01*
X170083083Y-75985912D02*
X170368797Y-75985912D01*
X170368797Y-75985912D02*
X170511654Y-76057341D01*
X170511654Y-76057341D02*
X170583083Y-76128769D01*
X170583083Y-76128769D02*
X170654511Y-76271626D01*
X170654511Y-76271626D02*
X170654511Y-76700198D01*
X170654511Y-76700198D02*
X170583083Y-76843055D01*
X170583083Y-76843055D02*
X170511654Y-76914484D01*
X170511654Y-76914484D02*
X170368797Y-76985912D01*
X170368797Y-76985912D02*
X170083083Y-76985912D01*
X170083083Y-76985912D02*
X169940225Y-76914484D01*
X171940226Y-75985912D02*
X171940226Y-76985912D01*
X171297368Y-75985912D02*
X171297368Y-76771626D01*
X171297368Y-76771626D02*
X171368797Y-76914484D01*
X171368797Y-76914484D02*
X171511654Y-76985912D01*
X171511654Y-76985912D02*
X171725940Y-76985912D01*
X171725940Y-76985912D02*
X171868797Y-76914484D01*
X171868797Y-76914484D02*
X171940226Y-76843055D01*
X172440226Y-75985912D02*
X173011654Y-75985912D01*
X172654511Y-75485912D02*
X172654511Y-76771626D01*
X172654511Y-76771626D02*
X172725940Y-76914484D01*
X172725940Y-76914484D02*
X172868797Y-76985912D01*
X172868797Y-76985912D02*
X173011654Y-76985912D01*
X175511654Y-76985912D02*
X175011654Y-76271626D01*
X174654511Y-76985912D02*
X174654511Y-75485912D01*
X174654511Y-75485912D02*
X175225940Y-75485912D01*
X175225940Y-75485912D02*
X175368797Y-75557341D01*
X175368797Y-75557341D02*
X175440226Y-75628769D01*
X175440226Y-75628769D02*
X175511654Y-75771626D01*
X175511654Y-75771626D02*
X175511654Y-75985912D01*
X175511654Y-75985912D02*
X175440226Y-76128769D01*
X175440226Y-76128769D02*
X175368797Y-76200198D01*
X175368797Y-76200198D02*
X175225940Y-76271626D01*
X175225940Y-76271626D02*
X174654511Y-76271626D01*
X176797369Y-76985912D02*
X176797369Y-76200198D01*
X176797369Y-76200198D02*
X176725940Y-76057341D01*
X176725940Y-76057341D02*
X176583083Y-75985912D01*
X176583083Y-75985912D02*
X176297369Y-75985912D01*
X176297369Y-75985912D02*
X176154511Y-76057341D01*
X176797369Y-76914484D02*
X176654511Y-76985912D01*
X176654511Y-76985912D02*
X176297369Y-76985912D01*
X176297369Y-76985912D02*
X176154511Y-76914484D01*
X176154511Y-76914484D02*
X176083083Y-76771626D01*
X176083083Y-76771626D02*
X176083083Y-76628769D01*
X176083083Y-76628769D02*
X176154511Y-76485912D01*
X176154511Y-76485912D02*
X176297369Y-76414484D01*
X176297369Y-76414484D02*
X176654511Y-76414484D01*
X176654511Y-76414484D02*
X176797369Y-76343055D01*
X177511654Y-75985912D02*
X177511654Y-76985912D01*
X177511654Y-76128769D02*
X177583083Y-76057341D01*
X177583083Y-76057341D02*
X177725940Y-75985912D01*
X177725940Y-75985912D02*
X177940226Y-75985912D01*
X177940226Y-75985912D02*
X178083083Y-76057341D01*
X178083083Y-76057341D02*
X178154512Y-76200198D01*
X178154512Y-76200198D02*
X178154512Y-76985912D01*
X179511655Y-75985912D02*
X179511655Y-77200198D01*
X179511655Y-77200198D02*
X179440226Y-77343055D01*
X179440226Y-77343055D02*
X179368797Y-77414484D01*
X179368797Y-77414484D02*
X179225940Y-77485912D01*
X179225940Y-77485912D02*
X179011655Y-77485912D01*
X179011655Y-77485912D02*
X178868797Y-77414484D01*
X179511655Y-76914484D02*
X179368797Y-76985912D01*
X179368797Y-76985912D02*
X179083083Y-76985912D01*
X179083083Y-76985912D02*
X178940226Y-76914484D01*
X178940226Y-76914484D02*
X178868797Y-76843055D01*
X178868797Y-76843055D02*
X178797369Y-76700198D01*
X178797369Y-76700198D02*
X178797369Y-76271626D01*
X178797369Y-76271626D02*
X178868797Y-76128769D01*
X178868797Y-76128769D02*
X178940226Y-76057341D01*
X178940226Y-76057341D02*
X179083083Y-75985912D01*
X179083083Y-75985912D02*
X179368797Y-75985912D01*
X179368797Y-75985912D02*
X179511655Y-76057341D01*
X180797369Y-76914484D02*
X180654512Y-76985912D01*
X180654512Y-76985912D02*
X180368798Y-76985912D01*
X180368798Y-76985912D02*
X180225940Y-76914484D01*
X180225940Y-76914484D02*
X180154512Y-76771626D01*
X180154512Y-76771626D02*
X180154512Y-76200198D01*
X180154512Y-76200198D02*
X180225940Y-76057341D01*
X180225940Y-76057341D02*
X180368798Y-75985912D01*
X180368798Y-75985912D02*
X180654512Y-75985912D01*
X180654512Y-75985912D02*
X180797369Y-76057341D01*
X180797369Y-76057341D02*
X180868798Y-76200198D01*
X180868798Y-76200198D02*
X180868798Y-76343055D01*
X180868798Y-76343055D02*
X180154512Y-76485912D01*
X181511654Y-76843055D02*
X181583083Y-76914484D01*
X181583083Y-76914484D02*
X181511654Y-76985912D01*
X181511654Y-76985912D02*
X181440226Y-76914484D01*
X181440226Y-76914484D02*
X181511654Y-76843055D01*
X181511654Y-76843055D02*
X181511654Y-76985912D01*
X181511654Y-76057341D02*
X181583083Y-76128769D01*
X181583083Y-76128769D02*
X181511654Y-76200198D01*
X181511654Y-76200198D02*
X181440226Y-76128769D01*
X181440226Y-76128769D02*
X181511654Y-76057341D01*
X181511654Y-76057341D02*
X181511654Y-76200198D01*
X184154512Y-76985912D02*
X183297369Y-76985912D01*
X183725940Y-76985912D02*
X183725940Y-75485912D01*
X183725940Y-75485912D02*
X183583083Y-75700198D01*
X183583083Y-75700198D02*
X183440226Y-75843055D01*
X183440226Y-75843055D02*
X183297369Y-75914484D01*
X184797368Y-76843055D02*
X184868797Y-76914484D01*
X184868797Y-76914484D02*
X184797368Y-76985912D01*
X184797368Y-76985912D02*
X184725940Y-76914484D01*
X184725940Y-76914484D02*
X184797368Y-76843055D01*
X184797368Y-76843055D02*
X184797368Y-76985912D01*
X185368797Y-75485912D02*
X186297369Y-75485912D01*
X186297369Y-75485912D02*
X185797369Y-76057341D01*
X185797369Y-76057341D02*
X186011654Y-76057341D01*
X186011654Y-76057341D02*
X186154512Y-76128769D01*
X186154512Y-76128769D02*
X186225940Y-76200198D01*
X186225940Y-76200198D02*
X186297369Y-76343055D01*
X186297369Y-76343055D02*
X186297369Y-76700198D01*
X186297369Y-76700198D02*
X186225940Y-76843055D01*
X186225940Y-76843055D02*
X186154512Y-76914484D01*
X186154512Y-76914484D02*
X186011654Y-76985912D01*
X186011654Y-76985912D02*
X185583083Y-76985912D01*
X185583083Y-76985912D02*
X185440226Y-76914484D01*
X185440226Y-76914484D02*
X185368797Y-76843055D01*
X186868797Y-75628769D02*
X186940225Y-75557341D01*
X186940225Y-75557341D02*
X187083083Y-75485912D01*
X187083083Y-75485912D02*
X187440225Y-75485912D01*
X187440225Y-75485912D02*
X187583083Y-75557341D01*
X187583083Y-75557341D02*
X187654511Y-75628769D01*
X187654511Y-75628769D02*
X187725940Y-75771626D01*
X187725940Y-75771626D02*
X187725940Y-75914484D01*
X187725940Y-75914484D02*
X187654511Y-76128769D01*
X187654511Y-76128769D02*
X186797368Y-76985912D01*
X186797368Y-76985912D02*
X187725940Y-76985912D01*
X188154511Y-75485912D02*
X188654511Y-76985912D01*
X188654511Y-76985912D02*
X189154511Y-75485912D01*
X190583082Y-75985912D02*
X191154510Y-75985912D01*
X190797367Y-75485912D02*
X190797367Y-76771626D01*
X190797367Y-76771626D02*
X190868796Y-76914484D01*
X190868796Y-76914484D02*
X191011653Y-76985912D01*
X191011653Y-76985912D02*
X191154510Y-76985912D01*
X191868796Y-76985912D02*
X191725939Y-76914484D01*
X191725939Y-76914484D02*
X191654510Y-76843055D01*
X191654510Y-76843055D02*
X191583082Y-76700198D01*
X191583082Y-76700198D02*
X191583082Y-76271626D01*
X191583082Y-76271626D02*
X191654510Y-76128769D01*
X191654510Y-76128769D02*
X191725939Y-76057341D01*
X191725939Y-76057341D02*
X191868796Y-75985912D01*
X191868796Y-75985912D02*
X192083082Y-75985912D01*
X192083082Y-75985912D02*
X192225939Y-76057341D01*
X192225939Y-76057341D02*
X192297368Y-76128769D01*
X192297368Y-76128769D02*
X192368796Y-76271626D01*
X192368796Y-76271626D02*
X192368796Y-76700198D01*
X192368796Y-76700198D02*
X192297368Y-76843055D01*
X192297368Y-76843055D02*
X192225939Y-76914484D01*
X192225939Y-76914484D02*
X192083082Y-76985912D01*
X192083082Y-76985912D02*
X191868796Y-76985912D01*
X194083082Y-75628769D02*
X194154510Y-75557341D01*
X194154510Y-75557341D02*
X194297368Y-75485912D01*
X194297368Y-75485912D02*
X194654510Y-75485912D01*
X194654510Y-75485912D02*
X194797368Y-75557341D01*
X194797368Y-75557341D02*
X194868796Y-75628769D01*
X194868796Y-75628769D02*
X194940225Y-75771626D01*
X194940225Y-75771626D02*
X194940225Y-75914484D01*
X194940225Y-75914484D02*
X194868796Y-76128769D01*
X194868796Y-76128769D02*
X194011653Y-76985912D01*
X194011653Y-76985912D02*
X194940225Y-76985912D01*
X195868796Y-75485912D02*
X196011653Y-75485912D01*
X196011653Y-75485912D02*
X196154510Y-75557341D01*
X196154510Y-75557341D02*
X196225939Y-75628769D01*
X196225939Y-75628769D02*
X196297367Y-75771626D01*
X196297367Y-75771626D02*
X196368796Y-76057341D01*
X196368796Y-76057341D02*
X196368796Y-76414484D01*
X196368796Y-76414484D02*
X196297367Y-76700198D01*
X196297367Y-76700198D02*
X196225939Y-76843055D01*
X196225939Y-76843055D02*
X196154510Y-76914484D01*
X196154510Y-76914484D02*
X196011653Y-76985912D01*
X196011653Y-76985912D02*
X195868796Y-76985912D01*
X195868796Y-76985912D02*
X195725939Y-76914484D01*
X195725939Y-76914484D02*
X195654510Y-76843055D01*
X195654510Y-76843055D02*
X195583081Y-76700198D01*
X195583081Y-76700198D02*
X195511653Y-76414484D01*
X195511653Y-76414484D02*
X195511653Y-76057341D01*
X195511653Y-76057341D02*
X195583081Y-75771626D01*
X195583081Y-75771626D02*
X195654510Y-75628769D01*
X195654510Y-75628769D02*
X195725939Y-75557341D01*
X195725939Y-75557341D02*
X195868796Y-75485912D01*
X166154510Y-79400828D02*
X166154510Y-77900828D01*
X166154510Y-77900828D02*
X166654510Y-78972257D01*
X166654510Y-78972257D02*
X167154510Y-77900828D01*
X167154510Y-77900828D02*
X167154510Y-79400828D01*
X168511654Y-79400828D02*
X168511654Y-78615114D01*
X168511654Y-78615114D02*
X168440225Y-78472257D01*
X168440225Y-78472257D02*
X168297368Y-78400828D01*
X168297368Y-78400828D02*
X168011654Y-78400828D01*
X168011654Y-78400828D02*
X167868796Y-78472257D01*
X168511654Y-79329400D02*
X168368796Y-79400828D01*
X168368796Y-79400828D02*
X168011654Y-79400828D01*
X168011654Y-79400828D02*
X167868796Y-79329400D01*
X167868796Y-79329400D02*
X167797368Y-79186542D01*
X167797368Y-79186542D02*
X167797368Y-79043685D01*
X167797368Y-79043685D02*
X167868796Y-78900828D01*
X167868796Y-78900828D02*
X168011654Y-78829400D01*
X168011654Y-78829400D02*
X168368796Y-78829400D01*
X168368796Y-78829400D02*
X168511654Y-78757971D01*
X169083082Y-79400828D02*
X169868797Y-78400828D01*
X169083082Y-78400828D02*
X169868797Y-79400828D01*
X171868797Y-77900828D02*
X172154511Y-77900828D01*
X172154511Y-77900828D02*
X172297368Y-77972257D01*
X172297368Y-77972257D02*
X172440225Y-78115114D01*
X172440225Y-78115114D02*
X172511654Y-78400828D01*
X172511654Y-78400828D02*
X172511654Y-78900828D01*
X172511654Y-78900828D02*
X172440225Y-79186542D01*
X172440225Y-79186542D02*
X172297368Y-79329400D01*
X172297368Y-79329400D02*
X172154511Y-79400828D01*
X172154511Y-79400828D02*
X171868797Y-79400828D01*
X171868797Y-79400828D02*
X171725940Y-79329400D01*
X171725940Y-79329400D02*
X171583082Y-79186542D01*
X171583082Y-79186542D02*
X171511654Y-78900828D01*
X171511654Y-78900828D02*
X171511654Y-78400828D01*
X171511654Y-78400828D02*
X171583082Y-78115114D01*
X171583082Y-78115114D02*
X171725940Y-77972257D01*
X171725940Y-77972257D02*
X171868797Y-77900828D01*
X173797369Y-78400828D02*
X173797369Y-79400828D01*
X173154511Y-78400828D02*
X173154511Y-79186542D01*
X173154511Y-79186542D02*
X173225940Y-79329400D01*
X173225940Y-79329400D02*
X173368797Y-79400828D01*
X173368797Y-79400828D02*
X173583083Y-79400828D01*
X173583083Y-79400828D02*
X173725940Y-79329400D01*
X173725940Y-79329400D02*
X173797369Y-79257971D01*
X174297369Y-78400828D02*
X174868797Y-78400828D01*
X174511654Y-77900828D02*
X174511654Y-79186542D01*
X174511654Y-79186542D02*
X174583083Y-79329400D01*
X174583083Y-79329400D02*
X174725940Y-79400828D01*
X174725940Y-79400828D02*
X174868797Y-79400828D01*
X175368797Y-78400828D02*
X175368797Y-79900828D01*
X175368797Y-78472257D02*
X175511655Y-78400828D01*
X175511655Y-78400828D02*
X175797369Y-78400828D01*
X175797369Y-78400828D02*
X175940226Y-78472257D01*
X175940226Y-78472257D02*
X176011655Y-78543685D01*
X176011655Y-78543685D02*
X176083083Y-78686542D01*
X176083083Y-78686542D02*
X176083083Y-79115114D01*
X176083083Y-79115114D02*
X176011655Y-79257971D01*
X176011655Y-79257971D02*
X175940226Y-79329400D01*
X175940226Y-79329400D02*
X175797369Y-79400828D01*
X175797369Y-79400828D02*
X175511655Y-79400828D01*
X175511655Y-79400828D02*
X175368797Y-79329400D01*
X177368798Y-78400828D02*
X177368798Y-79400828D01*
X176725940Y-78400828D02*
X176725940Y-79186542D01*
X176725940Y-79186542D02*
X176797369Y-79329400D01*
X176797369Y-79329400D02*
X176940226Y-79400828D01*
X176940226Y-79400828D02*
X177154512Y-79400828D01*
X177154512Y-79400828D02*
X177297369Y-79329400D01*
X177297369Y-79329400D02*
X177368798Y-79257971D01*
X177868798Y-78400828D02*
X178440226Y-78400828D01*
X178083083Y-77900828D02*
X178083083Y-79186542D01*
X178083083Y-79186542D02*
X178154512Y-79329400D01*
X178154512Y-79329400D02*
X178297369Y-79400828D01*
X178297369Y-79400828D02*
X178440226Y-79400828D01*
X180940226Y-79257971D02*
X180868798Y-79329400D01*
X180868798Y-79329400D02*
X180654512Y-79400828D01*
X180654512Y-79400828D02*
X180511655Y-79400828D01*
X180511655Y-79400828D02*
X180297369Y-79329400D01*
X180297369Y-79329400D02*
X180154512Y-79186542D01*
X180154512Y-79186542D02*
X180083083Y-79043685D01*
X180083083Y-79043685D02*
X180011655Y-78757971D01*
X180011655Y-78757971D02*
X180011655Y-78543685D01*
X180011655Y-78543685D02*
X180083083Y-78257971D01*
X180083083Y-78257971D02*
X180154512Y-78115114D01*
X180154512Y-78115114D02*
X180297369Y-77972257D01*
X180297369Y-77972257D02*
X180511655Y-77900828D01*
X180511655Y-77900828D02*
X180654512Y-77900828D01*
X180654512Y-77900828D02*
X180868798Y-77972257D01*
X180868798Y-77972257D02*
X180940226Y-78043685D01*
X182225941Y-78400828D02*
X182225941Y-79400828D01*
X181583083Y-78400828D02*
X181583083Y-79186542D01*
X181583083Y-79186542D02*
X181654512Y-79329400D01*
X181654512Y-79329400D02*
X181797369Y-79400828D01*
X181797369Y-79400828D02*
X182011655Y-79400828D01*
X182011655Y-79400828D02*
X182154512Y-79329400D01*
X182154512Y-79329400D02*
X182225941Y-79257971D01*
X182940226Y-79400828D02*
X182940226Y-78400828D01*
X182940226Y-78686542D02*
X183011655Y-78543685D01*
X183011655Y-78543685D02*
X183083084Y-78472257D01*
X183083084Y-78472257D02*
X183225941Y-78400828D01*
X183225941Y-78400828D02*
X183368798Y-78400828D01*
X183868797Y-79400828D02*
X183868797Y-78400828D01*
X183868797Y-78686542D02*
X183940226Y-78543685D01*
X183940226Y-78543685D02*
X184011655Y-78472257D01*
X184011655Y-78472257D02*
X184154512Y-78400828D01*
X184154512Y-78400828D02*
X184297369Y-78400828D01*
X185368797Y-79329400D02*
X185225940Y-79400828D01*
X185225940Y-79400828D02*
X184940226Y-79400828D01*
X184940226Y-79400828D02*
X184797368Y-79329400D01*
X184797368Y-79329400D02*
X184725940Y-79186542D01*
X184725940Y-79186542D02*
X184725940Y-78615114D01*
X184725940Y-78615114D02*
X184797368Y-78472257D01*
X184797368Y-78472257D02*
X184940226Y-78400828D01*
X184940226Y-78400828D02*
X185225940Y-78400828D01*
X185225940Y-78400828D02*
X185368797Y-78472257D01*
X185368797Y-78472257D02*
X185440226Y-78615114D01*
X185440226Y-78615114D02*
X185440226Y-78757971D01*
X185440226Y-78757971D02*
X184725940Y-78900828D01*
X186083082Y-78400828D02*
X186083082Y-79400828D01*
X186083082Y-78543685D02*
X186154511Y-78472257D01*
X186154511Y-78472257D02*
X186297368Y-78400828D01*
X186297368Y-78400828D02*
X186511654Y-78400828D01*
X186511654Y-78400828D02*
X186654511Y-78472257D01*
X186654511Y-78472257D02*
X186725940Y-78615114D01*
X186725940Y-78615114D02*
X186725940Y-79400828D01*
X187225940Y-78400828D02*
X187797368Y-78400828D01*
X187440225Y-77900828D02*
X187440225Y-79186542D01*
X187440225Y-79186542D02*
X187511654Y-79329400D01*
X187511654Y-79329400D02*
X187654511Y-79400828D01*
X187654511Y-79400828D02*
X187797368Y-79400828D01*
X188297368Y-79257971D02*
X188368797Y-79329400D01*
X188368797Y-79329400D02*
X188297368Y-79400828D01*
X188297368Y-79400828D02*
X188225940Y-79329400D01*
X188225940Y-79329400D02*
X188297368Y-79257971D01*
X188297368Y-79257971D02*
X188297368Y-79400828D01*
X188297368Y-78472257D02*
X188368797Y-78543685D01*
X188368797Y-78543685D02*
X188297368Y-78615114D01*
X188297368Y-78615114D02*
X188225940Y-78543685D01*
X188225940Y-78543685D02*
X188297368Y-78472257D01*
X188297368Y-78472257D02*
X188297368Y-78615114D01*
X190797369Y-78400828D02*
X190797369Y-79400828D01*
X190440226Y-77829400D02*
X190083083Y-78900828D01*
X190083083Y-78900828D02*
X191011654Y-78900828D01*
X191511654Y-78972257D02*
X192225940Y-78972257D01*
X191368797Y-79400828D02*
X191868797Y-77900828D01*
X191868797Y-77900828D02*
X192368797Y-79400828D01*
D11*
X157770112Y-98986128D02*
X157698684Y-98950414D01*
X157698684Y-98950414D02*
X157591541Y-98950414D01*
X157591541Y-98950414D02*
X157484398Y-98986128D01*
X157484398Y-98986128D02*
X157412969Y-99057557D01*
X157412969Y-99057557D02*
X157377255Y-99128985D01*
X157377255Y-99128985D02*
X157341541Y-99271842D01*
X157341541Y-99271842D02*
X157341541Y-99378985D01*
X157341541Y-99378985D02*
X157377255Y-99521842D01*
X157377255Y-99521842D02*
X157412969Y-99593271D01*
X157412969Y-99593271D02*
X157484398Y-99664700D01*
X157484398Y-99664700D02*
X157591541Y-99700414D01*
X157591541Y-99700414D02*
X157662969Y-99700414D01*
X157662969Y-99700414D02*
X157770112Y-99664700D01*
X157770112Y-99664700D02*
X157805826Y-99628985D01*
X157805826Y-99628985D02*
X157805826Y-99378985D01*
X157805826Y-99378985D02*
X157662969Y-99378985D01*
X158127255Y-99700414D02*
X158127255Y-98950414D01*
X158127255Y-98950414D02*
X158555826Y-99700414D01*
X158555826Y-99700414D02*
X158555826Y-98950414D01*
X158912969Y-99700414D02*
X158912969Y-98950414D01*
X158912969Y-98950414D02*
X159091540Y-98950414D01*
X159091540Y-98950414D02*
X159198683Y-98986128D01*
X159198683Y-98986128D02*
X159270112Y-99057557D01*
X159270112Y-99057557D02*
X159305826Y-99128985D01*
X159305826Y-99128985D02*
X159341540Y-99271842D01*
X159341540Y-99271842D02*
X159341540Y-99378985D01*
X159341540Y-99378985D02*
X159305826Y-99521842D01*
X159305826Y-99521842D02*
X159270112Y-99593271D01*
X159270112Y-99593271D02*
X159198683Y-99664700D01*
X159198683Y-99664700D02*
X159091540Y-99700414D01*
X159091540Y-99700414D02*
X158912969Y-99700414D01*
D14*
%TO.C,U301*%
X131387500Y-128540000D02*
X131887500Y-128040000D01*
X131887500Y-128040000D02*
X132387500Y-128540000D01*
X132387500Y-128540000D02*
X131387500Y-128540000D01*
X123077500Y-103280000D02*
X164697500Y-103280000D01*
X164697500Y-127800000D01*
X123077500Y-127800000D01*
X123077500Y-103280000D01*
%TO.C,R116*%
X169481237Y-109955000D02*
X168033763Y-109955000D01*
X169481237Y-112665000D02*
X168033763Y-112665000D01*
%TO.C,R101*%
X143549891Y-83272500D02*
X143242609Y-83272500D01*
X143549891Y-84032500D02*
X143242609Y-84032500D01*
%TO.C,U102*%
X106837500Y-103467500D02*
X106037500Y-103467500D01*
X106837500Y-103467500D02*
X107637500Y-103467500D01*
X106837500Y-106587500D02*
X106037500Y-106587500D01*
X106837500Y-106587500D02*
X107637500Y-106587500D01*
X105537500Y-103517500D02*
X105297500Y-103187500D01*
X105777500Y-103187500D01*
X105537500Y-103517500D01*
G36*
X105537500Y-103517500D02*
G01*
X105297500Y-103187500D01*
X105777500Y-103187500D01*
X105537500Y-103517500D01*
G37*
%TO.C,R103*%
X148741250Y-85111359D02*
X148741250Y-85418641D01*
X149501250Y-85111359D02*
X149501250Y-85418641D01*
%TO.C,C203*%
X137592164Y-85890000D02*
X137807836Y-85890000D01*
X137592164Y-86610000D02*
X137807836Y-86610000D01*
%TO.C,U105*%
X189237500Y-100065000D02*
X184637500Y-100065000D01*
X184637500Y-106665000D01*
X189237500Y-106665000D01*
X189237500Y-100065000D01*
%TO.C,Y201*%
X134500000Y-86900000D02*
X134500000Y-90200000D01*
X134500000Y-90200000D02*
X138500000Y-90200000D01*
%TO.C,L102*%
X191427500Y-100405000D02*
X191427500Y-106325000D01*
X191427500Y-100405000D02*
X192777500Y-100405000D01*
X191427500Y-106325000D02*
X192777500Y-106325000D01*
X197147500Y-100405000D02*
X195797500Y-100405000D01*
X197147500Y-100405000D02*
X197147500Y-106325000D01*
X197147500Y-106325000D02*
X195797500Y-106325000D01*
%TO.C,Q106*%
X139450000Y-79630000D02*
X138800000Y-79630000D01*
X139450000Y-79630000D02*
X140100000Y-79630000D01*
X139450000Y-82750000D02*
X138800000Y-82750000D01*
X139450000Y-82750000D02*
X140100000Y-82750000D01*
X138287500Y-79680000D02*
X138047500Y-79350000D01*
X138527500Y-79350000D01*
X138287500Y-79680000D01*
G36*
X138287500Y-79680000D02*
G01*
X138047500Y-79350000D01*
X138527500Y-79350000D01*
X138287500Y-79680000D01*
G37*
%TO.C,C205*%
X135515000Y-97212836D02*
X135515000Y-96997164D01*
X136235000Y-97212836D02*
X136235000Y-96997164D01*
%TO.C,U201*%
X144587500Y-90265000D02*
X142387500Y-90265000D01*
X144587500Y-90265000D02*
X146787500Y-90265000D01*
X144587500Y-97035000D02*
X142387500Y-97035000D01*
X144587500Y-97035000D02*
X146787500Y-97035000D01*
X140727500Y-90725000D02*
X140397500Y-90965000D01*
X140397500Y-90485000D01*
X140727500Y-90725000D01*
G36*
X140727500Y-90725000D02*
G01*
X140397500Y-90965000D01*
X140397500Y-90485000D01*
X140727500Y-90725000D01*
G37*
%TO.C,U106*%
X117377500Y-122252500D02*
X117377500Y-121602500D01*
X117377500Y-122252500D02*
X117377500Y-122902500D01*
X120497500Y-122252500D02*
X120497500Y-121602500D01*
X120497500Y-122252500D02*
X120497500Y-122902500D01*
X117427500Y-123415000D02*
X117097500Y-123655000D01*
X117097500Y-123175000D01*
X117427500Y-123415000D01*
G36*
X117427500Y-123415000D02*
G01*
X117097500Y-123655000D01*
X117097500Y-123175000D01*
X117427500Y-123415000D01*
G37*
%TO.C,R117*%
X188165000Y-114702258D02*
X188165000Y-114227742D01*
X189210000Y-114702258D02*
X189210000Y-114227742D01*
%TO.C,C116*%
X189527500Y-102072836D02*
X189527500Y-101857164D01*
X190247500Y-102072836D02*
X190247500Y-101857164D01*
%TO.C,R110*%
X151087391Y-72235000D02*
X150780109Y-72235000D01*
X151087391Y-72995000D02*
X150780109Y-72995000D01*
%TO.C,R401*%
X116050242Y-104567500D02*
X116524758Y-104567500D01*
X116050242Y-105612500D02*
X116524758Y-105612500D01*
%TO.C,C402*%
X168940336Y-116580000D02*
X168724664Y-116580000D01*
X168940336Y-117300000D02*
X168724664Y-117300000D01*
%TO.C,R114*%
X185765000Y-109752742D02*
X185765000Y-110227258D01*
X186810000Y-109752742D02*
X186810000Y-110227258D01*
%TO.C,RV101*%
X178530000Y-118245000D02*
X178530000Y-122110000D01*
X178530000Y-126620000D02*
X178530000Y-130485000D01*
X180130000Y-118245000D02*
X178530000Y-118245000D01*
X182629000Y-118245000D02*
X181870000Y-118245000D01*
X185129000Y-118245000D02*
X184370000Y-118245000D01*
X188470000Y-118245000D02*
X186871000Y-118245000D01*
X188470000Y-118245000D02*
X188470000Y-122110000D01*
X188470000Y-126620000D02*
X188470000Y-130485000D01*
X188470000Y-130485000D02*
X178530000Y-130485000D01*
%TO.C,R402*%
X119250242Y-104567500D02*
X119724758Y-104567500D01*
X119250242Y-105612500D02*
X119724758Y-105612500D01*
%TO.C,C120*%
X175277500Y-105055000D02*
X177627500Y-105055000D01*
X175277500Y-110810563D02*
X175277500Y-105055000D01*
X176341937Y-111875000D02*
X175277500Y-110810563D01*
X176341937Y-111875000D02*
X177627500Y-111875000D01*
X176446250Y-112508750D02*
X177233750Y-112508750D01*
X176840000Y-112902500D02*
X176840000Y-112115000D01*
X181033063Y-111875000D02*
X179747500Y-111875000D01*
X181033063Y-111875000D02*
X182097500Y-110810563D01*
X182097500Y-105055000D02*
X179747500Y-105055000D01*
X182097500Y-110810563D02*
X182097500Y-105055000D01*
%TO.C,J102*%
X100242500Y-119415000D02*
X100242500Y-119915000D01*
X100482500Y-119655000D02*
X100482500Y-129775000D01*
X100982500Y-119415000D02*
X100242500Y-119415000D01*
X101042500Y-119655000D02*
X101042500Y-129775000D01*
X102542500Y-119655000D02*
X102542500Y-129775000D01*
X103903500Y-126181000D02*
X103868500Y-126146000D01*
X104119500Y-125988000D02*
X104073500Y-125941000D01*
X106211500Y-128490000D02*
X106165500Y-128443000D01*
X106417500Y-128285000D02*
X106381500Y-128250000D01*
X107443500Y-119655000D02*
X107443500Y-129775000D01*
X110403500Y-119655000D02*
X100482500Y-119655000D01*
X110403500Y-119655000D02*
X110403500Y-129775000D01*
X110403500Y-129775000D02*
X100482500Y-129775000D01*
X103462247Y-122243805D02*
G75*
G02*
X103607500Y-121531000I1680254J28806D01*
G01*
X103607744Y-122898318D02*
G75*
G02*
X103462500Y-122215000I1534756J683318D01*
G01*
X104459458Y-120679573D02*
G75*
G02*
X105826500Y-120680000I683041J-1535420D01*
G01*
X105825542Y-123750427D02*
G75*
G02*
X104458500Y-123750000I-683042J1535427D01*
G01*
X106677927Y-121531958D02*
G75*
G02*
X106677500Y-122899000I-1535420J-683041D01*
G01*
X106822500Y-127215000D02*
G75*
G02*
X103462500Y-127215000I-1680000J0D01*
G01*
X103462500Y-127215000D02*
G75*
G02*
X106822500Y-127215000I1680000J0D01*
G01*
%TO.C,C121*%
X187179664Y-111830000D02*
X187395336Y-111830000D01*
X187179664Y-112550000D02*
X187395336Y-112550000D01*
%TO.C,Q104*%
X117212500Y-80942500D02*
X116562500Y-80942500D01*
X117212500Y-80942500D02*
X117862500Y-80942500D01*
X117212500Y-84062500D02*
X116562500Y-84062500D01*
X117212500Y-84062500D02*
X117862500Y-84062500D01*
X116050000Y-80992500D02*
X115810000Y-80662500D01*
X116290000Y-80662500D01*
X116050000Y-80992500D01*
G36*
X116050000Y-80992500D02*
G01*
X115810000Y-80662500D01*
X116290000Y-80662500D01*
X116050000Y-80992500D01*
G37*
%TO.C,C303*%
X133037500Y-129397836D02*
X133037500Y-129182164D01*
X133757500Y-129397836D02*
X133757500Y-129182164D01*
%TO.C,C102*%
X106506248Y-115530000D02*
X107928752Y-115530000D01*
X106506248Y-117350000D02*
X107928752Y-117350000D01*
%TO.C,C118*%
X183327500Y-104772836D02*
X183327500Y-104557164D01*
X184047500Y-104772836D02*
X184047500Y-104557164D01*
%TO.C,C202*%
X138940000Y-93142164D02*
X138940000Y-93357836D01*
X139660000Y-93142164D02*
X139660000Y-93357836D01*
%TO.C,C113*%
X179152500Y-101203748D02*
X179152500Y-101726252D01*
X180622500Y-101203748D02*
X180622500Y-101726252D01*
%TO.C,D105*%
X147611250Y-78490000D02*
X147611250Y-80190000D01*
X147611250Y-78490000D02*
X150271250Y-78490000D01*
X147611250Y-80190000D02*
X150271250Y-80190000D01*
%TO.C,C111*%
X118577500Y-95228748D02*
X118577500Y-96651252D01*
X120397500Y-95228748D02*
X120397500Y-96651252D01*
%TO.C,C106*%
X107645336Y-107267500D02*
X107429664Y-107267500D01*
X107645336Y-107987500D02*
X107429664Y-107987500D01*
%TO.C,D202*%
X154237500Y-94510000D02*
X154237500Y-91850000D01*
X154237500Y-94510000D02*
X155937500Y-94510000D01*
X155937500Y-94510000D02*
X155937500Y-91850000D01*
%TO.C,C204*%
X136707836Y-90590000D02*
X136492164Y-90590000D01*
X136707836Y-91310000D02*
X136492164Y-91310000D01*
%TO.C,U402*%
X167272500Y-115450000D02*
X167272500Y-114040000D01*
X169592500Y-115440000D02*
X169592500Y-114040000D01*
X167322500Y-115820000D02*
X166992500Y-116060000D01*
X166992500Y-115580000D01*
X167322500Y-115820000D01*
G36*
X167322500Y-115820000D02*
G01*
X166992500Y-116060000D01*
X166992500Y-115580000D01*
X167322500Y-115820000D01*
G37*
%TO.C,Q105*%
X125950000Y-81030000D02*
X125300000Y-81030000D01*
X125950000Y-81030000D02*
X126600000Y-81030000D01*
X125950000Y-84150000D02*
X125300000Y-84150000D01*
X125950000Y-84150000D02*
X126600000Y-84150000D01*
X124787500Y-81080000D02*
X124547500Y-80750000D01*
X125027500Y-80750000D01*
X124787500Y-81080000D01*
G36*
X124787500Y-81080000D02*
G01*
X124547500Y-80750000D01*
X125027500Y-80750000D01*
X124787500Y-81080000D01*
G37*
%TO.C,U101*%
X145893750Y-81830000D02*
X147303750Y-81830000D01*
X145903750Y-84150000D02*
X147303750Y-84150000D01*
X145523750Y-81880000D02*
X145283750Y-81550000D01*
X145763750Y-81550000D01*
X145523750Y-81880000D01*
G36*
X145523750Y-81880000D02*
G01*
X145283750Y-81550000D01*
X145763750Y-81550000D01*
X145523750Y-81880000D01*
G37*
%TO.C,C103*%
X147913414Y-80580000D02*
X148129086Y-80580000D01*
X147913414Y-81300000D02*
X148129086Y-81300000D01*
%TO.C,C105*%
X107089664Y-114180000D02*
X107305336Y-114180000D01*
X107089664Y-114900000D02*
X107305336Y-114900000D01*
%TO.C,R104*%
X143410109Y-71602500D02*
X143717391Y-71602500D01*
X143410109Y-72362500D02*
X143717391Y-72362500D01*
%TO.C,C115*%
X189752500Y-108703748D02*
X189752500Y-109226252D01*
X191222500Y-108703748D02*
X191222500Y-109226252D01*
%TO.C,C301*%
X146237836Y-128405000D02*
X146022164Y-128405000D01*
X146237836Y-129125000D02*
X146022164Y-129125000D01*
%TO.C,R106*%
X114282500Y-109691263D02*
X114282500Y-111138737D01*
X116992500Y-109691263D02*
X116992500Y-111138737D01*
%TO.C,J103*%
X189031500Y-84530000D02*
X198952500Y-84530000D01*
X189031500Y-94650000D02*
X189031500Y-84530000D01*
X189031500Y-94650000D02*
X198952500Y-94650000D01*
X191991500Y-94650000D02*
X191991500Y-84530000D01*
X193017500Y-86020000D02*
X193053500Y-86055000D01*
X193223500Y-85815000D02*
X193269500Y-85862000D01*
X195315500Y-88317000D02*
X195361500Y-88364000D01*
X195531500Y-88124000D02*
X195566500Y-88159000D01*
X196892500Y-94650000D02*
X196892500Y-84530000D01*
X198392500Y-94650000D02*
X198392500Y-84530000D01*
X198452500Y-94890000D02*
X199192500Y-94890000D01*
X198952500Y-94650000D02*
X198952500Y-84530000D01*
X199192500Y-94890000D02*
X199192500Y-94390000D01*
X192757073Y-92773042D02*
G75*
G02*
X192757500Y-91406000I1535420J683041D01*
G01*
X193609458Y-90554573D02*
G75*
G02*
X194976500Y-90555000I683042J-1535427D01*
G01*
X194975542Y-93625427D02*
G75*
G02*
X193608500Y-93625000I-683041J1535420D01*
G01*
X195827256Y-91406682D02*
G75*
G02*
X195972500Y-92090000I-1534756J-683318D01*
G01*
X195972753Y-92061195D02*
G75*
G02*
X195827500Y-92774000I-1680254J-28806D01*
G01*
X195972500Y-87090000D02*
G75*
G02*
X192612500Y-87090000I-1680000J0D01*
G01*
X192612500Y-87090000D02*
G75*
G02*
X195972500Y-87090000I1680000J0D01*
G01*
%TO.C,Q101*%
X142541250Y-74607500D02*
X142541250Y-73957500D01*
X142541250Y-74607500D02*
X142541250Y-75257500D01*
X145661250Y-74607500D02*
X145661250Y-73957500D01*
X145661250Y-74607500D02*
X145661250Y-75257500D01*
X142591250Y-75770000D02*
X142261250Y-76010000D01*
X142261250Y-75530000D01*
X142591250Y-75770000D01*
G36*
X142591250Y-75770000D02*
G01*
X142261250Y-76010000D01*
X142261250Y-75530000D01*
X142591250Y-75770000D01*
G37*
%TO.C,R403*%
X186020000Y-91848641D02*
X186020000Y-91541359D01*
X186780000Y-91848641D02*
X186780000Y-91541359D01*
%TO.C,R115*%
X184333859Y-106985000D02*
X184641141Y-106985000D01*
X184333859Y-107745000D02*
X184641141Y-107745000D01*
%TO.C,C302*%
X131279664Y-128930000D02*
X131495336Y-128930000D01*
X131279664Y-129650000D02*
X131495336Y-129650000D01*
%TO.C,R112*%
X184652500Y-97237936D02*
X184652500Y-97692064D01*
X186122500Y-97237936D02*
X186122500Y-97692064D01*
%TO.C,C112*%
X181352500Y-101203748D02*
X181352500Y-101726252D01*
X182822500Y-101203748D02*
X182822500Y-101726252D01*
%TO.C,C307*%
X139994664Y-128430000D02*
X140210336Y-128430000D01*
X139994664Y-129150000D02*
X140210336Y-129150000D01*
%TO.C,R109*%
X123707500Y-93393641D02*
X123707500Y-93086359D01*
X124467500Y-93393641D02*
X124467500Y-93086359D01*
%TO.C,J201*%
X156857500Y-85440000D02*
X158187500Y-85440000D01*
X156857500Y-86770000D02*
X156857500Y-85440000D01*
X156857500Y-88040000D02*
X156857500Y-98260000D01*
X156857500Y-88040000D02*
X159517500Y-88040000D01*
X156857500Y-98260000D02*
X159517500Y-98260000D01*
X159517500Y-88040000D02*
X159517500Y-98260000D01*
%TO.C,D106*%
X167202500Y-95015000D02*
X167202500Y-97300000D01*
X167202500Y-97300000D02*
X168672500Y-97300000D01*
X168672500Y-97300000D02*
X168672500Y-95015000D01*
%TO.C,C308*%
X143054664Y-128430000D02*
X143270336Y-128430000D01*
X143054664Y-129150000D02*
X143270336Y-129150000D01*
%TO.C,Q107*%
X131687500Y-81040000D02*
X131037500Y-81040000D01*
X131687500Y-81040000D02*
X132337500Y-81040000D01*
X131687500Y-84160000D02*
X131037500Y-84160000D01*
X131687500Y-84160000D02*
X132337500Y-84160000D01*
X133090000Y-84440000D02*
X132610000Y-84440000D01*
X132850000Y-84110000D01*
X133090000Y-84440000D01*
G36*
X133090000Y-84440000D02*
G01*
X132610000Y-84440000D01*
X132850000Y-84110000D01*
X133090000Y-84440000D01*
G37*
%TO.C,C305*%
X136037500Y-129397836D02*
X136037500Y-129182164D01*
X136757500Y-129397836D02*
X136757500Y-129182164D01*
%TO.C,C107*%
X105807836Y-109540000D02*
X105592164Y-109540000D01*
X105807836Y-110260000D02*
X105592164Y-110260000D01*
%TO.C,C114*%
X183327500Y-101357164D02*
X183327500Y-101572836D01*
X184047500Y-101357164D02*
X184047500Y-101572836D01*
%TO.C,C110*%
X134152500Y-82861252D02*
X134152500Y-82338748D01*
X135622500Y-82861252D02*
X135622500Y-82338748D01*
%TO.C,D102*%
X108027500Y-117730000D02*
X106717500Y-117730000D01*
X108027500Y-118950000D02*
X106717500Y-118950000D01*
X108027500Y-118950000D02*
X108027500Y-117730000D01*
%TO.C,D203*%
X154200000Y-86665000D02*
X154200000Y-89325000D01*
X155900000Y-86665000D02*
X154200000Y-86665000D01*
X155900000Y-86665000D02*
X155900000Y-89325000D01*
%TO.C,C101*%
X107548752Y-100017500D02*
X106126248Y-100017500D01*
X107548752Y-101837500D02*
X106126248Y-101837500D01*
%TO.C,R108*%
X143773750Y-69991359D02*
X143773750Y-70298641D01*
X144533750Y-69991359D02*
X144533750Y-70298641D01*
%TO.C,R113*%
X167415000Y-98977742D02*
X167415000Y-99452258D01*
X168460000Y-98977742D02*
X168460000Y-99452258D01*
%TO.C,R105*%
X120220000Y-82386359D02*
X120220000Y-82693641D01*
X120980000Y-82386359D02*
X120980000Y-82693641D01*
%TO.C,D101*%
X106027500Y-98417500D02*
X106027500Y-99637500D01*
X106027500Y-98417500D02*
X107337500Y-98417500D01*
X106027500Y-99637500D02*
X107337500Y-99637500D01*
%TO.C,C123*%
X119020336Y-124492500D02*
X118804664Y-124492500D01*
X119020336Y-125212500D02*
X118804664Y-125212500D01*
%TO.C,D104*%
X151371250Y-78830000D02*
X151371250Y-81490000D01*
X153071250Y-78830000D02*
X151371250Y-78830000D01*
X153071250Y-78830000D02*
X153071250Y-81490000D01*
%TO.C,C108*%
X121640000Y-82328748D02*
X121640000Y-82851252D01*
X123110000Y-82328748D02*
X123110000Y-82851252D01*
%TO.C,Q110*%
X166377500Y-102952500D02*
X166377500Y-102302500D01*
X166377500Y-102952500D02*
X166377500Y-103602500D01*
X169497500Y-102952500D02*
X169497500Y-102302500D01*
X169497500Y-102952500D02*
X169497500Y-103602500D01*
X166427500Y-104115000D02*
X166097500Y-104355000D01*
X166097500Y-103875000D01*
X166427500Y-104115000D01*
G36*
X166427500Y-104115000D02*
G01*
X166097500Y-104355000D01*
X166097500Y-103875000D01*
X166427500Y-104115000D01*
G37*
%TO.C,C104*%
X106945336Y-102367500D02*
X106729664Y-102367500D01*
X106945336Y-103087500D02*
X106729664Y-103087500D01*
%TO.C,C401*%
X121477500Y-110632164D02*
X121477500Y-110847836D01*
X122197500Y-110632164D02*
X122197500Y-110847836D01*
%TO.C,C109*%
X122048752Y-98705000D02*
X121526248Y-98705000D01*
X122048752Y-100175000D02*
X121526248Y-100175000D01*
%TO.C,D103*%
X147431250Y-78490000D02*
X144771250Y-78490000D01*
X147431250Y-80190000D02*
X144771250Y-80190000D01*
X147431250Y-80190000D02*
X147431250Y-78490000D01*
%TO.C,L101*%
X117127500Y-87680000D02*
X117127500Y-89030000D01*
X117127500Y-93400000D02*
X117127500Y-92050000D01*
X123047500Y-87680000D02*
X117127500Y-87680000D01*
X123047500Y-87680000D02*
X123047500Y-89030000D01*
X123047500Y-93400000D02*
X117127500Y-93400000D01*
X123047500Y-93400000D02*
X123047500Y-92050000D01*
%TO.C,C304*%
X134537500Y-129397836D02*
X134537500Y-129182164D01*
X135257500Y-129397836D02*
X135257500Y-129182164D01*
%TO.C,Q103*%
X101437500Y-112177500D02*
X101437500Y-111527500D01*
X101437500Y-112177500D02*
X101437500Y-112827500D01*
X104557500Y-112177500D02*
X104557500Y-111527500D01*
X104557500Y-112177500D02*
X104557500Y-112827500D01*
X101487500Y-113340000D02*
X101157500Y-113580000D01*
X101157500Y-113100000D01*
X101487500Y-113340000D01*
G36*
X101487500Y-113340000D02*
G01*
X101157500Y-113580000D01*
X101157500Y-113100000D01*
X101487500Y-113340000D01*
G37*
%TO.C,J101*%
X99862500Y-86905000D02*
X100812500Y-86905000D01*
X100812500Y-97125000D02*
X99862500Y-97125000D01*
X104912500Y-86905000D02*
X110972500Y-86905000D01*
X110972500Y-86905000D02*
X110972500Y-89715000D01*
X110972500Y-94315000D02*
X110972500Y-97125000D01*
X110972500Y-97125000D02*
X104912500Y-97125000D01*
X111162500Y-91015000D02*
X111162500Y-93015000D01*
%TO.C,C306*%
X137537500Y-129397836D02*
X137537500Y-129182164D01*
X138257500Y-129397836D02*
X138257500Y-129182164D01*
%TO.C,U104*%
X121222500Y-97185000D02*
X121222500Y-95185000D01*
X123502500Y-97175000D02*
X123502500Y-95175000D01*
X121292500Y-97825000D02*
X121012500Y-97545000D01*
X121292500Y-97545000D01*
X121292500Y-97825000D01*
G36*
X121292500Y-97825000D02*
G01*
X121012500Y-97545000D01*
X121292500Y-97545000D01*
X121292500Y-97825000D01*
G37*
%TO.C,Q109*%
X148811250Y-75402500D02*
X148811250Y-74752500D01*
X148811250Y-75402500D02*
X148811250Y-76052500D01*
X151931250Y-75402500D02*
X151931250Y-74752500D01*
X151931250Y-75402500D02*
X151931250Y-76052500D01*
X148861250Y-76565000D02*
X148531250Y-76805000D01*
X148531250Y-76325000D01*
X148861250Y-76565000D01*
G36*
X148861250Y-76565000D02*
G01*
X148531250Y-76805000D01*
X148531250Y-76325000D01*
X148861250Y-76565000D01*
G37*
%TO.C,Q108*%
X146771250Y-69105000D02*
X146121250Y-69105000D01*
X146771250Y-69105000D02*
X147421250Y-69105000D01*
X146771250Y-72225000D02*
X146121250Y-72225000D01*
X146771250Y-72225000D02*
X147421250Y-72225000D01*
X148173750Y-72505000D02*
X147693750Y-72505000D01*
X147933750Y-72175000D01*
X148173750Y-72505000D01*
G36*
X148173750Y-72505000D02*
G01*
X147693750Y-72505000D01*
X147933750Y-72175000D01*
X148173750Y-72505000D01*
G37*
%TO.C,U401*%
X120137500Y-109580000D02*
X118737500Y-109580000D01*
X120147500Y-111900000D02*
X118737500Y-111900000D01*
X120757500Y-112180000D02*
X120277500Y-112180000D01*
X120517500Y-111850000D01*
X120757500Y-112180000D01*
G36*
X120757500Y-112180000D02*
G01*
X120277500Y-112180000D01*
X120517500Y-111850000D01*
X120757500Y-112180000D01*
G37*
%TO.C,C201*%
X137740000Y-93142164D02*
X137740000Y-93357836D01*
X138460000Y-93142164D02*
X138460000Y-93357836D01*
%TO.C,C119*%
X187577500Y-109849420D02*
X187577500Y-110130580D01*
X188597500Y-109849420D02*
X188597500Y-110130580D01*
%TO.C,SW201*%
X128675000Y-97225000D02*
X128675000Y-98425000D01*
X128675000Y-100025000D02*
X128675000Y-101225000D01*
X128675000Y-101225000D02*
X135075000Y-101225000D01*
X135075000Y-97225000D02*
X128675000Y-97225000D01*
X135075000Y-98425000D02*
X135075000Y-97225000D01*
X135075000Y-101225000D02*
X135075000Y-100025000D01*
%TO.C,R404*%
X186020000Y-89258641D02*
X186020000Y-88951359D01*
X186780000Y-89258641D02*
X186780000Y-88951359D01*
%TO.C,D201*%
X160650000Y-98510000D02*
X160650000Y-95850000D01*
X160650000Y-98510000D02*
X162350000Y-98510000D01*
X162350000Y-98510000D02*
X162350000Y-95850000D01*
%TO.C,C122*%
X116227500Y-122069664D02*
X116227500Y-122285336D01*
X116947500Y-122069664D02*
X116947500Y-122285336D01*
%TO.C,U103*%
X107180000Y-110630000D02*
X106380000Y-110630000D01*
X107180000Y-110630000D02*
X107980000Y-110630000D01*
X107180000Y-113750000D02*
X106380000Y-113750000D01*
X107180000Y-113750000D02*
X107980000Y-113750000D01*
X108720000Y-114030000D02*
X108240000Y-114030000D01*
X108480000Y-113700000D01*
X108720000Y-114030000D01*
G36*
X108720000Y-114030000D02*
G01*
X108240000Y-114030000D01*
X108480000Y-113700000D01*
X108720000Y-114030000D01*
G37*
%TO.C,R107*%
X136107500Y-82753641D02*
X136107500Y-82446359D01*
X136867500Y-82753641D02*
X136867500Y-82446359D01*
%TO.C,R102*%
X149774891Y-83335000D02*
X149467609Y-83335000D01*
X149774891Y-84095000D02*
X149467609Y-84095000D01*
%TO.C,C117*%
X189527500Y-104657164D02*
X189527500Y-104872836D01*
X190247500Y-104657164D02*
X190247500Y-104872836D01*
%TO.C,R111*%
X182965000Y-97602258D02*
X182965000Y-97127742D01*
X184010000Y-97602258D02*
X184010000Y-97127742D01*
%TO.C,Q102*%
X109777500Y-105127500D02*
X109777500Y-104477500D01*
X109777500Y-105127500D02*
X109777500Y-105777500D01*
X112897500Y-105127500D02*
X112897500Y-104477500D01*
X112897500Y-105127500D02*
X112897500Y-105777500D01*
X113177500Y-104205000D02*
X112847500Y-103965000D01*
X113177500Y-103725000D01*
X113177500Y-104205000D01*
G36*
X113177500Y-104205000D02*
G01*
X112847500Y-103965000D01*
X113177500Y-103725000D01*
X113177500Y-104205000D01*
G37*
%TO.C,D204*%
X160450000Y-84115000D02*
X160450000Y-86775000D01*
X162150000Y-84115000D02*
X160450000Y-84115000D01*
X162150000Y-84115000D02*
X162150000Y-86775000D01*
%TD*%
%LPC*%
D15*
%TO.C,U301*%
X123787500Y-103990000D03*
X123787500Y-127090000D03*
X163987500Y-103990000D03*
X163987500Y-127090000D03*
D16*
X131887500Y-126940000D03*
D17*
X133387500Y-126940000D03*
X134887500Y-126940000D03*
X136387500Y-126940000D03*
X137887500Y-126940000D03*
X139387500Y-126940000D03*
X140887500Y-126940000D03*
X142387500Y-126940000D03*
X143887500Y-126940000D03*
X145387500Y-126940000D03*
X146887500Y-126940000D03*
X148387500Y-126940000D03*
X149887500Y-126940000D03*
X151387500Y-126940000D03*
X152887500Y-126940000D03*
X154387500Y-126940000D03*
X155887500Y-126940000D03*
D18*
X126587500Y-125140000D03*
X161187500Y-125140000D03*
%TD*%
D19*
%TO.C,R116*%
X170220000Y-111310000D03*
X167295000Y-111310000D03*
%TD*%
D20*
%TO.C,R101*%
X143906250Y-83652500D03*
X142886250Y-83652500D03*
%TD*%
D21*
%TO.C,U102*%
X105700000Y-104077500D03*
X105700000Y-105027500D03*
X105700000Y-105977500D03*
X107975000Y-105977500D03*
X107975000Y-105027500D03*
X107975000Y-104077500D03*
%TD*%
D22*
%TO.C,R103*%
X149121250Y-84755000D03*
X149121250Y-85775000D03*
%TD*%
D23*
%TO.C,C203*%
X137220000Y-86250000D03*
X138180000Y-86250000D03*
%TD*%
D24*
%TO.C,U105*%
X187687500Y-100965000D03*
X187187500Y-100965000D03*
X186687500Y-100965000D03*
X186187500Y-100965000D03*
D25*
X185562500Y-101325000D03*
D26*
X185537500Y-101825000D03*
D27*
X186937500Y-102285000D03*
X186937500Y-102825000D03*
D28*
X186937500Y-103365000D03*
D27*
X186937500Y-103905000D03*
X186937500Y-104445000D03*
D26*
X185537500Y-104905000D03*
D25*
X185562500Y-105405000D03*
D29*
X186187500Y-105765000D03*
X186687500Y-105765000D03*
X187187500Y-105765000D03*
X187687500Y-105765000D03*
D30*
X188312500Y-105405000D03*
D31*
X188337500Y-104905000D03*
X188337500Y-101825000D03*
D30*
X188312500Y-101325000D03*
%TD*%
D32*
%TO.C,Y201*%
X135400000Y-89400000D03*
X137600000Y-89400000D03*
X137600000Y-87700000D03*
X135400000Y-87700000D03*
%TD*%
D33*
%TO.C,L102*%
X194287500Y-101315000D03*
X194287500Y-105415000D03*
%TD*%
D34*
%TO.C,Q106*%
X138512500Y-80240000D03*
X138512500Y-82140000D03*
X140387500Y-81190000D03*
%TD*%
D35*
%TO.C,C205*%
X135875000Y-97585000D03*
X135875000Y-96625000D03*
%TD*%
D36*
%TO.C,U201*%
X141725000Y-90725000D03*
X141725000Y-91375000D03*
X141725000Y-92025000D03*
X141725000Y-92675000D03*
X141725000Y-93325000D03*
X141725000Y-93975000D03*
X141725000Y-94625000D03*
X141725000Y-95275000D03*
X141725000Y-95925000D03*
X141725000Y-96575000D03*
X147450000Y-96575000D03*
X147450000Y-95925000D03*
X147450000Y-95275000D03*
X147450000Y-94625000D03*
X147450000Y-93975000D03*
X147450000Y-93325000D03*
X147450000Y-92675000D03*
X147450000Y-92025000D03*
X147450000Y-91375000D03*
X147450000Y-90725000D03*
%TD*%
D37*
%TO.C,U106*%
X117987500Y-123190000D03*
X119887500Y-123190000D03*
X118937500Y-121315000D03*
%TD*%
D38*
%TO.C,R117*%
X188687500Y-115290000D03*
X188687500Y-113640000D03*
%TD*%
D35*
%TO.C,C116*%
X189887500Y-102445000D03*
X189887500Y-101485000D03*
%TD*%
D20*
%TO.C,R110*%
X151443750Y-72615000D03*
X150423750Y-72615000D03*
%TD*%
D39*
%TO.C,R401*%
X115462500Y-105090000D03*
X117112500Y-105090000D03*
%TD*%
D40*
%TO.C,C402*%
X169312500Y-116940000D03*
X168352500Y-116940000D03*
%TD*%
D41*
%TO.C,R114*%
X186287500Y-109165000D03*
X186287500Y-110815000D03*
%TD*%
D42*
%TO.C,RV101*%
X187900000Y-124365000D03*
X179100000Y-124365000D03*
D43*
X181000000Y-117365000D03*
X183500000Y-117365000D03*
X186000000Y-117365000D03*
%TD*%
D39*
%TO.C,R402*%
X118662500Y-105090000D03*
X120312500Y-105090000D03*
%TD*%
D44*
%TO.C,C120*%
X178687500Y-111165000D03*
X178687500Y-105765000D03*
%TD*%
D45*
%TO.C,J102*%
X105142500Y-122215000D03*
D46*
X105142500Y-127215000D03*
%TD*%
D23*
%TO.C,C121*%
X186807500Y-112190000D03*
X187767500Y-112190000D03*
%TD*%
D34*
%TO.C,Q104*%
X116275000Y-81552500D03*
X116275000Y-83452500D03*
X118150000Y-82502500D03*
%TD*%
D35*
%TO.C,C303*%
X133397500Y-129770000D03*
X133397500Y-128810000D03*
%TD*%
D47*
%TO.C,C102*%
X105742500Y-116440000D03*
X108692500Y-116440000D03*
%TD*%
D35*
%TO.C,C118*%
X183687500Y-105145000D03*
X183687500Y-104185000D03*
%TD*%
D48*
%TO.C,C202*%
X139300000Y-92770000D03*
X139300000Y-93730000D03*
%TD*%
D49*
%TO.C,C113*%
X179887500Y-100515000D03*
X179887500Y-102415000D03*
%TD*%
D50*
%TO.C,D105*%
X148121250Y-79340000D03*
X150321250Y-79340000D03*
%TD*%
D51*
%TO.C,C111*%
X119487500Y-94465000D03*
X119487500Y-97415000D03*
%TD*%
D40*
%TO.C,C106*%
X108017500Y-107627500D03*
X107057500Y-107627500D03*
%TD*%
D52*
%TO.C,D202*%
X155087500Y-93950000D03*
X155087500Y-91850000D03*
%TD*%
D40*
%TO.C,C204*%
X137080000Y-90950000D03*
X136120000Y-90950000D03*
%TD*%
D53*
%TO.C,U402*%
X167782500Y-115690000D03*
X168432500Y-115690000D03*
X169082500Y-115690000D03*
X169082500Y-113790000D03*
X168432500Y-113790000D03*
X167782500Y-113790000D03*
%TD*%
D34*
%TO.C,Q105*%
X125012500Y-81640000D03*
X125012500Y-83540000D03*
X126887500Y-82590000D03*
%TD*%
D54*
%TO.C,U101*%
X145653750Y-82340000D03*
X145653750Y-82990000D03*
X145653750Y-83640000D03*
X147553750Y-83640000D03*
X147553750Y-82340000D03*
%TD*%
D23*
%TO.C,C103*%
X147541250Y-80940000D03*
X148501250Y-80940000D03*
%TD*%
%TO.C,C105*%
X106717500Y-114540000D03*
X107677500Y-114540000D03*
%TD*%
D55*
%TO.C,R104*%
X143053750Y-71982500D03*
X144073750Y-71982500D03*
%TD*%
D49*
%TO.C,C115*%
X190487500Y-108015000D03*
X190487500Y-109915000D03*
%TD*%
D40*
%TO.C,C301*%
X146610000Y-128765000D03*
X145650000Y-128765000D03*
%TD*%
D56*
%TO.C,R106*%
X115637500Y-108952500D03*
X115637500Y-111877500D03*
%TD*%
D45*
%TO.C,J103*%
X194292500Y-92090000D03*
D46*
X194292500Y-87090000D03*
%TD*%
D37*
%TO.C,Q101*%
X143151250Y-75545000D03*
X145051250Y-75545000D03*
X144101250Y-73670000D03*
%TD*%
D57*
%TO.C,R403*%
X186400000Y-92205000D03*
X186400000Y-91185000D03*
%TD*%
D55*
%TO.C,R115*%
X183977500Y-107365000D03*
X184997500Y-107365000D03*
%TD*%
D23*
%TO.C,C302*%
X130907500Y-129290000D03*
X131867500Y-129290000D03*
%TD*%
D58*
%TO.C,R112*%
X185387500Y-96552500D03*
X185387500Y-98377500D03*
%TD*%
D49*
%TO.C,C112*%
X182087500Y-100515000D03*
X182087500Y-102415000D03*
%TD*%
D23*
%TO.C,C307*%
X139622500Y-128790000D03*
X140582500Y-128790000D03*
%TD*%
D57*
%TO.C,R109*%
X124087500Y-93750000D03*
X124087500Y-92730000D03*
%TD*%
D59*
%TO.C,J201*%
X158187500Y-86770000D03*
D60*
X158187500Y-89310000D03*
X158187500Y-91850000D03*
X158187500Y-94390000D03*
X158187500Y-96930000D03*
%TD*%
D61*
%TO.C,D106*%
X167937500Y-96602500D03*
X167937500Y-95027500D03*
%TD*%
D23*
%TO.C,C308*%
X142682500Y-128790000D03*
X143642500Y-128790000D03*
%TD*%
D62*
%TO.C,Q107*%
X132625000Y-83550000D03*
X132625000Y-81650000D03*
X130750000Y-82600000D03*
%TD*%
D35*
%TO.C,C305*%
X136397500Y-129770000D03*
X136397500Y-128810000D03*
%TD*%
D40*
%TO.C,C107*%
X106180000Y-109900000D03*
X105220000Y-109900000D03*
%TD*%
D48*
%TO.C,C114*%
X183687500Y-100985000D03*
X183687500Y-101945000D03*
%TD*%
D63*
%TO.C,C110*%
X134887500Y-83550000D03*
X134887500Y-81650000D03*
%TD*%
D64*
%TO.C,D102*%
X107567500Y-118340000D03*
X106867500Y-118340000D03*
%TD*%
D65*
%TO.C,D203*%
X155050000Y-87225000D03*
X155050000Y-89325000D03*
%TD*%
D66*
%TO.C,C101*%
X108312500Y-100927500D03*
X105362500Y-100927500D03*
%TD*%
D22*
%TO.C,R108*%
X144153750Y-69635000D03*
X144153750Y-70655000D03*
%TD*%
D41*
%TO.C,R113*%
X167937500Y-98390000D03*
X167937500Y-100040000D03*
%TD*%
D22*
%TO.C,R105*%
X120600000Y-82030000D03*
X120600000Y-83050000D03*
%TD*%
D67*
%TO.C,D101*%
X106487500Y-99027500D03*
X107187500Y-99027500D03*
%TD*%
D40*
%TO.C,C123*%
X119392500Y-124852500D03*
X118432500Y-124852500D03*
%TD*%
D68*
%TO.C,D104*%
X152221250Y-79340000D03*
X152221250Y-81540000D03*
%TD*%
D49*
%TO.C,C108*%
X122375000Y-81640000D03*
X122375000Y-83540000D03*
%TD*%
D37*
%TO.C,Q110*%
X166987500Y-103890000D03*
X168887500Y-103890000D03*
X167937500Y-102015000D03*
%TD*%
D40*
%TO.C,C104*%
X107317500Y-102727500D03*
X106357500Y-102727500D03*
%TD*%
D48*
%TO.C,C401*%
X121837500Y-110260000D03*
X121837500Y-111220000D03*
%TD*%
D69*
%TO.C,C109*%
X122737500Y-99440000D03*
X120837500Y-99440000D03*
%TD*%
D70*
%TO.C,D103*%
X146921250Y-79340000D03*
X144721250Y-79340000D03*
%TD*%
D71*
%TO.C,L101*%
X122137500Y-90540000D03*
X118037500Y-90540000D03*
%TD*%
D35*
%TO.C,C304*%
X134897500Y-129770000D03*
X134897500Y-128810000D03*
%TD*%
D37*
%TO.C,Q103*%
X102047500Y-113115000D03*
X103947500Y-113115000D03*
X102997500Y-111240000D03*
%TD*%
D72*
%TO.C,J101*%
X100862500Y-92015000D03*
D73*
X109862500Y-92015000D03*
D74*
X103862500Y-92015000D03*
D75*
X102862500Y-87515000D03*
X102862500Y-96515000D03*
%TD*%
D35*
%TO.C,C306*%
X137897500Y-129770000D03*
X137897500Y-128810000D03*
%TD*%
D76*
%TO.C,U104*%
X121612500Y-97125000D03*
X122112500Y-97125000D03*
X122612500Y-97125000D03*
X123112500Y-97125000D03*
X123112500Y-95225000D03*
X122612500Y-95225000D03*
X122112500Y-95225000D03*
X121612500Y-95225000D03*
D77*
X122362500Y-96175000D03*
%TD*%
D37*
%TO.C,Q109*%
X149421250Y-76340000D03*
X151321250Y-76340000D03*
X150371250Y-74465000D03*
%TD*%
D62*
%TO.C,Q108*%
X147708750Y-71615000D03*
X147708750Y-69715000D03*
X145833750Y-70665000D03*
%TD*%
D78*
%TO.C,U401*%
X120387500Y-111390000D03*
X120387500Y-110740000D03*
X120387500Y-110090000D03*
X118487500Y-110090000D03*
X118487500Y-110740000D03*
X118487500Y-111390000D03*
%TD*%
D48*
%TO.C,C201*%
X138100000Y-92770000D03*
X138100000Y-93730000D03*
%TD*%
D79*
%TO.C,C119*%
X188087500Y-109215000D03*
X188087500Y-110765000D03*
%TD*%
D80*
%TO.C,SW201*%
X128000000Y-99225000D03*
X135750000Y-99225000D03*
%TD*%
D57*
%TO.C,R404*%
X186400000Y-89615000D03*
X186400000Y-88595000D03*
%TD*%
D52*
%TO.C,D201*%
X161500000Y-97950000D03*
X161500000Y-95850000D03*
%TD*%
D48*
%TO.C,C122*%
X116587500Y-121697500D03*
X116587500Y-122657500D03*
%TD*%
D81*
%TO.C,U103*%
X108317500Y-113140000D03*
X108317500Y-112190000D03*
X108317500Y-111240000D03*
X106042500Y-111240000D03*
X106042500Y-112190000D03*
X106042500Y-113140000D03*
%TD*%
D57*
%TO.C,R107*%
X136487500Y-83110000D03*
X136487500Y-82090000D03*
%TD*%
D20*
%TO.C,R102*%
X150131250Y-83715000D03*
X149111250Y-83715000D03*
%TD*%
D48*
%TO.C,C117*%
X189887500Y-104285000D03*
X189887500Y-105245000D03*
%TD*%
D38*
%TO.C,R111*%
X183487500Y-98190000D03*
X183487500Y-96540000D03*
%TD*%
D82*
%TO.C,Q102*%
X112287500Y-104190000D03*
X110387500Y-104190000D03*
X111337500Y-106065000D03*
%TD*%
D65*
%TO.C,D204*%
X161300000Y-84675000D03*
X161300000Y-86775000D03*
%TD*%
%LPD*%
M02*
